# Created by Open3D 
# object name: part_001
# number of vertices: 446
# number of triangles: 888
v -0.0362962 -0.022546 0.154451
vn -0.0130434 0.000365662 -0.999915
v -0.0362751 -0.0234896 0.154451
vn -0.999476 -0.0265266 0.0185391
v -0.0361147 -0.022546 0.164236
vn -0.999373 -0.016368 0.0313978
v -0.0360472 -0.020629 0.164236
vn -0.996575 0.076395 0.0316524
v -0.0362329 -0.0214919 0.154451
vn -0.997606 0.0680959 0.0120493
v -0.0362456 -0.0244545 0.154451
vn -0.998061 -0.0587247 0.0206352
v -0.0358994 -0.022546 0.166149
vn -0.960209 -0.00886964 0.27914
v -0.0360007 -0.0244545 0.164236
vn -0.993655 -0.103022 0.0451332
v -0.0358108 -0.020629 0.166149
vn -0.956688 0.0991675 0.273703
v -0.0357981 -0.0187163 0.164236
vn -0.983857 0.17611 0.0317849
v -0.0361654 -0.020629 0.154451
vn -0.992603 0.121247 0.00624016
v -0.0361822 -0.0250963 0.154451
vn -0.993808 -0.110796 0.0083992
v -0.0350848 -0.022546 0.167752
vn -0.875749 -0.00323076 0.482755
v -0.0350341 -0.020629 0.167702
vn -0.872886 0.0680188 0.48316
v -0.0357728 -0.0244545 0.166149
vn -0.950321 -0.0962022 0.296031
v -0.0350088 -0.0244545 0.167722
vn -0.874 -0.0672981 0.481243
v -0.0360176 -0.026499 0.154451
vn -0.987326 -0.158642 0.00444377
v -0.0357306 -0.0263672 0.164236
vn -0.980834 -0.189525 0.0452274
v -0.0355111 -0.0263672 0.166149
vn -0.958035 -0.162864 0.235892
v -0.0348822 -0.0187163 0.16759
vn -0.867399 0.131615 0.479893
v -0.0355322 -0.0187163 0.166149
vn -0.944422 0.178743 0.275893
v -0.0353507 -0.0168035 0.164236
vn -0.958812 0.282042 0.0336307
v -0.0355027 -0.0168035 0.154451
vn -0.969568 0.242684 -0.0322801
v -0.0359121 -0.0187885 0.154451
vn -0.979115 0.201238 -0.0289219
v -0.035929 -0.0188778 0.154451
vn -0.99066 0.136321 -0.00292706
v -0.0243 -0.022546 0.187191
vn -0.869934 -0.0257091 0.492498
v -0.0241396 -0.020629 0.187191
vn -0.858412 0.149659 0.490643
v -0.0348695 -0.0263672 0.167607
vn -0.867939 -0.116042 0.482924
v -0.0356335 -0.02828 0.154451
vn -0.976263 -0.216588 0.00082441
v -0.0353043 -0.02828 0.164236
vn -0.962179 -0.268654 0.04514
v -0.0350848 -0.02828 0.166149
vn -0.959569 -0.238708 0.149149
v -0.0345191 -0.0293724 0.167186
vn -0.817444 -0.317768 0.480425
v -0.0346669 -0.02828 0.16738
vn -0.859569 -0.167743 0.482704
v -0.0346542 -0.0168035 0.167339
vn -0.856748 0.186544 0.480816
v -0.0344938 -0.0157791 0.167142
vn -0.822007 0.311576 0.476681
v -0.0350848 -0.0168035 0.166149
vn -0.952595 0.249952 0.173453
v -0.0346331 -0.0154263 0.166149
vn -0.929642 0.335497 0.152341
v -0.0347724 -0.0150905 0.164236
vn -0.939626 0.340257 0.0364373
v -0.0349328 -0.0150013 0.154451
vn -0.932227 0.354213 -0.0740682
v -0.0233672 -0.022546 0.188452
vn -0.545623 -0.00707096 0.838001
v -0.0232912 -0.020629 0.188395
vn -0.633813 0.0910356 0.768111
v -0.0240678 -0.0244545 0.187191
vn -0.854146 -0.16462 0.49329
v -0.0232616 -0.0244545 0.188374
vn -0.684081 -0.10254 0.722162
v -0.023135 -0.0192816 0.188269
vn -0.813811 0.235354 0.531338
v -0.0355575 -0.0285818 0.154451
vn -0.954823 -0.288288 -0.0721394
v -0.0350932 -0.0300695 0.154451
vn -0.952563 -0.303397 -0.0239472
v -0.0347513 -0.0300185 0.164236
vn -0.946702 -0.31895 0.0450234
v -0.0346458 -0.0297167 0.166149
vn -0.938859 -0.318498 0.130778
v -0.0234516 -0.0263205 0.187208
vn -0.788177 -0.368915 0.492624
v -0.0231054 -0.0256532 0.188249
vn -0.791653 -0.268061 0.549025
v -0.0342659 -0.030673 0.166149
vn -0.903329 -0.391067 0.176249
v -0.0336116 -0.0321055 0.166149
vn -0.880443 -0.425556 0.2091
v -0.0326703 -0.0332574 0.167251
vn -0.769281 -0.417101 0.483977
v -0.0335694 -0.012978 0.166149
vn -0.880673 0.422959 0.213357
v -0.0342448 -0.01447 0.166149
vn -0.900901 0.391409 0.187553
v -0.0235318 -0.0186738 0.187296
vn -0.824389 0.283067 0.490159
v -0.0228564 -0.0180064 0.188001
vn -0.778474 0.387786 0.493559
v -0.0326534 -0.0118644 0.167224
vn -0.760257 0.442822 0.475307
v -0.0343841 -0.0141342 0.164236
vn -0.910777 0.411318 0.0360914
v -0.0339789 -0.0129185 0.154451
vn -0.881098 0.456 -0.125421
v -0.0220333 -0.022546 0.188968
vn -0.122554 0.00147677 0.992461
v -0.0220333 -0.020629 0.1889
vn -0.25206 0.0884845 0.963658
v -0.0220333 -0.0244545 0.188886
vn -0.292909 -0.0972069 0.951186
v -0.0221473 -0.0186738 0.188581
vn -0.317352 0.173183 0.93236
v -0.021455 -0.0168035 0.18835
vn -0.372838 0.281524 0.884158
v -0.0350003 -0.0303288 0.154451
vn -0.929559 -0.36221 -0.0687302
v -0.034401 -0.0309748 0.164236
vn -0.91985 -0.389187 0.0490967
v -0.0227424 -0.0269283 0.187859
vn -0.751313 -0.40709 0.519429
v -0.0214635 -0.0278507 0.188391
vn -0.443236 -0.339454 0.829646
v -0.0220755 -0.0263205 0.188557
vn -0.29426 -0.184165 0.937813
v -0.0338691 -0.0321055 0.164236
vn -0.887117 -0.458366 0.0540781
v -0.0328518 -0.0335422 0.166149
vn -0.860551 -0.486529 0.150806
v -0.0322398 -0.0344985 0.166149
vn -0.805543 -0.555244 0.206893
v -0.0309904 -0.0354762 0.167468
vn -0.688261 -0.537584 0.487135
v -0.0231814 -0.0276339 0.186584
vn -0.713353 -0.495032 0.496056
v -0.0338227 -0.012978 0.164236
vn -0.887167 0.459812 0.0388241
v -0.032835 -0.0115753 0.166149
vn -0.85692 0.493531 0.14871
v -0.0210793 -0.0158471 0.188147
vn -0.609733 0.621964 0.49131
v -0.0224385 -0.0167398 0.187296
vn -0.696007 0.528861 0.485675
v -0.0309355 -0.00971361 0.167393
vn -0.676248 0.557132 0.481967
v -0.0304247 -0.00843845 0.166512
vn -0.709487 0.609546 0.35367
v -0.0321976 -0.010619 0.166149
vn -0.797772 0.563894 0.213501
v -0.0329489 -0.0113628 0.164236
vn -0.866744 0.498244 0.0225189
v -0.0329363 -0.0111418 0.154451
vn -0.80836 0.525357 -0.26562
v -0.0201212 -0.0263672 0.189059
vn -0.0885864 -0.04771 0.994925
v -0.0201212 -0.0187163 0.189015
vn -0.0335195 0.021558 0.999206
v -0.0201212 -0.0168035 0.188784
vn -0.185127 0.196205 0.962929
v -0.0201212 -0.0154901 0.18834
vn -0.27184 0.388725 0.880338
v -0.034574 -0.0313446 0.154451
vn -0.910578 -0.383565 -0.15403
v -0.0341857 -0.0322627 0.154451
vn -0.895082 -0.44491 -0.0297059
v -0.0221008 -0.0283778 0.18732
vn -0.687691 -0.527187 0.499155
v -0.0209696 -0.0291258 0.188055
vn -0.600102 -0.620532 0.504794
v -0.0196906 -0.0295977 0.188384
vn -0.328182 -0.481556 0.81265
v -0.0202436 -0.0284075 0.188645
vn -0.226222 -0.235463 0.945188
v -0.0329785 -0.0337334 0.164236
vn -0.864574 -0.500482 0.0450581
v -0.032358 -0.0346898 0.164236
vn -0.810251 -0.58429 0.0458096
v -0.0312816 -0.0358247 0.166149
vn -0.78901 -0.583638 0.191913
v -0.0305514 -0.0367811 0.166149
vn -0.746278 -0.660603 0.0816858
v -0.0292513 -0.0373634 0.167532
vn -0.610963 -0.624624 0.486384
v -0.0323622 -0.0104064 0.164236
vn -0.818917 0.573306 0.0263468
v -0.0188337 -0.0140959 0.187967
vn -0.366891 0.774996 0.51456
v -0.020176 -0.0145082 0.187276
vn -0.527478 0.696155 0.486966
v -0.0271999 -0.00602414 0.167366
vn -0.534567 0.694885 0.481013
v -0.02915 -0.00777111 0.167434
vn -0.61429 0.625516 0.481017
v -0.0284746 -0.00649595 0.166478
vn -0.593448 0.723584 0.352485
v -0.0295763 -0.00733755 0.165857
vn -0.679051 0.687802 0.256551
v -0.0306527 -0.00818341 0.165237
vn -0.765529 0.627891 0.140421
v -0.0311254 -0.00910578 0.165983
vn -0.770638 0.584184 0.254648
v -0.0315518 -0.00923755 0.154451
vn -0.750938 0.58777 -0.301027
v -0.0182048 -0.02828 0.189086
vn -0.00972535 -0.0212607 0.999727
v -0.0182048 -0.0168035 0.189001
vn -0.00144214 0.0182966 0.999832
v -0.0162927 -0.0148908 0.188829
vn -0.07961 0.252644 0.964279
v -0.0182006 -0.0147973 0.18855
vn -0.163358 0.322227 0.932461
v -0.017559 -0.0138281 0.188239
vn -0.229795 0.668803 0.707034
v -0.0340211 -0.0325603 0.154451
vn -0.844704 -0.471714 -0.252906
v -0.0201845 -0.0302395 0.187276
vn -0.483546 -0.720151 0.49756
v -0.0186185 -0.0308728 0.187771
vn -0.364069 -0.78627 0.499233
v -0.0272505 -0.0391359 0.167457
vn -0.522757 -0.698361 0.488893
v -0.0180697 -0.0302182 0.188513
vn -0.166613 -0.327932 0.929893
v -0.0173395 -0.0311831 0.188181
vn -0.199346 -0.83353 0.515256
v -0.0332528 -0.0339332 0.154451
vn -0.841278 -0.475099 -0.257938
v -0.0331473 -0.0341075 0.154451
vn -0.825301 -0.540569 -0.163287
v -0.0325648 -0.0349746 0.154451
vn -0.771076 -0.531995 -0.349889
v -0.0318599 -0.0359735 0.154451
vn -0.752607 -0.543552 -0.371664
v -0.0316531 -0.036237 0.154451
vn -0.768138 -0.626745 -0.130976
v -0.0313998 -0.0358842 0.164236
vn -0.775444 -0.629899 0.0437348
v -0.0294243 -0.0379372 0.165972
vn -0.680172 -0.704678 0.201978
v -0.0285253 -0.0386386 0.166491
vn -0.618433 -0.717153 0.321299
v -0.030889 -0.0371594 0.154451
vn -0.693772 -0.603257 -0.393397
v -0.0301377 -0.0379797 0.154451
vn -0.723928 -0.673358 -0.150057
v -0.0287321 -0.0388043 0.165216
vn -0.665542 -0.744626 0.0508597
v -0.0314336 -0.00915254 0.164236
vn -0.797094 0.60381 0.00743181
v -0.0182006 -0.0134286 0.187276
vn -0.304821 0.822188 0.480718
v -0.0249543 -0.00434092 0.167142
vn -0.394388 0.78862 0.471738
v -0.0195724 -0.0136879 0.186692
vn -0.487722 0.727218 0.482992
v -0.026191 -0.00477023 0.166149
vn -0.539951 0.812756 0.218818
v -0.0278119 -0.00583711 0.165966
vn -0.561179 0.789782 0.247634
v -0.0287321 -0.00627917 0.165203
vn -0.625321 0.77016 0.125807
v -0.0306653 -0.00816641 0.164236
vn -0.743652 0.668534 0.00667169
v -0.0306696 -0.00816641 0.162324
vn -0.751481 0.659742 -0.00414371
v -0.0297494 -0.00718454 0.154451
vn -0.638723 0.648248 -0.414497
v -0.0162927 -0.0301927 0.188761
vn -0.0670187 -0.334918 0.939861
v -0.0143848 -0.0301927 0.188805
vn 0.0230238 -0.228273 0.973325
v -0.0124726 -0.02828 0.189066
vn 0.0147163 -0.0506658 0.998607
v -0.00864415 -0.0244545 0.189032
vn 0.0132844 0.00612712 0.999893
v -0.0105605 -0.0168035 0.188968
vn 0.0275266 0.0469481 0.998518
v -0.0143848 -0.0148908 0.188879
vn 0.00841529 0.130838 0.991368
v -0.0143848 -0.0135901 0.188418
vn 0.0137328 0.536755 0.843626
v -0.0162927 -0.0136751 0.188357
vn -0.0907096 0.634656 0.767453
v -0.0162927 -0.012859 0.187191
vn -0.147613 0.862907 0.483323
v -0.0194036 -0.0312766 0.186496
vn -0.455767 -0.738013 0.497608
v -0.0250345 -0.0407851 0.167193
vn -0.416507 -0.767251 0.487697
v -0.0210751 -0.0426256 0.167105
vn -0.324819 -0.813857 0.481798
v -0.0263092 -0.0404068 0.166149
vn -0.552533 -0.800627 0.231742
v -0.0162927 -0.0318674 0.187191
vn -0.0750075 -0.865385 0.495462
v -0.0162927 -0.0312596 0.188249
vn -0.0542476 -0.731683 0.679483
v -0.0198004 -0.0427786 0.167322
vn -0.163286 -0.859522 0.484314
v -0.0182048 -0.0429359 0.167522
vn -0.108946 -0.86768 0.485038
v -0.0278415 -0.0393272 0.165972
vn -0.59255 -0.780903 0.197674
v -0.0298211 -0.0382985 0.154451
vn -0.590081 -0.618285 -0.51916
v -0.0290065 -0.0390594 0.154451
vn -0.552373 -0.623409 -0.553394
v -0.0280989 -0.0398245 0.154451
vn -0.520386 -0.626391 -0.580373
v -0.0278246 -0.0400412 0.154451
vn -0.579847 -0.76841 -0.270785
v -0.0265329 -0.0405386 0.164236
vn -0.569967 -0.820173 0.049528
v -0.0208472 -0.00252594 0.166922
vn -0.291451 0.830307 0.475023
v -0.0220586 -0.00274272 0.16623
vn -0.362682 0.873399 0.325016
v -0.0239454 -0.00352481 0.166149
vn -0.410919 0.892488 0.186037
v -0.0252329 -0.00417515 0.166149
vn -0.475056 0.865086 0.161081
v -0.0264485 -0.00459595 0.164236
vn -0.557214 0.829855 0.029218
v -0.0277697 -0.00553957 0.164236
vn -0.589948 0.807408 0.00733274
v -0.0287405 -0.00627067 0.164236
vn -0.654045 0.756437 0.00537362
v -0.0296987 -0.00721004 0.164236
vn -0.701695 0.712449 0.00639781
v -0.0287448 -0.00627067 0.162911
vn -0.649725 0.760159 -0.00396643
v -0.0277359 -0.00546307 0.154451
vn -0.487158 0.56996 -0.661682
v -0.0143848 -0.0313021 0.188289
vn 0.00106627 -0.621028 0.783788
v -0.0129918 -0.0312426 0.188232
vn 0.118618 -0.846628 0.518798
v -0.0124009 -0.0303458 0.188591
vn 0.113518 -0.341907 0.932852
v -0.0105605 -0.02828 0.188988
vn 0.122052 -0.212866 0.969428
v -0.00864415 -0.0263672 0.188974
vn 0.174097 -0.0904423 0.980566
v -0.00673202 -0.022546 0.188713
vn 0.248324 2.46797e-05 0.968677
v -0.00864415 -0.020629 0.188988
vn 0.0873503 0.0141263 0.996077
v -0.00864415 -0.0187163 0.188951
vn 0.191949 0.0894983 0.977315
v -0.00855973 -0.0167398 0.188574
vn 0.225582 0.211941 0.950891
v -0.0106618 -0.0148695 0.188496
vn 0.169175 0.289264 0.942182
v -0.0124726 -0.0148908 0.188778
vn 0.092383 0.274342 0.957184
v -0.0124726 -0.0137219 0.188323
vn 0.117055 0.638282 0.760851
v -0.0143848 -0.0127017 0.187191
vn 0.0348498 0.874678 0.48345
v -0.0162927 -0.00210088 0.167498
vn -0.0621429 0.877901 0.474793
v -0.0182048 -0.0022284 0.167376
vn -0.107035 0.875036 0.472075
v -0.0195724 -0.00235591 0.16723
vn -0.178947 0.86399 0.470636
v -0.025351 -0.0409636 0.166149
vn -0.468361 -0.870838 0.149263
v -0.0239454 -0.041682 0.166149
vn -0.408415 -0.890713 0.199568
v -0.0221093 -0.0424386 0.166342
vn -0.37185 -0.899788 0.228273
v -0.0215183 -0.0427658 0.16583
vn -0.276738 -0.957366 0.0828634
v -0.0203111 -0.0429741 0.166342
vn -0.207616 -0.969821 0.127837
v -0.0182048 -0.0434332 0.166149
vn -0.156105 -0.973883 0.164872
v -0.0143848 -0.0319865 0.187191
vn 0.0152961 -0.86833 0.495752
v -0.0162927 -0.0430549 0.167637
vn -0.0495084 -0.87158 0.487747
v -0.0162927 -0.0436627 0.166149
vn -0.0683026 -0.974705 0.212803
v -0.0268453 -0.0407426 0.154451
vn -0.410135 -0.597357 -0.689169
v -0.0259673 -0.0413164 0.154451
vn -0.460466 -0.757898 -0.462128
v -0.0255748 -0.0410869 0.164236
vn -0.470886 -0.880875 0.0482223
v -0.0201718 -0.00213914 0.16623
vn -0.214598 0.954172 0.208577
v -0.0214424 -0.00232616 0.165647
vn -0.329293 0.929951 0.163577
v -0.0225736 -0.00261945 0.164236
vn -0.391664 0.919518 0.0329549
v -0.0239454 -0.00324003 0.164236
vn -0.437197 0.898444 0.0407216
v -0.0254903 -0.00403488 0.164236
vn -0.477136 0.878506 0.0238516
v -0.0257309 -0.00405188 0.154451
vn -0.406051 0.659244 -0.632866
v -0.0276557 -0.00539506 0.154451
vn -0.540559 0.750678 -0.379839
v -0.0124726 -0.0429954 0.167573
vn 0.0936223 -0.869015 0.485848
v -0.0105605 -0.0428211 0.167366
vn 0.154805 -0.861483 0.483614
v -0.0124009 -0.0316507 0.18734
vn 0.16442 -0.854247 0.493182
v -0.0117171 -0.0310853 0.188079
vn 0.297582 -0.812261 0.501674
v -0.0105605 -0.0298314 0.188496
vn 0.200592 -0.358941 0.911551
v -0.00865681 -0.0282672 0.188534
vn 0.263146 -0.259723 0.929138
v -0.00710769 -0.0263672 0.188486
vn 0.365599 -0.185148 0.912172
v -0.0065885 -0.0244247 0.188547
vn 0.349448 -0.094738 0.932154
v -0.00573585 -0.0237702 0.188184
vn 0.855474 -0.1005 0.507999
v -0.00569786 -0.022546 0.188218
vn 0.674237 -0.0115304 0.738425
v -0.00571475 -0.0212326 0.188205
vn 0.836012 0.0648584 0.544865
v -0.00658428 -0.0206078 0.188554
vn 0.308856 0.0785803 0.947857
v -0.00706126 -0.0187163 0.188503
vn 0.353951 0.155805 0.922195
v -0.00914223 -0.0154901 0.188364
vn 0.35442 0.449305 0.820068
v -0.00741161 -0.0173391 0.188327
vn 0.51792 0.318602 0.793884
v -0.0113667 -0.0138706 0.188205
vn 0.274805 0.812803 0.513648
v -0.0124726 -0.0129525 0.187191
vn 0.165329 0.859892 0.482962
v -0.0105605 -0.00229216 0.167308
vn 0.121791 0.871554 0.474932
v -0.0124726 -0.00213489 0.167471
vn 0.0808919 0.877915 0.471934
v -0.0143848 -0.00205838 0.167532
vn 0.0112024 0.880685 0.47357
v -0.0143848 -0.00138679 0.166149
vn 0.0126095 0.955182 0.295749
v -0.0162927 -0.0014463 0.166149
vn -0.0858633 0.957253 0.276214
v -0.0182048 -0.00169708 0.166149
vn -0.159979 0.95115 0.264044
v -0.0239454 -0.0419242 0.164236
vn -0.43489 -0.898595 0.0582823
v -0.0226285 -0.0425066 0.164236
vn -0.355802 -0.933211 0.0502125
v -0.0216703 -0.0428126 0.164236
vn -0.291492 -0.955384 0.0476856
v -0.0200916 -0.043769 0.154451
vn -0.175177 -0.740509 -0.648814
v -0.0201212 -0.0432079 0.164236
vn -0.206153 -0.976609 0.0611156
v -0.0182048 -0.0435777 0.164236
vn -0.156922 -0.985821 0.0594396
v -0.0162927 -0.04382 0.164236
vn -0.0901727 -0.994251 0.0577309
v -0.0143848 -0.0430761 0.167647
vn 0.0218146 -0.873143 0.486975
v -0.0143848 -0.0437222 0.166149
vn 0.0296922 -0.967524 0.251028
v -0.0143848 -0.0438965 0.164236
vn 0.0138599 -0.998388 0.0550325
v -0.0257816 -0.0414227 0.154451
vn -0.307599 -0.577133 -0.756506
v -0.0240932 -0.0423153 0.154451
vn -0.377133 -0.781598 -0.496866
v -0.0182048 -0.00136129 0.164236
vn -0.163703 0.985703 0.0398883
v -0.0201212 -0.00179059 0.164236
vn -0.25102 0.96699 0.0438149
v -0.0216154 -0.00225815 0.164236
vn -0.322996 0.946164 0.0211633
v -0.0239074 -0.00305726 0.154451
vn -0.360993 0.744039 -0.562219
v -0.0220333 -0.00225815 0.154451
vn -0.241388 0.626676 -0.740952
v -0.0124726 -0.0435692 0.166149
vn 0.129521 -0.967828 0.215715
v -0.0105605 -0.0432377 0.166149
vn 0.206539 -0.961631 0.180577
v -0.00942504 -0.0426808 0.167183
vn 0.295263 -0.826648 0.479034
v -0.0105605 -0.0307878 0.187632
vn 0.403826 -0.766626 0.499209
v -0.00930263 -0.0294531 0.188296
vn 0.42162 -0.587488 0.69072
v -0.00532641 -0.0409381 0.167359
vn 0.362845 -0.797944 0.481278
v -0.0074707 -0.0276254 0.1883
vn 0.606438 -0.41011 0.681208
v -0.00585826 -0.0250453 0.188052
vn 0.833328 -0.251679 0.49216
v 0.00582559 -0.0244545 0.167268
vn 0.876682 -0.0700459 0.475943
v -0.00506471 -0.022546 0.187191
vn 0.874472 -0.00922275 0.484989
v 0.00575383 -0.0256872 0.167173
vn 0.868741 -0.138717 0.475443
v 0.00585091 -0.020629 0.167285
vn 0.87692 0.0600008 0.476877
v -0.00527998 -0.0206078 0.187337
vn 0.86325 0.146237 0.483129
v -0.00584982 -0.0199574 0.188072
vn 0.82459 0.236485 0.513933
v -0.00786748 -0.0160639 0.187988
vn 0.600603 0.528315 0.600133
v -0.0100877 -0.0142149 0.187805
vn 0.443777 0.683146 0.579977
v -0.00610308 -0.0187163 0.18773
vn 0.724337 0.378313 0.576381
v -0.0106618 -0.0135348 0.187177
vn 0.33918 0.81167 0.47555
v -0.00943349 -0.00241117 0.167169
vn 0.252789 0.8459 0.469629
v -0.0124726 -0.00153131 0.166149
vn 0.116018 0.964049 0.239061
v -0.0143848 -0.00111051 0.164236
vn 0.0423062 0.998398 0.0375616
v -0.0162927 -0.00114026 0.164236
vn -0.052201 0.997938 0.0373501
v -0.0230548 -0.0427403 0.154451
vn -0.219981 -0.546696 -0.807918
v -0.0220333 -0.0431441 0.154451
vn -0.214983 -0.544619 -0.810662
v -0.0219995 -0.0431569 0.154451
vn -0.170906 -0.525584 -0.833398
v -0.0204124 -0.0436712 0.154451
vn -0.216322 -0.675293 -0.705113
v -0.0184918 -0.044092 0.154451
vn -0.145045 -0.750165 -0.645147
v -0.0182048 -0.0441345 0.154451
vn -0.0937238 -0.77692 -0.622584
v -0.0170567 -0.0442535 0.154451
vn -0.0463269 -0.453057 -0.890277
v -0.0162927 -0.04433 0.154451
vn -0.0286372 -0.642816 -0.765485
v -0.0124726 -0.043769 0.164236
vn 0.120844 -0.990953 0.0583931
v -0.0143848 -0.0443811 0.154451
vn 0.00775604 -0.410041 -0.912034
v -0.0124726 -0.0442578 0.154451
vn 0.0492521 -0.530912 -0.845995
v -0.0182048 -0.00122527 0.154451
vn -0.0751254 0.470307 -0.879299
v -0.0202309 -0.00163332 0.154451
vn -0.196279 0.736304 -0.647558
v -0.0105605 -0.0434587 0.164236
vn 0.212961 -0.975028 0.0629892
v -0.00765643 -0.0426383 0.165254
vn 0.385252 -0.92066 0.0629735
v -0.00872857 -0.0427956 0.165993
vn 0.262065 -0.939747 0.21954
v -0.00815029 -0.0424768 0.166528
vn 0.344959 -0.881626 0.322087
v -0.00958966 -0.0311576 0.186252
vn 0.465567 -0.736949 0.490055
v -0.00880877 -0.0300737 0.187035
vn 0.513063 -0.700966 0.495391
v -0.00802788 -0.0289006 0.187815
vn 0.576433 -0.592527 0.562705
v -0.00690508 -0.0421283 0.165993
vn 0.388414 -0.877826 0.280278
v -0.00405165 -0.0405981 0.166705
vn 0.466724 -0.750111 0.468511
v -0.00707392 -0.0282672 0.187184
vn 0.715444 -0.496711 0.491343
v -0.0060862 -0.0265415 0.187323
vn 0.7705 -0.399999 0.496317
v -0.00551214 -0.0260229 0.186777
vn 0.798371 -0.357659 0.484442
v 0.00390923 -0.0314126 0.167254
vn 0.803872 -0.356615 0.476042
v 0.00562298 -0.0269623 0.166891
vn 0.841892 -0.263182 0.471119
v 0.00622237 -0.0244545 0.166149
vn 0.974184 -0.109337 0.197511
v 0.006349 -0.022546 0.166149
vn 0.973034 -0.0159127 0.230114
v 0.00589312 -0.022546 0.167339
vn 0.878986 -0.00793172 0.476781
v 0.00593533 -0.0263417 0.16621
vn 0.969325 -0.151579 0.193478
v 0.00625613 -0.020629 0.166149
vn 0.979928 0.10299 0.170685
v 0.00575805 -0.0193581 0.167186
vn 0.870434 0.147317 0.469727
v 0.0056272 -0.0180829 0.166901
vn 0.843147 0.257767 0.471868
v -0.00548259 -0.0187163 0.18677
vn 0.830828 0.28737 0.476596
v -0.00738206 -0.0155114 0.186709
vn 0.640018 0.600756 0.479029
v -0.00860616 -0.0148653 0.187259
vn 0.55243 0.677476 0.485641
v -0.00676157 -0.016846 0.187187
vn 0.721183 0.492569 0.487104
v -0.00934906 -0.0137729 0.18653
vn 0.457466 0.749953 0.477804
v -0.00570208 -0.0176324 0.186387
vn 0.763769 0.433226 0.478511
v -0.0053644 -0.00415815 0.167318
vn 0.364384 0.804003 0.469898
v -0.00815451 -0.0026152 0.166654
vn 0.332942 0.819595 0.466276
v -0.00873279 -0.0022539 0.166071
vn 0.246847 0.933185 0.261214
v -0.0105605 -0.00183735 0.166149
vn 0.195276 0.96217 0.189988
v -0.0124726 -0.00126353 0.164236
vn 0.126797 0.99134 0.0341548
v -0.0124726 -0.00107225 0.154451
vn 0.0501426 0.654652 -0.754266
v -0.013988 -0.000978738 0.154451
vn 0.0237079 0.395003 -0.918374
v -0.0143848 -0.000957487 0.154451
vn -0.00848589 0.646944 -0.76249
v -0.0162927 -0.00100424 0.154451
vn -0.0505075 0.592287 -0.804142
v -0.0106154 -0.0439815 0.154451
vn 0.096764 -0.618213 -0.780032
v -0.00867792 -0.0435182 0.154451
vn 0.152468 -0.52343 -0.838317
v -0.00864415 -0.0429571 0.164236
vn 0.253657 -0.965748 0.0546741
v -0.0105014 -0.0439602 0.154451
vn 0.0810344 -0.338868 -0.937337
v -0.00673202 -0.0427956 0.154451
vn 0.132511 -0.316179 -0.9394
v -0.00497606 -0.0419667 0.154451
vn 0.142997 -0.302776 -0.942273
v -0.00468903 -0.0418307 0.154451
vn 0.322679 -0.616483 -0.718211
v -0.00378151 -0.0407638 0.165427
vn 0.48872 -0.870321 0.0607796
v -0.00474391 -0.0411039 0.166098
vn 0.422137 -0.885128 0.19583
v -0.00186516 -0.0388723 0.167183
vn 0.530718 -0.698128 0.480578
v -0.00750447 -0.0294191 0.18654
vn 0.620826 -0.612503 0.4893
v -0.00304705 -0.0400795 0.166098
vn 0.562978 -0.79144 0.238074
v -0.0057865 -0.0272981 0.186187
vn 0.752442 -0.445657 0.484996
v 0.00190424 -0.0350129 0.167142
vn 0.724119 -0.496731 0.478445
v 0.00358843 -0.0326878 0.166481
vn 0.82106 -0.464629 0.331632
v 0.00404853 -0.0320715 0.165966
vn 0.880644 -0.392182 0.265818
v 0.00479987 -0.0301927 0.166149
vn 0.914014 -0.355842 0.194819
v 0.00544147 -0.0283182 0.16621
vn 0.888248 -0.305233 0.343292
v 0.00581714 -0.0277062 0.165613
vn 0.951531 -0.262627 0.160047
v 0.00621392 -0.0263672 0.164236
vn 0.983967 -0.169751 0.0547139
v 0.00648829 -0.0244545 0.164236
vn 0.99377 -0.102605 0.0435233
v 0.00658537 -0.022546 0.164236
vn 0.999298 0.00475302 0.0371677
v 0.00647563 -0.020629 0.164236
vn 0.993855 0.104555 0.0363518
v 0.00621392 -0.0187163 0.164236
vn 0.985075 0.165574 0.0470363
v 0.00581714 -0.0173093 0.165627
vn 0.957962 0.241649 0.154643
v 0.00595222 -0.0187205 0.16622
vn 0.954775 0.162175 0.249205
v 0.00547102 -0.016727 0.16622
vn 0.882397 0.29818 0.363956
v 0.00391767 -0.0136624 0.167244
vn 0.821911 0.321602 0.470142
v 0.00190424 -0.0100707 0.167135
vn 0.720261 0.510178 0.470045
v 9.34101e-05 -0.00806015 0.16722
vn 0.638084 0.611201 0.468275
v -0.00183983 -0.00620266 0.167193
vn 0.54735 0.69151 0.471403
v -0.00408964 -0.00451094 0.166786
vn 0.456555 0.758252 0.465416
v 0.00358421 -0.0123872 0.166603
vn 0.766262 0.443391 0.465024
v -0.00476501 -0.00391587 0.166149
vn 0.409584 0.861916 0.298901
v -0.00684599 -0.00292549 0.166071
vn 0.380649 0.858033 0.344798
v -0.00755512 -0.00240692 0.165379
vn 0.333242 0.930032 0.154888
v -0.0105605 -0.00156957 0.164236
vn 0.192879 0.979801 0.052794
v -0.0105605 -0.00135279 0.154451
vn 0.0984294 0.622781 -0.77618
v -0.0121265 -0.00111476 0.154451
vn 0.0538119 0.366785 -0.928748
v -0.00290775 -0.0407213 0.154451
vn 0.25995 -0.380375 -0.887548
v -0.00279378 -0.0401518 0.164236
vn 0.573463 -0.818129 0.0424851
v -0.00145571 -0.0391954 0.164236
vn 0.603672 -0.795648 0.0502405
v -0.00164144 -0.0390509 0.166149
vn 0.613747 -0.773784 0.156758
v -0.000687484 -0.0382135 0.166149
vn 0.658782 -0.72167 0.2126
v 0.000101852 -0.0370276 0.16724
vn 0.632489 -0.612828 0.473708
v 0.00128797 -0.0361903 0.166149
vn 0.739912 -0.638049 0.213127
v 0.00206886 -0.0352339 0.166149
vn 0.790044 -0.592081 0.158965
v 0.0030608 -0.0338312 0.165966
vn 0.811321 -0.519269 0.268549
v 0.00379104 -0.0330661 0.165206
vn 0.872889 -0.485863 0.044755
v 0.0050869 -0.0301927 0.164236
vn 0.922417 -0.382834 0.0508423
v 0.00558921 -0.0288623 0.164236
vn 0.945973 -0.321213 0.0442486
v 0.00587624 -0.0279059 0.164236
vn 0.970707 -0.238336 0.0303863
v 0.00649251 -0.0263842 0.154451
vn 0.396408 -0.0710514 -0.915321
v 0.00673311 -0.0244545 0.154451
vn 0.323558 -0.024241 -0.945898
v 0.00682597 -0.022546 0.154451
vn 0.222468 -0.00748895 -0.974911
v 0.00680909 -0.0221975 0.154451
vn 0.222459 0.011756 -0.974871
v 0.00672467 -0.020629 0.154451
vn 0.420468 0.0252493 -0.906956
v 0.0066909 -0.0203187 0.154451
vn 0.221754 0.0276482 -0.974711
v 0.00648407 -0.0186993 0.154451
vn 0.405056 0.0559155 -0.91258
v 0.00640809 -0.018287 0.154451
vn 0.39682 0.0886648 -0.913604
v 0.00587624 -0.0170883 0.164236
vn 0.972914 0.229304 0.0292825
v 0.0056272 -0.0161319 0.164236
vn 0.952807 0.302377 0.0269506
v 0.00518821 -0.0148908 0.164236
vn 0.928218 0.367057 0.0606649
v 0.00485897 -0.0148908 0.166149
vn 0.909726 0.349515 0.224136
v 0.00409074 -0.0130078 0.16604
vn 0.869984 0.387682 0.30468
v 0.00307347 -0.0112183 0.16604
vn 0.797496 0.519358 0.30703
v 0.00208996 -0.00982412 0.166149
vn 0.783089 0.594327 0.18316
v 0.00131329 -0.00886775 0.166149
vn 0.746627 0.633317 0.20361
v 0.000359335 -0.00778386 0.166149
vn 0.712113 0.670384 0.208518
v -0.000624168 -0.00682749 0.166149
vn 0.662263 0.70838 0.244143
v -0.00157812 -0.00598588 0.166149
vn 0.613927 0.768174 0.181665
v -0.00300061 -0.0049785 0.166149
vn 0.538707 0.783945 0.308586
v -0.00369709 -0.00426441 0.165511
vn 0.512057 0.84331 0.163171
v 0.00382903 -0.0119579 0.165328
vn 0.865127 0.476686 0.155967
v -0.00481988 -0.00354182 0.164236
vn 0.440578 0.897208 0.0301408
v -0.00652519 -0.00275122 0.164236
vn 0.39982 0.916257 0.0248404
v -0.00747914 -0.00238142 0.164236
vn 0.32895 0.94414 0.0197719
v -0.00864415 -0.00202437 0.164236
vn 0.24959 0.967989 0.0264819
v -0.0102735 -0.00140379 0.154451
vn 0.138531 0.585968 -0.798405
v -0.00127421 -0.0395227 0.154451
vn 0.214867 -0.252108 -0.943543
v -0.000501758 -0.0383793 0.164236
vn 0.678753 -0.732843 0.0472896
v 0.000334008 -0.0372571 0.166149
vn 0.706186 -0.68944 0.161163
v 0.00144836 -0.0363815 0.164236
vn 0.757031 -0.651791 0.0455296
v 0.00221237 -0.0354252 0.164236
vn 0.809724 -0.58513 0.0443746
v 0.00231368 -0.0357822 0.154451
vn 0.510043 -0.360622 -0.780902
v 0.00334783 -0.0342605 0.154451
vn 0.220562 -0.145531 -0.964455
v 0.00356733 -0.0338822 0.154451
vn 0.224998 -0.129864 -0.965666
v 0.00460148 -0.0320885 0.154451
vn 0.228342 -0.117891 -0.966417
v 0.00533172 -0.0304648 0.154451
vn 0.573095 -0.243096 -0.782602
v 0.00543303 -0.0301672 0.154451
vn 0.216854 -0.0703863 -0.973663
v 0.00604086 -0.02828 0.154451
vn 0.269799 -0.0766534 -0.959861
v 0.00606197 -0.0169268 0.154451
vn 0.346133 0.089226 -0.933933
v 0.0060282 -0.0168035 0.154451
vn 0.21682 0.0684686 -0.973808
v 0.00574117 -0.0159109 0.154451
vn 0.216501 0.0704463 -0.973737
v 0.00537816 -0.0148058 0.154451
vn 0.411201 0.162997 -0.896853
v 0.00436511 -0.012978 0.164236
vn 0.913767 0.405539 0.0238458
v 0.00226303 -0.00960735 0.164236
vn 0.80284 0.595034 0.0371643
v 0.00149058 -0.00865097 0.164236
vn 0.755155 0.654342 0.0397131
v 0.000532398 -0.00760534 0.164236
vn 0.720052 0.692949 0.0366818
v -0.00043422 -0.00664897 0.164236
vn 0.681814 0.730517 0.0384037
v -0.00138818 -0.00581586 0.164236
vn 0.618761 0.784696 0.0372559
v -0.00360845 -0.0042049 0.164236
vn 0.517172 0.85566 0.019471
v -0.00265027 -0.00485949 0.164236
vn 0.588099 0.808375 0.0258669
v 0.00385014 -0.0119239 0.164236
vn 0.87182 0.489438 0.0194963
v 0.0032212 -0.0109675 0.164236
vn 0.824705 0.565022 0.0247389
v -0.00438934 -0.00359282 0.154451
vn 0.179618 0.335088 -0.924907
v -0.00655473 -0.00254719 0.154451
vn 0.190815 0.442239 -0.876365
v -0.00834024 -0.00190111 0.154451
vn 0.108039 0.304799 -0.946269
v -0.00866526 -0.00179909 0.154451
vn 0.135329 0.490754 -0.860724
v 0.000726566 -0.0376269 0.154451
vn 0.275069 -0.266156 -0.92385
v 0.000490188 -0.0374229 0.164236
vn 0.714827 -0.697783 0.0460479
v 0.00222926 -0.0358842 0.154451
vn 0.190752 -0.164113 -0.967823
v 0.00458882 -0.0129738 0.154451
vn 0.308611 0.140465 -0.94076
v 0.00225458 -0.00928855 0.154451
vn 0.314747 0.239743 -0.918399
v 0.00349135 -0.0109888 0.154451
vn 0.515064 0.340782 -0.786496
v 0.00326763 -0.0106785 0.154451
vn 0.197788 0.143874 -0.969629
v 0.00223348 -0.00926305 0.154451
vn 0.1918 0.160285 -0.968257
v 0.00160454 -0.0085107 0.154451
vn 0.189653 0.165773 -0.967756
v 0.000713903 -0.00752458 0.154451
vn 0.343278 0.313348 -0.885422
v 0.000642145 -0.00745232 0.154451
vn 0.32822 0.333059 -0.883936
v -0.000294927 -0.0065342 0.154451
vn 0.178765 0.19085 -0.965204
v -0.00105049 -0.00586687 0.154451
vn 0.241662 0.293182 -0.92501
v -0.002435 -0.00481698 0.154451
vn 0.266046 0.351937 -0.897418
v -0.00280223 -0.00454495 0.154451
vn 0.221681 0.343662 -0.912554
v 0.00394722 -0.0117879 0.154451
vn 0.206108 0.116086 -0.971619
v 0.00445375 -0.0126975 0.154451
vn 0.207217 0.112109 -0.97185
f 1//1 2//2 3//3
f 1//1 3//3 4//4
f 1//1 4//4 5//5
f 1//1 5//5 11//11
f 1//1 11//11 25//25
f 1//1 25//25 24//24
f 1//1 24//24 23//23
f 1//1 23//23 39//39
f 1//1 39//39 60//60
f 1//1 60//60 84//84
f 1//1 84//84 109//109
f 1//1 109//109 141//141
f 1//1 141//141 174//174
f 1//1 174//174 209//209
f 1//1 209//209 208//208
f 1//1 208//208 248//248
f 1//1 248//248 249//249
f 1//1 249//249 284//284
f 1//1 284//284 283//283
f 1//1 283//283 320//320
f 1//1 320//320 319//319
f 1//1 319//319 318//318
f 1//1 318//318 317//317
f 1//1 317//317 359//359
f 1//1 359//359 358//358
f 1//1 358//358 399//399
f 1//1 399//399 429//429
f 1//1 429//429 428//428
f 1//1 428//428 427//427
f 1//1 427//427 426//426
f 1//1 426//426 444//444
f 1//1 444//444 443//443
f 1//1 443//443 442//442
f 1//1 442//442 441//441
f 1//1 441//441 440//440
f 1//1 440//440 439//439
f 1//1 439//439 438//438
f 1//1 438//438 437//437
f 1//1 437//437 434//434
f 1//1 434//434 436//436
f 1//1 436//436 435//435
f 1//1 435//435 445//445
f 1//1 445//445 446//446
f 1//1 446//446 433//433
f 1//1 433//433 415//415
f 1//1 415//415 414//414
f 1//1 414//414 413//413
f 1//1 413//413 412//412
f 1//1 412//412 380//380
f 1//1 380//380 379//379
f 1//1 379//379 378//378
f 1//1 378//378 377//377
f 1//1 377//377 376//376
f 1//1 376//376 375//375
f 1//1 375//375 374//374
f 1//1 374//374 373//373
f 1//1 373//373 411//411
f 1//1 411//411 410//410
f 1//1 410//410 409//409
f 1//1 409//409 408//408
f 1//1 408//408 407//407
f 1//1 407//407 406//406
f 1//1 406//406 405//405
f 1//1 405//405 432//432
f 1//1 432//432 430//430
f 1//1 430//430 400//400
f 1//1 400//400 360//360
f 1//1 360//360 327//327
f 1//1 327//327 326//326
f 1//1 326//326 325//325
f 1//1 325//325 322//322
f 1//1 322//322 324//324
f 1//1 324//324 321//321
f 1//1 321//321 282//282
f 1//1 282//282 281//281
f 1//1 281//281 279//279
f 1//1 279//279 278//278
f 1//1 278//278 277//277
f 1//1 277//277 276//276
f 1//1 276//276 236//236
f 1//1 236//236 275//275
f 1//1 275//275 274//274
f 1//1 274//274 273//273
f 1//1 273//273 272//272
f 1//1 272//272 244//244
f 1//1 244//244 243//243
f 1//1 243//243 201//201
f 1//1 201//201 200//200
f 1//1 200//200 163//163
f 1//1 163//163 162//162
f 1//1 162//162 161//161
f 1//1 161//161 160//160
f 1//1 160//160 130//130
f 1//1 130//130 129//129
f 1//1 129//129 125//125
f 1//1 125//125 124//124
f 1//1 124//124 123//123
f 1//1 123//123 122//122
f 1//1 122//122 121//121
f 1//1 121//121 115//115
f 1//1 115//115 90//90
f 1//1 90//90 89//89
f 1//1 89//89 66//66
f 1//1 66//66 46//46
f 1//1 46//46 45//45
f 1//1 45//45 29//29
f 1//1 29//29 17//17
f 1//1 17//17 12//12
f 1//1 12//12 6//6
f 1//1 6//6 2//2
f 2//2 6//6 3//3
f 3//3 7//7 4//4
f 3//3 6//6 8//8
f 3//3 8//8 7//7
f 4//4 9//9 10//10
f 4//4 10//10 11//11
f 4//4 11//11 5//5
f 4//4 7//7 9//9
f 6//6 12//12 8//8
f 7//7 13//13 14//14
f 7//7 14//14 9//9
f 7//7 8//8 15//15
f 7//7 15//15 16//16
f 7//7 16//16 13//13
f 8//8 12//12 17//17
f 8//8 17//17 18//18
f 8//8 18//18 19//19
f 8//8 19//19 15//15
f 9//9 14//14 20//20
f 9//9 20//20 21//21
f 9//9 21//21 10//10
f 10//10 21//21 36//36
f 10//10 36//36 22//22
f 10//10 22//22 23//23
f 10//10 23//23 24//24
f 10//10 24//24 25//25
f 10//10 25//25 11//11
f 13//13 26//26 14//14
f 13//13 16//16 26//26
f 14//14 27//27 20//20
f 14//14 26//26 27//27
f 15//15 19//19 28//28
f 15//15 28//28 16//16
f 16//16 28//28 26//26
f 17//17 29//29 18//18
f 18//18 29//29 30//30
f 18//18 30//30 31//31
f 18//18 31//31 19//19
f 19//19 31//31 32//32
f 19//19 32//32 33//33
f 19//19 33//33 28//28
f 20//20 34//34 21//21
f 20//20 27//27 34//34
f 21//21 34//34 35//35
f 21//21 35//35 36//36
f 22//22 36//36 37//37
f 22//22 37//37 38//38
f 22//22 38//38 39//39
f 22//22 39//39 23//23
f 26//26 40//40 41//41
f 26//26 41//41 27//27
f 26//26 28//28 42//42
f 26//26 42//42 43//43
f 26//26 43//43 40//40
f 27//27 41//41 44//44
f 27//27 44//44 35//35
f 27//27 35//35 34//34
f 28//28 33//33 42//42
f 29//29 45//45 30//30
f 30//30 45//45 46//46
f 30//30 46//46 47//47
f 30//30 47//47 48//48
f 30//30 48//48 31//31
f 31//31 48//48 32//32
f 32//32 49//49 50//50
f 32//32 50//50 42//42
f 32//32 42//42 33//33
f 32//32 48//48 51//51
f 32//32 51//51 52//52
f 32//32 52//52 53//53
f 32//32 53//53 49//49
f 35//35 54//54 55//55
f 35//35 55//55 37//37
f 35//35 37//37 36//36
f 35//35 44//44 56//56
f 35//35 56//56 57//57
f 35//35 57//57 58//58
f 35//35 58//58 54//54
f 37//37 55//55 59//59
f 37//37 59//59 38//38
f 38//38 59//59 39//39
f 39//39 59//59 60//60
f 40//40 61//61 62//62
f 40//40 62//62 41//41
f 40//40 43//43 63//63
f 40//40 63//63 61//61
f 41//41 62//62 64//64
f 41//41 64//64 44//44
f 42//42 50//50 43//43
f 43//43 50//50 63//63
f 44//44 64//64 65//65
f 44//44 65//65 57//57
f 44//44 57//57 56//56
f 46//46 66//66 47//47
f 47//47 66//66 67//67
f 47//47 67//67 48//48
f 48//48 67//67 51//51
f 49//49 68//68 50//50
f 49//49 53//53 68//68
f 50//50 68//68 69//69
f 50//50 69//69 70//70
f 50//50 70//70 63//63
f 51//51 67//67 52//52
f 52//52 67//67 71//71
f 52//52 71//71 72//72
f 52//52 72//72 53//53
f 53//53 72//72 73//73
f 53//53 73//73 74//74
f 53//53 74//74 75//75
f 53//53 75//75 68//68
f 54//54 76//76 59//59
f 54//54 59//59 55//55
f 54//54 58//58 77//77
f 54//54 77//77 76//76
f 57//57 65//65 78//78
f 57//57 78//78 79//79
f 57//57 79//79 58//58
f 58//58 80//80 81//81
f 58//58 81//81 82//82
f 58//58 82//82 77//77
f 58//58 79//79 80//80
f 59//59 76//76 60//60
f 60//60 76//76 83//83
f 60//60 83//83 84//84
f 61//61 63//63 85//85
f 61//61 85//85 86//86
f 61//61 86//86 62//62
f 62//62 86//86 87//87
f 62//62 87//87 64//64
f 63//63 70//70 85//85
f 64//64 87//87 65//65
f 65//65 87//87 88//88
f 65//65 88//88 78//78
f 66//66 89//89 67//67
f 67//67 89//89 90//90
f 67//67 90//90 71//71
f 68//68 75//75 91//91
f 68//68 91//91 92//92
f 68//68 92//92 69//69
f 69//69 92//92 93//93
f 69//69 93//93 94//94
f 69//69 94//94 70//70
f 70//70 94//94 85//85
f 71//71 90//90 95//95
f 71//71 95//95 72//72
f 72//72 95//95 73//73
f 73//73 95//95 96//96
f 73//73 96//96 97//97
f 73//73 97//97 74//74
f 74//74 97//97 98//98
f 74//74 98//98 99//99
f 74//74 99//99 92//92
f 74//74 92//92 91//91
f 74//74 91//91 75//75
f 76//76 77//77 83//83
f 77//77 82//82 100//100
f 77//77 100//100 83//83
f 78//78 88//88 101//101
f 78//78 101//101 102//102
f 78//78 102//102 103//103
f 78//78 103//103 104//104
f 78//78 104//104 80//80
f 78//78 80//80 79//79
f 80//80 104//104 81//81
f 81//81 104//104 105//105
f 81//81 105//105 106//106
f 81//81 106//106 107//107
f 81//81 107//107 108//108
f 81//81 108//108 82//82
f 82//82 108//108 107//107
f 82//82 107//107 100//100
f 83//83 100//100 84//84
f 84//84 100//100 109//109
f 85//85 94//94 110//110
f 85//85 110//110 86//86
f 86//86 111//111 87//87
f 86//86 110//110 111//111
f 87//87 111//111 112//112
f 87//87 112//112 113//113
f 87//87 113//113 88//88
f 88//88 113//113 114//114
f 88//88 114//114 101//101
f 90//90 115//115 95//95
f 92//92 116//116 117//117
f 92//92 117//117 93//93
f 92//92 99//99 118//118
f 92//92 118//118 116//116
f 93//93 119//119 94//94
f 93//93 117//117 120//120
f 93//93 120//120 119//119
f 94//94 119//119 110//110
f 95//95 115//115 121//121
f 95//95 121//121 122//122
f 95//95 122//122 96//96
f 96//96 122//122 123//123
f 96//96 123//123 124//124
f 96//96 124//124 125//125
f 96//96 125//125 126//126
f 96//96 126//126 98//98
f 96//96 98//98 97//97
f 98//98 127//127 128//128
f 98//98 128//128 99//99
f 98//98 126//126 125//125
f 98//98 125//125 129//129
f 98//98 129//129 130//130
f 98//98 130//130 131//131
f 98//98 131//131 127//127
f 99//99 128//128 118//118
f 100//100 107//107 132//132
f 100//100 132//132 109//109
f 101//101 114//114 133//133
f 101//101 133//133 134//134
f 101//101 134//134 135//135
f 101//101 135//135 102//102
f 102//102 135//135 103//103
f 103//103 134//134 105//105
f 103//103 105//105 104//104
f 103//103 135//135 134//134
f 105//105 134//134 136//136
f 105//105 136//136 137//137
f 105//105 137//137 138//138
f 105//105 138//138 106//106
f 106//106 138//138 107//107
f 107//107 139//139 132//132
f 107//107 138//138 139//139
f 109//109 132//132 139//139
f 109//109 139//139 140//140
f 109//109 140//140 141//141
f 110//110 119//119 142//142
f 110//110 142//142 143//143
f 110//110 143//143 144//144
f 110//110 144//144 145//145
f 110//110 145//145 111//111
f 111//111 146//146 147//147
f 111//111 147//147 112//112
f 111//111 145//145 146//146
f 112//112 147//147 148//148
f 112//112 148//148 149//149
f 112//112 149//149 113//113
f 113//113 149//149 114//114
f 114//114 149//149 150//150
f 114//114 150//150 133//133
f 116//116 151//151 117//117
f 116//116 118//118 152//152
f 116//116 152//152 151//151
f 117//117 151//151 152//152
f 117//117 152//152 153//153
f 117//117 153//153 120//120
f 118//118 128//128 154//154
f 118//118 154//154 152//152
f 119//119 120//120 142//142
f 120//120 155//155 156//156
f 120//120 156//156 142//142
f 120//120 153//153 157//157
f 120//120 157//157 158//158
f 120//120 158//158 155//155
f 127//127 131//131 128//128
f 128//128 131//131 159//159
f 128//128 159//159 154//154
f 130//130 160//160 131//131
f 131//131 161//161 162//162
f 131//131 162//162 163//163
f 131//131 163//163 164//164
f 131//131 164//164 154//154
f 131//131 154//154 159//159
f 131//131 160//160 161//161
f 133//133 150//150 165//165
f 133//133 165//165 134//134
f 134//134 165//165 166//166
f 134//134 166//166 167//167
f 134//134 167//167 168//168
f 134//134 168//168 136//136
f 136//136 168//168 169//169
f 136//136 169//169 138//138
f 136//136 138//138 137//137
f 138//138 169//169 170//170
f 138//138 170//170 171//171
f 138//138 171//171 172//172
f 138//138 172//172 139//139
f 139//139 172//172 141//141
f 139//139 141//141 140//140
f 141//141 172//172 171//171
f 141//141 171//171 173//173
f 141//141 173//173 174//174
f 142//142 156//156 175//175
f 142//142 175//175 143//143
f 143//143 175//175 176//176
f 143//143 176//176 177//177
f 143//143 177//177 178//178
f 143//143 178//178 144//144
f 144//144 178//178 179//179
f 144//144 179//179 145//145
f 145//145 179//179 180//180
f 145//145 180//180 181//181
f 145//145 181//181 146//146
f 146//146 181//181 182//182
f 146//146 182//182 183//183
f 146//146 183//183 184//184
f 146//146 184//184 185//185
f 146//146 185//185 147//147
f 147//147 185//185 148//148
f 148//148 185//185 186//186
f 148//148 186//186 187//187
f 148//148 187//187 149//149
f 149//149 187//187 150//150
f 150//150 187//187 188//188
f 150//150 188//188 189//189
f 150//150 189//189 190//190
f 150//150 190//190 165//165
f 152//152 154//154 191//191
f 152//152 191//191 192//192
f 152//152 192//192 153//153
f 153//153 192//192 193//193
f 153//153 193//193 194//194
f 153//153 194//194 195//195
f 153//153 195//195 196//196
f 153//153 196//196 157//157
f 154//154 164//164 191//191
f 155//155 197//197 156//156
f 155//155 158//158 198//198
f 155//155 198//198 197//197
f 156//156 197//197 175//175
f 157//157 196//196 158//158
f 158//158 196//196 199//199
f 158//158 199//199 198//198
f 163//163 200//200 164//164
f 164//164 200//200 201//201
f 164//164 201//201 202//202
f 164//164 202//202 191//191
f 165//165 190//190 203//203
f 165//165 203//203 204//204
f 165//165 204//204 166//166
f 166//166 204//204 167//167
f 167//167 204//204 205//205
f 167//167 205//205 206//206
f 167//167 206//206 168//168
f 168//168 206//206 207//207
f 168//168 207//207 169//169
f 169//169 207//207 208//208
f 169//169 208//208 209//209
f 169//169 209//209 170//170
f 170//170 209//209 171//171
f 171//171 209//209 173//173
f 173//173 209//209 174//174
f 175//175 197//197 176//176
f 176//176 197//197 210//210
f 176//176 210//210 211//211
f 176//176 211//211 212//212
f 176//176 212//212 213//213
f 176//176 213//213 177//177
f 177//177 214//214 178//178
f 177//177 213//213 214//214
f 178//178 215//215 179//179
f 178//178 214//214 215//215
f 179//179 215//215 216//216
f 179//179 216//216 217//217
f 179//179 217//217 180//180
f 180//180 217//217 218//218
f 180//180 218//218 219//219
f 180//180 219//219 220//220
f 180//180 220//220 221//221
f 180//180 221//221 182//182
f 180//180 182//182 181//181
f 182//182 221//221 222//222
f 182//182 222//222 183//183
f 183//183 223//223 184//184
f 183//183 222//222 224//224
f 183//183 224//224 223//223
f 184//184 223//223 225//225
f 184//184 225//225 186//186
f 184//184 186//186 185//185
f 186//186 225//225 226//226
f 186//186 226//226 187//187
f 187//187 226//226 227//227
f 187//187 227//227 228//228
f 187//187 228//228 229//229
f 187//187 229//229 188//188
f 188//188 229//229 230//230
f 188//188 230//230 231//231
f 188//188 231//231 189//189
f 189//189 231//231 232//232
f 189//189 232//232 190//190
f 190//190 232//232 203//203
f 191//191 202//202 233//233
f 191//191 233//233 192//192
f 192//192 233//233 234//234
f 192//192 234//234 194//194
f 192//192 194//194 193//193
f 194//194 235//235 236//236
f 194//194 236//236 237//237
f 194//194 237//237 195//195
f 194//194 234//234 235//235
f 195//195 237//237 196//196
f 196//196 237//237 238//238
f 196//196 238//238 239//239
f 196//196 239//239 199//199
f 197//197 198//198 240//240
f 197//197 240//240 210//210
f 198//198 199//199 241//241
f 198//198 241//241 240//240
f 199//199 239//239 242//242
f 199//199 242//242 241//241
f 201//201 243//243 202//202
f 202//202 243//243 244//244
f 202//202 244//244 233//233
f 203//203 232//232 245//245
f 203//203 245//245 246//246
f 203//203 246//246 204//204
f 204//204 246//246 247//247
f 204//204 247//247 205//205
f 205//205 248//248 206//206
f 205//205 247//247 249//249
f 205//205 249//249 248//248
f 206//206 248//248 207//207
f 207//207 248//248 208//208
f 210//210 240//240 241//241
f 210//210 241//241 250//250
f 210//210 250//250 211//211
f 211//211 250//250 251//251
f 211//211 251//251 252//252
f 211//211 252//252 213//213
f 211//211 213//213 212//212
f 213//213 253//253 254//254
f 213//213 254//254 214//214
f 213//213 252//252 255//255
f 213//213 255//255 253//253
f 214//214 254//254 215//215
f 215//215 256//256 216//216
f 215//215 254//254 256//256
f 216//216 256//256 257//257
f 216//216 257//257 217//217
f 217//217 257//257 218//218
f 218//218 258//258 259//259
f 218//218 259//259 219//219
f 218//218 257//257 260//260
f 218//218 260//260 258//258
f 219//219 259//259 220//220
f 220//220 261//261 262//262
f 220//220 262//262 263//263
f 220//220 263//263 222//222
f 220//220 222//222 221//221
f 220//220 259//259 261//261
f 222//222 263//263 224//224
f 223//223 224//224 264//264
f 223//223 264//264 265//265
f 223//223 265//265 225//225
f 224//224 263//263 266//266
f 224//224 266//266 264//264
f 225//225 267//267 268//268
f 225//225 268//268 226//226
f 225//225 265//265 267//267
f 226//226 268//268 227//227
f 227//227 268//268 269//269
f 227//227 269//269 228//228
f 228//228 269//269 230//230
f 228//228 230//230 229//229
f 230//230 270//270 271//271
f 230//230 271//271 231//231
f 230//230 269//269 270//270
f 231//231 271//271 245//245
f 231//231 245//245 232//232
f 233//233 244//244 234//234
f 234//234 244//244 272//272
f 234//234 272//272 273//273
f 234//234 273//273 274//274
f 234//234 274//274 275//275
f 234//234 275//275 235//235
f 235//235 275//275 236//236
f 236//236 276//276 237//237
f 237//237 276//276 238//238
f 238//238 276//276 277//277
f 238//238 277//277 239//239
f 239//239 277//277 278//278
f 239//239 278//278 279//279
f 239//239 279//279 242//242
f 241//241 242//242 280//280
f 241//241 280//280 250//250
f 242//242 279//279 281//281
f 242//242 281//281 282//282
f 242//242 282//282 280//280
f 245//245 271//271 320//320
f 245//245 320//320 283//283
f 245//245 283//283 284//284
f 245//245 284//284 246//246
f 246//246 284//284 247//247
f 247//247 284//284 249//249
f 250//250 285//285 251//251
f 250//250 280//280 285//285
f 251//251 285//285 286//286
f 251//251 286//286 287//287
f 251//251 287//287 252//252
f 252//252 287//287 288//288
f 252//252 288//288 255//255
f 253//253 289//289 290//290
f 253//253 290//290 254//254
f 253//253 255//255 289//289
f 254//254 290//290 291//291
f 254//254 291//291 256//256
f 255//255 288//288 292//292
f 255//255 292//292 293//293
f 255//255 293//293 289//289
f 256//256 291//291 294//294
f 256//256 294//294 295//295
f 256//256 295//295 257//257
f 257//257 295//295 296//296
f 257//257 296//296 297//297
f 257//257 297//297 298//298
f 257//257 298//298 260//260
f 258//258 260//260 299//299
f 258//258 299//299 300//300
f 258//258 300//300 301//301
f 258//258 301//301 259//259
f 259//259 301//301 261//261
f 260//260 298//298 302//302
f 260//260 302//302 299//299
f 261//261 303//303 304//304
f 261//261 304//304 262//262
f 261//261 301//301 300//300
f 261//261 300//300 303//303
f 262//262 304//304 305//305
f 262//262 305//305 263//263
f 263//263 305//305 306//306
f 263//263 306//306 266//266
f 264//264 307//307 308//308
f 264//264 308//308 265//265
f 264//264 266//266 309//309
f 264//264 309//309 307//307
f 265//265 308//308 310//310
f 265//265 310//310 267//267
f 266//266 306//306 311//311
f 266//266 311//311 309//309
f 267//267 310//310 312//312
f 267//267 312//312 313//313
f 267//267 313//313 268//268
f 268//268 313//313 314//314
f 268//268 314//314 315//315
f 268//268 315//315 269//269
f 269//269 315//315 357//357
f 269//269 357//357 316//316
f 269//269 316//316 270//270
f 270//270 317//317 318//318
f 270//270 318//318 319//319
f 270//270 319//319 271//271
f 270//270 316//316 317//317
f 271//271 319//319 320//320
f 280//280 282//282 321//321
f 280//280 321//321 285//285
f 285//285 322//322 323//323
f 285//285 323//323 286//286
f 285//285 321//321 324//324
f 285//285 324//324 322//322
f 286//286 292//292 288//288
f 286//286 288//288 287//287
f 286//286 323//323 322//322
f 286//286 322//322 325//325
f 286//286 325//325 326//326
f 286//286 326//326 327//327
f 286//286 327//327 328//328
f 286//286 328//328 329//329
f 286//286 329//329 292//292
f 289//289 293//293 330//330
f 289//289 330//330 290//290
f 290//290 331//331 291//291
f 290//290 330//330 331//331
f 291//291 331//331 294//294
f 292//292 329//329 293//293
f 293//293 329//329 328//328
f 293//293 328//328 332//332
f 293//293 332//332 330//330
f 294//294 333//333 295//295
f 294//294 331//331 334//334
f 294//294 334//334 333//333
f 295//295 333//333 297//297
f 295//295 297//297 296//296
f 297//297 335//335 336//336
f 297//297 336//336 337//337
f 297//297 337//337 338//338
f 297//297 338//338 298//298
f 297//297 333//333 334//334
f 297//297 334//334 335//335
f 298//298 339//339 302//302
f 298//298 338//338 339//339
f 299//299 302//302 340//340
f 299//299 340//340 341//341
f 299//299 341//341 300//300
f 300//300 341//341 342//342
f 300//300 342//342 303//303
f 302//302 339//339 340//340
f 303//303 343//343 344//344
f 303//303 344//344 345//345
f 303//303 345//345 346//346
f 303//303 346//346 304//304
f 303//303 342//342 343//343
f 304//304 346//346 305//305
f 305//305 346//346 345//345
f 305//305 345//345 347//347
f 305//305 347//347 348//348
f 305//305 348//348 306//306
f 306//306 348//348 311//311
f 307//307 309//309 349//349
f 307//307 349//349 350//350
f 307//307 350//350 351//351
f 307//307 351//351 308//308
f 308//308 351//351 310//310
f 309//309 311//311 349//349
f 310//310 351//351 352//352
f 310//310 352//352 312//312
f 311//311 348//348 353//353
f 311//311 353//353 349//349
f 312//312 352//352 354//354
f 312//312 354//354 355//355
f 312//312 355//355 313//313
f 313//313 355//355 356//356
f 313//313 356//356 314//314
f 314//314 356//356 315//315
f 315//315 356//356 357//357
f 316//316 358//358 359//359
f 316//316 359//359 317//317
f 316//316 357//357 358//358
f 327//327 360//360 328//328
f 328//328 360//360 361//361
f 328//328 361//361 362//362
f 328//328 362//362 363//363
f 328//328 363//363 332//332
f 330//330 332//332 363//363
f 330//330 363//363 364//364
f 330//330 364//364 365//365
f 330//330 365//365 331//331
f 331//331 365//365 334//334
f 334//334 365//365 366//366
f 334//334 366//366 367//367
f 334//334 367//367 368//368
f 334//334 368//368 335//335
f 335//335 368//368 369//369
f 335//335 369//369 336//336
f 336//336 369//369 337//337
f 337//337 370//370 371//371
f 337//337 371//371 339//339
f 337//337 339//339 338//338
f 337//337 369//369 370//370
f 339//339 372//372 340//340
f 339//339 371//371 372//372
f 340//340 372//372 373//373
f 340//340 373//373 341//341
f 341//341 373//373 374//374
f 341//341 374//374 342//342
f 342//342 374//374 375//375
f 342//342 375//375 376//376
f 342//342 376//376 377//377
f 342//342 377//377 343//343
f 343//343 377//377 378//378
f 343//343 378//378 379//379
f 343//343 379//379 344//344
f 344//344 379//379 380//380
f 344//344 380//380 381//381
f 344//344 381//381 345//345
f 345//345 381//381 382//382
f 345//345 382//382 383//383
f 345//345 383//383 384//384
f 345//345 384//384 347//347
f 347//347 384//384 348//348
f 348//348 384//384 385//385
f 348//348 385//385 353//353
f 349//349 386//386 387//387
f 349//349 387//387 388//388
f 349//349 388//388 389//389
f 349//349 389//389 350//350
f 349//349 353//353 386//386
f 350//350 389//389 390//390
f 350//350 390//390 351//351
f 351//351 390//390 391//391
f 351//351 391//391 392//392
f 351//351 392//392 352//352
f 352//352 392//392 393//393
f 352//352 393//393 354//354
f 353//353 385//385 394//394
f 353//353 394//394 386//386
f 354//354 393//393 356//356
f 354//354 356//356 355//355
f 356//356 393//393 395//395
f 356//356 395//395 396//396
f 356//356 396//396 397//397
f 356//356 397//397 398//398
f 356//356 398//398 357//357
f 357//357 398//398 399//399
f 357//357 399//399 358//358
f 360//360 400//400 362//362
f 360//360 362//362 361//361
f 362//362 400//400 401//401
f 362//362 401//401 363//363
f 363//363 401//401 364//364
f 364//364 401//401 402//402
f 364//364 402//402 365//365
f 365//365 402//402 366//366
f 366//366 403//403 367//367
f 366//366 402//402 403//403
f 367//367 403//403 404//404
f 367//367 404//404 369//369
f 367//367 369//369 368//368
f 369//369 404//404 405//405
f 369//369 405//405 406//406
f 369//369 406//406 407//407
f 369//369 407//407 408//408
f 369//369 408//408 409//409
f 369//369 409//409 370//370
f 370//370 409//409 371//371
f 371//371 409//409 410//410
f 371//371 410//410 411//411
f 371//371 411//411 372//372
f 372//372 411//411 373//373
f 380//380 412//412 381//381
f 381//381 412//412 382//382
f 382//382 413//413 414//414
f 382//382 414//414 415//415
f 382//382 415//415 383//383
f 382//382 412//412 413//413
f 383//383 415//415 416//416
f 383//383 416//416 394//394
f 383//383 394//394 384//384
f 384//384 394//394 385//385
f 386//386 394//394 387//387
f 387//387 417//417 418//418
f 387//387 418//418 388//388
f 387//387 394//394 417//417
f 388//388 418//418 389//389
f 389//389 419//419 420//420
f 389//389 420//420 390//390
f 389//389 418//418 419//419
f 390//390 420//420 391//391
f 391//391 420//420 421//421
f 391//391 421//421 393//393
f 391//391 393//393 392//392
f 393//393 422//422 395//395
f 393//393 421//421 423//423
f 393//393 423//423 422//422
f 394//394 416//416 424//424
f 394//394 424//424 425//425
f 394//394 425//425 417//417
f 395//395 422//422 426//426
f 395//395 426//426 427//427
f 395//395 427//427 396//396
f 396//396 427//427 397//397
f 397//397 427//427 428//428
f 397//397 428//428 429//429
f 397//397 429//429 398//398
f 398//398 429//429 399//399
f 400//400 430//430 401//401
f 401//401 430//430 431//431
f 401//401 431//431 402//402
f 402//402 431//431 403//403
f 403//403 432//432 405//405
f 403//403 405//405 404//404
f 403//403 431//431 430//430
f 403//403 430//430 432//432
f 415//415 433//433 416//416
f 416//416 433//433 424//424
f 417//417 434//434 418//418
f 417//417 425//425 435//435
f 417//417 435//435 436//436
f 417//417 436//436 434//434
f 418//418 434//434 437//437
f 418//418 437//437 438//438
f 418//418 438//438 439//439
f 418//418 439//439 419//419
f 419//419 439//439 440//440
f 419//419 440//440 420//420
f 420//420 441//441 442//442
f 420//420 442//442 421//421
f 420//420 440//440 441//441
f 421//421 442//442 443//443
f 421//421 443//443 423//423
f 422//422 444//444 426//426
f 422//422 423//423 444//444
f 423//423 443//443 444//444
f 424//424 445//445 435//435
f 424//424 435//435 425//425
f 424//424 433//433 446//446
f 424//424 446//446 445//445
