# https://github.com/mikedh/trimesh
v 0.03934318 0.01156604 -0.03003808
v 0.03934318 0.01156604 -0.03118632
v 0.03926960 0.01156604 -0.03003738
v 0.05126383 0.01087442 -0.02744757
v 0.05126383 0.01087442 -0.02959983
v 0.05108907 0.01087442 -0.02983463
v 0.05096950 0.01087442 -0.02999418
v 0.05041761 0.01087442 -0.03052232
v 0.04989333 0.01087442 -0.03096127
v 0.04918508 0.01087442 -0.03140232
v 0.04828367 0.01087442 -0.03174860
v 0.04799853 0.01087442 -0.03178831
v 0.02917016 0.01156604 -0.03259585
v 0.03860734 0.01156604 -0.03003529
v 0.04985654 -0.01331304 -0.02734375
v 0.05126383 0.00042208 -0.02947232
v 0.03754957 0.01156604 -0.03003947
v -0.00635263 0.01156604 -0.03023735
v -0.01096084 0.01156604 -0.03026174
v -0.02785763 0.00996605 -0.02867733
v -0.02680905 -0.01085338 -0.02751654
v 0.00380200 -0.01331304 -0.02738556
v 0.00905407 -0.01331304 -0.02736744
v 0.05126383 0.01061627 -0.02971479
v 0.05126383 0.01006833 -0.02991336
v 0.05108907 0.01006833 -0.03013423
v 0.05057398 0.01006833 -0.03066097
v 0.05004969 0.01006833 -0.03109365
v 0.04883555 0.00985159 -0.03197992
v 0.04852282 0.01055539 -0.03184545
v 0.04781457 0.01066011 -0.03190119
v 0.04706953 0.01075996 -0.03193672
v 0.04706953 0.01087442 -0.03188307
v 0.02805720 0.01156604 -0.03271429
v 0.04985654 -0.01331304 -0.02885779
v 0.05126383 0.00042208 -0.03127342
v -0.01096084 0.01156604 -0.03136330
v -0.04263886 0.00996605 -0.03008128
v -0.04158109 0.00996605 -0.02978028
v -0.04061529 0.00996605 -0.02952945
v -0.04060609 0.00996605 -0.02952736
v -0.03946554 0.00996605 -0.02934412
v -0.03840777 0.00996605 -0.02923821
v -0.03735919 0.00996605 -0.02914763
v -0.02779324 -0.01085338 -0.02756253
v 0.00274422 -0.01331304 -0.02738974
v 0.05126383 0.00978096 -0.03000115
v 0.05080393 0.00862176 -0.03085955
v 0.05070275 0.00932556 -0.03076131
v 0.05126383 0.00819558 -0.03042965
v 0.04950701 0.00901384 -0.03172700
v 0.05030724 0.00898949 -0.03114522
v 0.04898272 0.00901384 -0.03205865
v 0.04812731 0.00901384 -0.03230809
v 0.04815490 0.01015113 -0.03203705
v 0.04706953 0.01006833 -0.03217501
v 0.02699943 0.01098157 -0.03307591
v 0.02699943 0.01156604 -0.03278258
v 0.04935984 -0.01331304 -0.02894140
v 0.03707127 -0.01052949 -0.03188516
v 0.04977375 -0.00318460 -0.03189840
v 0.04985654 -0.00326010 -0.03184127
v 0.05123624 0.00042208 -0.03129850
v 0.05112586 0.00479346 -0.03115776
v 0.05126383 0.00479346 -0.03102189
v 0.04985654 -0.00286558 -0.03191930
v -0.04263886 0.00996605 -0.03129780
v 0.02489308 0.01156604 -0.03277770
v -0.04270324 0.00041965 -0.03182733
v -0.04270324 -0.01085338 -0.02937617
v -0.03930917 -0.01085338 -0.02854982
v -0.03918040 -0.01085338 -0.02852126
v -0.03842616 -0.01085338 -0.02835752
v -0.03818701 -0.01085338 -0.02832268
v 0.00201758 -0.01331304 -0.02749495
v 0.05126383 0.00798371 -0.03048261
v 0.05088671 0.00795692 -0.03092783
v 0.05097870 0.00690243 -0.03101771
v 0.05030724 0.00584794 -0.03162458
v 0.04973696 0.00649330 -0.03189561
v 0.04907470 0.00795692 -0.03210603
v 0.04812731 0.00795692 -0.03240633
v 0.04655444 0.00639345 -0.03293725
v 0.04706953 0.00901384 -0.03242305
v 0.02699943 0.01006833 -0.03335809
v 0.02594166 0.01006833 -0.03338039
v 0.02594166 0.01100592 -0.03308706
v 0.02594166 0.01156604 -0.03280417
v 0.03651939 -0.01331304 -0.03107066
v 0.03490973 -0.01155718 -0.03186635
v 0.03421069 -0.01169600 -0.03191791
v 0.03237108 -0.00374472 -0.03414890
v 0.03334607 -0.00346953 -0.03408759
v 0.03334607 -0.00259770 -0.03426595
v 0.03748518 -0.00046193 -0.03406947
v 0.03825782 -0.00009177 -0.03402627
v 0.05062917 0.00042208 -0.03181270
v 0.05037162 0.00479346 -0.03168659
v 0.05106148 0.00584794 -0.03109714
v 0.05126383 0.00549239 -0.03093758
v 0.04985654 -0.00250759 -0.03195275
v -0.04263886 0.00843180 -0.03183987
v -0.04270324 0.00041965 -0.03299090
v 0.02489308 0.01097670 -0.03307451
v 0.02589567 0.01156604 -0.03280417
v -0.04270324 -0.01085338 -0.03056970
v 0.00201758 -0.01331304 -0.02894349
v 0.05126383 0.00731887 -0.03063380
v 0.05126383 0.00641294 -0.03080032
v 0.05126383 0.00584794 -0.03088881
v 0.04978295 0.00584794 -0.03191164
v 0.04925866 0.00686834 -0.03209279
v 0.04918508 0.00584794 -0.03217640
v 0.04675680 0.00479346 -0.03300275
v 0.04663722 0.00584794 -0.03296234
v 0.04601176 0.00479346 -0.03312189
v 0.04495399 0.00479346 -0.03322013
v 0.03545242 0.00057064 -0.03430846
v 0.02805720 0.00901384 -0.03349256
v 0.02699943 0.00901384 -0.03353158
v 0.02594166 0.00901384 -0.03354830
v 0.02489308 0.00901384 -0.03353716
v -0.04263886 0.00354658 -0.03299648
v 0.02489308 0.01006833 -0.03335530
v 0.03545242 -0.01331304 -0.03122395
v 0.03334607 -0.01183968 -0.03195971
v 0.03206754 -0.00432676 -0.03403324
v 0.03174561 -0.01262141 -0.03187611
v 0.03158005 -0.00368141 -0.03420673
v 0.03228830 -0.00259770 -0.03438789
v 0.03651939 -0.00048872 -0.03419628
v 0.03772433 0.00041965 -0.03410222
v 0.03834060 0.00041965 -0.03403045
v 0.04601176 0.00373897 -0.03312886
v 0.04985654 -0.00107806 -0.03206562
v 0.04985654 -0.00054960 -0.03208722
v 0.05011408 0.00042208 -0.03199804
v 0.04665562 0.00308144 -0.03296652
v -0.04263886 0.00794231 -0.03198062
v -0.04263886 0.00268205 -0.03306685
v -0.04263886 0.00267231 -0.03306685
v -0.04263886 0.00162756 -0.03306197
v -0.04263886 0.00057064 -0.03300484
v -0.04270324 -0.00022327 -0.03294701
v -0.04270324 -0.00990118 -0.03099263
v 0.03012676 -0.01331304 -0.03161970
v 0.02911498 -0.01331304 -0.03157302
v 0.02595085 -0.01331304 -0.03141277
v 0.02505864 -0.01331304 -0.03135633
v 0.02490228 -0.01331304 -0.03134239
v 0.04675680 0.00373897 -0.03299996
v 0.03754957 0.00057064 -0.03412451
v 0.03651019 0.00057064 -0.03423251
v 0.03545242 -0.00048872 -0.03427919
v 0.03228830 -0.00154077 -0.03444920
v 0.03334607 -0.00048872 -0.03440461
v 0.03439465 0.00057064 -0.03434190
v 0.03333687 0.00057064 -0.03436211
v 0.02594166 0.00465464 -0.03400537
v 0.00380200 0.00585038 -0.03354482
v 0.01357950 0.00238494 -0.03401025
v -0.04158109 0.00268205 -0.03308636
v 0.03244466 -0.01331304 -0.03152216
v 0.03228830 -0.01200528 -0.03199804
v 0.03158005 -0.00436573 -0.03404230
v 0.03158005 -0.00393224 -0.03414960
v 0.03153406 -0.01331304 -0.03161134
v 0.03158005 -0.01278701 -0.03181897
v 0.03102817 -0.01264577 -0.03188586
v 0.03158005 -0.01246068 -0.03192209
v 0.03122132 -0.00439252 -0.03404787
v 0.03122132 -0.00365218 -0.03423181
v 0.03158005 -0.00259770 -0.03440740
v 0.03651939 0.00041965 -0.03422693
v 0.03834060 0.00057064 -0.03403184
v 0.03122132 -0.00154077 -0.03446174
v -0.03842616 -0.00048872 -0.03312329
v -0.04270324 -0.00470667 -0.03250736
v -0.03847215 -0.00161140 -0.03304246
v -0.04270324 -0.00682051 -0.03208582
v 0.03042110 -0.01264577 -0.03188586
v 0.03010836 -0.01305733 -0.03171864
v 0.03131331 -0.01305733 -0.03172491
v 0.03129491 -0.01331304 -0.03161970
v 0.03122132 -0.00259770 -0.03441645
v 0.03158005 -0.00154077 -0.03445756
v 0.03228830 -0.00048872 -0.03443736
v 0.03158005 0.00021995 -0.03439903
v 0.03158005 0.00041965 -0.03438649
v 0.03122132 0.00057064 -0.03437952
v 0.03016355 0.00057064 -0.03438649
v 0.03031072 0.00042208 -0.03439485
v 0.03017275 -0.00048872 -0.03442760
v 0.03010836 -0.01219767 -0.03200152
v -0.00253545 -0.00670849 -0.03302783
v 0.03122132 -0.00048872 -0.03443875
v 0.03158005 -0.00048872 -0.03443875
v -0.03734999 -0.00154077 -0.03308218
v -0.04270324 -0.00576359 -0.03238613
v -0.03815942 -0.00229572 -0.03297209
v -0.04270324 -0.00676207 -0.03210394
v -0.00253545 -0.00892462 -0.03234293
v 0.03136849 0.00042208 -0.03438789
f 1 2 13
f 1 13 34
f 1 34 58
f 1 58 88
f 1 88 105
f 1 105 68
f 1 68 37
f 1 37 19
f 1 19 18
f 1 18 17
f 1 17 14
f 1 14 3
f 1 3 4
f 1 4 5
f 1 5 2
f 2 5 6
f 2 6 7
f 2 7 8
f 2 8 9
f 2 9 10
f 2 10 11
f 2 11 12
f 2 12 13
f 3 14 4
f 4 15 16
f 4 16 36
f 4 36 65
f 4 65 100
f 4 100 110
f 4 110 109
f 4 109 108
f 4 108 76
f 4 76 50
f 4 50 47
f 4 47 25
f 4 25 24
f 4 24 5
f 4 14 17
f 4 17 18
f 4 18 19
f 4 19 20
f 4 20 21
f 4 21 22
f 4 22 23
f 4 23 15
f 5 24 6
f 6 24 7
f 7 24 25
f 7 25 26
f 7 26 27
f 7 27 8
f 8 27 9
f 9 28 29
f 9 29 10
f 9 27 28
f 10 29 30
f 10 30 11
f 11 30 12
f 12 30 31
f 12 31 32
f 12 32 33
f 12 33 34
f 12 34 13
f 15 35 36
f 15 36 16
f 15 23 22
f 15 22 46
f 15 46 75
f 15 75 107
f 15 107 150
f 15 150 149
f 15 149 148
f 15 148 147
f 15 147 146
f 15 146 184
f 15 184 167
f 15 167 163
f 15 163 125
f 15 125 89
f 15 89 59
f 15 59 35
f 19 37 67
f 19 67 38
f 19 38 39
f 19 39 40
f 19 40 41
f 19 41 42
f 19 42 43
f 19 43 44
f 19 44 20
f 20 44 45
f 20 45 21
f 21 45 46
f 21 46 22
f 25 47 26
f 26 48 49
f 26 49 27
f 26 47 50
f 26 50 48
f 27 49 28
f 28 51 29
f 28 49 48
f 28 48 52
f 28 52 51
f 29 51 53
f 29 53 54
f 29 54 55
f 29 55 30
f 30 55 31
f 31 55 56
f 31 56 32
f 32 56 57
f 32 57 33
f 33 57 58
f 33 58 34
f 35 59 60
f 35 60 61
f 35 61 62
f 35 62 36
f 36 63 64
f 36 64 65
f 36 62 66
f 36 66 63
f 37 68 67
f 38 67 103
f 38 103 69
f 38 69 70
f 38 70 39
f 39 70 40
f 40 70 71
f 40 71 41
f 41 71 72
f 41 72 73
f 41 73 42
f 42 73 74
f 42 74 43
f 43 74 44
f 44 74 45
f 45 74 46
f 46 74 75
f 48 50 76
f 48 76 77
f 48 77 51
f 48 51 52
f 51 77 78
f 51 78 79
f 51 79 53
f 53 79 80
f 53 80 81
f 53 81 82
f 53 82 54
f 54 82 83
f 54 83 84
f 54 84 56
f 54 56 55
f 56 84 85
f 56 85 57
f 57 85 86
f 57 86 87
f 57 87 58
f 58 87 88
f 59 89 60
f 60 89 90
f 60 90 91
f 60 91 92
f 60 92 93
f 60 93 61
f 61 66 62
f 61 93 94
f 61 94 95
f 61 95 96
f 61 96 66
f 63 66 97
f 63 97 64
f 64 97 98
f 64 98 99
f 64 99 65
f 65 99 100
f 66 96 101
f 66 101 97
f 67 102 103
f 67 68 104
f 67 104 102
f 68 105 104
f 69 103 144
f 69 144 178
f 69 178 199
f 69 199 201
f 69 201 180
f 69 180 145
f 69 145 106
f 69 106 70
f 70 106 107
f 70 107 75
f 70 75 71
f 71 75 72
f 72 75 73
f 73 75 74
f 76 108 77
f 77 108 109
f 77 109 78
f 78 99 79
f 78 109 110
f 78 110 99
f 79 99 98
f 79 98 80
f 80 111 112
f 80 112 81
f 80 98 111
f 81 113 114
f 81 114 82
f 81 112 113
f 82 114 115
f 82 115 83
f 83 115 116
f 83 116 117
f 83 117 118
f 83 118 119
f 83 119 85
f 83 85 84
f 85 119 120
f 85 120 86
f 86 120 121
f 86 121 122
f 86 122 123
f 86 123 124
f 86 124 104
f 86 104 87
f 87 104 105
f 87 105 88
f 89 125 90
f 90 125 91
f 91 126 127
f 91 127 92
f 91 125 128
f 91 128 126
f 92 94 93
f 92 127 129
f 92 129 130
f 92 130 94
f 94 131 95
f 94 130 131
f 95 131 96
f 96 131 132
f 96 132 133
f 96 133 134
f 96 134 101
f 97 101 135
f 97 135 136
f 97 136 137
f 97 137 113
f 97 113 112
f 97 112 111
f 97 111 98
f 99 110 100
f 101 134 138
f 101 138 135
f 102 139 103
f 102 104 124
f 102 124 139
f 103 139 123
f 103 123 140
f 103 140 141
f 103 141 142
f 103 142 143
f 103 143 144
f 106 145 146
f 106 146 147
f 106 147 148
f 106 148 149
f 106 149 150
f 106 150 107
f 113 137 114
f 114 137 136
f 114 136 151
f 114 151 134
f 114 134 116
f 114 116 115
f 116 134 152
f 116 152 153
f 116 153 117
f 117 153 118
f 118 153 154
f 118 154 155
f 118 155 156
f 118 156 157
f 118 157 120
f 118 120 119
f 120 157 158
f 120 158 121
f 121 159 122
f 121 158 159
f 122 159 160
f 122 160 123
f 123 160 161
f 123 161 162
f 123 162 140
f 123 139 124
f 125 163 128
f 126 128 164
f 126 164 127
f 127 164 128
f 127 128 165
f 127 165 166
f 127 166 129
f 128 163 167
f 128 167 168
f 128 168 169
f 128 169 170
f 128 170 171
f 128 171 165
f 129 166 172
f 129 172 130
f 130 172 173
f 130 173 155
f 130 155 154
f 130 154 131
f 131 154 174
f 131 174 132
f 132 174 153
f 132 153 152
f 132 152 133
f 133 152 175
f 133 175 134
f 134 175 152
f 134 151 138
f 135 138 151
f 135 151 136
f 140 162 176
f 140 176 141
f 141 176 142
f 142 177 143
f 142 176 177
f 143 177 144
f 144 177 179
f 144 179 178
f 145 180 181
f 145 181 182
f 145 182 146
f 146 182 181
f 146 181 183
f 146 183 184
f 153 174 154
f 155 173 185
f 155 185 186
f 155 186 187
f 155 187 156
f 156 187 157
f 157 187 158
f 158 187 188
f 158 188 189
f 158 189 190
f 158 190 159
f 159 161 160
f 159 190 191
f 159 191 161
f 161 191 162
f 162 191 192
f 162 192 193
f 162 193 176
f 165 171 172
f 165 172 166
f 167 184 183
f 167 183 168
f 168 183 169
f 169 181 171
f 169 171 170
f 169 183 181
f 171 181 194
f 171 194 195
f 171 195 172
f 172 185 173
f 172 195 185
f 176 193 196
f 176 196 197
f 176 197 187
f 176 187 186
f 176 186 185
f 176 185 177
f 177 198 179
f 177 185 198
f 178 179 199
f 179 198 200
f 179 200 199
f 180 201 202
f 180 202 181
f 181 202 195
f 181 195 194
f 185 195 199
f 185 199 200
f 185 200 198
f 187 197 192
f 187 192 188
f 188 192 203
f 188 203 189
f 189 203 190
f 190 203 192
f 190 192 191
f 192 197 196
f 192 196 193
f 195 202 201
f 195 201 199

