# https://github.com/mikedh/trimesh
v 0.05126383 0.01754429 -0.02356330
v 0.04770911 0.02004307 -0.01799450
v 0.04747950 0.02004307 -0.01799450
v 0.04710775 0.01998060 -0.01878220
v 0.03885269 0.02171414 -0.02356330
v 0.05126383 0.02011974 -0.02356330
v 0.05126383 0.02836007 -0.00114764
v 0.04599371 0.02906285 -0.00114764
v 0.04501938 0.02926020 -0.00114764
v 0.04406814 0.02948310 -0.00114764
v 0.04074546 0.03041873 -0.00114764
v 0.04005177 0.03061466 -0.00114764
v 0.03885269 0.03101503 -0.00114764
v 0.03885269 0.02345619 -0.02356330
v 0.05108039 0.02025888 -0.02356330
v 0.05126383 0.02018789 -0.02350845
v 0.05126383 0.02970175 -0.00114764
v 0.03885269 0.03204720 -0.00114764
v 0.04074546 0.02353286 -0.02356330
v 0.03885269 0.02395453 -0.02293358
v 0.04074546 0.02445145 -0.02252327
v 0.04074546 0.02399997 -0.02305206
v 0.05104030 0.02028728 -0.02356330
v 0.05126383 0.02053431 -0.02319907
v 0.05113992 0.02977558 -0.00114764
v 0.05126383 0.02975712 -0.00179492
v 0.03885269 0.03204720 -0.00181247
v 0.03972496 0.03188819 -0.00114764
v 0.04179997 0.02351015 -0.02356330
v 0.04179997 0.02398861 -0.02306303
v 0.03885269 0.02434213 -0.02240698
v 0.04179997 0.02446139 -0.02253643
v 0.03885269 0.02465022 -0.02184966
v 0.04074546 0.02480497 -0.02184966
v 0.04357368 0.02307002 -0.02356330
v 0.04341575 0.02328866 -0.02345579
v 0.05126383 0.02122148 -0.02248816
v 0.05061145 0.02988490 -0.00114764
v 0.05119580 0.02979403 -0.00179492
v 0.05126383 0.02975286 -0.00285251
v 0.05119945 0.02978552 -0.00285251
v 0.03885269 0.03196202 -0.00285251
v 0.04285569 0.02335681 -0.02351942
v 0.04237096 0.02340366 -0.02356330
v 0.04179997 0.02481207 -0.02184966
v 0.04248151 0.02437904 -0.02244647
v 0.03885269 0.02985508 -0.01132421
v 0.04285691 0.02330570 -0.02356330
v 0.05126383 0.02210316 -0.02110583
v 0.05126383 0.02965206 -0.00356342
v 0.05103908 0.02971736 -0.00390571
v 0.03885269 0.03193078 -0.00310923
v 0.04284355 0.02455651 -0.02188037
v 0.03885269 0.03025830 -0.01040705
v 0.03968973 0.02981107 -0.01113112
v 0.04440466 0.02958533 -0.00969394
v 0.05126383 0.02791852 -0.01024029
v 0.05126383 0.02760759 -0.01094462
v 0.05126383 0.02759481 -0.01096876
v 0.05126383 0.02239279 -0.02060337
v 0.05126383 0.02959952 -0.00390571
v 0.05126383 0.02939224 -0.00500719
v 0.05088722 0.02964638 -0.00467587
v 0.03885269 0.03182004 -0.00392327
v 0.03885269 0.03034632 -0.01017666
v 0.03885269 0.03074102 -0.00907299
v 0.03943704 0.03070836 -0.00884041
v 0.04399646 0.02977132 -0.00927924
v 0.05126383 0.02896773 -0.00707410
v 0.05126383 0.02874057 -0.00789033
v 0.05125047 0.02866674 -0.00815802
v 0.05086657 0.02856026 -0.00870437
v 0.05126383 0.02794266 -0.01017666
v 0.05126383 0.02919631 -0.00598360
v 0.05126383 0.02897625 -0.00703680
v 0.03974926 0.03081059 -0.00819752
v 0.03885269 0.03098238 -0.00814266
v 0.03968973 0.03106330 -0.00707410
v 0.03885269 0.03170930 -0.00452667
v 0.03885269 0.03093837 -0.00832258
v 0.05126383 0.02866390 -0.00815802
f 1 2 3
f 1 3 4
f 1 4 5
f 1 5 14
f 1 14 19
f 1 19 29
f 1 29 44
f 1 44 48
f 1 48 35
f 1 35 23
f 1 23 15
f 1 15 6
f 1 6 16
f 1 16 24
f 1 24 37
f 1 37 49
f 1 49 60
f 1 60 59
f 1 59 58
f 1 58 57
f 1 57 73
f 1 73 81
f 1 81 70
f 1 70 69
f 1 69 75
f 1 75 74
f 1 74 62
f 1 62 61
f 1 61 50
f 1 50 40
f 1 40 26
f 1 26 17
f 1 17 7
f 1 7 2
f 2 7 3
f 3 5 4
f 3 7 8
f 3 8 9
f 3 9 10
f 3 10 11
f 3 11 12
f 3 12 13
f 3 13 5
f 5 13 18
f 5 18 27
f 5 27 42
f 5 42 52
f 5 52 64
f 5 64 79
f 5 79 77
f 5 77 80
f 5 80 66
f 5 66 65
f 5 65 54
f 5 54 47
f 5 47 33
f 5 33 31
f 5 31 20
f 5 20 14
f 6 15 16
f 7 17 25
f 7 25 38
f 7 38 28
f 7 28 18
f 7 18 13
f 7 13 12
f 7 12 11
f 7 11 10
f 7 10 9
f 7 9 8
f 14 20 21
f 14 21 22
f 14 22 19
f 15 23 24
f 15 24 16
f 17 26 25
f 18 28 27
f 19 22 30
f 19 30 29
f 20 31 21
f 21 32 22
f 21 31 33
f 21 33 34
f 21 34 32
f 22 32 30
f 23 35 36
f 23 36 37
f 23 37 24
f 25 26 39
f 25 39 38
f 26 40 39
f 27 41 42
f 27 28 39
f 27 39 41
f 28 38 39
f 29 30 43
f 29 43 44
f 30 32 43
f 32 36 43
f 32 34 45
f 32 45 46
f 32 46 36
f 33 47 34
f 34 47 45
f 35 48 36
f 36 46 37
f 36 48 43
f 37 46 49
f 39 40 41
f 40 50 41
f 41 50 51
f 41 51 42
f 42 51 52
f 43 48 44
f 45 53 46
f 45 47 54
f 45 54 55
f 45 55 56
f 45 56 57
f 45 57 58
f 45 58 53
f 46 53 58
f 46 58 59
f 46 59 60
f 46 60 49
f 50 61 51
f 51 61 62
f 51 62 63
f 51 63 52
f 52 63 64
f 54 65 56
f 54 56 55
f 56 65 66
f 56 66 67
f 56 67 68
f 56 68 69
f 56 69 70
f 56 70 71
f 56 71 72
f 56 72 73
f 56 73 57
f 62 74 63
f 63 74 75
f 63 75 69
f 63 69 68
f 63 68 76
f 63 76 77
f 63 77 78
f 63 78 79
f 63 79 64
f 66 80 67
f 67 80 76
f 67 76 68
f 70 81 71
f 71 81 72
f 72 81 73
f 76 80 77
f 77 79 78

