# https://github.com/mikedh/trimesh
v 0.01432900 0.02885248 0.00823401
v 0.01541723 0.02885248 0.00824943
v 0.01434998 0.02450411 0.01230326
v 0.01393304 0.02450411 0.01230656
v 0.01329321 0.02450411 0.01231758
v -0.00705542 0.02885248 0.00964035
v 0.01540674 0.02450411 0.01231978
v 0.01737605 0.02885248 0.00837388
v 0.01614097 0.02450411 0.01234841
v 0.01577386 0.02450411 0.01233299
v 0.01259569 0.02450411 0.01237154
v -0.00781587 0.02450411 0.01481639
v -0.00887263 0.02450411 0.01506859
v -0.00941282 0.02885248 0.01024055
v 0.01737605 0.02885248 0.01026698
v 0.01737605 0.02450411 0.01252682
v 0.01638222 0.02450411 0.01238145
v -0.00941282 0.02450411 0.01529986
v -0.00941282 0.02885248 0.01228894
v 0.01737605 0.02883035 0.01029452
v 0.00287503 0.02885248 0.01382413
v 0.00221422 0.02854514 0.01456750
v 0.00274129 0.02768483 0.01592208
v 0.00274129 0.02732300 0.01644960
v 0.00267049 0.02673002 0.01726895
v 0.00297205 0.02636691 0.01766211
v 0.01737605 0.02450411 0.01406311
v -0.00941282 0.02450411 0.01667206
v -0.00941282 0.02875628 0.01242661
v 0.00168453 0.02768738 0.01591437
v 0.00221160 0.02854514 0.01456750
v 0.00201755 0.02885248 0.01380982
v 0.01737605 0.02867284 0.01048504
v 0.00265738 0.02885248 0.01387259
v 0.00216440 0.02644651 0.01774801
v 0.00226929 0.02644651 0.01774801
v 0.00237156 0.02541848 0.01882727
v 0.00307694 0.02532525 0.01873697
v 0.01737605 0.02860601 0.01055662
v 0.01737605 0.02450794 0.01407303
v 0.01737080 0.02450411 0.01407413
v -0.00941282 0.02477612 0.01658395
v 0.00063039 0.02450411 0.01919400
v -0.00941282 0.02864219 0.01258849
v 0.00204378 0.02541848 0.01882727
v -0.00941282 0.02644949 0.01564346
v 0.00273605 0.02450411 0.01948254
v 0.00273080 0.02492468 0.01914334
v 0.00379544 0.02450411 0.01917307
v 0.00379544 0.02464203 0.01905854
v 0.01737605 0.02763545 0.01153787
v 0.01737605 0.02809221 0.01108524
v 0.01737605 0.02816330 0.01101366
v 0.01737605 0.02467183 0.01396620
v -0.00941282 0.02498428 0.01651457
v 0.00168715 0.02450411 0.01945721
v -0.00941282 0.02640564 0.01568090
v -0.00941282 0.02533292 0.01634387
v -0.00941282 0.02587652 0.01603882
f 1 2 3
f 1 3 4
f 1 4 5
f 1 5 6
f 1 6 14
f 1 14 19
f 1 19 32
f 1 32 34
f 1 34 21
f 1 21 15
f 1 15 8
f 1 8 2
f 2 7 3
f 2 8 9
f 2 9 10
f 2 10 7
f 3 7 10
f 3 10 9
f 3 9 17
f 3 17 16
f 3 16 27
f 3 27 41
f 3 41 49
f 3 49 47
f 3 47 56
f 3 56 43
f 3 43 28
f 3 28 18
f 3 18 13
f 3 13 12
f 3 12 11
f 3 11 5
f 3 5 4
f 5 11 6
f 6 12 13
f 6 13 14
f 6 11 12
f 8 15 20
f 8 20 33
f 8 33 39
f 8 39 53
f 8 53 52
f 8 52 51
f 8 51 54
f 8 54 40
f 8 40 27
f 8 27 16
f 8 16 17
f 8 17 9
f 13 18 14
f 14 18 28
f 14 28 42
f 14 42 55
f 14 55 58
f 14 58 59
f 14 59 57
f 14 57 46
f 14 46 44
f 14 44 29
f 14 29 19
f 15 21 22
f 15 22 23
f 15 23 24
f 15 24 25
f 15 25 26
f 15 26 20
f 19 29 30
f 19 30 31
f 19 31 32
f 20 26 33
f 21 34 22
f 22 34 31
f 22 31 23
f 23 31 30
f 23 30 35
f 23 35 36
f 23 36 24
f 24 36 25
f 25 36 26
f 26 36 37
f 26 37 38
f 26 38 39
f 26 39 33
f 27 40 41
f 28 43 42
f 29 44 30
f 30 44 35
f 31 34 32
f 35 45 37
f 35 37 36
f 35 44 46
f 35 46 45
f 37 45 47
f 37 47 48
f 37 48 38
f 38 48 47
f 38 47 49
f 38 49 50
f 38 50 51
f 38 51 52
f 38 52 53
f 38 53 39
f 40 49 41
f 40 54 49
f 42 43 55
f 43 56 55
f 45 56 47
f 45 46 57
f 45 57 56
f 49 54 51
f 49 51 50
f 55 56 58
f 56 57 59
f 56 59 58

