# https://github.com/mikedh/trimesh
v -0.04465505 0.01432897 -0.00922904
v -0.04577054 0.01432897 -0.00922904
v -0.04457973 0.01432584 -0.00922904
v -0.04458222 0.01432897 -0.00923371
v -0.04671484 0.01433209 -0.02773124
v -0.04640484 0.01432897 -0.01129884
v -0.04894892 -0.01758296 -0.01146219
v -0.04645277 0.00153483 -0.00922904
v -0.04456417 0.01428835 -0.00922904
v -0.04264319 0.01433209 -0.02827728
v -0.04671484 0.01433209 -0.02918967
v -0.04882318 0.01432897 -0.02603480
v -0.04874350 0.01432897 -0.02501507
v -0.04788946 0.01432897 -0.01865165
v -0.04773321 0.01432897 -0.01759225
v -0.04751535 0.01432897 -0.01644184
v -0.04664574 0.01432897 -0.01228591
v -0.04658225 0.01432897 -0.01201522
v -0.04900183 -0.01758296 -0.01763192
v -0.04615959 -0.01758608 -0.02338163
v -0.04774255 -0.01758296 -0.01146219
v -0.04649822 0.00041944 -0.00922904
v -0.04649759 0.00056941 -0.00922904
v -0.04882629 0.01428835 -0.02607447
v -0.04419068 0.01300425 -0.00922904
v -0.04264319 0.01433209 -0.02954203
v -0.04408859 0.01217630 -0.00922904
v -0.04270793 0.00267834 -0.01446538
v -0.04266996 0.00162231 -0.01446538
v -0.04264319 0.00042257 -0.03182884
v -0.04593113 0.01433209 -0.02942536
v -0.04626541 0.01161080 -0.03078577
v -0.04687482 0.01432897 -0.02914067
v -0.04691154 0.01432897 -0.02912433
v -0.04750788 0.01432897 -0.02883498
v -0.04752220 0.01432897 -0.02881631
v -0.04809737 0.01432897 -0.02805093
v -0.04815215 0.01432897 -0.02797159
v -0.04856298 0.01432897 -0.02725055
v -0.04861154 0.01432897 -0.02714554
v -0.04862274 0.01432897 -0.02708954
v -0.04882318 0.01432897 -0.02607447
v -0.04899250 -0.01758296 -0.01868666
v -0.04615959 -0.01758608 -0.02518541
v -0.04899436 -0.00998146 -0.02396267
v -0.04270606 -0.01758608 -0.02517841
v -0.04591246 -0.01420243 -0.01146219
v -0.04532297 0.00041944 -0.00922904
v -0.04861403 0.01425398 -0.02716421
v -0.04869868 0.01323233 -0.02712687
v -0.04875782 0.01006738 -0.02712687
v -0.04893647 -0.00998146 -0.02501507
v -0.04354890 0.01433209 -0.02961670
v -0.04264319 0.01417275 -0.02962837
v -0.04288223 0.01386969 -0.02982205
v -0.04409357 0.01109528 -0.00922904
v -0.04285048 0.00162231 -0.01341065
v -0.04284861 0.00267834 -0.01341065
v -0.04289841 -0.00364844 -0.01341065
v -0.04273905 -0.00259241 -0.01446538
v -0.04264319 0.00042257 -0.03299325
v -0.04581286 0.01433209 -0.02945569
v -0.04556263 0.01176389 -0.03088378
v -0.04587574 0.01120464 -0.03106346
v -0.04662271 0.01090782 -0.03095379
v -0.04740704 0.01271681 -0.02976838
v -0.04765727 0.01313235 -0.02922701
v -0.04750539 0.01217630 -0.02988738
v -0.04824489 0.01323233 -0.02833795
v -0.04848455 0.01387594 -0.02769391
v -0.04890721 -0.01758296 -0.01974139
v -0.04898752 -0.01103436 -0.02396267
v -0.04599463 -0.01758608 -0.02533242
v -0.04876031 -0.01758296 -0.02079613
v -0.04856361 -0.01758296 -0.02177852
v -0.04837686 -0.01758296 -0.02224522
v -0.04832271 -0.01758296 -0.02235023
v -0.04792868 -0.01758296 -0.02308528
v -0.04757697 -0.01758296 -0.02372465
v -0.04718668 -0.01758296 -0.02424268
v -0.04703977 -0.01758296 -0.02440836
v -0.04661337 -0.01758296 -0.02485639
v -0.04276209 -0.00364844 -0.01446538
v -0.04294011 -0.00470134 -0.01341065
v -0.04313931 -0.00535432 -0.01280394
v -0.04384209 -0.00892543 -0.01235591
v -0.04523769 -0.01279648 -0.01170720
v -0.04585581 -0.01409620 -0.01146219
v -0.04270606 -0.01758608 -0.02658084
v -0.04505842 0.00267521 -0.00922904
v -0.04541946 -0.01302456 -0.01146219
v -0.04419192 -0.00892543 -0.01146219
v -0.04408486 -0.00852552 -0.01146219
v -0.04395912 -0.00782567 -0.01146219
v -0.04851443 0.01323233 -0.02780825
v -0.04849451 0.00982681 -0.02882565
v -0.04859535 0.01013299 -0.02827261
v -0.04861029 -0.00259241 -0.02818161
v -0.04849077 -0.00259241 -0.02884198
v -0.04847272 -0.00326727 -0.02876731
v -0.04865386 -0.01103436 -0.02607447
v -0.04887734 -0.01103436 -0.02501507
v -0.04370888 0.01433209 -0.02962603
v -0.04264319 0.01382595 -0.02979171
v -0.04264319 0.01344166 -0.02996672
v -0.04315487 0.01167016 -0.03083011
v -0.04370888 0.01171390 -0.03085345
v -0.04476461 0.01178264 -0.03089312
v -0.04370888 0.01391343 -0.02984305
v -0.04412905 0.01073911 -0.00922904
v -0.04388691 -0.00663530 -0.01146219
v -0.04311815 -0.00470134 -0.01276427
v -0.04264319 0.00056941 -0.03300492
v -0.04270606 -0.01718304 -0.02685619
v -0.04270606 -0.01402434 -0.02895166
v -0.04270606 -0.01319952 -0.02947902
v -0.04270606 -0.01267151 -0.02979638
v -0.04270606 -0.01264339 -0.02981271
v -0.04270606 -0.01209350 -0.03009973
v -0.04270606 -0.01204039 -0.03012307
v -0.04270606 -0.00990022 -0.03099112
v -0.04270606 -0.00682276 -0.03208553
v -0.04270606 -0.00676340 -0.03210419
v -0.04270606 -0.00576048 -0.03238421
v -0.04270606 -0.00570737 -0.03239121
v -0.04270606 -0.00470446 -0.03250555
v -0.04270606 -0.00022417 -0.03294425
v -0.04476461 0.01433209 -0.02959803
v -0.04544498 0.01383220 -0.02980338
v -0.04476461 0.01112653 -0.03118713
v -0.04476461 0.01388531 -0.02983138
v -0.04544000 0.00870517 -0.03192685
v -0.04581971 0.01007050 -0.03143215
v -0.04671484 0.01066100 -0.03098179
v -0.04732674 0.01041106 -0.03076244
v -0.04764980 0.01112340 -0.03010440
v -0.04769711 0.01006113 -0.03036575
v -0.04835694 0.01217630 -0.02845696
v -0.04828660 0.01013299 -0.02920367
v -0.04615959 -0.01435865 -0.02753056
v -0.04609609 -0.01449299 -0.02748156
v -0.04539331 -0.01482105 -0.02772191
v -0.04428156 -0.01582083 -0.02768457
v -0.04551283 -0.01758608 -0.02561944
v -0.04876031 -0.01209038 -0.02501507
v -0.04859971 -0.01312453 -0.02501740
v -0.04850758 -0.01275899 -0.02564511
v -0.04846774 -0.01159049 -0.02661350
v -0.04725515 -0.01737050 -0.02431502
v -0.04755706 -0.01314640 -0.02681185
v -0.04642788 -0.01378689 -0.02773124
v -0.04411598 -0.00892543 -0.01159286
v -0.04370950 -0.01758608 -0.02642683
v -0.04370950 -0.01403684 -0.02894699
v -0.04788697 0.00901135 -0.03029108
v -0.04829718 0.00901135 -0.02938335
v -0.04850198 0.00901135 -0.02885598
v -0.04849700 -0.00154576 -0.02887932
v -0.04829345 -0.00259241 -0.02936935
v -0.04830465 -0.00154576 -0.02940669
v -0.04792618 -0.00259241 -0.03029108
v -0.04855365 -0.01200290 -0.02602547
v -0.04459218 0.01433209 -0.02960270
v -0.04264319 0.01285116 -0.03020707
v -0.04264319 0.01099531 -0.03094212
v -0.04303536 0.00856145 -0.03190351
v -0.04370888 0.01112653 -0.03109146
v -0.04264319 0.00161294 -0.03306092
v -0.04265378 0.00056941 -0.03300492
v -0.04370950 -0.01317765 -0.02947669
v -0.04370950 -0.01264964 -0.02978238
v -0.04370950 -0.01209350 -0.03007173
v -0.04370950 -0.00994084 -0.03100512
v -0.04370950 -0.01103748 -0.03053142
v -0.04365535 -0.00690711 -0.03205286
v -0.04370950 -0.00576048 -0.03240521
v -0.04370950 -0.00470446 -0.03253356
v -0.04329182 -0.00015231 -0.03293958
v -0.04370888 0.00865206 -0.03192452
v -0.04476461 0.00876141 -0.03194085
v -0.04264319 0.00353440 -0.03299792
v -0.04265378 0.00354378 -0.03299559
v -0.04339764 0.00338443 -0.03296525
v -0.04422740 0.00210658 -0.03292558
v -0.04554395 0.00795846 -0.03197352
v -0.04687482 0.00901135 -0.03127114
v -0.04693520 0.01006113 -0.03104246
v -0.04744376 0.00970808 -0.03085578
v -0.04752157 0.00901135 -0.03093278
v -0.04577552 -0.01416806 -0.02791325
v -0.04521217 -0.01359943 -0.02864597
v -0.04450752 -0.01391811 -0.02886298
v -0.04468555 -0.01520846 -0.02787359
v -0.04424546 -0.01263089 -0.02977071
v -0.04374560 -0.01758608 -0.02641749
v -0.04474967 -0.01758608 -0.02605347
v -0.04733607 -0.01244031 -0.02757023
v -0.04780667 -0.00364844 -0.03029108
v -0.04741264 -0.00422644 -0.03083478
v -0.04757075 -0.00576048 -0.03006006
v -0.04748547 -0.00661030 -0.02991072
v -0.04723959 -0.00576048 -0.03059210
v -0.04713314 -0.00690399 -0.03027474
v -0.04655050 -0.00681651 -0.03101912
v -0.04714933 -0.01314640 -0.02733689
v -0.04662146 -0.01314640 -0.02793659
v -0.04627723 -0.01253404 -0.02865997
v -0.04615959 -0.01273712 -0.02860630
v -0.04757760 0.00795533 -0.03098645
v -0.04791809 0.00795533 -0.03029108
v -0.04794548 -0.00154576 -0.03029108
v -0.04756390 -0.00259241 -0.03102612
v -0.04264319 0.00843335 -0.03184051
v -0.04264319 0.00796158 -0.03197585
v -0.04265378 0.00162544 -0.03306092
v -0.04264319 0.00268146 -0.03306792
v -0.04357816 0.00042257 -0.03295825
v -0.04366966 0.00060690 -0.03296292
v -0.04476523 -0.00973463 -0.03092578
v -0.04476523 -0.00576048 -0.03225821
v -0.04476523 -0.00470446 -0.03247055
v -0.04476523 -0.00364844 -0.03255922
v -0.04427907 0.00097870 -0.03294192
v -0.04359995 0.00268146 -0.03298859
v -0.04581971 0.00268146 -0.03239354
v -0.04581971 0.00373748 -0.03229554
v -0.04427907 0.00140361 -0.03294192
v -0.04648639 0.00373748 -0.03199452
v -0.04655486 0.00268146 -0.03205519
v -0.04588258 -0.01320889 -0.02847796
v -0.04557445 -0.01289333 -0.02887465
v -0.04472913 -0.01311516 -0.02922234
v -0.04494948 -0.01229034 -0.02957703
v -0.04531301 -0.01158424 -0.02977771
v -0.04466439 -0.01199977 -0.02988738
v -0.04532110 -0.00949719 -0.03083945
v -0.04476523 -0.01026265 -0.03069010
v -0.04647643 -0.01182794 -0.02885365
v -0.04746866 -0.00364844 -0.03090945
v -0.04703915 -0.00364844 -0.03143915
v -0.04643223 -0.00448888 -0.03195719
v -0.04688104 -0.00471071 -0.03135048
v -0.04671173 -0.00576048 -0.03122680
v -0.04641107 -0.00747887 -0.03087912
v -0.04632828 -0.00519498 -0.03186384
v -0.04615959 -0.01259652 -0.02869497
v -0.04604629 -0.01103748 -0.02956303
v -0.04551968 -0.01103748 -0.02992472
v -0.04615959 -0.01242156 -0.02879531
v -0.04657229 -0.00048974 -0.03209719
v -0.04658536 -0.00154576 -0.03209953
v -0.04711385 -0.00154576 -0.03156049
v -0.04757199 -0.00154576 -0.03103313
v -0.04709455 -0.00259241 -0.03155349
v -0.04651191 -0.00364844 -0.03203419
v -0.04380848 0.00170354 -0.03298392
v -0.04532982 -0.00632286 -0.03189185
v -0.04557072 -0.00576048 -0.03199685
v -0.04591371 -0.00478882 -0.03213453
v -0.04582033 -0.00364844 -0.03235154
v -0.04582033 -0.00259241 -0.03241221
v -0.04582033 -0.00154264 -0.03243555
v -0.04582033 -0.00048974 -0.03244488
v -0.04581971 0.00162544 -0.03241921
v -0.04615959 -0.01070318 -0.02963303
v -0.04627723 -0.01035013 -0.02970304
v -0.04616021 -0.00531995 -0.03189418
v -0.04615959 -0.00464822 -0.03205053
v -0.04615959 -0.00259241 -0.03226287
v -0.04656607 -0.00259241 -0.03208086
f 1 2 8
f 1 8 23
f 1 23 22
f 1 22 48
f 1 48 90
f 1 90 110
f 1 110 56
f 1 56 27
f 1 27 25
f 1 25 9
f 1 9 3
f 1 3 4
f 1 4 5
f 1 5 2
f 2 5 6
f 2 6 7
f 2 7 8
f 3 9 10
f 3 10 4
f 4 10 5
f 5 10 26
f 5 26 53
f 5 53 103
f 5 103 163
f 5 163 128
f 5 128 62
f 5 62 31
f 5 31 11
f 5 11 42
f 5 42 12
f 5 12 13
f 5 13 14
f 5 14 15
f 5 15 16
f 5 16 17
f 5 17 18
f 5 18 6
f 6 18 7
f 7 19 20
f 7 20 21
f 7 21 48
f 7 48 22
f 7 22 23
f 7 23 8
f 7 18 17
f 7 17 16
f 7 16 15
f 7 15 14
f 7 14 13
f 7 13 12
f 7 12 24
f 7 24 19
f 9 25 10
f 10 25 27
f 10 27 28
f 10 28 29
f 10 29 30
f 10 30 61
f 10 61 113
f 10 113 168
f 10 168 216
f 10 216 181
f 10 181 214
f 10 214 213
f 10 213 165
f 10 165 164
f 10 164 105
f 10 105 104
f 10 104 54
f 10 54 26
f 11 31 32
f 11 32 33
f 11 33 34
f 11 34 35
f 11 35 36
f 11 36 37
f 11 37 38
f 11 38 39
f 11 39 40
f 11 40 41
f 11 41 42
f 12 42 24
f 19 43 44
f 19 44 20
f 19 24 45
f 19 45 43
f 20 44 73
f 20 73 144
f 20 144 196
f 20 196 195
f 20 195 153
f 20 153 89
f 20 89 46
f 20 46 21
f 21 47 48
f 21 46 47
f 24 42 49
f 24 49 50
f 24 50 51
f 24 51 52
f 24 52 45
f 26 54 55
f 26 55 53
f 27 56 57
f 27 57 58
f 27 58 28
f 28 58 29
f 29 58 57
f 29 57 59
f 29 59 60
f 29 60 46
f 29 46 30
f 30 46 89
f 30 89 61
f 31 62 32
f 32 63 64
f 32 64 65
f 32 65 66
f 32 66 33
f 32 62 63
f 33 66 34
f 34 66 35
f 35 66 36
f 36 66 37
f 37 66 67
f 37 67 68
f 37 68 69
f 37 69 38
f 38 69 70
f 38 70 39
f 39 70 40
f 40 70 49
f 40 49 41
f 41 49 42
f 43 71 44
f 43 45 72
f 43 72 71
f 44 71 74
f 44 74 75
f 44 75 76
f 44 76 77
f 44 77 78
f 44 78 79
f 44 79 80
f 44 80 81
f 44 81 82
f 44 82 73
f 45 52 72
f 46 60 83
f 46 83 84
f 46 84 85
f 46 85 86
f 46 86 87
f 46 87 88
f 46 88 47
f 47 88 48
f 48 88 91
f 48 91 92
f 48 92 93
f 48 93 94
f 48 94 90
f 49 70 95
f 49 95 96
f 49 96 50
f 50 96 97
f 50 97 51
f 51 97 98
f 51 98 52
f 52 98 99
f 52 99 100
f 52 100 101
f 52 101 102
f 52 102 72
f 53 55 103
f 54 104 55
f 55 104 105
f 55 105 106
f 55 106 107
f 55 107 108
f 55 108 109
f 55 109 103
f 56 110 94
f 56 94 111
f 56 111 112
f 56 112 59
f 56 59 57
f 59 112 84
f 59 84 83
f 59 83 60
f 61 89 114
f 61 114 115
f 61 115 116
f 61 116 117
f 61 117 118
f 61 118 119
f 61 119 120
f 61 120 121
f 61 121 122
f 61 122 123
f 61 123 124
f 61 124 125
f 61 125 126
f 61 126 127
f 61 127 113
f 62 128 129
f 62 129 63
f 63 108 130
f 63 130 64
f 63 129 128
f 63 128 131
f 63 131 109
f 63 109 108
f 64 130 132
f 64 132 133
f 64 133 65
f 65 133 132
f 65 132 134
f 65 134 135
f 65 135 66
f 66 135 68
f 66 68 67
f 68 135 136
f 68 136 69
f 69 136 70
f 70 136 137
f 70 137 138
f 70 138 139
f 70 139 96
f 70 96 95
f 71 72 102
f 71 102 74
f 73 82 140
f 73 140 141
f 73 141 142
f 73 142 143
f 73 143 144
f 74 102 145
f 74 145 75
f 75 145 146
f 75 146 147
f 75 147 76
f 76 147 148
f 76 148 77
f 77 148 78
f 78 148 79
f 79 149 80
f 79 148 150
f 79 150 149
f 80 149 81
f 81 149 151
f 81 151 82
f 82 151 140
f 84 112 85
f 85 94 86
f 85 112 94
f 86 94 93
f 86 93 152
f 86 152 87
f 87 91 88
f 87 152 91
f 89 153 143
f 89 143 154
f 89 154 114
f 90 94 110
f 91 152 92
f 92 152 93
f 94 112 111
f 96 155 156
f 96 156 157
f 96 157 97
f 96 139 155
f 97 157 98
f 98 158 99
f 98 157 158
f 99 159 100
f 99 158 160
f 99 160 159
f 100 159 161
f 100 161 148
f 100 148 101
f 101 148 162
f 101 162 145
f 101 145 102
f 103 109 131
f 103 131 163
f 105 164 106
f 106 165 166
f 106 166 167
f 106 167 130
f 106 130 107
f 106 164 165
f 107 130 108
f 113 127 169
f 113 169 168
f 114 154 115
f 115 154 116
f 116 170 117
f 116 154 170
f 117 170 118
f 118 170 171
f 118 171 119
f 119 172 120
f 119 171 172
f 120 173 121
f 120 172 174
f 120 174 173
f 121 173 122
f 122 175 123
f 122 173 175
f 123 176 124
f 123 175 176
f 124 176 125
f 125 176 177
f 125 177 126
f 126 177 127
f 127 177 178
f 127 178 169
f 128 163 131
f 130 167 166
f 130 166 179
f 130 179 180
f 130 180 132
f 132 180 181
f 132 181 182
f 132 182 183
f 132 183 184
f 132 184 185
f 132 185 186
f 132 186 187
f 132 187 134
f 134 187 135
f 135 187 188
f 135 188 136
f 136 188 137
f 137 188 189
f 137 189 155
f 137 155 139
f 137 139 138
f 140 151 190
f 140 190 141
f 141 190 142
f 142 190 191
f 142 191 192
f 142 192 193
f 142 193 143
f 143 193 192
f 143 192 194
f 143 194 154
f 143 153 195
f 143 195 196
f 143 196 144
f 145 162 146
f 146 162 147
f 147 162 148
f 148 197 150
f 148 161 198
f 148 198 199
f 148 199 200
f 148 200 201
f 148 201 202
f 148 202 203
f 148 203 204
f 148 204 197
f 149 150 205
f 149 205 151
f 150 197 205
f 151 205 206
f 151 206 207
f 151 207 208
f 151 208 190
f 154 194 170
f 155 189 209
f 155 209 210
f 155 210 156
f 156 210 211
f 156 211 160
f 156 160 157
f 157 160 158
f 159 160 161
f 160 211 161
f 161 211 212
f 161 212 198
f 165 213 166
f 166 213 214
f 166 214 181
f 166 181 179
f 168 215 216
f 168 169 217
f 168 217 218
f 168 218 215
f 169 178 217
f 170 194 171
f 171 194 172
f 172 194 174
f 173 219 175
f 173 174 194
f 173 194 219
f 175 219 220
f 175 220 176
f 176 220 221
f 176 221 177
f 177 221 222
f 177 222 178
f 178 222 223
f 178 223 217
f 179 181 180
f 181 183 182
f 181 216 183
f 183 216 224
f 183 224 184
f 184 225 226
f 184 226 185
f 184 224 227
f 184 227 225
f 185 226 186
f 186 189 188
f 186 188 187
f 186 226 228
f 186 228 189
f 189 228 229
f 189 229 209
f 190 208 230
f 190 230 191
f 191 230 231
f 191 231 192
f 192 231 232
f 192 232 194
f 194 232 233
f 194 233 234
f 194 234 235
f 194 235 236
f 194 236 237
f 194 237 219
f 197 204 238
f 197 238 206
f 197 206 205
f 198 212 239
f 198 239 199
f 199 239 240
f 199 240 241
f 199 241 242
f 199 242 202
f 199 202 201
f 199 201 200
f 202 242 243
f 202 243 204
f 202 204 203
f 204 244 238
f 204 243 245
f 204 245 244
f 206 238 207
f 207 246 208
f 207 238 247
f 207 247 236
f 207 236 248
f 207 248 249
f 207 249 246
f 208 246 231
f 208 231 230
f 209 229 250
f 209 250 251
f 209 251 252
f 209 252 253
f 209 253 211
f 209 211 210
f 211 253 212
f 212 254 255
f 212 255 240
f 212 240 239
f 212 253 252
f 212 252 254
f 215 256 216
f 215 218 223
f 215 223 256
f 216 256 224
f 217 223 218
f 219 236 220
f 219 237 236
f 220 236 257
f 220 257 258
f 220 258 259
f 220 259 221
f 221 259 260
f 221 260 222
f 222 260 223
f 223 227 256
f 223 260 261
f 223 261 262
f 223 262 263
f 223 263 227
f 224 256 227
f 225 227 264
f 225 264 229
f 225 229 228
f 225 228 226
f 227 263 264
f 229 264 250
f 231 246 249
f 231 249 234
f 231 234 233
f 231 233 232
f 234 248 236
f 234 236 235
f 234 249 248
f 236 247 265
f 236 265 266
f 236 266 244
f 236 244 245
f 236 245 267
f 236 267 258
f 236 258 257
f 238 265 247
f 238 244 266
f 238 266 265
f 240 255 241
f 241 268 245
f 241 245 242
f 241 255 260
f 241 260 268
f 242 245 243
f 245 268 259
f 245 259 267
f 250 263 251
f 250 264 263
f 251 263 262
f 251 262 261
f 251 261 269
f 251 269 270
f 251 270 254
f 251 254 252
f 254 270 255
f 255 270 260
f 258 267 259
f 259 268 260
f 260 270 269
f 260 269 261

