# https://github.com/mikedh/trimesh
v -0.04270398 -0.02180229 -0.02132252
v -0.04270398 -0.02436449 -0.01730401
v -0.04492258 -0.03097054 -0.00115230
v -0.04270398 -0.02052425 -0.02132252
v -0.03173504 -0.02320420 -0.02132252
v -0.04270398 -0.02971090 -0.00692389
v -0.00254424 -0.02858372 -0.01732587
v -0.04492258 -0.02989610 -0.00115230
v -0.04270398 -0.03059768 -0.00453707
v -0.04475721 -0.03100979 -0.00115230
v -0.04475721 -0.03103432 -0.00073952
v -0.04492258 -0.03098403 -0.00091677
v -0.04159239 -0.02045679 -0.02132252
v -0.04492258 -0.02987525 0.00348294
v -0.02134946 -0.02410692 -0.00216239
v -0.02110141 -0.02402229 -0.00235907
v -0.02048131 -0.02381133 -0.00285440
v -0.01731649 -0.02346913 -0.02132252
v -0.00148777 -0.02534448 -0.02131766
v -0.00206194 -0.02531504 -0.02131766
v -0.00211706 -0.02636495 -0.02027843
v -0.00254424 -0.02733022 -0.01913966
v -0.00254424 -0.02774110 -0.01861519
v -0.00254424 -0.02826851 -0.01785519
v -0.00254424 -0.02889281 -0.01657073
v -0.00148777 -0.02975383 -0.01445828
v -0.00148777 -0.02859722 -0.01734529
v -0.04270398 -0.03075099 -0.00390819
v -0.00148777 -0.03064428 -0.01204232
v -0.00127647 -0.03168683 -0.00886151
v -0.04411415 -0.03106989 -0.00115230
v -0.04270398 -0.03094233 -0.00290539
v -0.04370074 -0.03113244 -0.00073952
v -0.04475721 -0.03108338 0.00031670
v -0.04492258 -0.03103309 0.00014673
v -0.04052673 -0.02046783 -0.02132252
v -0.04492258 -0.03093497 0.00348294
v -0.02364614 -0.02887318 0.00348294
v -0.02048131 -0.02407871 -0.00213325
v -0.02110141 -0.02409956 -0.00215268
v -0.01942943 -0.02416825 -0.00224009
v -0.01887823 -0.02422589 -0.00231050
v -0.01942943 -0.02398795 -0.00285440
v 0.00200318 -0.02317231 -0.02131766
v -0.01353156 -0.02209788 -0.02131766
v -0.01698576 -0.02346422 -0.02132252
v -0.00043589 -0.02536288 -0.02131766
v -0.00148777 -0.02637476 -0.02028815
v -0.00148777 -0.02735475 -0.01917122
v -0.00148777 -0.02775337 -0.01864190
v -0.00148777 -0.02828077 -0.01787462
v -0.00148777 -0.02891366 -0.01657073
v -0.00074824 -0.02952692 -0.01502403
v -0.00043589 -0.03064428 -0.01203989
v -0.00043589 -0.02856778 -0.01728944
v -0.00043589 -0.02888300 -0.01657073
v -0.00148777 -0.03209158 -0.00707686
v -0.00105599 -0.03269012 -0.00450793
v -0.00043589 -0.03090430 -0.01129204
v -0.00043589 -0.03168683 -0.00886880
v -0.00043589 -0.03188307 -0.00813308
v -0.04270398 -0.03108951 -0.00184916
v -0.04370074 -0.03110300 -0.00115230
v -0.03801416 -0.03163531 -0.00032189
v -0.03822546 -0.03166229 0.00031670
v -0.03737109 -0.03180212 0.00137049
v -0.04475721 -0.03110545 0.00137049
v -0.04492258 -0.03106498 0.00137049
v -0.04492258 -0.03103799 0.00030699
v -0.03737109 -0.03183278 0.00242672
v -0.01619571 -0.02209174 -0.02132252
v -0.04492258 -0.03103064 0.00242672
v -0.04476181 -0.03096931 0.00348294
v -0.02259426 -0.02886215 0.00348294
v -0.01309978 -0.02896149 0.00348294
v -0.01204331 -0.02897499 0.00348294
v -0.01098684 -0.02904980 0.00348294
v -0.00986606 -0.02927794 0.00348294
v 0.00200318 -0.03112508 -0.00115230
v 0.00200318 -0.02518381 -0.02131766
v -0.01619571 -0.02345196 -0.02132252
v 0.00062058 -0.02533589 -0.02131766
v -0.00074824 -0.02636740 -0.02028572
v -0.00043589 -0.02731550 -0.01911295
v -0.00043589 -0.02771535 -0.01858605
v -0.00043589 -0.02824275 -0.01781877
v -0.00040833 -0.02969618 -0.01454812
v 0.00062058 -0.02967288 -0.01433688
v 0.00038173 -0.03060013 -0.01191606
v 0.00068948 -0.03075958 -0.01138188
v 0.00062058 -0.02850155 -0.01717289
v 0.00062058 -0.02876770 -0.01657073
v -0.00043589 -0.03212101 -0.00707686
v -0.00089982 -0.03269012 -0.00450793
v -0.00148777 -0.03285570 -0.00285440
v 0.00028067 -0.03164390 -0.00873768
v 0.00062518 -0.03174079 -0.00819379
v 0.00062058 -0.03200204 -0.00707686
v -0.03631462 -0.03188675 0.00137049
v -0.03631462 -0.03192845 0.00242672
v -0.04475721 -0.03106498 0.00242672
v -0.03737109 -0.03180580 0.00348294
v -0.00971448 -0.02932577 0.00348294
v 0.00200318 -0.03222527 -0.00115230
v -0.00483633 -0.03098280 0.00348294
v 0.00200318 -0.02524391 -0.02126667
v 0.00191132 -0.02519852 -0.02131766
v 0.00119475 -0.02530523 -0.02131766
v 0.00167705 -0.02625701 -0.02016674
v 0.00200318 -0.02624475 -0.02014489
v 0.00200318 -0.02664337 -0.01961556
v 0.00200318 -0.02755099 -0.01836024
v 0.00062058 -0.02816671 -0.01770222
v 0.00119475 -0.02846107 -0.01710491
v 0.00200318 -0.02838380 -0.01695680
v 0.00139227 -0.02959560 -0.01414263
v 0.00108451 -0.03054616 -0.01179951
v 0.00144279 -0.03069212 -0.01109779
v 0.00098346 -0.03157399 -0.00858228
v -0.00148777 -0.03294769 -0.00179575
v 0.00062058 -0.03217498 -0.00601821
v -0.00067475 -0.03273305 -0.00390819
v 0.00129581 -0.03168928 -0.00788056
v 0.00147495 -0.03177514 -0.00707686
v -0.00148777 -0.03298571 -0.00115230
v -0.03631462 -0.03189288 0.00348294
v 0.00028986 -0.03273305 -0.00115230
v 0.00200318 -0.03221914 -0.00147281
v -0.00483633 -0.03212960 0.00348294
v 0.00200318 -0.02566092 -0.02080533
v 0.00200318 -0.02805141 -0.01755896
v 0.00200318 -0.02856288 -0.01648574
v 0.00200318 -0.03062343 -0.01053690
v 0.00174596 -0.03081967 -0.01028681
v -0.00043589 -0.03287533 -0.00179575
v 0.00006479 -0.03264474 -0.00328417
v 0.00167705 -0.03204007 -0.00496684
v -0.00034402 -0.03277966 -0.00289810
v 0.00200318 -0.03074486 -0.01015326
v 0.00200318 -0.03123792 -0.00818407
v 0.00174596 -0.03184628 -0.00602549
v 0.00200318 -0.03176042 -0.00586281
v 0.00200318 -0.03180702 -0.00564914
v -0.00043589 -0.03290476 -0.00115230
v -0.00483633 -0.03216394 0.00330083
v -0.00483633 -0.03232094 0.00242672
v 0.00024393 -0.03271956 -0.00179575
v 0.00200318 -0.03216517 -0.00252903
v 0.00014747 -0.03269257 -0.00257759
v 0.00200318 -0.03196770 -0.00465605
v 0.00200318 -0.03208544 -0.00358283
f 1 2 3
f 1 3 8
f 1 8 4
f 1 4 13
f 1 13 36
f 1 36 71
f 1 71 81
f 1 81 46
f 1 46 18
f 1 18 5
f 1 5 2
f 2 6 3
f 2 5 7
f 2 7 6
f 3 6 9
f 3 9 10
f 3 10 11
f 3 11 12
f 3 12 35
f 3 35 69
f 3 69 68
f 3 68 72
f 3 72 37
f 3 37 14
f 3 14 8
f 4 8 14
f 4 14 15
f 4 15 16
f 4 16 17
f 4 17 13
f 5 18 19
f 5 19 20
f 5 20 21
f 5 21 22
f 5 22 23
f 5 23 24
f 5 24 7
f 6 7 25
f 6 25 26
f 6 26 9
f 7 24 27
f 7 27 25
f 9 28 10
f 9 26 29
f 9 29 30
f 9 30 28
f 10 31 11
f 10 28 32
f 10 32 31
f 11 31 33
f 11 33 34
f 11 34 12
f 12 34 35
f 13 17 36
f 14 37 73
f 14 73 102
f 14 102 126
f 14 126 129
f 14 129 105
f 14 105 103
f 14 103 78
f 14 78 77
f 14 77 76
f 14 76 75
f 14 75 74
f 14 74 38
f 14 38 39
f 14 39 40
f 14 40 15
f 15 40 39
f 15 39 16
f 16 39 17
f 17 39 41
f 17 41 42
f 17 42 43
f 17 43 44
f 17 44 45
f 17 45 36
f 18 46 47
f 18 47 19
f 19 47 48
f 19 48 21
f 19 21 20
f 21 48 49
f 21 49 22
f 22 49 23
f 23 49 50
f 23 50 24
f 24 50 51
f 24 51 27
f 25 27 52
f 25 52 26
f 26 52 53
f 26 53 54
f 26 54 29
f 27 51 55
f 27 55 56
f 27 56 53
f 27 53 52
f 28 30 57
f 28 57 58
f 28 58 32
f 29 54 59
f 29 59 30
f 30 59 60
f 30 60 61
f 30 61 57
f 31 32 62
f 31 62 63
f 31 63 64
f 31 64 65
f 31 65 33
f 32 64 62
f 32 58 64
f 33 65 66
f 33 66 34
f 34 67 68
f 34 68 69
f 34 69 35
f 34 66 70
f 34 70 67
f 36 45 71
f 37 72 73
f 38 74 39
f 39 74 75
f 39 75 76
f 39 76 77
f 39 77 41
f 41 77 42
f 42 77 78
f 42 78 44
f 42 44 43
f 44 79 104
f 44 104 128
f 44 128 148
f 44 148 151
f 44 151 150
f 44 150 143
f 44 143 142
f 44 142 140
f 44 140 139
f 44 139 133
f 44 133 132
f 44 132 115
f 44 115 131
f 44 131 112
f 44 112 111
f 44 111 110
f 44 110 130
f 44 130 106
f 44 106 80
f 44 80 81
f 44 81 71
f 44 71 45
f 44 78 79
f 46 81 47
f 47 82 83
f 47 83 48
f 47 81 82
f 48 83 49
f 49 83 84
f 49 84 85
f 49 85 50
f 50 85 86
f 50 86 51
f 51 86 55
f 53 56 87
f 53 87 54
f 54 87 88
f 54 88 89
f 54 89 90
f 54 90 59
f 55 86 91
f 55 91 92
f 55 92 56
f 56 92 88
f 56 88 87
f 57 61 58
f 58 61 93
f 58 93 94
f 58 94 95
f 58 95 64
f 59 90 60
f 60 90 96
f 60 96 61
f 61 96 97
f 61 97 98
f 61 98 93
f 62 64 63
f 64 99 65
f 64 95 99
f 65 99 66
f 66 99 100
f 66 100 70
f 67 101 72
f 67 72 68
f 67 70 102
f 67 102 101
f 70 100 102
f 72 101 73
f 73 101 102
f 78 103 79
f 79 103 105
f 79 105 129
f 79 129 104
f 80 106 107
f 80 107 81
f 81 107 108
f 81 108 82
f 82 108 83
f 83 108 109
f 83 109 84
f 84 109 110
f 84 110 85
f 85 110 111
f 85 111 112
f 85 112 86
f 86 112 113
f 86 113 91
f 88 92 114
f 88 114 115
f 88 115 116
f 88 116 117
f 88 117 90
f 88 90 89
f 90 117 118
f 90 118 119
f 90 119 96
f 91 113 112
f 91 112 114
f 91 114 92
f 93 98 94
f 94 120 95
f 94 98 121
f 94 121 122
f 94 122 120
f 95 120 99
f 96 119 97
f 97 119 123
f 97 123 98
f 98 123 124
f 98 124 121
f 99 120 125
f 99 125 100
f 100 126 102
f 100 125 126
f 104 127 128
f 104 129 127
f 106 130 108
f 106 108 107
f 108 130 110
f 108 110 109
f 112 131 114
f 114 131 115
f 115 132 116
f 116 132 117
f 117 132 118
f 118 132 133
f 118 133 134
f 118 134 123
f 118 123 119
f 120 122 135
f 120 135 125
f 121 136 122
f 121 124 137
f 121 137 136
f 122 136 138
f 122 138 135
f 123 134 139
f 123 139 140
f 123 140 124
f 124 141 137
f 124 140 142
f 124 142 143
f 124 143 141
f 125 135 144
f 125 144 129
f 125 129 145
f 125 145 146
f 125 146 126
f 126 146 145
f 126 145 129
f 127 144 147
f 127 147 128
f 127 129 144
f 128 147 148
f 133 139 134
f 135 138 149
f 135 149 147
f 135 147 144
f 136 137 149
f 136 149 138
f 137 141 150
f 137 150 151
f 137 151 149
f 141 143 150
f 147 149 148
f 148 149 151

