# https://github.com/mikedh/trimesh
v -0.04557708 -0.00159063 0.01148312
v -0.04510842 -0.00047375 0.01017628
v -0.04506575 0.00057931 0.01017628
v -0.04510368 0.00796440 0.01017628
v -0.04598329 0.02943587 0.01017628
v -0.04658788 -0.00159063 0.01148312
v -0.04559842 -0.00208297 0.01148312
v -0.04504836 -0.00047831 0.00981526
v -0.04566164 -0.00320441 0.01148312
v -0.04528545 -0.00211488 0.01039264
v -0.04490927 -0.00047831 0.00876187
v -0.04403993 0.01640255 0.00031870
v -0.04416480 0.01725503 0.00102095
v -0.04409209 0.01754678 0.00040895
v -0.04393640 0.01745561 -0.00073716
v -0.04392217 0.01745561 -0.00114640
v -0.04410474 0.01841749 -0.00114640
v -0.04763583 0.02943587 -0.00114640
v -0.04760896 0.02943587 0.01017628
v -0.04761212 0.02942675 0.01017628
v -0.04773066 0.02903926 0.01017628
v -0.04880548 0.02484526 0.01017628
v -0.04785316 -0.00788619 0.01148312
v -0.04498751 -0.00153593 0.00876187
v -0.04582997 -0.00470422 0.01148312
v -0.04673646 -0.01107272 0.01148312
v -0.04525068 -0.00251605 0.00972747
v -0.04500173 -0.00159063 0.00881380
v -0.04393956 0.01640255 -0.00073716
v -0.04491401 -0.00153593 0.00770477
v -0.04392296 0.01680827 -0.00114640
v -0.04796538 -0.00998320 -0.00114764
v -0.04799937 -0.00961850 -0.00114764
v -0.04807761 -0.00893014 -0.00114764
v -0.04811633 -0.00870220 -0.00114764
v -0.04827993 -0.00787252 -0.00114764
v -0.04843483 -0.00728445 -0.00114764
v -0.04846644 -0.00717960 -0.00114764
v -0.04863003 0.02943587 -0.00114640
v -0.04857708 -0.00685593 -0.00114764
v -0.05070222 -0.00159063 -0.00114764
v -0.04773066 0.02943587 0.00978682
v -0.04783973 0.02907117 0.00981649
v -0.04847592 0.02943587 0.00631880
v -0.04953177 0.02125756 0.01017504
v -0.04794958 -0.00843324 0.01148312
v -0.04513688 -0.00259355 0.00876063
v -0.04492428 -0.00159063 0.00775794
v -0.04689294 -0.01206652 0.01148312
v -0.04528862 -0.00314515 0.00931576
v -0.04393561 0.01640255 -0.00114640
v -0.04492428 -0.00159063 0.00770601
v -0.04881338 -0.01698536 -0.00114764
v -0.04797566 -0.01104081 -0.00114764
v -0.04984394 0.01956628 0.00770477
v -0.04871301 0.02907117 0.00348504
v -0.04864821 0.02943587 0.00348504
v -0.05189558 -0.00159063 -0.00114764
v -0.05189321 -0.00155872 -0.00114640
v -0.05198251 -0.00159063 -0.00079157
v -0.05198963 -0.00153593 -0.00073716
v -0.04851148 0.02943587 0.00598622
v -0.04954995 0.02134874 0.00981649
v -0.04956734 0.02097492 0.01017504
v -0.04885685 -0.01525761 0.01148312
v -0.04710000 -0.01314693 0.01148312
v -0.04810606 -0.01209387 -0.00114764
v -0.04789031 -0.01713579 0.01148312
v -0.04884262 -0.01713579 -0.00114764
v -0.04994905 0.01851323 0.00770477
v -0.04983051 0.01956628 0.00876063
v -0.04970643 0.02062390 0.00876063
v -0.04867429 0.02907117 0.00453843
v -0.04863794 0.02943587 0.00397341
v -0.05193273 -0.00194621 -0.00114764
v -0.05199041 -0.00159063 -0.00073840
v -0.05193036 -0.00153593 0.00031993
v -0.05193509 -0.00159063 0.00026553
v -0.04857945 0.02943587 0.00511334
v -0.04964083 0.02062390 0.00981649
v -0.04974199 0.01956628 0.00981649
v -0.04965585 0.02004495 0.01017504
v -0.04896117 -0.01631523 0.01148312
v -0.04899199 -0.01713579 0.01148312
v -0.04999884 -0.01713579 -0.00114764
v -0.04990717 0.01851323 0.00876063
v -0.04861660 0.02943587 0.00453843
v -0.05193509 -0.00259355 -0.00114764
v -0.05199437 -0.00259355 -0.00073840
v -0.04968746 0.01956628 0.01017504
v -0.05164901 -0.01121860 0.00419224
v -0.05165059 -0.01209387 0.00419595
v -0.05074252 -0.01209387 0.00749335
v -0.05106339 -0.01209387 0.00665138
v -0.04964953 -0.01713579 0.00963722
v -0.04969379 0.01892351 0.01017504
v -0.05062793 -0.01713579 0.00160328
v -0.05164663 -0.01273665 0.00281616
v -0.05168852 -0.01209387 0.00348504
v -0.05166955 -0.01209387 0.00384482
v -0.05104758 -0.01104081 0.00665138
v -0.05163399 -0.01276400 0.00407603
v -0.05098594 -0.01314693 0.00665138
v -0.04994510 -0.01713579 0.00876063
v -0.05068325 -0.01713579 0.00184932
v -0.05092350 -0.01631523 0.00242918
v -0.05076939 -0.01713579 0.00242918
v -0.05080022 -0.01713579 0.00266780
v -0.05105706 -0.01631523 0.00348504
v -0.05164821 -0.01281415 0.00348504
v -0.05164031 -0.01278679 0.00384482
v -0.05103019 -0.01631523 0.00454090
v -0.05088952 -0.01631523 0.00559429
v -0.05103652 -0.01525761 0.00559429
v -0.05068720 -0.01631523 0.00654135
v -0.05058367 -0.01713579 0.00640040
v -0.05062082 -0.01708109 0.00634847
v -0.05087530 -0.01713579 0.00348504
v -0.05085317 -0.01713579 0.00454090
v -0.05072830 -0.01713579 0.00559058
v -0.05062951 -0.01713579 0.00622607
f 1 2 3
f 1 3 4
f 1 4 5
f 1 5 19
f 1 19 6
f 1 6 23
f 1 23 46
f 1 46 65
f 1 65 83
f 1 83 84
f 1 84 68
f 1 68 66
f 1 66 49
f 1 49 26
f 1 26 25
f 1 25 9
f 1 9 7
f 1 7 2
f 2 8 3
f 2 7 9
f 2 9 10
f 2 10 8
f 3 8 11
f 3 11 12
f 3 12 4
f 4 12 13
f 4 13 5
f 5 14 15
f 5 15 16
f 5 16 17
f 5 17 18
f 5 18 39
f 5 39 57
f 5 57 74
f 5 74 87
f 5 87 79
f 5 79 62
f 5 62 44
f 5 44 42
f 5 42 19
f 5 13 14
f 6 19 20
f 6 20 21
f 6 21 22
f 6 22 23
f 8 24 11
f 8 10 24
f 9 25 10
f 10 25 26
f 10 26 27
f 10 27 28
f 10 28 24
f 11 29 12
f 11 24 30
f 11 30 29
f 12 29 15
f 12 15 14
f 12 14 13
f 15 29 31
f 15 31 16
f 16 31 32
f 16 32 33
f 16 33 34
f 16 34 35
f 16 35 17
f 17 35 36
f 17 36 37
f 17 37 38
f 17 38 18
f 18 38 40
f 18 40 41
f 18 41 58
f 18 58 39
f 19 42 20
f 20 43 21
f 20 42 43
f 21 43 22
f 22 43 44
f 22 44 45
f 22 45 23
f 23 45 46
f 24 28 47
f 24 47 48
f 24 48 30
f 26 49 47
f 26 47 50
f 26 50 27
f 27 50 47
f 27 47 28
f 29 30 51
f 29 51 31
f 30 48 52
f 30 52 53
f 30 53 51
f 31 51 54
f 31 54 32
f 32 54 67
f 32 67 53
f 32 53 69
f 32 69 85
f 32 85 88
f 32 88 75
f 32 75 58
f 32 58 41
f 32 41 40
f 32 40 38
f 32 38 37
f 32 37 36
f 32 36 35
f 32 35 34
f 32 34 33
f 39 55 56
f 39 56 57
f 39 58 59
f 39 59 60
f 39 60 61
f 39 61 55
f 42 44 43
f 44 62 45
f 45 62 63
f 45 63 64
f 45 64 65
f 45 65 46
f 47 49 48
f 48 49 52
f 49 66 52
f 51 53 67
f 51 67 54
f 52 66 68
f 52 68 69
f 52 69 53
f 55 70 71
f 55 71 72
f 55 72 56
f 55 61 70
f 56 73 74
f 56 74 57
f 56 72 73
f 58 75 59
f 59 75 60
f 60 75 76
f 60 76 61
f 61 77 71
f 61 71 70
f 61 76 78
f 61 78 77
f 62 79 63
f 63 79 73
f 63 73 72
f 63 72 80
f 63 80 64
f 64 80 81
f 64 81 82
f 64 82 83
f 64 83 65
f 68 84 95
f 68 95 104
f 68 104 116
f 68 116 121
f 68 121 120
f 68 120 119
f 68 119 118
f 68 118 108
f 68 108 107
f 68 107 105
f 68 105 97
f 68 97 85
f 68 85 69
f 71 77 86
f 71 86 81
f 71 81 80
f 71 80 72
f 73 79 87
f 73 87 74
f 75 88 89
f 75 89 76
f 76 89 78
f 77 90 81
f 77 81 86
f 77 78 91
f 77 91 90
f 78 89 92
f 78 92 91
f 81 90 82
f 82 90 83
f 83 90 84
f 84 93 94
f 84 94 95
f 84 90 96
f 84 96 93
f 85 97 98
f 85 98 88
f 88 98 89
f 89 98 99
f 89 99 100
f 89 100 92
f 90 91 101
f 90 101 94
f 90 94 96
f 91 92 94
f 91 94 101
f 92 100 102
f 92 102 94
f 93 96 94
f 94 102 103
f 94 103 95
f 95 103 104
f 97 105 98
f 98 105 106
f 98 106 107
f 98 107 108
f 98 108 109
f 98 109 110
f 98 110 99
f 99 110 111
f 99 111 102
f 99 102 100
f 102 111 112
f 102 112 113
f 102 113 114
f 102 114 103
f 103 114 115
f 103 115 104
f 104 115 117
f 104 117 116
f 105 107 106
f 108 118 109
f 109 118 119
f 109 119 112
f 109 112 110
f 110 112 111
f 112 119 120
f 112 120 113
f 113 115 114
f 113 120 121
f 113 121 117
f 113 117 115
f 116 117 121

