# https://github.com/mikedh/trimesh
v -0.03104020 0.02885243 0.00899270
v -0.03063117 0.02885243 0.00907605
v -0.02787292 0.02244851 0.01806817
v -0.02892868 0.02237148 0.01795969
v -0.03737474 0.01812446 0.02250800
v -0.03842836 0.01808851 0.02250800
v -0.03170192 0.02885243 0.00899667
v -0.04360222 0.03120446 0.01063846
v -0.02998658 0.02885243 0.00920967
v -0.02172683 0.02060617 0.02187034
v -0.03170192 0.01920804 0.02250800
v -0.03919716 0.01822588 0.02250800
v -0.03838981 0.02786513 0.01063846
v -0.03860825 0.02792034 0.01063846
v -0.03949269 0.02825543 0.01063846
v -0.04360222 0.02986668 0.01063846
v -0.03397191 0.03000020 0.01063846
v -0.04360222 0.03108378 0.01088188
v -0.02365417 0.02885243 0.01400405
v -0.02319375 0.02885243 0.01393394
v -0.02319375 0.02885243 0.01207519
v -0.02172683 0.02139959 0.02096676
v -0.02172683 0.02214423 0.02187034
v -0.03170192 0.02072428 0.02250800
v -0.03948412 0.01828109 0.02250800
v -0.04053988 0.02090274 0.01956443
v -0.04136650 0.02102342 0.01969937
v -0.04207105 0.02119032 0.01988988
v -0.04336237 0.02209802 0.01970069
v -0.04360222 0.02217890 0.01979595
v -0.04360222 0.03072815 0.01150632
v -0.02470993 0.02885243 0.01403845
v -0.02259627 0.02450398 0.01947050
v -0.02172683 0.02450398 0.01943610
v -0.04265139 0.02954956 0.01346561
v -0.02172683 0.02450398 0.01760778
v -0.02172683 0.02423693 0.01975361
v -0.02263054 0.02228161 0.02187034
v -0.04360222 0.02184124 0.02250800
v -0.04040496 0.01859948 0.02250800
v -0.04045636 0.01862260 0.02250800
v -0.04360222 0.02027878 0.02250800
v -0.04360222 0.02950976 0.01341402
v -0.04265139 0.02865984 0.01472374
v -0.02365203 0.02233296 0.02187034
v -0.04265139 0.02823360 0.01525292
v -0.04360222 0.02580068 0.01823089
v -0.02338435 0.02232911 0.02187034
v -0.02291964 0.02230600 0.02187034
v -0.04360222 0.02861106 0.01465891
v -0.04360222 0.02635916 0.01754428
f 1 2 3
f 1 3 4
f 1 4 5
f 1 5 6
f 1 6 7
f 1 7 8
f 1 8 2
f 2 8 9
f 2 9 3
f 3 9 10
f 3 10 4
f 4 10 5
f 5 10 11
f 5 11 24
f 5 24 39
f 5 39 42
f 5 42 41
f 5 41 40
f 5 40 25
f 5 25 12
f 5 12 6
f 6 12 13
f 6 13 7
f 7 13 14
f 7 14 15
f 7 15 16
f 7 16 8
f 8 17 9
f 8 16 30
f 8 30 42
f 8 42 39
f 8 39 47
f 8 47 51
f 8 51 50
f 8 50 43
f 8 43 31
f 8 31 18
f 8 18 19
f 8 19 20
f 8 20 21
f 8 21 17
f 9 17 21
f 9 21 22
f 9 22 10
f 10 22 36
f 10 36 34
f 10 34 37
f 10 37 23
f 10 23 24
f 10 24 11
f 12 25 26
f 12 26 13
f 13 26 14
f 14 26 27
f 14 27 15
f 15 27 16
f 16 27 28
f 16 28 29
f 16 29 30
f 18 31 19
f 19 32 33
f 19 33 34
f 19 34 20
f 19 31 35
f 19 35 32
f 20 34 36
f 20 36 21
f 21 36 22
f 23 37 38
f 23 38 24
f 24 38 39
f 25 40 27
f 25 27 26
f 27 40 28
f 28 40 41
f 28 41 42
f 28 42 29
f 29 42 30
f 31 43 35
f 32 35 44
f 32 44 33
f 33 45 37
f 33 37 34
f 33 44 46
f 33 46 47
f 33 47 45
f 35 43 44
f 37 45 48
f 37 48 49
f 37 49 38
f 38 49 39
f 39 49 48
f 39 48 45
f 39 45 47
f 43 50 44
f 44 50 51
f 44 51 46
f 46 51 47

