# https://github.com/mikedh/trimesh
v 0.05060755 -0.03065846 0.00173150
v 0.05077303 -0.03057026 0.00188843
v 0.05060755 -0.03065846 0.00174357
v 0.05060755 -0.03063855 0.00128484
v 0.05077303 -0.03057026 0.00190956
v 0.05075202 -0.03055034 0.00118525
v 0.05107492 -0.02994430 -0.00114764
v 0.05104441 -0.03013493 0.00147196
v 0.05060755 -0.03064993 0.00206348
v 0.05060755 -0.03051335 -0.00114764
v 0.05104441 -0.03012640 0.00232906
v 0.05073216 -0.03053612 0.00261275
v 0.05060755 -0.03059587 0.00279986
v 0.05066568 -0.03047068 -0.00114764
v 0.05127925 -0.02963132 -0.00114764
v 0.05163985 -0.02914762 0.00137538
v 0.05160273 -0.02912201 -0.00114764
v 0.05060755 -0.02846190 -0.00114764
v 0.05163957 -0.02911347 0.00242865
v 0.05104470 -0.02995284 0.00348494
v 0.05068151 -0.03047921 0.00348494
v 0.05060755 -0.03052758 0.00348494
v 0.05189944 -0.02861840 0.00137538
v 0.05178634 -0.02880049 -0.00114764
v 0.05189944 -0.02859563 -0.00114764
v 0.05225515 -0.01948504 -0.00114764
v 0.05060755 -0.00159675 0.02835901
v 0.05177080 -0.00159675 0.02038253
v 0.05188160 -0.02858710 0.00242865
v 0.05185253 -0.02851881 0.00304130
v 0.05201657 -0.02667507 0.00876336
v 0.05194779 -0.02652427 0.00981965
v 0.05060755 -0.03038816 0.00391651
v 0.05060755 -0.03050482 0.00359660
v 0.05186231 -0.02639054 0.01042928
v 0.05150459 -0.02705065 0.00981965
v 0.05209974 -0.02792984 0.00137538
v 0.05199671 -0.02833387 -0.00114764
v 0.05213946 -0.02792984 -0.00114764
v 0.05245200 -0.01875665 -0.00114764
v 0.05060755 -0.00159675 0.02965673
v 0.05226349 -0.00159675 0.02015316
v 0.05258524 -0.01836115 -0.00114764
v 0.05281231 -0.02412001 0.01087594
v 0.05279677 -0.02400050 0.01192920
v 0.05229515 -0.02581864 0.00981965
v 0.05290757 -0.02322943 0.01361927
v 0.05209744 -0.02584140 0.01081859
v 0.05180735 -0.02421959 0.01558094
v 0.05097678 -0.02759410 0.00981965
v 0.05060755 -0.02787293 0.00984077
v 0.05295736 -0.02461509 0.00137538
v 0.05237948 -0.02687424 -0.00114764
v 0.05060755 -0.00212597 0.02967182
v 0.05101448 -0.00159675 0.02952696
v 0.05235588 -0.00159675 0.02014411
v 0.05275188 -0.01778072 -0.00048369
v 0.05314154 -0.01836115 -0.00114764
v 0.05294268 -0.02359078 0.01087594
v 0.05293146 -0.02347413 0.01192920
v 0.05292282 -0.02331195 0.01298549
v 0.05298844 -0.02267460 0.01399953
v 0.05311277 -0.02159624 0.01509505
v 0.05325206 -0.01948504 0.01826090
v 0.05295016 -0.02229333 0.01509505
v 0.05288944 -0.02213684 0.01564432
v 0.05257719 -0.02255510 0.01605778
v 0.05206204 -0.02354810 0.01615134
v 0.05110370 -0.02439600 0.01590990
v 0.05060755 -0.02769937 0.01020897
v 0.05081821 -0.02744045 0.01040815
v 0.05193973 -0.02333471 0.01691790
v 0.05165827 -0.02309570 0.01762109
v 0.05139350 -0.02406879 0.01621773
v 0.05292599 -0.02455818 0.00031909
v 0.05306068 -0.02370744 0.00137538
v 0.05333724 -0.01948504 0.01720461
v 0.05323047 -0.02054064 0.01615134
v 0.05290872 -0.02345990 -0.00114764
v 0.05289836 -0.02438746 -0.00036297
v 0.05060755 -0.00259829 0.02968389
v 0.05105852 -0.00259829 0.02953299
v 0.05105564 -0.00159675 0.02951187
v 0.05288973 -0.00159675 0.02047910
v 0.05304370 -0.01778072 -0.00048369
v 0.05317522 -0.01836115 -0.00079454
v 0.05328515 -0.01948504 -0.00114764
v 0.05333120 -0.00159675 0.02459560
v 0.05340976 -0.01842944 0.01826090
v 0.05331882 -0.01842944 0.01931718
v 0.05303218 -0.01945090 0.01924777
v 0.05299419 -0.02025896 0.01826090
v 0.05295045 -0.02121782 0.01691488
v 0.05308744 -0.02060324 0.01724082
v 0.05299794 -0.02157917 0.01605778
v 0.05061848 -0.02417122 0.01661309
v 0.05060755 -0.02417406 0.01661611
v 0.05060755 -0.02418260 0.01660102
v 0.05290613 -0.02005979 0.01885242
v 0.05256481 -0.02046382 0.01924777
v 0.05196247 -0.02233601 0.01826090
v 0.05184303 -0.02213969 0.01881016
v 0.05095434 -0.02324366 0.01781424
v 0.05301664 -0.02370744 0.00031909
v 0.05330443 -0.01948504 -0.00073720
v 0.05060755 -0.00365389 0.02959939
v 0.05097247 -0.00365389 0.02948471
v 0.05158632 -0.00259829 0.02912859
v 0.05158345 -0.00159675 0.02916179
v 0.05155697 -0.00159675 0.02917990
v 0.05354762 -0.01315429 0.01087594
v 0.05337178 -0.00159675 0.02565189
v 0.05346847 -0.01631824 0.01931718
v 0.05343682 -0.01737384 0.01931718
v 0.05335134 -0.01737384 0.02037347
v 0.05353323 -0.01420989 0.00981965
v 0.05310499 -0.01741936 0.02145994
v 0.05307506 -0.01843513 0.02035536
v 0.05297002 -0.01808801 0.02113098
v 0.05293952 -0.01907816 0.01999321
v 0.05060755 -0.02357371 0.01748226
v 0.05200822 -0.02154218 0.01922363
v 0.05260856 -0.01945090 0.02035536
v 0.05207672 -0.02050934 0.02032820
v 0.05190376 -0.02115237 0.01994492
v 0.05085361 -0.02006832 0.02201826
v 0.05060755 -0.02013945 0.02209975
v 0.05060755 -0.02041545 0.02175570
v 0.05060755 -0.02096743 0.02105553
v 0.05060755 -0.02106986 0.02091972
v 0.05060755 -0.02329487 0.01788063
v 0.05060755 -0.00459852 0.02944246
v 0.05085994 -0.00445341 0.02940322
v 0.05150027 -0.00365389 0.02904710
v 0.05205312 -0.00365389 0.02851896
v 0.05212564 -0.00259829 0.02860045
v 0.05214003 -0.00159675 0.02866080
v 0.05349150 -0.01526549 0.02037347
v 0.05336228 -0.00159675 0.02570320
v 0.05313090 -0.00259829 0.02670818
v 0.05340430 -0.01526549 0.02142976
v 0.05344085 -0.01420989 0.02142976
v 0.05345351 -0.01631824 0.02037347
v 0.05334443 -0.01631824 0.02142976
v 0.05299391 -0.01709500 0.02216916
v 0.05281260 -0.01780063 0.02183417
v 0.05211787 -0.01947366 0.02140562
v 0.05192822 -0.02013376 0.02104044
v 0.05155726 -0.01981509 0.02174363
v 0.05122428 -0.01942813 0.02242569
v 0.05089102 -0.01903833 0.02309568
v 0.05060755 -0.01935416 0.02294478
v 0.05060755 -0.00523302 0.02932475
v 0.05070137 -0.00515904 0.02931269
v 0.05087347 -0.00867581 0.02837410
v 0.05100729 -0.00787629 0.02847671
v 0.05168532 -0.00682069 0.02815077
v 0.05186634 -0.00539520 0.02832581
v 0.05194951 -0.00470949 0.02840729
v 0.05265345 -0.00259829 0.02787613
v 0.05269518 -0.00159675 0.02791838
v 0.05216737 -0.00159675 0.02863364
v 0.05316687 -0.00159675 0.02670818
v 0.05293347 -0.00259829 0.02734799
v 0.05290412 -0.00327831 0.02727857
v 0.05316975 -0.01526549 0.02248303
v 0.05305060 -0.01628410 0.02250717
v 0.05291793 -0.01591137 0.02308059
v 0.05279620 -0.01661415 0.02287235
v 0.05265949 -0.01741936 0.02250717
v 0.05215327 -0.01842944 0.02248303
v 0.05195297 -0.01911231 0.02212691
v 0.05159496 -0.01877941 0.02283311
v 0.05085332 -0.01797704 0.02413688
v 0.05060755 -0.01827010 0.02400710
v 0.05060755 -0.01912369 0.02318018
v 0.05060755 -0.00539520 0.02928552
v 0.05060755 -0.00947249 0.02828054
v 0.05153510 -0.00787629 0.02799383
v 0.05060755 -0.01288398 0.02734195
v 0.05080670 -0.01274172 0.02726952
v 0.05199873 -0.00787629 0.02746569
v 0.05210607 -0.00682069 0.02762263
v 0.05260280 -0.00363966 0.02768298
v 0.05294843 -0.00159675 0.02739024
v 0.05295534 -0.01526549 0.02317414
v 0.05193023 -0.01420989 0.02528068
v 0.05185310 -0.01479032 0.02515694
v 0.05199556 -0.01611907 0.02425759
v 0.05212881 -0.01737384 0.02336729
v 0.05196477 -0.01807663 0.02315000
v 0.05077332 -0.01684746 0.02512375
v 0.05060755 -0.01586015 0.02605026
v 0.05060755 -0.01690721 0.02518109
v 0.05060755 -0.01805671 0.02420930
v 0.05060755 -0.01340183 0.02719106
v 0.05065762 -0.01344451 0.02714880
v 0.05101822 -0.01420989 0.02647278
v 0.05154603 -0.01420989 0.02580581
v 0.05087605 -0.01498096 0.02630377
v 0.05071144 -0.01568659 0.02611666
v 0.05060755 -0.01573496 0.02615287
v 0.05060755 -0.01348434 0.02716389
v 0.05060755 -0.01355832 0.02713371
v 0.05060755 -0.01558700 0.02623436
f 1 2 5
f 1 5 3
f 1 3 9
f 1 9 13
f 1 13 22
f 1 22 34
f 1 34 33
f 1 33 51
f 1 51 70
f 1 70 98
f 1 98 97
f 1 97 121
f 1 121 131
f 1 131 130
f 1 130 129
f 1 129 128
f 1 128 127
f 1 127 152
f 1 152 176
f 1 176 175
f 1 175 195
f 1 195 194
f 1 194 193
f 1 193 202
f 1 202 205
f 1 205 204
f 1 204 203
f 1 203 196
f 1 196 180
f 1 180 178
f 1 178 177
f 1 177 153
f 1 153 132
f 1 132 106
f 1 106 81
f 1 81 54
f 1 54 41
f 1 41 27
f 1 27 18
f 1 18 10
f 1 10 4
f 1 4 2
f 2 4 6
f 2 6 7
f 2 7 8
f 2 8 5
f 3 5 9
f 4 10 6
f 5 8 11
f 5 11 12
f 5 12 13
f 5 13 9
f 6 10 14
f 6 14 7
f 7 14 10
f 7 10 18
f 7 18 26
f 7 26 40
f 7 40 43
f 7 43 58
f 7 58 87
f 7 87 79
f 7 79 53
f 7 53 39
f 7 39 38
f 7 38 25
f 7 25 24
f 7 24 17
f 7 17 15
f 7 15 8
f 8 16 11
f 8 15 17
f 8 17 16
f 11 16 19
f 11 19 20
f 11 20 21
f 11 21 12
f 12 21 22
f 12 22 13
f 16 23 19
f 16 17 24
f 16 24 25
f 16 25 23
f 18 27 28
f 18 28 26
f 19 23 29
f 19 29 30
f 19 30 31
f 19 31 32
f 19 32 20
f 20 32 21
f 21 33 34
f 21 34 22
f 21 32 35
f 21 35 36
f 21 36 33
f 23 37 29
f 23 25 38
f 23 38 39
f 23 39 37
f 26 28 40
f 27 41 55
f 27 55 83
f 27 83 110
f 27 110 109
f 27 109 137
f 27 137 162
f 27 162 161
f 27 161 185
f 27 185 163
f 27 163 139
f 27 139 112
f 27 112 88
f 27 88 84
f 27 84 56
f 27 56 42
f 27 42 28
f 28 42 43
f 28 43 40
f 29 37 44
f 29 44 45
f 29 45 46
f 29 46 30
f 30 46 31
f 31 46 32
f 32 46 47
f 32 47 48
f 32 48 49
f 32 49 35
f 33 36 50
f 33 50 51
f 35 49 36
f 36 49 50
f 37 52 44
f 37 39 52
f 39 53 52
f 41 54 55
f 42 56 57
f 42 57 43
f 43 57 85
f 43 85 58
f 44 59 60
f 44 60 45
f 44 52 59
f 45 60 61
f 45 61 47
f 45 47 46
f 47 61 62
f 47 62 63
f 47 63 64
f 47 64 65
f 47 65 66
f 47 66 67
f 47 67 68
f 47 68 48
f 48 68 49
f 49 69 70
f 49 70 71
f 49 71 50
f 49 68 72
f 49 72 73
f 49 73 74
f 49 74 69
f 50 71 70
f 50 70 51
f 52 53 75
f 52 75 76
f 52 76 77
f 52 77 78
f 52 78 59
f 53 79 80
f 53 80 75
f 54 81 55
f 55 82 83
f 55 81 82
f 56 84 85
f 56 85 57
f 58 86 87
f 58 85 84
f 58 84 88
f 58 88 86
f 59 63 60
f 59 78 63
f 60 63 62
f 60 62 61
f 63 78 64
f 64 89 90
f 64 90 91
f 64 91 92
f 64 92 93
f 64 93 94
f 64 94 95
f 64 95 65
f 64 78 77
f 64 77 89
f 65 95 93
f 65 93 66
f 66 93 67
f 67 93 92
f 67 92 72
f 67 72 68
f 69 74 73
f 69 73 96
f 69 96 97
f 69 97 98
f 69 98 70
f 72 92 99
f 72 99 100
f 72 100 101
f 72 101 102
f 72 102 73
f 73 103 97
f 73 97 96
f 73 102 103
f 75 80 104
f 75 104 76
f 76 104 105
f 76 105 89
f 76 89 77
f 79 87 80
f 80 87 104
f 81 106 107
f 81 107 82
f 82 107 108
f 82 108 109
f 82 109 110
f 82 110 83
f 86 88 87
f 87 111 105
f 87 105 104
f 87 88 111
f 88 112 111
f 89 113 114
f 89 114 115
f 89 115 90
f 89 105 116
f 89 116 113
f 90 115 117
f 90 117 118
f 90 118 91
f 91 99 92
f 91 118 119
f 91 119 120
f 91 120 99
f 93 95 94
f 97 103 121
f 99 120 100
f 100 122 101
f 100 120 119
f 100 119 123
f 100 123 124
f 100 124 125
f 100 125 122
f 101 122 102
f 102 122 125
f 102 125 126
f 102 126 127
f 102 127 128
f 102 128 129
f 102 129 130
f 102 130 103
f 103 131 121
f 103 130 131
f 105 111 116
f 106 132 133
f 106 133 107
f 107 133 134
f 107 134 108
f 108 134 135
f 108 135 136
f 108 136 137
f 108 137 109
f 111 112 138
f 111 138 116
f 112 139 140
f 112 140 141
f 112 141 142
f 112 142 138
f 113 138 114
f 113 116 138
f 114 138 143
f 114 143 115
f 115 143 144
f 115 144 117
f 117 145 119
f 117 119 118
f 117 144 145
f 119 145 146
f 119 146 123
f 123 146 124
f 124 146 147
f 124 147 148
f 124 148 125
f 125 148 149
f 125 149 126
f 126 149 150
f 126 150 151
f 126 151 152
f 126 152 127
f 132 153 133
f 133 153 154
f 133 154 155
f 133 155 156
f 133 156 157
f 133 157 134
f 134 158 159
f 134 159 135
f 134 157 158
f 135 159 160
f 135 160 136
f 136 160 161
f 136 161 162
f 136 162 137
f 138 142 141
f 138 141 143
f 139 163 140
f 140 163 164
f 140 164 165
f 140 165 166
f 140 166 144
f 140 144 141
f 141 144 143
f 144 166 167
f 144 167 145
f 145 167 168
f 145 168 169
f 145 169 170
f 145 170 146
f 146 170 171
f 146 171 147
f 147 171 172
f 147 172 148
f 148 172 173
f 148 173 149
f 149 173 150
f 150 173 151
f 151 173 174
f 151 174 175
f 151 175 176
f 151 176 152
f 153 177 154
f 154 177 178
f 154 178 155
f 155 179 156
f 155 178 180
f 155 180 181
f 155 181 179
f 156 179 157
f 157 179 182
f 157 182 158
f 158 182 183
f 158 183 159
f 159 183 160
f 160 183 184
f 160 184 165
f 160 165 164
f 160 164 161
f 161 164 185
f 163 185 164
f 165 184 183
f 165 183 168
f 165 168 186
f 165 186 166
f 166 186 168
f 166 168 167
f 168 187 188
f 168 188 189
f 168 189 169
f 168 183 182
f 168 182 187
f 169 189 190
f 169 190 191
f 169 191 170
f 170 191 171
f 171 191 172
f 172 191 173
f 173 191 174
f 174 192 193
f 174 193 194
f 174 194 195
f 174 195 175
f 174 191 192
f 179 181 182
f 180 196 181
f 181 196 197
f 181 197 198
f 181 198 199
f 181 199 182
f 182 199 187
f 187 199 188
f 188 199 198
f 188 198 200
f 188 200 189
f 189 200 201
f 189 201 190
f 190 201 191
f 191 201 192
f 192 201 202
f 192 202 193
f 196 203 197
f 197 203 204
f 197 204 205
f 197 205 201
f 197 201 200
f 197 200 198
f 201 205 202

