# https://github.com/mikedh/trimesh
v -0.04491472 -0.03093504 0.00348642
v -0.04491472 -0.02987426 0.00348642
v -0.04476167 -0.03096718 0.00348642
v -0.04491472 -0.03080875 0.00454212
v -0.04492257 -0.02008852 0.02441998
v -0.04492257 -0.01825398 0.02441998
v -0.04492257 -0.01818739 0.02444643
v -0.04492257 -0.01181357 0.02803676
v -0.04492257 -0.01180209 0.02804878
v -0.03922422 -0.00948079 0.02804878
v -0.03842363 -0.00917082 0.02804878
v -0.03834906 -0.00914556 0.02804878
v -0.03753670 -0.00889070 0.02804878
v -0.03736009 -0.00883560 0.02804878
v -0.03659482 -0.00870932 0.02804878
v -0.03631618 -0.00867717 0.02804878
v -0.02365580 -0.02887319 0.00348642
v -0.04476167 -0.03084090 0.00454212
v -0.03736794 -0.03180523 0.00348642
v -0.04491472 -0.03065262 0.00555212
v -0.04492257 -0.01975559 0.02473501
v -0.04491472 -0.03060670 0.00577577
v -0.04491472 -0.03041383 0.00636253
v -0.04491472 -0.02645086 0.01732590
v -0.04491472 -0.02613860 0.01800404
v -0.04491472 -0.02600083 0.01825414
v -0.04491472 -0.02550259 0.01903088
v -0.04491472 -0.02513063 0.01943488
v -0.04491472 -0.02448774 0.02007696
v -0.04491472 -0.02023087 0.02428772
v -0.04492257 -0.01454357 0.02804878
v -0.02260011 -0.02886170 0.00348642
v -0.00888012 -0.00881723 0.02804878
v -0.04477344 -0.03066640 0.00562908
v -0.03727768 -0.03168584 0.00450605
v -0.04370598 -0.03080186 0.00559782
v -0.03631226 -0.03189249 0.00348642
v -0.04492257 -0.01966834 0.02481436
v -0.04476167 -0.02012296 0.02441998
v -0.04476167 -0.01968441 0.02482879
v -0.04443201 -0.03059981 0.00621103
v -0.04478129 -0.02655647 0.01720085
v -0.04323504 -0.02953674 0.01040496
v -0.04444771 -0.02643479 0.01790545
v -0.04478129 -0.02607201 0.01825895
v -0.04476167 -0.02553703 0.01906936
v -0.04476167 -0.02504797 0.01959600
v -0.04476167 -0.02024694 0.02429974
v -0.04492257 -0.01600844 0.02735140
v -0.04487156 -0.01456653 0.02804878
v -0.01309894 -0.02896044 0.00348642
v -0.00823650 -0.00893433 0.02804878
v -0.01098756 -0.02904998 0.00348642
v -0.01204325 -0.02897421 0.00348642
v -0.04370598 -0.03065033 0.00645151
v -0.03686168 -0.03162844 0.00508079
v -0.03639074 -0.03172258 0.00460705
v -0.00483397 -0.03212898 0.00348642
v -0.04492257 -0.01914025 0.02528329
v -0.04369814 -0.02512374 0.01968258
v -0.04369814 -0.02012525 0.02441998
v -0.04370598 -0.01967752 0.02482879
v -0.04476167 -0.01915632 0.02529772
v -0.04265030 -0.02979849 0.00981819
v -0.04265030 -0.02955970 0.01046267
v -0.04264637 -0.02749326 0.01588303
v -0.04340772 -0.02745193 0.01578203
v -0.04369814 -0.02683659 0.01720806
v -0.04369814 -0.02650137 0.01800645
v -0.04369814 -0.02615467 0.01853550
v -0.04369814 -0.02562658 0.01915593
v -0.04492257 -0.01753302 0.02644480
v -0.04476167 -0.01655949 0.02705561
v -0.04476167 -0.01603140 0.02736583
v -0.04476167 -0.01461245 0.02804878
v -0.00782051 -0.00902158 0.02804878
v -0.00986516 -0.02927729 0.00348642
v -0.04265030 -0.03055159 0.00716813
v -0.04265030 -0.03009927 0.00876490
v -0.00483397 -0.03184656 0.00441707
v -0.00483397 -0.03179835 0.00456617
v -0.03679497 -0.03162844 0.00508079
v -0.04159461 -0.02983752 0.00981819
v -0.00483397 -0.03098096 0.00348642
v -0.00483005 -0.01897723 0.02441998
v -0.04492257 -0.01855705 0.02573299
v -0.00483397 -0.02081177 0.02274626
v -0.00483397 -0.02028598 0.02328733
v -0.00483397 -0.01972574 0.02381638
v -0.04370598 -0.01915173 0.02529051
v -0.04391006 -0.01795779 0.02621394
v -0.04476167 -0.01846980 0.02582677
v -0.04264637 -0.02650826 0.01799683
v -0.04159461 -0.02957578 0.01049874
v -0.00483397 -0.03135062 0.00553529
v -0.04264637 -0.02612941 0.01852347
v -0.00483397 -0.02333742 0.02002646
v -0.00483397 -0.02287592 0.02054589
v -0.00483397 -0.02131461 0.02221721
v -0.04492257 -0.01793253 0.02619951
v -0.04476167 -0.01794631 0.02620432
v -0.04370598 -0.01602911 0.02737064
v -0.04392575 -0.01467903 0.02804878
v -0.04370598 -0.01469051 0.02804878
v -0.00677267 -0.00970580 0.02804878
v -0.00971211 -0.02932551 0.00348642
v -0.00483005 -0.01098929 0.02804878
v -0.00483005 -0.01576506 0.02510534
v -0.00483005 -0.01691997 0.02441998
v -0.00483005 -0.01848128 0.02478551
v -0.00483397 -0.01897953 0.02441998
v -0.00483397 -0.01919765 0.02425646
v -0.00483397 -0.02390684 0.01932186
v -0.00483397 -0.02401246 0.01918238
v -0.00483397 -0.02445100 0.01844893
v -0.00483397 -0.03084090 0.00656453
v -0.00483005 -0.01795549 0.02515824
v -0.02575932 -0.01461934 0.02804878
v -0.01415070 -0.02649678 0.01589987
v -0.01415070 -0.02617992 0.01642651
v -0.00483005 -0.01351035 0.02804878
v -0.00993188 -0.02638427 0.01568103
v -0.00930396 -0.02635902 0.01564736
f 1 2 17
f 1 17 32
f 1 32 51
f 1 51 54
f 1 54 53
f 1 53 77
f 1 77 106
f 1 106 84
f 1 84 58
f 1 58 37
f 1 37 19
f 1 19 3
f 1 3 18
f 1 18 4
f 1 4 5
f 1 5 6
f 1 6 2
f 2 6 7
f 2 7 8
f 2 8 9
f 2 9 10
f 2 10 11
f 2 11 12
f 2 12 13
f 2 13 14
f 2 14 15
f 2 15 16
f 2 16 17
f 3 19 18
f 4 18 20
f 4 20 5
f 5 21 38
f 5 38 59
f 5 59 86
f 5 86 100
f 5 100 72
f 5 72 49
f 5 49 31
f 5 31 9
f 5 9 8
f 5 8 7
f 5 7 6
f 5 20 22
f 5 22 23
f 5 23 24
f 5 24 25
f 5 25 26
f 5 26 27
f 5 27 28
f 5 28 29
f 5 29 30
f 5 30 21
f 9 31 50
f 9 50 75
f 9 75 103
f 9 103 104
f 9 104 118
f 9 118 121
f 9 121 107
f 9 107 105
f 9 105 76
f 9 76 52
f 9 52 33
f 9 33 16
f 9 16 15
f 9 15 14
f 9 14 13
f 9 13 12
f 9 12 11
f 9 11 10
f 16 32 17
f 16 33 32
f 18 34 20
f 18 19 35
f 18 35 36
f 18 36 34
f 19 37 35
f 20 34 22
f 21 30 39
f 21 39 40
f 21 40 38
f 22 34 41
f 22 41 23
f 23 42 24
f 23 41 43
f 23 43 44
f 23 44 42
f 24 42 44
f 24 44 25
f 25 44 45
f 25 45 26
f 26 45 27
f 27 45 46
f 27 46 28
f 28 46 47
f 28 47 29
f 29 47 30
f 30 47 48
f 30 48 39
f 31 49 50
f 32 33 51
f 33 52 53
f 33 53 54
f 33 54 51
f 34 36 55
f 34 55 41
f 35 37 56
f 35 56 55
f 35 55 36
f 37 57 56
f 37 58 57
f 38 40 63
f 38 63 59
f 39 48 60
f 39 60 61
f 39 61 40
f 40 61 62
f 40 62 63
f 41 55 43
f 43 64 65
f 43 65 66
f 43 66 67
f 43 67 44
f 43 55 64
f 44 67 68
f 44 68 69
f 44 69 70
f 44 70 46
f 44 46 45
f 46 70 71
f 46 71 47
f 47 71 60
f 47 60 48
f 49 72 73
f 49 73 74
f 49 74 75
f 49 75 50
f 52 76 77
f 52 77 53
f 55 56 78
f 55 78 79
f 55 79 64
f 56 57 58
f 56 58 80
f 56 80 81
f 56 81 82
f 56 82 83
f 56 83 64
f 56 64 79
f 56 79 78
f 58 84 109
f 58 109 85
f 58 85 80
f 59 63 86
f 60 71 87
f 60 87 88
f 60 88 61
f 61 88 89
f 61 89 62
f 62 90 63
f 62 89 90
f 63 90 91
f 63 91 92
f 63 92 86
f 64 83 65
f 65 83 66
f 66 93 69
f 66 69 68
f 66 68 67
f 66 83 94
f 66 94 81
f 66 81 95
f 66 95 93
f 69 93 70
f 70 93 96
f 70 96 71
f 71 96 97
f 71 97 98
f 71 98 99
f 71 99 87
f 72 100 101
f 72 101 73
f 73 91 102
f 73 102 74
f 73 101 91
f 74 103 75
f 74 102 104
f 74 104 103
f 76 105 84
f 76 84 106
f 76 106 77
f 80 85 81
f 81 85 95
f 81 94 83
f 81 83 82
f 84 105 107
f 84 107 108
f 84 108 109
f 85 109 108
f 85 108 107
f 85 107 121
f 85 121 117
f 85 117 110
f 85 110 111
f 85 111 112
f 85 112 89
f 85 89 88
f 85 88 87
f 85 87 99
f 85 99 98
f 85 98 97
f 85 97 113
f 85 113 114
f 85 114 115
f 85 115 116
f 85 116 95
f 86 92 100
f 89 112 90
f 90 112 91
f 91 101 92
f 91 112 111
f 91 111 110
f 91 110 117
f 91 117 118
f 91 118 102
f 92 101 100
f 93 95 116
f 93 116 119
f 93 119 120
f 93 120 114
f 93 114 96
f 96 114 113
f 96 113 97
f 102 118 104
f 114 120 119
f 114 119 115
f 115 119 122
f 115 122 123
f 115 123 116
f 116 123 122
f 116 122 119
f 117 121 118

