# https://github.com/mikedh/trimesh
v -0.04447446 0.01433209 -0.00114764
v -0.04395910 -0.00782567 -0.01146091
v -0.04388503 -0.00663530 -0.01146091
v -0.04418447 0.01433209 -0.00588835
v -0.04560921 0.01433209 -0.00114764
v -0.04810564 -0.01209663 -0.00114764
v -0.04770848 -0.01209663 -0.00170086
v -0.04733890 -0.01209663 -0.00222783
v -0.04719312 -0.01310579 -0.00278609
v -0.04704891 -0.01209663 -0.00285070
v -0.04723410 -0.01420555 -0.00304554
v -0.04681724 -0.01315265 -0.00390666
v -0.04408518 -0.00852552 -0.01146091
v -0.04694489 -0.01420555 -0.00390666
v -0.04393388 -0.00365156 -0.01146091
v -0.04408833 0.01217943 -0.00922583
v -0.04418526 0.01433209 -0.00605896
v -0.04572032 0.01433209 -0.00281739
v -0.05164305 0.00007889 -0.00114764
v -0.04888578 -0.01758608 -0.00114764
v -0.04738776 -0.01272462 -0.00229950
v -0.04732472 -0.01493352 -0.00321817
v -0.04419156 -0.00892856 -0.01146091
v -0.04697484 -0.01526158 -0.00496262
v -0.04721597 -0.01527407 -0.00390767
v -0.04418290 0.00042257 -0.01146091
v -0.04418999 0.01301050 -0.00922583
v -0.04421599 0.01433209 -0.00684134
v -0.04572110 0.01433209 -0.00284868
v -0.05164305 0.00007889 -0.00131118
v -0.05189206 -0.00156451 -0.00114764
v -0.04576996 0.01432897 -0.00922583
v -0.05002289 -0.01758608 -0.00114764
v -0.04822857 -0.01758608 -0.00387234
v -0.04734205 -0.01591144 -0.00426100
v -0.04541851 -0.01302768 -0.01146091
v -0.04727271 -0.01604578 -0.00496262
v -0.04560133 0.00042257 -0.01146091
v -0.04465571 0.01433209 -0.00922583
v -0.04458006 0.01432584 -0.00922583
v -0.04456351 0.01429148 -0.00922583
v -0.04456981 0.01433209 -0.00918444
v -0.04575814 0.01433209 -0.00918242
v -0.05164541 -0.00198629 -0.00235705
v -0.05174470 -0.00160200 -0.00177354
v -0.05193146 -0.00194880 -0.00114764
v -0.04571638 0.01433209 -0.00922583
v -0.04895040 -0.01758608 -0.01146091
v -0.04932470 -0.01758608 -0.00793566
v -0.05193540 -0.00259554 -0.00114764
v -0.04806230 -0.01758608 -0.00475163
v -0.04585743 -0.01410245 -0.01146091
v -0.04722385 -0.01615514 -0.00601757
v -0.04802842 -0.01758608 -0.00496262
v -0.05184084 -0.00259554 -0.00179575
v -0.04774473 -0.01758608 -0.01146091
v -0.04797326 -0.01758608 -0.00579750
f 1 2 3
f 1 3 4
f 1 4 17
f 1 17 28
f 1 28 42
f 1 42 39
f 1 39 47
f 1 47 43
f 1 43 29
f 1 29 18
f 1 18 5
f 1 5 19
f 1 19 31
f 1 31 46
f 1 46 50
f 1 50 33
f 1 33 20
f 1 20 6
f 1 6 7
f 1 7 8
f 1 8 9
f 1 9 10
f 1 10 11
f 1 11 12
f 1 12 2
f 2 13 23
f 2 23 36
f 2 36 52
f 2 52 56
f 2 56 48
f 2 48 38
f 2 38 26
f 2 26 15
f 2 15 3
f 2 12 14
f 2 14 13
f 3 15 16
f 3 16 4
f 4 16 17
f 5 18 19
f 6 20 7
f 7 20 8
f 8 20 21
f 8 21 9
f 9 21 11
f 9 11 10
f 11 22 14
f 11 14 12
f 11 21 20
f 11 20 22
f 13 14 24
f 13 24 23
f 14 22 25
f 14 25 24
f 15 26 16
f 16 26 27
f 16 27 28
f 16 28 17
f 18 29 19
f 19 30 31
f 19 29 32
f 19 32 30
f 20 33 49
f 20 49 48
f 20 48 56
f 20 56 57
f 20 57 54
f 20 54 51
f 20 51 34
f 20 34 35
f 20 35 25
f 20 25 22
f 23 24 36
f 24 25 35
f 24 35 37
f 24 37 36
f 26 38 47
f 26 47 39
f 26 39 40
f 26 40 41
f 26 41 27
f 27 41 28
f 28 41 42
f 29 43 32
f 30 44 45
f 30 45 31
f 30 32 44
f 31 45 44
f 31 44 46
f 32 43 47
f 32 47 38
f 32 38 48
f 32 48 44
f 33 50 49
f 34 51 37
f 34 37 35
f 36 37 52
f 37 53 52
f 37 51 54
f 37 54 53
f 39 42 40
f 40 42 41
f 44 55 46
f 44 48 55
f 46 55 50
f 48 49 50
f 48 50 55
f 52 53 57
f 52 57 56
f 53 54 57

