# https://github.com/mikedh/trimesh
v 0.05390938 0.00042328 -0.00534250
v 0.05398557 0.00042328 -0.00535234
v 0.05335248 0.00042328 -0.00535094
v 0.05341142 -0.00048603 -0.00537062
v 0.05339308 -0.00144410 -0.00542546
v 0.05403403 0.00042328 -0.00593728
v 0.05394518 -0.01270714 -0.00654049
v 0.05404298 -0.01309582 -0.00699747
v 0.05422309 -0.01420735 -0.00812937
v 0.05326537 0.00042328 -0.00535797
v 0.05284273 -0.00154162 -0.00541140
v 0.05302895 -0.00210384 -0.00545217
v 0.05403971 0.00042328 -0.00601742
v 0.05392313 -0.01270714 -0.00654049
v 0.05404713 -0.01422887 -0.00725619
v 0.05406001 -0.01422887 -0.00725760
v 0.05406132 -0.01420735 -0.00725338
v 0.05421872 -0.01422887 -0.00811531
v 0.05422046 -0.01422887 -0.00812937
v 0.05424317 -0.01422887 -0.00918535
v 0.05424535 -0.01420735 -0.00918535
v 0.05445820 -0.01104056 -0.01446100
v 0.05443353 -0.01104056 -0.01340643
v 0.05435865 -0.00365282 -0.01235186
v 0.05311125 0.00042328 -0.00540015
v 0.05284775 -0.00048603 -0.00541562
v 0.05286434 -0.00210384 -0.00545217
v 0.05254976 -0.00892937 -0.00918535
v 0.05266154 -0.00892793 -0.00815749
v 0.05274165 -0.00857511 -0.00747132
v 0.05286740 -0.01171322 -0.00757818
v 0.05435232 -0.00259722 -0.01235186
v 0.05438376 -0.00259722 -0.01340643
v 0.05441017 0.00042328 -0.01868349
v 0.05356445 -0.01422887 -0.00725619
v 0.05422134 -0.01422887 -0.01127480
v 0.05422309 -0.01420735 -0.01129589
v 0.05437677 -0.01209616 -0.01446100
v 0.05446061 -0.00998497 -0.01446100
v 0.05433508 -0.01209616 -0.01551697
v 0.05440231 -0.01104056 -0.01551697
v 0.05445711 -0.00052045 -0.01970572
v 0.05445777 -0.00048603 -0.01970572
v 0.05290385 0.00042328 -0.00578120
v 0.05287089 0.00024974 -0.00545639
v 0.05280496 -0.00154162 -0.00601742
v 0.05223060 -0.01422887 -0.01970572
v 0.05259146 -0.00998497 -0.00918535
v 0.05283902 -0.01186955 -0.00812937
v 0.05323132 -0.01422887 -0.00812937
v 0.05355507 -0.01422887 -0.00727587
v 0.05443943 -0.00048603 -0.01868349
v 0.05442982 0.00042328 -0.01959182
v 0.05422046 -0.01422887 -0.01129589
v 0.05424885 -0.01315176 -0.01446100
v 0.05419754 -0.01315176 -0.01551697
v 0.05409865 -0.01315176 -0.01657295
v 0.05422046 -0.01209616 -0.01657295
v 0.05429054 -0.01104056 -0.01657295
v 0.05440952 -0.00154162 -0.01970572
v 0.05443266 0.00039316 -0.01970572
v 0.05287809 0.00042328 -0.00731665
v 0.05287089 0.00042328 -0.00812937
v 0.05286216 0.00042328 -0.00917832
v 0.05284186 -0.00039997 -0.00609195
v 0.05334768 -0.01422887 -0.01970572
v 0.05286653 0.00042328 -0.01014430
v 0.05284251 -0.00584003 -0.01970572
v 0.05443179 0.00042328 -0.01970572
v 0.05407900 -0.01422887 -0.01446100
v 0.05408271 -0.01420735 -0.01446100
v 0.05406590 -0.01422887 -0.01474503
v 0.05402770 -0.01422887 -0.01555072
v 0.05401220 -0.01422887 -0.01572648
v 0.05398098 -0.01394489 -0.01657295
v 0.05394758 -0.01372688 -0.01714382
v 0.05398797 -0.01315176 -0.01738567
v 0.05403207 -0.01217504 -0.01772453
v 0.05395544 -0.00973397 -0.01935841
v 0.05440777 -0.00157605 -0.01970572
v 0.05349678 -0.01315176 -0.01970572
v 0.05391964 -0.01257950 -0.01814074
v 0.05389191 -0.01422887 -0.01657295
v 0.05333588 0.00042328 -0.01970572
v 0.05395675 -0.01187529 -0.01829400
v 0.05388384 -0.00932092 -0.01970572
v 0.05391440 -0.00892937 -0.01970572
v 0.05397312 -0.00892937 -0.01950746
v 0.05433791 -0.00263164 -0.01970572
f 1 2 6
f 1 6 13
f 1 13 34
f 1 34 53
f 1 53 69
f 1 69 84
f 1 84 67
f 1 67 64
f 1 64 63
f 1 63 62
f 1 62 44
f 1 44 25
f 1 25 10
f 1 10 3
f 1 3 4
f 1 4 5
f 1 5 2
f 2 5 7
f 2 7 8
f 2 8 9
f 2 9 6
f 3 10 11
f 3 11 4
f 4 11 5
f 5 11 12
f 5 12 7
f 6 9 13
f 7 14 35
f 7 35 15
f 7 15 16
f 7 16 17
f 7 17 8
f 7 12 27
f 7 27 14
f 8 17 9
f 9 17 18
f 9 18 19
f 9 19 20
f 9 20 21
f 9 21 22
f 9 22 23
f 9 23 24
f 9 24 13
f 10 25 26
f 10 26 11
f 11 27 12
f 11 26 28
f 11 28 29
f 11 29 30
f 11 30 31
f 11 31 27
f 13 24 32
f 13 32 33
f 13 33 34
f 14 27 35
f 15 35 51
f 15 51 50
f 15 50 47
f 15 47 66
f 15 66 83
f 15 83 74
f 15 74 73
f 15 73 72
f 15 72 70
f 15 70 54
f 15 54 36
f 15 36 20
f 15 20 19
f 15 19 18
f 15 18 16
f 16 18 17
f 20 36 21
f 21 36 37
f 21 37 38
f 21 38 22
f 22 39 23
f 22 38 40
f 22 40 41
f 22 41 42
f 22 42 43
f 22 43 39
f 23 39 24
f 24 39 32
f 25 44 45
f 25 45 26
f 26 46 28
f 26 45 46
f 27 31 35
f 28 47 48
f 28 48 29
f 28 46 47
f 29 48 31
f 29 31 30
f 31 48 49
f 31 49 50
f 31 50 51
f 31 51 35
f 32 39 33
f 33 43 52
f 33 52 34
f 33 39 43
f 34 52 53
f 36 54 55
f 36 55 38
f 36 38 37
f 38 55 40
f 40 55 56
f 40 56 57
f 40 57 58
f 40 58 59
f 40 59 41
f 41 59 60
f 41 60 42
f 42 60 80
f 42 80 89
f 42 89 87
f 42 87 86
f 42 86 81
f 42 81 66
f 42 66 47
f 42 47 68
f 42 68 84
f 42 84 69
f 42 69 61
f 42 61 43
f 43 61 53
f 43 53 52
f 44 62 45
f 45 62 63
f 45 63 64
f 45 64 65
f 45 65 46
f 46 65 47
f 47 50 49
f 47 49 48
f 47 65 64
f 47 64 67
f 47 67 68
f 53 61 69
f 54 70 71
f 54 71 55
f 55 71 72
f 55 72 73
f 55 73 56
f 56 73 74
f 56 74 75
f 56 75 57
f 57 75 76
f 57 76 77
f 57 77 58
f 58 77 78
f 58 78 79
f 58 79 59
f 59 79 80
f 59 80 60
f 66 81 82
f 66 82 77
f 66 77 76
f 66 76 75
f 66 75 83
f 67 84 68
f 70 72 71
f 74 83 75
f 77 82 78
f 78 82 85
f 78 85 79
f 79 85 82
f 79 82 81
f 79 81 86
f 79 86 87
f 79 87 88
f 79 88 80
f 80 88 89
f 87 89 88

