# https://github.com/mikedh/trimesh
v -0.04270647 -0.03113739 -0.00114790
v -0.04370946 -0.03110312 -0.00114790
v -0.04270647 -0.03113601 -0.00118144
v -0.04270647 -0.03003820 -0.00114790
v -0.04492361 -0.02843191 0.01148387
v -0.04492361 -0.02963115 0.00845075
v -0.04492361 -0.03041236 0.00635291
v -0.04492361 -0.03060561 0.00576790
v -0.04492361 -0.03065358 0.00554433
v -0.04492361 -0.03080845 0.00453826
v -0.04492361 -0.03093317 0.00348375
v -0.04492361 -0.03103048 0.00242551
v -0.04492361 -0.03106475 0.00137100
v -0.04411818 -0.03106886 -0.00114790
v -0.04370946 -0.03105927 -0.00179626
v -0.04270647 -0.03109490 -0.00179626
v -0.04492361 -0.02695582 0.01148387
v -0.04270647 -0.01758671 -0.02517808
v -0.04508517 -0.02836064 0.01148387
v -0.04642570 -0.02954891 0.00725465
v -0.04582102 -0.03002724 0.00664355
v -0.04514196 -0.03051241 0.00599520
v -0.04541310 -0.03060972 0.00529095
v -0.04560587 -0.03067688 0.00453826
v -0.04589381 -0.03072896 0.00349493
v -0.04582102 -0.03083038 0.00242551
v -0.04582102 -0.03083586 0.00137100
v -0.04492361 -0.03103185 0.00014881
v -0.04476524 -0.03100993 -0.00114790
v -0.04476524 -0.03097018 -0.00179626
v -0.04476524 -0.03088109 -0.00285077
v -0.04370946 -0.03094414 -0.00285077
v -0.04270647 -0.03108942 -0.00184843
v -0.04789019 -0.01713579 0.01148387
v -0.04270647 -0.01758671 -0.02658286
v -0.04582182 -0.02783846 0.01148387
v -0.04740789 -0.02846206 0.00823463
v -0.04743429 -0.02953795 0.00617778
v -0.04681681 -0.02965993 0.00657648
v -0.04687600 -0.02993404 0.00559277
v -0.04687600 -0.03013140 0.00453826
v -0.04640090 -0.03059327 0.00314839
v -0.04642329 -0.03060835 0.00242551
v -0.04639770 -0.03059739 0.00137100
v -0.04592260 -0.03075363 0.00025687
v -0.04574584 -0.03075637 -0.00114790
v -0.04571064 -0.03073856 -0.00179626
v -0.04513076 -0.03091947 -0.00114790
v -0.04492361 -0.03098388 -0.00092061
v -0.04565386 -0.03070018 -0.00285077
v -0.04553148 -0.03064673 -0.00390901
v -0.04539631 -0.03059876 -0.00457600
v -0.04476524 -0.03075911 -0.00390901
v -0.04270647 -0.03095099 -0.00285077
v -0.04370946 -0.03079064 -0.00390901
v -0.04884199 -0.01713579 -0.00115163
v -0.04899156 -0.01713579 0.01148387
v -0.04270647 -0.01902031 -0.02560659
v -0.04324956 -0.01897371 -0.02555443
v -0.04370946 -0.01758671 -0.02642636
v -0.04999775 -0.01713579 -0.00115163
v -0.04608897 -0.02762602 0.01148387
v -0.04753107 -0.02860734 0.00770179
v -0.04673363 -0.02706958 0.01148387
v -0.04691279 -0.02689552 0.01148387
v -0.04741589 -0.02636237 0.01148387
v -0.04768063 -0.02899521 0.00657648
v -0.04809095 -0.02889516 0.00552570
v -0.04753586 -0.02962566 0.00559277
v -0.04765504 -0.02974353 0.00453826
v -0.04695039 -0.03031231 0.00242551
v -0.04680162 -0.03033561 0.00349493
v -0.04636731 -0.03057957 0.00056987
v -0.04634171 -0.03055901 -0.00013438
v -0.04618175 -0.03046307 -0.00285077
v -0.04605857 -0.03044251 -0.00390901
v -0.04476524 -0.03062891 -0.00468405
v -0.04665685 -0.02975861 -0.00601803
v -0.04644969 -0.02960647 -0.00707627
v -0.04582022 -0.03009439 -0.00601803
v -0.04582022 -0.02981891 -0.00707627
v -0.04270647 -0.03094277 -0.00290294
v -0.04370946 -0.03063302 -0.00466915
v -0.04270647 -0.03075089 -0.00390901
v -0.04964982 -0.01713579 0.00963196
v -0.04900436 -0.01737838 0.01148387
v -0.04270647 -0.01994954 -0.02442912
v -0.04370946 -0.02031822 -0.02382175
v -0.04370946 -0.01988513 -0.02435087
v -0.04364467 -0.01849401 -0.02581526
v -0.04364467 -0.01928619 -0.02508120
v -0.04395341 -0.01888736 -0.02547618
v -0.04374545 -0.01758671 -0.02641518
v -0.04474924 -0.01758671 -0.02605001
v -0.04551228 -0.01758671 -0.02562150
v -0.04597859 -0.01758671 -0.02534204
v -0.04661366 -0.01758671 -0.02485763
v -0.04703917 -0.01758671 -0.02440676
v -0.04714235 -0.01758671 -0.02429125
v -0.04757745 -0.01758945 -0.02372487
v -0.04792858 -0.01758945 -0.02308397
v -0.04831330 -0.01758945 -0.02236854
v -0.04837889 -0.01758945 -0.02224557
v -0.04856445 -0.01758945 -0.02177980
v -0.05062722 -0.01713579 0.00159830
v -0.04793418 -0.02792892 0.00770179
v -0.04829171 -0.02793851 0.00674789
v -0.04742149 -0.02635278 0.01148387
v -0.04845247 -0.02739440 0.00716895
v -0.04837249 -0.02829622 0.00583125
v -0.04847247 -0.02848536 0.00512700
v -0.04818133 -0.02902399 0.00453826
v -0.04769423 -0.02979698 0.00348002
v -0.04768943 -0.02978465 0.00242551
v -0.04692479 -0.03027394 0.00137100
v -0.04678242 -0.03029312 0.00025687
v -0.04754386 -0.02962703 -0.00179999
v -0.04687520 -0.02999297 -0.00285077
v -0.04677282 -0.02986003 -0.00496352
v -0.04476524 -0.02991485 -0.00707627
v -0.04729991 -0.02941597 -0.00496725
v -0.04718394 -0.02931318 -0.00601803
v -0.04747188 -0.02851825 -0.00779542
v -0.04634971 -0.02951602 -0.00760166
v -0.04582022 -0.02956536 -0.00770972
v -0.04270647 -0.03059876 -0.00453501
v -0.04270647 -0.03074267 -0.00394627
v -0.04994496 -0.01713579 0.00875630
v -0.04964663 -0.01737838 0.00963196
v -0.04895397 -0.01843371 0.01148387
v -0.04270647 -0.02034700 -0.02390373
v -0.04476524 -0.02018802 -0.02364289
v -0.04370946 -0.02084589 -0.02311378
v -0.04457488 -0.02116386 -0.02249896
v -0.04476524 -0.01972888 -0.02417201
v -0.04476524 -0.01920259 -0.02476075
v -0.04476524 -0.01864341 -0.02528987
v -0.04476524 -0.01811437 -0.02569230
v -0.04529553 -0.01790605 -0.02554698
v -0.04653047 -0.01808422 -0.02463033
v -0.04714235 -0.01758945 -0.02429498
v -0.04718714 -0.01758945 -0.02424281
v -0.04748787 -0.01808559 -0.02357955
v -0.04836129 -0.01977274 -0.02116498
v -0.04848687 -0.01906828 -0.02136619
v -0.04853725 -0.01843371 -0.02150406
v -0.04861484 -0.01944792 -0.02080727
v -0.04874601 -0.01843371 -0.02079236
v -0.04876121 -0.01758945 -0.02079236
v -0.05068321 -0.01713579 0.00184795
v -0.04754786 -0.02610882 0.01148387
v -0.04865083 -0.02697501 0.00674789
v -0.04853166 -0.02759176 0.00646470
v -0.04766064 -0.02584704 0.01148387
v -0.04789179 -0.02520836 0.01148387
v -0.04803816 -0.02476293 0.01148387
v -0.04847087 -0.02328411 0.01148387
v -0.04858205 -0.02793851 0.00552570
v -0.04888358 -0.02687359 0.00559277
v -0.04870042 -0.02792892 0.00453826
v -0.04874841 -0.02792892 0.00348002
v -0.04851326 -0.02856485 0.00242551
v -0.04822132 -0.02905277 0.00348002
v -0.04821572 -0.02909252 0.00242551
v -0.04766064 -0.02974627 0.00137100
v -0.04831570 -0.02815095 -0.00496725
v -0.04778861 -0.02888830 -0.00496725
v -0.04747428 -0.02957221 -0.00285822
v -0.04714235 -0.02980658 -0.00285077
v -0.04787179 -0.02923368 -0.00115163
v -0.04582022 -0.02931729 -0.00823884
v -0.04582022 -0.02623491 -0.01478575
v -0.04476524 -0.02959003 -0.00775443
v -0.04365987 -0.02977094 -0.00716570
v -0.04771343 -0.02878414 -0.00601803
v -0.04814934 -0.02787135 -0.00710980
v -0.04843808 -0.02526593 -0.01386538
v -0.04733671 -0.02839902 -0.00849594
v -0.04744548 -0.02637471 -0.01293756
v -0.04714235 -0.02624176 -0.01368652
v -0.04649608 -0.02643364 -0.01415975
v -0.04270647 -0.02971064 -0.00692349
v -0.05058323 -0.01713579 0.00639763
v -0.04993776 -0.01737838 0.00875630
v -0.04270647 -0.02087604 -0.02310632
v -0.04582022 -0.02541669 -0.01621660
v -0.04370946 -0.02120908 -0.02258466
v -0.04486202 -0.02078284 -0.02287530
v -0.04527873 -0.02106380 -0.02237226
v -0.04582022 -0.02096376 -0.02224930
v -0.04645529 -0.02536735 -0.01614581
v -0.04539391 -0.02006467 -0.02348639
v -0.04609776 -0.01988376 -0.02330381
v -0.04541391 -0.01903675 -0.02456699
v -0.04570664 -0.01834736 -0.02495079
v -0.04611776 -0.01878731 -0.02433597
v -0.04658486 -0.01917929 -0.02363544
v -0.04732631 -0.01992213 -0.02230147
v -0.04728792 -0.01878868 -0.02329636
v -0.04765744 -0.02024970 -0.02160094
v -0.04854445 -0.02017294 -0.02046073
v -0.04887639 -0.01948904 -0.01973412
v -0.04894757 -0.01843371 -0.01973412
v -0.04890918 -0.01758945 -0.01973412
v -0.05076959 -0.01713579 0.00242551
v -0.04889558 -0.02581826 0.00664355
v -0.04982179 -0.01843371 0.00875630
v -0.05062962 -0.01713579 0.00622249
v -0.05072800 -0.01713579 0.00558904
v -0.05085357 -0.01713579 0.00453826
v -0.04898916 -0.02687359 0.00453826
v -0.04900836 -0.02687359 0.00348002
v -0.04872282 -0.02792892 0.00242551
v -0.04849886 -0.02853607 0.00171381
v -0.04843488 -0.02842917 -0.00074175
v -0.04807815 -0.02898425 -0.00074175
v -0.04852286 -0.02755749 -0.00601803
v -0.04849886 -0.02748211 -0.00677817
v -0.04824052 -0.02808653 -0.00601803
v -0.04804456 -0.02898561 -0.00115163
v -0.04582022 -0.02583197 -0.01551235
v -0.04476524 -0.02537283 -0.01616444
v -0.04476524 -0.02570862 -0.01551235
v -0.04415177 -0.02530841 -0.01607501
v -0.04714235 -0.02619516 -0.01378713
v -0.04851406 -0.02537420 -0.01316113
v -0.04871002 -0.02485339 -0.01346668
v -0.04861804 -0.02453679 -0.01445784
v -0.04850926 -0.02431065 -0.01510247
v -0.04761345 -0.02440659 -0.01627622
v -0.04746148 -0.02533446 -0.01505031
v -0.04769583 -0.02549481 -0.01445784
v -0.04685840 -0.02605263 -0.01449138
v -0.04270647 -0.02436136 -0.01730092
v -0.04654327 -0.02120634 -0.02150779
v -0.04662245 -0.02023325 -0.02259584
v -0.04577543 -0.02038127 -0.02293119
v -0.04714235 -0.02462725 -0.01645881
v -0.04686800 -0.02475471 -0.01656314
v -0.04657846 -0.02439700 -0.01731955
v -0.04683361 -0.02554004 -0.01544901
v -0.04714235 -0.02511791 -0.01576946
v -0.04714235 -0.02000300 -0.02237972
v -0.04714235 -0.02023599 -0.02211888
v -0.04693439 -0.02059233 -0.02190649
v -0.04714235 -0.02083218 -0.02140346
v -0.04724712 -0.02095279 -0.02115008
v -0.04796377 -0.02056355 -0.02080727
v -0.04827011 -0.02087741 -0.01999496
v -0.04893397 -0.02371172 -0.01445784
v -0.04953145 -0.02220548 -0.01300090
v -0.04904355 -0.01843371 -0.01867961
v -0.04954025 -0.02159969 -0.01311642
v -0.05087677 -0.01713579 0.00348002
v -0.05079998 -0.01713579 0.00266399
v -0.04987778 -0.02159969 -0.00812333
v -0.04879960 -0.02687359 -0.00496725
v -0.04856525 -0.02769455 -0.00390901
v -0.04874601 -0.02687359 -0.00601803
v -0.04886759 -0.02476293 -0.01234882
v -0.04714235 -0.02586349 -0.01448020
v -0.04906435 -0.02371172 -0.01340333
v -0.04831650 -0.02399405 -0.01580672
v -0.04714235 -0.02417771 -0.01704754
v -0.04714235 -0.02543862 -0.01525525
v -0.04714235 -0.02571547 -0.01475594
v -0.04918112 -0.02371172 -0.01234882
v -0.04953385 -0.02233979 -0.01234882
v -0.04995616 -0.02054436 -0.00812333
v -0.04962503 -0.02271669 -0.00807861
f 1 2 3
f 1 3 16
f 1 16 33
f 1 33 54
f 1 54 82
f 1 82 84
f 1 84 127
f 1 127 126
f 1 126 182
f 1 182 234
f 1 234 185
f 1 185 131
f 1 131 87
f 1 87 58
f 1 58 35
f 1 35 18
f 1 18 4
f 1 4 17
f 1 17 5
f 1 5 6
f 1 6 7
f 1 7 8
f 1 8 9
f 1 9 10
f 1 10 11
f 1 11 12
f 1 12 13
f 1 13 2
f 2 13 14
f 2 14 15
f 2 15 16
f 2 16 3
f 4 18 17
f 5 17 34
f 5 34 57
f 5 57 86
f 5 86 130
f 5 130 157
f 5 157 156
f 5 156 155
f 5 155 154
f 5 154 151
f 5 151 108
f 5 108 66
f 5 66 65
f 5 65 64
f 5 64 62
f 5 62 36
f 5 36 19
f 5 19 20
f 5 20 21
f 5 21 6
f 6 21 22
f 6 22 7
f 7 22 8
f 8 23 9
f 8 22 23
f 9 23 10
f 10 23 24
f 10 24 11
f 11 24 25
f 11 25 12
f 12 25 26
f 12 26 13
f 13 27 28
f 13 28 14
f 13 26 27
f 14 28 29
f 14 29 30
f 14 30 15
f 15 30 31
f 15 31 32
f 15 32 33
f 15 33 16
f 17 18 34
f 18 35 34
f 19 36 37
f 19 37 38
f 19 38 39
f 19 39 20
f 20 39 21
f 21 39 22
f 22 39 38
f 22 38 40
f 22 40 23
f 23 40 24
f 24 41 42
f 24 42 25
f 24 40 41
f 25 42 26
f 26 42 43
f 26 43 27
f 27 43 44
f 27 44 45
f 27 45 46
f 27 46 28
f 28 46 47
f 28 47 48
f 28 48 49
f 28 49 29
f 29 49 50
f 29 50 30
f 30 50 51
f 30 51 31
f 31 51 52
f 31 52 53
f 31 53 32
f 32 54 33
f 32 53 55
f 32 55 54
f 34 56 61
f 34 61 105
f 34 105 150
f 34 150 205
f 34 205 255
f 34 255 254
f 34 254 210
f 34 210 209
f 34 209 208
f 34 208 183
f 34 183 128
f 34 128 85
f 34 85 57
f 34 35 56
f 35 58 59
f 35 59 60
f 35 60 61
f 35 61 56
f 36 62 37
f 37 63 38
f 37 62 64
f 37 64 65
f 37 65 66
f 37 66 63
f 38 63 67
f 38 67 68
f 38 68 69
f 38 69 40
f 40 69 41
f 41 69 70
f 41 70 42
f 42 71 43
f 42 70 72
f 42 72 71
f 43 71 44
f 44 73 45
f 44 71 73
f 45 73 74
f 45 74 47
f 45 47 46
f 47 50 49
f 47 49 48
f 47 74 50
f 50 74 75
f 50 75 76
f 50 76 51
f 51 76 52
f 52 77 53
f 52 76 78
f 52 78 79
f 52 79 80
f 52 80 81
f 52 81 77
f 53 77 55
f 54 55 82
f 55 77 83
f 55 83 84
f 55 84 82
f 57 85 86
f 58 87 88
f 58 88 89
f 58 89 59
f 59 90 60
f 59 89 91
f 59 91 92
f 59 92 90
f 60 90 92
f 60 92 93
f 60 93 61
f 61 93 94
f 61 94 95
f 61 95 96
f 61 96 97
f 61 97 98
f 61 98 99
f 61 99 100
f 61 100 101
f 61 101 102
f 61 102 103
f 61 103 104
f 61 104 105
f 63 66 106
f 63 106 107
f 63 107 67
f 66 108 109
f 66 109 106
f 67 107 110
f 67 110 68
f 68 111 70
f 68 70 69
f 68 110 111
f 70 112 113
f 70 113 72
f 70 111 112
f 71 72 113
f 71 113 114
f 71 114 115
f 71 115 73
f 73 115 74
f 74 115 116
f 74 116 75
f 75 117 118
f 75 118 119
f 75 119 76
f 75 116 117
f 76 119 78
f 77 81 120
f 77 120 83
f 78 119 121
f 78 121 122
f 78 122 79
f 79 123 124
f 79 124 80
f 79 122 123
f 80 124 81
f 81 124 125
f 81 125 120
f 83 126 127
f 83 127 84
f 83 120 126
f 85 128 129
f 85 129 86
f 86 129 130
f 87 131 88
f 88 132 89
f 88 131 133
f 88 133 134
f 88 134 132
f 89 132 92
f 89 92 91
f 92 132 135
f 92 135 136
f 92 136 137
f 92 137 138
f 92 138 94
f 92 94 93
f 94 138 139
f 94 139 95
f 95 139 96
f 96 139 140
f 96 140 97
f 97 140 98
f 98 140 141
f 98 141 99
f 99 141 142
f 99 142 100
f 100 142 143
f 100 143 144
f 100 144 145
f 100 145 101
f 101 145 102
f 102 145 103
f 103 145 146
f 103 146 104
f 104 146 147
f 104 147 148
f 104 148 149
f 104 149 150
f 104 150 105
f 106 109 107
f 107 109 110
f 108 151 109
f 109 152 153
f 109 153 111
f 109 111 110
f 109 151 154
f 109 154 155
f 109 155 156
f 109 156 157
f 109 157 152
f 111 153 158
f 111 158 159
f 111 159 160
f 111 160 161
f 111 161 162
f 111 162 163
f 111 163 112
f 112 163 113
f 113 163 164
f 113 164 114
f 114 164 165
f 114 165 115
f 115 165 117
f 115 117 116
f 117 166 167
f 117 167 168
f 117 168 119
f 117 119 169
f 117 169 118
f 117 165 164
f 117 164 170
f 117 170 166
f 118 169 119
f 119 168 121
f 120 125 171
f 120 171 172
f 120 172 173
f 120 173 174
f 120 174 126
f 121 168 167
f 121 167 175
f 121 175 122
f 122 175 123
f 123 176 177
f 123 177 178
f 123 178 124
f 123 175 176
f 124 178 177
f 124 177 179
f 124 179 180
f 124 180 181
f 124 181 125
f 125 181 171
f 126 174 182
f 128 183 184
f 128 184 129
f 129 184 130
f 130 184 157
f 131 185 186
f 131 186 187
f 131 187 133
f 132 134 188
f 132 188 189
f 132 189 190
f 132 190 135
f 133 187 186
f 133 186 134
f 134 189 188
f 134 186 191
f 134 191 189
f 135 190 192
f 135 192 136
f 136 192 193
f 136 193 194
f 136 194 137
f 137 194 195
f 137 195 139
f 137 139 138
f 139 195 140
f 140 143 141
f 140 195 196
f 140 196 197
f 140 197 198
f 140 198 199
f 140 199 143
f 141 143 142
f 143 199 144
f 144 147 145
f 144 199 198
f 144 198 200
f 144 200 201
f 144 201 147
f 145 147 146
f 147 201 202
f 147 202 148
f 148 202 203
f 148 203 149
f 149 203 204
f 149 204 205
f 149 205 150
f 152 206 159
f 152 159 153
f 152 157 206
f 153 159 158
f 157 184 207
f 157 207 208
f 157 208 206
f 159 209 210
f 159 210 211
f 159 211 160
f 159 206 208
f 159 208 209
f 160 211 161
f 161 212 213
f 161 213 162
f 161 211 212
f 162 214 164
f 162 164 163
f 162 213 214
f 164 214 215
f 164 215 216
f 164 216 170
f 166 217 218
f 166 218 219
f 166 219 167
f 166 170 220
f 166 220 216
f 166 216 215
f 166 215 217
f 167 219 175
f 170 216 220
f 171 181 172
f 172 181 191
f 172 191 221
f 172 221 222
f 172 222 223
f 172 223 174
f 172 174 173
f 174 223 224
f 174 224 182
f 175 219 176
f 176 218 177
f 176 219 218
f 177 225 180
f 177 180 179
f 177 218 226
f 177 226 227
f 177 227 228
f 177 228 229
f 177 229 230
f 177 230 231
f 177 231 232
f 177 232 225
f 180 225 233
f 180 233 181
f 181 233 191
f 182 224 234
f 183 208 184
f 184 208 207
f 185 234 222
f 185 222 186
f 186 222 221
f 186 221 191
f 189 191 190
f 190 191 235
f 190 235 236
f 190 236 193
f 190 193 237
f 190 237 192
f 191 230 238
f 191 238 239
f 191 239 240
f 191 240 235
f 191 233 241
f 191 241 242
f 191 242 230
f 192 237 193
f 193 236 197
f 193 197 196
f 193 196 194
f 194 196 195
f 197 236 243
f 197 243 198
f 198 243 244
f 198 244 200
f 200 244 245
f 200 245 246
f 200 246 247
f 200 247 230
f 200 230 248
f 200 248 201
f 201 249 229
f 201 229 228
f 201 228 250
f 201 250 202
f 201 248 249
f 202 250 251
f 202 251 203
f 203 252 204
f 203 251 253
f 203 253 252
f 204 252 254
f 204 254 255
f 204 255 205
f 210 254 211
f 211 254 212
f 212 254 256
f 212 256 257
f 212 257 213
f 213 257 214
f 214 257 258
f 214 258 215
f 215 258 217
f 217 258 257
f 217 257 259
f 217 259 218
f 218 260 227
f 218 227 226
f 218 259 260
f 222 224 223
f 222 234 224
f 225 232 261
f 225 261 233
f 227 260 262
f 227 262 250
f 227 250 228
f 229 249 263
f 229 263 230
f 230 263 249
f 230 249 248
f 230 247 264
f 230 264 238
f 230 242 231
f 231 242 265
f 231 265 266
f 231 266 232
f 232 266 261
f 233 261 266
f 233 266 241
f 235 247 246
f 235 246 245
f 235 245 236
f 235 240 247
f 236 245 244
f 236 244 243
f 238 264 240
f 238 240 239
f 240 264 247
f 241 266 265
f 241 265 242
f 250 262 251
f 251 267 259
f 251 259 268
f 251 268 256
f 251 256 269
f 251 269 253
f 251 262 267
f 252 253 269
f 252 269 254
f 254 269 256
f 256 268 270
f 256 270 257
f 257 270 268
f 257 268 259
f 259 267 260
f 260 267 262

