# https://github.com/mikedh/trimesh
v 0.04582478 0.03103907 0.00455015
v 0.04582478 0.03079855 0.00548621
v 0.04611717 0.03093779 0.00464445
v 0.04611229 0.03096058 0.00455015
v 0.04582478 0.02979596 0.00455015
v 0.03968940 0.02884655 0.00519183
v 0.01737981 0.02884908 0.00837490
v 0.01737981 0.02884908 0.01027232
v 0.02182906 0.02884908 0.01084270
v 0.04582478 0.03075804 0.00559661
v 0.05096115 0.02863641 0.00636708
v 0.05032763 0.02944658 0.00455015
v 0.02289629 0.02884908 0.01091629
v 0.02807652 0.02663630 0.01707085
v 0.04707232 0.02906681 0.00455015
v 0.04073226 0.02884655 0.00510213
v 0.05148258 0.02738317 0.00455015
v 0.01259432 0.01897513 0.01557361
v 0.01224344 0.01950681 0.01533212
v 0.01132241 0.01978277 0.01542181
v 0.01164404 0.02110943 0.01454785
v 0.01124931 0.02165882 0.01435695
v 0.01118596 0.02450201 0.01276772
v 0.01043548 0.02450201 0.01305521
v 0.01020644 0.02450201 0.01314490
v 0.00951932 0.02450201 0.01349219
v 0.00190248 0.02450201 0.01794711
v 0.00190248 0.02450201 0.01946045
v 0.02279883 0.02651478 0.01687535
v 0.02702878 0.02662364 0.01703405
v 0.05085881 0.02752749 0.00935466
v 0.02913888 0.02662111 0.01705475
v 0.03019150 0.02656288 0.01693515
v 0.03019150 0.02625147 0.01746643
v 0.05109759 0.02766420 0.00876358
v 0.05148258 0.02859337 0.00566791
v 0.05130714 0.02874274 0.00552301
v 0.05128765 0.02907441 0.00455015
v 0.02807652 0.02631730 0.01760212
v 0.02913888 0.02631223 0.01757913
v 0.04812493 0.02866173 0.00455015
v 0.05148258 0.02895035 0.00455015
v 0.05148258 0.02221075 0.01147057
v 0.05109272 0.01104560 0.02468354
v 0.03229673 0.00544530 0.02774242
v 0.03124411 0.00536682 0.02774242
v 0.00907585 0.00518453 0.02744803
v 0.01330093 0.01715732 0.01686385
v 0.01330093 0.01768393 0.01644067
v 0.01330093 0.01838523 0.01591399
v 0.00692676 0.00517693 0.02766192
v 0.01189257 0.01911185 0.01569090
v 0.01118596 0.01982581 0.01543561
v 0.01124931 0.02070181 0.01490203
v 0.01041112 0.02199555 0.01445125
v 0.00970937 0.02232974 0.01463984
v 0.00169780 0.01060254 0.02766192
v 0.00169780 0.01810926 0.02370838
v 0.00169780 0.01813965 0.02370608
v 0.00169780 0.01985619 0.02370608
v 0.01054756 0.02001570 0.01556901
v 0.00590826 0.00593647 0.02766192
v 0.00274067 0.02450201 0.01948345
v 0.00169780 0.01982834 0.02373828
v 0.00169780 0.01929161 0.02430175
v 0.04178975 0.02139045 0.02118768
v 0.04283749 0.02123855 0.02101289
v 0.04338329 0.02115753 0.02090709
v 0.05105861 0.02659073 0.01051611
v 0.05148258 0.02672998 0.00997793
v 0.05148258 0.02715785 0.00925116
v 0.05148258 0.02743381 0.00876358
v 0.03019150 0.02572233 0.01817710
v 0.05148258 0.02868198 0.00539192
v 0.02827145 0.02538813 0.01880268
v 0.02878801 0.02538813 0.01880268
v 0.02913888 0.02570967 0.01834959
v 0.05148258 0.02186136 0.01197425
v 0.05148258 0.02132716 0.01286432
v 0.05148258 0.02024609 0.01499633
v 0.05148258 0.02012709 0.01540341
v 0.05109272 0.01104053 0.02561040
v 0.05108785 0.01104053 0.02469274
v 0.03343219 0.00567569 0.02774242
v 0.04582478 0.01104053 0.02804600
v 0.03019150 0.00537441 0.02774242
v 0.00600085 0.00585545 0.02766192
v 0.00169780 0.01348623 0.02766192
v 0.00169780 0.01863081 0.02483073
v 0.04283749 0.02078789 0.02154187
v 0.02948975 0.02534763 0.01875898
v 0.04178975 0.02093220 0.02171896
v 0.04347101 0.02015494 0.02202255
v 0.05104399 0.02019545 0.01890847
v 0.05109272 0.02024356 0.01881648
v 0.05109272 0.02010937 0.01896597
v 0.05148258 0.02174490 0.01540341
v 0.04073714 0.02043597 0.02225714
v 0.04178975 0.02040559 0.02223414
v 0.05109272 0.01104053 0.02630267
v 0.03530350 0.00616686 0.02774242
v 0.03453841 0.00595925 0.02774242
v 0.03596139 0.00637953 0.02774242
v 0.03651206 0.00656435 0.02774242
v 0.03665338 0.00661498 0.02774242
v 0.05095627 0.01104053 0.02636477
v 0.05078571 0.01167095 0.02618538
v 0.04582478 0.01240516 0.02738593
v 0.00169780 0.01412931 0.02741123
v 0.00169780 0.01810926 0.02519872
v 0.00244341 0.01810420 0.02520332
v 0.04283749 0.02026381 0.02211914
v 0.04355873 0.01912451 0.02309200
v 0.05109272 0.01923338 0.01981464
v 0.04402169 0.01830168 0.02370378
v 0.05109272 0.01296722 0.02511132
v 0.05109272 0.01261024 0.02538041
v 0.05109272 0.01198489 0.02580819
v 0.05109272 0.01113168 0.02627278
v 0.04380727 0.01838017 0.02370378
v 0.05105374 0.01104053 0.02632797
v 0.05102450 0.01113168 0.02630497
v 0.05100988 0.01287354 0.02524702
v 0.04582478 0.01387107 0.02645217
v 0.04582478 0.01305583 0.02699955
v 0.00169780 0.01618005 0.02634637
v 0.04495734 0.01788647 0.02370378
v 0.05101962 0.01914223 0.01993193
v 0.04582478 0.01410399 0.02627967
v 0.04582478 0.01522050 0.02542641
f 1 2 3
f 1 3 4
f 1 4 12
f 1 12 38
f 1 38 42
f 1 42 17
f 1 17 41
f 1 41 15
f 1 15 5
f 1 5 6
f 1 6 7
f 1 7 8
f 1 8 9
f 1 9 2
f 2 10 11
f 2 11 12
f 2 12 3
f 2 9 13
f 2 13 14
f 2 14 10
f 3 12 4
f 5 15 16
f 5 16 6
f 6 16 17
f 6 17 18
f 6 18 7
f 7 18 19
f 7 19 20
f 7 20 21
f 7 21 22
f 7 22 23
f 7 23 24
f 7 24 25
f 7 25 26
f 7 26 27
f 7 27 28
f 7 28 8
f 8 28 9
f 9 29 30
f 9 30 13
f 9 28 29
f 10 31 11
f 10 14 32
f 10 32 33
f 10 33 34
f 10 34 31
f 11 31 35
f 11 35 36
f 11 36 37
f 11 37 38
f 11 38 12
f 13 30 14
f 14 39 40
f 14 40 32
f 14 30 28
f 14 28 39
f 15 41 16
f 16 41 17
f 17 42 74
f 17 74 36
f 17 36 72
f 17 72 71
f 17 71 70
f 17 70 97
f 17 97 81
f 17 81 80
f 17 80 79
f 17 79 78
f 17 78 43
f 17 43 44
f 17 44 45
f 17 45 46
f 17 46 47
f 17 47 48
f 17 48 49
f 17 49 50
f 17 50 18
f 18 50 49
f 18 49 51
f 18 51 52
f 18 52 20
f 18 20 19
f 20 52 53
f 20 53 21
f 21 53 54
f 21 54 22
f 22 54 55
f 22 55 23
f 23 55 24
f 24 55 25
f 25 55 26
f 26 56 27
f 26 55 56
f 27 57 58
f 27 58 59
f 27 59 60
f 27 60 28
f 27 56 61
f 27 61 62
f 27 62 57
f 28 63 39
f 28 30 29
f 28 60 64
f 28 64 65
f 28 65 63
f 31 34 66
f 31 66 67
f 31 67 68
f 31 68 69
f 31 69 70
f 31 70 71
f 31 71 72
f 31 72 35
f 32 40 34
f 32 34 33
f 34 40 73
f 34 73 66
f 35 72 36
f 36 74 38
f 36 38 37
f 38 74 42
f 39 75 76
f 39 76 40
f 39 63 75
f 40 76 77
f 40 77 73
f 43 78 44
f 44 78 79
f 44 79 80
f 44 80 81
f 44 81 82
f 44 82 83
f 44 83 84
f 44 84 45
f 45 84 85
f 45 85 46
f 46 85 86
f 46 86 51
f 46 51 47
f 47 51 48
f 48 51 49
f 51 87 61
f 51 61 53
f 51 53 52
f 51 86 85
f 51 85 87
f 53 61 55
f 53 55 54
f 55 61 56
f 57 62 85
f 57 85 88
f 57 88 109
f 57 109 126
f 57 126 110
f 57 110 89
f 57 89 65
f 57 65 64
f 57 64 60
f 57 60 59
f 57 59 58
f 61 87 62
f 62 87 85
f 63 65 75
f 65 89 76
f 65 76 75
f 66 90 67
f 66 73 91
f 66 91 92
f 66 92 90
f 67 90 68
f 68 90 93
f 68 93 94
f 68 94 69
f 69 94 95
f 69 95 70
f 70 95 96
f 70 96 97
f 73 77 91
f 76 98 99
f 76 99 92
f 76 92 91
f 76 91 77
f 76 89 98
f 81 97 100
f 81 100 82
f 82 100 101
f 82 101 83
f 83 101 102
f 83 102 84
f 84 102 85
f 85 102 101
f 85 101 103
f 85 103 104
f 85 104 105
f 85 105 106
f 85 106 107
f 85 107 108
f 85 108 109
f 85 109 88
f 89 110 111
f 89 111 98
f 90 92 112
f 90 112 93
f 92 99 113
f 92 113 112
f 93 112 113
f 93 113 94
f 94 114 96
f 94 96 95
f 94 113 115
f 94 115 114
f 96 114 97
f 97 114 116
f 97 116 117
f 97 117 118
f 97 118 119
f 97 119 100
f 98 120 99
f 98 111 120
f 99 120 113
f 100 119 121
f 100 121 105
f 100 105 104
f 100 104 103
f 100 103 101
f 105 121 106
f 106 121 122
f 106 122 107
f 107 122 119
f 107 119 118
f 107 118 123
f 107 123 124
f 107 124 125
f 107 125 108
f 108 125 111
f 108 111 126
f 108 126 109
f 110 126 111
f 111 125 120
f 113 120 115
f 114 115 127
f 114 127 128
f 114 128 123
f 114 123 116
f 115 120 124
f 115 124 129
f 115 129 127
f 116 123 117
f 117 123 118
f 119 122 121
f 120 125 124
f 123 128 127
f 123 127 130
f 123 130 129
f 123 129 124
f 127 129 130

