# https://github.com/mikedh/trimesh
v 0.00200884 -0.02667829 -0.01957467
v 0.00200884 -0.02755340 -0.01836075
v 0.00200884 -0.02520926 -0.01957467
v 0.01224721 -0.02687695 -0.01957467
v 0.01224721 -0.02730279 -0.01899386
v 0.00200884 -0.02805463 -0.01756350
v 0.00200884 -0.03112514 -0.00114764
v 0.00274416 -0.03102327 -0.00114764
v 0.01013490 -0.03022049 -0.00114764
v 0.00470660 -0.02492808 -0.01957467
v 0.03352954 -0.02677915 -0.01957467
v 0.00200884 -0.02838572 -0.01695924
v 0.03441006 -0.02719480 -0.01874495
v 0.00200884 -0.03222743 -0.00114764
v 0.01118871 -0.03015835 -0.00114764
v 0.02481802 -0.02352730 -0.01957467
v 0.04707454 -0.02633090 -0.01957467
v 0.04707454 -0.02759008 -0.01740657
v 0.04707454 -0.02836942 -0.01593832
v 0.01962858 -0.03077469 -0.01122875
v 0.01857477 -0.03077062 -0.01125761
v 0.02068708 -0.03171296 -0.00888209
v 0.00200884 -0.02856400 -0.01648666
v 0.04707454 -0.02864652 -0.01540983
v 0.00200884 -0.03222132 -0.00147231
v 0.02977328 -0.03312495 -0.00114764
v 0.04985661 -0.02964897 -0.00114764
v 0.04985661 -0.02272350 -0.01957467
v 0.04748201 -0.02630951 -0.01957467
v 0.04776772 -0.02642361 -0.01934199
v 0.04812835 -0.02797720 -0.01657324
v 0.02174089 -0.03171296 -0.00887667
v 0.02174089 -0.03192690 -0.00812992
v 0.02068708 -0.03192385 -0.00812992
v 0.00200884 -0.03074617 -0.01015733
v 0.00200884 -0.03065142 -0.01045495
v 0.00200884 -0.03062494 -0.01053612
v 0.04812835 -0.02836433 -0.01583010
v 0.04812835 -0.02859253 -0.01530341
v 0.04772088 -0.02955830 -0.01301265
v 0.00200884 -0.03216733 -0.00252931
v 0.00200884 -0.03208786 -0.00358449
v 0.00200884 -0.03196969 -0.00465411
v 0.02068708 -0.03211741 -0.00707474
v 0.02912694 -0.03302308 -0.00179699
v 0.03018544 -0.03303123 -0.00179699
v 0.03018544 -0.03312801 -0.00114764
v 0.04985661 -0.03100391 -0.00114764
v 0.04985661 -0.02503811 -0.01957467
v 0.04799253 -0.02617809 -0.01957467
v 0.04873722 -0.02744745 -0.01716126
v 0.04812835 -0.02754525 -0.01732179
v 0.04707454 -0.02978956 -0.01235068
v 0.04579123 -0.03059234 -0.00978937
v 0.03229775 -0.03278673 -0.00269705
v 0.03123925 -0.03302511 -0.00179699
v 0.02174089 -0.03212658 -0.00707474
v 0.00200884 -0.03180771 -0.00564978
v 0.00200884 -0.03176186 -0.00586082
v 0.00200884 -0.03123823 -0.00818404
v 0.04913064 -0.02760943 -0.01652093
v 0.04870444 -0.02848658 -0.01506892
v 0.04869039 -0.02953182 -0.01187449
v 0.04809557 -0.02964184 -0.01227673
v 0.04812835 -0.02987310 -0.01129369
v 0.04649377 -0.03054649 -0.00966852
v 0.03071000 -0.03311273 -0.00127029
v 0.03083178 -0.03313106 -0.00114764
v 0.04923837 -0.03136862 -0.00114764
v 0.04985661 -0.03099067 -0.00283955
v 0.04985661 -0.02516239 -0.01943037
v 0.04978167 -0.02535290 -0.01930771
v 0.04965521 -0.02526121 -0.01957467
v 0.04819861 -0.02607825 -0.01957467
v 0.04914470 -0.02558008 -0.01957467
v 0.04944445 -0.02724574 -0.01683839
v 0.04784734 -0.03165693 -0.00353399
v 0.03610552 -0.03269402 -0.00236516
v 0.03546387 -0.03271032 -0.00242288
v 0.03229775 -0.03298640 -0.00179699
v 0.03189027 -0.03310661 -0.00114764
v 0.03123925 -0.03312699 -0.00114764
v 0.04977230 -0.02745764 -0.01613493
v 0.04910723 -0.02810455 -0.01545853
v 0.04979104 -0.02851714 -0.01303610
v 0.04936483 -0.02930973 -0.01129369
v 0.04883558 -0.02960720 -0.01129369
v 0.04918685 -0.03120664 -0.00390917
v 0.04855456 -0.03157747 -0.00312454
v 0.04870912 -0.03165082 -0.00114764
v 0.04869507 -0.03164471 -0.00179699
v 0.04985661 -0.03089592 -0.00390917
v 0.04866697 -0.03163044 -0.00241928
v 0.04908381 -0.03139206 -0.00280347
v 0.04985661 -0.02543949 -0.01902813
v 0.04985661 -0.02651224 -0.01744084
v 0.04933204 -0.02546496 -0.01957467
v 0.04817519 -0.03168444 -0.00280347
v 0.03798365 -0.03270523 -0.00114764
v 0.03729985 -0.03275922 -0.00114764
v 0.03648490 -0.03273987 -0.00180240
v 0.03546387 -0.03280812 -0.00179699
v 0.03229775 -0.03309133 -0.00114764
v 0.04985661 -0.02655605 -0.01737230
v 0.04985661 -0.02725898 -0.01627021
v 0.04985661 -0.02753303 -0.01571646
v 0.04985661 -0.02857521 -0.01268978
v 0.04959900 -0.02944217 -0.01024211
v 0.04985661 -0.03068708 -0.00479120
v 0.04985661 -0.02867301 -0.01234347
v 0.04849367 -0.03168648 -0.00114764
v 0.04812835 -0.03173741 -0.00179699
v 0.04812835 -0.03173945 -0.00114764
v 0.03650832 -0.03281729 -0.00114764
v 0.04971141 -0.02951042 -0.00970639
v 0.04984255 -0.02959804 -0.00900294
v 0.04985661 -0.02960517 -0.00893079
f 1 2 6
f 1 6 12
f 1 12 23
f 1 23 37
f 1 37 36
f 1 36 35
f 1 35 60
f 1 60 59
f 1 59 58
f 1 58 43
f 1 43 42
f 1 42 41
f 1 41 25
f 1 25 14
f 1 14 7
f 1 7 3
f 1 3 10
f 1 10 16
f 1 16 28
f 1 28 49
f 1 49 73
f 1 73 97
f 1 97 75
f 1 75 74
f 1 74 50
f 1 50 29
f 1 29 17
f 1 17 11
f 1 11 4
f 1 4 5
f 1 5 2
f 2 5 6
f 3 7 8
f 3 8 9
f 3 9 10
f 4 11 5
f 5 12 6
f 5 11 13
f 5 13 12
f 7 14 26
f 7 26 47
f 7 47 68
f 7 68 82
f 7 82 81
f 7 81 103
f 7 103 114
f 7 114 100
f 7 100 99
f 7 99 113
f 7 113 111
f 7 111 90
f 7 90 69
f 7 69 48
f 7 48 27
f 7 27 15
f 7 15 9
f 7 9 8
f 9 15 16
f 9 16 10
f 11 17 18
f 11 18 19
f 11 19 13
f 12 20 21
f 12 21 22
f 12 22 23
f 12 13 24
f 12 24 20
f 13 19 24
f 14 25 26
f 15 27 28
f 15 28 16
f 17 29 18
f 18 29 30
f 18 30 31
f 18 31 19
f 19 31 24
f 20 32 21
f 20 24 32
f 21 32 22
f 22 32 33
f 22 33 34
f 22 34 35
f 22 35 36
f 22 36 37
f 22 37 23
f 24 31 38
f 24 38 39
f 24 39 40
f 24 40 32
f 25 41 26
f 26 41 42
f 26 42 43
f 26 43 44
f 26 44 45
f 26 45 46
f 26 46 47
f 27 48 70
f 27 70 92
f 27 92 109
f 27 109 117
f 27 117 110
f 27 110 107
f 27 107 106
f 27 106 105
f 27 105 104
f 27 104 96
f 27 96 95
f 27 95 71
f 27 71 49
f 27 49 28
f 29 50 30
f 30 50 51
f 30 51 52
f 30 52 31
f 31 52 51
f 31 51 38
f 32 40 53
f 32 53 54
f 32 54 33
f 33 55 56
f 33 56 57
f 33 57 34
f 33 54 55
f 34 57 44
f 34 44 58
f 34 58 59
f 34 59 60
f 34 60 35
f 38 51 61
f 38 61 62
f 38 62 39
f 39 62 40
f 40 62 63
f 40 63 64
f 40 64 65
f 40 65 66
f 40 66 54
f 40 54 53
f 43 58 44
f 44 57 45
f 45 57 46
f 46 56 67
f 46 67 47
f 46 57 56
f 47 67 68
f 48 69 70
f 49 71 72
f 49 72 73
f 50 74 51
f 51 74 75
f 51 75 76
f 51 76 61
f 54 66 77
f 54 77 78
f 54 78 79
f 54 79 55
f 55 80 56
f 55 79 80
f 56 80 81
f 56 81 82
f 56 82 68
f 56 68 67
f 61 76 83
f 61 83 84
f 61 84 62
f 62 84 85
f 62 85 63
f 63 85 86
f 63 86 87
f 63 87 88
f 63 88 65
f 63 65 64
f 65 77 66
f 65 88 89
f 65 89 77
f 69 90 91
f 69 91 70
f 70 91 93
f 70 93 94
f 70 94 92
f 71 95 72
f 72 95 96
f 72 96 83
f 72 83 76
f 72 76 73
f 73 76 97
f 75 97 76
f 77 89 98
f 77 98 99
f 77 99 100
f 77 100 101
f 77 101 78
f 78 101 102
f 78 102 103
f 78 103 80
f 78 80 79
f 80 103 81
f 83 96 104
f 83 104 105
f 83 105 106
f 83 106 85
f 83 85 84
f 85 106 107
f 85 107 86
f 86 108 109
f 86 109 87
f 86 107 110
f 86 110 108
f 87 109 88
f 88 94 93
f 88 93 89
f 88 109 92
f 88 92 94
f 89 93 98
f 90 111 91
f 91 111 112
f 91 112 93
f 93 112 98
f 98 112 99
f 99 112 113
f 100 114 101
f 101 114 102
f 102 114 103
f 108 110 115
f 108 115 109
f 109 115 116
f 109 116 117
f 110 117 116
f 110 116 115
f 111 113 112

