# https://github.com/mikedh/trimesh
v 0.05126383 0.00042328 -0.03127187
v 0.05126383 0.00479651 -0.03101828
v 0.05177966 0.00042328 -0.03077353
v 0.05126383 0.00042328 -0.02946723
v 0.05126383 0.00549427 -0.03093571
v 0.05165683 0.00479651 -0.03062314
v 0.05184107 0.00042328 -0.03069981
v 0.05126383 0.01343385 -0.02605846
v 0.05309945 0.00042328 -0.02277944
v 0.05290374 0.00042615 -0.00578280
v 0.05126414 0.02835969 -0.00115324
v 0.05126383 0.00585033 -0.03088263
v 0.05159169 0.00585033 -0.03054352
v 0.05202438 0.00585033 -0.03001275
v 0.05207898 0.00479651 -0.03009531
v 0.05226818 0.00042328 -0.03015134
v 0.05126383 0.01343385 -0.02832606
v 0.05126414 0.02970067 -0.00115324
v 0.05126414 0.02975809 -0.00179902
v 0.05412676 0.00042328 -0.02277944
v 0.05390901 0.00042615 -0.00534343
v 0.05335225 0.00042615 -0.00535228
v 0.05326509 0.00042615 -0.00536112
v 0.05311124 0.00042615 -0.00540536
v 0.05242048 0.01640294 -0.00115324
v 0.05228586 0.01745964 -0.00115324
v 0.05126383 0.00641888 -0.03079712
v 0.05150980 0.00690703 -0.03043442
v 0.05194498 0.00690703 -0.02990954
v 0.05126383 0.00732339 -0.03062904
v 0.05271329 0.00796086 -0.02845875
v 0.05276912 0.00690703 -0.02858555
v 0.05276384 0.00042328 -0.02935223
v 0.05272228 0.00042328 -0.02942595
v 0.05307278 0.00690703 -0.02805477
v 0.05126414 0.01427519 -0.02787195
v 0.05126414 0.01373823 -0.02816388
v 0.05126383 0.01275045 -0.02869465
v 0.05126414 0.02975235 -0.00285173
v 0.05126414 0.02965185 -0.00356533
v 0.05126414 0.02959729 -0.00390739
v 0.05126414 0.02939055 -0.00500727
v 0.05126414 0.02919529 -0.00598626
v 0.05126414 0.02897419 -0.00703897
v 0.05126414 0.02896557 -0.00707730
v 0.05126414 0.02873873 -0.00789411
v 0.05126414 0.02866120 -0.00815950
v 0.05126414 0.02793185 -0.01020299
v 0.05126414 0.02791749 -0.01024132
v 0.05126414 0.02759589 -0.01097261
v 0.05126414 0.02238993 -0.02060326
v 0.05126414 0.02209992 -0.02110455
v 0.05126414 0.02122125 -0.02248751
v 0.05126414 0.02053210 -0.02319817
v 0.05126414 0.02018465 -0.02350779
v 0.05126414 0.01951560 -0.02404446
v 0.05126414 0.01845029 -0.02487896
v 0.05126414 0.01643453 -0.02643590
v 0.05126414 0.01529743 -0.02723502
v 0.05126414 0.01471165 -0.02760361
v 0.05166892 0.02947095 -0.00115324
v 0.05172476 0.02950828 -0.00179902
v 0.05172941 0.02951402 -0.00285173
v 0.05435164 0.00042615 -0.02079198
v 0.05443259 0.00042615 -0.01973632
v 0.05440933 0.00042615 -0.01867772
v 0.05403929 0.00042615 -0.00602165
v 0.05403402 0.00042615 -0.00594203
v 0.05398501 0.00042615 -0.00535523
v 0.05411342 0.00042328 -0.02290624
v 0.05304083 0.01555873 -0.00115324
v 0.05273066 0.01555873 -0.00115324
v 0.05126383 0.00798670 -0.03047865
v 0.05187643 0.00767658 -0.02982697
v 0.05263202 0.00901755 -0.02829067
v 0.05303711 0.00796086 -0.02792798
v 0.05210410 0.00901755 -0.02911338
v 0.05296794 0.00042328 -0.02889517
v 0.05336000 0.00796086 -0.02712591
v 0.05180540 0.01689109 -0.02551884
v 0.05172041 0.01557022 -0.02643295
v 0.05296763 0.01343385 -0.02566333
v 0.05300392 0.01324147 -0.02571346
v 0.05163884 0.01218477 -0.02842042
v 0.05126383 0.01166216 -0.02922838
v 0.05187519 0.01076053 -0.02878312
v 0.05148716 0.01111659 -0.02917530
v 0.05289474 0.02855208 -0.00664089
v 0.05278121 0.02850040 -0.00734269
v 0.05240001 0.02868704 -0.00702717
v 0.05130043 0.02918667 -0.00602165
v 0.05130043 0.02896557 -0.00707730
v 0.05207742 0.02860951 -0.00782629
v 0.05130043 0.02791749 -0.01024132
v 0.05130043 0.02759589 -0.01097261
v 0.05130043 0.02239280 -0.02060916
v 0.05130043 0.02208843 -0.02113698
v 0.05130043 0.02122125 -0.02248751
v 0.05185689 0.02118679 -0.02241085
v 0.05235627 0.02904310 -0.00115324
v 0.05235627 0.02910053 -0.00179902
v 0.05235627 0.02913786 -0.00285173
v 0.05298221 0.02864397 -0.00115324
v 0.05297197 0.02862387 -0.00496304
v 0.05292296 0.02858080 -0.00602165
v 0.05423718 0.01007425 -0.02396189
v 0.05434823 0.01112807 -0.02290624
v 0.05435288 0.02485077 -0.00602165
v 0.05437862 0.01218190 -0.02184764
v 0.05404611 0.00057259 -0.00602165
v 0.05398997 0.00057259 -0.00534048
v 0.05400020 0.02383428 -0.00115324
v 0.05337148 0.01681356 -0.00115324
v 0.05332806 0.01640294 -0.00115324
v 0.05316273 0.01584301 -0.00115324
v 0.05398191 0.00042328 -0.02406805
v 0.05126383 0.00819919 -0.03042557
v 0.05147568 0.00800106 -0.03022506
v 0.05126383 0.00978136 -0.02999800
v 0.05172413 0.00901755 -0.02964415
v 0.05289226 0.00957749 -0.02766848
v 0.05294623 0.00901755 -0.02776285
v 0.05197290 0.01007425 -0.02892760
v 0.05325857 0.00901755 -0.02712591
v 0.05161898 0.01007425 -0.02945543
v 0.05320895 0.00042328 -0.02818157
v 0.05401851 0.01112807 -0.02469614
v 0.05405883 0.01007425 -0.02483178
v 0.05405945 0.00901755 -0.02494678
v 0.05201260 0.02062686 -0.02261726
v 0.05236031 0.01955006 -0.02289150
v 0.05274896 0.01979701 -0.02216020
v 0.05290374 0.01909637 -0.02241380
v 0.05193629 0.01618758 -0.02572820
v 0.05289877 0.01380427 -0.02556307
v 0.05324741 0.01343385 -0.02520627
v 0.05312737 0.01211586 -0.02609090
v 0.05343103 0.01324147 -0.02501460
v 0.05126383 0.01133195 -0.02938761
v 0.05300082 0.01112807 -0.02678681
v 0.05126383 0.01061983 -0.02970903
v 0.05126383 0.01112233 -0.02948492
v 0.05316707 0.02809552 -0.00702717
v 0.05317545 0.02785719 -0.00813001
v 0.05331317 0.02801512 -0.00602165
v 0.05305634 0.02766193 -0.00918566
v 0.05293196 0.02753846 -0.00982554
v 0.05233425 0.02767054 -0.01020299
v 0.05196762 0.02754133 -0.01088120
v 0.05201353 0.02236409 -0.02055313
v 0.05295770 0.02023347 -0.02145545
v 0.05271763 0.02199941 -0.01998107
v 0.05298593 0.02129878 -0.02041749
v 0.05299834 0.02866407 -0.00179902
v 0.05301943 0.02869566 -0.00285173
v 0.05301012 0.02867268 -0.00390739
v 0.05318506 0.02826781 -0.00115324
v 0.05420524 0.01112807 -0.02396189
v 0.05430015 0.01218477 -0.02290624
v 0.05435350 0.01323860 -0.02184764
v 0.05433675 0.02485077 -0.00707730
v 0.05430573 0.02590460 -0.00602165
v 0.05431814 0.02485077 -0.00496304
v 0.05406100 0.02485077 -0.00115324
v 0.05402812 0.02426212 -0.00115324
v 0.05346391 0.00042328 -0.02698437
v 0.05126383 0.01007425 -0.02990954
v 0.05308705 0.00998523 -0.02715245
v 0.05391739 0.01265282 -0.02446613
v 0.05397663 0.01195218 -0.02458408
v 0.05343631 0.00042328 -0.02712591
v 0.05304238 0.01949550 -0.02182404
v 0.05397570 0.01390477 -0.02352843
v 0.05383861 0.01324147 -0.02428036
v 0.05336342 0.01343385 -0.02501460
v 0.05395430 0.02647027 -0.00882592
v 0.05380107 0.02727715 -0.00602165
v 0.05363544 0.02687802 -0.00917977
v 0.05338358 0.02801512 -0.00496304
v 0.05390653 0.02635254 -0.00952772
v 0.05321174 0.02699001 -0.01020299
v 0.05303401 0.02662246 -0.01129992
v 0.05290466 0.02645879 -0.01187198
v 0.05267141 0.02736330 -0.01052735
v 0.05292048 0.02224923 -0.01927632
v 0.05312055 0.02060388 -0.02077724
v 0.05309883 0.02166058 -0.01967440
v 0.05347880 0.02062686 -0.01973632
v 0.05334636 0.02801512 -0.00179902
v 0.05382309 0.02726280 -0.00496304
v 0.05331999 0.02801512 -0.00115324
v 0.05408458 0.01225656 -0.02405331
v 0.05423315 0.01324147 -0.02290624
v 0.05424773 0.01324147 -0.02277944
v 0.05434078 0.01343385 -0.02185058
v 0.05421578 0.02062686 -0.01657231
v 0.05426107 0.01957016 -0.01657231
v 0.05431069 0.02485077 -0.00813001
v 0.05432062 0.02379407 -0.00918566
v 0.05424339 0.02485077 -0.00918566
v 0.05417081 0.02485077 -0.01024132
v 0.05402006 0.02565478 -0.01024132
v 0.05408830 0.02674880 -0.00602165
v 0.05398935 0.02656790 -0.00285173
v 0.05396392 0.02650760 -0.00204967
v 0.05399617 0.02582994 -0.00115324
v 0.05403340 0.02531021 -0.00115324
v 0.05401727 0.01343385 -0.02368766
v 0.05403433 0.01324147 -0.02374958
v 0.05341832 0.01957016 -0.02079493
v 0.05408085 0.01427519 -0.02290919
v 0.05400083 0.01506484 -0.02256123
v 0.05398997 0.02547388 -0.01092248
v 0.05378525 0.02618313 -0.01024132
v 0.05304890 0.02241291 -0.01868067
v 0.05340560 0.02168355 -0.01868067
v 0.05398935 0.02128155 -0.01729180
v 0.05399555 0.02030813 -0.01837400
v 0.05397601 0.01922559 -0.01936183
v 0.05404084 0.02673732 -0.00496304
v 0.05368848 0.02693545 -0.00115324
v 0.05428216 0.01429529 -0.02185058
v 0.05405449 0.02146245 -0.01657231
v 0.05406720 0.02485651 -0.01128518
v 0.05423067 0.02379407 -0.01129992
v 0.05420741 0.01957016 -0.01762501
v 0.05407248 0.02064696 -0.01763681
v 0.05389692 0.02636977 -0.00134197
v 0.05387490 0.02633244 -0.00115324
v 0.05395802 0.01809136 -0.02033197
v 0.05404611 0.01957590 -0.01870721
f 1 2 3
f 1 3 7
f 1 7 16
f 1 16 34
f 1 34 33
f 1 33 78
f 1 78 126
f 1 126 171
f 1 171 166
f 1 166 116
f 1 116 70
f 1 70 20
f 1 20 9
f 1 9 4
f 1 4 8
f 1 8 17
f 1 17 38
f 1 38 85
f 1 85 139
f 1 139 142
f 1 142 141
f 1 141 167
f 1 167 119
f 1 119 117
f 1 117 73
f 1 73 30
f 1 30 27
f 1 27 12
f 1 12 5
f 1 5 2
f 2 5 6
f 2 6 3
f 3 6 7
f 4 9 10
f 4 10 11
f 4 11 8
f 5 12 13
f 5 13 6
f 6 13 14
f 6 14 15
f 6 15 7
f 7 15 16
f 8 11 18
f 8 18 19
f 8 19 17
f 9 20 21
f 9 21 22
f 9 22 23
f 9 23 24
f 9 24 10
f 10 24 25
f 10 25 26
f 10 26 11
f 11 26 25
f 11 25 72
f 11 72 71
f 11 71 115
f 11 115 114
f 11 114 113
f 11 113 112
f 11 112 165
f 11 165 164
f 11 164 207
f 11 207 206
f 11 206 229
f 11 229 221
f 11 221 191
f 11 191 157
f 11 157 103
f 11 103 100
f 11 100 61
f 11 61 18
f 12 27 13
f 13 28 29
f 13 29 14
f 13 27 30
f 13 30 28
f 14 29 31
f 14 31 32
f 14 32 15
f 15 33 34
f 15 34 16
f 15 32 35
f 15 35 33
f 17 36 37
f 17 37 38
f 17 19 39
f 17 39 40
f 17 40 41
f 17 41 42
f 17 42 43
f 17 43 44
f 17 44 45
f 17 45 46
f 17 46 47
f 17 47 48
f 17 48 49
f 17 49 50
f 17 50 51
f 17 51 52
f 17 52 53
f 17 53 54
f 17 54 55
f 17 55 56
f 17 56 57
f 17 57 58
f 17 58 59
f 17 59 60
f 17 60 36
f 18 61 62
f 18 62 19
f 19 62 63
f 19 63 39
f 20 64 65
f 20 65 66
f 20 66 67
f 20 67 68
f 20 68 69
f 20 69 21
f 20 70 64
f 21 69 71
f 21 71 72
f 21 72 22
f 22 72 23
f 23 72 24
f 24 72 25
f 28 30 73
f 28 73 74
f 28 74 29
f 29 74 31
f 31 75 76
f 31 76 32
f 31 74 77
f 31 77 75
f 32 76 35
f 33 35 78
f 35 76 79
f 35 79 78
f 36 60 80
f 36 80 81
f 36 81 82
f 36 82 83
f 36 83 37
f 37 83 84
f 37 84 38
f 38 84 86
f 38 86 87
f 38 87 85
f 39 63 88
f 39 88 89
f 39 89 40
f 40 89 41
f 41 89 90
f 41 90 42
f 42 91 43
f 42 90 91
f 43 91 92
f 43 92 44
f 44 92 45
f 45 92 46
f 46 93 47
f 46 92 93
f 47 93 94
f 47 94 48
f 48 94 49
f 49 94 95
f 49 95 50
f 50 95 96
f 50 96 51
f 51 96 97
f 51 97 52
f 52 97 53
f 53 97 98
f 53 98 54
f 54 98 99
f 54 99 55
f 55 99 56
f 56 99 57
f 57 99 58
f 58 99 80
f 58 80 59
f 59 80 60
f 61 100 62
f 62 101 102
f 62 102 63
f 62 100 103
f 62 103 101
f 63 102 104
f 63 104 105
f 63 105 88
f 64 70 106
f 64 106 107
f 64 107 65
f 65 108 66
f 65 107 109
f 65 109 108
f 66 110 67
f 66 108 110
f 67 110 68
f 68 111 69
f 68 110 111
f 69 111 112
f 69 112 113
f 69 113 114
f 69 114 115
f 69 115 71
f 70 116 106
f 73 117 118
f 73 118 74
f 74 118 119
f 74 119 120
f 74 120 77
f 75 121 122
f 75 122 76
f 75 77 123
f 75 123 121
f 76 122 124
f 76 124 79
f 77 120 125
f 77 125 123
f 78 79 126
f 79 124 127
f 79 127 128
f 79 128 129
f 79 129 126
f 80 99 130
f 80 130 131
f 80 131 132
f 80 132 133
f 80 133 134
f 80 134 81
f 81 134 135
f 81 135 82
f 82 135 136
f 82 136 83
f 83 137 86
f 83 86 84
f 83 136 138
f 83 138 137
f 85 87 139
f 86 137 140
f 86 140 121
f 86 121 123
f 86 123 125
f 86 125 87
f 87 125 141
f 87 141 142
f 87 142 139
f 88 143 144
f 88 144 89
f 88 105 145
f 88 145 143
f 89 144 146
f 89 146 147
f 89 147 148
f 89 148 93
f 89 93 90
f 90 93 91
f 91 93 92
f 93 148 149
f 93 149 94
f 94 149 95
f 95 149 150
f 95 150 96
f 96 150 97
f 97 150 98
f 98 150 99
f 99 151 132
f 99 132 130
f 99 150 152
f 99 152 153
f 99 153 151
f 101 154 155
f 101 155 102
f 101 103 154
f 102 155 156
f 102 156 104
f 103 157 154
f 104 156 145
f 104 145 105
f 106 116 129
f 106 129 128
f 106 128 158
f 106 158 107
f 107 159 160
f 107 160 109
f 107 158 159
f 108 161 162
f 108 162 163
f 108 163 110
f 108 109 161
f 109 160 161
f 110 163 164
f 110 164 111
f 111 164 165
f 111 165 112
f 116 166 129
f 117 119 118
f 119 167 120
f 120 167 125
f 121 140 168
f 121 168 122
f 122 168 124
f 124 168 169
f 124 169 170
f 124 170 127
f 125 167 141
f 126 129 171
f 127 170 158
f 127 158 128
f 129 166 171
f 130 132 131
f 132 151 133
f 133 151 172
f 133 172 173
f 133 173 174
f 133 174 138
f 133 138 175
f 133 175 135
f 133 135 134
f 135 175 136
f 136 175 138
f 137 138 169
f 137 169 140
f 138 174 169
f 140 169 168
f 143 176 144
f 143 145 177
f 143 177 176
f 144 176 178
f 144 178 146
f 145 156 179
f 145 179 177
f 146 178 180
f 146 180 181
f 146 181 147
f 147 181 182
f 147 182 183
f 147 183 184
f 147 184 148
f 148 184 149
f 149 184 150
f 150 184 183
f 150 183 185
f 150 185 152
f 151 186 172
f 151 153 186
f 152 185 153
f 153 185 187
f 153 187 188
f 153 188 186
f 154 189 155
f 154 157 189
f 155 189 190
f 155 190 177
f 155 177 179
f 155 179 156
f 157 191 189
f 158 170 192
f 158 192 193
f 158 193 159
f 159 193 194
f 159 194 160
f 160 194 195
f 160 195 196
f 160 196 197
f 160 197 198
f 160 198 199
f 160 199 161
f 161 199 198
f 161 198 162
f 162 198 200
f 162 200 201
f 162 201 202
f 162 202 176
f 162 176 203
f 162 203 204
f 162 204 205
f 162 205 206
f 162 206 163
f 163 206 207
f 163 207 164
f 169 174 173
f 169 173 208
f 169 208 209
f 169 209 192
f 169 192 170
f 172 186 210
f 172 210 173
f 173 211 208
f 173 210 212
f 173 212 211
f 176 202 180
f 176 180 178
f 176 177 203
f 177 190 203
f 180 202 213
f 180 213 214
f 180 214 181
f 181 214 182
f 182 214 215
f 182 215 185
f 182 185 183
f 185 215 187
f 186 188 210
f 187 215 216
f 187 216 188
f 188 216 217
f 188 217 218
f 188 218 219
f 188 219 210
f 189 191 190
f 190 220 203
f 190 191 220
f 191 221 205
f 191 205 204
f 191 204 220
f 192 209 193
f 193 222 194
f 193 209 211
f 193 211 222
f 194 222 195
f 195 222 196
f 196 223 224
f 196 224 201
f 196 201 225
f 196 225 198
f 196 198 197
f 196 222 226
f 196 226 227
f 196 227 223
f 198 225 200
f 200 225 201
f 201 224 213
f 201 213 202
f 203 220 204
f 205 228 206
f 205 221 228
f 206 228 229
f 208 211 209
f 210 219 230
f 210 230 212
f 211 212 230
f 211 230 219
f 211 219 218
f 211 218 222
f 213 224 223
f 213 223 217
f 213 217 216
f 213 216 215
f 213 215 214
f 217 223 227
f 217 227 218
f 218 227 231
f 218 231 222
f 221 229 228
f 222 231 227
f 222 227 226

