# https://github.com/mikedh/trimesh
v 0.04985848 -0.03100476 -0.00114764
v 0.05013789 -0.03084055 -0.00114764
v 0.04985848 -0.02965001 -0.00114764
v 0.04985848 -0.03099162 -0.00283887
v 0.05014476 -0.03084219 -0.00285158
v 0.05034263 -0.03070425 -0.00114764
v 0.05225522 -0.01948693 -0.00114764
v 0.04985848 -0.02260696 -0.01970572
v 0.04985848 -0.03089638 -0.00390701
v 0.05007223 -0.03079621 -0.00390701
v 0.05067270 -0.03047600 -0.00285158
v 0.05060016 -0.03043494 -0.00390701
v 0.05066583 -0.03047107 -0.00114764
v 0.05245180 -0.01875783 -0.00114764
v 0.05164573 -0.01605655 -0.01970572
v 0.04985848 -0.02492235 -0.01970572
v 0.04985848 -0.03068783 -0.00478986
v 0.04990183 -0.03067470 -0.00476988
v 0.04985848 -0.02960568 -0.00892982
v 0.05109633 -0.02990783 -0.00390701
v 0.05107874 -0.02994724 -0.00285158
v 0.05108560 -0.02994231 -0.00179616
v 0.05102637 -0.02977974 -0.00496244
v 0.04985848 -0.02958433 -0.00900975
v 0.04992286 -0.02863190 -0.01235043
v 0.05107487 -0.02994395 -0.00114764
v 0.05258528 -0.01836372 -0.00114764
v 0.05284667 -0.01555898 -0.00741844
v 0.05223032 -0.01423051 -0.01970572
v 0.05001299 -0.02475321 -0.01970572
v 0.04985848 -0.02516046 -0.01942960
v 0.05162427 -0.02915081 -0.00390701
v 0.05155431 -0.02908841 -0.00496244
v 0.05161354 -0.02913603 -0.00179616
v 0.05127961 -0.02963195 -0.00114764
v 0.05060703 -0.02820002 -0.01129500
v 0.04985848 -0.02867295 -0.01234498
v 0.04985848 -0.02857607 -0.01268831
v 0.04989839 -0.02756780 -0.01551671
v 0.05356432 -0.01423051 -0.00725495
v 0.05355488 -0.01423051 -0.00727493
v 0.05323082 -0.01423051 -0.00812872
v 0.05314155 -0.01836372 -0.00114764
v 0.05334757 -0.01423051 -0.01970572
v 0.05060402 -0.02381228 -0.01970572
v 0.05070918 -0.02413578 -0.01907173
v 0.05049887 -0.02474664 -0.01870479
v 0.05001557 -0.02475978 -0.01969118
v 0.04985848 -0.02543798 -0.01902814
v 0.05187193 -0.02856129 -0.00496244
v 0.05190798 -0.02862369 -0.00390701
v 0.05191356 -0.02861219 -0.00285158
v 0.05183931 -0.02847754 -0.00552557
v 0.05190583 -0.02860891 -0.00179616
v 0.05178608 -0.02880104 -0.00114764
v 0.05160281 -0.02912453 -0.00114764
v 0.05057570 -0.02708010 -0.01446128
v 0.04985848 -0.02753168 -0.01571653
v 0.05044478 -0.02681079 -0.01548582
v 0.05404719 -0.01423051 -0.00725495
v 0.05328490 -0.01948693 -0.00114764
v 0.05406007 -0.01423051 -0.00725676
v 0.05334542 -0.01424365 -0.01970572
v 0.05389182 -0.01423051 -0.01657213
v 0.05344715 -0.01737681 -0.01657213
v 0.05083752 -0.02335577 -0.01970572
v 0.05087529 -0.02343295 -0.01951679
v 0.05083408 -0.02438374 -0.01836872
v 0.05066411 -0.02508820 -0.01783102
v 0.04989024 -0.02653984 -0.01736234
v 0.04995033 -0.02554471 -0.01868480
v 0.04985848 -0.02651028 -0.01744045
v 0.05206851 -0.02793071 -0.00496244
v 0.05213117 -0.02793071 -0.00390701
v 0.05216250 -0.02793071 -0.00285158
v 0.05215650 -0.02793071 -0.00179616
v 0.05195348 -0.02791922 -0.00593248
v 0.05080618 -0.02641504 -0.01511161
v 0.05095941 -0.02584522 -0.01548582
v 0.05116072 -0.02582059 -0.01446128
v 0.05195133 -0.02356432 -0.01446128
v 0.05292737 -0.01910104 -0.01733873
v 0.05199683 -0.02833303 -0.00114764
v 0.05189940 -0.02859577 -0.00114764
v 0.04985848 -0.02725744 -0.01626877
v 0.05001600 -0.02688468 -0.01652127
v 0.05057570 -0.02599465 -0.01657213
v 0.05290848 -0.02346086 -0.00114764
v 0.05422016 -0.01423051 -0.00812872
v 0.05421845 -0.01423051 -0.00811600
v 0.05216723 -0.01948693 -0.01970572
v 0.05323511 -0.01737681 -0.01762756
v 0.05301750 -0.01845897 -0.01766571
v 0.05292007 -0.01812562 -0.01824883
v 0.05401200 -0.01423051 -0.01572743
v 0.05324756 -0.01843105 -0.01657213
v 0.05401843 -0.01428798 -0.01555304
v 0.05336216 -0.01843105 -0.01551671
v 0.05098431 -0.02299614 -0.01970572
v 0.05098345 -0.02375480 -0.01870479
v 0.05104225 -0.02284014 -0.01970572
v 0.05090447 -0.02474664 -0.01753855
v 0.05078000 -0.02530661 -0.01712619
v 0.04985848 -0.02655462 -0.01737324
v 0.05328233 -0.01948693 -0.01340585
v 0.05334671 -0.01948693 -0.01235043
v 0.05233805 -0.02687483 -0.00390701
v 0.05237239 -0.02687483 -0.00285158
v 0.05238269 -0.02687483 -0.00179616
v 0.05237926 -0.02687483 -0.00114764
v 0.05213933 -0.02793071 -0.00114764
v 0.05298875 -0.01929481 -0.01657213
v 0.05085425 -0.02546589 -0.01657213
v 0.05187836 -0.02335577 -0.01525875
v 0.05112809 -0.02476471 -0.01657213
v 0.05190498 -0.02129162 -0.01848862
v 0.05206593 -0.02064134 -0.01877745
v 0.05194876 -0.02036054 -0.01970572
v 0.05282221 -0.01883009 -0.01804174
v 0.05414248 -0.01526504 -0.01024139
v 0.05413475 -0.01526504 -0.00918414
v 0.05424334 -0.01423051 -0.00918414
v 0.05402272 -0.01423051 -0.01560572
v 0.05402744 -0.01423051 -0.01555122
v 0.05408925 -0.01526504 -0.01129500
v 0.05395276 -0.01482003 -0.01522424
v 0.05397422 -0.01597608 -0.01129500
v 0.05406608 -0.01423051 -0.01474466
v 0.05407895 -0.01423051 -0.01446128
v 0.05422145 -0.01423051 -0.01127320
f 1 2 6
f 1 6 13
f 1 13 26
f 1 26 35
f 1 35 56
f 1 56 55
f 1 55 84
f 1 84 83
f 1 83 111
f 1 111 110
f 1 110 88
f 1 88 61
f 1 61 43
f 1 43 27
f 1 27 14
f 1 14 7
f 1 7 3
f 1 3 8
f 1 8 16
f 1 16 31
f 1 31 49
f 1 49 72
f 1 72 104
f 1 104 85
f 1 85 58
f 1 58 38
f 1 38 37
f 1 37 24
f 1 24 19
f 1 19 17
f 1 17 9
f 1 9 4
f 1 4 5
f 1 5 2
f 2 5 6
f 3 7 8
f 4 9 10
f 4 10 5
f 5 11 6
f 5 10 12
f 5 12 11
f 6 11 13
f 7 14 8
f 8 15 29
f 8 29 44
f 8 44 63
f 8 63 91
f 8 91 118
f 8 118 101
f 8 101 99
f 8 99 66
f 8 66 45
f 8 45 30
f 8 30 16
f 8 14 15
f 9 17 18
f 9 18 10
f 10 18 19
f 10 19 12
f 11 12 20
f 11 20 21
f 11 21 22
f 11 22 13
f 12 23 20
f 12 19 24
f 12 24 25
f 12 25 23
f 13 22 26
f 14 27 28
f 14 28 15
f 15 28 29
f 16 30 31
f 17 19 18
f 20 32 21
f 20 23 33
f 20 33 32
f 21 32 22
f 22 34 35
f 22 35 26
f 22 32 34
f 23 25 36
f 23 36 33
f 24 37 25
f 25 37 38
f 25 38 39
f 25 39 36
f 27 40 41
f 27 41 42
f 27 42 28
f 27 43 60
f 27 60 40
f 28 42 29
f 29 42 41
f 29 41 40
f 29 40 60
f 29 60 62
f 29 62 90
f 29 90 89
f 29 89 122
f 29 122 130
f 29 130 129
f 29 129 128
f 29 128 124
f 29 124 123
f 29 123 95
f 29 95 64
f 29 64 44
f 30 45 46
f 30 46 47
f 30 47 48
f 30 48 31
f 31 48 49
f 32 33 50
f 32 50 51
f 32 51 52
f 32 52 34
f 33 53 50
f 33 36 53
f 34 54 55
f 34 55 56
f 34 56 35
f 34 52 54
f 36 39 57
f 36 57 53
f 38 58 39
f 39 59 57
f 39 58 59
f 43 61 62
f 43 62 60
f 44 64 65
f 44 65 63
f 45 66 46
f 46 66 67
f 46 67 68
f 46 68 69
f 46 69 47
f 47 69 70
f 47 70 48
f 48 70 71
f 48 71 49
f 49 71 70
f 49 70 72
f 50 53 73
f 50 73 74
f 50 74 51
f 51 74 75
f 51 75 52
f 52 75 76
f 52 76 54
f 53 77 73
f 53 57 78
f 53 78 79
f 53 79 80
f 53 80 81
f 53 81 82
f 53 82 77
f 54 76 83
f 54 83 84
f 54 84 55
f 57 59 78
f 58 85 59
f 59 85 86
f 59 86 87
f 59 87 78
f 61 88 89
f 61 89 90
f 61 90 62
f 63 65 92
f 63 92 93
f 63 93 94
f 63 94 91
f 64 95 65
f 65 96 92
f 65 95 97
f 65 97 98
f 65 98 96
f 66 99 67
f 67 100 68
f 67 99 101
f 67 101 100
f 68 102 103
f 68 103 69
f 68 100 102
f 69 103 87
f 69 87 86
f 69 86 70
f 70 86 85
f 70 85 104
f 70 104 72
f 73 77 96
f 73 96 98
f 73 98 105
f 73 105 106
f 73 106 74
f 74 107 108
f 74 108 75
f 74 106 107
f 75 108 109
f 75 109 110
f 75 110 76
f 76 110 111
f 76 111 83
f 77 82 112
f 77 112 96
f 78 87 103
f 78 103 113
f 78 113 79
f 79 114 80
f 79 113 115
f 79 115 114
f 80 114 81
f 81 114 82
f 82 96 112
f 82 114 115
f 82 115 116
f 82 116 117
f 82 117 118
f 82 118 119
f 82 119 93
f 82 93 96
f 88 110 109
f 88 109 120
f 88 120 121
f 88 121 89
f 89 121 122
f 91 94 119
f 91 119 118
f 92 96 93
f 93 119 94
f 95 123 97
f 97 124 125
f 97 125 126
f 97 126 98
f 97 123 124
f 98 126 125
f 98 125 127
f 98 127 106
f 98 106 105
f 100 101 118
f 100 118 115
f 100 115 102
f 102 115 113
f 102 113 103
f 106 127 120
f 106 120 108
f 106 108 107
f 108 120 109
f 115 118 116
f 116 118 117
f 120 122 121
f 120 127 125
f 120 125 124
f 120 124 128
f 120 128 129
f 120 129 130
f 120 130 122

