# https://github.com/mikedh/trimesh
v 0.04237219 -0.00159390 0.03082207
v 0.04237219 -0.00159390 0.02976124
v 0.04179716 -0.00159390 0.03087492
v 0.04231852 -0.00523726 0.03040255
v 0.04237219 -0.00510829 0.03040821
v 0.04237219 -0.01357568 0.02673731
v 0.04179716 -0.01332696 0.02673731
v 0.04073911 -0.01295694 0.02673731
v 0.03968107 -0.01266983 0.02673731
v 0.03861535 -0.01249787 0.02673731
v 0.03757264 -0.01237351 0.02673731
v -0.00569998 -0.00159390 0.02892550
v 0.04173583 -0.00159390 0.03087916
v 0.04068545 -0.00159390 0.03093532
v 0.03968107 -0.00259648 0.03086076
v 0.01832077 -0.00451412 0.03148131
v 0.01751573 -0.00504381 0.03139589
v 0.02967562 -0.00736831 0.03040726
v 0.02912359 -0.00998299 0.02982353
v 0.04237219 -0.00787651 0.02974849
v 0.04237219 -0.00528793 0.03037612
v 0.04237219 -0.00520041 0.03039500
v 0.04237219 -0.01624256 0.02673731
v 0.03651459 -0.01233513 0.02673731
v -0.00675803 -0.00159390 0.02892409
v 0.03545655 -0.01229828 0.02673731
v 0.03482785 -0.01229367 0.02673731
v 0.03962740 -0.00159390 0.03097166
v 0.01832077 -0.00399364 0.03148131
v 0.00258039 -0.00159390 0.03150962
v 0.01751573 -0.00451565 0.03148272
v 0.01645769 -0.00888522 0.03051108
v 0.01751573 -0.00787651 0.03072769
v -0.03525631 -0.00354993 0.03153369
v 0.02912359 -0.01104084 0.02954935
v 0.01751573 -0.00881767 0.03050117
v 0.04237219 -0.00879310 0.02946819
v 0.02968328 -0.01158435 0.02935493
v 0.04237219 -0.01596467 0.02690625
v 0.02595711 -0.01606446 0.02741543
v 0.02701516 -0.01656038 0.02704876
v 0.02701516 -0.01695035 0.02673731
v -0.00887412 -0.00159390 0.02899629
v 0.00169102 -0.01302449 0.02673731
v 0.00063297 -0.01305981 0.02673731
v -0.00482594 -0.01336227 0.02673731
v -0.03593867 -0.00869638 0.02805155
v 0.03863068 -0.00159390 0.03099384
v 0.00187503 -0.00159390 0.03150962
v -0.03420593 -0.00259802 0.03155776
v 0.01645769 -0.00941338 0.03034545
v 0.01751573 -0.01104084 0.02981598
v 0.01857378 -0.01104084 0.02979663
v 0.01962416 -0.01104084 0.02977256
v 0.02912359 -0.01163348 0.02937003
v -0.02998141 -0.00776750 0.03048607
v -0.02892336 -0.00998299 0.02982778
v -0.03525631 -0.00259802 0.03155209
v -0.03593867 -0.00344092 0.03151481
v -0.03525631 -0.00407808 0.03139212
v -0.03103945 -0.00771837 0.03048560
v 0.04237219 -0.01209408 0.02843048
v 0.04237219 -0.01420670 0.02768913
v 0.04237219 -0.01560693 0.02711907
v 0.02595711 -0.01659262 0.02705678
v 0.02595711 -0.01467038 0.02821246
v 0.01013240 -0.01615965 0.02744421
v 0.01013240 -0.01727892 0.02673731
v -0.01198693 -0.00159390 0.02911190
v -0.00482594 -0.01540734 0.02673731
v -0.03593867 -0.01090112 0.02805155
v -0.03593867 -0.00159390 0.03018311
v -0.02992773 -0.00159390 0.02985514
v -0.03420593 -0.00159390 0.03143978
v -0.03420593 -0.00179657 0.03148838
v 0.01645769 -0.01104084 0.02982542
v 0.01857378 -0.01192059 0.02947762
v 0.01962416 -0.01191752 0.02946913
v 0.02068221 -0.01190370 0.02946064
v 0.02595711 -0.01414222 0.02850457
v 0.02701516 -0.01409923 0.02849607
v 0.04237219 -0.01507878 0.02737673
v -0.02998141 -0.00998299 0.02980512
v -0.02575689 -0.01315193 0.02876034
v -0.03525631 -0.00189944 0.03147706
v -0.03593867 -0.00259648 0.03151245
v -0.03593867 -0.00310468 0.03152095
v -0.03593867 -0.00448648 0.03119817
v -0.03593867 -0.00539387 0.03091692
v -0.03593867 -0.00576542 0.03079328
v 0.04237219 -0.01531675 0.02726300
v -0.02575689 -0.01397794 0.02846210
v -0.02575689 -0.01450610 0.02813130
v -0.02575689 -0.01461510 0.02805155
v 0.00928136 -0.01724053 0.02673731
v -0.02591022 -0.01460743 0.02805155
v -0.02680726 -0.01448153 0.02805155
v -0.02689160 -0.01446157 0.02805155
v -0.02784997 -0.01411459 0.02805155
v 0.00907435 -0.01722978 0.02673731
v -0.03593867 -0.01008586 0.02857913
v -0.03593867 -0.00159390 0.03131142
v -0.03525631 -0.00159390 0.03140391
v 0.01645769 -0.01189909 0.02948989
v 0.01751573 -0.01191598 0.02948706
v -0.03112379 -0.01008432 0.02962816
v -0.02998141 -0.01074759 0.02946866
v -0.02680726 -0.01388275 0.02840405
v -0.03544032 -0.00159390 0.03138645
v -0.03581600 -0.00205297 0.03146054
v -0.03593867 -0.00239075 0.03149027
v -0.03593867 -0.00647167 0.03049362
v -0.02680726 -0.01441091 0.02809732
v -0.02748196 -0.01377835 0.02834271
v -0.02753563 -0.01376913 0.02833752
v -0.03593867 -0.00979721 0.02874948
v -0.03593867 -0.00183188 0.03137890
v -0.03593867 -0.00857969 0.02944035
v -0.03153781 -0.01050193 0.02933558
v -0.03083245 -0.01061709 0.02940448
v -0.03593867 -0.00192861 0.03140580
v -0.03593867 -0.00208675 0.03144450
v -0.03593867 -0.00221725 0.03147092
v -0.03593867 -0.00910785 0.02915532
v -0.03593867 -0.00892207 0.02925866
f 1 2 12
f 1 12 25
f 1 25 43
f 1 43 69
f 1 69 73
f 1 73 72
f 1 72 102
f 1 102 109
f 1 109 103
f 1 103 74
f 1 74 49
f 1 49 30
f 1 30 48
f 1 48 28
f 1 28 14
f 1 14 13
f 1 13 3
f 1 3 4
f 1 4 5
f 1 5 22
f 1 22 21
f 1 21 20
f 1 20 37
f 1 37 62
f 1 62 63
f 1 63 82
f 1 82 91
f 1 91 64
f 1 64 39
f 1 39 23
f 1 23 6
f 1 6 2
f 2 6 7
f 2 7 8
f 2 8 9
f 2 9 10
f 2 10 11
f 2 11 12
f 3 13 4
f 4 13 14
f 4 14 15
f 4 15 16
f 4 16 17
f 4 17 18
f 4 18 19
f 4 19 20
f 4 20 21
f 4 21 22
f 4 22 5
f 6 23 42
f 6 42 68
f 6 68 95
f 6 95 100
f 6 100 70
f 6 70 46
f 6 46 45
f 6 45 44
f 6 44 27
f 6 27 26
f 6 26 24
f 6 24 11
f 6 11 10
f 6 10 9
f 6 9 8
f 6 8 7
f 11 24 12
f 12 24 26
f 12 26 27
f 12 27 25
f 14 28 16
f 14 16 15
f 16 29 30
f 16 30 31
f 16 31 17
f 16 28 29
f 17 32 33
f 17 33 19
f 17 19 18
f 17 31 34
f 17 34 32
f 19 35 20
f 19 33 36
f 19 36 35
f 20 35 38
f 20 38 37
f 23 39 40
f 23 40 41
f 23 41 42
f 25 27 44
f 25 44 45
f 25 45 46
f 25 46 47
f 25 47 43
f 28 48 29
f 29 48 30
f 30 49 50
f 30 50 31
f 31 50 34
f 32 51 52
f 32 52 53
f 32 53 54
f 32 54 55
f 32 55 35
f 32 35 36
f 32 36 33
f 32 34 56
f 32 56 57
f 32 57 51
f 34 50 58
f 34 58 59
f 34 59 60
f 34 60 61
f 34 61 56
f 35 55 38
f 37 38 62
f 38 55 63
f 38 63 62
f 39 64 40
f 40 65 41
f 40 64 66
f 40 66 67
f 40 67 68
f 40 68 65
f 41 65 42
f 42 65 68
f 43 47 69
f 46 70 71
f 46 71 47
f 47 71 101
f 47 101 116
f 47 116 124
f 47 124 125
f 47 125 118
f 47 118 112
f 47 112 90
f 47 90 89
f 47 89 88
f 47 88 59
f 47 59 87
f 47 87 86
f 47 86 111
f 47 111 123
f 47 123 122
f 47 122 121
f 47 121 117
f 47 117 102
f 47 102 72
f 47 72 73
f 47 73 69
f 49 74 75
f 49 75 50
f 50 75 58
f 51 76 52
f 51 57 76
f 52 76 77
f 52 77 78
f 52 78 79
f 52 79 53
f 53 79 55
f 53 55 54
f 55 79 80
f 55 80 81
f 55 81 82
f 55 82 63
f 56 61 57
f 57 61 83
f 57 83 84
f 57 84 76
f 58 75 85
f 58 85 86
f 58 86 87
f 58 87 59
f 59 88 60
f 60 88 89
f 60 89 61
f 61 89 90
f 61 90 83
f 64 91 81
f 64 81 66
f 66 81 80
f 66 80 67
f 67 80 92
f 67 92 93
f 67 93 68
f 68 93 94
f 68 94 95
f 70 96 97
f 70 97 98
f 70 98 99
f 70 99 71
f 70 100 96
f 71 99 101
f 74 103 75
f 75 103 85
f 76 104 105
f 76 105 77
f 76 84 92
f 76 92 104
f 77 105 80
f 77 80 78
f 78 80 79
f 80 105 92
f 81 91 82
f 83 90 106
f 83 106 107
f 83 107 108
f 83 108 92
f 83 92 84
f 85 103 109
f 85 109 110
f 85 110 111
f 85 111 86
f 90 112 106
f 92 108 113
f 92 113 93
f 92 105 104
f 93 113 97
f 93 97 96
f 93 96 94
f 94 96 95
f 95 96 100
f 97 113 98
f 98 113 114
f 98 114 115
f 98 115 99
f 99 115 101
f 101 115 116
f 102 117 110
f 102 110 109
f 106 112 118
f 106 118 119
f 106 119 120
f 106 120 108
f 106 108 107
f 108 120 114
f 108 114 113
f 110 117 121
f 110 121 122
f 110 122 123
f 110 123 111
f 114 120 119
f 114 119 115
f 115 119 124
f 115 124 116
f 118 125 119
f 119 125 124

