# https://github.com/mikedh/trimesh
v -0.04371012 0.00057349 0.03193522
v -0.04476558 0.00057349 0.03187984
v -0.04476558 -0.00048326 0.03188197
v -0.04371012 -0.00048326 0.03193522
v -0.04360398 0.00057349 0.03192883
v -0.04371012 0.00161850 0.03187132
v -0.04476558 0.00161850 0.03183299
v -0.04560398 0.00161850 0.03161148
v -0.04564274 0.00057349 0.03163917
v -0.04566301 -0.00048326 0.03164343
v -0.04567911 -0.00154001 0.03162639
v -0.04492300 -0.00159285 0.03178826
v -0.04476558 -0.00154001 0.03182447
v -0.04360398 -0.00048326 0.03192883
v -0.04371012 -0.00154001 0.03183299
v -0.04360398 -0.00154001 0.03182873
v -0.04360398 0.00161850 0.03186281
v -0.04371012 0.00267525 0.03172223
v -0.04476558 0.00267525 0.03168177
v -0.04541853 0.00267525 0.03152629
v -0.04582163 0.00584549 0.03081065
v -0.04639706 0.00646193 0.03043153
v -0.04613052 0.00161850 0.03132395
v -0.04616987 0.00057349 0.03133247
v -0.04687470 -0.00154001 0.03096826
v -0.04620625 -0.00154001 0.03135164
v -0.04624143 -0.00159285 0.03133034
v -0.04751692 -0.00365351 0.03051033
v -0.04746385 -0.00471026 0.03045496
v -0.04567196 -0.00159285 0.03162426
v -0.04552586 -0.00259676 0.03156036
v -0.04492300 -0.00175723 0.03177122
v -0.04537679 -0.00327778 0.03149434
v -0.04492300 -0.00277289 0.03163065
v -0.04376379 -0.00159285 0.03182660
v -0.04371012 -0.00159285 0.03182660
v -0.04360398 -0.00159285 0.03182021
v -0.04360398 0.00268112 0.03170732
v -0.04413707 0.00967328 0.03042514
v -0.04476558 0.00689637 0.03095548
v -0.04530821 0.00325646 0.03146239
v -0.04583535 0.00684941 0.03062109
v -0.04582163 0.01006662 0.02985859
v -0.04641793 0.01071241 0.02940280
v -0.04650976 0.01006662 0.02948161
v -0.04740004 0.00635039 0.02933464
v -0.04706433 0.00593356 0.02979683
v -0.04740482 0.00111948 0.03040171
v -0.04694626 0.00153043 0.03071693
v -0.04749128 -0.00048326 0.03050607
v -0.04752407 -0.00154001 0.03054654
v -0.04690869 -0.00159285 0.03094909
v -0.04753183 -0.00259676 0.03053802
v -0.04785025 -0.00365351 0.02987350
v -0.04780792 -0.00471026 0.02987350
v -0.04770177 -0.00681789 0.02973506
v -0.04741614 -0.00530321 0.03041236
v -0.04643344 -0.00741084 0.03042727
v -0.04578883 -0.00780419 0.03052737
v -0.04541614 -0.00864372 0.03046135
v -0.04492300 -0.00805663 0.03060618
v -0.04492300 -0.00867894 0.03046987
v -0.04492300 -0.01103902 0.02971376
v -0.04492300 -0.01118579 0.02966477
v -0.04492300 -0.01176700 0.02943262
v -0.04492300 -0.01391572 0.02841028
v -0.04492300 -0.01599987 0.02735386
v -0.04492300 -0.01752628 0.02644440
v -0.04492300 -0.01792550 0.02619734
v -0.04492300 -0.01855368 0.02573089
v -0.04492300 -0.01913489 0.02528362
v -0.04492300 -0.01966327 0.02481505
v -0.04492300 -0.02022100 0.02428684
v -0.04492300 -0.02448909 0.02008033
v -0.04492300 -0.02512901 0.01943711
v -0.04492300 -0.02550474 0.01903457
v -0.04492300 -0.02599789 0.01825716
v -0.04492300 -0.02613879 0.01800584
v -0.04492300 -0.02644995 0.01732853
v -0.04492300 -0.02843429 0.01148629
v -0.04360398 -0.00159285 0.03080426
v -0.04360398 0.01112337 0.02991610
v -0.04360398 0.01216838 0.02967543
v -0.04371012 0.01217425 0.02970098
v -0.04438275 0.00967328 0.03042514
v -0.04534101 0.00861653 0.03042727
v -0.04581268 0.01108815 0.02957958
v -0.04485443 0.01226231 0.02959875
v -0.04526647 0.01267327 0.02932186
v -0.04542867 0.01499225 0.02837833
v -0.04616391 0.01428775 0.02814830
v -0.04631895 0.01371241 0.02826119
v -0.04649843 0.01300791 0.02840389
v -0.04735651 0.01353041 0.02714513
v -0.04727840 0.00795312 0.02905776
v -0.04736427 0.00689637 0.02924732
v -0.04743701 0.00057349 0.03044005
v -0.04741793 0.01282591 0.02727079
v -0.04751811 0.01320165 0.02675750
v -0.04846087 -0.00519754 0.02829740
v -0.04772622 -0.00048326 0.02987137
v -0.04779301 -0.00159285 0.02987350
v -0.04784667 -0.00259676 0.02987350
v -0.04754137 -0.00159285 0.03051033
v -0.04752527 -0.00159285 0.03054654
v -0.04846087 -0.00525625 0.02829740
v -0.04804882 -0.00681789 0.02881708
v -0.04788543 -0.00787464 0.02881708
v -0.04754972 -0.00787464 0.02953272
v -0.04708937 -0.00681789 0.03026753
v -0.04646027 -0.01071612 0.02943901
v -0.04582103 -0.00998227 0.02991184
v -0.04582163 -0.01105663 0.02955828
v -0.04546981 -0.01170242 0.02940706
v -0.04546802 -0.01381592 0.02836555
v -0.04550976 -0.01591180 0.02730061
v -0.04529808 -0.01789615 0.02618030
v -0.04582103 -0.01904096 0.02520269
v -0.04582103 -0.01956933 0.02473411
v -0.04582103 -0.02014467 0.02420590
v -0.04543463 -0.02539320 0.01891103
v -0.04641137 -0.02005661 0.02412071
v -0.04552586 -0.02435993 0.01997171
v -0.04515973 -0.02626208 0.01754791
v -0.04508520 -0.02835797 0.01148629
v -0.04642390 -0.00159285 0.01017854
v -0.04521877 -0.00159285 0.01017854
v -0.04510726 -0.00047739 0.01017854
v -0.04360398 0.03012725 0.01017854
v -0.04360398 0.01227993 0.02964561
v -0.04371012 0.01299617 0.02944753
v -0.04456284 0.01301378 0.02945605
v -0.04508699 0.00932103 0.03032078
v -0.04476558 0.01112337 0.02993314
v -0.04476558 0.01428775 0.02887885
v -0.04476558 0.01516837 0.02849547
v -0.04532789 0.01695311 0.02725375
v -0.04573695 0.01630732 0.02740285
v -0.04636486 0.01589636 0.02724524
v -0.04650678 0.01534450 0.02738581
v -0.04672443 0.01428775 0.02762009
v -0.04725276 0.01428775 0.02695770
v -0.04743463 0.01493941 0.02625058
v -0.04748770 0.01428775 0.02643162
v -0.04774113 0.01323100 0.02564996
v -0.04765884 0.01428775 0.02564996
v -0.04876081 0.02168500 0.01720926
v -0.04892837 0.02168500 0.01615497
v -0.04968806 0.01957150 0.01017641
v -0.04969521 0.01891984 0.01017641
v -0.04900410 -0.01736777 0.01148629
v -0.04847816 -0.00650673 0.02736451
v -0.04782103 -0.01736777 0.02353925
v -0.04798084 -0.01103902 0.02670638
v -0.04802914 -0.00892552 0.02776280
v -0.04786337 -0.00998227 0.02776280
v -0.04763081 -0.01098618 0.02780965
v -0.04754912 -0.01190203 0.02749230
v -0.04732789 -0.01130320 0.02819303
v -0.04646564 -0.01498421 0.02734960
v -0.04621340 -0.01568284 0.02717069
v -0.04617285 -0.01142062 0.02926223
v -0.04584548 -0.01628167 0.02695557
v -0.04600171 -0.01769067 0.02606102
v -0.04635830 -0.01896464 0.02513240
v -0.04622950 -0.02416619 0.01977150
v -0.04655031 -0.02443038 0.01906651
v -0.04613827 -0.02513488 0.01852339
v -0.04580016 -0.02553997 0.01820817
v -0.04655508 -0.01938147 0.02452112
v -0.04714363 -0.01949888 0.02353925
v -0.04734459 -0.02091962 0.02179701
v -0.04730463 -0.02295093 0.01965649
v -0.04692717 -0.02373175 0.01936257
v -0.04660100 -0.02345582 0.02012293
v -0.04537321 -0.02639711 0.01684505
v -0.04640243 -0.02532862 0.01781841
v -0.04556820 -0.02652040 0.01615497
v -0.04609653 -0.02615641 0.01615497
v -0.04582163 -0.02783546 0.01148629
v -0.04608818 -0.02761824 0.01148629
v -0.04673219 -0.02706639 0.01148629
v -0.04691227 -0.02689026 0.01148629
v -0.04741495 -0.02635601 0.01148629
v -0.04754673 -0.02610357 0.01148629
v -0.04766003 -0.02584525 0.01148629
v -0.04789080 -0.02520533 0.01148629
v -0.04803868 -0.02475915 0.01148629
v -0.04847160 -0.02327970 0.01148629
v -0.04960577 0.01803334 0.01017641
v -0.04956343 0.01780438 0.01017641
v -0.04940601 0.01731123 0.01017641
v -0.04804465 0.01731123 0.01017641
v -0.04660279 0.02854800 0.01017641
v -0.04360398 0.03145406 0.01017854
v -0.04360398 0.01295507 0.02943475
v -0.04360398 0.01435820 0.02886820
v -0.04371012 0.01428775 0.02891719
v -0.04371012 0.01519186 0.02852955
v -0.04476558 0.01569675 0.02816321
v -0.04603153 0.01659499 0.02701308
v -0.04476558 0.01701181 0.02730061
v -0.04476558 0.01731123 0.02705994
v -0.04476558 0.01754606 0.02686825
v -0.04476558 0.01817424 0.02633791
v -0.04541734 0.01808031 0.02625910
v -0.04566898 0.01731123 0.02672342
v -0.04574828 0.01731123 0.02666591
v -0.04647279 0.01707052 0.02631022
v -0.04659802 0.01630732 0.02667869
v -0.04706433 0.01531514 0.02664248
v -0.04732849 0.01564978 0.02602695
v -0.04747220 0.01610771 0.02532409
v -0.04854673 0.02250104 0.01795259
v -0.04864095 0.02280633 0.01727529
v -0.04884608 0.02273588 0.01615497
v -0.04965645 0.02004704 0.01017641
v -0.04966898 0.01851475 0.01017641
v -0.04895401 -0.01842452 0.01148629
v -0.04800112 -0.01736777 0.02248283
v -0.04786098 -0.01842452 0.02248283
v -0.04757178 -0.01839517 0.02353925
v -0.04744059 -0.01803118 0.02413349
v -0.04753362 -0.01736777 0.02429749
v -0.04739170 -0.01471416 0.02616539
v -0.04675305 -0.01530124 0.02677240
v -0.04655687 -0.01631102 0.02645292
v -0.04640839 -0.01699204 0.02625484
v -0.04732372 -0.01872980 0.02389281
v -0.04647875 -0.01842452 0.02530705
v -0.04703749 -0.01839517 0.02452964
v -0.04728078 -0.02403704 0.01826568
v -0.04670475 -0.02477089 0.01820817
v -0.04733862 -0.01985700 0.02285130
v -0.04745788 -0.02021512 0.02214844
v -0.04746266 -0.02329731 0.01895150
v -0.04746623 -0.01915250 0.02318995
v -0.04652944 -0.02543429 0.01721139
v -0.04738931 -0.02420729 0.01763524
v -0.04667732 -0.02562803 0.01615497
v -0.04733445 -0.02624447 0.01218276
v -0.04751453 -0.02350866 0.01826568
v -0.04847041 -0.02325034 0.01159491
v -0.04660279 0.03085523 0.01017641
v -0.04362306 0.03145993 0.01017854
v -0.04360398 0.03108420 0.01088353
v -0.04360398 0.01516837 0.02851677
v -0.04360398 0.01653628 0.02754768
v -0.04395759 0.01701769 0.02730274
v -0.04370953 0.01815663 0.02632087
v -0.04370953 0.01868500 0.02584165
v -0.04370953 0.01923686 0.02531344
v -0.04476558 0.01870261 0.02582461
v -0.04646087 0.02440319 0.01992485
v -0.04612097 0.01778089 0.02599287
v -0.04572503 0.01736994 0.02663396
v -0.04635771 0.01731123 0.02620585
v -0.04718597 0.01643647 0.02566487
v -0.04660279 0.02432687 0.01985670
v -0.04716391 0.02403333 0.01957981
v -0.04743523 0.02332883 0.01989503
v -0.04757059 0.02372805 0.01926459
v -0.04794924 0.02379262 0.01826355
v -0.04840004 0.02319967 0.01767357
v -0.04854435 0.02352257 0.01696859
v -0.04892837 0.02273588 0.01509856
v -0.04953242 0.02126230 0.01017641
v -0.04952109 0.02120359 0.01040644
v -0.04956761 0.02098050 0.01017641
v -0.04858848 0.02384546 0.01607191
v -0.04846981 -0.02230514 0.01264068
v -0.04799635 -0.02053802 0.01932423
v -0.04757118 -0.01949888 0.02249348
v -0.04782342 -0.02053802 0.02037852
v -0.04729450 -0.01525427 0.02600139
v -0.04780374 -0.02158890 0.01932423
v -0.04776438 -0.02264565 0.01826568
v -0.04797130 -0.02158890 0.01826568
v -0.04664930 0.03083175 0.01017641
v -0.04621757 0.03109007 0.01017854
v -0.04583892 0.03126619 0.01017854
v -0.04476558 0.03154212 0.01017854
v -0.04370953 0.03148341 0.01017854
v -0.04370953 0.03110181 0.01087501
v -0.04360398 0.03072608 0.01150758
v -0.04360398 0.01731123 0.02696835
v -0.04372384 0.01731123 0.02700456
v -0.04360398 0.01813902 0.02630809
v -0.04360398 0.01874371 0.02575006
v -0.04360398 0.01921925 0.02529640
v -0.04370953 0.02081611 0.02374798
v -0.04476558 0.02133275 0.02320486
v -0.04582044 0.02443255 0.01995893
v -0.04582044 0.02496092 0.01940729
v -0.04582044 0.02545407 0.01887908
v -0.04641614 0.02541885 0.01884075
v -0.04679003 0.02474957 0.01920921
v -0.04745073 0.02439732 0.01887482
v -0.04757953 0.02462041 0.01826355
v -0.04828973 0.02384546 0.01727529
v -0.04840004 0.02422707 0.01636796
v -0.04880493 0.02484937 0.01017641
v -0.04898144 0.02379262 0.01087501
v -0.04747935 0.02982784 0.01017641
v -0.04761054 0.02942275 0.01017641
v -0.04772920 0.02904115 0.01017641
v -0.04697786 0.03050298 0.01017641
v -0.04737738 0.02534839 0.01765867
v -0.04717106 0.02514879 0.01826355
v -0.04649843 0.03076130 0.01049376
v -0.04574053 0.03087285 0.01085797
v -0.04533505 0.03067324 0.01142665
v -0.04476558 0.03072021 0.01149054
v -0.04370953 0.03073195 0.01151397
v -0.04360398 0.02950494 0.01341595
v -0.04360398 0.01735232 0.02693640
v -0.04360398 0.02087482 0.02365426
v -0.04370953 0.02134449 0.02321977
v -0.04476558 0.02546581 0.01889399
v -0.04360398 0.02860671 0.01465980
v -0.04370953 0.02950494 0.01340956
v -0.04728854 0.03013312 0.01017641
v -0.04713946 0.03032686 0.01017641
v -0.04360398 0.02132688 0.02320060
v -0.04407625 0.02543646 0.01885992
v -0.04360398 0.02635818 0.01754791
v -0.04360398 0.02580045 0.01823586
f 1 2 3
f 1 3 4
f 1 4 14
f 1 14 5
f 1 5 6
f 1 6 7
f 1 7 2
f 2 7 8
f 2 8 9
f 2 9 10
f 2 10 3
f 3 10 11
f 3 11 12
f 3 12 13
f 3 13 4
f 4 13 15
f 4 15 16
f 4 16 14
f 5 14 16
f 5 16 37
f 5 37 81
f 5 81 129
f 5 129 195
f 5 195 246
f 5 246 285
f 5 285 315
f 5 315 320
f 5 320 326
f 5 326 327
f 5 327 324
f 5 324 317
f 5 317 290
f 5 290 289
f 5 289 288
f 5 288 316
f 5 316 286
f 5 286 248
f 5 248 247
f 5 247 197
f 5 197 196
f 5 196 130
f 5 130 83
f 5 83 82
f 5 82 38
f 5 38 17
f 5 17 6
f 6 17 18
f 6 18 7
f 7 18 19
f 7 19 20
f 7 20 8
f 8 20 21
f 8 21 22
f 8 22 23
f 8 23 9
f 9 23 24
f 9 24 25
f 9 25 26
f 9 26 10
f 10 26 11
f 11 26 27
f 11 27 28
f 11 28 29
f 11 29 30
f 11 30 12
f 12 30 31
f 12 31 32
f 12 32 13
f 13 32 33
f 13 33 34
f 13 34 35
f 13 35 15
f 15 35 36
f 15 36 16
f 16 36 37
f 17 38 18
f 18 38 39
f 18 39 40
f 18 40 19
f 19 41 20
f 19 40 41
f 20 41 21
f 21 41 42
f 21 42 22
f 22 42 43
f 22 43 44
f 22 44 45
f 22 45 46
f 22 46 47
f 22 47 48
f 22 48 49
f 22 49 23
f 23 49 50
f 23 50 51
f 23 51 52
f 23 52 25
f 23 25 24
f 25 52 26
f 26 52 27
f 27 52 28
f 28 53 54
f 28 54 55
f 28 55 29
f 28 52 53
f 29 55 56
f 29 56 57
f 29 57 30
f 30 57 31
f 31 57 58
f 31 58 33
f 31 33 32
f 33 58 59
f 33 59 60
f 33 60 34
f 34 60 61
f 34 61 36
f 34 36 35
f 36 61 37
f 37 61 62
f 37 62 63
f 37 63 64
f 37 64 65
f 37 65 66
f 37 66 67
f 37 67 68
f 37 68 69
f 37 69 70
f 37 70 71
f 37 71 72
f 37 72 73
f 37 73 74
f 37 74 75
f 37 75 76
f 37 76 77
f 37 77 78
f 37 78 79
f 37 79 80
f 37 80 81
f 38 82 39
f 39 82 83
f 39 83 84
f 39 84 85
f 39 85 40
f 40 85 86
f 40 86 42
f 40 42 41
f 42 86 43
f 43 87 44
f 43 86 88
f 43 88 87
f 44 87 89
f 44 89 90
f 44 90 91
f 44 91 92
f 44 92 93
f 44 93 94
f 44 94 45
f 45 94 95
f 45 95 96
f 45 96 46
f 46 97 48
f 46 48 47
f 46 96 98
f 46 98 99
f 46 99 100
f 46 100 101
f 46 101 97
f 48 97 49
f 49 97 50
f 50 101 102
f 50 102 103
f 50 103 104
f 50 104 51
f 50 97 101
f 51 104 105
f 51 105 52
f 52 105 53
f 53 105 54
f 54 105 103
f 54 103 100
f 54 100 106
f 54 106 55
f 55 106 56
f 56 107 108
f 56 108 109
f 56 109 110
f 56 110 57
f 56 106 107
f 57 110 58
f 58 110 111
f 58 111 112
f 58 112 60
f 58 60 59
f 60 112 113
f 60 113 114
f 60 114 64
f 60 64 63
f 60 63 62
f 60 62 61
f 64 114 65
f 65 114 66
f 66 115 116
f 66 116 67
f 66 114 115
f 67 116 117
f 67 117 68
f 68 117 69
f 69 117 70
f 70 117 71
f 71 117 118
f 71 118 119
f 71 119 72
f 72 119 120
f 72 120 73
f 73 120 74
f 74 120 75
f 75 121 76
f 75 120 122
f 75 122 123
f 75 123 121
f 76 121 77
f 77 121 78
f 78 121 124
f 78 124 79
f 79 124 125
f 79 125 80
f 80 125 126
f 80 126 127
f 80 127 128
f 80 128 129
f 80 129 81
f 83 130 84
f 84 130 131
f 84 131 132
f 84 132 85
f 85 133 86
f 85 132 88
f 85 88 134
f 85 134 133
f 86 133 88
f 87 88 89
f 88 133 134
f 88 132 89
f 89 132 90
f 90 132 135
f 90 135 136
f 90 136 137
f 90 137 138
f 90 138 139
f 90 139 91
f 91 139 140
f 91 140 92
f 92 140 93
f 93 140 141
f 93 141 94
f 94 98 95
f 94 141 142
f 94 142 143
f 94 143 144
f 94 144 98
f 95 98 96
f 98 144 99
f 99 145 100
f 99 144 146
f 99 146 145
f 100 103 102
f 100 102 101
f 100 145 147
f 100 147 148
f 100 148 149
f 100 149 150
f 100 150 106
f 103 105 104
f 106 150 151
f 106 151 152
f 106 152 153
f 106 153 154
f 106 154 155
f 106 155 156
f 106 156 108
f 106 108 107
f 108 156 157
f 108 157 109
f 109 157 158
f 109 158 159
f 109 159 111
f 109 111 110
f 111 159 160
f 111 160 161
f 111 161 162
f 111 162 113
f 111 113 112
f 113 162 114
f 114 162 161
f 114 161 115
f 115 161 116
f 116 161 163
f 116 163 164
f 116 164 117
f 117 164 165
f 117 165 118
f 118 165 119
f 119 122 120
f 119 165 122
f 121 123 122
f 121 122 166
f 121 166 167
f 121 167 168
f 121 168 169
f 121 169 124
f 122 165 170
f 122 170 171
f 122 171 172
f 122 172 173
f 122 173 174
f 122 174 175
f 122 175 166
f 124 176 125
f 124 169 177
f 124 177 176
f 125 176 178
f 125 178 179
f 125 179 180
f 125 180 126
f 126 180 181
f 126 181 182
f 126 182 183
f 126 183 184
f 126 184 185
f 126 185 186
f 126 186 187
f 126 187 188
f 126 188 189
f 126 189 190
f 126 190 191
f 126 191 192
f 126 192 193
f 126 193 127
f 127 193 194
f 127 194 128
f 128 194 129
f 129 194 244
f 129 244 195
f 130 196 131
f 131 196 197
f 131 197 198
f 131 198 132
f 132 198 199
f 132 199 136
f 132 136 135
f 136 199 200
f 136 200 137
f 137 201 138
f 137 200 202
f 137 202 203
f 137 203 204
f 137 204 205
f 137 205 206
f 137 206 207
f 137 207 208
f 137 208 201
f 138 201 139
f 139 201 209
f 139 209 210
f 139 210 140
f 140 210 211
f 140 211 142
f 140 142 141
f 142 211 212
f 142 212 143
f 143 212 213
f 143 213 214
f 143 214 144
f 144 214 146
f 145 146 147
f 146 214 147
f 147 214 215
f 147 215 216
f 147 216 148
f 148 216 217
f 148 217 149
f 149 217 269
f 149 269 267
f 149 267 302
f 149 302 306
f 149 306 305
f 149 305 304
f 149 304 322
f 149 322 323
f 149 323 307
f 149 307 279
f 149 279 244
f 149 244 194
f 149 194 193
f 149 193 192
f 149 192 191
f 149 191 190
f 149 190 218
f 149 218 150
f 150 218 219
f 150 219 151
f 151 219 152
f 152 219 220
f 152 220 153
f 153 220 221
f 153 221 222
f 153 222 223
f 153 223 224
f 153 224 158
f 153 158 157
f 153 157 156
f 153 156 154
f 154 156 155
f 158 224 223
f 158 223 225
f 158 225 159
f 159 225 226
f 159 226 160
f 160 226 227
f 160 227 228
f 160 228 161
f 161 228 165
f 161 165 164
f 161 164 163
f 165 229 170
f 165 228 230
f 165 230 231
f 165 231 229
f 166 175 167
f 167 175 174
f 167 174 232
f 167 232 233
f 167 233 177
f 167 177 168
f 168 177 169
f 170 229 171
f 171 234 172
f 171 229 234
f 172 235 236
f 172 236 173
f 172 234 237
f 172 237 235
f 173 236 174
f 174 236 232
f 176 177 178
f 177 238 179
f 177 179 178
f 177 233 239
f 177 239 238
f 179 182 181
f 179 181 180
f 179 238 182
f 182 238 240
f 182 240 183
f 183 241 184
f 183 240 241
f 184 241 239
f 184 239 185
f 185 239 186
f 186 239 187
f 187 239 188
f 188 239 242
f 188 242 243
f 188 243 189
f 189 243 219
f 189 219 218
f 189 218 190
f 195 244 245
f 195 245 246
f 197 247 199
f 197 199 198
f 199 247 248
f 199 248 249
f 199 249 202
f 199 202 200
f 201 208 209
f 202 249 203
f 203 249 204
f 204 249 205
f 205 249 250
f 205 250 251
f 205 251 252
f 205 252 253
f 205 253 254
f 205 254 206
f 206 254 255
f 206 255 256
f 206 256 207
f 207 256 208
f 208 256 255
f 208 255 257
f 208 257 209
f 209 258 212
f 209 212 210
f 209 257 254
f 209 254 259
f 209 259 260
f 209 260 261
f 209 261 258
f 210 212 211
f 212 258 261
f 212 261 214
f 212 214 213
f 214 261 262
f 214 262 263
f 214 263 264
f 214 264 265
f 214 265 215
f 215 265 216
f 216 266 267
f 216 267 268
f 216 268 269
f 216 269 217
f 216 265 270
f 216 270 266
f 219 243 271
f 219 271 220
f 220 271 272
f 220 272 221
f 221 273 222
f 221 272 274
f 221 274 236
f 221 236 273
f 222 273 237
f 222 237 229
f 222 229 223
f 223 229 231
f 223 231 275
f 223 275 225
f 225 275 226
f 226 275 231
f 226 231 227
f 227 231 230
f 227 230 228
f 229 237 234
f 232 236 239
f 232 239 233
f 235 237 273
f 235 273 236
f 236 242 239
f 236 274 276
f 236 276 277
f 236 277 242
f 238 241 240
f 238 239 241
f 242 277 243
f 243 277 278
f 243 278 272
f 243 272 271
f 244 279 280
f 244 280 281
f 244 281 282
f 244 282 283
f 244 283 245
f 245 283 246
f 246 283 284
f 246 284 285
f 248 286 249
f 249 286 287
f 249 287 288
f 249 288 250
f 250 288 251
f 251 288 289
f 251 289 290
f 251 290 252
f 252 290 291
f 252 291 253
f 253 291 292
f 253 292 254
f 254 292 293
f 254 293 294
f 254 294 295
f 254 295 296
f 254 296 297
f 254 297 260
f 254 260 259
f 254 257 255
f 260 297 298
f 260 298 261
f 261 298 262
f 262 298 263
f 263 298 299
f 263 299 300
f 263 300 265
f 263 265 264
f 265 300 301
f 265 301 270
f 266 270 302
f 266 302 303
f 266 303 267
f 267 269 268
f 267 303 302
f 270 301 304
f 270 304 305
f 270 305 306
f 270 306 302
f 272 278 276
f 272 276 274
f 276 278 277
f 279 307 308
f 279 308 309
f 279 309 310
f 279 310 280
f 280 310 281
f 281 310 296
f 281 296 311
f 281 311 312
f 281 312 282
f 282 284 283
f 282 312 313
f 282 313 314
f 282 314 284
f 284 314 285
f 285 314 315
f 286 316 287
f 287 316 288
f 290 317 291
f 291 317 318
f 291 318 292
f 292 318 293
f 293 318 294
f 294 318 319
f 294 319 295
f 295 319 320
f 295 320 321
f 295 321 296
f 296 309 298
f 296 298 297
f 296 321 313
f 296 313 312
f 296 312 311
f 296 310 309
f 298 309 308
f 298 308 299
f 299 301 300
f 299 308 304
f 299 304 301
f 304 308 322
f 307 323 308
f 308 323 322
f 313 321 315
f 313 315 314
f 315 321 320
f 317 324 318
f 318 324 325
f 318 325 319
f 319 325 320
f 320 325 326
f 324 327 325
f 325 327 326

