# https://github.com/mikedh/trimesh
v 0.04237985 -0.00159390 0.03082167
v 0.04280187 -0.00159390 0.03078338
v 0.04237985 -0.00159390 0.02976145
v 0.04237985 -0.00510826 0.03040806
v 0.04285583 -0.00159390 0.03077839
v 0.04602256 -0.00159390 0.02900248
v 0.04237985 -0.01913562 0.02232076
v 0.04237985 -0.00520030 0.03039475
v 0.04918848 -0.00470817 0.02972067
v 0.04918848 -0.00365255 0.02985632
v 0.05024432 -0.00259693 0.02980389
v 0.04391087 -0.00159390 0.03064108
v 0.05060755 -0.00159390 0.02835919
v 0.05060755 -0.01811005 0.02232076
v 0.04237985 -0.02046736 0.02232076
v 0.04918848 -0.00576380 0.02955256
v 0.04237985 -0.00528858 0.03037644
v 0.04391087 -0.00787504 0.02976893
v 0.04813264 -0.01104190 0.02880775
v 0.05024432 -0.00365255 0.02971234
v 0.05060755 -0.00259693 0.02968322
v 0.05060755 -0.00212547 0.02967406
v 0.05060755 -0.00159390 0.02965825
v 0.05024432 -0.00159390 0.02977393
v 0.05060755 -0.00365255 0.02959917
v 0.05060755 -0.01992076 0.02232076
v 0.04269073 -0.02054812 0.02232076
v 0.04285583 -0.02052183 0.02248636
v 0.04237985 -0.02039410 0.02249552
v 0.04972405 -0.00630100 0.02934867
v 0.04237985 -0.00787504 0.02974896
v 0.04285583 -0.00787504 0.02977226
v 0.04707759 -0.01209564 0.02867875
v 0.04813264 -0.01209564 0.02859554
v 0.04892351 -0.01209564 0.02840912
v 0.05030714 -0.00476640 0.02949264
v 0.05060755 -0.00459735 0.02944438
v 0.05060755 -0.01935539 0.02294574
v 0.05024432 -0.02015368 0.02232076
v 0.04285583 -0.02057630 0.02232076
v 0.04375704 -0.02066458 0.02232076
v 0.04391087 -0.02062514 0.02248636
v 0.04391087 -0.02027764 0.02336267
v 0.04285583 -0.02017622 0.02323950
v 0.04237985 -0.02020815 0.02290246
v 0.05060755 -0.00523223 0.02932537
v 0.04237985 -0.00879354 0.02946851
v 0.04602256 -0.01209564 0.02866877
v 0.04707759 -0.01296531 0.02839913
v 0.04813264 -0.01285637 0.02836252
v 0.04872700 -0.01270610 0.02831758
v 0.04983036 -0.01073761 0.02834587
v 0.04995358 -0.01401154 0.02736138
v 0.05028057 -0.01311558 0.02746624
v 0.05060755 -0.00506506 0.02935700
v 0.05060755 -0.01912435 0.02318291
v 0.05024432 -0.01976298 0.02274934
v 0.04945184 -0.01995081 0.02295156
v 0.04991251 -0.02026825 0.02232076
v 0.04602256 -0.02078292 0.02232076
v 0.04496671 -0.02029643 0.02336433
v 0.04391087 -0.01986441 0.02389028
v 0.04285583 -0.01979491 0.02376795
v 0.04602256 -0.02071529 0.02248636
v 0.04237985 -0.01973105 0.02363563
v 0.04237985 -0.02009545 0.02313048
v 0.05060755 -0.00947162 0.02828096
v 0.04237985 -0.01209376 0.02842993
v 0.04315140 -0.01268168 0.02830843
v 0.04391087 -0.01277560 0.02833422
v 0.04496671 -0.01287703 0.02836668
v 0.04602256 -0.01293901 0.02839331
v 0.04391087 -0.01521367 0.02744543
v 0.04496671 -0.01519676 0.02746042
v 0.04707759 -0.01511975 0.02744460
v 0.04813264 -0.01507467 0.02742963
v 0.04813264 -0.01420689 0.02780661
v 0.04899197 -0.01493755 0.02735389
v 0.04928190 -0.01430080 0.02752533
v 0.04969506 -0.01471591 0.02721741
v 0.05028057 -0.01430080 0.02703599
v 0.05060755 -0.01355698 0.02713502
v 0.05060755 -0.01348185 0.02716498
v 0.05060755 -0.01339920 0.02719162
v 0.05060755 -0.01288079 0.02734391
v 0.05024432 -0.01923517 0.02329110
v 0.05060755 -0.01827159 0.02400929
v 0.05024432 -0.01870173 0.02381871
v 0.04813264 -0.01959581 0.02363313
v 0.04874794 -0.02003158 0.02303312
v 0.04913533 -0.02032648 0.02255460
v 0.04915063 -0.02049929 0.02232076
v 0.04948164 -0.01889332 0.02400263
v 0.04877774 -0.01898911 0.02409833
v 0.04707759 -0.02076225 0.02232076
v 0.04602256 -0.02026825 0.02331357
v 0.04496671 -0.01986441 0.02389278
v 0.04391087 -0.01933660 0.02446866
v 0.04285583 -0.01926710 0.02441540
v 0.04237985 -0.01919385 0.02433717
v 0.04237985 -0.01420689 0.02768844
v 0.04285583 -0.01514793 0.02740383
v 0.04285583 -0.01567574 0.02714252
v 0.04391087 -0.01574148 0.02718163
v 0.04496671 -0.01572458 0.02716831
v 0.04813264 -0.01560248 0.02710257
v 0.04918848 -0.01619416 0.02651920
v 0.04928190 -0.01527941 0.02707344
v 0.05000754 -0.01602511 0.02637939
v 0.05031278 -0.01530383 0.02657329
v 0.05060755 -0.01558370 0.02623708
v 0.05060755 -0.01805746 0.02421234
v 0.05024432 -0.01817392 0.02432219
v 0.04813264 -0.01906800 0.02417323
v 0.04707759 -0.01919009 0.02428724
v 0.04707759 -0.01971790 0.02374548
v 0.04813264 -0.02009920 0.02310552
v 0.04707759 -0.02019688 0.02321787
v 0.04707759 -0.02066458 0.02248636
v 0.04918848 -0.01672197 0.02605566
v 0.04602256 -0.01981745 0.02384118
v 0.04496671 -0.01933660 0.02444286
v 0.04391087 -0.01882006 0.02499628
v 0.04285583 -0.01877310 0.02494301
v 0.04237985 -0.01870173 0.02486479
v 0.04237985 -0.01507843 0.02737553
v 0.04237985 -0.01531698 0.02726235
v 0.04237985 -0.01560624 0.02711838
v 0.04237985 -0.01596500 0.02690534
v 0.04285583 -0.01705819 0.02632030
v 0.04391087 -0.01709575 0.02634277
v 0.04391087 -0.01762357 0.02598160
v 0.04496671 -0.01755782 0.02593000
v 0.04496671 -0.01824154 0.02540239
v 0.04602256 -0.01867919 0.02491389
v 0.04602256 -0.01928964 0.02438627
v 0.05060755 -0.01690980 0.02518269
v 0.05060755 -0.01573397 0.02615636
v 0.04496671 -0.01876935 0.02497048
v 0.04391087 -0.01829225 0.02545398
v 0.04285583 -0.01824529 0.02542070
v 0.04237985 -0.01817392 0.02536328
v 0.04237985 -0.01699808 0.02628202
v 0.04285583 -0.01758600 0.02594831
v 0.04237985 -0.01752589 0.02589089
f 1 2 5
f 1 5 12
f 1 12 24
f 1 24 23
f 1 23 13
f 1 13 6
f 1 6 3
f 1 3 7
f 1 7 15
f 1 15 29
f 1 29 45
f 1 45 66
f 1 66 65
f 1 65 100
f 1 100 125
f 1 125 142
f 1 142 145
f 1 145 143
f 1 143 129
f 1 129 128
f 1 128 127
f 1 127 126
f 1 126 101
f 1 101 68
f 1 68 47
f 1 47 31
f 1 31 17
f 1 17 8
f 1 8 4
f 1 4 2
f 2 4 5
f 3 6 7
f 4 8 9
f 4 9 10
f 4 10 5
f 5 10 11
f 5 11 12
f 6 13 7
f 7 14 26
f 7 26 39
f 7 39 59
f 7 59 92
f 7 92 95
f 7 95 60
f 7 60 41
f 7 41 40
f 7 40 27
f 7 27 15
f 7 13 14
f 8 16 9
f 8 17 18
f 8 18 19
f 8 19 16
f 9 20 10
f 9 16 20
f 10 20 11
f 11 21 22
f 11 22 23
f 11 23 24
f 11 24 12
f 11 20 25
f 11 25 21
f 13 23 22
f 13 22 21
f 13 21 25
f 13 25 37
f 13 37 55
f 13 55 46
f 13 46 67
f 13 67 85
f 13 85 84
f 13 84 83
f 13 83 82
f 13 82 111
f 13 111 138
f 13 138 137
f 13 137 112
f 13 112 87
f 13 87 56
f 13 56 38
f 13 38 26
f 13 26 14
f 15 27 28
f 15 28 29
f 16 30 20
f 16 19 30
f 17 31 32
f 17 32 18
f 18 32 33
f 18 33 19
f 19 33 34
f 19 34 35
f 19 35 30
f 20 30 36
f 20 36 37
f 20 37 25
f 26 38 39
f 27 40 28
f 28 40 41
f 28 41 42
f 28 42 43
f 28 43 44
f 28 44 45
f 28 45 29
f 30 46 36
f 30 35 46
f 31 47 48
f 31 48 32
f 32 48 33
f 33 48 49
f 33 49 50
f 33 50 34
f 34 50 51
f 34 51 35
f 35 52 46
f 35 51 53
f 35 53 54
f 35 54 52
f 36 46 55
f 36 55 37
f 38 56 57
f 38 57 39
f 39 57 58
f 39 58 59
f 41 60 42
f 42 60 43
f 43 61 62
f 43 62 63
f 43 63 44
f 43 60 64
f 43 64 61
f 44 63 65
f 44 65 66
f 44 66 45
f 46 52 67
f 47 68 69
f 47 69 70
f 47 70 71
f 47 71 48
f 48 71 72
f 48 72 49
f 49 72 73
f 49 73 74
f 49 74 75
f 49 75 76
f 49 76 77
f 49 77 50
f 50 77 78
f 50 78 51
f 51 78 79
f 51 79 80
f 51 80 53
f 52 54 67
f 53 80 81
f 53 81 82
f 53 82 83
f 53 83 84
f 53 84 54
f 54 84 85
f 54 85 67
f 56 86 57
f 56 87 88
f 56 88 86
f 57 86 58
f 58 89 90
f 58 90 91
f 58 91 92
f 58 92 59
f 58 86 93
f 58 93 94
f 58 94 89
f 60 95 64
f 61 96 97
f 61 97 62
f 61 64 95
f 61 95 96
f 62 97 98
f 62 98 99
f 62 99 63
f 63 99 100
f 63 100 65
f 68 101 69
f 69 101 102
f 69 102 70
f 70 102 71
f 71 102 73
f 71 73 72
f 73 103 104
f 73 104 74
f 73 102 103
f 74 104 105
f 74 105 75
f 75 105 76
f 76 78 77
f 76 105 106
f 76 106 78
f 78 80 79
f 78 106 107
f 78 107 108
f 78 108 80
f 80 108 109
f 80 109 110
f 80 110 81
f 81 110 82
f 82 110 111
f 86 88 93
f 87 112 113
f 87 113 88
f 88 113 93
f 89 114 115
f 89 115 116
f 89 116 117
f 89 117 90
f 89 94 114
f 90 117 91
f 91 117 92
f 92 117 118
f 92 118 119
f 92 119 95
f 93 113 109
f 93 109 120
f 93 120 94
f 94 120 114
f 95 119 96
f 96 118 121
f 96 121 97
f 96 119 118
f 97 121 122
f 97 122 98
f 98 122 123
f 98 123 124
f 98 124 99
f 99 124 125
f 99 125 100
f 101 126 102
f 102 126 127
f 102 127 103
f 103 127 128
f 103 128 129
f 103 129 130
f 103 130 104
f 104 130 131
f 104 131 105
f 105 131 106
f 106 131 132
f 106 132 133
f 106 133 134
f 106 134 107
f 107 120 109
f 107 109 108
f 107 134 135
f 107 135 136
f 107 136 115
f 107 115 120
f 109 137 138
f 109 138 111
f 109 111 110
f 109 113 112
f 109 112 137
f 114 120 115
f 115 136 116
f 116 136 121
f 116 121 118
f 116 118 117
f 121 136 122
f 122 136 139
f 122 139 123
f 123 139 140
f 123 140 141
f 123 141 124
f 124 141 142
f 124 142 125
f 129 143 130
f 130 143 144
f 130 144 132
f 130 132 131
f 132 134 133
f 132 144 140
f 132 140 134
f 134 140 139
f 134 139 135
f 135 139 136
f 140 144 141
f 141 144 145
f 141 145 142
f 143 145 144

