# https://github.com/mikedh/trimesh
v 0.05443193 0.00042328 -0.01970572
v 0.05333551 0.00042328 -0.01970572
v 0.05445760 -0.00048727 -0.01970572
v 0.05445850 -0.00048727 -0.01974087
v 0.05443238 0.00042328 -0.01974087
v 0.04985848 0.00042328 -0.03090774
v 0.04985848 -0.02260342 -0.01970572
v 0.05445714 -0.00052200 -0.01970572
v 0.05440942 -0.00048727 -0.02079659
v 0.05440942 -0.00154172 -0.01970572
v 0.05440897 -0.00154172 -0.01974087
v 0.05437835 -0.00154172 -0.02079659
v 0.05435178 0.00042328 -0.02079659
v 0.04985848 0.00042328 -0.03205558
v 0.04985848 -0.02492321 -0.01970572
v 0.05413250 -0.00259865 -0.02501946
v 0.05410773 -0.00154172 -0.02501946
v 0.05440762 -0.00157645 -0.01970572
v 0.05433783 -0.00263339 -0.01970572
v 0.05391411 -0.00893031 -0.01970572
v 0.05409107 -0.00365310 -0.02501946
v 0.05411358 0.00042328 -0.02290803
v 0.05400777 -0.00156653 -0.02609579
v 0.05397490 -0.00083958 -0.02576004
v 0.05012144 0.00042328 -0.03199861
v 0.04985848 -0.00012007 -0.03208103
v 0.04985848 -0.02440467 -0.02049720
v 0.05001292 -0.02475201 -0.01970572
v 0.05405055 -0.00259865 -0.02607397
v 0.05403119 -0.00365310 -0.02607397
v 0.05388394 -0.00932232 -0.01970572
v 0.05397896 -0.00451651 -0.02607397
v 0.05398210 0.00042328 -0.02407162
v 0.05395329 -0.00193621 -0.02666183
v 0.05336928 -0.00048727 -0.02818541
v 0.05320898 0.00042328 -0.02818541
v 0.05343682 0.00042328 -0.02712969
v 0.05346429 0.00042328 -0.02698546
v 0.05395599 0.00013299 -0.02460251
v 0.05019708 0.00042328 -0.03197194
v 0.05077299 -0.00101077 -0.03187983
v 0.05031370 -0.00058899 -0.03200225
v 0.04985848 -0.00017962 -0.03208224
v 0.04985848 -0.02338743 -0.02166201
v 0.04988864 -0.02342465 -0.02158686
v 0.05009307 -0.02374719 -0.02082810
v 0.05058567 -0.02375463 -0.01981844
v 0.05060413 -0.02381169 -0.01970572
v 0.05007776 -0.02465029 -0.01970572
v 0.05001652 -0.02474705 -0.01970572
v 0.05396049 -0.00259865 -0.02670062
v 0.05395734 -0.00365310 -0.02668486
v 0.05394924 -0.00429321 -0.02664123
v 0.05349671 -0.01315059 -0.01970572
v 0.05346744 -0.01209862 -0.02185231
v 0.05339855 -0.01209862 -0.02290803
v 0.05342016 -0.01104169 -0.02396375
v 0.05345033 -0.00154172 -0.02818541
v 0.05306940 -0.00048727 -0.02907387
v 0.05296808 0.00042328 -0.02889933
v 0.05312478 -0.00154172 -0.02916114
v 0.05063610 0.00042328 -0.03181316
v 0.05186806 -0.00172284 -0.03086168
v 0.05077299 -0.00101574 -0.03187983
v 0.05123857 0.00042328 -0.03129924
v 0.05177935 0.00042328 -0.03077562
v 0.05026237 -0.00143752 -0.03197800
v 0.04985848 -0.00054682 -0.03208830
v 0.04985848 -0.02233546 -0.02280864
v 0.04994898 -0.02137778 -0.02374436
v 0.05065276 -0.02083194 -0.02316135
v 0.05060864 -0.02290114 -0.02079659
v 0.05078109 -0.02213946 -0.02134202
v 0.05073426 -0.02314429 -0.02022206
v 0.05083738 -0.02335518 -0.01970572
v 0.05377813 -0.00365310 -0.02721211
v 0.05343997 -0.00681893 -0.02712969
v 0.05326797 -0.00576448 -0.02818541
v 0.05334271 -0.00470755 -0.02818541
v 0.05328058 -0.01209862 -0.02396375
v 0.05325131 -0.01104169 -0.02501946
v 0.05335037 -0.01420752 -0.01970572
v 0.05342061 -0.01315059 -0.02079659
v 0.05332875 -0.01315059 -0.02185231
v 0.05321664 -0.01315059 -0.02290803
v 0.05277266 -0.00048727 -0.02960233
v 0.05276321 0.00042328 -0.02935386
v 0.05308516 -0.00259865 -0.02910902
v 0.05279022 -0.00259865 -0.02963748
v 0.05280553 -0.00154172 -0.02968839
v 0.05340125 -0.00365310 -0.02818541
v 0.05186806 -0.00223393 -0.03086168
v 0.05184059 0.00042328 -0.03070169
v 0.05137501 -0.00259121 -0.03116349
v 0.05044924 -0.00259865 -0.03174892
v 0.04985848 -0.00286660 -0.03191982
v 0.04992151 -0.00259865 -0.03193679
v 0.04985848 -0.00108024 -0.03206649
v 0.04985848 -0.00250685 -0.03195376
v 0.04985848 -0.02127109 -0.02395162
v 0.04993727 -0.02031588 -0.02471645
v 0.05029479 -0.02057391 -0.02399768
v 0.05082882 -0.02012732 -0.02354800
v 0.05095085 -0.02050444 -0.02284863
v 0.05080631 -0.02113215 -0.02245835
v 0.05088736 -0.02237516 -0.02079659
v 0.05090537 -0.02152912 -0.02175776
v 0.05098417 -0.02299543 -0.01970572
v 0.05322969 -0.00787586 -0.02712969
v 0.05307525 -0.00676186 -0.02819632
v 0.05304508 -0.01216313 -0.02509219
v 0.05294062 -0.01185299 -0.02568853
v 0.05290685 -0.00636986 -0.02874661
v 0.05295097 -0.00576448 -0.02881085
v 0.05308650 -0.01315059 -0.02396375
v 0.05289424 -0.01370883 -0.02452857
v 0.05294917 -0.01315059 -0.02474311
v 0.05334541 -0.01424225 -0.01970572
v 0.05216704 -0.01948473 -0.01970572
v 0.05226746 0.00042328 -0.03015383
v 0.05272133 0.00042328 -0.02942658
v 0.05177620 -0.00293856 -0.03077320
v 0.05186941 -0.00642692 -0.02979869
v 0.05174964 -0.00713154 -0.02970536
v 0.05109133 -0.00365310 -0.03109319
v 0.05101299 -0.00787586 -0.02991990
v 0.04985848 -0.01390235 -0.02875024
v 0.05017952 -0.00358363 -0.03159499
v 0.04985848 -0.00326109 -0.03184225
v 0.04985848 -0.02087164 -0.02429949
v 0.05064106 -0.01971299 -0.02425222
v 0.04985848 -0.02034069 -0.02474917
v 0.04985848 -0.02024145 -0.02482796
v 0.04986793 -0.01914234 -0.02568732
v 0.05091663 -0.01602117 -0.02679152
v 0.05061224 -0.01843028 -0.02530188
v 0.05184644 -0.01582517 -0.02558187
v 0.05127955 -0.02054166 -0.02185231
v 0.05104225 -0.02283912 -0.01970572
v 0.05186401 -0.02011988 -0.02042327
v 0.05193605 -0.01401896 -0.02676001
v 0.05283570 -0.01255513 -0.02549339
v 0.05212246 -0.01430676 -0.02617458
v 0.05212562 -0.00787586 -0.02901932
v 0.05232914 -0.00675194 -0.02922659
v 0.05166273 -0.01315059 -0.02746786
v 0.05196172 -0.01526197 -0.02583156
v 0.05194866 -0.02035806 -0.01970572
v 0.05194416 -0.02034814 -0.01974087
v 0.05092113 -0.01420752 -0.02780118
v 0.05051273 -0.01315059 -0.02851752
v 0.05021059 -0.01422241 -0.02836238
v 0.04993592 -0.01607576 -0.02781937
v 0.04985848 -0.01598892 -0.02788361
v 0.05182123 -0.01472358 -0.02659395
v 0.04985848 -0.01914730 -0.02568853
v 0.04985848 -0.01808789 -0.02648244
v 0.05004984 -0.01836825 -0.02605216
v 0.05031325 -0.01640077 -0.02719514
v 0.05063971 -0.01547534 -0.02749453
v 0.05152044 -0.01430676 -0.02711878
v 0.05078740 -0.01477072 -0.02767270
v 0.05027048 -0.01518009 -0.02793088
v 0.04985848 -0.01772566 -0.02674183
v 0.04985848 -0.01610801 -0.02783391
f 1 2 7
f 1 7 15
f 1 15 28
f 1 28 50
f 1 50 49
f 1 49 48
f 1 48 75
f 1 75 108
f 1 108 139
f 1 139 148
f 1 148 119
f 1 119 118
f 1 118 82
f 1 82 54
f 1 54 31
f 1 31 20
f 1 20 19
f 1 19 18
f 1 18 10
f 1 10 8
f 1 8 3
f 1 3 4
f 1 4 5
f 1 5 13
f 1 13 22
f 1 22 33
f 1 33 38
f 1 38 37
f 1 37 36
f 1 36 60
f 1 60 87
f 1 87 121
f 1 121 120
f 1 120 93
f 1 93 66
f 1 66 65
f 1 65 62
f 1 62 40
f 1 40 25
f 1 25 14
f 1 14 6
f 1 6 2
f 2 6 7
f 3 8 4
f 4 9 5
f 4 8 10
f 4 10 11
f 4 11 12
f 4 12 9
f 5 9 13
f 6 14 26
f 6 26 43
f 6 43 68
f 6 68 98
f 6 98 99
f 6 99 96
f 6 96 129
f 6 129 127
f 6 127 154
f 6 154 165
f 6 165 164
f 6 164 157
f 6 157 156
f 6 156 133
f 6 133 132
f 6 132 130
f 6 130 100
f 6 100 69
f 6 69 44
f 6 44 27
f 6 27 15
f 6 15 7
f 9 12 16
f 9 16 17
f 9 17 13
f 10 18 11
f 11 18 19
f 11 19 12
f 12 19 20
f 12 20 21
f 12 21 16
f 13 17 23
f 13 23 24
f 13 24 22
f 14 25 26
f 15 27 28
f 16 29 17
f 16 21 30
f 16 30 29
f 17 29 23
f 20 31 21
f 21 31 32
f 21 32 30
f 22 24 33
f 23 29 34
f 23 34 24
f 24 34 35
f 24 35 36
f 24 36 37
f 24 37 38
f 24 38 39
f 24 39 33
f 25 40 41
f 25 41 42
f 25 42 26
f 26 42 43
f 27 44 45
f 27 45 46
f 27 46 47
f 27 47 48
f 27 48 49
f 27 49 50
f 27 50 28
f 29 51 34
f 29 30 52
f 29 52 51
f 30 32 53
f 30 53 52
f 31 54 32
f 32 54 55
f 32 55 56
f 32 56 57
f 32 57 53
f 33 39 38
f 34 58 35
f 34 51 58
f 35 59 60
f 35 60 36
f 35 58 61
f 35 61 59
f 40 62 41
f 41 63 92
f 41 92 64
f 41 64 42
f 41 62 65
f 41 65 66
f 41 66 63
f 42 64 67
f 42 67 68
f 42 68 43
f 44 69 45
f 45 69 70
f 45 70 71
f 45 71 46
f 46 72 47
f 46 71 72
f 47 72 73
f 47 73 74
f 47 74 48
f 48 74 75
f 51 61 58
f 51 52 76
f 51 76 61
f 52 53 76
f 53 77 78
f 53 78 79
f 53 79 76
f 53 57 80
f 53 80 81
f 53 81 77
f 54 82 83
f 54 83 56
f 54 56 55
f 56 83 84
f 56 84 85
f 56 85 80
f 56 80 57
f 59 86 87
f 59 87 60
f 59 61 86
f 61 88 89
f 61 89 90
f 61 90 86
f 61 76 91
f 61 91 79
f 61 79 88
f 63 90 92
f 63 66 93
f 63 93 90
f 64 92 94
f 64 94 95
f 64 95 96
f 64 96 97
f 64 97 67
f 67 98 68
f 67 97 99
f 67 99 98
f 69 100 70
f 70 100 101
f 70 101 102
f 70 102 71
f 71 102 103
f 71 103 104
f 71 104 105
f 71 105 73
f 71 73 72
f 73 106 74
f 73 105 104
f 73 104 107
f 73 107 106
f 74 106 75
f 75 106 108
f 76 79 91
f 77 109 110
f 77 110 78
f 77 81 111
f 77 111 112
f 77 112 109
f 78 110 113
f 78 113 114
f 78 114 88
f 78 88 79
f 80 85 115
f 80 115 116
f 80 116 117
f 80 117 81
f 81 117 111
f 82 118 83
f 83 118 84
f 84 118 85
f 85 118 119
f 85 119 116
f 85 116 115
f 86 120 121
f 86 121 87
f 86 90 120
f 88 114 89
f 89 92 90
f 89 114 113
f 89 113 92
f 90 93 120
f 92 122 94
f 92 113 123
f 92 123 122
f 94 122 123
f 94 123 124
f 94 124 125
f 94 125 95
f 95 125 126
f 95 126 127
f 95 127 128
f 95 128 129
f 95 129 96
f 96 99 97
f 100 130 101
f 101 131 102
f 101 130 132
f 101 132 133
f 101 133 134
f 101 134 135
f 101 135 136
f 101 136 131
f 102 131 103
f 103 131 137
f 103 137 104
f 104 138 107
f 104 137 138
f 106 107 138
f 106 138 108
f 108 138 140
f 108 140 139
f 109 112 110
f 110 112 141
f 110 141 113
f 111 117 112
f 112 117 116
f 112 116 142
f 112 142 143
f 112 143 141
f 113 144 145
f 113 145 123
f 113 141 146
f 113 146 144
f 116 137 147
f 116 147 143
f 116 143 142
f 116 119 148
f 116 148 149
f 116 149 140
f 116 140 137
f 123 145 124
f 124 126 125
f 124 145 144
f 124 144 146
f 124 146 150
f 124 150 151
f 124 151 127
f 124 127 126
f 127 129 128
f 127 151 152
f 127 152 153
f 127 153 154
f 131 136 135
f 131 135 155
f 131 155 137
f 133 156 134
f 134 156 157
f 134 157 158
f 134 158 135
f 135 158 157
f 135 157 159
f 135 159 160
f 135 160 155
f 137 155 147
f 137 140 138
f 139 140 149
f 139 149 148
f 141 143 155
f 141 155 146
f 143 147 155
f 146 155 161
f 146 161 150
f 150 161 160
f 150 160 162
f 150 162 163
f 150 163 152
f 150 152 151
f 152 163 153
f 153 159 164
f 153 164 165
f 153 165 154
f 153 163 160
f 153 160 159
f 155 160 161
f 157 164 159
f 160 163 162

