# https://github.com/mikedh/trimesh
v -0.00941552 0.02885291 0.01229060
v -0.00941552 0.02885291 0.01024077
v -0.02319213 0.02885291 0.01393126
v 0.00189554 0.02450268 0.01946098
v -0.01411332 0.02885291 0.00739668
v 0.00189554 0.02450268 0.01794668
v -0.02319213 0.02885291 0.01207398
v -0.02319213 0.02521517 0.01858048
v -0.02259293 0.02524367 0.01861859
v 0.00168189 0.01929544 0.02430275
v 0.00169662 0.01929341 0.02430275
v 0.00189554 0.01982879 0.02370706
v -0.02259293 0.02471643 0.01923434
v -0.02259293 0.02450268 0.01946901
v -0.02153697 0.02423398 0.01975181
v -0.02172361 0.02214131 0.02186783
v -0.01453325 0.02885291 0.00730843
v -0.00296679 0.02004457 0.01874495
v 0.00169662 0.01059907 0.02766230
v -0.00204099 0.00855933 0.02766230
v -0.00254195 0.00830487 0.02766230
v 0.00189554 0.02198049 0.01983806
v -0.02319213 0.02656278 0.01470747
v -0.01627927 0.02885291 0.00740270
v -0.02319213 0.02468589 0.01919222
v 0.00169662 0.01864199 0.02482424
v -0.01499247 0.02005271 0.02370706
v 0.00189554 0.01804962 0.02370706
v 0.00169662 0.01811272 0.02520131
v 0.00169662 0.01618291 0.02634857
v 0.00169662 0.01412892 0.02741360
v 0.00169662 0.01349786 0.02765829
v 0.00169662 0.01348565 0.02766230
v -0.02172361 0.02423398 0.01975181
v -0.02319213 0.02450268 0.01939079
v -0.02172361 0.02060438 0.02186783
v -0.00850936 0.01167594 0.02766230
v -0.01520612 0.02885291 0.00717204
v 0.00189554 0.02155911 0.02016097
v 0.00189554 0.02142272 0.02026728
v 0.00189554 0.02093212 0.02068847
v 0.00189554 0.02082627 0.02078675
v 0.00189554 0.02029699 0.02133431
v -0.00359546 0.00812166 0.02766230
v -0.02319213 0.02611493 0.01523497
v -0.01556465 0.02885291 0.00722219
v -0.00676089 0.00825195 0.02766230
v -0.00781685 0.00868961 0.02766230
v 0.00168189 0.01863385 0.02483025
v 0.00168189 0.01810865 0.02520532
v 0.00062593 0.01407803 0.02739555
v 0.00168189 0.01413096 0.02741360
v 0.00168189 0.01617884 0.02635258
v 0.00168189 0.01349176 0.02766230
v -0.02319213 0.02450268 0.01760370
v -0.00850936 0.00903568 0.02766230
v -0.02319213 0.02458208 0.01747333
v -0.02319213 0.02521517 0.01644441
v 0.00062593 0.01341033 0.02766230
v -0.00464896 0.00805856 0.02766230
v -0.00570492 0.00809927 0.02766230
v -0.02319213 0.02558566 0.01591691
v 0.00085431 0.01343069 0.02766230
f 1 2 5
f 1 5 17
f 1 17 38
f 1 38 46
f 1 46 24
f 1 24 7
f 1 7 3
f 1 3 4
f 1 4 6
f 1 6 2
f 2 6 5
f 3 7 23
f 3 23 45
f 3 45 62
f 3 62 58
f 3 58 57
f 3 57 55
f 3 55 35
f 3 35 25
f 3 25 8
f 3 8 9
f 3 9 4
f 4 10 11
f 4 11 12
f 4 12 28
f 4 28 43
f 4 43 42
f 4 42 41
f 4 41 40
f 4 40 39
f 4 39 22
f 4 22 6
f 4 9 13
f 4 13 14
f 4 14 15
f 4 15 16
f 4 16 10
f 5 6 18
f 5 18 19
f 5 19 20
f 5 20 21
f 5 21 17
f 6 22 19
f 6 19 18
f 7 24 23
f 8 25 13
f 8 13 9
f 10 26 11
f 10 16 27
f 10 27 26
f 11 26 12
f 12 26 29
f 12 29 30
f 12 30 31
f 12 31 32
f 12 32 33
f 12 33 19
f 12 19 28
f 13 25 14
f 14 16 34
f 14 34 15
f 14 25 35
f 14 35 16
f 15 34 16
f 16 35 36
f 16 36 56
f 16 56 37
f 16 37 27
f 17 21 38
f 19 22 39
f 19 39 40
f 19 40 41
f 19 41 42
f 19 42 43
f 19 43 28
f 19 33 54
f 19 54 63
f 19 63 59
f 19 59 37
f 19 37 56
f 19 56 48
f 19 48 47
f 19 47 61
f 19 61 60
f 19 60 44
f 19 44 21
f 19 21 20
f 21 44 38
f 23 24 45
f 24 46 47
f 24 47 48
f 24 48 45
f 26 27 49
f 26 49 50
f 26 50 29
f 27 37 51
f 27 51 52
f 27 52 53
f 27 53 50
f 27 50 49
f 29 50 53
f 29 53 30
f 30 53 31
f 31 53 52
f 31 52 54
f 31 54 32
f 32 54 33
f 35 55 36
f 36 55 57
f 36 57 58
f 36 58 56
f 37 59 51
f 38 44 60
f 38 60 61
f 38 61 46
f 45 48 56
f 45 56 62
f 46 61 47
f 51 59 52
f 52 59 63
f 52 63 54
f 56 58 62

