# https://github.com/mikedh/trimesh
v -0.03168240 0.03207523 -0.00114764
v -0.03168240 0.03303537 -0.00114764
v -0.01445087 0.03054110 -0.00114764
v -0.04862968 0.02943644 -0.00114615
v -0.03167260 0.03303654 -0.00114764
v -0.04856106 0.03018127 -0.00114615
v -0.04851205 0.03058089 -0.00114615
v -0.04848265 0.03070785 -0.00114615
v -0.04841404 0.03082487 -0.00114615
v -0.04782593 0.03167502 -0.00114615
v -0.04762009 0.03195704 -0.00114615
v -0.04687516 0.03229522 -0.00114615
v -0.04538529 0.03278963 -0.00114615
v -0.01413722 0.03051360 -0.00114764
v -0.04863948 0.02943644 0.00348522
v 0.04582026 0.02910293 -0.00114764
v 0.05147589 0.02819954 -0.00114615
v 0.05147589 0.02738685 0.00455091
v -0.03754387 0.02782450 0.01063739
v -0.03837702 0.02786838 0.01063739
v -0.03102568 0.03306755 -0.00114764
v -0.03735763 0.03323372 -0.00114615
v -0.04848265 0.03071020 -0.00096185
v -0.04856106 0.02989925 0.00348522
v -0.04762009 0.03195938 -0.00073742
v -0.04749267 0.03183534 0.00559579
v -0.04753188 0.03188331 0.00348522
v -0.04624784 0.03269952 0.00453902
v -0.04571855 0.03290138 0.00453902
v -0.04564994 0.03288383 0.00348522
v -0.04541469 0.03279782 -0.00073742
v -0.04475797 0.03304824 0.00453902
v -0.04475797 0.03301196 0.00348522
v -0.03735763 0.03329574 0.00031787
v -0.03735763 0.03325127 -0.00073742
v -0.04862968 0.02943644 0.00397273
v 0.04582026 0.03036089 -0.00114764
v 0.05147589 0.02957160 -0.00114615
v 0.05147589 0.02895490 0.00455091
v 0.04582026 0.02885427 0.00747599
v 0.04499691 0.02885427 0.00770191
v 0.00265323 0.02885427 0.01387310
v -0.02469373 0.02885427 0.01403660
v -0.02574252 0.02885427 0.01395931
v -0.04760049 0.02943644 0.01017514
v -0.04772791 0.02943644 0.00978721
v -0.04847285 0.02943644 0.00631963
v -0.04851205 0.02943644 0.00598818
v -0.04854146 0.02943644 0.00559579
v -0.04861007 0.02943644 0.00453902
v -0.03062381 0.03308510 -0.00114764
v -0.03630884 0.03332324 0.00031787
v -0.03630884 0.03324542 -0.00114615
v -0.02995729 0.03311202 -0.00114764
v -0.04854146 0.02985829 0.00453902
v -0.04828661 0.03026786 0.00559579
v -0.04785534 0.03118471 0.00559579
v -0.04687516 0.03231862 0.00453902
v -0.04745346 0.03177858 0.00636868
v -0.04687516 0.03226714 0.00559579
v -0.04616943 0.03267202 0.00559579
v -0.04564013 0.03287037 0.00559579
v -0.04475797 0.03299441 0.00559579
v -0.03630884 0.03333318 0.00348670
v -0.03630884 0.03336419 0.00242993
v -0.03735763 0.03331504 0.00137316
v -0.03630884 0.03335424 0.00137316
v 0.04033127 0.03174699 -0.00114764
v 0.05112302 0.02977638 -0.00114615
v 0.05147589 0.02952245 0.00008155
v 0.05147589 0.02895842 0.00454050
v 0.05129946 0.02907719 0.00455091
v 0.04540859 0.02958389 0.00715791
v 0.04582026 0.02892097 0.00743288
v 0.04501651 0.02916846 0.00749828
v 0.04469306 0.02966580 0.00723074
v 0.00329034 0.02960670 0.01246110
v 0.00274144 0.02961255 0.01247448
v -0.02469373 0.03072073 0.01151877
v -0.02469373 0.03040829 0.01204790
v -0.02469373 0.02988111 0.01286241
v -0.02469373 0.02949787 0.01339005
v -0.02469373 0.02897070 0.01392215
v 0.04495770 0.03074120 0.00622896
v -0.04360137 0.03120519 0.01063739
v -0.04713981 0.03033398 0.01017514
v -0.04728683 0.03013680 0.01017514
v -0.04747307 0.02983079 0.01017514
v -0.04779652 0.03012978 0.00876165
v -0.04846305 0.02963303 0.00620072
v -0.04753188 0.03007478 0.00973222
v -0.04849245 0.02973952 0.00559579
v -0.02322347 0.03312606 -0.00114764
v -0.02955542 0.03311494 -0.00114764
v -0.04761029 0.03105716 0.00770488
v -0.04765930 0.03126311 0.00669121
v -0.04728683 0.03158492 0.00770488
v -0.04675754 0.03202374 0.00770488
v -0.04695357 0.03207757 0.00669121
v -0.04601260 0.03264686 0.00664959
v -0.04549311 0.03282122 0.00664959
v -0.04536568 0.03278612 0.00723371
v -0.04475797 0.03289553 0.00664959
v 0.03439139 0.03213549 0.00348670
v -0.04475797 0.03280309 0.00728574
v -0.04407185 0.03279665 0.00726641
v 0.03650857 0.03218054 0.00031787
v 0.03755736 0.03217937 -0.00073742
v 0.03998820 0.03182831 -0.00114764
v 0.05147589 0.02951192 0.00031787
v 0.03970395 0.03188858 -0.00114764
v 0.05060353 0.02988579 -0.00114615
v 0.04601630 0.03116832 0.00137316
v 0.04706509 0.03092259 0.00137316
v 0.04601630 0.03124556 0.00242844
v 0.04706509 0.03098460 0.00242844
v 0.05100540 0.02972197 0.00137316
v 0.05147589 0.02921001 0.00354764
v 0.05129946 0.02908012 0.00454050
v 0.05074075 0.02958973 0.00398016
v 0.04552621 0.03068270 0.00615762
v 0.04501651 0.03006249 0.00682498
v 0.00379023 0.03037376 0.01087223
v 0.00274144 0.02989282 0.01192751
v 0.00278065 0.03045685 0.01076967
v 0.00316292 0.03065285 0.01034310
v 0.00379023 0.03089392 0.00980653
v -0.02469373 0.03101445 0.01087223
v -0.04475797 0.03186869 0.00960439
v -0.04475797 0.03156912 0.01013204
v -0.04475797 0.03154162 0.01017514
v 0.04495770 0.03099865 0.00559876
v 0.03439139 0.03192544 0.00439633
v 0.00379023 0.03063764 0.01033418
v -0.04481679 0.03152699 0.01017514
v -0.04583617 0.03127072 0.01017514
v -0.04620864 0.03109753 0.01017514
v -0.04663992 0.03083365 0.01017514
v -0.04697318 0.03050892 0.01017514
v -0.04719862 0.03039015 0.01002800
v -0.04741426 0.03068270 0.00932497
v -0.04750247 0.03084535 0.00876165
v 0.03755736 0.03217001 -0.00114764
v -0.04690456 0.03142460 0.00884488
v -0.04658110 0.03186225 0.00854911
v -0.04575776 0.03251990 0.00763353
v -0.04588518 0.03199273 0.00884488
v -0.04558132 0.03180198 0.00945428
v -0.04475797 0.03221155 0.00876165
v 0.03544018 0.03189501 0.00433688
v 0.03544018 0.03208166 0.00348670
v 0.03650857 0.03214953 0.00137316
v -0.02412523 0.03171539 0.00929673
v 0.00379023 0.03181603 0.00745964
v 0.03755736 0.03215012 0.00031787
v 0.03861595 0.03209395 -0.00073742
v 0.03796904 0.03214602 -0.00114764
v 0.05147589 0.02944288 0.00137316
v 0.03861595 0.03209219 -0.00114764
v 0.04601630 0.03120753 0.00348670
v 0.04495770 0.03136199 0.00348670
v 0.05083877 0.02963713 0.00327565
v 0.05092699 0.02968627 0.00242844
v 0.05147589 0.02934751 0.00242844
v 0.05123084 0.02936974 0.00356994
v 0.04611431 0.03096179 0.00455091
v 0.04582026 0.03080381 0.00548432
v 0.04576145 0.03078567 0.00559876
v 0.04495770 0.03126721 0.00454050
v 0.04582026 0.03095593 0.00488682
v -0.04588518 0.03148194 0.00980951
v -0.04628705 0.03168496 0.00925214
v -0.04685555 0.03093136 0.00973222
v 0.03755736 0.03208576 0.00137316
v 0.05147589 0.02938144 0.00207024
v 0.04582026 0.03102381 0.00461779
f 1 2 5
f 1 5 21
f 1 21 51
f 1 51 54
f 1 54 94
f 1 94 93
f 1 93 143
f 1 143 157
f 1 157 159
f 1 159 111
f 1 111 109
f 1 109 68
f 1 68 37
f 1 37 16
f 1 16 14
f 1 14 3
f 1 3 4
f 1 4 2
f 2 4 6
f 2 6 7
f 2 7 8
f 2 8 9
f 2 9 10
f 2 10 11
f 2 11 12
f 2 12 13
f 2 13 5
f 3 14 4
f 4 15 6
f 4 14 16
f 4 16 17
f 4 17 18
f 4 18 19
f 4 19 20
f 4 20 15
f 5 13 22
f 5 22 21
f 6 15 7
f 7 23 8
f 7 15 24
f 7 24 23
f 8 23 9
f 9 25 10
f 9 23 26
f 9 26 27
f 9 27 25
f 10 25 11
f 11 25 28
f 11 28 12
f 12 28 29
f 12 29 30
f 12 30 31
f 12 31 13
f 13 31 32
f 13 32 33
f 13 33 34
f 13 34 35
f 13 35 22
f 15 20 36
f 15 36 24
f 16 37 38
f 16 38 17
f 17 38 70
f 17 70 110
f 17 110 158
f 17 158 175
f 17 175 164
f 17 164 118
f 17 118 71
f 17 71 39
f 17 39 18
f 18 39 40
f 18 40 41
f 18 41 42
f 18 42 19
f 19 42 43
f 19 43 44
f 19 44 20
f 20 44 45
f 20 45 46
f 20 46 47
f 20 47 48
f 20 48 49
f 20 49 50
f 20 50 36
f 21 22 51
f 22 35 52
f 22 52 53
f 22 53 54
f 22 54 51
f 23 24 55
f 23 55 56
f 23 56 57
f 23 57 26
f 24 36 55
f 25 27 58
f 25 58 28
f 26 59 60
f 26 60 58
f 26 58 27
f 26 57 59
f 28 58 60
f 28 60 61
f 28 61 29
f 29 62 32
f 29 32 30
f 29 61 62
f 30 32 31
f 32 62 63
f 32 63 64
f 32 64 65
f 32 65 66
f 32 66 34
f 32 34 33
f 34 66 67
f 34 67 52
f 34 52 35
f 36 50 55
f 37 68 69
f 37 69 38
f 38 69 70
f 39 71 72
f 39 72 73
f 39 73 74
f 39 74 40
f 40 74 73
f 40 73 41
f 41 73 75
f 41 75 76
f 41 76 42
f 42 77 78
f 42 78 79
f 42 79 80
f 42 80 81
f 42 81 82
f 42 82 83
f 42 83 43
f 42 76 84
f 42 84 77
f 43 83 85
f 43 85 44
f 44 85 86
f 44 86 87
f 44 87 88
f 44 88 45
f 45 88 46
f 46 89 90
f 46 90 47
f 46 88 91
f 46 91 89
f 47 90 48
f 48 92 49
f 48 90 92
f 49 92 50
f 50 92 55
f 52 67 93
f 52 93 53
f 53 93 94
f 53 94 54
f 55 92 56
f 56 92 90
f 56 90 95
f 56 95 57
f 57 95 96
f 57 96 59
f 59 97 98
f 59 98 99
f 59 99 60
f 59 96 95
f 59 95 97
f 60 100 61
f 60 99 100
f 61 100 62
f 62 101 63
f 62 100 101
f 63 101 102
f 63 102 103
f 63 103 64
f 64 104 65
f 64 103 105
f 64 105 106
f 64 106 104
f 65 67 66
f 65 104 107
f 65 107 108
f 65 108 93
f 65 93 67
f 68 109 69
f 69 110 70
f 69 109 111
f 69 111 112
f 69 112 113
f 69 113 114
f 69 114 115
f 69 115 116
f 69 116 117
f 69 117 110
f 71 118 119
f 71 119 72
f 72 119 120
f 72 120 121
f 72 121 73
f 73 121 122
f 73 122 76
f 73 76 75
f 76 122 84
f 77 123 124
f 77 124 78
f 77 84 123
f 78 124 79
f 79 124 125
f 79 125 126
f 79 126 127
f 79 127 128
f 79 128 129
f 79 129 130
f 79 130 80
f 80 130 131
f 80 131 81
f 81 131 82
f 82 131 85
f 82 85 83
f 84 122 121
f 84 121 132
f 84 132 133
f 84 133 127
f 84 127 134
f 84 134 123
f 85 131 135
f 85 135 136
f 85 136 137
f 85 137 138
f 85 138 139
f 85 139 86
f 86 139 140
f 86 140 87
f 87 140 141
f 87 141 88
f 88 141 91
f 89 91 141
f 89 141 142
f 89 142 95
f 89 95 90
f 93 108 143
f 95 142 97
f 97 142 141
f 97 141 144
f 97 144 145
f 97 145 98
f 98 145 146
f 98 146 100
f 98 100 99
f 100 146 102
f 100 102 101
f 102 146 147
f 102 147 148
f 102 148 129
f 102 129 149
f 102 149 105
f 102 105 103
f 104 133 150
f 104 150 151
f 104 151 152
f 104 152 107
f 104 106 133
f 105 149 153
f 105 153 106
f 106 153 154
f 106 154 133
f 107 152 155
f 107 155 108
f 108 155 156
f 108 156 157
f 108 157 143
f 110 117 158
f 111 159 112
f 112 159 113
f 113 115 114
f 113 159 115
f 115 160 116
f 115 159 156
f 115 156 161
f 115 161 160
f 116 160 120
f 116 120 162
f 116 162 163
f 116 163 117
f 117 163 158
f 118 164 165
f 118 165 119
f 119 165 120
f 120 160 166
f 120 166 167
f 120 167 121
f 120 165 162
f 121 167 168
f 121 168 132
f 123 134 124
f 124 134 125
f 125 134 126
f 126 134 127
f 127 133 154
f 127 154 153
f 127 153 128
f 128 153 129
f 129 148 130
f 129 153 149
f 130 148 131
f 131 148 135
f 132 169 150
f 132 150 133
f 132 168 167
f 132 167 170
f 132 170 169
f 135 148 136
f 136 148 171
f 136 171 172
f 136 172 137
f 137 172 138
f 138 172 173
f 138 173 141
f 138 141 139
f 139 141 140
f 141 173 144
f 144 173 172
f 144 172 145
f 145 172 147
f 145 147 146
f 147 172 148
f 148 172 171
f 150 169 151
f 151 169 161
f 151 161 174
f 151 174 152
f 152 174 155
f 155 174 161
f 155 161 156
f 156 159 157
f 158 163 175
f 160 161 169
f 160 169 166
f 162 165 163
f 163 165 164
f 163 164 175
f 166 169 176
f 166 176 170
f 166 170 167
f 169 170 176

