# https://github.com/mikedh/trimesh
v 0.04291967 0.01840757 0.02370857
v 0.04325213 0.01804733 0.02411767
v 0.04354889 0.01804733 0.02411767
v 0.04380995 0.01838016 0.02370857
v 0.04176832 0.01781826 0.02370857
v 0.02830469 0.00759041 0.02774630
v 0.04327221 0.01169408 0.02831735
v 0.04391036 0.01625785 0.02535560
v 0.04391036 0.01678647 0.02500582
v 0.02830469 0.00560318 0.02914467
v 0.02830469 0.00504715 0.02951650
v 0.04496576 0.01662005 0.02487959
v 0.04425175 0.01792398 0.02400589
v 0.04402862 0.01830576 0.02370857
v 0.04128190 0.01747563 0.02370857
v 0.03666312 0.01284138 0.02370857
v 0.02830469 0.00553661 0.02774630
v 0.04335477 0.00954435 0.02934846
v 0.04360690 0.01169408 0.02831735
v 0.02830469 0.00488269 0.02961916
v 0.02830469 0.00388810 0.03019326
v 0.02830469 0.00335948 0.03047993
v 0.04496576 0.01294515 0.02737826
v 0.04496576 0.01347181 0.02703988
v 0.04496576 0.01609338 0.02526815
v 0.04554813 0.01595242 0.02517538
v 0.04496576 0.01723873 0.02435187
v 0.04496576 0.01776540 0.02383632
v 0.04496576 0.01788482 0.02370857
v 0.03666312 0.01060355 0.02370857
v 0.02830469 -0.00159390 0.02976363
v 0.04179733 0.00557577 0.03047233
v 0.04338824 0.00954435 0.02934846
v 0.03441174 0.00455377 0.03055825
v 0.03441174 0.00374126 0.03086925
v 0.03546714 0.00374126 0.03089131
v 0.04393937 0.01121244 0.02851962
v 0.04431199 0.01162359 0.02825500
v 0.02830469 0.00268401 0.03071261
v 0.03335857 0.00374126 0.03078637
v 0.04496576 0.01229710 0.02774553
v 0.04504609 0.01226577 0.02774553
v 0.04560168 0.01282572 0.02730526
v 0.04560614 0.01705274 0.02419675
v 0.05105942 0.01103624 0.02633347
v 0.04507509 0.01782021 0.02370857
v 0.03754225 0.01079738 0.02370857
v 0.05109513 -0.00159390 0.02792575
v 0.02830469 -0.00159390 0.03076204
v 0.04179733 0.00479654 0.03063505
v 0.04285273 0.00554249 0.03046016
v 0.04285273 0.00795848 0.02979709
v 0.03441174 0.00119996 0.03147681
v 0.04353997 0.00543872 0.03043051
v 0.04390813 0.00795848 0.02968911
v 0.04915836 0.00481612 0.02949826
v 0.04993485 0.00448133 0.02941917
v 0.04496353 0.01094030 0.02844206
v 0.03277620 0.00111381 0.03146084
v 0.03335857 0.00115884 0.03146921
v 0.04496353 0.01146892 0.02819721
v 0.04496353 0.01217963 0.02781169
v 0.02830469 0.00185388 0.03090043
v 0.05109513 0.01103624 0.02631294
v 0.04582704 0.01725831 0.02371010
v 0.05088762 0.00650575 0.02835005
v 0.04557491 0.01073081 0.02833941
v 0.04582704 0.01725831 0.02370857
v 0.03858203 0.01120853 0.02370857
v 0.05109290 0.01103624 0.02470166
v 0.05109513 0.01054677 0.02502635
v 0.05109513 -0.00159390 0.02866638
v 0.02908341 -0.00159390 0.03080158
v 0.03277620 0.00105704 0.03146084
v 0.02830469 -0.00048184 0.03091412
v 0.04285273 0.00479654 0.03061376
v 0.03508559 0.00117059 0.03147073
v 0.03441174 0.00088083 0.03147681
v 0.04389697 0.00481025 0.03050274
v 0.04467569 0.00446762 0.03044799
v 0.04918514 0.00373930 0.02976516
v 0.04390813 0.00374126 0.03070425
v 0.05026955 0.00371776 0.02948685
v 0.05063994 0.00405647 0.02927698
v 0.02830469 0.00163069 0.03094986
v 0.02830469 0.00079860 0.03099852
v 0.02830469 0.00057344 0.03100993
v 0.03335857 0.00095327 0.03146921
v 0.05109513 0.01093639 0.02635476
v 0.05109513 0.01103624 0.02561414
v 0.05105496 0.00584791 0.02847780
v 0.05109513 0.00671329 0.02811509
v 0.04582704 0.01486581 0.02370857
v 0.05109513 -0.00158803 0.02948381
v 0.05105273 -0.00159390 0.02951270
v 0.03013658 -0.00159390 0.03084644
v 0.04285273 0.00374126 0.03080082
v 0.03508559 0.00096306 0.03147073
v 0.04285273 0.00057344 0.03099168
v 0.04285273 0.00163069 0.03097951
v 0.04285273 0.00268401 0.03092704
v 0.03546714 -0.00159390 0.03098484
v 0.03652255 -0.00159390 0.03099776
v 0.03757795 -0.00159390 0.03100080
v 0.03863335 -0.00159390 0.03099320
v 0.03963520 -0.00159390 0.03097115
v 0.04500146 0.00378433 0.03052556
v 0.04918514 0.00268401 0.02989518
v 0.05024054 0.00268401 0.02968075
v 0.04572886 0.00346128 0.03045256
v 0.04390813 0.00268401 0.03083960
v 0.04496353 0.00268401 0.03068220
v 0.05082068 0.00335164 0.02937507
v 0.03119199 -0.00159390 0.03088370
v 0.03441174 -0.00159390 0.03096050
v 0.05109513 0.00569520 0.02849377
v 0.05109513 0.00584791 0.02844738
v 0.05109513 0.00163069 0.02944807
v 0.05103042 0.00163069 0.02949065
v 0.05024054 0.00163069 0.02977200
v 0.05101034 -0.00159390 0.02952715
v 0.04068837 -0.00159390 0.03093541
v 0.04074192 -0.00153713 0.03093921
v 0.04179733 -0.00048184 0.03098559
v 0.04285273 -0.00048184 0.03093085
v 0.04390813 0.00057344 0.03091336
v 0.04390813 0.00163069 0.03090195
v 0.04660576 0.00225329 0.03041149
v 0.05093224 0.00268401 0.02943894
v 0.04496353 0.00163069 0.03073010
v 0.05109513 0.00268401 0.02932184
v 0.05109513 0.00360225 0.02909981
v 0.04496353 0.00057344 0.03073466
v 0.05024054 -0.00159390 0.02977352
v 0.04174377 -0.00159390 0.03087914
v 0.04179733 -0.00153713 0.03088370
v 0.04285273 -0.00159390 0.03077801
v 0.04390813 -0.00048184 0.03082211
v 0.04385458 -0.00159390 0.03064798
v 0.04179733 -0.00159390 0.03087458
f 1 2 3
f 1 3 4
f 1 4 14
f 1 14 29
f 1 29 46
f 1 46 68
f 1 68 93
f 1 93 69
f 1 69 47
f 1 47 30
f 1 30 16
f 1 16 15
f 1 15 5
f 1 5 6
f 1 6 2
f 2 7 8
f 2 8 9
f 2 9 3
f 2 6 10
f 2 10 11
f 2 11 7
f 3 9 12
f 3 12 13
f 3 13 4
f 4 13 14
f 5 15 6
f 6 16 30
f 6 30 17
f 6 17 31
f 6 31 49
f 6 49 75
f 6 75 87
f 6 87 86
f 6 86 85
f 6 85 63
f 6 63 39
f 6 39 22
f 6 22 21
f 6 21 20
f 6 20 11
f 6 11 10
f 6 15 16
f 7 18 33
f 7 33 19
f 7 19 8
f 7 11 20
f 7 20 21
f 7 21 22
f 7 22 18
f 8 23 24
f 8 24 9
f 8 19 23
f 9 24 25
f 9 25 12
f 12 25 26
f 12 26 27
f 12 27 13
f 13 27 28
f 13 28 14
f 14 28 29
f 17 30 31
f 18 32 33
f 18 22 34
f 18 34 35
f 18 35 36
f 18 36 32
f 19 33 37
f 19 37 38
f 19 38 23
f 22 39 40
f 22 40 34
f 23 38 41
f 23 41 42
f 23 42 43
f 23 43 24
f 24 43 25
f 25 43 26
f 26 44 27
f 26 43 45
f 26 45 44
f 27 44 28
f 28 44 29
f 29 44 46
f 30 47 48
f 30 48 31
f 31 48 72
f 31 72 95
f 31 95 121
f 31 121 134
f 31 134 139
f 31 139 137
f 31 137 140
f 31 140 135
f 31 135 122
f 31 122 106
f 31 106 105
f 31 105 104
f 31 104 103
f 31 103 102
f 31 102 115
f 31 115 114
f 31 114 96
f 31 96 73
f 31 73 49
f 32 50 51
f 32 51 52
f 32 52 33
f 32 36 53
f 32 53 50
f 33 52 51
f 33 51 54
f 33 54 55
f 33 55 56
f 33 56 57
f 33 57 58
f 33 58 37
f 34 40 35
f 35 40 39
f 35 39 59
f 35 59 60
f 35 60 36
f 36 60 53
f 37 58 61
f 37 61 38
f 38 61 62
f 38 62 41
f 39 63 59
f 41 62 42
f 42 62 61
f 42 61 43
f 43 61 45
f 44 45 64
f 44 64 65
f 44 65 46
f 45 66 64
f 45 61 67
f 45 67 66
f 46 65 68
f 47 69 70
f 47 70 48
f 48 70 71
f 48 71 90
f 48 90 64
f 48 64 89
f 48 89 92
f 48 92 117
f 48 117 116
f 48 116 132
f 48 132 131
f 48 131 118
f 48 118 94
f 48 94 72
f 49 73 74
f 49 74 75
f 50 76 51
f 50 53 77
f 50 77 76
f 51 76 54
f 53 78 98
f 53 98 77
f 53 60 88
f 53 88 78
f 54 79 80
f 54 80 81
f 54 81 56
f 54 56 55
f 54 76 82
f 54 82 79
f 56 81 57
f 57 81 83
f 57 83 84
f 57 84 66
f 57 66 67
f 57 67 58
f 58 67 61
f 59 63 85
f 59 85 86
f 59 86 87
f 59 87 74
f 59 74 88
f 59 88 60
f 64 66 89
f 64 90 68
f 64 68 65
f 66 84 91
f 66 91 92
f 66 92 89
f 68 90 70
f 68 70 93
f 69 93 70
f 70 90 71
f 72 94 95
f 73 96 88
f 73 88 74
f 74 87 75
f 76 77 97
f 76 97 82
f 77 98 99
f 77 99 100
f 77 100 101
f 77 101 97
f 78 102 103
f 78 103 104
f 78 104 105
f 78 105 106
f 78 106 98
f 78 88 102
f 79 82 80
f 80 82 107
f 80 107 81
f 81 108 109
f 81 109 83
f 81 107 110
f 81 110 108
f 82 111 112
f 82 112 107
f 82 97 111
f 83 109 113
f 83 113 84
f 84 113 91
f 88 96 114
f 88 114 115
f 88 115 102
f 91 113 116
f 91 116 117
f 91 117 92
f 94 118 95
f 95 119 120
f 95 120 121
f 95 118 119
f 97 101 111
f 98 106 122
f 98 122 123
f 98 123 124
f 98 124 125
f 98 125 99
f 99 125 126
f 99 126 127
f 99 127 100
f 100 127 101
f 101 127 111
f 107 112 110
f 108 110 112
f 108 112 128
f 108 128 120
f 108 120 109
f 109 120 129
f 109 129 113
f 111 127 112
f 112 127 130
f 112 130 128
f 113 129 131
f 113 131 132
f 113 132 116
f 118 131 129
f 118 129 119
f 119 129 120
f 120 128 130
f 120 130 133
f 120 133 134
f 120 134 121
f 122 135 136
f 122 136 123
f 123 136 125
f 123 125 124
f 125 136 137
f 125 137 138
f 125 138 126
f 126 138 134
f 126 134 133
f 126 133 130
f 126 130 127
f 134 138 139
f 135 140 136
f 136 140 137
f 137 139 138

