# https://github.com/mikedh/trimesh
v 0.04237124 -0.03177432 -0.00114657
v 0.04237124 -0.03059175 -0.00114657
v 0.04706995 -0.03177432 -0.00114657
v 0.03082522 -0.03312934 -0.00114384
v 0.03017955 -0.03312729 -0.00114384
v -0.00147434 -0.03298357 -0.00114384
v -0.00253237 -0.03289529 -0.00114384
v -0.00357954 -0.03275979 -0.00114384
v -0.00403530 -0.03265714 -0.00114384
v -0.00414382 -0.03262839 -0.00114384
v -0.00482204 -0.03242719 -0.00114384
v 0.05060212 -0.02846273 -0.00114657
v -0.00482204 -0.03131854 -0.00114384
v 0.04771562 -0.03175379 -0.00114657
v 0.03187781 -0.03310675 -0.00114384
v 0.03123758 -0.03312523 -0.00114384
v 0.03123758 -0.03319093 -0.00073444
v 0.03017955 -0.03318682 -0.00073444
v 0.03123758 -0.03326895 0.00031908
v -0.00147434 -0.03300615 -0.00073444
v -0.00253237 -0.03292403 -0.00073444
v -0.00367178 -0.03277005 -0.00079721
v -0.00422520 -0.03270025 -0.00048607
v -0.00482204 -0.03244978 -0.00099918
v -0.00482746 -0.02282913 0.02059798
v 0.03482943 -0.01229488 0.02673624
v 0.03545882 -0.01230104 0.02673624
v 0.03651684 -0.01233799 0.02673624
v 0.03756944 -0.01237495 0.02673624
v 0.03861661 -0.01250018 0.02673624
v 0.03968006 -0.01267264 0.02673624
v 0.04073266 -0.01296007 0.02673624
v 0.05060212 -0.01811120 0.02232019
v 0.05060212 -0.03050963 -0.00114657
v 0.01013679 -0.03021810 -0.00114384
v 0.01118939 -0.03015651 -0.00114384
v 0.00063628 -0.01306272 0.02673624
v 0.00168888 -0.01302782 0.02673624
v -0.00482746 -0.02120516 0.02059798
v -0.00482746 -0.01336452 0.02673624
v 0.04812797 -0.03173736 -0.00114657
v 0.03228475 -0.03309033 -0.00114384
v 0.03228475 -0.03315603 -0.00073444
v 0.03228475 -0.03325047 0.00031908
v 0.03228475 -0.03326278 0.00137806
v 0.03123758 -0.03325663 0.00137806
v -0.00147434 -0.03298562 0.00031908
v -0.00253237 -0.03293019 0.00031908
v -0.00358496 -0.03282548 0.00031908
v -0.00433914 -0.03271667 0.00031908
v -0.00482204 -0.03254627 0.00031908
v -0.00482204 -0.03249289 0.00142446
v -0.00482204 -0.03232043 0.00243431
v -0.00482204 -0.03216234 0.00330770
v -0.00482204 -0.03212745 0.00348783
v -0.00482204 -0.03180101 0.00456592
v -0.00482204 -0.03148073 0.00525098
v -0.00482204 -0.03134728 0.00553483
v -0.00482204 -0.03083812 0.00656378
v -0.00482204 -0.02445516 0.01844181
v -0.00482204 -0.02401785 0.01917600
v -0.00482204 -0.02391315 0.01931520
v -0.00482204 -0.02334445 0.02001936
v -0.00482204 -0.02288456 0.02053794
v -0.00463756 -0.02337935 0.02006030
v -0.00464299 -0.02289894 0.02059798
v -0.00482746 -0.02131808 0.02221920
v 0.04129151 -0.01315306 0.02673624
v 0.05060212 -0.01992405 0.02232019
v 0.04179068 -0.01332962 0.02673624
v 0.04237666 -0.01357804 0.02673624
v 0.05033626 -0.03070262 -0.00114657
v 0.05060212 -0.03063692 0.00129072
v -0.00482746 -0.01541143 0.02673624
v 0.04848607 -0.03168398 -0.00114657
v 0.04871396 -0.03165319 -0.00073444
v 0.04812797 -0.03173941 -0.00073444
v 0.03756944 -0.03295277 0.00137806
v 0.03756944 -0.03291993 0.00031908
v 0.03797637 -0.03270435 -0.00114384
v 0.03729273 -0.03275774 -0.00114384
v 0.03650057 -0.03281522 -0.00114384
v 0.03334277 -0.03318888 0.00031908
v 0.03334277 -0.03323199 0.00137806
v 0.03228475 -0.03316013 0.00243431
v -0.00147434 -0.03287065 0.00137806
v -0.00253237 -0.03283780 0.00137806
v -0.00363379 -0.03275158 0.00143538
v -0.00430116 -0.03270846 0.00111878
v -0.00401360 -0.03263250 0.00182294
v -0.00331368 -0.03270230 0.00199216
v -0.00463756 -0.03215208 0.00348783
v -0.00463756 -0.03180717 0.00461504
v -0.00427946 -0.03164497 0.00511997
v -0.00463756 -0.03139245 0.00552118
v -0.00463756 -0.03085455 0.00659108
v -0.00258662 -0.02456192 0.01940253
v -0.00358496 -0.02447774 0.01915690
v -0.00442596 -0.02434840 0.01895766
v -0.00358496 -0.02410408 0.01968366
v -0.00334080 -0.02337935 0.02059798
v -0.00308037 -0.02318842 0.02090912
v -0.00482746 -0.02081508 0.02274596
v 0.04237666 -0.01624702 0.02673624
v 0.05023317 -0.02015810 0.02232019
v 0.05060212 -0.02014373 0.02209638
v 0.05013008 -0.03083812 -0.00114657
v 0.05060212 -0.03065951 0.00173287
v -0.00482746 -0.01795722 0.02515869
v 0.00591554 -0.01921780 0.02529242
v 0.00907876 -0.01804550 0.02627498
v 0.00907876 -0.01723249 0.02673624
v 0.04870853 -0.03164908 -0.00114657
v 0.04871396 -0.03165113 0.00031908
v 0.04924025 -0.03140066 0.00031908
v 0.04869768 -0.03164497 0.00137806
v 0.04868140 -0.03163676 0.00243158
v 0.03843214 -0.03274952 0.00219413
v 0.03439537 -0.03305337 0.00243431
v 0.03334277 -0.03312523 0.00243431
v 0.03439537 -0.03316629 0.00137806
v 0.04866512 -0.03163060 0.00308662
v 0.03334277 -0.03288092 0.00348783
v 0.03228475 -0.03291171 0.00348783
v -0.00147434 -0.03273720 0.00211498
v -0.00253237 -0.03272488 0.00206858
v -0.00358496 -0.03192214 0.00454135
v -0.00358496 -0.03166345 0.00516364
v -0.00358496 -0.03142530 0.00569313
v -0.00147434 -0.02515114 0.01854826
v -0.00147434 -0.02474874 0.01930974
v -0.00228278 -0.02431350 0.01993748
v -0.00298813 -0.02420674 0.01981194
v -0.00257035 -0.02363804 0.02059798
v -0.00253237 -0.02328491 0.02099373
v -0.00482746 -0.02028744 0.02328910
v 0.02701633 -0.01695327 0.02673624
v 0.04237666 -0.01700049 0.02627771
v 0.04990220 -0.02027102 0.02232019
v 0.05023317 -0.02025049 0.02221920
v 0.05060212 -0.02041884 0.02175522
v 0.05017891 -0.03087097 0.00031908
v 0.04923483 -0.03136781 -0.00114657
v 0.05060212 -0.03065951 0.00174379
v -0.00482746 -0.01848280 0.02478477
v 0.00591554 -0.01974544 0.02492123
v 0.00696814 -0.01926502 0.02533063
v 0.00907876 -0.01857314 0.02590652
v 0.01013136 -0.01807424 0.02629408
v 0.00928494 -0.01724275 0.02673624
v 0.04924568 -0.03137602 -0.00073444
v 0.04922398 -0.03139040 0.00137806
v 0.03749348 -0.03277621 0.00249982
v 0.04812797 -0.03141093 0.00454135
v 0.03439537 -0.03279263 0.00355061
v 0.04812797 -0.03116661 0.00560033
v 0.04920770 -0.03137192 0.00243158
v 0.05031998 -0.03078885 0.00233060
v 0.05014636 -0.03081759 0.00348783
v 0.04908291 -0.03138424 0.00345508
v 0.04918057 -0.03118304 0.00454135
v 0.03405355 -0.03269614 0.00405826
v 0.03334277 -0.03271051 0.00410193
v 0.03228475 -0.03272283 0.00412922
v -0.00147434 -0.03198373 0.00454135
v -0.00253237 -0.03195704 0.00454135
v -0.00253237 -0.03168193 0.00520185
v 0.02595831 -0.02746289 0.01679057
v -0.00147434 -0.02436277 0.02000572
v -0.00147434 -0.02393368 0.02053521
v -0.00147434 -0.02388235 0.02059525
v -0.00256492 -0.02364214 0.02059525
v -0.00258662 -0.02388235 0.02031959
v -0.00147434 -0.02340194 0.02109199
v -0.00482746 -0.01972696 0.02381586
v 0.01013136 -0.01728176 0.02673624
v 0.01013136 -0.01859983 0.02590652
v 0.04237666 -0.01752813 0.02588742
v 0.04914259 -0.02050507 0.02232019
v 0.04576777 -0.02648358 0.01685880
v 0.05031998 -0.02081508 0.02145499
v 0.05002156 -0.02123596 0.02111928
v 0.05060212 -0.02107582 0.02091731
v 0.05060212 -0.03064924 0.00206585
v -0.00482746 -0.01919932 0.02425528
v 0.00591554 -0.02040857 0.02439447
v 0.00696814 -0.01979266 0.02495126
v 0.00802617 -0.01928350 0.02535793
v 0.04885502 -0.03069851 0.00640821
v 0.04845895 -0.03051784 0.00711238
v 0.04811170 -0.03073957 0.00671663
v 0.04775360 -0.03059175 0.00723520
v 0.04706995 -0.03063692 0.00734983
v 0.04703197 -0.03063897 0.00735529
v 0.05060212 -0.03059586 0.00280004
v 0.05060212 -0.03052400 0.00348783
v 0.05060212 -0.03050347 0.00359700
v 0.04996188 -0.03073136 0.00454135
v 0.04919685 -0.03085249 0.00556212
v 0.02701091 -0.02745263 0.01677692
v 0.02701091 -0.02718162 0.01730368
v 0.02595831 -0.02715904 0.01731733
v 0.02701091 -0.02665398 0.01818799
v 0.02701091 -0.02627622 0.01871747
v -0.00041632 -0.02396242 0.02055158
v -0.00041632 -0.02392547 0.02059525
v -0.00042175 -0.02342863 0.02110836
v 0.00591554 -0.02093621 0.02393868
v 0.00907876 -0.01928144 0.02537703
v 0.01013136 -0.01925886 0.02537976
v 0.04237666 -0.01817484 0.02536065
v 0.04237666 -0.01870248 0.02486119
v 0.04706995 -0.02076375 0.02232019
v 0.04495933 -0.02652053 0.01690793
v 0.04887130 -0.02966582 0.00852344
v 0.04890385 -0.02857565 0.01049947
v 0.04960920 -0.02839293 0.01024292
v 0.05060212 -0.02418210 0.01660225
v 0.05060212 -0.02357645 0.01747836
v 0.05060212 -0.02329518 0.01787957
v 0.00696814 -0.02042089 0.02442177
v 0.00802617 -0.01981113 0.02494580
v 0.04987507 -0.02858181 0.00953875
v 0.05060212 -0.03038850 0.00391634
v 0.05049360 -0.03025505 0.00454135
v 0.04977740 -0.03062666 0.00518820
v 0.02806893 -0.02662729 0.01818526
v 0.02806893 -0.02627417 0.01871475
v 0.00696814 -0.02095058 0.02394959
v 0.00907876 -0.01981113 0.02492123
v 0.02806893 -0.02574858 0.01919238
v 0.04922398 -0.02877685 0.00986354
v 0.05020061 -0.02818967 0.00983352
v 0.05060212 -0.02769694 0.01021016
v 0.05060212 -0.02787145 0.00984443
f 1 2 12
f 1 12 34
f 1 34 72
f 1 72 107
f 1 107 143
f 1 143 113
f 1 113 75
f 1 75 41
f 1 41 14
f 1 14 3
f 1 3 4
f 1 4 5
f 1 5 6
f 1 6 7
f 1 7 8
f 1 8 9
f 1 9 10
f 1 10 11
f 1 11 13
f 1 13 2
f 2 13 12
f 3 14 15
f 3 15 16
f 3 16 4
f 4 16 17
f 4 17 5
f 5 17 18
f 5 18 6
f 6 18 19
f 6 19 20
f 6 20 21
f 6 21 7
f 7 21 8
f 8 21 22
f 8 22 23
f 8 23 9
f 9 23 10
f 10 23 24
f 10 24 11
f 11 24 25
f 11 25 39
f 11 39 13
f 12 26 27
f 12 27 28
f 12 28 29
f 12 29 30
f 12 30 31
f 12 31 32
f 12 32 33
f 12 33 69
f 12 69 106
f 12 106 141
f 12 141 183
f 12 183 220
f 12 220 219
f 12 219 218
f 12 218 234
f 12 234 235
f 12 235 224
f 12 224 197
f 12 197 196
f 12 196 195
f 12 195 184
f 12 184 144
f 12 144 108
f 12 108 73
f 12 73 34
f 12 13 35
f 12 35 36
f 12 36 37
f 12 37 38
f 12 38 26
f 13 39 40
f 13 40 35
f 14 41 15
f 15 41 42
f 15 42 43
f 15 43 17
f 15 17 16
f 17 19 18
f 17 43 44
f 17 44 19
f 19 44 45
f 19 45 46
f 19 46 20
f 20 46 47
f 20 47 48
f 20 48 21
f 21 48 49
f 21 49 22
f 22 49 50
f 22 50 23
f 23 50 51
f 23 51 24
f 24 51 25
f 25 51 52
f 25 52 53
f 25 53 54
f 25 54 55
f 25 55 56
f 25 56 57
f 25 57 58
f 25 58 59
f 25 59 60
f 25 60 61
f 25 61 62
f 25 62 63
f 25 63 64
f 25 64 65
f 25 65 66
f 25 66 67
f 25 67 103
f 25 103 136
f 25 136 175
f 25 175 185
f 25 185 145
f 25 145 109
f 25 109 74
f 25 74 40
f 25 40 39
f 26 38 37
f 26 37 40
f 26 40 74
f 26 74 112
f 26 112 150
f 26 150 176
f 26 176 137
f 26 137 104
f 26 104 71
f 26 71 70
f 26 70 68
f 26 68 32
f 26 32 31
f 26 31 30
f 26 30 29
f 26 29 28
f 26 28 27
f 32 68 33
f 33 68 70
f 33 70 71
f 33 71 104
f 33 104 69
f 34 73 72
f 35 40 36
f 36 40 37
f 41 75 76
f 41 76 77
f 41 77 78
f 41 78 79
f 41 79 80
f 41 80 81
f 41 81 82
f 41 82 42
f 42 82 43
f 43 82 79
f 43 79 83
f 43 83 44
f 44 83 84
f 44 84 45
f 45 84 85
f 45 85 46
f 46 85 47
f 47 85 86
f 47 86 87
f 47 87 48
f 48 87 88
f 48 88 89
f 48 89 49
f 49 89 50
f 50 89 51
f 51 89 52
f 52 89 53
f 53 89 54
f 54 89 55
f 55 89 90
f 55 90 91
f 55 91 92
f 55 92 56
f 56 92 93
f 56 93 94
f 56 94 95
f 56 95 57
f 57 95 58
f 58 95 59
f 59 95 96
f 59 96 97
f 59 97 98
f 59 98 99
f 59 99 60
f 60 99 61
f 61 99 62
f 62 99 100
f 62 100 63
f 63 100 65
f 63 65 64
f 65 100 66
f 66 100 101
f 66 101 102
f 66 102 67
f 67 102 103
f 69 104 105
f 69 105 106
f 72 73 108
f 72 108 107
f 74 109 110
f 74 110 111
f 74 111 112
f 75 113 76
f 76 114 77
f 76 113 115
f 76 115 114
f 77 114 116
f 77 116 117
f 77 117 78
f 78 118 119
f 78 119 120
f 78 120 121
f 78 121 79
f 78 117 122
f 78 122 118
f 79 121 83
f 79 82 81
f 79 81 80
f 83 121 84
f 84 121 120
f 84 120 85
f 85 120 123
f 85 123 124
f 85 124 125
f 85 125 86
f 86 125 126
f 86 126 87
f 87 126 91
f 87 91 88
f 88 90 89
f 88 91 90
f 91 126 127
f 91 127 92
f 92 127 93
f 93 127 94
f 94 96 95
f 94 127 128
f 94 128 129
f 94 129 130
f 94 130 96
f 96 130 97
f 97 130 131
f 97 131 132
f 97 132 98
f 98 132 133
f 98 133 99
f 99 133 100
f 100 133 101
f 101 133 102
f 102 133 134
f 102 134 135
f 102 135 136
f 102 136 103
f 104 137 138
f 104 138 105
f 105 139 140
f 105 140 106
f 105 138 139
f 106 140 141
f 107 108 142
f 107 142 143
f 108 144 115
f 108 115 142
f 109 145 146
f 109 146 110
f 110 146 147
f 110 147 111
f 111 147 148
f 111 148 149
f 111 149 112
f 112 149 150
f 113 143 151
f 113 151 115
f 114 115 116
f 115 152 117
f 115 117 116
f 115 151 142
f 115 144 152
f 117 152 122
f 118 153 119
f 118 122 154
f 118 154 153
f 119 155 123
f 119 123 120
f 119 153 154
f 119 154 156
f 119 156 155
f 122 152 157
f 122 157 158
f 122 158 159
f 122 159 160
f 122 160 161
f 122 161 156
f 122 156 154
f 123 155 162
f 123 162 163
f 123 163 124
f 124 163 164
f 124 164 125
f 125 165 166
f 125 166 126
f 125 164 165
f 126 166 127
f 127 166 128
f 128 166 167
f 128 167 168
f 128 168 129
f 129 168 130
f 130 168 131
f 131 169 132
f 131 168 169
f 132 169 170
f 132 170 171
f 132 171 135
f 132 135 172
f 132 172 173
f 132 173 133
f 133 173 134
f 134 173 172
f 134 172 135
f 135 171 174
f 135 174 175
f 135 175 136
f 137 176 149
f 137 149 177
f 137 177 178
f 137 178 138
f 138 178 179
f 138 179 139
f 139 179 180
f 139 180 140
f 140 181 141
f 140 180 182
f 140 182 181
f 141 181 183
f 142 151 143
f 144 184 157
f 144 157 152
f 145 185 146
f 146 186 187
f 146 187 147
f 146 185 186
f 147 187 188
f 147 188 148
f 148 177 149
f 148 188 177
f 149 176 150
f 155 156 162
f 156 161 189
f 156 189 190
f 156 190 191
f 156 191 192
f 156 192 193
f 156 193 194
f 156 194 162
f 157 184 158
f 158 184 159
f 159 184 195
f 159 195 196
f 159 196 197
f 159 197 198
f 159 198 161
f 159 161 160
f 161 199 189
f 161 198 199
f 162 194 163
f 163 194 200
f 163 200 164
f 164 200 168
f 164 168 165
f 165 168 167
f 165 167 166
f 168 200 201
f 168 201 202
f 168 202 169
f 169 202 203
f 169 203 204
f 169 204 205
f 169 205 170
f 170 205 206
f 170 206 171
f 171 206 174
f 174 206 207
f 174 207 208
f 174 208 186
f 174 186 175
f 175 186 185
f 177 188 209
f 177 209 210
f 177 210 178
f 178 211 179
f 178 210 211
f 179 211 212
f 179 212 213
f 179 213 180
f 180 212 214
f 180 214 194
f 180 194 193
f 180 193 192
f 180 192 190
f 180 190 215
f 180 215 216
f 180 216 217
f 180 217 218
f 180 218 219
f 180 219 220
f 180 220 182
f 180 213 212
f 181 182 183
f 182 220 183
f 186 208 221
f 186 221 187
f 187 221 222
f 187 222 209
f 187 209 188
f 189 215 190
f 189 199 223
f 189 223 215
f 190 192 191
f 194 214 200
f 197 224 198
f 198 224 225
f 198 225 226
f 198 226 199
f 199 226 223
f 200 214 201
f 201 227 203
f 201 203 202
f 201 214 227
f 203 227 228
f 203 228 204
f 204 228 229
f 204 229 206
f 204 206 205
f 206 229 208
f 206 208 207
f 208 229 221
f 209 222 210
f 210 222 230
f 210 230 231
f 210 231 211
f 211 231 228
f 211 228 212
f 212 228 214
f 214 228 227
f 215 223 217
f 215 217 232
f 215 232 216
f 216 232 217
f 217 223 233
f 217 233 234
f 217 234 218
f 221 229 222
f 222 229 231
f 222 231 230
f 223 226 235
f 223 235 233
f 224 235 225
f 225 235 226
f 228 231 229
f 233 235 234

