# https://github.com/mikedh/trimesh
v 0.00200913 -0.01085637 -0.02933341
v 0.00200913 -0.01085637 -0.03072583
v -0.02485573 -0.01085637 -0.02756488
v 0.04985848 -0.01331347 -0.02734087
v -0.00042819 -0.01085637 -0.03117975
v 0.04985848 -0.01331347 -0.02885355
v -0.02554434 -0.01085637 -0.02754130
v 0.04985848 -0.02272009 -0.01957703
v -0.02576180 -0.01085637 -0.02753423
v -0.00070907 -0.01085637 -0.03122573
v 0.03651212 -0.01331347 -0.03106774
v 0.04985848 -0.01377134 -0.02878634
v 0.04985848 -0.02503607 -0.01957703
v -0.02681284 -0.01085637 -0.02751300
v -0.04159077 -0.02045115 -0.02132315
v 0.02481481 -0.02352449 -0.01957467
v 0.02490542 -0.02352449 -0.01957467
v 0.02572087 -0.02363896 -0.01957467
v 0.02598363 -0.02368286 -0.01957467
v 0.02683534 -0.02391336 -0.01957467
v 0.02699843 -0.02396354 -0.01957467
v 0.02764173 -0.02417679 -0.01957467
v 0.02806758 -0.02434300 -0.01957467
v 0.02811289 -0.02436496 -0.01957467
v -0.00147923 -0.01085637 -0.03135071
v 0.04389656 -0.01632096 -0.02921315
v 0.04284552 -0.01737781 -0.02914712
v 0.03546108 -0.01331347 -0.03122219
v 0.04982223 -0.01388267 -0.02877455
v 0.04985848 -0.01390462 -0.02874743
v 0.02811289 -0.02588908 -0.01957467
v 0.04965008 -0.02525560 -0.01957703
v 0.04985848 -0.02440259 -0.02050020
v -0.02780045 -0.01085637 -0.02756016
v -0.04266899 -0.02051858 -0.02132315
v 0.00470014 -0.02492631 -0.01957467
v -0.00174199 -0.01085637 -0.03137547
v 0.03154688 -0.01331347 -0.03161127
v 0.04759331 -0.01579410 -0.02871207
v 0.04396904 -0.01745778 -0.02894079
v 0.04366098 -0.01805677 -0.02878045
v 0.04284552 -0.01815398 -0.02882879
v 0.03334995 -0.01421195 -0.03113731
v 0.03442817 -0.01430133 -0.03100879
v 0.03546108 -0.01409592 -0.03097460
v 0.04985848 -0.01599324 -0.02788322
v 0.04943262 -0.01458828 -0.02863897
v 0.04747552 -0.02630618 -0.01957703
v 0.04798292 -0.02617290 -0.01957703
v 0.04819131 -0.02607568 -0.01957703
v 0.04913362 -0.02557705 -0.01957703
v 0.04932390 -0.02546101 -0.01957703
v 0.01223861 -0.02687538 -0.01957467
v 0.04945074 -0.02510664 -0.02001562
v 0.04959571 -0.02412662 -0.02120171
v 0.04985848 -0.02338807 -0.02166271
v -0.03819303 -0.01085637 -0.02831945
v -0.04270523 -0.02052171 -0.02132315
v 0.00447363 -0.02494670 -0.01957467
v -0.00253027 -0.01085637 -0.03143088
v 0.03229891 -0.01421195 -0.03120569
v 0.03131130 -0.01331347 -0.03161952
v 0.04801916 -0.01621747 -0.02840316
v 0.04284552 -0.01868084 -0.02855407
v 0.04803728 -0.01736526 -0.02784784
v 0.04396904 -0.01841898 -0.02849041
v 0.04178542 -0.01820573 -0.02886180
v 0.04985848 -0.01611084 -0.02783370
v 0.04921517 -0.01638681 -0.02794688
v 0.04706779 -0.02632813 -0.01957703
v 0.04706779 -0.02614311 -0.01990951
v 0.04706779 -0.02561468 -0.02069709
v 0.04812789 -0.02549551 -0.02054618
v 0.04811883 -0.02602707 -0.01971615
v 0.04873495 -0.02534498 -0.02035164
v 0.03352210 -0.02677659 -0.01957703
v 0.00200913 -0.02667467 -0.01957467
v 0.00200913 -0.02663860 -0.01962537
v -0.00147923 -0.02534027 -0.02132315
v -0.00042819 -0.02535909 -0.02132315
v 0.01223861 -0.02677189 -0.01971379
v 0.03334995 -0.02599257 -0.02083858
v 0.03334995 -0.02637047 -0.02031038
v 0.03334995 -0.02669348 -0.01974327
v 0.04916986 -0.02475226 -0.02077727
v 0.04887992 -0.02439945 -0.02150354
v 0.04963196 -0.02207877 -0.02338408
v 0.04985848 -0.02233436 -0.02281108
v -0.03842860 -0.01085637 -0.02835482
v -0.04270523 -0.02179966 -0.02132315
v 0.00200913 -0.02520699 -0.01957467
v -0.03919876 -0.01085637 -0.02851871
v -0.03932561 -0.01085637 -0.02854582
v -0.04270523 -0.01085637 -0.02937350
v -0.04270523 -0.01085637 -0.03056784
v 0.03013342 -0.01331347 -0.03161952
v 0.03229891 -0.01486269 -0.03088735
v 0.02912768 -0.01500538 -0.03094631
v 0.03123881 -0.01421195 -0.03124106
v 0.04073439 -0.01824650 -0.02888656
v 0.03017872 -0.01421195 -0.03126464
v 0.02811289 -0.01504144 -0.03095574
v 0.02806758 -0.01504301 -0.03095574
v 0.02700749 -0.01504458 -0.03095574
v 0.04878932 -0.01705166 -0.02776296
v 0.04284552 -0.01936137 -0.02802706
v 0.04178542 -0.01873416 -0.02857412
v 0.04389656 -0.01926885 -0.02794216
v 0.04762049 -0.01792035 -0.02766628
v 0.04555466 -0.01899445 -0.02768396
v 0.04495666 -0.01910264 -0.02778300
v 0.04985848 -0.01772905 -0.02674075
v 0.04976787 -0.01797680 -0.02665468
v 0.04959571 -0.01678196 -0.02759907
v 0.04889804 -0.01700462 -0.02775116
v 0.04706779 -0.02518504 -0.02122412
v 0.04812789 -0.02509880 -0.02107438
v 0.03334995 -0.02546572 -0.02152241
v 0.03757222 -0.02443395 -0.02262715
v -0.03172371 -0.02320148 -0.02132315
v -0.03170559 -0.02319207 -0.02135027
v -0.03314624 -0.02235317 -0.02276981
v -0.00205005 -0.02531048 -0.02132315
v -0.03390733 -0.02110502 -0.02453362
v -0.00887273 -0.02208661 -0.02445463
v 0.03968335 -0.01997133 -0.02760379
v 0.03968335 -0.02099683 -0.02653795
v 0.04812789 -0.02457194 -0.02171105
v 0.04812789 -0.02408114 -0.02223925
v 0.04927859 -0.02165226 -0.02401957
v 0.04963196 -0.02102035 -0.02444873
v 0.04985848 -0.02127280 -0.02395354
v -0.04270523 -0.02118813 -0.02258470
v -0.04270523 -0.01101474 -0.03051125
v 0.02700749 -0.01421195 -0.03126464
v 0.02806758 -0.01421195 -0.03127407
v 0.02811289 -0.01506653 -0.03094395
v 0.02806758 -0.01556987 -0.03068103
v 0.04073439 -0.01877492 -0.02858709
v 0.02700749 -0.01557144 -0.03068456
v -0.04270523 -0.01209825 -0.03010213
v -0.04270523 -0.01204650 -0.03012453
v 0.04389656 -0.01979571 -0.02744698
v 0.04284552 -0.01988823 -0.02752715
v 0.04178542 -0.01993213 -0.02756606
v 0.04073439 -0.01996349 -0.02759671
v 0.04178542 -0.01940371 -0.02804710
v 0.04495666 -0.01963107 -0.02731964
v 0.04571775 -0.02009991 -0.02668533
v 0.04812789 -0.02195803 -0.02432493
v 0.04706779 -0.02210699 -0.02447467
v 0.04783794 -0.01910107 -0.02671245
v 0.04706779 -0.01858676 -0.02739510
v 0.04832722 -0.01771023 -0.02752479
v 0.04808258 -0.01840957 -0.02711921
v 0.04812789 -0.02077103 -0.02532592
v 0.04812789 -0.02143117 -0.02480008
v 0.04985848 -0.01808969 -0.02648018
v 0.04917892 -0.01817437 -0.02680795
v 0.04942356 -0.01705166 -0.02749178
v 0.04985848 -0.01914969 -0.02568670
v 0.04706779 -0.02420502 -0.02235479
v 0.03757222 -0.02399490 -0.02315535
v 0.04073439 -0.02145469 -0.02601211
v 0.04178542 -0.02097017 -0.02650023
v 0.04073439 -0.02099996 -0.02654031
v 0.03651212 -0.02445434 -0.02264483
v -0.03314624 -0.02200037 -0.02329683
v -0.04270523 -0.02087295 -0.02311173
v -0.04270523 -0.02034452 -0.02390756
v -0.04265087 -0.01995095 -0.02443930
v -0.04270523 -0.01901797 -0.02560771
v -0.04265087 -0.01902111 -0.02561242
v -0.03525737 -0.01987882 -0.02542614
v -0.03419727 -0.01992272 -0.02545915
v -0.01098386 -0.02041352 -0.02589185
v -0.00887273 -0.02101251 -0.02548155
v 0.03968335 -0.01944291 -0.02806596
v 0.04073439 -0.01943507 -0.02806007
v 0.04892522 -0.02122262 -0.02462676
v 0.04985848 -0.02024260 -0.02482956
v 0.04985848 -0.02033825 -0.02474938
v 0.04985848 -0.02087138 -0.02430135
v 0.03968335 -0.01878904 -0.02859298
v 0.02806758 -0.01632252 -0.03019881
v 0.02700749 -0.01632252 -0.03019763
v -0.03525737 -0.01935196 -0.02579871
v -0.04270523 -0.01402693 -0.02895258
v -0.04270523 -0.01320528 -0.02948078
v -0.04265087 -0.01267842 -0.02979912
v -0.04270523 -0.01267685 -0.02979794
v 0.04389656 -0.02031787 -0.02691878
v 0.04284552 -0.02039470 -0.02699895
v 0.04921517 -0.01736526 -0.02736563
v -0.04270523 -0.01994624 -0.02443458
v -0.04270523 -0.01718808 -0.02685629
v -0.04265087 -0.01723041 -0.02683389
v -0.01098386 -0.01971888 -0.02641769
v 0.02700749 -0.01690426 -0.02980855
v 0.02806758 -0.01691054 -0.02981327
f 1 2 5
f 1 5 10
f 1 10 25
f 1 25 37
f 1 37 60
f 1 60 95
f 1 95 94
f 1 94 93
f 1 93 92
f 1 92 89
f 1 89 57
f 1 57 34
f 1 34 14
f 1 14 9
f 1 9 7
f 1 7 3
f 1 3 4
f 1 4 6
f 1 6 2
f 2 6 5
f 3 7 4
f 4 8 13
f 4 13 33
f 4 33 56
f 4 56 88
f 4 88 132
f 4 132 183
f 4 183 182
f 4 182 181
f 4 181 161
f 4 161 158
f 4 158 112
f 4 112 68
f 4 68 46
f 4 46 30
f 4 30 12
f 4 12 6
f 4 7 9
f 4 9 8
f 5 6 11
f 5 11 10
f 6 12 11
f 8 9 14
f 8 14 15
f 8 15 16
f 8 16 17
f 8 17 18
f 8 18 19
f 8 19 20
f 8 20 21
f 8 21 22
f 8 22 23
f 8 23 24
f 8 24 31
f 8 31 13
f 10 11 25
f 11 26 27
f 11 27 28
f 11 28 25
f 11 12 29
f 11 29 26
f 12 30 29
f 13 31 32
f 13 32 33
f 14 34 35
f 14 35 15
f 15 35 16
f 16 36 59
f 16 59 91
f 16 91 77
f 16 77 53
f 16 53 31
f 16 31 24
f 16 24 23
f 16 23 22
f 16 22 21
f 16 21 20
f 16 20 19
f 16 19 18
f 16 18 17
f 16 35 36
f 25 28 38
f 25 38 37
f 26 29 39
f 26 39 40
f 26 40 27
f 27 40 41
f 27 41 42
f 27 42 43
f 27 43 44
f 27 44 45
f 27 45 28
f 28 45 38
f 29 30 46
f 29 46 47
f 29 47 39
f 31 48 49
f 31 49 50
f 31 50 51
f 31 51 52
f 31 52 32
f 31 53 48
f 32 54 55
f 32 55 33
f 32 52 54
f 33 55 56
f 34 57 58
f 34 58 35
f 35 58 36
f 36 58 59
f 37 38 60
f 38 61 62
f 38 62 60
f 38 45 44
f 38 44 43
f 38 43 61
f 39 63 41
f 39 41 40
f 39 47 63
f 41 64 42
f 41 63 65
f 41 65 66
f 41 66 64
f 42 64 67
f 42 67 61
f 42 61 43
f 46 68 47
f 47 68 69
f 47 69 63
f 48 53 70
f 48 70 71
f 48 71 72
f 48 72 73
f 48 73 49
f 49 73 74
f 49 74 50
f 50 74 75
f 50 75 51
f 51 75 52
f 52 75 54
f 53 76 70
f 53 77 78
f 53 78 79
f 53 79 80
f 53 80 81
f 53 81 82
f 53 82 83
f 53 83 84
f 53 84 76
f 54 85 55
f 54 75 85
f 55 85 86
f 55 86 87
f 55 87 88
f 55 88 56
f 57 89 58
f 58 90 77
f 58 77 91
f 58 91 59
f 58 89 92
f 58 92 93
f 58 93 94
f 58 94 95
f 58 95 134
f 58 134 142
f 58 142 141
f 58 141 191
f 58 191 189
f 58 189 188
f 58 188 196
f 58 196 172
f 58 172 195
f 58 195 170
f 58 170 169
f 58 169 133
f 58 133 90
f 60 62 96
f 60 96 95
f 61 97 98
f 61 98 99
f 61 99 62
f 61 67 100
f 61 100 97
f 62 99 101
f 62 101 102
f 62 102 103
f 62 103 104
f 62 104 96
f 63 69 105
f 63 105 65
f 64 106 107
f 64 107 67
f 64 66 108
f 64 108 106
f 65 105 109
f 65 109 66
f 66 109 110
f 66 110 111
f 66 111 108
f 67 107 100
f 68 112 113
f 68 113 114
f 68 114 69
f 69 114 115
f 69 115 105
f 70 76 84
f 70 84 71
f 71 84 83
f 71 83 72
f 72 116 117
f 72 117 73
f 72 83 82
f 72 82 118
f 72 118 119
f 72 119 116
f 73 117 75
f 73 75 74
f 75 117 86
f 75 86 85
f 77 90 120
f 77 120 121
f 77 121 122
f 77 122 123
f 77 123 79
f 77 79 78
f 79 123 124
f 79 124 125
f 79 125 126
f 79 126 80
f 80 126 127
f 80 127 118
f 80 118 81
f 81 118 82
f 86 117 128
f 86 128 129
f 86 129 130
f 86 130 131
f 86 131 87
f 87 131 132
f 87 132 88
f 90 133 122
f 90 122 121
f 90 121 120
f 95 96 135
f 95 135 134
f 96 104 136
f 96 136 135
f 97 100 98
f 98 137 102
f 98 102 99
f 98 100 138
f 98 138 137
f 99 102 101
f 100 107 139
f 100 139 138
f 102 137 103
f 103 137 104
f 104 135 136
f 104 137 140
f 104 140 141
f 104 141 142
f 104 142 134
f 104 134 135
f 105 115 109
f 106 108 143
f 106 143 144
f 106 144 145
f 106 145 146
f 106 146 147
f 106 147 107
f 107 147 139
f 108 111 148
f 108 148 149
f 108 149 150
f 108 150 151
f 108 151 143
f 109 152 153
f 109 153 110
f 109 115 154
f 109 154 155
f 109 155 152
f 110 153 152
f 110 152 156
f 110 156 157
f 110 157 111
f 111 157 149
f 111 149 148
f 112 158 113
f 113 131 159
f 113 159 160
f 113 160 114
f 113 158 161
f 113 161 131
f 114 160 154
f 114 154 115
f 116 162 128
f 116 128 117
f 116 119 163
f 116 163 164
f 116 164 165
f 116 165 162
f 118 127 166
f 118 166 167
f 118 167 119
f 119 167 163
f 122 124 168
f 122 168 123
f 122 133 169
f 122 169 124
f 123 168 124
f 124 169 170
f 124 170 171
f 124 171 172
f 124 172 173
f 124 173 174
f 124 174 175
f 124 175 176
f 124 176 177
f 124 177 125
f 125 177 126
f 126 178 179
f 126 179 146
f 126 146 166
f 126 166 127
f 126 177 178
f 128 162 129
f 129 162 151
f 129 151 150
f 129 150 130
f 130 150 180
f 130 180 131
f 131 180 159
f 131 161 181
f 131 181 182
f 131 182 183
f 131 183 132
f 137 138 140
f 138 139 184
f 138 184 140
f 139 147 179
f 139 179 184
f 140 184 185
f 140 185 186
f 140 186 187
f 140 187 188
f 140 188 189
f 140 189 190
f 140 190 141
f 141 190 191
f 143 192 144
f 143 151 162
f 143 162 192
f 144 193 165
f 144 165 145
f 144 192 193
f 145 165 166
f 145 166 146
f 146 179 147
f 149 157 150
f 150 157 180
f 152 155 159
f 152 159 156
f 154 160 194
f 154 194 159
f 154 159 155
f 156 180 157
f 156 159 180
f 159 194 160
f 162 165 193
f 162 193 192
f 163 166 164
f 163 167 166
f 164 166 165
f 170 195 171
f 171 195 172
f 172 196 173
f 173 197 187
f 173 187 175
f 173 175 174
f 173 196 197
f 175 198 176
f 175 187 186
f 175 186 199
f 175 199 198
f 176 198 199
f 176 199 177
f 177 199 178
f 178 199 184
f 178 184 179
f 184 199 200
f 184 200 185
f 185 200 186
f 186 200 199
f 187 197 188
f 188 197 196
f 189 191 190

