# https://github.com/mikedh/trimesh
v -0.01097088 0.02061130 -0.02714764
v -0.01097886 0.02125940 -0.02667681
v 0.03546251 0.02370958 -0.02356170
v 0.03625222 0.02367742 -0.02356170
v 0.03651546 0.02365763 -0.02356170
v 0.03739292 0.02358218 -0.02356170
v 0.03885269 0.02345602 -0.02356170
v 0.03885269 0.02171456 -0.02356170
v 0.02533986 0.02085125 -0.02356170
v 0.02490113 0.02082899 -0.02356170
v -0.01097088 0.02061130 -0.02563844
v -0.04263908 0.02061130 -0.02565880
v -0.00043343 0.02455186 -0.02356170
v -0.01942637 0.02335213 -0.02454662
v -0.01837342 0.02388273 -0.02407834
v -0.01837342 0.02442941 -0.02354897
v 0.03546251 0.02408928 -0.02312904
v 0.03651546 0.02406578 -0.02306033
v 0.03885269 0.02395571 -0.02293308
v 0.03885269 0.03101432 -0.00114764
v 0.02766113 0.03041693 -0.00114764
v 0.02701500 0.03038725 -0.00114764
v -0.02681296 0.02061130 -0.02362532
v -0.02576001 0.02061130 -0.02370676
v -0.01523053 0.02061130 -0.02498182
v -0.01407388 0.02061130 -0.02514470
v -0.04263908 0.02061130 -0.02400199
v -0.04263908 0.02094896 -0.02534831
v 0.03546251 0.02448012 -0.02259968
v -0.01837342 0.02493033 -0.02290508
v -0.01837342 0.02535333 -0.02235535
v -0.02365411 0.02867794 -0.01731620
v -0.01942637 0.02388026 -0.02405034
v -0.01942637 0.02439973 -0.02352352
v 0.03885269 0.02434407 -0.02240626
v 0.03885269 0.03204832 -0.00114764
v 0.00696114 0.03037735 -0.00114764
v -0.02762659 0.02061130 -0.02362023
v -0.04260717 0.02061130 -0.02399435
v -0.04263908 0.03164016 -0.00114764
v -0.04263908 0.02146225 -0.02481385
v 0.03546251 0.02487715 -0.02184889
v 0.03885269 0.02465081 -0.02184889
v -0.04263908 0.02738421 -0.01804662
v -0.02681296 0.02774289 -0.01851491
v -0.02576001 0.02829081 -0.01781503
v -0.02576001 0.02866310 -0.01728821
v -0.02470706 0.02867794 -0.01731366
v -0.02365411 0.02900323 -0.01657305
v -0.00886498 0.02983315 -0.01438178
v -0.04263908 0.02450362 -0.02150531
v -0.04263908 0.02502433 -0.02093268
v -0.04263908 0.02548320 -0.02040586
v -0.04263908 0.02644051 -0.01922497
v 0.03885269 0.03204832 -0.00129016
v 0.03862136 0.03209284 -0.00114764
v -0.01414568 0.03051217 -0.00114764
v -0.02786590 0.02061130 -0.02362023
v -0.04159411 0.02061130 -0.02386456
v -0.04263908 0.03175890 -0.00114764
v 0.01224183 0.02875091 -0.01544815
v 0.03546251 0.02524944 -0.02112102
v 0.03829430 0.02963773 -0.01188511
v 0.03863731 0.02986778 -0.01136847
v 0.03885269 0.02985541 -0.01132266
v -0.04263908 0.02775897 -0.01751980
v -0.02576001 0.02896860 -0.01657305
v -0.02470706 0.02900076 -0.01657305
v -0.04263908 0.02828092 -0.01667231
v -0.04263908 0.02859136 -0.01614040
v -0.04263908 0.02888202 -0.01552705
v -0.04263908 0.02977501 -0.01345285
v -0.02365411 0.02963278 -0.01507403
v 0.03815870 0.03066554 -0.00974220
v 0.03756841 0.02998157 -0.01129466
v -0.01942637 0.03071377 -0.01200218
v -0.02047932 0.03280031 -0.00559889
v 0.03885269 0.03204708 -0.00181444
v 0.03862136 0.03209161 -0.00179662
v 0.03798320 0.03214603 -0.00114764
v -0.04144255 0.02061130 -0.02385947
v -0.04053318 0.02061130 -0.02383656
v -0.04209665 0.03282010 -0.00114764
v -0.04263908 0.03280774 -0.00115273
v 0.03885269 0.03025862 -0.01040391
v -0.02470706 0.02963031 -0.01506640
v -0.04263908 0.03071872 -0.01094600
v -0.03631341 0.03196545 -0.00813120
v -0.02470706 0.02984181 -0.01446068
v 0.03756841 0.03110461 -0.00812865
v 0.03862136 0.03102422 -0.00812865
v 0.03855754 0.03075706 -0.00918738
v 0.03885269 0.03073975 -0.00907286
v 0.03885269 0.03034396 -0.01017485
v -0.03716694 0.03282010 -0.00569560
v -0.03631341 0.03282010 -0.00569815
v -0.02047932 0.03290050 -0.00496264
v -0.01942637 0.03278795 -0.00556072
v -0.03631341 0.03297347 -0.00496264
v 0.03885269 0.03196174 -0.00285281
v 0.03862136 0.03200503 -0.00285281
v 0.03756841 0.03215345 -0.00179662
v 0.03756841 0.03216953 -0.00114764
v -0.03736636 0.03323321 -0.00114764
v -0.04263908 0.03278300 -0.00143777
v -0.03736636 0.03316147 -0.00285026
v -0.03736636 0.03309715 -0.00390899
v -0.04263908 0.03097598 -0.01024102
v 0.03756841 0.03178240 -0.00490156
v 0.03840598 0.03176137 -0.00474376
v 0.03885269 0.03098217 -0.00814392
v 0.03885269 0.03093640 -0.00832207
v -0.03745411 0.03291410 -0.00505426
v -0.04263908 0.03175766 -0.00777998
v -0.04263908 0.03191227 -0.00707755
v -0.02047932 0.03300686 -0.00390899
v 0.03756841 0.03206687 -0.00285281
v 0.03756841 0.03193453 -0.00390899
v -0.03631341 0.03312065 -0.00390899
v 0.03885269 0.03193082 -0.00310986
v 0.03870910 0.03183434 -0.00399044
v -0.02154024 0.03309097 -0.00285026
v -0.02259319 0.03313302 -0.00179662
v -0.02323931 0.03312560 -0.00114764
v -0.03631341 0.03324681 -0.00114764
v -0.03631341 0.03318126 -0.00285026
v -0.04263908 0.03211263 -0.00601882
v 0.03885269 0.03181827 -0.00392427
v 0.03885269 0.03170943 -0.00452744
f 1 2 3
f 1 3 4
f 1 4 5
f 1 5 6
f 1 6 7
f 1 7 8
f 1 8 9
f 1 9 10
f 1 10 11
f 1 11 26
f 1 26 25
f 1 25 24
f 1 24 23
f 1 23 38
f 1 38 58
f 1 58 82
f 1 82 81
f 1 81 59
f 1 59 39
f 1 39 27
f 1 27 12
f 1 12 2
f 2 13 3
f 2 12 14
f 2 14 15
f 2 15 16
f 2 16 13
f 3 17 4
f 3 13 17
f 4 17 5
f 5 17 18
f 5 18 6
f 6 18 7
f 7 19 35
f 7 35 43
f 7 43 65
f 7 65 85
f 7 85 94
f 7 94 93
f 7 93 112
f 7 112 111
f 7 111 129
f 7 129 128
f 7 128 120
f 7 120 100
f 7 100 78
f 7 78 55
f 7 55 36
f 7 36 20
f 7 20 8
f 7 18 19
f 8 20 9
f 9 21 10
f 9 20 21
f 10 21 22
f 10 22 23
f 10 23 24
f 10 24 25
f 10 25 26
f 10 26 11
f 12 27 40
f 12 40 60
f 12 60 84
f 12 84 105
f 12 105 127
f 12 127 115
f 12 115 114
f 12 114 108
f 12 108 87
f 12 87 72
f 12 72 71
f 12 71 70
f 12 70 69
f 12 69 66
f 12 66 44
f 12 44 54
f 12 54 53
f 12 53 52
f 12 52 51
f 12 51 41
f 12 41 28
f 12 28 14
f 13 29 17
f 13 16 30
f 13 30 31
f 13 31 32
f 13 32 29
f 14 28 33
f 14 33 15
f 15 33 16
f 16 33 34
f 16 34 30
f 17 29 18
f 18 29 35
f 18 35 19
f 20 36 56
f 20 56 80
f 20 80 103
f 20 103 124
f 20 124 125
f 20 125 104
f 20 104 83
f 20 83 60
f 20 60 40
f 20 40 57
f 20 57 37
f 20 37 22
f 20 22 21
f 22 37 38
f 22 38 23
f 27 39 40
f 28 41 34
f 28 34 33
f 29 42 43
f 29 43 35
f 29 32 42
f 30 34 31
f 31 34 44
f 31 44 45
f 31 45 46
f 31 46 47
f 31 47 48
f 31 48 32
f 32 48 49
f 32 49 50
f 32 50 42
f 34 41 51
f 34 51 52
f 34 52 53
f 34 53 54
f 34 54 44
f 36 55 56
f 37 57 58
f 37 58 38
f 39 59 40
f 40 59 57
f 42 50 61
f 42 61 62
f 42 62 43
f 43 63 64
f 43 64 65
f 43 62 63
f 44 66 46
f 44 46 45
f 46 66 47
f 47 67 68
f 47 68 48
f 47 66 69
f 47 69 70
f 47 70 71
f 47 71 72
f 47 72 67
f 48 68 49
f 49 68 73
f 49 73 50
f 50 74 75
f 50 75 61
f 50 73 76
f 50 76 77
f 50 77 74
f 55 78 79
f 55 79 56
f 56 79 80
f 57 59 81
f 57 81 82
f 57 82 58
f 60 83 84
f 61 75 62
f 62 75 63
f 63 75 64
f 64 75 74
f 64 74 65
f 65 74 85
f 67 72 68
f 68 72 86
f 68 86 73
f 72 87 88
f 72 88 86
f 73 86 89
f 73 89 76
f 74 90 91
f 74 91 92
f 74 92 93
f 74 93 94
f 74 94 85
f 74 77 90
f 76 89 95
f 76 95 96
f 76 96 77
f 77 97 98
f 77 98 90
f 77 96 99
f 77 99 97
f 78 100 101
f 78 101 79
f 79 101 117
f 79 117 102
f 79 102 80
f 80 102 103
f 83 104 84
f 84 104 106
f 84 106 107
f 84 107 105
f 86 88 95
f 86 95 89
f 87 108 88
f 88 108 95
f 90 109 110
f 90 110 91
f 90 98 109
f 91 110 111
f 91 111 112
f 91 112 93
f 91 93 92
f 95 113 99
f 95 99 96
f 95 108 114
f 95 114 115
f 95 115 113
f 97 116 117
f 97 117 118
f 97 118 109
f 97 109 98
f 97 99 119
f 97 119 116
f 99 113 107
f 99 107 119
f 100 120 101
f 101 120 121
f 101 121 110
f 101 110 118
f 101 118 117
f 102 117 116
f 102 116 122
f 102 122 103
f 103 122 123
f 103 123 124
f 104 125 126
f 104 126 106
f 105 107 127
f 106 126 119
f 106 119 107
f 107 113 127
f 109 118 110
f 110 121 128
f 110 128 129
f 110 129 111
f 113 115 127
f 116 119 122
f 119 126 122
f 120 128 121
f 122 126 125
f 122 125 123
f 123 125 124

