# https://github.com/mikedh/trimesh
v 0.05110010 -0.00153594 0.02948328
v 0.05110010 -0.00158780 0.02948328
v 0.05155674 -0.00159085 0.02918047
v 0.05156866 0.00057206 0.02916848
v 0.05110010 0.00162759 0.02944730
v 0.05110010 -0.00159085 0.02866478
v 0.05158349 -0.00159085 0.02915948
v 0.05158349 -0.00153594 0.02916248
v 0.05216773 -0.00048041 0.02863780
v 0.05213576 0.00057206 0.02864080
v 0.05156198 0.00162759 0.02914449
v 0.05110010 0.00268312 0.02932138
v 0.05110010 -0.00159085 0.02792424
v 0.05214041 -0.00159085 0.02865879
v 0.05217006 -0.00153594 0.02863480
v 0.05269530 -0.00048041 0.02791824
v 0.05269733 -0.00153594 0.02791824
v 0.05210117 0.00162759 0.02861681
v 0.05203751 0.00268312 0.02853586
v 0.05146402 0.00268312 0.02906354
v 0.05110010 0.00360442 0.02909952
v 0.05177097 -0.00159085 0.02038384
v 0.05110010 0.02047456 0.01540088
v 0.05148611 0.02819578 -0.00114602
v 0.05216773 -0.00159085 0.02863180
v 0.05269501 -0.00159085 0.02791824
v 0.05295399 -0.00048041 0.02739056
v 0.05289790 0.00327800 0.02725864
v 0.05294818 -0.00159085 0.02739056
v 0.05294905 -0.00153594 0.02739056
v 0.05192590 0.00373865 0.02840394
v 0.05185177 0.00435488 0.02831700
v 0.05122625 0.00372034 0.02897359
v 0.05135298 0.00474231 0.02858983
v 0.05110010 0.00585275 0.02844592
v 0.05226394 -0.00159085 0.02015598
v 0.05228574 0.01746051 -0.00114602
v 0.05242003 0.01640499 -0.00114602
v 0.05273018 0.01555995 -0.00114602
v 0.05110010 0.02189312 0.01540088
v 0.05148611 0.02957163 -0.00114602
v 0.05316851 -0.00153594 0.02670698
v 0.05317200 -0.00048041 0.02670698
v 0.05195264 0.00690828 0.02739955
v 0.05302114 0.00367153 0.02673096
v 0.05292871 0.00968438 0.02519290
v 0.05315659 -0.00159085 0.02673996
v 0.05158755 0.00585275 0.02809213
v 0.05186776 0.00752757 0.02727363
v 0.05180178 0.01055382 0.02615532
v 0.05110010 0.00671609 0.02811312
v 0.05235609 -0.00159085 0.02014698
v 0.05285604 0.01480339 -0.00024057
v 0.05304091 0.01555995 -0.00114602
v 0.05148611 0.02859542 0.00566882
v 0.05148611 0.02895540 0.00454151
v 0.05148611 0.02920555 0.00354911
v 0.05148611 0.02934893 0.00239482
v 0.05148611 0.02937944 0.00207102
v 0.05148611 0.02944045 0.00137544
v 0.05148611 0.02950757 0.00032008
v 0.05148611 0.02951977 0.00008323
v 0.05110010 0.02132265 0.01702289
v 0.05159569 0.02944961 0.00032008
v 0.05166894 0.02947096 -0.00114602
v 0.05316647 -0.00159085 0.02670698
v 0.05336209 -0.00159085 0.02570259
v 0.05337459 -0.00153594 0.02564862
v 0.05327024 0.00373865 0.02564862
v 0.05209942 0.00901934 0.02645813
v 0.05321356 0.00479418 0.02564862
v 0.05305776 0.01005046 0.02462925
v 0.05301794 0.01089855 0.02429945
v 0.05279209 0.01038604 0.02500402
v 0.05211774 0.01112734 0.02549272
v 0.05236888 0.01012063 0.02567561
v 0.05194479 0.00985217 0.02630223
v 0.05195351 0.01189916 0.02528585
v 0.05155820 0.01112734 0.02602040
v 0.05110010 0.01112734 0.02627224
v 0.05291533 0.01480339 -0.00024057
v 0.05289499 -0.00111495 0.01982318
v 0.05288976 -0.00159085 0.02047978
v 0.05316269 0.01584366 -0.00114602
v 0.05167069 0.02843679 0.00582472
v 0.05184654 0.02855881 0.00512315
v 0.05148611 0.02743617 0.00876293
v 0.05182707 0.02748498 0.00823225
v 0.05194159 0.02865643 0.00454151
v 0.05212704 0.02879066 0.00348615
v 0.05293713 0.02859542 0.00002626
v 0.05153960 0.02940689 0.00137544
v 0.05110010 0.02104504 0.01755057
v 0.05297201 0.02863203 -0.00073527
v 0.05235609 0.02904081 -0.00114602
v 0.05337169 -0.00159085 0.02564862
v 0.05405912 0.01746051 0.01298735
v 0.05400273 0.01741475 0.01408168
v 0.05328216 0.01007487 0.02354091
v 0.05330803 0.01745746 0.01826113
v 0.05303974 0.01745746 0.01908563
v 0.05293626 0.01808285 0.01888475
v 0.05171836 0.01260386 0.02502201
v 0.05201048 0.01828419 0.02006004
v 0.05125474 0.01213406 0.02561864
v 0.05110010 0.01198153 0.02580753
v 0.05333099 -0.00159085 0.02459627
v 0.05332838 0.01640499 -0.00114602
v 0.05265460 0.02831476 0.00348615
v 0.05148611 0.02715856 0.00924863
v 0.05163290 0.02734770 0.00876293
v 0.05176980 0.02637149 0.01026501
v 0.05193026 0.02659724 0.00956044
v 0.05292057 0.02648131 0.00726085
v 0.05288859 0.02749413 0.00508118
v 0.05309700 0.02778700 0.00348615
v 0.05316066 0.02787242 0.00243080
v 0.05110010 0.02024272 0.01881579
v 0.05148611 0.02673147 0.00998019
v 0.05330367 0.02801580 -0.00073527
v 0.05298248 0.02864423 -0.00114602
v 0.05400012 0.02383334 -0.00114602
v 0.05402802 0.02426043 -0.00114602
v 0.05406086 0.02484921 -0.00114602
v 0.05406929 0.02484921 0.00243080
v 0.05399140 0.01822318 0.01375788
v 0.05349551 0.01745746 0.01720878
v 0.05348389 0.01851299 0.01615042
v 0.05327896 0.01851299 0.01720878
v 0.05303102 0.01846723 0.01821316
v 0.05293219 0.01912312 0.01782940
v 0.05272640 0.01878755 0.01853397
v 0.05236858 0.01853434 0.01933748
v 0.05110010 0.01296079 0.02511195
v 0.05110010 0.01260691 0.02537879
v 0.05172824 0.01898889 0.01979320
v 0.05202298 0.01934887 0.01909163
v 0.05337169 0.01681377 -0.00114602
v 0.05297405 0.02759175 0.00454151
v 0.05175440 0.02005357 0.01873185
v 0.05197850 0.02029763 0.01803027
v 0.05329030 0.02590169 0.00665222
v 0.05332547 0.02696027 0.00454151
v 0.05345627 0.02696027 0.00348615
v 0.05353359 0.02696027 0.00243080
v 0.05360393 0.02696027 0.00137544
v 0.05110010 0.02010849 0.01897170
v 0.05331995 0.02801580 -0.00114602
v 0.05403354 0.02530986 -0.00114602
v 0.05399634 0.02582847 -0.00114602
v 0.05399488 0.02562408 0.00243080
v 0.05397657 0.02550815 0.00316535
v 0.05349260 0.02590169 0.00559686
v 0.05235289 0.01958682 0.01828212
v 0.05110010 0.01923600 0.01981418
v 0.05138961 0.01959597 0.01934947
v 0.05368852 0.02693281 -0.00114602
v 0.05387484 0.02633183 -0.00114602
f 1 2 3
f 1 3 4
f 1 4 5
f 1 5 12
f 1 12 21
f 1 21 35
f 1 35 51
f 1 51 80
f 1 80 106
f 1 106 135
f 1 135 134
f 1 134 155
f 1 155 147
f 1 147 118
f 1 118 93
f 1 93 63
f 1 63 40
f 1 40 23
f 1 23 13
f 1 13 6
f 1 6 2
f 2 6 3
f 3 7 8
f 3 8 4
f 3 6 13
f 3 13 22
f 3 22 36
f 3 36 52
f 3 52 83
f 3 83 107
f 3 107 96
f 3 96 67
f 3 67 66
f 3 66 47
f 3 47 29
f 3 29 26
f 3 26 25
f 3 25 14
f 3 14 7
f 4 9 10
f 4 10 11
f 4 11 5
f 4 8 9
f 5 11 12
f 7 14 8
f 8 14 15
f 8 15 9
f 9 16 10
f 9 15 17
f 9 17 16
f 10 16 18
f 10 18 11
f 11 18 19
f 11 19 20
f 11 20 12
f 12 20 21
f 13 23 24
f 13 24 22
f 14 25 15
f 15 25 26
f 15 26 17
f 16 17 27
f 16 27 28
f 16 28 18
f 17 26 29
f 17 29 30
f 17 30 27
f 18 28 19
f 19 28 31
f 19 31 20
f 20 31 32
f 20 32 33
f 20 33 21
f 21 33 34
f 21 34 35
f 22 24 37
f 22 37 38
f 22 38 39
f 22 39 36
f 23 40 41
f 23 41 24
f 24 41 65
f 24 65 95
f 24 95 121
f 24 121 148
f 24 148 157
f 24 157 158
f 24 158 150
f 24 150 149
f 24 149 124
f 24 124 123
f 24 123 122
f 24 122 138
f 24 138 108
f 24 108 84
f 24 84 54
f 24 54 39
f 24 39 38
f 24 38 37
f 27 30 42
f 27 42 43
f 27 43 28
f 28 44 32
f 28 32 31
f 28 43 45
f 28 45 46
f 28 46 44
f 29 47 42
f 29 42 30
f 32 34 33
f 32 44 48
f 32 48 34
f 34 48 35
f 35 48 49
f 35 49 50
f 35 50 51
f 36 39 53
f 36 53 52
f 39 54 81
f 39 81 53
f 40 55 56
f 40 56 57
f 40 57 58
f 40 58 59
f 40 59 60
f 40 60 61
f 40 61 62
f 40 62 41
f 40 63 55
f 41 62 64
f 41 64 65
f 42 47 66
f 42 66 67
f 42 67 68
f 42 68 43
f 43 69 45
f 43 68 69
f 44 46 70
f 44 70 49
f 44 49 48
f 45 69 71
f 45 71 72
f 45 72 46
f 46 72 73
f 46 73 74
f 46 74 75
f 46 75 76
f 46 76 77
f 46 77 70
f 49 70 77
f 49 77 50
f 50 75 78
f 50 78 79
f 50 79 80
f 50 80 51
f 50 77 76
f 50 76 75
f 52 81 54
f 52 54 82
f 52 82 83
f 52 53 81
f 54 84 82
f 55 85 86
f 55 86 56
f 55 63 87
f 55 87 88
f 55 88 85
f 56 86 89
f 56 89 57
f 57 89 90
f 57 90 58
f 58 90 91
f 58 91 59
f 59 92 60
f 59 91 92
f 60 92 64
f 60 64 61
f 61 64 62
f 63 93 87
f 64 92 94
f 64 94 95
f 64 95 65
f 67 96 68
f 68 96 97
f 68 97 98
f 68 98 69
f 69 99 71
f 69 98 99
f 71 99 72
f 72 99 73
f 73 78 74
f 73 99 100
f 73 100 101
f 73 101 102
f 73 102 78
f 74 78 75
f 78 103 79
f 78 102 104
f 78 104 103
f 79 103 105
f 79 105 106
f 79 106 80
f 82 107 83
f 82 84 108
f 82 108 107
f 85 88 86
f 86 109 89
f 86 88 109
f 87 110 111
f 87 111 88
f 87 93 110
f 88 111 112
f 88 112 113
f 88 113 114
f 88 114 115
f 88 115 109
f 89 109 90
f 90 109 91
f 91 109 116
f 91 116 117
f 91 117 94
f 91 94 92
f 93 118 119
f 93 119 110
f 94 117 120
f 94 120 121
f 94 121 95
f 96 107 122
f 96 122 123
f 96 123 124
f 96 124 97
f 97 124 125
f 97 125 126
f 97 126 98
f 98 126 99
f 99 126 127
f 99 127 100
f 100 127 126
f 100 126 128
f 100 128 129
f 100 129 130
f 100 130 102
f 100 102 101
f 102 130 131
f 102 131 132
f 102 132 133
f 102 133 104
f 103 134 135
f 103 135 105
f 103 104 136
f 103 136 134
f 104 133 137
f 104 137 136
f 105 135 106
f 107 108 138
f 107 138 122
f 109 115 139
f 109 139 116
f 110 119 111
f 111 119 112
f 112 119 140
f 112 140 141
f 112 141 131
f 112 131 113
f 113 131 114
f 114 142 143
f 114 143 139
f 114 139 115
f 114 131 142
f 116 139 143
f 116 143 144
f 116 144 117
f 117 144 145
f 117 145 146
f 117 146 120
f 118 147 140
f 118 140 119
f 120 146 148
f 120 148 121
f 124 149 125
f 125 149 150
f 125 150 151
f 125 151 152
f 125 152 126
f 126 152 153
f 126 153 128
f 128 153 142
f 128 142 129
f 129 131 130
f 129 142 131
f 131 141 154
f 131 154 137
f 131 137 132
f 132 137 133
f 134 136 155
f 136 137 140
f 136 140 156
f 136 156 155
f 137 154 140
f 140 147 156
f 140 154 141
f 142 153 143
f 143 153 152
f 143 152 144
f 144 152 151
f 144 151 145
f 145 151 146
f 146 151 157
f 146 157 148
f 147 155 156
f 150 158 151
f 151 158 157

