# https://github.com/mikedh/trimesh
v -0.04370910 0.01433209 -0.02962670
v -0.04264280 0.01535247 -0.02906637
v -0.04354916 0.01433209 -0.02961555
v -0.04476474 0.01433209 -0.02959603
v -0.04370910 0.01599293 -0.02877367
v -0.04265346 0.01595855 -0.02875694
v -0.04264280 0.01433209 -0.02954028
v -0.04264280 0.01595493 -0.02875694
v -0.04264217 0.02571912 -0.02010673
v -0.04581223 0.01433209 -0.02945665
v -0.04588122 0.01545017 -0.02893814
v -0.04588122 0.01632582 -0.02850326
v -0.04476474 0.01596579 -0.02875694
v -0.04476474 0.01649407 -0.02848375
v -0.04466564 0.01755968 -0.02789554
v -0.04370910 0.01652121 -0.02848096
v -0.04264280 0.01648503 -0.02846702
v -0.04264217 0.02418855 -0.02010673
v -0.04264280 0.01433209 -0.02827746
v -0.04264217 0.02644099 -0.01922582
v -0.04264280 0.01740952 -0.02793736
v -0.04264280 0.01927118 -0.02676653
v -0.04264280 0.01979222 -0.02635952
v -0.04264280 0.02042182 -0.02583265
v -0.04264280 0.02095553 -0.02534202
v -0.04264280 0.02145668 -0.02482072
v -0.04264280 0.02449973 -0.02150615
v -0.04264280 0.02502259 -0.02093468
v -0.04264280 0.02548574 -0.02039944
v -0.04593140 0.01433209 -0.02942598
v -0.04627513 0.01586809 -0.02869282
v -0.04582038 0.01742580 -0.02793736
v -0.04424790 0.01799027 -0.02765580
v -0.04423096 0.01799027 -0.02765580
v -0.04381134 0.01755245 -0.02789554
v -0.04264217 0.03163879 -0.00114764
v -0.04393553 0.01640904 -0.00114764
v -0.04405785 0.01566004 -0.00114764
v -0.04412872 0.01534162 -0.00114764
v -0.04425668 0.01483686 -0.00114764
v -0.04447370 0.01433209 -0.00114764
v -0.04264217 0.02737996 -0.01805220
v -0.04582038 0.02548574 -0.02145319
v -0.04370910 0.01931641 -0.02679441
v -0.04582038 0.02118349 -0.02556503
v -0.04526528 0.02115997 -0.02554831
v -0.04582038 0.02237936 -0.02462558
v -0.04582038 0.02290584 -0.02417119
v -0.04582038 0.02348839 -0.02364431
v -0.04503571 0.02337261 -0.02353559
v -0.04582038 0.02401306 -0.02310071
v -0.04582038 0.02449792 -0.02257105
v -0.04582038 0.02502620 -0.02198006
v -0.04522953 0.02540432 -0.02135283
v -0.04663830 0.01433209 -0.02921133
v -0.04687414 0.01510462 -0.02883500
v -0.04663830 0.01619375 -0.02841684
v -0.04687414 0.01723946 -0.02782864
v -0.04663830 0.01728288 -0.02785373
v -0.04640058 0.02118711 -0.02556782
v -0.04582038 0.01932364 -0.02677210
v -0.04476474 0.01935440 -0.02680556
v -0.04264217 0.03175820 -0.00114764
v -0.04560900 0.01433209 -0.00114764
v -0.04264217 0.02775989 -0.01751697
v -0.04557325 0.02637586 -0.02021266
v -0.04653669 0.02549478 -0.02146713
v -0.04627638 0.02644280 -0.02028236
v -0.04582038 0.02171177 -0.02515245
v -0.04654923 0.02235584 -0.02460049
v -0.04659188 0.02345764 -0.02361086
v -0.04658624 0.02449973 -0.02257105
v -0.04687414 0.01433209 -0.02913885
v -0.04741545 0.01486038 -0.02872349
v -0.04687414 0.01640904 -0.02823564
v -0.04745810 0.01702235 -0.02770598
v -0.04710308 0.02090487 -0.02537826
v -0.04663830 0.02144039 -0.02524445
v -0.04264217 0.03280933 -0.00115600
v -0.04265409 0.03280933 -0.00114764
v -0.04789403 0.02273939 -0.00114764
v -0.04849304 0.01893829 -0.00743667
v -0.04843596 0.01802465 -0.00873295
v -0.04849994 0.01792876 -0.00943824
v -0.04874268 0.01433209 -0.02501586
v -0.04613149 0.02653507 -0.02010952
v -0.04409987 0.02751022 -0.01818323
v -0.04264217 0.02828093 -0.01666672
v -0.04663830 0.02532834 -0.02157585
v -0.04724045 0.02525597 -0.02116048
v -0.04636169 0.02644280 -0.02028236
v -0.04476537 0.02753736 -0.01824734
v -0.04682647 0.02163940 -0.02498798
v -0.04725236 0.02208989 -0.02438026
v -0.04663830 0.02245354 -0.02445832
v -0.04663830 0.02335994 -0.02366661
v -0.04729502 0.02317721 -0.02333488
v -0.04729000 0.02421750 -0.02227277
v -0.04770209 0.02455039 -0.02156748
v -0.04691303 0.02487604 -0.02186855
v -0.04691177 0.01433209 -0.02912213
v -0.04750828 0.01433209 -0.02883500
v -0.04759672 0.01640904 -0.02785094
v -0.04817252 0.01645789 -0.02708711
v -0.04842843 0.01684867 -0.02650170
v -0.04839268 0.02202476 -0.02334882
v -0.04746312 0.02020291 -0.02560406
v -0.04759233 0.02138431 -0.02467297
v -0.04264217 0.03278400 -0.00143756
v -0.04476537 0.03278943 -0.00151562
v -0.04476537 0.03281476 -0.00114764
v -0.04851499 0.02695299 -0.00114764
v -0.04874770 0.01957512 -0.00813360
v -0.04854949 0.01960768 -0.00708264
v -0.04855764 0.01872661 -0.00813360
v -0.04862413 0.01843352 -0.00912880
v -0.04875648 0.01852217 -0.01024388
v -0.04882359 0.01433209 -0.02603058
v -0.04265409 0.02859392 -0.01613148
v -0.04264217 0.02859031 -0.01613427
v -0.04801446 0.02491223 -0.02085941
v -0.04832557 0.02527587 -0.02007049
v -0.04762369 0.02548936 -0.02045519
v -0.04642817 0.02649346 -0.02010673
v -0.04634601 0.02748670 -0.01815256
v -0.04592388 0.02732026 -0.01863204
v -0.04564287 0.02753193 -0.01824734
v -0.04370973 0.02862649 -0.01618724
v -0.04768892 0.02246982 -0.02367777
v -0.04840523 0.02426635 -0.02126084
v -0.04752208 0.01433209 -0.02881827
v -0.04770084 0.01526563 -0.02820219
v -0.04850684 0.01614128 -0.02670241
v -0.04829295 0.01535247 -0.02739097
v -0.04857646 0.02245535 -0.02264911
v -0.04861033 0.02356438 -0.02157585
v -0.04264217 0.03211280 -0.00602053
v -0.04370973 0.03217431 -0.00602053
v -0.04476537 0.03221954 -0.00602053
v -0.04536313 0.03278400 -0.00143199
v -0.04538822 0.03278762 -0.00114764
v -0.04862664 0.02801498 -0.00114764
v -0.04886813 0.01957512 -0.00919013
v -0.04882359 0.01433209 -0.02607239
v -0.04891266 0.01957512 -0.01024388
v -0.04894277 0.01957512 -0.01129763
v -0.04897664 0.02062988 -0.01129763
v -0.04905002 0.02273939 -0.01868222
v -0.04370973 0.02894853 -0.01551262
v -0.04264217 0.02888158 -0.01552098
v -0.04850872 0.02543146 -0.01936799
v -0.04723229 0.02843110 -0.01469304
v -0.04656868 0.02659658 -0.01973597
v -0.04860155 0.02457210 -0.02056113
v -0.04576707 0.02871333 -0.01553213
v -0.04538132 0.02856317 -0.01608131
v -0.04652916 0.02863011 -0.01519761
v -0.04476537 0.02860297 -0.01614542
v -0.04809788 0.01433209 -0.02804887
v -0.04838766 0.01458719 -0.02754429
v -0.04856956 0.01535247 -0.02685852
v -0.04888381 0.02168463 -0.02184904
v -0.04871884 0.02278281 -0.02189922
v -0.04861849 0.02167740 -0.02296133
v -0.04815245 0.01433209 -0.02797360
v -0.04873954 0.02386652 -0.02086499
v -0.04264217 0.03191198 -0.00707706
v -0.04370973 0.03196625 -0.00707706
v -0.04476537 0.03199520 -0.00707706
v -0.04582101 0.03212184 -0.00602053
v -0.04582101 0.03227020 -0.00496399
v -0.04669914 0.03221049 -0.00408587
v -0.04687414 0.03219602 -0.00391024
v -0.04687414 0.03225391 -0.00285371
v -0.04687414 0.03229553 -0.00114764
v -0.04866428 0.02906974 -0.00114764
v -0.04890890 0.02062988 -0.00919013
v -0.04901615 0.02273939 -0.01973318
v -0.04899671 0.02273939 -0.02010673
v -0.04895845 0.02273939 -0.02079251
v -0.04873954 0.01535247 -0.02607239
v -0.04862350 0.01433209 -0.02708990
v -0.04892081 0.02801498 -0.00813360
v -0.04901051 0.02369645 -0.01868222
v -0.04437711 0.02961973 -0.01398496
v -0.04370973 0.02939540 -0.01453971
v -0.04304298 0.02962335 -0.01399054
v -0.04264217 0.02977352 -0.01345530
v -0.04867494 0.02489594 -0.01972482
v -0.04854385 0.02876037 -0.01024388
v -0.04849178 0.02862106 -0.01092408
v -0.04825845 0.02928865 -0.01024388
v -0.04748193 0.03071429 -0.00881379
v -0.04864232 0.02474578 -0.02010673
v -0.04556133 0.02969753 -0.01314865
v -0.04474342 0.02975904 -0.01346366
v -0.04476537 0.02889244 -0.01551262
v -0.04685595 0.03083551 -0.00917341
v -0.04669914 0.03078304 -0.00946333
v -0.04649090 0.03070706 -0.00983966
v -0.04626823 0.03166774 -0.00753424
v -0.04573633 0.03078666 -0.01021321
v -0.04856266 0.01433209 -0.02725159
v -0.04861159 0.01433209 -0.02714565
v -0.04896472 0.02342688 -0.02010673
v -0.04889384 0.02381586 -0.02010673
v -0.04869689 0.02455039 -0.02010673
v -0.04264217 0.03175820 -0.00777956
v -0.04370973 0.03178171 -0.00784089
v -0.04476537 0.03178895 -0.00783531
v -0.04556635 0.03176543 -0.00775726
v -0.04587809 0.03186494 -0.00714118
v -0.04651661 0.03177448 -0.00682896
v -0.04669914 0.03207661 -0.00513962
v -0.04669914 0.03210013 -0.00496399
v -0.04759734 0.03189388 -0.00391024
v -0.04687414 0.03206214 -0.00496399
v -0.04753399 0.03181609 -0.00496399
v -0.04761742 0.03193369 -0.00285371
v -0.04762745 0.03195540 -0.00114764
v -0.04763247 0.03195178 -0.00179717
v -0.04856768 0.03017697 -0.00114764
v -0.04878847 0.02906974 -0.00391024
v -0.04900737 0.02369645 -0.01877700
v -0.04896848 0.02379415 -0.01973318
v -0.04881544 0.02906974 -0.00496399
v -0.04880352 0.02906974 -0.00602331
v -0.04875460 0.02906974 -0.00707706
v -0.04886123 0.02801498 -0.00919013
v -0.04900549 0.02379415 -0.01868222
v -0.04476537 0.03094587 -0.01024388
v -0.04370973 0.03101462 -0.01024388
v -0.04370973 0.02986216 -0.01341070
v -0.04370973 0.02963059 -0.01401005
v -0.04265409 0.03072153 -0.01094638
v -0.04264217 0.03071791 -0.01094917
v -0.04880728 0.02484890 -0.01868222
v -0.04861472 0.02892320 -0.00919013
v -0.04861347 0.02994539 -0.00602331
v -0.04836445 0.02944967 -0.00919013
v -0.04833811 0.03047548 -0.00602331
v -0.04759358 0.03082646 -0.00813360
v -0.04744932 0.03174734 -0.00561631
v -0.04532737 0.03066545 -0.01079306
v -0.04264217 0.03097482 -0.01024388
v -0.04265409 0.03097663 -0.01024388
v -0.04687100 0.03185047 -0.00598986
v -0.04815935 0.03122449 -0.00179717
v -0.04800630 0.03117925 -0.00496399
v -0.04840334 0.03057860 -0.00496399
v -0.04783319 0.03167316 -0.00114764
v -0.04851123 0.03057679 -0.00114764
v -0.04859277 0.03012450 -0.00179717
v -0.04862413 0.03005032 -0.00496399
v -0.04264217 0.03097301 -0.01024945
v -0.04848175 0.03069620 -0.00179717
v -0.04841526 0.03082104 -0.00114764
v -0.04848614 0.03070344 -0.00114764
f 1 2 3
f 1 3 7
f 1 7 19
f 1 19 41
f 1 41 64
f 1 64 85
f 1 85 118
f 1 118 144
f 1 144 182
f 1 182 204
f 1 204 203
f 1 203 165
f 1 165 159
f 1 159 131
f 1 131 102
f 1 102 101
f 1 101 73
f 1 73 55
f 1 55 30
f 1 30 10
f 1 10 4
f 1 4 13
f 1 13 5
f 1 5 6
f 1 6 2
f 2 7 3
f 2 6 8
f 2 8 9
f 2 9 7
f 4 10 11
f 4 11 12
f 4 12 13
f 5 13 14
f 5 14 15
f 5 15 16
f 5 16 17
f 5 17 6
f 6 17 8
f 7 9 18
f 7 18 19
f 8 17 9
f 9 20 42
f 9 42 65
f 9 65 88
f 9 88 120
f 9 120 150
f 9 150 188
f 9 188 236
f 9 236 255
f 9 255 245
f 9 245 208
f 9 208 167
f 9 167 137
f 9 137 109
f 9 109 79
f 9 79 63
f 9 63 36
f 9 36 18
f 9 17 21
f 9 21 22
f 9 22 23
f 9 23 24
f 9 24 25
f 9 25 26
f 9 26 27
f 9 27 28
f 9 28 29
f 9 29 20
f 10 30 31
f 10 31 11
f 11 31 12
f 12 14 13
f 12 31 32
f 12 32 14
f 14 32 15
f 15 32 33
f 15 33 16
f 16 33 34
f 16 34 35
f 16 35 17
f 17 35 21
f 18 36 19
f 19 36 37
f 19 37 38
f 19 38 39
f 19 39 40
f 19 40 41
f 20 29 43
f 20 43 42
f 21 35 34
f 21 34 44
f 21 44 22
f 22 44 45
f 22 45 46
f 22 46 23
f 23 46 47
f 23 47 24
f 24 47 48
f 24 48 49
f 24 49 25
f 25 49 50
f 25 50 26
f 26 50 27
f 27 50 51
f 27 51 52
f 27 52 28
f 28 52 53
f 28 53 54
f 28 54 29
f 29 54 43
f 30 55 56
f 30 56 31
f 31 56 57
f 31 57 58
f 31 58 59
f 31 59 32
f 32 59 60
f 32 60 61
f 32 61 62
f 32 62 33
f 33 62 34
f 34 62 44
f 36 63 80
f 36 80 111
f 36 111 141
f 36 141 175
f 36 175 220
f 36 220 251
f 36 251 257
f 36 257 258
f 36 258 252
f 36 252 222
f 36 222 176
f 36 176 142
f 36 142 112
f 36 112 81
f 36 81 64
f 36 64 41
f 36 41 40
f 36 40 39
f 36 39 38
f 36 38 37
f 42 43 66
f 42 66 65
f 43 54 53
f 43 53 67
f 43 67 68
f 43 68 66
f 44 62 45
f 45 69 46
f 45 62 60
f 45 60 69
f 46 69 47
f 47 69 60
f 47 60 70
f 47 70 48
f 48 70 71
f 48 71 49
f 49 71 72
f 49 72 51
f 49 51 50
f 51 72 52
f 52 72 67
f 52 67 53
f 55 73 56
f 56 73 74
f 56 74 75
f 56 75 57
f 57 75 58
f 58 76 60
f 58 60 59
f 58 75 76
f 60 62 61
f 60 76 77
f 60 77 78
f 60 78 70
f 63 79 80
f 64 81 82
f 64 82 83
f 64 83 84
f 64 84 85
f 65 86 87
f 65 87 88
f 65 66 68
f 65 68 86
f 67 72 89
f 67 89 90
f 67 90 91
f 67 91 68
f 68 91 92
f 68 92 86
f 70 78 93
f 70 93 94
f 70 94 95
f 70 95 96
f 70 96 71
f 71 96 97
f 71 97 72
f 72 97 98
f 72 98 99
f 72 99 100
f 72 100 89
f 73 101 74
f 74 101 102
f 74 102 103
f 74 103 76
f 74 76 75
f 76 103 104
f 76 104 105
f 76 105 106
f 76 106 107
f 76 107 77
f 77 108 94
f 77 94 93
f 77 93 78
f 77 107 108
f 79 109 110
f 79 110 111
f 79 111 80
f 81 112 113
f 81 113 114
f 81 114 82
f 82 114 113
f 82 113 115
f 82 115 83
f 83 115 116
f 83 116 84
f 84 116 117
f 84 117 85
f 85 117 118
f 86 92 87
f 87 92 88
f 88 119 120
f 88 92 119
f 89 100 90
f 90 100 99
f 90 99 121
f 90 121 122
f 90 122 123
f 90 123 91
f 91 123 122
f 91 122 124
f 91 124 125
f 91 125 126
f 91 126 127
f 91 127 92
f 92 127 128
f 92 128 119
f 94 108 129
f 94 129 97
f 94 97 96
f 94 96 95
f 97 129 130
f 97 130 98
f 98 130 99
f 99 130 121
f 102 131 103
f 103 131 132
f 103 132 104
f 104 133 105
f 104 132 134
f 104 134 133
f 105 133 135
f 105 135 106
f 106 135 136
f 106 136 130
f 106 130 129
f 106 129 108
f 106 108 107
f 109 137 138
f 109 138 139
f 109 139 110
f 110 139 140
f 110 140 111
f 111 140 141
f 112 142 113
f 113 142 143
f 113 143 116
f 113 116 115
f 116 143 117
f 117 143 118
f 118 143 145
f 118 145 146
f 118 146 147
f 118 147 148
f 118 148 144
f 119 128 149
f 119 149 150
f 119 150 120
f 121 130 122
f 122 151 152
f 122 152 125
f 122 125 153
f 122 153 124
f 122 130 154
f 122 154 151
f 124 153 125
f 125 155 156
f 125 156 126
f 125 152 157
f 125 157 155
f 126 156 127
f 127 156 158
f 127 158 128
f 128 158 149
f 130 136 154
f 131 159 134
f 131 134 132
f 133 134 160
f 133 160 161
f 133 161 162
f 133 162 163
f 133 163 164
f 133 164 135
f 134 165 160
f 134 159 165
f 135 164 163
f 135 163 136
f 136 163 166
f 136 166 154
f 137 167 138
f 138 167 168
f 138 168 139
f 139 168 169
f 139 169 170
f 139 170 171
f 139 171 140
f 140 171 172
f 140 172 173
f 140 173 174
f 140 174 141
f 141 174 175
f 142 176 177
f 142 177 143
f 143 177 145
f 144 148 178
f 144 178 179
f 144 179 180
f 144 180 162
f 144 162 181
f 144 181 182
f 145 177 147
f 145 147 146
f 147 177 183
f 147 183 148
f 148 183 184
f 148 184 178
f 149 158 185
f 149 185 186
f 149 186 187
f 149 187 150
f 150 187 188
f 151 189 190
f 151 190 191
f 151 191 192
f 151 192 193
f 151 193 152
f 151 154 189
f 152 193 157
f 154 166 194
f 154 194 189
f 155 157 195
f 155 195 196
f 155 196 185
f 155 185 156
f 156 185 197
f 156 197 158
f 157 193 198
f 157 198 199
f 157 199 200
f 157 200 201
f 157 201 202
f 157 202 195
f 158 197 185
f 160 203 204
f 160 204 161
f 160 165 203
f 161 181 162
f 161 204 181
f 162 180 163
f 163 180 166
f 166 180 205
f 166 205 206
f 166 206 207
f 166 207 194
f 167 208 168
f 168 208 209
f 168 209 169
f 169 209 210
f 169 210 211
f 169 211 170
f 170 211 212
f 170 212 213
f 170 213 214
f 170 214 171
f 171 215 172
f 171 214 215
f 172 215 173
f 173 216 174
f 173 215 217
f 173 217 218
f 173 218 216
f 174 216 219
f 174 219 175
f 175 219 221
f 175 221 220
f 176 222 223
f 176 223 177
f 177 223 183
f 178 184 224
f 178 224 225
f 178 225 179
f 179 225 180
f 180 225 205
f 181 204 182
f 183 223 226
f 183 226 227
f 183 227 228
f 183 228 229
f 183 229 225
f 183 225 230
f 183 230 184
f 184 230 224
f 185 231 232
f 185 232 233
f 185 233 234
f 185 234 186
f 185 196 211
f 185 211 231
f 186 234 187
f 187 234 233
f 187 233 235
f 187 235 188
f 188 235 236
f 189 225 237
f 189 237 238
f 189 238 190
f 189 194 207
f 189 207 206
f 189 206 225
f 190 238 239
f 190 239 240
f 190 240 192
f 190 192 191
f 192 240 241
f 192 241 242
f 192 242 193
f 193 242 243
f 193 243 201
f 193 201 198
f 195 244 196
f 195 202 244
f 196 244 211
f 198 201 199
f 199 201 200
f 201 212 211
f 201 211 202
f 201 243 213
f 201 213 212
f 202 211 244
f 205 225 206
f 208 245 246
f 208 246 209
f 209 246 232
f 209 232 210
f 210 232 211
f 211 232 231
f 213 243 247
f 213 247 214
f 214 247 217
f 214 217 215
f 216 248 219
f 216 218 249
f 216 249 250
f 216 250 248
f 217 247 243
f 217 243 218
f 218 243 241
f 218 241 249
f 219 248 221
f 220 221 251
f 221 248 251
f 222 252 253
f 222 253 223
f 223 253 226
f 224 230 225
f 225 229 237
f 226 254 227
f 226 253 252
f 226 252 254
f 227 254 239
f 227 239 228
f 228 239 229
f 229 238 237
f 229 239 238
f 232 246 235
f 232 235 233
f 235 246 255
f 235 255 236
f 239 254 250
f 239 250 241
f 239 241 240
f 241 250 249
f 241 243 242
f 245 255 246
f 248 250 256
f 248 256 257
f 248 257 251
f 250 254 256
f 252 258 254
f 254 258 256
f 256 258 257

