# https://github.com/mikedh/trimesh
v -0.00041218 0.02454898 -0.02356421
v -0.00041218 0.02448049 -0.02373519
v -0.00063278 0.02454470 -0.02356421
v 0.04073928 0.02353015 -0.02356330
v 0.04178714 0.02350731 -0.02356330
v 0.03545402 0.02370709 -0.02356421
v -0.00041218 0.02334750 -0.02565034
v -0.00146923 0.02334750 -0.02565305
v -0.00146923 0.02446479 -0.02371348
v -0.00146923 0.02452330 -0.02356421
v 0.03935132 0.02344310 -0.02356330
v 0.04236622 0.02340172 -0.02356330
v 0.04178714 0.02345880 -0.02361487
v -0.00146923 0.02235863 -0.02675130
v -0.00146923 0.02288802 -0.02618047
v -0.00252628 0.02287518 -0.02615061
v -0.00252628 0.02332324 -0.02562230
v -0.04263908 0.02060920 -0.02566210
v -0.00167145 0.02451045 -0.02356421
v 0.03935132 0.02166942 -0.02356330
v -0.00252628 0.02444339 -0.02356421
v -0.01097350 0.02347735 -0.02356421
v 0.04285338 0.02330184 -0.02356330
v 0.04812945 0.01675931 -0.02854252
v 0.04812945 0.01623134 -0.02901022
v 0.04706320 0.01631553 -0.02908622
v 0.04706320 0.01568911 -0.02961453
v 0.04178714 0.02281953 -0.02414319
v 0.03651107 0.02182352 -0.02523872
v -0.00197478 0.02115857 -0.02766139
v -0.00204831 0.02115857 -0.02766139
v -0.00252628 0.02234864 -0.02674588
v 0.03707177 0.02010406 -0.02660746
v 0.03755893 0.01890971 -0.02754378
v 0.04706320 0.01515971 -0.03002253
v 0.02489270 0.01566627 -0.03066212
v -0.04263908 0.02042512 -0.02582946
v -0.04263908 0.02060920 -0.02400477
v 0.05126383 0.01754127 -0.02356330
v -0.01097350 0.02227586 -0.02356421
v -0.04261150 0.02060920 -0.02399844
v -0.04159122 0.02060920 -0.02386817
v -0.04144415 0.02060920 -0.02386184
v -0.04053417 0.02060920 -0.02383922
v -0.02786794 0.02060920 -0.02362301
v 0.04356115 0.02306639 -0.02356330
v 0.04812945 0.01783522 -0.02750759
v 0.04812945 0.01730726 -0.02801601
v 0.04898428 0.01713745 -0.02785589
v 0.04893832 0.01607010 -0.02887272
v 0.04812945 0.01556782 -0.02953854
v 0.02489270 0.01513831 -0.03104027
v 0.02384484 0.01515258 -0.03104389
v -0.00991645 0.01535235 -0.03010033
v -0.00991645 0.01597735 -0.02981265
v -0.04263908 0.01382980 -0.02979275
v -0.04263908 0.01535092 -0.02906722
v -0.04263908 0.01595166 -0.02875873
v -0.04263908 0.01647820 -0.02847105
v -0.04263908 0.01740714 -0.02794002
v -0.03842925 0.01862290 -0.02742346
v -0.04263908 0.01926787 -0.02676849
v -0.00245275 0.02157809 -0.02733119
v 0.02594976 0.01318054 -0.03211590
v 0.02489270 0.01318340 -0.03210776
v 0.02384484 0.01315486 -0.03209147
v -0.04263908 0.01979584 -0.02635778
v -0.04263908 0.02041799 -0.02583579
v 0.04812945 0.01504127 -0.02992483
v 0.04699886 0.01419938 -0.03055447
v 0.04659443 0.01378414 -0.03083039
v 0.02700681 0.01314344 -0.03210776
v -0.04159122 0.00997135 -0.02977737
v -0.04061689 0.00997135 -0.02952497
v -0.04263908 0.00997135 -0.03007952
v 0.05126383 0.01087746 -0.02744879
v 0.05126383 0.02011548 -0.02356330
v -0.00982453 0.02214744 -0.02356421
v -0.02786794 0.00997135 -0.02867550
v -0.03947711 0.00997135 -0.02934223
v -0.03842006 0.00997135 -0.02923639
v -0.03737220 0.00997135 -0.02914502
v 0.05103404 0.02028243 -0.02356330
v 0.04960932 0.02006839 -0.02446253
v 0.04975639 0.01907666 -0.02558702
v 0.04917730 0.01917227 -0.02570462
v 0.04917730 0.01867427 -0.02623384
v 0.04917730 0.01814630 -0.02676849
v 0.04972881 0.01800646 -0.02662284
v 0.04876368 0.01491000 -0.02982894
v 0.04968285 0.01691770 -0.02764239
v 0.04964608 0.01581753 -0.02866103
v 0.04920488 0.01536376 -0.02924634
v -0.04263908 0.01344453 -0.02996825
v -0.04263908 0.01926074 -0.02677302
v 0.02700681 0.01156810 -0.03278173
v 0.02594976 0.01156810 -0.03280525
v 0.02489270 0.01156810 -0.03277720
v 0.04880044 0.01289087 -0.03091000
v 0.04812945 0.01305212 -0.03098237
v 0.04699886 0.01329898 -0.03099413
v -0.04263908 0.00997135 -0.03129809
v 0.05126383 0.01087746 -0.02959825
v -0.02725209 0.00997135 -0.02867007
v -0.02681088 0.00997135 -0.02868003
v -0.01097350 0.00997135 -0.03058703
v 0.05126383 0.01951616 -0.02405001
v 0.04947144 0.01461177 -0.02962087
v 0.04914973 0.01427358 -0.03000082
v 0.05071233 0.01580754 -0.02760530
v 0.05031708 0.01545937 -0.02827112
v 0.04994022 0.01511262 -0.02891614
v 0.04980234 0.01390828 -0.02985246
v -0.04263908 0.01285520 -0.03020799
v 0.04706320 0.01087746 -0.03188340
v -0.01097350 0.00997135 -0.03168528
v -0.04263908 0.01006125 -0.03126733
v -0.04263908 0.01099875 -0.03094166
v 0.04828571 0.01087746 -0.03174771
v 0.04950821 0.01237290 -0.03068474
v 0.04915892 0.01208751 -0.03100408
v 0.04917730 0.01087746 -0.03140213
v 0.04812945 0.01218454 -0.03129990
v 0.05108919 0.01087746 -0.02983256
v 0.05092374 0.01112860 -0.02994835
v 0.05126383 0.01112290 -0.02948879
v 0.05126383 0.01845024 -0.02488048
v 0.05126383 0.01643825 -0.02644010
v 0.05092374 0.01510549 -0.02788212
v 0.05063879 0.01458751 -0.02858323
v 0.05049173 0.01324190 -0.02946255
v 0.05065718 0.01246993 -0.02965253
v 0.04996780 0.01324190 -0.02999087
v 0.04971043 0.01166941 -0.03082858
v 0.04799157 0.01087746 -0.03178842
v 0.04988507 0.01087746 -0.03096247
v 0.05040900 0.01087746 -0.03052009
v 0.05096051 0.01087746 -0.02999268
v 0.05100646 0.01087746 -0.02994021
v 0.04982992 0.01112860 -0.03092176
v 0.05036304 0.01112860 -0.03047667
v 0.05080424 0.01176502 -0.02981084
v 0.05126383 0.01166371 -0.02923096
v 0.05093293 0.01324190 -0.02893423
v 0.05126383 0.01529955 -0.02724072
v 0.05104323 0.01425931 -0.02821323
v 0.05080424 0.01388260 -0.02877230
v 0.05126383 0.01471165 -0.02760711
v 0.05126383 0.01427358 -0.02787398
v 0.05126383 0.01275246 -0.02869631
v 0.05126383 0.01373848 -0.02816618
f 1 2 3
f 1 3 4
f 1 4 5
f 1 5 6
f 1 6 2
f 2 7 8
f 2 8 9
f 2 9 3
f 2 6 7
f 3 9 10
f 3 10 4
f 4 10 11
f 4 11 20
f 4 20 39
f 4 39 77
f 4 77 83
f 4 83 46
f 4 46 23
f 4 23 12
f 4 12 5
f 5 12 13
f 5 13 14
f 5 14 7
f 5 7 6
f 7 14 15
f 7 15 8
f 8 15 16
f 8 16 17
f 8 17 9
f 9 17 18
f 9 18 19
f 9 19 10
f 10 19 11
f 11 19 21
f 11 21 22
f 11 22 40
f 11 40 20
f 12 23 24
f 12 24 13
f 13 24 25
f 13 25 26
f 13 26 27
f 13 27 28
f 13 28 29
f 13 29 14
f 14 30 31
f 14 31 32
f 14 32 15
f 14 29 33
f 14 33 34
f 14 34 27
f 14 27 35
f 14 35 36
f 14 36 30
f 15 32 16
f 16 32 18
f 16 18 17
f 18 32 37
f 18 37 68
f 18 68 67
f 18 67 62
f 18 62 95
f 18 95 60
f 18 60 59
f 18 59 58
f 18 58 57
f 18 57 56
f 18 56 94
f 18 94 114
f 18 114 118
f 18 118 117
f 18 117 102
f 18 102 75
f 18 75 38
f 18 38 21
f 18 21 19
f 20 40 39
f 21 38 41
f 21 41 42
f 21 42 22
f 22 42 43
f 22 43 44
f 22 44 45
f 22 45 40
f 23 46 47
f 23 47 48
f 23 48 24
f 24 48 49
f 24 49 50
f 24 50 25
f 25 50 51
f 25 51 27
f 25 27 26
f 27 34 33
f 27 33 28
f 27 51 35
f 28 33 29
f 30 36 52
f 30 52 53
f 30 53 31
f 31 54 55
f 31 55 56
f 31 56 57
f 31 57 58
f 31 58 59
f 31 59 60
f 31 60 61
f 31 61 62
f 31 62 63
f 31 63 32
f 31 53 64
f 31 64 65
f 31 65 66
f 31 66 54
f 32 63 62
f 32 62 67
f 32 67 68
f 32 68 37
f 35 51 69
f 35 69 70
f 35 70 71
f 35 71 72
f 35 72 52
f 35 52 36
f 38 73 74
f 38 74 41
f 38 75 73
f 39 76 103
f 39 103 126
f 39 126 143
f 39 143 150
f 39 150 151
f 39 151 149
f 39 149 148
f 39 148 145
f 39 145 128
f 39 128 127
f 39 127 107
f 39 107 77
f 39 40 78
f 39 78 45
f 39 45 44
f 39 44 79
f 39 79 76
f 40 45 78
f 41 74 80
f 41 80 42
f 42 80 81
f 42 81 82
f 42 82 79
f 42 79 43
f 43 79 44
f 46 83 84
f 46 84 85
f 46 85 86
f 46 86 47
f 47 86 87
f 47 87 88
f 47 88 49
f 47 49 48
f 49 88 85
f 49 85 89
f 49 89 50
f 50 90 51
f 50 89 91
f 50 91 92
f 50 92 93
f 50 93 90
f 51 90 69
f 52 72 64
f 52 64 53
f 54 94 56
f 54 56 55
f 54 66 94
f 60 95 61
f 61 95 62
f 64 72 96
f 64 96 97
f 64 97 65
f 65 97 98
f 65 98 66
f 66 98 94
f 69 90 99
f 69 99 100
f 69 100 70
f 70 100 71
f 71 100 101
f 71 101 96
f 71 96 72
f 73 75 102
f 73 102 116
f 73 116 106
f 73 106 105
f 73 105 104
f 73 104 79
f 73 79 82
f 73 82 81
f 73 81 80
f 73 80 74
f 76 79 104
f 76 104 105
f 76 105 106
f 76 106 116
f 76 116 103
f 77 107 92
f 77 92 91
f 77 91 89
f 77 89 83
f 83 89 85
f 83 85 84
f 85 88 87
f 85 87 86
f 90 93 108
f 90 108 109
f 90 109 99
f 92 107 110
f 92 110 111
f 92 111 112
f 92 112 113
f 92 113 108
f 92 108 93
f 94 98 114
f 96 101 115
f 96 115 97
f 97 115 116
f 97 116 102
f 97 102 98
f 98 102 117
f 98 117 118
f 98 118 114
f 99 119 100
f 99 109 113
f 99 113 120
f 99 120 121
f 99 121 122
f 99 122 119
f 100 119 123
f 100 123 115
f 100 115 101
f 103 116 124
f 103 124 125
f 103 125 126
f 107 127 110
f 108 113 109
f 110 127 128
f 110 128 129
f 110 129 130
f 110 130 111
f 111 130 112
f 112 130 113
f 113 130 131
f 113 131 132
f 113 132 133
f 113 133 134
f 113 134 120
f 115 123 135
f 115 135 116
f 116 135 119
f 116 119 122
f 116 122 136
f 116 136 137
f 116 137 138
f 116 138 139
f 116 139 124
f 119 135 123
f 120 134 121
f 121 134 122
f 122 134 140
f 122 140 136
f 124 139 125
f 125 139 138
f 125 138 137
f 125 137 141
f 125 141 142
f 125 142 126
f 126 142 144
f 126 144 143
f 128 145 129
f 129 146 147
f 129 147 130
f 129 145 148
f 129 148 149
f 129 149 146
f 130 147 131
f 131 147 132
f 132 147 144
f 132 144 142
f 132 142 133
f 133 142 141
f 133 141 134
f 134 141 140
f 136 140 141
f 136 141 137
f 143 144 150
f 144 147 146
f 144 146 151
f 144 151 150
f 146 149 151

