# https://github.com/mikedh/trimesh
v -0.04492258 -0.01454102 0.02805119
v -0.04487426 -0.01456409 0.02805119
v -0.04492258 -0.01392199 0.02841532
v -0.04492258 -0.01179703 0.02805119
v -0.04476356 -0.01460895 0.02805119
v -0.04476356 -0.01395147 0.02842901
v -0.04492258 -0.01177396 0.02943481
v -0.03923124 -0.00947598 0.02805119
v -0.04492258 -0.00282428 0.03031294
v -0.04392980 -0.01467559 0.02805119
v -0.04370840 -0.01399248 0.02844159
v -0.04476356 -0.01179319 0.02944258
v -0.04476356 -0.01104087 0.02974269
v -0.04492258 -0.01118954 0.02966757
v -0.03842911 -0.00916455 0.02805119
v -0.04492258 -0.00159390 0.03066670
v -0.03948690 -0.00159390 0.03017417
v -0.03835883 -0.00914019 0.02805119
v -0.04370840 -0.01468713 0.02805119
v -0.04290276 -0.01387329 0.02838386
v -0.04370840 -0.01175217 0.02941963
v -0.04492258 -0.01104343 0.02971568
v -0.04370840 -0.01104087 0.02968644
v -0.04476356 -0.00869034 0.03047354
v -0.04492258 -0.00867880 0.03047058
v -0.04492258 -0.00159390 0.03178796
v -0.03843087 -0.00159390 0.03011385
v -0.03736956 -0.00883004 0.02805119
v -0.03754703 -0.00888515 0.02805119
v -0.04259350 -0.01428085 0.02805119
v -0.04308726 -0.01164964 0.02937782
v -0.03594717 -0.01008733 0.02857888
v -0.03594717 -0.00979768 0.02874947
v -0.03594717 -0.00910687 0.02915579
v -0.03594717 -0.00892104 0.02925866
v -0.03594717 -0.00858012 0.02944036
v -0.03594717 -0.00647054 0.03049389
v -0.03594717 -0.00576436 0.03079363
v -0.03594717 -0.00539140 0.03091723
v -0.03594717 -0.00448528 0.03119847
v -0.04476356 -0.00787522 0.03065449
v -0.04492258 -0.00806234 0.03060787
v -0.03594717 -0.00343946 0.03151486
v -0.04492258 -0.00176052 0.03177241
v -0.04480221 -0.00159390 0.03181386
v -0.03737483 -0.00159390 0.03013198
v -0.03631968 -0.00867368 0.02805119
v -0.03660170 -0.00870316 0.02805119
v -0.03594717 -0.01090245 0.02805119
v -0.04476356 -0.00259743 0.03167953
v -0.04492258 -0.00277301 0.03163291
v -0.03594717 -0.00310368 0.03152115
v -0.04370840 -0.00159390 0.03183051
v -0.04376199 -0.00159390 0.03183162
v -0.04476356 -0.00159390 0.03181978
v -0.03631616 -0.00159390 0.03016196
v -0.03594717 -0.00869547 0.02805119
v -0.03594717 -0.00259615 0.03151264
v -0.03594717 -0.00208605 0.03144492
v -0.03594717 -0.00192713 0.03140607
v -0.03594717 -0.00159390 0.03131170
v -0.03594717 -0.00238980 0.03149044
v -0.03594717 -0.00221678 0.03147119
v -0.03594717 -0.00159390 0.03018342
f 1 2 3
f 1 3 7
f 1 7 14
f 1 14 22
f 1 22 25
f 1 25 42
f 1 42 51
f 1 51 44
f 1 44 26
f 1 26 16
f 1 16 9
f 1 9 4
f 1 4 8
f 1 8 15
f 1 15 18
f 1 18 29
f 1 29 28
f 1 28 48
f 1 48 47
f 1 47 57
f 1 57 49
f 1 49 30
f 1 30 19
f 1 19 10
f 1 10 5
f 1 5 2
f 2 5 3
f 3 5 6
f 3 6 7
f 4 9 8
f 5 10 6
f 6 10 11
f 6 11 12
f 6 12 7
f 7 12 13
f 7 13 14
f 8 9 15
f 9 16 17
f 9 17 18
f 9 18 15
f 10 19 11
f 11 19 20
f 11 20 21
f 11 21 12
f 12 21 13
f 13 22 14
f 13 21 23
f 13 23 24
f 13 24 25
f 13 25 22
f 16 26 45
f 16 45 55
f 16 55 54
f 16 54 53
f 16 53 61
f 16 61 64
f 16 64 56
f 16 56 46
f 16 46 27
f 16 27 17
f 17 27 28
f 17 28 29
f 17 29 18
f 19 30 20
f 20 31 21
f 20 30 32
f 20 32 33
f 20 33 34
f 20 34 35
f 20 35 36
f 20 36 37
f 20 37 31
f 21 31 38
f 21 38 23
f 23 38 39
f 23 39 40
f 23 40 24
f 24 41 42
f 24 42 25
f 24 40 43
f 24 43 41
f 26 44 45
f 27 46 47
f 27 47 48
f 27 48 28
f 30 49 32
f 31 37 38
f 32 49 57
f 32 57 64
f 32 64 61
f 32 61 60
f 32 60 59
f 32 59 63
f 32 63 62
f 32 62 58
f 32 58 52
f 32 52 43
f 32 43 40
f 32 40 39
f 32 39 38
f 32 38 37
f 32 37 36
f 32 36 35
f 32 35 34
f 32 34 33
f 41 43 50
f 41 50 42
f 42 50 51
f 43 52 53
f 43 53 54
f 43 54 50
f 44 51 45
f 45 51 55
f 46 56 57
f 46 57 47
f 50 54 55
f 50 55 51
f 52 58 53
f 53 59 60
f 53 60 61
f 53 58 62
f 53 62 63
f 53 63 59
f 56 64 57

