# https://github.com/mikedh/trimesh
v 0.00168464 0.01348946 0.02766446
v 0.00085643 0.01342892 0.02766446
v 0.00168464 0.01189194 0.02839468
v 0.01962904 0.01245595 0.02745060
v 0.00063026 0.01340678 0.02766446
v 0.00063026 0.01180483 0.02835453
v 0.00209042 0.00956359 0.02935586
v 0.00224010 0.00956359 0.02935586
v 0.01962904 0.01218133 0.02756190
v 0.02001154 0.01239098 0.02745060
v 0.01850814 0.01232602 0.02745060
v 0.00692327 0.00913099 0.02745060
v 0.00011138 0.01323699 0.02766446
v 0.00000162 0.01172658 0.02831955
v 0.00063026 0.00884161 0.02945484
v 0.00171790 0.00908817 0.02946438
v 0.00168464 0.00796017 0.02974263
v 0.02829690 0.00268336 0.03071295
v 0.02829690 0.00335809 0.03048041
v 0.02075659 0.01225515 0.02745060
v 0.00692327 0.00580899 0.02745060
v -0.00567606 0.01123788 0.02766446
v -0.00041747 0.01305686 0.02766446
v -0.00567606 0.00969942 0.02835295
v -0.00567606 0.00901583 0.02855647
v 0.00063026 0.00796017 0.02969175
v 0.00206714 0.00014239 0.03147735
v 0.00229331 0.00014239 0.03147735
v 0.02829690 0.00185212 0.03090097
v 0.02829690 0.00388666 0.03019380
v 0.02166795 0.01190080 0.02745060
v 0.02144178 0.01199972 0.02745060
v 0.02093953 0.01219462 0.02745060
v 0.00802089 0.00533653 0.02745060
v -0.00567606 0.00809305 0.02766486
v -0.00567606 0.00858175 0.02766446
v -0.00567606 0.00796017 0.02880014
v 0.00188088 -0.00048362 0.03150399
v -0.00567606 0.00527156 0.02930935
v -0.00567606 0.00474595 0.02940276
v 0.00243634 -0.00048362 0.03150399
v 0.02829690 0.00057204 0.03101068
v 0.02829690 0.00079646 0.03099836
v 0.02829690 0.00162770 0.03095066
v 0.02829690 0.00488178 0.02961980
v 0.02829690 0.00504567 0.02951645
v 0.02829690 0.00560376 0.02914518
v 0.02829690 0.00797346 0.02749512
v 0.02829690 0.00803252 0.02745060
v 0.00907860 0.00518150 0.02745060
v -0.00567606 -0.00159390 0.02892615
v -0.00567606 0.00057352 0.02982929
v -0.00567606 -0.00045852 0.02992906
v -0.00567606 -0.00048362 0.02993145
v -0.00567606 -0.00153928 0.02996047
v 0.00185759 -0.00153928 0.03151114
v 0.00258269 -0.00153928 0.03151114
v 0.02168458 -0.00159243 0.03099756
v 0.02829690 -0.00048362 0.03091488
v 0.00257603 -0.00159390 0.03150955
v 0.02829690 0.00593892 0.02745060
v -0.00464829 -0.00159390 0.02896869
v -0.00567606 -0.00159390 0.02946239
v 0.02829690 -0.00159243 0.02976410
v -0.00567606 -0.00159243 0.02996086
v 0.00186757 -0.00159390 0.03150955
v 0.02173780 -0.00159243 0.03099597
v 0.02829690 -0.00159243 0.03076224
v 0.00692327 -0.00159390 0.03091846
v 0.00596202 -0.00159390 0.02986824
v -0.00470151 -0.00159390 0.02997994
v 0.00692327 -0.00159390 0.03065809
f 1 2 3
f 1 3 4
f 1 4 2
f 2 5 3
f 2 4 5
f 3 5 6
f 3 6 7
f 3 7 8
f 3 8 4
f 4 9 10
f 4 10 20
f 4 20 33
f 4 33 32
f 4 32 31
f 4 31 49
f 4 49 61
f 4 61 50
f 4 50 34
f 4 34 21
f 4 21 12
f 4 12 11
f 4 11 5
f 4 8 9
f 5 11 12
f 5 12 13
f 5 13 14
f 5 14 6
f 6 14 7
f 7 14 15
f 7 15 16
f 7 16 17
f 7 17 8
f 8 17 18
f 8 18 19
f 8 19 9
f 9 19 10
f 10 19 20
f 12 21 36
f 12 36 22
f 12 22 23
f 12 23 13
f 13 23 14
f 14 23 24
f 14 24 15
f 15 24 25
f 15 25 26
f 15 26 16
f 16 26 17
f 17 26 27
f 17 27 28
f 17 28 29
f 17 29 18
f 18 29 44
f 18 44 43
f 18 43 42
f 18 42 59
f 18 59 68
f 18 68 64
f 18 64 61
f 18 61 49
f 18 49 48
f 18 48 47
f 18 47 46
f 18 46 45
f 18 45 30
f 18 30 19
f 19 30 31
f 19 31 32
f 19 32 33
f 19 33 20
f 21 34 35
f 21 35 36
f 22 36 35
f 22 35 51
f 22 51 63
f 22 63 65
f 22 65 55
f 22 55 54
f 22 54 53
f 22 53 52
f 22 52 40
f 22 40 39
f 22 39 37
f 22 37 25
f 22 25 24
f 22 24 23
f 25 37 26
f 26 37 27
f 27 38 41
f 27 41 28
f 27 37 39
f 27 39 40
f 27 40 38
f 28 41 42
f 28 42 43
f 28 43 44
f 28 44 29
f 30 45 31
f 31 45 46
f 31 46 47
f 31 47 48
f 31 48 49
f 34 50 51
f 34 51 35
f 38 40 52
f 38 52 53
f 38 53 54
f 38 54 55
f 38 55 56
f 38 56 57
f 38 57 41
f 41 57 42
f 42 58 59
f 42 57 60
f 42 60 58
f 50 61 51
f 51 62 70
f 51 70 72
f 51 72 69
f 51 69 60
f 51 60 66
f 51 66 71
f 51 71 63
f 51 61 64
f 51 64 62
f 55 65 56
f 56 65 66
f 56 66 60
f 56 60 57
f 58 67 59
f 58 60 67
f 59 67 68
f 60 69 68
f 60 68 67
f 62 64 70
f 63 71 65
f 64 68 69
f 64 69 72
f 64 72 70
f 65 71 66

