# https://github.com/mikedh/trimesh
v -0.02365022 0.02233207 0.02187196
v -0.02365022 0.02186835 0.02252681
v -0.02338295 0.02232504 0.02187196
v -0.02429615 0.02232504 0.02187196
v -0.04360338 0.02183790 0.02250810
v -0.02470078 0.02135779 0.02325059
v -0.02291892 0.02230397 0.02187196
v -0.02365022 0.02134140 0.02322006
v -0.01626663 0.02108378 0.02290396
v -0.02455972 0.02230631 0.02187196
v -0.03169831 0.02120790 0.02187196
v -0.04360338 0.02027110 0.02250810
v -0.04360338 0.02132735 0.02320430
v -0.02509799 0.02225712 0.02187196
v -0.02575876 0.02215642 0.02187196
v -0.02470078 0.02091047 0.02370947
v -0.02457457 0.02090578 0.02370947
v -0.02262936 0.02227820 0.02187196
v -0.01626663 0.02055448 0.02343276
v -0.01520865 0.02047251 0.02337466
v -0.01520865 0.02100181 0.02276610
v -0.01520865 0.02127582 0.02223828
v -0.01626663 0.02134374 0.02237516
v -0.03169831 0.01973010 0.02187196
v -0.04045542 0.01861764 0.02250810
v -0.03895569 0.00637830 0.02618215
v -0.04360338 -0.00159390 0.03080646
v -0.04360338 0.02087300 0.02365925
v -0.02575876 0.02032028 0.02430524
v -0.02470078 0.02084255 0.02377841
v -0.02470078 0.02031560 0.02427865
v -0.01626663 0.02154047 0.02187196
v -0.01626663 0.01998069 0.02395960
v -0.01520865 0.01991980 0.02390445
v -0.01499705 0.02043738 0.02334118
v -0.01499705 0.02097136 0.02270012
v -0.01499705 0.02105801 0.02255536
v -0.01499705 0.02125240 0.02218511
v -0.01520865 0.02140932 0.02187196
v -0.03895198 0.00637830 0.02618215
v -0.03842856 0.01808601 0.02250810
v -0.03919698 0.01822184 0.02250810
v -0.03948282 0.01827337 0.02250810
v -0.04040345 0.01859422 0.02250810
v -0.01499705 0.02005564 0.02187196
v -0.00851181 0.01446526 0.02370947
v -0.00570909 -0.00159156 0.02892365
v -0.03842856 -0.00159390 0.03011222
v -0.03948282 -0.00159390 0.03017229
v -0.04096029 -0.00159390 0.03034167
v -0.00676336 -0.00159156 0.02892266
v -0.00887561 -0.00159156 0.02899553
v -0.01198644 -0.00159156 0.02910976
v -0.04360338 -0.00159390 0.03182271
v -0.04360338 0.01921954 0.02530081
v -0.02575876 0.01970433 0.02483207
v -0.04360338 0.01866682 0.02582666
v -0.04360338 0.01813753 0.02631213
v -0.01626663 0.01945140 0.02436235
v -0.01520865 0.01939285 0.02433084
v -0.01415438 0.01921485 0.02420775
v -0.01415438 0.01974415 0.02373508
v -0.01415438 0.01976991 0.02370947
v -0.01413582 0.01976054 0.02370947
v -0.01334140 0.01933430 0.02370947
v -0.01499705 0.02135779 0.02187196
v -0.00851181 0.01600630 0.02370947
v -0.00567939 0.00858447 0.02766220
v -0.00567939 0.00809499 0.02766319
v -0.00567939 -0.00159156 0.02892463
v -0.03169831 -0.00159390 0.03005708
v -0.03420777 -0.00159390 0.03143866
v -0.01732090 -0.00159156 0.03087145
v -0.04360338 -0.00153770 0.03183157
v -0.04360338 0.01745366 0.02686161
v -0.04360338 0.01735061 0.02693941
v -0.04360338 0.01653794 0.02754896
v -0.04360338 0.01517489 0.02851794
v -0.02575876 0.01917504 0.02520430
v -0.01527547 0.01841389 0.02488919
v -0.00567939 0.01123797 0.02766220
v -0.03103382 0.01613979 0.02736186
v -0.01356042 0.01909541 0.02411223
v -0.00567939 -0.00159156 0.02996058
v -0.03169831 -0.00159390 0.03109401
v -0.03317206 -0.00159390 0.03133329
v -0.01626663 -0.00159156 0.03081335
v -0.01732090 -0.00153770 0.03087638
v -0.04360338 -0.00048145 0.03192906
v -0.04360338 0.01435987 0.02886850
v -0.03209551 0.01620771 0.02739140
v -0.03209551 0.01673232 0.02708416
v -0.03169831 0.01670890 0.02707136
v -0.00993359 0.01073209 0.02836333
v -0.00917258 0.01066652 0.02832788
v -0.00567939 0.00970161 0.02835152
v -0.00993359 0.01007399 0.02866762
v -0.00567939 -0.00153770 0.02995959
v -0.01626663 -0.00048145 0.03084290
v -0.01626663 -0.00153770 0.03081828
v -0.01732090 -0.00048145 0.03089213
v -0.04360338 -0.00037606 0.03193103
v -0.04360338 0.01295935 0.02943670
v -0.00567939 0.00903414 0.02855043
v -0.01151128 0.00849079 0.02934610
v -0.01098786 0.01007399 0.02872670
v -0.01310011 0.00863131 0.02938943
v -0.00567939 -0.00048145 0.02993103
v -0.01626663 0.00057245 0.03078775
v -0.04360338 0.00057245 0.03193103
v -0.04360338 0.01228250 0.02964743
v -0.00993359 0.00762893 0.02939140
v -0.00567939 0.00901774 0.02855437
v -0.01310011 0.00796384 0.02958441
v -0.01204213 0.00796384 0.02950661
v -0.01109551 0.00799194 0.02942783
v -0.00567939 0.00057245 0.02982862
v -0.01626663 0.00162870 0.03069617
v -0.01732090 0.00162870 0.03074442
v -0.04360338 0.00162870 0.03186702
v -0.04360338 0.01217243 0.02967697
v -0.00567939 0.00476934 0.02939829
v -0.00936562 0.00746733 0.02935398
v -0.00567939 0.00796384 0.02879858
v -0.01310011 0.00690759 0.02979711
v -0.01098786 0.00690759 0.02959622
v -0.01942944 0.00541105 0.03042241
v -0.01872783 0.00535718 0.03040961
v -0.00567939 0.00474592 0.02940125
v -0.01626663 0.00268495 0.03057800
v -0.01732090 0.00268495 0.03063413
v -0.04360338 0.00268729 0.03171045
v -0.04360338 0.01112321 0.02991823
v -0.00567939 0.00527287 0.02930769
v -0.01669353 0.00435246 0.03041158
f 1 2 3
f 1 3 7
f 1 7 18
f 1 18 32
f 1 32 39
f 1 39 66
f 1 66 45
f 1 45 24
f 1 24 11
f 1 11 15
f 1 15 14
f 1 14 10
f 1 10 4
f 1 4 5
f 1 5 6
f 1 6 2
f 2 7 3
f 2 6 8
f 2 8 9
f 2 9 7
f 4 10 5
f 5 11 24
f 5 24 12
f 5 12 27
f 5 27 54
f 5 54 74
f 5 74 89
f 5 89 102
f 5 102 110
f 5 110 120
f 5 120 132
f 5 132 133
f 5 133 121
f 5 121 111
f 5 111 103
f 5 103 90
f 5 90 78
f 5 78 77
f 5 77 76
f 5 76 75
f 5 75 58
f 5 58 57
f 5 57 55
f 5 55 28
f 5 28 13
f 5 13 6
f 5 10 14
f 5 14 15
f 5 15 11
f 6 16 17
f 6 17 8
f 6 13 16
f 7 9 18
f 8 17 19
f 8 19 9
f 9 19 20
f 9 20 21
f 9 21 22
f 9 22 23
f 9 23 18
f 12 24 25
f 12 25 26
f 12 26 27
f 13 28 29
f 13 29 16
f 16 29 30
f 16 30 17
f 17 30 31
f 17 31 19
f 18 23 22
f 18 22 32
f 19 33 34
f 19 34 20
f 19 31 33
f 20 34 35
f 20 35 21
f 21 35 36
f 21 36 37
f 21 37 38
f 21 38 22
f 22 39 32
f 22 38 39
f 24 40 26
f 24 26 41
f 24 41 42
f 24 42 43
f 24 43 44
f 24 44 25
f 24 45 46
f 24 46 47
f 24 47 40
f 25 44 26
f 26 48 49
f 26 49 50
f 26 50 27
f 26 44 43
f 26 43 42
f 26 42 41
f 26 40 51
f 26 51 52
f 26 52 53
f 26 53 48
f 27 50 49
f 27 49 48
f 27 48 71
f 27 71 85
f 27 85 86
f 27 86 72
f 27 72 54
f 28 55 29
f 29 56 31
f 29 31 30
f 29 55 57
f 29 57 58
f 29 58 56
f 31 56 33
f 33 59 60
f 33 60 34
f 33 56 59
f 34 60 61
f 34 61 62
f 34 62 35
f 35 62 63
f 35 63 36
f 36 63 64
f 36 64 65
f 36 65 37
f 37 65 38
f 38 66 39
f 38 65 67
f 38 67 66
f 40 47 51
f 45 66 67
f 45 67 46
f 46 67 81
f 46 81 68
f 46 68 69
f 46 69 70
f 46 70 47
f 47 70 71
f 47 71 51
f 48 53 52
f 48 52 51
f 48 51 71
f 54 72 73
f 54 73 74
f 56 58 75
f 56 75 76
f 56 76 77
f 56 77 78
f 56 78 79
f 56 79 59
f 59 79 60
f 60 80 81
f 60 81 61
f 60 79 82
f 60 82 80
f 61 81 83
f 61 83 62
f 62 83 63
f 63 83 64
f 64 83 65
f 65 83 81
f 65 81 67
f 68 81 96
f 68 96 104
f 68 104 113
f 68 113 124
f 68 124 134
f 68 134 122
f 68 122 129
f 68 129 117
f 68 117 108
f 68 108 98
f 68 98 84
f 68 84 70
f 68 70 69
f 70 84 85
f 70 85 71
f 72 86 84
f 72 84 87
f 72 87 73
f 73 87 100
f 73 100 88
f 73 88 89
f 73 89 74
f 78 90 82
f 78 82 91
f 78 91 92
f 78 92 79
f 79 92 93
f 79 93 82
f 80 94 95
f 80 95 81
f 80 82 94
f 81 95 96
f 82 93 92
f 82 92 91
f 82 90 97
f 82 97 94
f 84 98 99
f 84 99 100
f 84 100 87
f 84 86 85
f 88 100 99
f 88 99 101
f 88 101 102
f 88 102 89
f 90 103 97
f 94 97 95
f 95 97 96
f 96 97 105
f 96 105 104
f 97 103 106
f 97 106 107
f 97 107 105
f 98 108 99
f 99 109 101
f 99 108 109
f 101 109 110
f 101 110 102
f 103 111 107
f 103 107 106
f 104 112 113
f 104 105 112
f 105 107 114
f 105 114 115
f 105 115 116
f 105 116 112
f 107 111 114
f 108 117 118
f 108 118 109
f 109 118 119
f 109 119 120
f 109 120 110
f 111 121 114
f 112 122 123
f 112 123 124
f 112 124 113
f 112 116 125
f 112 125 126
f 112 126 122
f 114 127 128
f 114 128 125
f 114 125 115
f 114 121 127
f 115 125 116
f 117 129 118
f 118 130 131
f 118 131 119
f 118 129 130
f 119 131 120
f 120 131 128
f 120 128 132
f 121 133 127
f 122 134 123
f 122 126 125
f 122 125 129
f 123 134 124
f 125 128 135
f 125 135 130
f 125 130 129
f 127 133 132
f 127 132 128
f 128 131 130
f 128 130 135

