# https://github.com/mikedh/trimesh
v -0.03246515 0.02620240 0.02628056
v -0.03246515 0.00098339 0.02692827
v -0.03246515 0.02620240 0.02436049
v -0.05285469 0.02620240 0.02897396
v -0.05378584 0.02410904 0.02925252
v -0.03246515 0.00098339 0.02539188
v -0.05534925 0.02254890 0.02945248
v -0.05690883 0.02098876 0.02949862
v -0.05847225 0.02098876 0.02955331
v -0.05847225 0.01942615 0.02939779
v -0.06003567 0.01942615 0.02942257
v -0.06315483 0.01665640 0.02900728
v -0.06471824 0.01162050 0.02799555
v -0.06627783 0.01162050 0.02793830
v -0.06940082 0.01034178 0.02751703
v -0.07096041 0.01046274 0.02747345
v -0.07161183 0.00098339 0.02497915
v -0.03246515 0.02595060 0.02418788
v -0.03367603 0.02620240 0.02399135
v -0.05327236 0.02620240 0.02901412
v -0.05534925 0.02410904 0.02942001
v -0.03246515 0.01678477 0.02105442
v -0.04316764 0.00098339 0.02278650
v -0.04340139 0.00121791 0.02266003
v -0.05690883 0.02254890 0.02954049
v -0.06003567 0.02098876 0.02957125
v -0.06159141 0.01942615 0.02941061
v -0.06315483 0.01786354 0.02916451
v -0.06418178 0.01689832 0.02897566
v -0.06940082 0.01162050 0.02778876
v -0.06784124 0.01162050 0.02786396
v -0.07096041 0.01162050 0.02767682
v -0.07161183 0.01057382 0.02744610
v -0.07161183 0.00098339 0.02331116
v -0.03246515 0.02553095 0.02390504
v -0.03408988 0.02620240 0.02391017
v -0.03246515 0.02354621 0.02266772
v -0.05456754 0.02620240 0.02908846
v -0.05534925 0.02567166 0.02919784
v -0.05690883 0.02410904 0.02945162
v -0.03246515 0.01786354 0.02088266
v -0.04419843 0.00098339 0.02261474
v -0.04441684 0.00098339 0.02259252
v -0.04449348 0.00098339 0.02258483
v -0.04598026 0.00225224 0.02223192
v -0.05847225 0.02254890 0.02954049
v -0.06159141 0.02098876 0.02951486
v -0.06315483 0.01942615 0.02935336
v -0.06470674 0.01788576 0.02903548
v -0.07161183 0.01158347 0.02761102
v -0.07161183 0.01108976 0.02753583
v -0.07161183 0.00222015 0.02317871
v -0.07033197 0.00267684 0.02266516
v -0.07002542 0.00163757 0.02279931
v -0.06898315 0.00133393 0.02266174
v -0.07094891 0.00098339 0.02317957
v -0.03505169 0.02620240 0.02372560
v -0.03246515 0.02346968 0.02262585
v -0.03715157 0.02496071 0.02266943
v -0.05534925 0.02620240 0.02910726
v -0.05621909 0.02620240 0.02908162
v -0.05662144 0.02620240 0.02906539
v -0.05689734 0.02573584 0.02914144
v -0.05847225 0.02410904 0.02933712
v -0.06003567 0.02254890 0.02948324
v -0.03246515 0.01853499 0.02084165
v -0.04910326 0.00225224 0.02201573
v -0.05067050 0.00225224 0.02192687
v -0.05067050 0.00098339 0.02215758
v -0.06315483 0.02098876 0.02941317
v -0.06471824 0.01942615 0.02919784
v -0.07161183 0.01252647 0.02769305
v -0.07161183 0.00384201 0.02317530
v -0.07033197 0.00337791 0.02266516
v -0.06946213 0.00219546 0.02260791
v -0.06846584 0.00098339 0.02280615
v -0.06927820 0.00098339 0.02286340
v -0.05222626 0.00098339 0.02211998
v -0.03662276 0.02620240 0.02348633
v -0.03246515 0.02169971 0.02167479
v -0.03246515 0.02041605 0.02102109
v -0.03817851 0.02502736 0.02263098
v -0.03817851 0.02580989 0.02308814
v -0.06940082 0.02620240 0.02761273
v -0.06586781 0.02198360 0.02901754
v -0.06471824 0.02218602 0.02909615
v -0.03246515 0.01942862 0.02085532
v -0.06940082 0.00386422 0.02262158
v -0.06471824 0.02098876 0.02925765
v -0.06604025 0.02098876 0.02905342
v -0.06583716 0.01942615 0.02902010
v -0.07161183 0.01318311 0.02774604
v -0.07161183 0.02620240 0.02493472
v -0.03817851 0.02620240 0.02334449
v -0.03246515 0.01987543 0.02089206
v -0.03973810 0.02410904 0.02231481
v -0.03817851 0.02410904 0.02229345
v -0.03973810 0.02502242 0.02263610
v -0.03973810 0.02580249 0.02309583
v -0.03869199 0.02620240 0.02334791
v -0.07036263 0.02620240 0.02747345
v -0.06940082 0.02410904 0.02795539
v -0.06940082 0.02254890 0.02809211
v -0.07161183 0.01565663 0.02772894
v -0.07161183 0.01473832 0.02774689
v -0.07161183 0.01409649 0.02774860
v -0.07161183 0.02620240 0.02681377
v -0.03973810 0.02620240 0.02335645
v -0.07109835 0.02620240 0.02709234
v -0.07043161 0.02567166 0.02750592
v -0.07161183 0.02067031 0.02751276
v -0.07161183 0.02014697 0.02754437
v -0.07161183 0.01875470 0.02761700
v -0.07120948 0.02567166 0.02709918
f 1 2 6
f 1 6 22
f 1 22 41
f 1 41 66
f 1 66 87
f 1 87 95
f 1 95 81
f 1 81 80
f 1 80 58
f 1 58 37
f 1 37 35
f 1 35 18
f 1 18 3
f 1 3 19
f 1 19 36
f 1 36 57
f 1 57 79
f 1 79 94
f 1 94 100
f 1 100 108
f 1 108 93
f 1 93 107
f 1 107 109
f 1 109 101
f 1 101 84
f 1 84 62
f 1 62 61
f 1 61 60
f 1 60 38
f 1 38 20
f 1 20 4
f 1 4 5
f 1 5 2
f 2 5 7
f 2 7 8
f 2 8 9
f 2 9 10
f 2 10 11
f 2 11 12
f 2 12 13
f 2 13 14
f 2 14 15
f 2 15 16
f 2 16 17
f 2 17 34
f 2 34 56
f 2 56 77
f 2 77 76
f 2 76 78
f 2 78 69
f 2 69 44
f 2 44 43
f 2 43 42
f 2 42 23
f 2 23 6
f 3 18 19
f 4 20 21
f 4 21 5
f 5 21 7
f 6 23 24
f 6 24 22
f 7 21 25
f 7 25 8
f 8 25 9
f 9 26 11
f 9 11 10
f 9 25 26
f 11 26 27
f 11 27 12
f 12 27 28
f 12 28 29
f 12 29 30
f 12 30 31
f 12 31 14
f 12 14 13
f 14 31 16
f 14 16 15
f 16 32 33
f 16 33 17
f 16 31 30
f 16 30 32
f 17 33 51
f 17 51 50
f 17 50 72
f 17 72 92
f 17 92 106
f 17 106 105
f 17 105 104
f 17 104 113
f 17 113 112
f 17 112 111
f 17 111 107
f 17 107 93
f 17 93 73
f 17 73 52
f 17 52 34
f 18 35 19
f 19 35 37
f 19 37 36
f 20 38 21
f 21 38 39
f 21 39 40
f 21 40 25
f 22 24 42
f 22 42 43
f 22 43 44
f 22 44 45
f 22 45 41
f 23 42 24
f 25 40 46
f 25 46 26
f 26 47 27
f 26 46 47
f 27 47 48
f 27 48 28
f 28 48 29
f 29 48 49
f 29 49 50
f 29 50 32
f 29 32 30
f 32 50 51
f 32 51 33
f 34 52 53
f 34 53 54
f 34 54 55
f 34 55 56
f 36 37 57
f 37 58 59
f 37 59 57
f 38 60 39
f 39 60 40
f 40 61 62
f 40 62 63
f 40 63 64
f 40 64 65
f 40 65 46
f 40 60 61
f 41 45 67
f 41 67 68
f 41 68 66
f 44 67 45
f 44 69 67
f 46 65 47
f 47 65 70
f 47 70 48
f 48 70 89
f 48 89 71
f 48 71 49
f 49 71 50
f 50 71 72
f 52 73 53
f 53 74 75
f 53 75 55
f 53 55 54
f 53 73 74
f 55 76 77
f 55 77 56
f 55 75 68
f 55 68 78
f 55 78 76
f 57 59 79
f 58 80 59
f 59 80 81
f 59 81 82
f 59 82 83
f 59 83 79
f 62 84 85
f 62 85 63
f 63 85 86
f 63 86 64
f 64 86 65
f 65 86 85
f 65 85 70
f 66 68 75
f 66 75 74
f 66 74 88
f 66 88 87
f 67 69 68
f 68 69 78
f 70 85 89
f 71 89 90
f 71 90 91
f 71 91 92
f 71 92 72
f 73 93 74
f 74 93 88
f 79 83 94
f 81 95 96
f 81 96 97
f 81 97 82
f 82 97 98
f 82 98 83
f 83 98 99
f 83 99 100
f 83 100 94
f 84 101 85
f 85 90 89
f 85 101 102
f 85 102 103
f 85 103 90
f 87 88 95
f 88 93 95
f 90 103 104
f 90 104 105
f 90 105 106
f 90 106 92
f 90 92 91
f 93 108 99
f 93 99 98
f 93 98 96
f 93 96 95
f 96 98 97
f 99 108 100
f 101 109 110
f 101 110 102
f 102 110 103
f 103 110 111
f 103 111 112
f 103 112 113
f 103 113 104
f 107 111 114
f 107 114 109
f 109 114 111
f 109 111 110

