# https://github.com/mikedh/trimesh
v -0.07021294 -0.01369814 -0.02605874
v -0.05847448 -0.01748923 -0.02223819
v -0.05952677 -0.01732598 -0.02223819
v -0.05987701 -0.01723380 -0.02223819
v -0.07021294 -0.01369814 -0.02450743
v -0.07021294 -0.01336205 -0.02604986
v -0.06940153 -0.01369814 -0.02621269
v -0.05698637 -0.01757373 -0.02223819
v -0.05847448 -0.01600660 -0.02071353
v -0.05967891 -0.01590097 -0.02081418
v -0.06021773 -0.01711089 -0.02223819
v -0.06315274 -0.00762357 -0.01359940
v -0.07021294 -0.01027964 -0.02392569
v -0.06056797 -0.01698029 -0.02223819
v -0.06159649 -0.01643487 -0.02223819
v -0.06547128 -0.00631571 -0.01323822
v -0.06569631 -0.00527671 -0.01293181
v -0.06556161 -0.00335812 -0.01158181
v -0.06589600 -0.00392659 -0.01241816
v -0.06706556 -0.00322561 -0.01475400
v -0.07021294 -0.01243829 -0.02599657
v -0.06940153 -0.01336205 -0.02620381
v -0.06906555 -0.01369814 -0.02622897
v -0.05402442 -0.01179876 -0.01947751
v -0.05414169 -0.01263418 -0.01947751
v -0.05420508 -0.01307014 -0.01947751
v -0.05468210 -0.01360212 -0.01947751
v -0.05496261 -0.01385178 -0.01947751
v -0.05539525 -0.01410913 -0.01947751
v -0.05580888 -0.01433383 -0.01947751
v -0.05698637 -0.01602388 -0.02071205
v -0.06784052 -0.01369814 -0.02620825
v -0.06744274 -0.01369814 -0.02614460
v -0.06650772 -0.01369814 -0.02592700
v -0.05473757 0.00098223 -0.02175119
v -0.05847448 -0.01517309 -0.01993343
v -0.05969951 -0.01433383 -0.01928064
v -0.06315274 -0.00684193 -0.01283707
v -0.06443166 -0.00654617 -0.01304431
v -0.07021294 -0.00964203 -0.02382207
v -0.06471692 -0.00361739 -0.01143230
v -0.06481993 -0.00237098 -0.01141158
v -0.06556161 -0.00284919 -0.01158181
v -0.06596097 -0.00237098 -0.01229974
v -0.06706556 -0.00320448 -0.01475400
v -0.07021294 -0.00318912 -0.02323885
v -0.07021294 -0.00399765 -0.02325365
v -0.07021294 -0.00555903 -0.02331730
v -0.07021294 -0.00636756 -0.02338391
v -0.07021294 -0.00712040 -0.02346089
v -0.07021294 -0.00792701 -0.02356006
v -0.07021294 -0.00867793 -0.02367257
v -0.07021294 -0.01084427 -0.02584114
v -0.06940153 -0.01180068 -0.02605134
v -0.06784052 -0.01336205 -0.02617864
v -0.05426847 -0.00231337 -0.01947751
v -0.05595310 -0.00243628 -0.01601667
v -0.05767258 -0.00024690 -0.01318789
v -0.05436515 -0.01292994 -0.01929396
v -0.05776608 -0.00128782 -0.01328263
v -0.06053786 -0.00657882 -0.01303542
v -0.06159649 -0.00686689 -0.01282967
v -0.05589604 -0.01423589 -0.01938426
v -0.05606720 -0.01438184 -0.01947751
v -0.05698637 -0.01510396 -0.01993195
v -0.05847606 -0.01439529 -0.01923919
v -0.06784052 -0.00318912 -0.02474723
v -0.06940153 -0.00318912 -0.02495891
v -0.05493725 0.00103600 -0.02175119
v -0.05860760 0.00179268 -0.01555482
v -0.05880569 0.00172546 -0.01399315
v -0.05802440 0.00104176 -0.01399315
v -0.05611633 -0.00007213 -0.01629199
v -0.06159649 -0.00764854 -0.01344398
v -0.06245544 -0.00481771 -0.01163658
v -0.06304815 -0.00542651 -0.01204957
v -0.06304815 -0.00407639 -0.01137902
v -0.06315274 -0.00243628 -0.01110665
v -0.06330013 -0.00073471 -0.01139826
v -0.06436669 -0.00115914 -0.01154184
v -0.06540789 -0.00180635 -0.01169135
v -0.06580091 -0.00087491 -0.01271273
v -0.06674861 -0.00258416 -0.01413674
v -0.06559489 0.00003734 -0.01302654
v -0.06567730 0.00013720 -0.01399315
v -0.07021294 -0.00318912 -0.02488046
v -0.05604818 -0.00087491 -0.01613657
v -0.05641744 -0.00087491 -0.01535647
v -0.05767258 -0.00004141 -0.01318789
v -0.05977875 -0.00087491 -0.01191931
v -0.05836037 -0.00081153 -0.01278822
v -0.05792456 -0.00243628 -0.01343657
v -0.05870586 -0.00243628 -0.01279858
v -0.05900221 -0.00399765 -0.01301914
v -0.05920506 -0.00488877 -0.01317161
v -0.06002598 -0.00546876 -0.01285779
v -0.06075022 -0.00333892 -0.01160994
v -0.06128112 -0.00438176 -0.01179941
v -0.06172011 -0.00542651 -0.01205993
v -0.06231915 -0.00481771 -0.01163658
v -0.05691347 -0.01452204 -0.01947751
v -0.05706720 0.00106289 -0.02175119
v -0.05535088 0.00112434 -0.02175119
v -0.05520349 0.00110706 -0.02175119
v -0.06003548 0.00204619 -0.01555482
v -0.06003548 0.00199049 -0.01399315
v -0.05907353 0.00157758 -0.01310944
v -0.05745388 0.00026011 -0.01399315
v -0.06172011 -0.00391507 -0.01148707
v -0.06159649 -0.00243628 -0.01125911
v -0.06159649 -0.00087491 -0.01129908
v -0.06287541 0.00008535 -0.01151224
v -0.06391661 -0.00012015 -0.01166026
v -0.06481993 -0.00073471 -0.01188082
v -0.06471692 0.00026972 -0.01268904
v -0.06249506 0.00151805 -0.01314348
v -0.06356320 0.00128759 -0.01399315
v -0.06420504 0.00098223 -0.01399315
v -0.06471692 0.00073832 -0.01399315
v -0.06471692 0.00063077 -0.01555482
v -0.06404814 0.00098223 -0.01555482
v -0.06351090 0.00126262 -0.01555482
v -0.06272961 0.00160831 -0.01555482
v -0.06242850 0.00148924 -0.01639265
v -0.05761553 0.00098223 -0.02175119
v -0.06065355 0.00002389 -0.01158329
v -0.05875023 0.00098223 -0.01300286
v -0.05852202 0.00056163 -0.01292885
v -0.06055529 -0.00087491 -0.01153444
v -0.06063136 -0.00243628 -0.01155368
v -0.05985165 -0.00243628 -0.01201701
v -0.06159649 0.00185798 -0.01555482
v -0.06008461 0.00169281 -0.01718755
v -0.06159649 0.00189447 -0.01399315
v -0.06159649 0.00159679 -0.01303839
v -0.06003548 0.00164096 -0.01301174
v -0.06159649 0.00012952 -0.01149596
v -0.06159649 0.00091117 -0.01225681
v -0.06278191 0.00163136 -0.01399315
v -0.06415908 0.00098223 -0.01471700
v -0.06144594 0.00098223 -0.01232934
v -0.06144435 0.00098223 -0.01232934
f 1 2 3
f 1 3 4
f 1 4 5
f 1 5 13
f 1 13 40
f 1 40 52
f 1 52 51
f 1 51 50
f 1 50 49
f 1 49 48
f 1 48 47
f 1 47 46
f 1 46 86
f 1 86 53
f 1 53 21
f 1 21 6
f 1 6 22
f 1 22 7
f 1 7 2
f 2 7 8
f 2 8 9
f 2 9 3
f 3 9 10
f 3 10 4
f 4 11 5
f 4 10 12
f 4 12 11
f 5 11 14
f 5 14 15
f 5 15 16
f 5 16 17
f 5 17 18
f 5 18 19
f 5 19 20
f 5 20 13
f 6 21 22
f 7 22 23
f 7 23 8
f 8 24 25
f 8 25 26
f 8 26 27
f 8 27 28
f 8 28 29
f 8 29 30
f 8 30 31
f 8 31 9
f 8 23 32
f 8 32 33
f 8 33 34
f 8 34 35
f 8 35 24
f 9 31 36
f 9 36 37
f 9 37 10
f 10 37 12
f 11 12 14
f 12 38 39
f 12 39 16
f 12 16 14
f 12 37 38
f 13 20 40
f 14 16 15
f 16 39 41
f 16 41 18
f 16 18 17
f 18 41 42
f 18 42 43
f 18 43 44
f 18 44 20
f 18 20 19
f 20 44 45
f 20 45 46
f 20 46 47
f 20 47 48
f 20 48 49
f 20 49 50
f 20 50 51
f 20 51 52
f 20 52 40
f 21 53 22
f 22 54 55
f 22 55 23
f 22 53 54
f 23 55 32
f 24 35 56
f 24 56 57
f 24 57 58
f 24 58 25
f 25 58 26
f 26 59 27
f 26 58 60
f 26 60 59
f 27 59 61
f 27 61 28
f 28 61 29
f 29 61 62
f 29 62 63
f 29 63 30
f 30 63 64
f 30 64 65
f 30 65 31
f 31 65 66
f 31 66 36
f 32 55 33
f 33 55 35
f 33 35 34
f 35 67 68
f 35 68 69
f 35 69 70
f 35 70 71
f 35 71 72
f 35 72 73
f 35 73 56
f 35 55 67
f 36 66 38
f 36 38 37
f 38 66 74
f 38 74 62
f 38 62 75
f 38 75 76
f 38 76 41
f 38 41 39
f 41 76 75
f 41 75 77
f 41 77 78
f 41 78 42
f 42 78 79
f 42 79 80
f 42 80 81
f 42 81 43
f 43 81 44
f 44 81 82
f 44 82 83
f 44 83 45
f 45 83 46
f 46 83 82
f 46 82 84
f 46 84 85
f 46 85 86
f 53 86 54
f 54 86 68
f 54 68 55
f 55 68 67
f 56 73 87
f 56 87 88
f 56 88 57
f 57 88 89
f 57 89 58
f 58 89 90
f 58 90 91
f 58 91 60
f 59 60 92
f 59 92 93
f 59 93 94
f 59 94 95
f 59 95 96
f 59 96 61
f 60 91 93
f 60 93 92
f 61 96 97
f 61 97 98
f 61 98 99
f 61 99 62
f 62 99 100
f 62 100 75
f 62 74 63
f 63 101 64
f 63 74 101
f 64 101 65
f 65 101 74
f 65 74 66
f 68 86 102
f 68 102 103
f 68 103 104
f 68 104 69
f 69 104 70
f 70 104 105
f 70 105 106
f 70 106 71
f 71 106 107
f 71 107 72
f 72 107 89
f 72 89 108
f 72 108 73
f 73 108 89
f 73 89 88
f 73 88 87
f 75 100 77
f 77 100 109
f 77 109 110
f 77 110 78
f 78 110 111
f 78 111 112
f 78 112 79
f 79 112 113
f 79 113 80
f 80 113 81
f 81 113 114
f 81 114 84
f 81 84 82
f 84 113 115
f 84 115 116
f 84 116 117
f 84 117 118
f 84 118 119
f 84 119 85
f 84 114 113
f 85 119 86
f 86 119 120
f 86 120 121
f 86 121 122
f 86 122 123
f 86 123 124
f 86 124 125
f 86 125 102
f 89 126 90
f 89 107 127
f 89 127 128
f 89 128 126
f 90 126 129
f 90 129 130
f 90 130 131
f 90 131 91
f 91 131 93
f 93 131 97
f 93 97 94
f 94 97 95
f 95 97 96
f 97 131 130
f 97 130 110
f 97 110 109
f 97 109 98
f 98 109 100
f 98 100 99
f 102 125 132
f 102 132 133
f 102 133 105
f 102 105 103
f 103 105 104
f 105 133 132
f 105 132 134
f 105 134 106
f 106 134 135
f 106 135 136
f 106 136 107
f 107 136 137
f 107 137 126
f 107 126 127
f 110 130 129
f 110 129 111
f 111 129 126
f 111 126 137
f 111 137 112
f 112 137 138
f 112 138 135
f 112 135 116
f 112 116 113
f 113 116 115
f 116 135 134
f 116 134 139
f 116 139 117
f 117 139 123
f 117 123 122
f 117 122 140
f 117 140 118
f 118 140 119
f 119 140 120
f 120 140 121
f 121 140 122
f 123 139 134
f 123 134 132
f 123 132 124
f 124 132 125
f 126 128 127
f 135 138 141
f 135 141 136
f 136 141 142
f 136 142 137
f 137 142 138
f 138 142 141

