# https://github.com/mikedh/trimesh
v 0.07575480 -0.03416345 0.00107159
v 0.07528519 -0.03416345 0.00107159
v 0.07621359 -0.03522506 0.00107159
v 0.07522197 -0.00303118 -0.01161161
v 0.07492755 -0.03416860 0.00107159
v 0.07500070 -0.00303118 -0.01161161
v 0.07664347 -0.04795420 0.00107159
v 0.07662992 -0.03435413 -0.00034654
v 0.07586769 -0.00400004 -0.01243169
v 0.07532583 0.00098339 -0.01451891
v 0.07469003 -0.03522506 0.00107159
v 0.07468552 0.00098339 -0.01451891
v 0.06896792 0.00098339 -0.02555305
v 0.07664888 -0.04850047 0.00107159
v 0.07706883 -0.03210205 -0.00306733
v 0.07751858 -0.02117149 -0.00930826
v 0.07736144 -0.01961513 -0.00930826
v 0.07742285 -0.01804847 -0.01086850
v 0.07569881 0.00068448 -0.01555216
v 0.07565636 0.00098339 -0.01555216
v 0.07194999 -0.04962393 0.00107159
v 0.06896792 0.00098339 -0.02732645
v 0.06896792 0.00086486 -0.02554713
v 0.07664888 -0.04858293 0.00107159
v 0.07818508 -0.04147110 -0.01139548
v 0.07725578 -0.03210205 -0.00462756
v 0.07750233 -0.01961513 -0.01086850
v 0.07817695 -0.04054862 -0.01148134
v 0.07586860 -0.00087702 -0.02023582
v 0.07589569 -0.00087702 -0.01711239
v 0.07571778 0.00068448 -0.01711239
v 0.07566540 0.00098339 -0.01711239
v 0.07194999 -0.05124728 0.00107159
v 0.06896792 0.00008153 -0.02551753
v 0.06896792 -0.01396175 -0.02502607
v 0.06927949 0.00098339 -0.02733237
v 0.06957391 -0.02273815 -0.02914425
v 0.06896792 -0.02273815 -0.02909392
v 0.07641679 -0.04886121 0.00107159
v 0.07599503 -0.04927865 -0.00774803
v 0.07660102 -0.04850047 -0.00857107
v 0.07693066 -0.04756769 -0.01398896
v 0.07730274 -0.04643392 -0.01398896
v 0.07739395 -0.04615048 -0.01398896
v 0.07818869 -0.04251726 -0.01243465
v 0.07817695 -0.04239873 -0.01148430
v 0.07819320 -0.04141441 -0.01247018
v 0.07817695 -0.04054862 -0.01197576
v 0.07818147 -0.04189884 -0.01337908
v 0.07567172 -0.00087702 -0.02179606
v 0.07550284 0.00068448 -0.02179606
v 0.07568165 0.00068448 -0.02023582
v 0.07592820 -0.00243853 -0.02023582
v 0.07573855 -0.00243853 -0.02179606
v 0.07563108 0.00098339 -0.02023582
v 0.07194999 -0.05160803 -0.00214066
v 0.07214416 -0.05124728 0.00107159
v 0.06896792 -0.01494606 -0.02504679
v 0.06896792 -0.01533773 -0.02505567
v 0.06896792 -0.01646634 -0.02515337
v 0.06896792 -0.03044778 -0.02686164
v 0.07113539 0.00098339 -0.02684979
v 0.07192470 -0.02037269 -0.02882451
v 0.07113539 -0.02117149 -0.02899030
v 0.07113539 -0.02273815 -0.02904063
v 0.06957391 -0.02429450 -0.02917386
v 0.06896792 -0.02429450 -0.02912353
v 0.07598600 -0.04936111 0.00107159
v 0.07522468 -0.05018566 -0.00618779
v 0.07648994 -0.04834587 -0.01398896
v 0.07521474 -0.05017535 -0.00774803
v 0.07688821 -0.04748008 -0.01554920
v 0.07725397 -0.04643392 -0.01523834
v 0.07733344 -0.04615048 -0.01554920
v 0.07818147 -0.04245542 -0.01337908
v 0.07730816 -0.04303261 -0.01710943
v 0.07512895 -0.01961513 -0.02603859
v 0.07525990 -0.00087702 -0.02324675
v 0.07518494 0.00068448 -0.02305431
v 0.07540981 0.00098339 -0.02203290
v 0.07545497 0.00098339 -0.02181974
v 0.07560308 0.00098339 -0.02052892
v 0.07524455 -0.00241792 -0.02350136
v 0.07194999 -0.05162864 -0.00262324
v 0.07269687 -0.05122666 0.00107159
v 0.06896792 -0.03044778 -0.02854918
v 0.07194999 -0.05166472 -0.00462460
v 0.07194999 -0.05163895 -0.00311173
v 0.07232659 0.00098339 -0.02636426
v 0.07400186 -0.01804847 -0.02761659
v 0.07275918 -0.02117149 -0.02851957
v 0.07197799 -0.02117149 -0.02884820
v 0.07260114 0.00098339 -0.02624583
v 0.07198070 -0.02273815 -0.02885116
v 0.07126634 -0.02424297 -0.02899030
v 0.07090599 -0.02585601 -0.02900215
v 0.06957391 -0.02585601 -0.02911169
v 0.06896792 -0.02525305 -0.02908800
v 0.07520571 -0.05017535 0.00107159
v 0.07425744 -0.05071132 -0.00618779
v 0.07643665 -0.04825825 -0.01554920
v 0.07513888 -0.05012382 -0.00931122
v 0.07425744 -0.05068555 -0.00774803
v 0.07673739 -0.04719148 -0.01710943
v 0.07723952 -0.04643392 -0.01554920
v 0.07698936 -0.04643392 -0.01710943
v 0.07708057 -0.04615048 -0.01710943
v 0.07730635 -0.04459412 -0.01710943
v 0.07511359 -0.02117149 -0.02597938
v 0.07485711 -0.01961513 -0.02682019
v 0.07502238 -0.00188711 -0.02411716
v 0.07497361 -0.00087702 -0.02402538
v 0.07490678 0.00068448 -0.02383591
v 0.07513256 0.00098339 -0.02310464
v 0.07516507 0.00098339 -0.02300102
v 0.07205385 -0.05165956 -0.00462460
v 0.07370474 -0.05087107 0.00107159
v 0.06896792 -0.03001488 -0.02873569
v 0.07194999 -0.04136803 -0.02610372
v 0.07194999 -0.04219774 -0.02566556
v 0.07194999 -0.04229051 -0.02560338
v 0.07194999 -0.04374895 -0.02457605
v 0.07194999 -0.04403239 -0.02434513
v 0.07194999 -0.04528984 -0.02322899
v 0.07194999 -0.04606287 -0.02246811
v 0.07194999 -0.04706265 -0.02120690
v 0.07194999 -0.04889729 -0.01848907
v 0.07194999 -0.04957755 -0.01710943
v 0.07194999 -0.04995376 -0.01619757
v 0.07194999 -0.05025266 -0.01541893
v 0.07194999 -0.05062371 -0.01398896
v 0.07194999 -0.05085561 -0.01243169
v 0.07194999 -0.05162864 -0.00712926
v 0.07194999 -0.05164925 -0.00619668
v 0.07202585 -0.05164925 -0.00618779
v 0.07407592 -0.01961513 -0.02771429
v 0.07323422 0.00098339 -0.02572477
v 0.07338052 0.00098339 -0.02560338
v 0.07398380 0.00098339 -0.02496982
v 0.07411656 0.00098339 -0.02482179
v 0.07406147 -0.02117149 -0.02773797
v 0.07276189 -0.02273815 -0.02848700
v 0.07192832 -0.02368124 -0.02883043
v 0.07187504 -0.02472224 -0.02879491
v 0.07065312 -0.02741237 -0.02894590
v 0.07049779 -0.02858221 -0.02888372
v 0.06957391 -0.02741237 -0.02901399
v 0.06896792 -0.02973144 -0.02883339
v 0.06896792 -0.02741237 -0.02897254
v 0.06896792 -0.02585601 -0.02906136
v 0.07487788 -0.05035057 0.00107159
v 0.07425744 -0.05070616 -0.00462460
v 0.07283504 -0.05136066 -0.00462460
v 0.07280705 -0.05136066 -0.00618779
v 0.07615307 -0.04797481 -0.01710943
v 0.07570875 -0.04912404 -0.01398896
v 0.07565546 -0.04902612 -0.01554920
v 0.07537189 -0.04877876 -0.01710943
v 0.07425744 -0.05058248 -0.00931122
v 0.07491401 -0.04997437 -0.01243169
v 0.07661547 -0.04696473 -0.01792952
v 0.07673558 -0.04615048 -0.01819893
v 0.07669404 -0.04643392 -0.01810715
v 0.07686382 -0.04459412 -0.01848611
v 0.07509463 -0.02384615 -0.02583727
v 0.07484176 -0.02117149 -0.02675802
v 0.07475054 0.00098339 -0.02401946
v 0.07490227 0.00098339 -0.02375005
v 0.07425744 -0.05067009 0.00107159
v 0.06896792 -0.02985513 -0.02880379
v 0.07194999 -0.04072385 -0.02632281
v 0.07243406 -0.04119281 -0.02600306
v 0.07347625 -0.04068262 -0.02569516
v 0.07349702 -0.04540837 -0.02259542
v 0.07219203 -0.04398601 -0.02428592
v 0.07269687 -0.04558874 -0.02275825
v 0.07278537 -0.04643392 -0.02193224
v 0.07269687 -0.04643392 -0.02195001
v 0.07269687 -0.04708326 -0.02123650
v 0.07269687 -0.04893336 -0.01856309
v 0.07269687 -0.04963939 -0.01710943
v 0.07269687 -0.04998468 -0.01624790
v 0.07269687 -0.05024750 -0.01546334
v 0.07269687 -0.05058763 -0.01398896
v 0.07269687 -0.05079377 -0.01243169
v 0.07397116 -0.05025781 -0.01398896
v 0.07413372 -0.05035573 -0.01243169
v 0.07399012 -0.02273815 -0.02770540
v 0.07254785 -0.02424297 -0.02843371
v 0.07356656 -0.03964161 -0.02580766
v 0.07285220 -0.04005904 -0.02615109
v 0.06995863 -0.02961806 -0.02876234
v 0.06949172 -0.02905118 -0.02888076
v 0.07194999 -0.03994051 -0.02653893
v 0.07510095 -0.04854169 -0.01794432
v 0.07475145 -0.04990222 -0.01398896
v 0.07425112 -0.04980945 -0.01564394
v 0.07425744 -0.04931987 -0.01710943
v 0.07638608 -0.04643392 -0.01861934
v 0.07567894 -0.04753677 -0.01845946
v 0.07521565 -0.04706265 -0.01964963
v 0.07626596 -0.04615048 -0.01898053
v 0.07646375 -0.04459412 -0.01926771
v 0.07477132 -0.02273815 -0.02666624
v 0.07365868 -0.03834809 -0.02591424
v 0.07548387 -0.04615048 -0.01997529
v 0.07540259 -0.04643392 -0.01987759
v 0.07362256 -0.04701111 -0.02112696
v 0.07425744 -0.04874268 -0.01826703
v 0.07372642 -0.05015989 -0.01518505
f 1 2 5
f 1 5 11
f 1 11 21
f 1 21 33
f 1 33 57
f 1 57 85
f 1 85 117
f 1 117 169
f 1 169 151
f 1 151 99
f 1 99 68
f 1 68 39
f 1 39 24
f 1 24 14
f 1 14 7
f 1 7 3
f 1 3 4
f 1 4 6
f 1 6 2
f 2 6 5
f 3 7 8
f 3 8 9
f 3 9 4
f 4 9 10
f 4 10 12
f 4 12 6
f 5 6 11
f 6 12 13
f 6 13 11
f 7 14 15
f 7 15 8
f 8 15 16
f 8 16 17
f 8 17 9
f 9 17 18
f 9 18 19
f 9 19 20
f 9 20 10
f 10 20 32
f 10 32 55
f 10 55 82
f 10 82 81
f 10 81 80
f 10 80 115
f 10 115 114
f 10 114 168
f 10 168 167
f 10 167 140
f 10 140 139
f 10 139 138
f 10 138 137
f 10 137 93
f 10 93 89
f 10 89 62
f 10 62 36
f 10 36 22
f 10 22 13
f 10 13 12
f 11 13 21
f 13 22 38
f 13 38 67
f 13 67 98
f 13 98 150
f 13 150 149
f 13 149 148
f 13 148 170
f 13 170 118
f 13 118 86
f 13 86 61
f 13 61 60
f 13 60 59
f 13 59 58
f 13 58 35
f 13 35 34
f 13 34 23
f 13 23 21
f 14 24 25
f 14 25 15
f 15 25 26
f 15 26 16
f 16 27 18
f 16 18 17
f 16 26 28
f 16 28 27
f 18 27 29
f 18 29 30
f 18 30 19
f 19 30 31
f 19 31 20
f 20 31 32
f 21 23 34
f 21 34 35
f 21 35 33
f 22 36 37
f 22 37 38
f 24 39 40
f 24 40 41
f 24 41 42
f 24 42 43
f 24 43 44
f 24 44 45
f 24 45 46
f 24 46 25
f 25 46 45
f 25 45 47
f 25 47 28
f 25 28 26
f 27 28 48
f 27 48 47
f 27 47 49
f 27 49 29
f 28 47 48
f 29 50 51
f 29 51 52
f 29 52 31
f 29 31 30
f 29 49 53
f 29 53 54
f 29 54 50
f 31 52 55
f 31 55 32
f 33 56 57
f 33 35 58
f 33 58 59
f 33 59 60
f 33 60 61
f 33 61 56
f 36 62 63
f 36 63 64
f 36 64 37
f 37 64 65
f 37 65 66
f 37 66 67
f 37 67 38
f 39 68 69
f 39 69 40
f 40 70 41
f 40 69 71
f 40 71 70
f 41 70 42
f 42 70 72
f 42 72 73
f 42 73 43
f 43 73 74
f 43 74 44
f 44 74 75
f 44 75 45
f 45 75 47
f 47 75 49
f 49 75 76
f 49 76 77
f 49 77 54
f 49 54 53
f 50 78 79
f 50 79 51
f 50 54 78
f 51 79 80
f 51 80 81
f 51 81 82
f 51 82 52
f 52 82 55
f 54 77 83
f 54 83 78
f 56 84 85
f 56 85 57
f 56 61 84
f 61 86 87
f 61 87 88
f 61 88 84
f 62 89 63
f 63 90 91
f 63 91 92
f 63 92 64
f 63 89 93
f 63 93 90
f 64 92 65
f 65 92 94
f 65 94 95
f 65 95 96
f 65 96 66
f 66 96 97
f 66 97 98
f 66 98 67
f 68 99 69
f 69 99 100
f 69 100 71
f 70 101 72
f 70 71 102
f 70 102 101
f 71 100 103
f 71 103 102
f 72 104 105
f 72 105 73
f 72 101 104
f 73 105 74
f 74 105 106
f 74 106 107
f 74 107 108
f 74 108 75
f 75 108 76
f 76 108 77
f 77 109 110
f 77 110 111
f 77 111 83
f 77 108 109
f 78 111 112
f 78 112 113
f 78 113 79
f 78 83 111
f 79 113 114
f 79 114 115
f 79 115 80
f 84 88 116
f 84 116 117
f 84 117 85
f 86 118 119
f 86 119 120
f 86 120 121
f 86 121 122
f 86 122 123
f 86 123 124
f 86 124 125
f 86 125 126
f 86 126 127
f 86 127 128
f 86 128 129
f 86 129 130
f 86 130 131
f 86 131 132
f 86 132 133
f 86 133 134
f 86 134 87
f 87 116 88
f 87 134 135
f 87 135 116
f 90 110 136
f 90 136 91
f 90 93 137
f 90 137 138
f 90 138 139
f 90 139 140
f 90 140 110
f 91 136 141
f 91 141 142
f 91 142 94
f 91 94 92
f 94 142 143
f 94 143 95
f 95 143 144
f 95 144 96
f 96 144 145
f 96 145 97
f 97 145 146
f 97 146 147
f 97 147 148
f 97 148 149
f 97 149 150
f 97 150 98
f 99 151 152
f 99 152 100
f 100 152 153
f 100 153 154
f 100 154 103
f 101 155 104
f 101 102 156
f 101 156 157
f 101 157 158
f 101 158 155
f 102 103 159
f 102 159 160
f 102 160 157
f 102 157 156
f 103 154 159
f 104 155 161
f 104 161 106
f 104 106 105
f 106 161 107
f 107 162 108
f 107 161 163
f 107 163 162
f 108 162 164
f 108 164 165
f 108 165 109
f 109 165 166
f 109 166 110
f 110 166 141
f 110 141 136
f 110 140 111
f 111 140 112
f 112 140 167
f 112 167 113
f 113 167 168
f 113 168 114
f 116 135 154
f 116 154 153
f 116 153 169
f 116 169 117
f 118 170 119
f 119 171 172
f 119 172 120
f 119 170 171
f 120 172 173
f 120 173 174
f 120 174 121
f 121 174 175
f 121 175 122
f 122 175 123
f 123 175 174
f 123 174 176
f 123 176 124
f 124 176 177
f 124 177 125
f 125 177 178
f 125 178 179
f 125 179 126
f 126 179 180
f 126 180 127
f 127 180 128
f 128 180 181
f 128 181 129
f 129 182 130
f 129 181 182
f 130 183 131
f 130 182 183
f 131 183 184
f 131 184 132
f 132 184 133
f 133 184 185
f 133 185 186
f 133 186 187
f 133 187 159
f 133 159 154
f 133 154 135
f 133 135 134
f 141 166 188
f 141 188 142
f 142 188 189
f 142 189 144
f 142 144 143
f 144 146 145
f 144 189 190
f 144 190 191
f 144 191 146
f 146 192 148
f 146 148 193
f 146 193 147
f 146 191 194
f 146 194 192
f 147 193 148
f 148 192 194
f 148 194 170
f 151 169 152
f 152 169 153
f 155 158 195
f 155 195 161
f 157 160 196
f 157 196 197
f 157 197 158
f 158 197 198
f 158 198 195
f 159 187 160
f 160 187 196
f 161 199 163
f 161 195 200
f 161 200 201
f 161 201 199
f 162 202 203
f 162 203 164
f 162 163 202
f 163 199 202
f 164 203 165
f 165 204 166
f 165 203 205
f 165 205 204
f 166 204 188
f 170 194 171
f 171 194 172
f 172 194 191
f 172 191 173
f 173 191 190
f 173 190 203
f 173 203 202
f 173 202 206
f 173 206 174
f 174 206 207
f 174 207 201
f 174 201 208
f 174 208 176
f 176 208 177
f 177 208 179
f 177 179 178
f 179 208 180
f 180 208 209
f 180 209 198
f 180 198 181
f 181 198 182
f 182 198 210
f 182 210 183
f 183 210 184
f 184 210 186
f 184 186 185
f 186 210 196
f 186 196 187
f 188 204 205
f 188 205 190
f 188 190 189
f 190 205 203
f 195 198 209
f 195 209 208
f 195 208 201
f 195 201 200
f 196 210 197
f 197 210 198
f 199 201 207
f 199 207 202
f 202 207 206

