# https://github.com/mikedh/trimesh
v -0.02061922 -0.02721791 0.02773366
v -0.02061922 -0.02721791 0.02949615
v -0.02061922 -0.02571881 0.02698697
v -0.01995652 -0.03544962 0.02819326
v -0.01995652 -0.03544962 0.02986742
v -0.01995652 -0.03522342 0.02989641
v -0.02061768 -0.01444366 0.02955964
v -0.02061922 -0.02068067 0.02837682
v -0.02061922 -0.02429579 0.02657016
v -0.00483789 -0.03544962 0.02609676
v -0.01738912 -0.02273705 0.01886458
v -0.01702610 -0.02273705 0.01808477
v -0.01596793 -0.02397911 0.01779907
v -0.01547361 -0.02501758 0.01807373
v -0.01443552 -0.02532604 0.01774663
v -0.01318735 -0.02546793 0.01758929
v -0.01943130 -0.03544962 0.02988261
v -0.01943130 -0.03522342 0.02988951
v -0.00694341 -0.01444160 0.02994057
v -0.00802011 -0.01444160 0.02992263
v -0.00850516 -0.01444160 0.02991435
v -0.01006538 -0.01444160 0.02965212
v -0.01296645 -0.01444160 0.02911936
v -0.02061768 -0.01444366 0.02796001
v -0.02061922 -0.02068067 0.02644732
v -0.02061922 -0.02273705 0.02639626
v -0.00483789 -0.03544962 0.02792964
v -0.01296645 -0.02546999 0.01758653
v -0.01162868 -0.02547821 0.01756858
v -0.01162868 -0.02442740 0.01678740
v -0.01078987 -0.02361307 0.01642579
v -0.00916941 -0.02386806 0.01788603
v -0.00483789 -0.03475662 0.02584970
v -0.02061922 -0.02117420 0.02639212
v -0.02061768 -0.02020976 0.02650115
v -0.02061768 -0.01961135 0.02658948
v -0.01732269 -0.02117420 0.01900950
v -0.01695967 -0.02117420 0.01822831
v -0.01617956 -0.02117420 0.01749819
v -0.01522181 -0.02117420 0.01671839
v -0.01444170 -0.02117420 0.01612215
v -0.01434438 -0.02273705 0.01619116
v -0.01406632 -0.02364597 0.01639818
v -0.01318735 -0.02445208 0.01680810
v -0.01296645 -0.02460014 0.01691576
v -0.01007465 -0.03544962 0.02933743
v -0.01006847 -0.03522342 0.02936918
v -0.00489814 -0.01444160 0.02983292
v -0.00645989 -0.01444160 0.02991987
v -0.01296645 -0.01444160 0.02703942
v -0.02061768 -0.01858110 0.02682273
v -0.01474139 -0.01444366 0.02693867
v -0.01405860 -0.01723211 0.01946772
v -0.01445561 -0.01847623 0.01767900
v -0.01549523 -0.01887311 0.01806683
v -0.01587833 -0.01991364 0.01773421
v -0.00685381 -0.03544962 0.02878122
v -0.00483789 -0.01444160 0.02982740
v -0.01296645 -0.02445002 0.01680534
v -0.01318735 -0.02367271 0.01639128
v -0.01296645 -0.02367065 0.01639404
v -0.01162868 -0.02364803 0.01641199
v -0.01318735 -0.02273705 0.01596895
v -0.01162868 -0.02273705 0.01605176
v -0.01059678 -0.02273705 0.01627535
v -0.00981667 -0.02273705 0.01697096
v -0.00907055 -0.02273705 0.01775077
v -0.00483789 -0.03422196 0.02570892
v -0.01606216 -0.02068067 0.01759067
v -0.01547979 -0.02068067 0.01711588
v -0.01419763 -0.02013984 0.01630571
v -0.01318735 -0.02117420 0.01584197
v -0.01432430 -0.02068067 0.01620910
v -0.01367086 -0.02068067 0.01606280
v -0.00850671 -0.03544962 0.02920908
v -0.00850671 -0.03522342 0.02923392
v -0.01329240 -0.01444366 0.02693453
v -0.00483789 -0.01444160 0.02803868
v -0.01374347 -0.01723211 0.01946772
v -0.01318735 -0.01836723 0.01756306
v -0.01318735 -0.01929261 0.01678464
v -0.00745472 -0.03544962 0.02903241
v -0.01150510 -0.02103437 0.01610835
v -0.01057206 -0.02146004 0.01624636
v -0.00911689 -0.02155463 0.01779631
v -0.00483789 -0.01961135 0.02461720
v -0.00483789 -0.02118448 0.02449436
v -0.00483789 -0.03264882 0.02540390
v -0.00483789 -0.03366262 0.02558195
v -0.01318735 -0.02007403 0.01626293
v -0.01318735 -0.02068067 0.01602968
v -0.01152982 -0.02101792 0.01610973
v -0.01194227 -0.02021798 0.01635402
v -0.00483789 -0.01824591 0.02526726
v -0.00934861 -0.02051204 0.01812480
v -0.01090110 -0.02041745 0.01647962
v -0.01047783 -0.01961135 0.01762103
v -0.01080996 -0.01879496 0.01799092
v -0.01162868 -0.01860578 0.01779631
v -0.01320898 -0.01759609 0.01888942
v -0.01150510 -0.01966276 0.01691576
v -0.01296645 -0.01934196 0.01680120
v -0.01296645 -0.01945712 0.01670735
v -0.01151128 -0.02101792 0.01611249
v -0.01148965 -0.02101792 0.01611663
v -0.01071109 -0.02101997 0.01634436
v -0.01070955 -0.02101792 0.01634574
v -0.00995879 -0.02098501 0.01713796
v -0.00923429 -0.02101792 0.01796608
v -0.01296645 -0.02009871 0.01627949
f 1 2 8
f 1 8 25
f 1 25 34
f 1 34 26
f 1 26 9
f 1 9 3
f 1 3 4
f 1 4 5
f 1 5 2
f 2 5 6
f 2 6 7
f 2 7 8
f 3 9 4
f 4 10 27
f 4 27 57
f 4 57 82
f 4 82 75
f 4 75 46
f 4 46 17
f 4 17 5
f 4 9 11
f 4 11 12
f 4 12 13
f 4 13 14
f 4 14 15
f 4 15 16
f 4 16 10
f 5 17 6
f 6 17 18
f 6 18 19
f 6 19 20
f 6 20 21
f 6 21 7
f 7 21 22
f 7 22 23
f 7 23 50
f 7 50 24
f 7 24 25
f 7 25 8
f 9 26 11
f 10 16 28
f 10 28 29
f 10 29 30
f 10 30 31
f 10 31 32
f 10 32 33
f 10 33 68
f 10 68 89
f 10 89 88
f 10 88 87
f 10 87 86
f 10 86 94
f 10 94 78
f 10 78 58
f 10 58 27
f 11 26 34
f 11 34 25
f 11 25 35
f 11 35 36
f 11 36 37
f 11 37 38
f 11 38 12
f 12 38 39
f 12 39 40
f 12 40 41
f 12 41 42
f 12 42 13
f 13 42 43
f 13 43 14
f 14 43 15
f 15 43 44
f 15 44 16
f 16 44 45
f 16 45 28
f 17 46 47
f 17 47 48
f 17 48 49
f 17 49 18
f 18 49 19
f 19 49 48
f 19 48 58
f 19 58 78
f 19 78 50
f 19 50 23
f 19 23 22
f 19 22 21
f 19 21 20
f 24 51 25
f 24 50 52
f 24 52 53
f 24 53 54
f 24 54 55
f 24 55 56
f 24 56 38
f 24 38 37
f 24 37 51
f 25 51 36
f 25 36 35
f 27 58 57
f 28 45 29
f 29 45 30
f 30 59 60
f 30 60 61
f 30 61 62
f 30 62 31
f 30 45 59
f 31 62 63
f 31 63 64
f 31 64 65
f 31 65 32
f 32 65 66
f 32 66 67
f 32 67 68
f 32 68 33
f 36 51 37
f 38 56 69
f 38 69 39
f 39 69 70
f 39 70 40
f 40 70 71
f 40 71 41
f 41 72 42
f 41 71 73
f 41 73 74
f 41 74 72
f 42 63 43
f 42 72 63
f 43 63 60
f 43 60 44
f 44 60 59
f 44 59 45
f 46 75 47
f 47 75 76
f 47 76 48
f 48 76 58
f 50 77 52
f 50 78 77
f 52 77 53
f 53 79 80
f 53 80 54
f 53 77 79
f 54 81 71
f 54 71 55
f 54 80 81
f 55 71 56
f 56 71 70
f 56 70 69
f 57 58 82
f 58 76 82
f 60 63 61
f 61 63 62
f 63 72 64
f 64 72 83
f 64 83 84
f 64 84 65
f 65 84 66
f 66 84 67
f 67 84 85
f 67 85 86
f 67 86 87
f 67 87 88
f 67 88 89
f 67 89 68
f 71 90 91
f 71 91 74
f 71 74 73
f 71 81 90
f 72 92 83
f 72 74 91
f 72 91 93
f 72 93 92
f 75 82 76
f 77 78 79
f 78 94 95
f 78 95 96
f 78 96 97
f 78 97 98
f 78 98 99
f 78 99 100
f 78 100 79
f 79 100 80
f 80 100 99
f 80 99 101
f 80 101 102
f 80 102 81
f 81 102 103
f 81 103 90
f 83 92 104
f 83 104 105
f 83 105 84
f 84 105 106
f 84 106 107
f 84 107 108
f 84 108 85
f 85 108 109
f 85 109 94
f 85 94 86
f 90 110 93
f 90 93 91
f 90 103 110
f 92 93 104
f 93 110 103
f 93 103 101
f 93 101 96
f 93 96 105
f 93 105 104
f 94 109 95
f 95 109 108
f 95 108 96
f 96 101 99
f 96 99 98
f 96 98 97
f 96 108 107
f 96 107 106
f 96 106 105
f 101 103 102

