# https://github.com/mikedh/trimesh
v 0.05460911 -0.01394422 0.02885041
v 0.07112546 -0.01718153 0.02525125
v 0.07113290 -0.01718153 0.02423094
v 0.05460911 -0.01394422 0.02709538
v 0.05385059 -0.01394422 0.02917383
v 0.06966048 -0.01951763 0.02607995
v 0.06955637 -0.02117623 0.02641802
v 0.07051568 -0.01997143 0.02591397
v 0.07070158 -0.02117623 0.02601160
v 0.07113290 -0.02117623 0.02575897
v 0.07113290 -0.01805397 0.02525125
v 0.05330773 -0.01394422 0.02933127
v 0.07113290 -0.01806037 0.02341079
v 0.07112546 -0.01718153 0.02342422
v 0.02115995 -0.01394422 0.02564913
v 0.06800215 -0.02117623 0.02676097
v 0.06955637 -0.02273577 0.02651688
v 0.07082801 -0.02273577 0.02606775
v 0.05238560 -0.01394422 0.02957049
v 0.07113290 -0.02202950 0.02583464
v 0.07113290 -0.02742395 0.02385016
v 0.07067928 -0.04658574 0.01847278
v 0.06457395 -0.02586122 0.01927341
v 0.06425418 -0.02496002 0.01948699
v 0.06375594 -0.02496002 0.01948699
v -0.00225000 -0.01844066 0.02394780
v 0.02022295 -0.01394422 0.02571747
v 0.06755597 -0.03269376 0.02744687
v 0.07067928 -0.03365888 0.02665967
v 0.07067928 -0.03209935 0.02658400
v 0.07113290 -0.02273577 0.02588590
v 0.05238560 -0.01492852 0.02960954
v 0.05082395 -0.01394422 0.02980970
v 0.07113290 -0.02907616 0.02401126
v 0.07113290 -0.02918801 0.02402591
v 0.07113290 -0.03021705 0.02424559
v 0.07113290 -0.03041199 0.02430783
v 0.07067928 -0.04658574 0.02080509
v 0.04422038 -0.04659214 0.01889018
v 0.04355854 -0.04659214 0.01886089
v 0.04302311 -0.04659214 0.01884624
v 0.04203407 -0.04659214 0.01883526
v 0.04146146 -0.04659214 0.01883648
v 0.06018644 -0.04658574 0.01853258
v 0.03833815 -0.03990980 0.01883770
v 0.06326514 -0.02577813 0.01923924
v -0.00225000 -0.01961351 0.02378059
v -0.00333573 -0.01859406 0.02407472
v -0.00483045 -0.01394422 0.02808152
v -0.00479327 -0.01394422 0.02807663
v 0.03054475 -0.03701763 0.01920384
v 0.03054475 -0.03834387 0.01900368
v 0.06762289 -0.03365888 0.02746152
v 0.06742211 -0.03522161 0.02742857
v 0.06728082 -0.03605251 0.02740538
v 0.07067928 -0.03409670 0.02661818
v 0.07113290 -0.03041199 0.02610680
v 0.05082395 -0.01492852 0.02984265
v 0.06487141 -0.03522161 0.02793750
v 0.04926973 -0.01394422 0.02985485
v 0.02897566 -0.02273577 0.03092276
v 0.07067928 -0.04655059 0.02083561
v 0.07035207 -0.04658574 0.02086368
v 0.03500662 -0.04659214 0.02302634
v 0.04422038 -0.04659214 0.02125423
v 0.03989981 -0.04146933 0.01882062
v 0.02727271 -0.04659214 0.02004840
v -0.00483789 -0.04658894 0.02062569
v -0.00483045 -0.01961351 0.02462149
v -0.00483045 -0.01824891 0.02526956
v -0.00483789 -0.03041518 0.02554050
v -0.00483045 -0.01394422 0.02987926
v 0.06647768 -0.03633693 0.02749935
v 0.06643306 -0.03713268 0.02717105
v 0.06788317 -0.03665971 0.02690133
v 0.07067928 -0.03638487 0.02603235
v 0.07067928 -0.03531429 0.02639361
v 0.07067928 -0.04577083 0.02141411
v 0.07067928 -0.04598814 0.02126155
v 0.05082395 -0.01649125 0.02980360
v 0.06331719 -0.03522161 0.02814254
v 0.03052244 -0.02429530 0.03090324
v 0.03052244 -0.02431128 0.03090324
v 0.06331719 -0.03633693 0.02797290
v 0.06375594 -0.03633693 0.02791309
v 0.06489372 -0.03633693 0.02775443
v 0.01548593 -0.01394422 0.03046387
v 0.01570159 -0.01414236 0.03051147
v 0.02701987 -0.01531201 0.03055540
v 0.02741400 -0.01805078 0.03069576
v 0.01567928 -0.01414236 0.03051147
v 0.02897566 -0.02429530 0.03094107
v 0.05395470 -0.04209889 0.02726258
v 0.06969766 -0.04658574 0.02097230
v 0.03371268 -0.04659214 0.02318378
v 0.02040886 -0.04659214 0.02076726
v -0.00483789 -0.04658894 0.02354016
v -0.00483789 -0.03041518 0.02759943
v -0.00483789 -0.03528233 0.02793628
v -0.00483789 -0.03678754 0.02792774
v 0.00087331 -0.02898348 0.02970230
v 0.00399661 -0.03210255 0.02981702
v 0.00555827 -0.03366208 0.02985608
v 0.02741400 -0.02585803 0.03085686
v 0.02741400 -0.02429530 0.03088737
v 0.06490859 -0.03687382 0.02766290
v 0.06441778 -0.03773668 0.02745053
v 0.06490859 -0.03829594 0.02703558
v 0.05550891 -0.04106347 0.02757624
v 0.04459220 -0.03522161 0.02968643
v 0.04615386 -0.03678114 0.02948749
v 0.05178325 -0.03774946 0.02897124
v 0.02897566 -0.02585803 0.03088737
v 0.03052244 -0.02585803 0.03083367
v 0.06331719 -0.03678114 0.02790211
v 0.05238560 -0.04135109 0.02779227
v 0.05238560 -0.04213085 0.02728089
v 0.00087331 -0.04529146 0.02575287
v 0.05238560 -0.04658574 0.02210855
v 0.06800215 -0.04658574 0.02116513
v 0.06836654 -0.04658574 0.02112974
v 0.06955637 -0.04658574 0.02098938
v 0.05395470 -0.04131593 0.02773002
v 0.00087331 -0.04589546 0.02497543
v 0.00087331 -0.04658894 0.02400150
v 0.02429813 -0.04659214 0.02327288
v 0.02040886 -0.04659214 0.02330339
v -0.00397526 -0.04658894 0.02367197
v -0.00225000 -0.04584113 0.02484606
v -0.00483789 -0.04618308 0.02402224
v -0.00483789 -0.03967331 0.02747617
v 0.00555827 -0.03522481 0.02974135
v 0.00399661 -0.03366208 0.02969375
v 0.00711992 -0.03522481 0.02984997
v 0.02741400 -0.02742075 0.03076166
v 0.05395470 -0.03990660 0.02823407
v 0.04459220 -0.03678114 0.02961198
v 0.05083139 -0.03794760 0.02900175
v 0.02897566 -0.02742075 0.03078973
v 0.05238560 -0.03990660 0.02835124
v 0.05083139 -0.03990660 0.02841470
v 0.04459220 -0.03811377 0.02924096
v 0.00555827 -0.04232260 0.02742246
v 0.00399661 -0.04307999 0.02702947
v 0.00087331 -0.04451169 0.02626058
v -0.00068835 -0.04526909 0.02573700
v -0.00068835 -0.04588907 0.02495834
v -0.00068835 -0.04658894 0.02400272
v -0.00053218 -0.04658894 0.02400516
v 0.02056503 -0.04659214 0.02330461
v -0.00218308 -0.04658894 0.02388921
v -0.00225000 -0.04658894 0.02388311
v -0.00381166 -0.04575165 0.02469228
v -0.00483789 -0.04567176 0.02458366
v -0.00483789 -0.04041473 0.02724916
v -0.00417604 -0.04055214 0.02732239
v -0.00112710 -0.04207972 0.02731384
v -0.00007856 -0.04227786 0.02739928
v 0.00555827 -0.03678754 0.02942403
v 0.00711992 -0.03678754 0.02956560
v 0.05083139 -0.03873056 0.02878817
v 0.04615386 -0.03818728 0.02918848
v 0.04770808 -0.03818408 0.02912135
v 0.00711992 -0.03795719 0.02913234
v 0.00087331 -0.04305443 0.02704168
v -0.00068835 -0.04448932 0.02623739
v -0.00225000 -0.04435510 0.02616538
v -0.00225000 -0.04513487 0.02562472
v -0.00483789 -0.04536816 0.02485338
v -0.00483789 -0.04142459 0.02687081
v -0.00381166 -0.04302886 0.02651444
v -0.00372242 -0.04133191 0.02713199
v -0.00225000 -0.04302886 0.02678782
v -0.00063629 -0.04289144 0.02704778
v -0.00381166 -0.04408985 0.02600184
v -0.00381166 -0.04487282 0.02546850
v -0.00483789 -0.04435510 0.02553074
v -0.00483789 -0.04304804 0.02623861
v -0.00483789 -0.04371915 0.02590908
v -0.00472634 -0.04387254 0.02586271
v -0.00483789 -0.04398759 0.02575897
f 1 2 3
f 1 3 4
f 1 4 15
f 1 15 27
f 1 27 50
f 1 50 49
f 1 49 72
f 1 72 87
f 1 87 60
f 1 60 33
f 1 33 19
f 1 19 12
f 1 12 5
f 1 5 2
f 2 6 7
f 2 7 8
f 2 8 9
f 2 9 10
f 2 10 11
f 2 11 3
f 2 5 12
f 2 12 6
f 3 11 10
f 3 10 20
f 3 20 31
f 3 31 57
f 3 57 37
f 3 37 36
f 3 36 35
f 3 35 34
f 3 34 21
f 3 21 13
f 3 13 14
f 3 14 4
f 4 14 15
f 6 12 7
f 7 16 17
f 7 17 18
f 7 18 9
f 7 9 8
f 7 12 19
f 7 19 16
f 9 18 20
f 9 20 10
f 13 21 22
f 13 22 14
f 14 22 23
f 14 23 24
f 14 24 25
f 14 25 15
f 15 26 27
f 15 25 26
f 16 28 17
f 16 19 28
f 17 29 30
f 17 30 18
f 17 28 29
f 18 31 20
f 18 30 29
f 18 29 31
f 19 32 28
f 19 33 32
f 21 34 22
f 22 34 35
f 22 35 36
f 22 36 37
f 22 37 57
f 22 57 38
f 22 38 65
f 22 65 39
f 22 39 40
f 22 40 41
f 22 41 42
f 22 42 43
f 22 43 44
f 22 44 45
f 22 45 46
f 22 46 23
f 23 46 24
f 24 46 25
f 25 46 26
f 26 47 48
f 26 48 49
f 26 49 50
f 26 50 27
f 26 46 51
f 26 51 52
f 26 52 47
f 28 53 29
f 28 32 53
f 29 53 54
f 29 54 55
f 29 55 56
f 29 56 57
f 29 57 31
f 32 33 58
f 32 58 59
f 32 59 53
f 33 60 61
f 33 61 58
f 38 62 63
f 38 63 64
f 38 64 65
f 38 57 62
f 39 65 64
f 39 64 95
f 39 95 126
f 39 126 150
f 39 150 127
f 39 127 96
f 39 96 67
f 39 67 43
f 39 43 42
f 39 42 41
f 39 41 40
f 43 52 45
f 43 45 66
f 43 66 44
f 43 67 68
f 43 68 52
f 44 66 45
f 45 52 46
f 46 52 51
f 47 68 48
f 47 52 68
f 48 68 69
f 48 69 70
f 48 70 49
f 49 70 71
f 49 71 98
f 49 98 72
f 53 59 54
f 54 59 55
f 55 73 74
f 55 74 75
f 55 75 76
f 55 76 77
f 55 77 56
f 55 59 73
f 56 77 57
f 57 77 76
f 57 76 78
f 57 78 79
f 57 79 62
f 58 80 81
f 58 81 59
f 58 61 82
f 58 82 83
f 58 83 80
f 59 81 84
f 59 84 85
f 59 85 86
f 59 86 73
f 60 87 88
f 60 88 89
f 60 89 61
f 61 89 90
f 61 90 88
f 61 88 91
f 61 91 92
f 61 92 82
f 62 79 93
f 62 93 63
f 63 94 64
f 63 93 94
f 64 94 95
f 67 96 68
f 68 96 127
f 68 127 97
f 68 97 130
f 68 130 154
f 68 154 169
f 68 169 177
f 68 177 181
f 68 181 179
f 68 179 178
f 68 178 170
f 68 170 155
f 68 155 131
f 68 131 100
f 68 100 99
f 68 99 98
f 68 98 71
f 68 71 69
f 69 71 70
f 72 98 99
f 72 99 100
f 72 100 101
f 72 101 102
f 72 102 103
f 72 103 104
f 72 104 105
f 72 105 92
f 72 92 91
f 72 91 87
f 73 86 106
f 73 106 107
f 73 107 74
f 74 107 108
f 74 108 78
f 74 78 75
f 75 78 76
f 78 108 109
f 78 109 93
f 78 93 79
f 80 110 81
f 80 83 110
f 81 110 111
f 81 111 112
f 81 112 84
f 82 92 83
f 83 92 113
f 83 113 114
f 83 114 110
f 84 115 85
f 84 112 115
f 85 115 86
f 86 115 106
f 87 91 88
f 88 90 89
f 92 105 104
f 92 104 113
f 93 116 117
f 93 117 118
f 93 118 95
f 93 95 119
f 93 119 120
f 93 120 121
f 93 121 122
f 93 122 94
f 93 109 123
f 93 123 116
f 94 122 95
f 95 122 121
f 95 121 120
f 95 120 119
f 95 118 124
f 95 124 125
f 95 125 126
f 97 128 129
f 97 129 130
f 97 127 128
f 100 131 132
f 100 132 133
f 100 133 101
f 101 133 102
f 102 133 132
f 102 132 103
f 103 132 134
f 103 134 104
f 104 134 135
f 104 135 113
f 106 115 136
f 106 136 107
f 107 136 123
f 107 123 109
f 107 109 108
f 110 137 111
f 110 114 137
f 111 137 112
f 112 137 138
f 112 138 136
f 112 136 115
f 113 135 139
f 113 139 114
f 114 139 137
f 116 123 140
f 116 140 141
f 116 141 142
f 116 142 143
f 116 143 144
f 116 144 145
f 116 145 118
f 116 118 117
f 118 145 146
f 118 146 147
f 118 147 124
f 123 136 140
f 124 147 148
f 124 148 149
f 124 149 125
f 125 149 150
f 125 150 126
f 127 150 149
f 127 149 148
f 127 148 151
f 127 151 152
f 127 152 128
f 128 152 129
f 129 153 130
f 129 152 147
f 129 147 146
f 129 146 153
f 130 153 154
f 131 155 156
f 131 156 157
f 131 157 158
f 131 158 159
f 131 159 132
f 132 159 160
f 132 160 134
f 134 139 135
f 134 160 137
f 134 137 139
f 136 138 161
f 136 161 140
f 137 142 162
f 137 162 163
f 137 163 138
f 137 160 142
f 138 163 161
f 140 161 163
f 140 163 162
f 140 162 141
f 141 162 142
f 142 160 164
f 142 164 143
f 143 164 158
f 143 158 165
f 143 165 144
f 144 165 145
f 145 165 166
f 145 166 146
f 146 166 167
f 146 167 168
f 146 168 153
f 147 151 148
f 147 152 151
f 153 168 154
f 154 168 169
f 155 170 171
f 155 171 172
f 155 172 156
f 156 172 157
f 157 173 158
f 157 172 173
f 158 173 174
f 158 174 166
f 158 166 165
f 158 164 160
f 158 160 159
f 166 174 167
f 167 174 173
f 167 173 171
f 167 171 175
f 167 175 176
f 167 176 168
f 168 176 169
f 169 176 175
f 169 175 177
f 170 178 171
f 171 178 175
f 171 173 172
f 175 178 179
f 175 179 180
f 175 180 181
f 175 181 177
f 179 181 180

