# https://github.com/mikedh/trimesh
v 0.06201576 0.00098339 0.02333220
v 0.07261869 0.00098339 0.02093844
v 0.06201576 0.00098339 0.02498973
v 0.06201576 0.02542222 0.02199389
v 0.07491508 0.00098339 0.02093844
v 0.06201576 0.02567133 0.02198661
v 0.06332717 0.02567133 0.02177188
v 0.06201576 0.03164373 0.02183688
v 0.07308221 0.01786518 0.02093844
v 0.06645025 0.00098339 0.02521070
v 0.06488871 0.00287415 0.02589857
v 0.06201576 0.00376851 0.02596304
v 0.07489388 0.00098339 0.02097431
v 0.07515814 0.00417968 0.02093844
v 0.07505922 0.00436575 0.02118020
v 0.06201576 0.03164373 0.02347829
v 0.07394989 0.03164373 0.02093844
v 0.07310058 0.01837539 0.02093844
v 0.06801603 0.00098339 0.02521798
v 0.06645025 0.00276611 0.02591729
v 0.06488871 0.00381353 0.02614606
v 0.06201576 0.00412866 0.02600100
v 0.07386369 0.00098339 0.02218367
v 0.07456179 0.00537416 0.02199857
v 0.07369693 0.00381353 0.02291365
v 0.07645118 0.02879558 0.02093844
v 0.07532772 0.02411070 0.02298176
v 0.06850216 0.03164373 0.02436998
v 0.06201576 0.00693779 0.02596980
v 0.07621518 0.03164373 0.02093844
v 0.06957192 0.00098339 0.02486807
v 0.06752849 0.00284114 0.02587726
v 0.06645025 0.00381353 0.02615334
v 0.06488871 0.00537416 0.02624953
v 0.06201576 0.00537416 0.02610342
v 0.07342985 0.00098339 0.02265888
v 0.07355703 0.00225290 0.02278211
v 0.07347931 0.00145158 0.02270880
v 0.07378031 0.00537416 0.02299580
v 0.07277697 0.00537416 0.02377621
v 0.07193331 0.00448280 0.02427951
v 0.07255086 0.00390357 0.02375438
v 0.07644129 0.02898466 0.02093844
v 0.07644553 0.02879558 0.02094883
v 0.07537435 0.02567133 0.02301400
v 0.07226823 0.01005904 0.02452907
v 0.07304829 0.01005904 0.02393584
v 0.06957192 0.03035621 0.02458575
v 0.06954083 0.03164373 0.02441781
v 0.06957192 0.02879558 0.02471937
v 0.07542523 0.03164373 0.02209684
v 0.07515531 0.03035621 0.02279771
v 0.07574601 0.03035621 0.02192422
v 0.07621801 0.03162272 0.02093844
v 0.07067560 0.00098339 0.02442561
v 0.06888372 0.00431773 0.02587206
v 0.06856999 0.00327631 0.02572751
v 0.06803441 0.00380453 0.02596720
v 0.06801179 0.00537416 0.02609251
v 0.06645025 0.00537416 0.02623445
v 0.07295361 0.00098339 0.02302544
v 0.07286741 0.00098339 0.02309043
v 0.07297622 0.00849842 0.02388696
v 0.07209865 0.00693779 0.02440065
v 0.07199549 0.00537416 0.02432370
v 0.07219475 0.00849842 0.02447344
v 0.07113346 0.00537416 0.02478956
v 0.07123945 0.00390357 0.02459875
v 0.07091018 0.00225290 0.02455819
v 0.07169166 0.00225290 0.02409389
v 0.07277697 0.00098339 0.02315490
v 0.07637487 0.03024817 0.02093844
v 0.07590853 0.02879558 0.02192422
v 0.07534750 0.02723496 0.02297292
v 0.07242085 0.02723496 0.02448592
v 0.07247879 0.02567133 0.02450256
v 0.07229508 0.01162267 0.02455143
v 0.06901372 0.00693779 0.02592301
v 0.06896426 0.00537416 0.02590897
v 0.07113346 0.03035621 0.02449112
v 0.07113346 0.02879558 0.02465646
v 0.07050602 0.03164373 0.02434658
v 0.07534609 0.03164373 0.02221174
v 0.07506346 0.03122056 0.02272492
v 0.07425654 0.03035621 0.02328280
v 0.07528109 0.02879558 0.02290533
v 0.07145707 0.00098339 0.02402578
v 0.06974433 0.00537416 0.02551278
v 0.06893600 0.00849842 0.02588297
v 0.06801179 0.00693779 0.02604052
v 0.07231769 0.02879558 0.02443965
v 0.07195592 0.03119955 0.02428315
v 0.07113346 0.03143665 0.02432786
v 0.07210996 0.03035621 0.02434866
v 0.07113346 0.03164373 0.02424831
v 0.07451657 0.03164373 0.02292301
v 0.07289143 0.03035621 0.02397067
v 0.07413219 0.03164373 0.02311642
v 0.07240530 0.03164373 0.02393687
f 1 2 5
f 1 5 13
f 1 13 23
f 1 23 36
f 1 36 61
f 1 61 62
f 1 62 71
f 1 71 87
f 1 87 55
f 1 55 31
f 1 31 19
f 1 19 10
f 1 10 3
f 1 3 12
f 1 12 22
f 1 22 35
f 1 35 29
f 1 29 16
f 1 16 8
f 1 8 6
f 1 6 4
f 1 4 2
f 2 4 6
f 2 6 7
f 2 7 8
f 2 8 9
f 2 9 18
f 2 18 17
f 2 17 30
f 2 30 54
f 2 54 72
f 2 72 43
f 2 43 26
f 2 26 14
f 2 14 5
f 3 10 11
f 3 11 12
f 5 14 15
f 5 15 13
f 6 8 7
f 8 16 28
f 8 28 49
f 8 49 82
f 8 82 95
f 8 95 99
f 8 99 98
f 8 98 96
f 8 96 83
f 8 83 51
f 8 51 30
f 8 30 17
f 8 17 18
f 8 18 9
f 10 19 20
f 10 20 11
f 11 20 21
f 11 21 12
f 12 21 22
f 13 15 24
f 13 24 25
f 13 25 23
f 14 26 27
f 14 27 15
f 15 27 24
f 16 29 28
f 19 31 32
f 19 32 20
f 20 32 33
f 20 33 21
f 21 33 34
f 21 34 35
f 21 35 22
f 23 25 37
f 23 37 38
f 23 38 36
f 24 39 25
f 24 27 39
f 25 39 40
f 25 40 41
f 25 41 42
f 25 42 37
f 26 43 44
f 26 44 45
f 26 45 27
f 27 45 46
f 27 46 47
f 27 47 39
f 28 48 49
f 28 29 48
f 29 35 50
f 29 50 48
f 30 51 52
f 30 52 53
f 30 53 54
f 31 55 56
f 31 56 57
f 31 57 32
f 32 57 58
f 32 58 33
f 33 58 59
f 33 59 60
f 33 60 34
f 34 60 50
f 34 50 35
f 36 38 61
f 37 62 38
f 37 42 62
f 38 62 61
f 39 47 63
f 39 63 40
f 40 64 65
f 40 65 41
f 40 63 66
f 40 66 64
f 41 65 67
f 41 67 68
f 41 68 69
f 41 69 70
f 41 70 71
f 41 71 42
f 42 71 62
f 43 72 44
f 44 72 73
f 44 73 45
f 45 73 74
f 45 74 75
f 45 75 76
f 45 76 77
f 45 77 46
f 46 66 63
f 46 63 47
f 46 77 78
f 46 78 79
f 46 79 66
f 48 80 49
f 48 50 81
f 48 81 80
f 49 80 82
f 50 60 81
f 51 83 84
f 51 84 52
f 52 84 85
f 52 85 86
f 52 86 53
f 53 86 73
f 53 73 72
f 53 72 54
f 55 87 69
f 55 69 56
f 56 68 67
f 56 67 88
f 56 88 79
f 56 79 59
f 56 59 58
f 56 58 57
f 56 69 68
f 59 79 78
f 59 78 89
f 59 89 90
f 59 90 60
f 60 90 81
f 64 67 65
f 64 66 67
f 66 79 88
f 66 88 67
f 69 87 70
f 70 87 71
f 73 86 74
f 74 86 91
f 74 91 75
f 75 91 81
f 75 81 89
f 75 89 78
f 75 78 76
f 76 78 77
f 80 92 93
f 80 93 82
f 80 81 92
f 81 91 94
f 81 94 92
f 81 90 89
f 82 93 95
f 83 96 84
f 84 97 85
f 84 96 98
f 84 98 97
f 85 97 91
f 85 91 86
f 91 97 94
f 92 94 97
f 92 97 98
f 92 98 99
f 92 99 95
f 92 95 93

