# https://github.com/mikedh/trimesh
v -0.00573258 0.00098319 0.02532999
v -0.00483724 -0.01394422 0.02808162
v -0.00573258 0.00098319 0.02765129
v -0.00573258 0.00738954 0.02120301
v -0.00480029 -0.01394422 0.02807783
v -0.00483724 -0.01394422 0.02987876
v -0.00573258 0.00779080 0.02100681
v -0.00483724 -0.00831733 0.02551292
v -0.00483724 -0.01336308 0.02993658
v -0.00573258 0.00183645 0.02757831
v -0.00323843 -0.01394422 0.02795082
v 0.00242492 -0.01394422 0.02989298
v -0.00573258 0.00845266 0.02078975
v -0.00483724 -0.00486970 0.02424753
v -0.00483724 -0.00758629 0.02520297
v 0.00461067 0.00134294 0.02107979
v -0.00225641 -0.01394422 0.02792428
v -0.00227630 0.00098319 0.02908540
v -0.00239284 0.00071107 0.02909488
v -0.00270123 0.00098319 0.02900483
v -0.00300394 0.00124839 0.02891574
v -0.00367757 0.00071107 0.02869773
v -0.00538581 0.00210626 0.02772144
v 0.00340694 -0.01394422 0.02989298
v 0.00398678 -0.01336308 0.02991004
v 0.00242492 -0.01180185 0.02989487
v 0.00242492 -0.01023831 0.02983516
v -0.00196365 0.00169808 0.02905981
v -0.00573258 0.00238760 0.02733945
v -0.00573258 0.00961493 0.02047695
v 0.00398678 0.00381278 0.02038501
v 0.00404931 0.00222618 0.02084093
v 0.00554864 0.00132680 0.02107695
v 0.00867236 -0.00203550 0.02247599
v 0.00867236 -0.01394422 0.02781053
v -0.00381827 0.00225154 0.02838399
v -0.00486993 0.00329852 0.02758305
v -0.00573258 0.00266434 0.02721812
v 0.00398678 -0.01394422 0.02986739
v 0.00878606 -0.01336308 0.02969203
v 0.00711050 -0.01180185 0.02979061
v 0.00554864 -0.01180185 0.02984843
v 0.00398678 -0.01180185 0.02988919
v 0.00398678 -0.01023831 0.02983137
v -0.00123317 0.00169808 0.02905981
v 0.00690017 0.00961493 0.02565605
v -0.00381827 0.00351529 0.02775651
v -0.00573258 0.00961493 0.02215940
v 0.00130930 0.00961493 0.02031297
v 0.00242634 0.00693293 0.02025421
v 0.00242634 0.00537170 0.02032530
v 0.00398678 0.00537170 0.02033762
v 0.00554864 0.00381278 0.02066842
v 0.00554864 0.00225154 0.02083240
v 0.00642550 0.00140751 0.02111960
v 0.00878606 -0.00087323 0.02200395
v 0.00867236 -0.00087323 0.02199732
v 0.00878606 -0.00203320 0.02247788
v 0.00878606 -0.01394422 0.02781527
v -0.00573258 0.00415869 0.02619064
v -0.00573258 0.00374820 0.02647879
v 0.00496880 -0.01394422 0.02981999
v 0.00878606 -0.01394422 0.02953374
v 0.00878606 -0.01180185 0.02971099
v 0.00878606 -0.01023831 0.02944843
v 0.00878606 0.00098319 0.02357740
v 0.00690017 0.00961493 0.02327219
v 0.00878606 -0.00905759 0.02910246
v 0.00878606 -0.00582213 0.02766456
v 0.00878606 -0.00576447 0.02763423
v 0.00878606 -0.00504036 0.02722381
v 0.00242634 0.00961493 0.02037838
v 0.00242634 0.00849417 0.02031108
v 0.00398678 0.00693293 0.02044947
v 0.00562254 0.00524256 0.02081629
v 0.00878606 0.00068801 0.02171580
v 0.00878606 0.00057501 0.02173666
v 0.00878606 -0.00095625 0.02203523
v 0.00878606 0.00098319 0.02174898
v 0.00566944 0.00961493 0.02207220
v 0.00295075 0.00961493 0.02051487
v 0.00518766 0.00693293 0.02085989
v 0.00392140 0.00961493 0.02082008
v 0.00494464 0.00818745 0.02100207
v 0.00467889 0.00961493 0.02121344
v 0.00431649 0.00961493 0.02102103
f 1 2 6
f 1 6 3
f 1 3 10
f 1 10 29
f 1 29 38
f 1 38 61
f 1 61 60
f 1 60 48
f 1 48 30
f 1 30 13
f 1 13 7
f 1 7 4
f 1 4 2
f 2 5 11
f 2 11 17
f 2 17 35
f 2 35 59
f 2 59 63
f 2 63 62
f 2 62 39
f 2 39 24
f 2 24 12
f 2 12 6
f 2 4 7
f 2 7 8
f 2 8 5
f 3 6 9
f 3 9 10
f 5 8 11
f 6 12 9
f 7 13 14
f 7 14 15
f 7 15 8
f 8 15 16
f 8 16 17
f 8 17 11
f 9 18 19
f 9 19 20
f 9 20 21
f 9 21 22
f 9 22 23
f 9 23 10
f 9 12 24
f 9 24 25
f 9 25 26
f 9 26 27
f 9 27 28
f 9 28 18
f 10 23 29
f 13 30 31
f 13 31 14
f 14 31 32
f 14 32 16
f 14 16 15
f 16 32 31
f 16 31 33
f 16 33 34
f 16 34 17
f 17 34 35
f 18 20 19
f 18 28 20
f 20 28 21
f 21 28 36
f 21 36 23
f 21 23 22
f 23 36 37
f 23 37 38
f 23 38 29
f 24 39 25
f 25 40 41
f 25 41 42
f 25 42 43
f 25 43 26
f 25 39 40
f 26 43 44
f 26 44 27
f 27 44 45
f 27 45 28
f 28 45 46
f 28 46 47
f 28 47 36
f 30 48 46
f 30 46 67
f 30 67 80
f 30 80 85
f 30 85 86
f 30 86 83
f 30 83 81
f 30 81 72
f 30 72 49
f 30 49 50
f 30 50 51
f 30 51 31
f 31 51 50
f 31 50 52
f 31 52 53
f 31 53 54
f 31 54 33
f 33 54 55
f 33 55 56
f 33 56 57
f 33 57 34
f 34 57 58
f 34 58 35
f 35 58 59
f 36 47 37
f 37 47 48
f 37 48 60
f 37 60 61
f 37 61 38
f 39 62 40
f 40 62 63
f 40 63 59
f 40 59 58
f 40 58 78
f 40 78 56
f 40 56 77
f 40 77 76
f 40 76 79
f 40 79 66
f 40 66 71
f 40 71 70
f 40 70 69
f 40 69 68
f 40 68 65
f 40 65 64
f 40 64 41
f 41 64 44
f 41 44 42
f 42 44 43
f 44 64 45
f 45 64 65
f 45 65 46
f 46 66 79
f 46 79 67
f 46 48 47
f 46 65 68
f 46 68 69
f 46 69 70
f 46 70 71
f 46 71 66
f 49 72 73
f 49 73 50
f 50 73 52
f 52 73 72
f 52 72 74
f 52 74 53
f 53 74 75
f 53 75 76
f 53 76 54
f 54 76 55
f 55 76 77
f 55 77 56
f 56 78 57
f 57 78 58
f 67 79 80
f 72 81 74
f 74 82 75
f 74 81 83
f 74 83 82
f 75 82 79
f 75 79 76
f 79 82 84
f 79 84 85
f 79 85 80
f 82 83 84
f 83 86 84
f 84 86 85

