# https://github.com/mikedh/trimesh
v 0.03418756 0.00097473 -0.02625363
v 0.03418756 0.00097473 -0.02794752
v 0.02428597 0.00097473 -0.02529026
v 0.06567541 0.00097005 -0.02515453
v 0.06895269 0.00097005 -0.02555514
v 0.03363968 0.00097473 -0.02804273
v 0.06895269 0.00097005 -0.02732916
v 0.02272204 0.00097473 -0.02516584
v 0.04145935 -0.02428612 -0.01984754
v 0.07194110 -0.04425132 -0.02145189
v 0.01834900 0.00097473 -0.02496883
v 0.01678507 0.00097473 -0.02490379
v -0.02982412 0.00097473 -0.02307226
v 0.07194110 -0.03044799 -0.02550235
v 0.03335081 0.00097473 -0.02807289
v 0.07194110 -0.03044799 -0.02767699
v 0.06895269 -0.02273161 -0.02909376
v 0.05395089 -0.01054366 -0.02887978
v 0.03207575 0.00097473 -0.02813605
v 0.07194110 -0.04685466 -0.02145189
v -0.02879810 -0.03973293 -0.02000591
v -0.02982412 0.00097473 -0.02493112
v -0.02982412 -0.03973293 -0.02043197
v 0.07194110 -0.03313093 -0.02739514
v 0.07111431 -0.03044799 -0.02810494
v 0.06895269 -0.02428144 -0.02912581
v 0.05082303 -0.02117241 -0.02947458
v 0.05082303 -0.01960853 -0.02939634
v 0.05237700 -0.01046406 -0.02890240
v 0.03178687 0.00097473 -0.02813605
v 0.00088674 -0.04450885 -0.02314108
v 0.07111431 -0.04572155 -0.02297046
v 0.07194110 -0.04605868 -0.02247370
v -0.01153507 -0.04416236 -0.02314108
v -0.02982412 -0.00134768 -0.02565977
v -0.02909694 0.00097473 -0.02511682
v -0.02970458 -0.00146005 -0.02575121
v -0.02982412 -0.03973293 -0.02290542
v 0.07194110 -0.03834230 -0.02676830
v 0.07099477 -0.03044799 -0.02814830
v 0.07057639 -0.03834230 -0.02734613
v 0.06895269 -0.02524130 -0.02908810
v 0.05082303 -0.02896839 -0.02934355
v 0.05082303 -0.02740919 -0.02937843
v 0.05082303 -0.02273161 -0.02947741
v 0.03207575 -0.01961322 -0.02917482
v 0.04925909 -0.01960853 -0.02939728
v 0.02819082 -0.01247743 -0.02882511
v 0.03052178 0.00097473 -0.02811720
v 0.00088674 -0.04373627 -0.02407333
v 0.06956034 -0.04417640 -0.02458235
v 0.07111431 -0.04496302 -0.02375001
v 0.07194110 -0.04528610 -0.02323628
v 0.07111431 -0.04418108 -0.02454370
v -0.02053017 -0.03973293 -0.02581813
v -0.01943443 -0.03973293 -0.02605850
v -0.01153507 -0.04264062 -0.02447866
v -0.00067719 -0.04207406 -0.02553723
v -0.02982412 -0.00190955 -0.02578137
v -0.02879810 0.00097473 -0.02518563
v -0.02879810 -0.00114166 -0.02582662
v -0.02879810 -0.00243865 -0.02602834
v -0.02982412 -0.00712092 -0.02653830
v -0.02982412 -0.02015167 -0.02623006
v -0.02195465 -0.03779447 -0.02576912
v 0.07194110 -0.03900718 -0.02667875
v 0.06895269 -0.02972692 -0.02883453
v 0.06895269 -0.02740919 -0.02897593
v 0.06895269 -0.02584532 -0.02906359
v 0.07038713 -0.03923193 -0.02728203
v 0.07194110 -0.03993427 -0.02654113
v 0.04924913 -0.03366002 -0.02919179
v 0.04924913 -0.03210083 -0.02925023
v 0.04924913 -0.03053695 -0.02928417
v 0.04614119 -0.03366002 -0.02914749
v 0.04614119 -0.03521922 -0.02909376
v 0.01336832 -0.02897307 -0.02817187
v -0.01905590 -0.02066204 -0.02733010
v -0.01915551 -0.01961322 -0.02733953
v -0.00848690 -0.00556172 -0.02750920
v -0.00848690 -0.00400253 -0.02746113
v -0.00974202 -0.00296306 -0.02731219
v -0.01347753 0.00097473 -0.02633092
v 0.02312049 -0.04234095 -0.02582567
v 0.06956034 -0.04340383 -0.02536002
v 0.07194110 -0.04402657 -0.02435141
v 0.07125377 -0.04308075 -0.02538641
v 0.07194110 -0.04374564 -0.02458329
v 0.07083539 -0.04259848 -0.02592465
v -0.02101828 -0.03833293 -0.02594444
v -0.01943443 -0.03834230 -0.02631113
v -0.01803984 -0.03973293 -0.02622535
v -0.01787049 -0.03973293 -0.02624137
v -0.00067719 -0.04129212 -0.02615654
v -0.02764259 0.00097473 -0.02532608
v -0.02779200 -0.00012560 -0.02566166
v -0.02725409 -0.00073898 -0.02585301
v -0.02723417 -0.00243865 -0.02613768
v -0.02982412 -0.00868480 -0.02662408
v -0.01018032 -0.00389483 -0.02736592
v -0.02982412 -0.01961322 -0.02631772
v 0.06799640 -0.03521922 -0.02815396
v 0.06890289 -0.02979247 -0.02883076
v 0.04924913 -0.03521922 -0.02911167
v 0.07099477 -0.03981253 -0.02694363
v 0.07125377 -0.04161052 -0.02624797
v 0.06956034 -0.04146537 -0.02649211
v 0.05081306 -0.03990149 -0.02780707
v 0.04924913 -0.03834230 -0.02839904
v 0.04924913 -0.03661922 -0.02894199
v 0.06799640 -0.03678310 -0.02792207
v 0.07194110 -0.04072089 -0.02632621
v 0.04768520 -0.03521922 -0.02912769
v 0.04768520 -0.03366002 -0.02917576
v 0.04738636 -0.03632892 -0.02897781
v 0.04614119 -0.03644129 -0.02893257
v 0.00088674 -0.03779447 -0.02730371
v -0.01787049 -0.03834230 -0.02645912
v -0.01943443 -0.03678310 -0.02643178
v -0.02982412 -0.01859248 -0.02644969
v -0.02982412 -0.01805402 -0.02646477
v -0.02982412 -0.01024399 -0.02662785
v -0.01474263 0.00097473 -0.02624891
v 0.00088674 -0.04131085 -0.02617162
v 0.05081306 -0.04080048 -0.02735556
v 0.06956034 -0.04262657 -0.02594727
v 0.07188133 -0.04222858 -0.02568145
v 0.07194110 -0.04228476 -0.02560793
v 0.07194110 -0.04136704 -0.02610846
v -0.01647590 -0.03973293 -0.02631113
v 0.00088674 -0.03990149 -0.02672023
v 0.02274196 -0.04028076 -0.02710670
v 0.04924913 -0.03990149 -0.02782781
v 0.04924913 -0.04077708 -0.02734142
v -0.01630656 -0.03973293 -0.02631867
v -0.01474263 -0.03973293 -0.02636297
v -0.01504147 0.00097473 -0.02622912
v 0.04768520 -0.03658644 -0.02895048
v -0.01630656 -0.03834230 -0.02652604
v 0.07194110 -0.04219112 -0.02566825
f 1 2 6
f 1 6 15
f 1 15 19
f 1 19 30
f 1 30 49
f 1 49 83
f 1 83 123
f 1 123 137
f 1 137 95
f 1 95 60
f 1 60 36
f 1 36 22
f 1 22 13
f 1 13 12
f 1 12 11
f 1 11 8
f 1 8 3
f 1 3 4
f 1 4 5
f 1 5 7
f 1 7 2
f 2 7 6
f 3 8 4
f 4 9 10
f 4 10 5
f 4 8 11
f 4 11 12
f 4 12 13
f 4 13 9
f 5 10 14
f 5 14 16
f 5 16 7
f 6 7 15
f 7 16 17
f 7 17 18
f 7 18 19
f 7 19 15
f 9 20 10
f 9 13 21
f 9 21 20
f 10 20 33
f 10 33 53
f 10 53 86
f 10 86 88
f 10 88 128
f 10 128 140
f 10 140 129
f 10 129 112
f 10 112 71
f 10 71 66
f 10 66 39
f 10 39 24
f 10 24 16
f 10 16 14
f 13 22 35
f 13 35 59
f 13 59 63
f 13 63 99
f 13 99 122
f 13 122 121
f 13 121 120
f 13 120 101
f 13 101 64
f 13 64 38
f 13 38 23
f 13 23 21
f 16 24 25
f 16 25 26
f 16 26 17
f 17 26 27
f 17 27 18
f 18 27 28
f 18 28 29
f 18 29 19
f 19 29 30
f 20 31 32
f 20 32 33
f 20 21 34
f 20 34 31
f 21 23 34
f 22 36 37
f 22 37 35
f 23 38 34
f 24 39 25
f 25 40 26
f 25 39 41
f 25 41 40
f 26 42 43
f 26 43 44
f 26 44 45
f 26 45 27
f 26 40 42
f 27 45 46
f 27 46 47
f 27 47 28
f 28 47 29
f 29 47 30
f 30 47 48
f 30 48 49
f 31 50 32
f 31 34 50
f 32 51 52
f 32 52 33
f 32 50 51
f 33 52 54
f 33 54 53
f 34 38 55
f 34 55 56
f 34 56 57
f 34 57 58
f 34 58 50
f 35 37 59
f 36 60 37
f 37 60 61
f 37 61 62
f 37 62 63
f 37 63 59
f 38 64 65
f 38 65 55
f 39 66 41
f 40 41 67
f 40 67 68
f 40 68 69
f 40 69 42
f 41 70 67
f 41 66 71
f 41 71 70
f 42 69 72
f 42 72 43
f 43 72 73
f 43 73 44
f 44 73 74
f 44 74 45
f 45 74 46
f 46 74 73
f 46 73 75
f 46 75 76
f 46 76 77
f 46 77 78
f 46 78 79
f 46 79 80
f 46 80 81
f 46 81 48
f 46 48 47
f 48 81 49
f 49 81 82
f 49 82 83
f 50 58 84
f 50 84 51
f 51 85 54
f 51 54 52
f 51 84 85
f 53 54 86
f 54 87 88
f 54 88 86
f 54 85 89
f 54 89 87
f 55 90 91
f 55 91 56
f 55 65 90
f 56 91 92
f 56 92 57
f 57 92 93
f 57 93 94
f 57 94 58
f 58 94 84
f 60 95 96
f 60 96 61
f 61 96 97
f 61 97 82
f 61 82 98
f 61 98 62
f 62 98 63
f 63 98 82
f 63 82 100
f 63 100 81
f 63 81 99
f 64 101 65
f 65 101 90
f 67 70 102
f 67 102 103
f 67 103 104
f 67 104 68
f 68 104 69
f 69 104 72
f 70 71 105
f 70 105 106
f 70 106 89
f 70 89 107
f 70 107 108
f 70 108 109
f 70 109 110
f 70 110 111
f 70 111 102
f 71 112 105
f 72 104 113
f 72 113 73
f 73 113 114
f 73 114 75
f 75 114 113
f 75 113 76
f 76 113 115
f 76 115 116
f 76 116 117
f 76 117 77
f 77 117 78
f 78 118 119
f 78 119 120
f 78 120 121
f 78 121 122
f 78 122 79
f 78 117 118
f 79 122 99
f 79 99 80
f 80 99 81
f 81 100 82
f 82 97 83
f 83 97 123
f 84 94 124
f 84 124 125
f 84 125 85
f 85 126 89
f 85 125 126
f 87 127 88
f 87 89 127
f 88 127 128
f 89 126 108
f 89 108 107
f 89 106 129
f 89 129 127
f 90 101 120
f 90 120 91
f 91 120 119
f 91 119 118
f 91 118 93
f 91 93 92
f 93 118 130
f 93 130 94
f 94 131 132
f 94 132 133
f 94 133 134
f 94 134 125
f 94 125 124
f 94 130 135
f 94 135 136
f 94 136 131
f 95 137 96
f 96 137 97
f 97 137 123
f 102 111 110
f 102 110 103
f 103 110 104
f 104 110 113
f 105 112 129
f 105 129 106
f 108 125 133
f 108 133 109
f 108 126 125
f 109 138 110
f 109 133 132
f 109 132 131
f 109 131 138
f 110 138 113
f 113 138 115
f 115 138 116
f 116 138 117
f 117 138 135
f 117 135 139
f 117 139 118
f 118 139 135
f 118 135 130
f 125 134 133
f 127 129 140
f 127 140 128
f 131 136 138
f 135 138 136

