# https://github.com/mikedh/trimesh
v -0.02411897 -0.04228686 0.02185352
v -0.02553332 -0.04228686 0.02231963
v -0.03036358 -0.03545103 0.02685270
v -0.02880180 -0.03545103 0.02664440
v -0.02724002 -0.03545103 0.02653200
v -0.00483789 -0.03545103 0.02609889
v -0.00855117 -0.04228686 0.02382018
v -0.02642290 -0.04228686 0.02268907
v -0.03036608 -0.04228686 0.02457084
v -0.03036608 -0.03678808 0.02688886
v -0.03036608 -0.03545103 0.02817796
v -0.00483789 -0.03545103 0.02793193
v -0.00483789 -0.04228686 0.02464866
v -0.00619976 -0.04228686 0.02429887
v -0.00713183 -0.04228686 0.02406149
v -0.03036608 -0.04228686 0.02660824
v -0.03036608 -0.03545103 0.02838940
v -0.00685196 -0.03545103 0.02878478
v -0.00483789 -0.03678808 0.02793036
v -0.00483789 -0.04228686 0.02652335
v -0.01787186 -0.04129177 0.02801210
v -0.01787186 -0.04049074 0.02879342
v -0.01787186 -0.03970979 0.02926269
v -0.03036608 -0.04083069 0.02746738
v -0.01631258 -0.04228686 0.02702641
v -0.01631258 -0.04210551 0.02723550
v -0.03036608 -0.03678875 0.02835875
v -0.02255719 -0.03545103 0.02969108
v -0.00745168 -0.03545103 0.02903395
v -0.00483789 -0.03967566 0.02747760
v -0.00750166 -0.03619116 0.02901351
v -0.00483789 -0.04142761 0.02687235
v -0.01631258 -0.03966562 0.02922417
v -0.01631258 -0.04044657 0.02878949
v -0.01631258 -0.04132456 0.02800896
v -0.01787186 -0.03834931 0.02968400
v -0.01943364 -0.03834931 0.02955430
v -0.03036608 -0.03991055 0.02789734
v -0.03036608 -0.03834998 0.02830844
v -0.02099541 -0.03678808 0.02971780
v -0.02099541 -0.03545103 0.02987894
v -0.00850619 -0.03545103 0.02921159
v -0.00483789 -0.04041847 0.02725201
v -0.00850619 -0.03646954 0.02909998
v -0.01631258 -0.03834931 0.02959675
v -0.01475080 -0.03939460 0.02908347
v -0.01787186 -0.03678808 0.02982470
v -0.01943364 -0.03678808 0.02983413
v -0.01943364 -0.03545103 0.02988365
v -0.01007047 -0.03545103 0.02934050
f 1 2 3
f 1 3 4
f 1 4 5
f 1 5 6
f 1 6 7
f 1 7 15
f 1 15 14
f 1 14 13
f 1 13 20
f 1 20 25
f 1 25 16
f 1 16 9
f 1 9 8
f 1 8 2
f 2 8 3
f 3 9 10
f 3 10 11
f 3 11 17
f 3 17 28
f 3 28 41
f 3 41 49
f 3 49 50
f 3 50 42
f 3 42 29
f 3 29 18
f 3 18 12
f 3 12 6
f 3 6 5
f 3 5 4
f 3 8 9
f 6 12 19
f 6 19 30
f 6 30 43
f 6 43 32
f 6 32 20
f 6 20 13
f 6 13 14
f 6 14 15
f 6 15 7
f 9 16 24
f 9 24 38
f 9 38 39
f 9 39 27
f 9 27 17
f 9 17 11
f 9 11 10
f 12 18 19
f 16 21 22
f 16 22 23
f 16 23 24
f 16 25 26
f 16 26 21
f 17 27 28
f 18 29 19
f 19 29 31
f 19 31 30
f 20 32 33
f 20 33 34
f 20 34 35
f 20 35 26
f 20 26 25
f 21 26 35
f 21 35 22
f 22 35 34
f 22 34 23
f 23 34 33
f 23 33 36
f 23 36 37
f 23 37 38
f 23 38 24
f 27 39 28
f 28 39 40
f 28 40 41
f 29 42 31
f 30 31 43
f 31 42 44
f 31 44 43
f 32 43 33
f 33 45 36
f 33 43 46
f 33 46 44
f 33 44 45
f 36 47 48
f 36 48 40
f 36 40 37
f 36 45 47
f 37 40 39
f 37 39 38
f 40 48 41
f 41 48 49
f 42 50 45
f 42 45 44
f 43 44 46
f 45 50 47
f 47 49 48
f 47 50 49

