# https://github.com/mikedh/trimesh
v 0.07113893 -0.03041906 0.02610893
v 0.07120013 -0.03041906 0.02609417
v 0.07113893 -0.01023282 0.02607204
v 0.07067558 0.03163618 0.02431863
v 0.07113893 -0.03041906 0.02430387
v 0.07273165 -0.03041906 0.02551626
v 0.07426952 -0.03041906 0.02486703
v 0.07520894 -0.03041906 0.02436535
v 0.07451988 0.03163618 0.02292180
v 0.07413362 0.03163618 0.02311362
v 0.07240738 0.03163618 0.02393499
v 0.07113575 0.03163618 0.02424485
v 0.07067558 0.03163618 0.02246439
v 0.07269667 0.04485266 0.02160612
v 0.07113575 0.04485266 0.02176351
v 0.07067558 0.04485266 0.02177335
v 0.07613088 -0.03041906 0.01085694
v 0.07067558 0.03826965 0.02039128
v 0.07113893 -0.03020046 0.02423993
v 0.07307419 -0.01023282 0.01114467
v 0.07525424 -0.03041906 0.02432600
v 0.07534644 0.03163618 0.02220863
v 0.07687558 0.04485266 0.01982812
v 0.07613088 0.04485266 0.02025848
v 0.07581774 0.04485266 0.02043800
v 0.07477738 0.04485266 0.02096919
v 0.07399931 0.04485266 0.02130856
v 0.07549586 0.05335258 0.01849769
v 0.07541956 0.05340302 0.01849769
v 0.07397387 0.05431943 0.01849769
v 0.07346681 0.05456325 0.01849769
v 0.07267443 0.05475662 0.01849769
v 0.07111270 0.05491636 0.01849769
v 0.07111270 0.05527788 0.01723612
v 0.07111270 0.05541240 0.01569912
v 0.07111270 0.05543762 0.01413506
v 0.07067558 0.04485266 0.02023143
v 0.07476228 0.03592397 0.00098570
v 0.07484494 0.03558768 0.00098570
v 0.07712116 -0.03041906 0.01085694
v 0.07111270 0.05315080 0.00098816
v 0.07067558 0.03881613 0.02024864
v 0.07597907 -0.03041906 0.02365956
v 0.07605299 -0.03041906 0.02359070
v 0.07669675 -0.03041906 0.02286770
v 0.07762266 0.04597085 0.01849769
v 0.07756782 0.04752622 0.01849769
v 0.07748278 0.04909842 0.01849769
v 0.07743827 0.04939268 0.01849769
v 0.07720302 0.05070424 0.01849769
v 0.07686842 0.05183083 0.01849769
v 0.07673649 -0.03041906 0.02280130
v 0.07684617 0.05188968 0.01849769
v 0.07625883 0.05264635 0.01849769
v 0.07551414 0.05336939 0.01846326
v 0.07372829 0.05464732 0.01823947
v 0.07269747 0.05510132 0.01723612
v 0.07113575 0.05527788 0.01723612
v 0.07113575 0.05541240 0.01567207
v 0.07269747 0.05530310 0.01567207
v 0.07269747 0.05547125 0.00943553
v 0.07111270 0.05541240 0.00943553
v 0.07067558 0.04330570 0.02015519
v 0.07111270 0.05475662 0.00098816
v 0.07463512 0.03660498 0.00098570
v 0.07522086 0.03558768 0.00098570
v 0.07747642 -0.03041906 0.01255871
v 0.07565560 0.03718509 0.00098570
v 0.07662601 0.04191006 0.00098570
v 0.07676669 0.04285170 0.00098570
v 0.07698446 0.04434822 0.00098570
v 0.07705440 0.04485266 0.00098570
v 0.07729283 0.04660141 0.00098816
v 0.07746291 0.04816519 0.00098816
v 0.07752093 0.04909001 0.00098816
v 0.07446186 0.03972413 0.00098570
v 0.07448570 0.03813513 0.00098570
v 0.07067558 0.03965687 0.02012077
v 0.07067558 0.04021176 0.02003961
v 0.07798984 0.04597085 0.01748204
v 0.07721256 -0.03041906 0.02192090
v 0.07797633 0.04752622 0.01733941
v 0.07797871 0.04914045 0.01709594
v 0.07814641 0.04968694 0.01642950
v 0.07769339 0.05065379 0.01723612
v 0.07685650 0.05190650 0.01846818
v 0.07655608 0.05294902 0.01789765
v 0.07479407 0.05441191 0.01723612
v 0.07401520 0.05477343 0.01723612
v 0.07269747 0.05543762 0.01099466
v 0.07269747 0.05537036 0.01411047
v 0.07438238 0.05484069 0.01570649
v 0.07425840 0.05502565 0.01411047
v 0.07425840 0.05523584 0.01099466
v 0.07425840 0.05526106 0.00943553
v 0.07269747 0.05538717 0.00787393
v 0.07067558 0.04174192 0.02008634
v 0.07180733 0.05477343 0.00098816
v 0.07545930 0.04485266 0.00098570
v 0.07495462 0.04254062 0.00098570
v 0.07877428 0.03816035 0.01255625
v 0.07758292 -0.03041906 0.01867475
v 0.07753921 0.04972897 0.00098816
v 0.07269827 0.05474821 0.00098816
v 0.07365914 0.05461369 0.00098816
v 0.07406606 0.05447076 0.00098816
v 0.07581774 0.05380658 0.00098816
v 0.07679212 0.05324328 0.00098816
v 0.07704248 0.05266316 0.00098816
v 0.07722766 0.05220917 0.00098816
v 0.07742953 0.05129276 0.00098816
v 0.07752490 0.05065379 0.00098816
v 0.07826722 0.04128792 0.01668526
v 0.07848578 0.04128792 0.01586634
v 0.07819251 0.04597085 0.01670247
v 0.07724514 -0.03041906 0.02179794
v 0.07819807 0.05007368 0.01538680
v 0.07796600 0.05062016 0.01581470
v 0.07853585 0.04128792 0.01567207
v 0.07879494 0.03972413 0.01411293
v 0.07871944 0.04128792 0.01411293
v 0.07700592 0.05234369 0.01731973
v 0.07668165 0.05311717 0.01685740
v 0.07594808 0.05357117 0.01731973
v 0.07571362 0.05414287 0.01570649
v 0.07608001 0.05427739 0.01411047
v 0.07498323 0.05450439 0.01624506
v 0.07512470 0.05458847 0.01520482
v 0.07631685 0.05441191 0.01255871
v 0.07553559 0.05472299 0.01255871
v 0.07569455 0.05479024 0.01099466
v 0.07568104 0.05479024 0.00943553
v 0.07425840 0.05514336 0.00787393
v 0.07879256 0.03816035 0.01411293
v 0.07761073 -0.03041906 0.02035931
v 0.07874328 0.03972413 0.01255625
v 0.07546168 0.05471458 0.00787393
v 0.07646229 0.05447076 0.00943553
v 0.07707506 0.05368887 0.00943553
v 0.07758689 0.05220917 0.00943553
v 0.07817979 0.05004846 0.01099466
v 0.07816310 0.04989712 0.01016099
v 0.07822112 0.05019138 0.01411047
v 0.07761550 0.05220917 0.01255871
v 0.07752649 0.05220917 0.01411047
v 0.07735403 0.05220917 0.01567207
v 0.07821000 0.05019138 0.01255871
v 0.07680246 0.05329372 0.01567207
v 0.07647581 0.05447917 0.01099466
v 0.07695505 0.05349550 0.01411047
v 0.07707745 0.05369728 0.01099466
v 0.07764173 0.05220917 0.01099466
v 0.07704009 0.05363002 0.01255871
f 1 2 3
f 1 3 4
f 1 4 13
f 1 13 5
f 1 5 17
f 1 17 40
f 1 40 67
f 1 67 102
f 1 102 135
f 1 135 116
f 1 116 81
f 1 81 52
f 1 52 45
f 1 45 44
f 1 44 43
f 1 43 21
f 1 21 8
f 1 8 7
f 1 7 6
f 1 6 2
f 2 6 3
f 3 6 7
f 3 7 8
f 3 8 9
f 3 9 10
f 3 10 11
f 3 11 12
f 3 12 4
f 4 12 14
f 4 14 15
f 4 15 16
f 4 16 37
f 4 37 63
f 4 63 97
f 4 97 79
f 4 79 78
f 4 78 42
f 4 42 18
f 4 18 13
f 5 13 18
f 5 18 19
f 5 19 20
f 5 20 17
f 8 21 22
f 8 22 9
f 9 22 23
f 9 23 24
f 9 24 25
f 9 25 26
f 9 26 10
f 10 26 11
f 11 26 27
f 11 27 12
f 12 27 14
f 14 27 28
f 14 28 29
f 14 29 30
f 14 30 31
f 14 31 15
f 15 31 32
f 15 32 33
f 15 33 16
f 16 33 34
f 16 34 35
f 16 35 36
f 16 36 37
f 17 38 39
f 17 39 66
f 17 66 40
f 17 20 41
f 17 41 38
f 18 42 41
f 18 41 19
f 19 41 20
f 21 43 22
f 22 43 44
f 22 44 45
f 22 45 23
f 23 46 47
f 23 47 48
f 23 48 49
f 23 49 50
f 23 50 51
f 23 51 24
f 23 45 52
f 23 52 46
f 24 51 25
f 25 51 53
f 25 53 26
f 26 53 27
f 27 53 54
f 27 54 28
f 28 55 29
f 28 54 55
f 29 55 30
f 30 56 31
f 30 55 56
f 31 56 32
f 32 57 58
f 32 58 33
f 32 56 57
f 33 58 34
f 34 58 35
f 35 59 36
f 35 58 60
f 35 60 59
f 36 61 62
f 36 62 37
f 36 59 61
f 37 62 64
f 37 64 63
f 38 65 77
f 38 77 76
f 38 76 100
f 38 100 99
f 38 99 72
f 38 72 71
f 38 71 70
f 38 70 69
f 38 69 68
f 38 68 66
f 38 66 39
f 38 41 65
f 40 66 68
f 40 68 69
f 40 69 70
f 40 70 71
f 40 71 72
f 40 72 73
f 40 73 74
f 40 74 75
f 40 75 67
f 41 64 76
f 41 76 77
f 41 77 65
f 41 42 78
f 41 78 79
f 41 79 64
f 46 80 47
f 46 52 81
f 46 81 80
f 47 80 82
f 47 82 83
f 47 83 48
f 48 83 84
f 48 84 49
f 49 84 85
f 49 85 50
f 50 85 51
f 51 85 86
f 51 86 53
f 53 86 87
f 53 87 54
f 54 87 55
f 55 87 56
f 56 87 88
f 56 88 89
f 56 89 57
f 57 89 60
f 57 60 58
f 59 90 61
f 59 60 91
f 59 91 90
f 60 89 92
f 60 92 93
f 60 93 94
f 60 94 91
f 61 90 94
f 61 94 95
f 61 95 96
f 61 96 62
f 62 96 64
f 63 64 97
f 64 96 98
f 64 98 99
f 64 99 100
f 64 100 76
f 64 79 97
f 67 101 102
f 67 75 103
f 67 103 101
f 72 99 98
f 72 98 104
f 72 104 105
f 72 105 106
f 72 106 107
f 72 107 108
f 72 108 109
f 72 109 110
f 72 110 111
f 72 111 112
f 72 112 103
f 72 103 75
f 72 75 74
f 72 74 73
f 80 84 82
f 80 81 113
f 80 113 114
f 80 114 115
f 80 115 84
f 81 116 114
f 81 114 113
f 82 84 83
f 84 117 118
f 84 118 85
f 84 115 119
f 84 119 120
f 84 120 121
f 84 121 117
f 85 118 122
f 85 122 86
f 86 122 87
f 87 122 123
f 87 123 124
f 87 124 88
f 88 125 126
f 88 126 127
f 88 127 89
f 88 124 125
f 89 127 92
f 90 91 94
f 92 127 128
f 92 128 129
f 92 129 130
f 92 130 93
f 93 130 131
f 93 131 94
f 94 131 95
f 95 131 132
f 95 132 133
f 95 133 96
f 96 133 105
f 96 105 104
f 96 104 98
f 101 134 135
f 101 135 102
f 101 103 112
f 101 112 136
f 101 136 120
f 101 120 134
f 105 133 106
f 106 133 137
f 106 137 107
f 107 137 138
f 107 138 108
f 108 138 139
f 108 139 109
f 109 139 110
f 110 140 141
f 110 141 111
f 110 139 140
f 111 141 142
f 111 142 112
f 112 142 136
f 114 119 115
f 114 116 119
f 116 135 119
f 117 143 144
f 117 144 145
f 117 145 118
f 117 121 143
f 118 145 146
f 118 146 122
f 119 135 134
f 119 134 120
f 120 136 121
f 121 136 142
f 121 142 141
f 121 141 147
f 121 147 143
f 122 146 148
f 122 148 123
f 123 148 126
f 123 126 124
f 124 126 125
f 126 129 127
f 126 148 129
f 127 129 128
f 129 149 131
f 129 131 130
f 129 148 150
f 129 150 149
f 131 149 132
f 132 149 138
f 132 138 137
f 132 137 133
f 138 149 139
f 139 149 151
f 139 151 152
f 139 152 140
f 140 152 147
f 140 147 141
f 143 147 152
f 143 152 144
f 144 152 151
f 144 151 153
f 144 153 145
f 145 153 150
f 145 150 146
f 146 150 148
f 149 150 153
f 149 153 151

