# https://github.com/mikedh/trimesh
v -0.00225700 0.01942781 0.01564767
v -0.00225700 0.01797484 0.01603439
v -0.00393362 0.01772971 0.01609434
v -0.00381843 0.01942781 0.01566882
v -0.00225700 0.02098775 0.01576756
v 0.02428732 0.02098775 0.01707701
v 0.02428732 0.01942893 0.01725567
v -0.01161918 0.01481931 0.01732738
v 0.02428732 0.01828571 0.01776934
v -0.01318061 0.01481931 0.01729564
v -0.00381843 0.02098775 0.01592507
v -0.02814219 0.01699542 0.01955367
v -0.02812299 0.01786899 0.01955837
v -0.02803340 0.01867458 0.01957953
v -0.00381843 0.02197497 0.01626125
v -0.00225700 0.02208751 0.01615428
v 0.00839144 0.02188249 0.01638820
v 0.02428732 0.02254991 0.01746020
v 0.02584875 0.02098775 0.01732385
v 0.02593834 0.01932530 0.01758950
v 0.02548399 0.01840271 0.01785280
v 0.02428732 0.01750574 0.01841231
v 0.02428732 0.01708902 0.01881314
v -0.00573182 0.01481931 0.01821601
v -0.01325740 0.01481931 0.01731092
v -0.02723349 0.01960609 0.01973939
v -0.01553556 0.01481931 0.01777875
v -0.02723349 0.01594915 0.01976290
v -0.03130344 0.01541208 0.02107587
v -0.03186018 0.01641156 0.02094540
v -0.03246171 0.01678817 0.02105589
v -0.03246171 0.01786899 0.02088310
v -0.03191778 0.01786899 0.02069855
v -0.03246171 0.01854199 0.02084313
v -0.03246171 0.01943004 0.02085606
v -0.03246171 0.01987797 0.02089250
v -0.03246171 0.02041949 0.02102063
v -0.03246171 0.02169864 0.02167300
v -0.03246171 0.02347362 0.02262393
v -0.03246171 0.02354605 0.02266625
v -0.03246171 0.02553274 0.02390164
v -0.03246171 0.02620240 0.02435654
v 0.00866661 0.02359508 0.01770470
v 0.02115806 0.02432044 0.01837823
v 0.02115806 0.02363853 0.01782106
v 0.02271949 0.02359285 0.01781636
v 0.02271949 0.02254880 0.01737439
v 0.02335302 0.02317055 0.01767178
v 0.02428732 0.02347697 0.01789159
v 0.02516402 0.02338337 0.01797035
v 0.02574636 0.02249643 0.01776229
v 0.02675745 0.02194043 0.01791510
v 0.02699422 0.02098775 0.01777992
v 0.02698782 0.01977768 0.01780461
v 0.02652067 0.01873698 0.01809024
v 0.02601513 0.01777539 0.01870735
v 0.02563757 0.01708902 0.01915872
v 0.02504243 0.01708902 0.01898005
v -0.00573182 0.01481931 0.02017313
v 0.02650787 0.01708902 0.01968062
v 0.02666786 0.01708902 0.01980286
v 0.02818449 0.01708902 0.02103120
v 0.02824209 0.01708902 0.02108527
v 0.03291358 0.01708902 0.02561074
v -0.02734867 0.01481931 0.02044348
v -0.02879491 0.01490733 0.02072441
v -0.03035634 0.01520372 0.02093717
v -0.03074030 0.01481931 0.02129803
v -0.03209696 0.01481931 0.02169298
v -0.03246171 0.01481931 0.02180112
v -0.03246171 0.01600820 0.02134387
v -0.03246171 0.02620240 0.02627956
v -0.02094297 0.02620240 0.02480203
v 0.02134363 0.02432044 0.01838175
v 0.02383296 0.02373770 0.01812080
v 0.02335302 0.02432044 0.01877435
v 0.02476726 0.02373770 0.01835001
v 0.03291358 0.02373770 0.02200917
v 0.02280907 0.02432044 0.01863212
v 0.03291358 0.02253877 0.02230186
v 0.03291358 0.02113260 0.02296246
v 0.02844046 0.01981111 0.01921749
v 0.02753816 0.01927405 0.01865445
v 0.02653987 0.01714919 0.01963948
v -0.03246171 0.01481931 0.02371122
v 0.03291358 0.01708902 0.02765483
v 0.03291358 0.01967740 0.02379702
v -0.02839816 0.01481931 0.02068445
v -0.03035634 0.01481931 0.02118754
v -0.03182818 0.02620240 0.02641709
v -0.00573182 0.02620240 0.02578823
v 0.03291358 0.02373770 0.02374648
v 0.03291358 0.02032700 0.02341501
v -0.01270066 0.02478620 0.02742562
v -0.02879491 0.02620240 0.02682262
v -0.03035634 0.02620240 0.02668744
v -0.01006415 0.02620240 0.02765131
v -0.01161918 0.02620240 0.02763368
v -0.01161918 0.02567202 0.02759018
v -0.01161918 0.02470597 0.02745383
v 0.03291358 0.01725170 0.02758783
v -0.00573182 0.02620240 0.02753376
v -0.00797158 0.02620240 0.02760899
v -0.00953301 0.02620240 0.02764426
v 0.03291358 0.01735866 0.02754317
f 1 2 3
f 1 3 4
f 1 4 5
f 1 5 6
f 1 6 7
f 1 7 2
f 2 8 3
f 2 7 9
f 2 9 8
f 3 8 10
f 3 10 4
f 4 11 5
f 4 10 12
f 4 12 13
f 4 13 14
f 4 14 11
f 5 11 15
f 5 15 16
f 5 16 17
f 5 17 6
f 6 18 19
f 6 19 7
f 6 17 18
f 7 19 20
f 7 20 21
f 7 21 9
f 8 9 22
f 8 22 23
f 8 23 24
f 8 24 59
f 8 59 85
f 8 85 70
f 8 70 69
f 8 69 68
f 8 68 89
f 8 89 88
f 8 88 65
f 8 65 27
f 8 27 25
f 8 25 10
f 9 21 22
f 10 25 12
f 11 14 26
f 11 26 15
f 12 25 27
f 12 27 28
f 12 28 29
f 12 29 30
f 12 30 31
f 12 31 32
f 12 32 33
f 12 33 34
f 12 34 13
f 13 34 35
f 13 35 14
f 14 35 36
f 14 36 37
f 14 37 26
f 15 26 37
f 15 37 38
f 15 38 39
f 15 39 40
f 15 40 41
f 15 41 42
f 15 42 16
f 16 43 44
f 16 44 45
f 16 45 46
f 16 46 17
f 16 42 43
f 17 46 47
f 17 47 18
f 18 48 49
f 18 49 50
f 18 50 51
f 18 51 19
f 18 47 48
f 19 51 52
f 19 52 53
f 19 53 54
f 19 54 20
f 20 54 55
f 20 55 21
f 21 55 56
f 21 56 57
f 21 57 58
f 21 58 22
f 22 58 23
f 23 58 24
f 24 58 57
f 24 57 60
f 24 60 61
f 24 61 62
f 24 62 63
f 24 63 64
f 24 64 86
f 24 86 59
f 27 65 28
f 28 65 66
f 28 66 67
f 28 67 29
f 29 67 68
f 29 68 69
f 29 69 70
f 29 70 71
f 29 71 31
f 29 31 30
f 31 71 70
f 31 70 85
f 31 85 72
f 31 72 42
f 31 42 41
f 31 41 40
f 31 40 39
f 31 39 38
f 31 38 37
f 31 37 36
f 31 36 35
f 31 35 34
f 31 34 32
f 32 34 33
f 42 72 90
f 42 90 96
f 42 96 95
f 42 95 98
f 42 98 97
f 42 97 104
f 42 104 103
f 42 103 102
f 42 102 91
f 42 91 73
f 42 73 74
f 42 74 44
f 42 44 43
f 44 74 45
f 45 74 46
f 46 74 49
f 46 49 48
f 46 48 47
f 49 75 50
f 49 74 75
f 50 76 77
f 50 77 78
f 50 78 52
f 50 52 51
f 50 75 79
f 50 79 76
f 52 78 53
f 53 78 54
f 54 78 80
f 54 80 81
f 54 81 82
f 54 82 83
f 54 83 55
f 55 83 64
f 55 64 63
f 55 63 62
f 55 62 84
f 55 84 56
f 56 84 57
f 57 84 60
f 59 86 85
f 60 84 61
f 61 84 62
f 64 87 93
f 64 93 81
f 64 81 80
f 64 80 78
f 64 78 92
f 64 92 105
f 64 105 101
f 64 101 86
f 64 83 87
f 65 88 66
f 66 88 89
f 66 89 67
f 67 89 68
f 72 85 90
f 73 91 74
f 74 91 79
f 74 79 75
f 76 78 77
f 76 79 91
f 76 91 78
f 78 91 102
f 78 102 92
f 81 93 82
f 82 93 87
f 82 87 83
f 85 94 95
f 85 95 96
f 85 96 90
f 85 86 94
f 86 97 98
f 86 98 99
f 86 99 100
f 86 100 94
f 86 101 102
f 86 102 103
f 86 103 104
f 86 104 97
f 92 102 105
f 94 100 99
f 94 99 95
f 95 99 98
f 101 105 102

