# https://github.com/mikedh/trimesh
v 0.07067558 0.04486074 0.02177915
v 0.07067558 0.03163787 0.02431751
v 0.07067558 0.04486074 0.02023787
v 0.05551511 0.04486074 0.02480371
v 0.05394446 0.04486074 0.02509247
v 0.07049607 0.03163787 0.02434466
v 0.05239626 0.02098942 0.02817380
v 0.05394446 0.01942899 0.02804793
v 0.05394446 0.01786856 0.02796772
v 0.05394446 0.01709107 0.02789121
v 0.05502148 0.01709107 0.02751854
v 0.05831236 0.01709107 0.02605006
v 0.06173786 0.01709107 0.02451249
v 0.06200711 0.01709107 0.02435453
v 0.07067558 0.03163787 0.02246650
v 0.07067558 0.04330303 0.02016013
v 0.03366070 0.03347558 0.01569054
v 0.03210502 0.03504145 0.01593487
v 0.06487167 0.04486074 0.02021319
v 0.05128933 0.04486074 0.02537630
v 0.05007769 0.04363469 0.02582671
v 0.04557517 0.03613973 0.02742722
v 0.05239626 0.01942899 0.02829103
v 0.04458791 0.03504145 0.02768760
v 0.05239626 0.01786856 0.02825031
v 0.05317410 0.01709107 0.02806767
v 0.04541063 0.01708835 0.02797389
v 0.06200711 0.01709107 0.02258620
v 0.07067558 0.03827377 0.02039829
v 0.07067558 0.04173988 0.02008979
v 0.07067558 0.04020936 0.02004537
v 0.07067558 0.03965206 0.02012558
v 0.07067558 0.03881204 0.02025391
v 0.03366070 0.03191787 0.01598670
v 0.03210502 0.03347558 0.01571522
v 0.03204518 0.03353267 0.01572756
v 0.03204518 0.03504145 0.01594104
v 0.03204518 0.03507951 0.01595462
v 0.06442291 0.04486074 0.02021443
v 0.04962893 0.04486074 0.02547255
v 0.04927741 0.04375159 0.02584645
v 0.04146157 0.03803454 0.02754199
v 0.04303222 0.03777084 0.02748275
v 0.04413167 0.03755065 0.02742722
v 0.04463278 0.03663450 0.02749016
v 0.04473749 0.03658013 0.02748399
v 0.04458791 0.03347558 0.02779989
v 0.05083309 0.02098942 0.02826018
v 0.05083309 0.01942899 0.02829597
v 0.05083309 0.01786856 0.02828980
v 0.05083309 0.01709107 0.02828362
v 0.05161094 0.01709107 0.02826388
v 0.04303222 0.03659916 0.02765428
v 0.05239626 0.01709107 0.02820835
v 0.05005525 0.01709107 0.02828116
v 0.04926993 0.01709107 0.02827499
v 0.03521639 0.01708835 0.02786900
v 0.04541063 0.01708835 0.02631167
v 0.04538071 0.01708835 0.02630551
v 0.04334635 0.01708835 0.02606734
v 0.04152141 0.01708835 0.02590322
v 0.04146157 0.01708835 0.02589952
v 0.03291278 0.01708835 0.02560706
v 0.02335428 0.02374057 0.01805861
v 0.01950246 0.02432505 0.01847817
v 0.03204518 0.03347830 0.01572509
v 0.02931525 0.03468261 0.01631618
v 0.03049697 0.03513932 0.01615329
v 0.03099061 0.03588691 0.01639022
v 0.06331598 0.04486074 0.02023911
v 0.04303222 0.04420014 0.02596615
v 0.04458791 0.04411043 0.02593530
v 0.04771424 0.04391742 0.02587607
v 0.03365322 0.04486074 0.02601922
v 0.03365322 0.04440675 0.02620802
v 0.03990589 0.03805901 0.02753335
v 0.04146157 0.03659916 0.02768390
v 0.03522387 0.04284632 0.02659920
v 0.03413190 0.04284632 0.02662511
v 0.03365322 0.04284632 0.02663499
v 0.01959969 0.04284632 0.02676209
v 0.04926993 0.02098942 0.02825154
v -0.00537357 0.02879973 0.02770241
v 0.04926993 0.01786856 0.02827869
v -0.00573258 0.02844632 0.02769624
v -0.00573258 0.02723930 0.02767279
v 0.04849208 0.01709107 0.02825524
v 0.03458065 0.01708835 0.02785789
v 0.03291278 0.01708835 0.02765428
v -0.00573258 0.02432505 0.02453347
v -0.00069903 0.02432505 0.02293295
v 0.00711680 0.02432505 0.02060191
v -0.00573258 0.04486074 0.02429900
v 0.03209754 0.04486074 0.02606857
v 0.03209754 0.04440675 0.02624997
v -0.00573258 0.04284632 0.02643014
v 0.01959969 0.04440675 0.02642767
v -0.00573258 0.04486074 0.02603649
v -0.00573258 0.04440675 0.02612781
v -0.00573258 0.04405606 0.02619815
v -0.00573258 0.02879973 0.02769130
v -0.00573258 0.02688589 0.02762960
v -0.00573258 0.02589907 0.02748892
v 0.03366070 0.01708835 0.02780359
v -0.00573258 0.02432505 0.02678800
v -0.00573258 0.03557428 0.02421262
v -0.00573258 0.03621585 0.02421262
v 0.01959969 0.04486074 0.02626602
v 0.01804400 0.04486074 0.02625368
v -0.00573258 0.02569518 0.02743833
v -0.00573258 0.02515692 0.02727544
v -0.00573258 0.02499380 0.02718782
f 1 2 15
f 1 15 29
f 1 29 33
f 1 33 32
f 1 32 31
f 1 31 30
f 1 30 16
f 1 16 3
f 1 3 19
f 1 19 39
f 1 39 70
f 1 70 93
f 1 93 98
f 1 98 109
f 1 109 108
f 1 108 94
f 1 94 74
f 1 74 40
f 1 40 20
f 1 20 5
f 1 5 4
f 1 4 2
f 2 4 5
f 2 5 6
f 2 6 7
f 2 7 8
f 2 8 9
f 2 9 10
f 2 10 11
f 2 11 12
f 2 12 13
f 2 13 14
f 2 14 28
f 2 28 15
f 3 16 17
f 3 17 18
f 3 18 19
f 5 20 21
f 5 21 6
f 6 21 22
f 6 22 7
f 7 23 8
f 7 22 24
f 7 24 23
f 8 23 25
f 8 25 9
f 9 26 10
f 9 25 26
f 10 26 27
f 10 27 11
f 11 27 12
f 12 27 13
f 13 27 14
f 14 27 58
f 14 58 28
f 15 28 29
f 16 30 17
f 17 30 31
f 17 31 32
f 17 32 33
f 17 33 28
f 17 28 34
f 17 34 35
f 17 35 18
f 18 35 36
f 18 36 37
f 18 37 38
f 18 38 39
f 18 39 19
f 20 40 41
f 20 41 21
f 21 41 42
f 21 42 43
f 21 43 44
f 21 44 45
f 21 45 46
f 21 46 22
f 22 46 24
f 23 24 47
f 23 47 48
f 23 48 49
f 23 49 50
f 23 50 51
f 23 51 52
f 23 52 25
f 24 46 45
f 24 45 53
f 24 53 47
f 25 52 54
f 25 54 26
f 26 54 27
f 27 54 52
f 27 52 51
f 27 51 55
f 27 55 56
f 27 56 57
f 27 57 88
f 27 88 104
f 27 104 89
f 27 89 63
f 27 63 62
f 27 62 61
f 27 61 60
f 27 60 59
f 27 59 58
f 28 33 29
f 28 58 59
f 28 59 60
f 28 60 61
f 28 61 62
f 28 62 63
f 28 63 64
f 28 64 34
f 34 64 35
f 35 64 65
f 35 65 66
f 35 66 36
f 36 66 67
f 36 67 68
f 36 68 37
f 37 68 38
f 38 68 69
f 38 69 70
f 38 70 39
f 40 71 72
f 40 72 73
f 40 73 41
f 40 74 75
f 40 75 71
f 41 73 42
f 42 76 77
f 42 77 53
f 42 53 43
f 42 73 78
f 42 78 79
f 42 79 80
f 42 80 81
f 42 81 76
f 43 53 44
f 44 53 45
f 47 53 77
f 47 77 48
f 48 82 49
f 48 77 83
f 48 83 82
f 49 84 50
f 49 82 83
f 49 83 84
f 50 84 55
f 50 55 51
f 55 84 56
f 56 84 83
f 56 83 85
f 56 85 86
f 56 86 87
f 56 87 88
f 56 88 57
f 63 89 105
f 63 105 90
f 63 90 91
f 63 91 92
f 63 92 64
f 64 92 65
f 65 92 66
f 66 92 67
f 67 92 93
f 67 93 68
f 68 93 69
f 69 93 70
f 71 78 72
f 71 75 78
f 72 78 73
f 74 94 75
f 75 94 95
f 75 95 78
f 76 81 96
f 76 96 83
f 76 83 77
f 78 95 79
f 79 95 80
f 80 95 97
f 80 97 81
f 81 97 98
f 81 98 99
f 81 99 100
f 81 100 96
f 83 96 101
f 83 101 85
f 85 101 96
f 85 96 100
f 85 100 99
f 85 99 98
f 85 98 93
f 85 93 107
f 85 107 106
f 85 106 90
f 85 90 105
f 85 105 112
f 85 112 111
f 85 111 110
f 85 110 103
f 85 103 102
f 85 102 86
f 86 102 88
f 86 88 87
f 88 102 103
f 88 103 104
f 89 104 105
f 90 106 91
f 91 106 92
f 92 106 107
f 92 107 93
f 94 108 95
f 95 108 97
f 97 108 109
f 97 109 98
f 103 110 104
f 104 110 111
f 104 111 112
f 104 112 105

