# https://github.com/mikedh/trimesh
v 0.06674731 0.05507466 0.01850103
v 0.06830576 0.05504666 0.01850103
v 0.06518071 0.05507266 0.01850103
v 0.06487881 0.05500467 0.01880135
v 0.06644541 0.05500267 0.01880135
v 0.06800386 0.05497168 0.01880135
v 0.07112891 0.05486470 0.01869186
v 0.07112891 0.05491969 0.01850103
v 0.06362226 0.05502367 0.01850103
v 0.00377312 0.05406189 0.01902488
v 0.06332037 0.05463276 0.01968102
v 0.06487881 0.05463776 0.01968178
v 0.00243498 0.05353402 0.02036301
v 0.06644541 0.05461776 0.01965289
v 0.06899114 0.05456977 0.01959358
v 0.06953783 0.05485371 0.01894353
v 0.07112891 0.05447779 0.01947346
v 0.07257312 0.05477173 0.01850103
v 0.07003555 0.05453978 0.01955785
v 0.06206382 0.05493869 0.01850103
v -0.00573257 0.05361999 0.01902488
v 0.00221468 0.05401090 0.01902488
v -0.00573257 0.05332806 0.02036301
v -0.00573257 0.05303113 0.02119858
v 0.00087654 0.05350202 0.02036301
v 0.05707843 0.05332206 0.02153691
v -0.00069007 0.05306812 0.02124800
v -0.00573257 0.05257524 0.02197941
v -0.00573257 0.05240028 0.02225160
v -0.00573257 0.05179442 0.02317613
v 0.05863688 0.05331307 0.02147305
v 0.07112891 0.05369798 0.02001935
v 0.07268735 0.05354201 0.01992431
v 0.07268735 0.05432283 0.01926665
v 0.07268735 0.05475573 0.01850103
v 0.07266287 0.05475973 0.01850103
v 0.05707843 0.05252825 0.02231698
v 0.05707843 0.05174843 0.02291078
v 0.05868583 0.05473173 0.01850103
v -0.00573257 0.05204336 0.01902488
v 0.05863688 0.05472774 0.01850103
v 0.05845737 0.05471274 0.01850103
v 0.05725794 0.05448379 0.01850103
v 0.04795623 0.05268221 0.01850103
v -0.00573257 0.05293015 0.02137421
v 0.05551999 0.05259124 0.02231698
v -0.00573257 0.05160647 0.02335176
v 0.05863688 0.05157747 0.02279141
v 0.07268735 0.05221832 0.02051203
v 0.07387862 0.05329107 0.01976465
v 0.07431923 0.05385294 0.01887586
v 0.07396837 0.05432783 0.01850103
v 0.07346249 0.05457178 0.01850103
v 0.05551999 0.05181041 0.02296856
v 0.05239494 0.04874613 0.02444887
v 0.05395339 0.04857417 0.02436752
v -0.00573257 0.04486303 0.02430061
v 0.04795623 0.05104559 0.01850103
v 0.07550234 0.04486303 0.01850103
v -0.00573257 0.05095761 0.02395696
v -0.00537356 0.05095661 0.02395620
v 0.05492435 0.04842021 0.02430365
v 0.07268735 0.05017380 0.02120999
v 0.07268735 0.05095462 0.02095072
v 0.07349513 0.04990786 0.02115144
v 0.07434370 0.05232330 0.02005281
v 0.07547786 0.05187040 0.01981635
v 0.07492302 0.05291216 0.01950995
v 0.07549418 0.05336006 0.01850103
v 0.07541259 0.05341304 0.01850103
v 0.01961050 0.04997085 0.02432798
v 0.05083649 0.04882911 0.02449449
v 0.05083649 0.04753641 0.02495219
v 0.05239494 0.04753641 0.02486628
v 0.02272739 0.04486204 0.02414855
v -0.00573257 0.04486303 0.02603790
v 0.07756667 0.04486303 0.01850103
v -0.00573257 0.05017680 0.02440325
v -0.00537356 0.05017580 0.02440325
v 0.05395339 0.04753641 0.02468305
v 0.05395339 0.04597478 0.02499933
v 0.07268735 0.04909705 0.02138029
v 0.07268735 0.04753641 0.02153616
v 0.07364200 0.04909705 0.02119934
v 0.07581240 0.04909705 0.02028546
v 0.07592663 0.05072367 0.01998742
v 0.07410709 0.05051872 0.02076369
v 0.07651411 0.05128854 0.01951299
v 0.07601638 0.05241228 0.01899066
v 0.07625300 0.05265522 0.01850103
v -0.00537356 0.04909805 0.02488224
v 0.01961050 0.04909805 0.02467696
v 0.01805206 0.04565985 0.02599837
v 0.01961050 0.04486303 0.02626751
v 0.04962891 0.04486303 0.02547452
v 0.05239494 0.04597478 0.02514759
v 0.03209437 0.04486303 0.02607060
v 0.03366097 0.04486303 0.02602118
v 0.07746060 0.04486303 0.01880135
v 0.07687312 0.04486303 0.01983004
v 0.07613062 0.04486303 0.02026265
v 0.07581240 0.04486303 0.02044132
v 0.07477616 0.04486303 0.02097429
v 0.07399285 0.04486303 0.02131263
v 0.07268735 0.04486303 0.02160915
v 0.05551999 0.04486303 0.02480545
v 0.05395339 0.04486303 0.02509437
v 0.05128526 0.04486303 0.02537796
v 0.01805206 0.04486303 0.02625611
v -0.00573257 0.04525295 0.02595883
v 0.07762378 0.04597478 0.01850103
v -0.00573257 0.04909805 0.02488224
v 0.07268735 0.04597478 0.02164260
v 0.07387046 0.04753641 0.02127537
v 0.07680785 0.04909705 0.01977910
v 0.07671809 0.05024878 0.01969698
v 0.07404181 0.04597478 0.02133163
v 0.07482511 0.04597478 0.02098342
v 0.07703631 0.05072367 0.01891615
v 0.07686496 0.05183341 0.01850103
v 0.07684048 0.05189440 0.01850103
v -0.00573257 0.04551488 0.02590029
v 0.07750955 0.04597478 0.01880135
v 0.07689760 0.04597478 0.01985513
v 0.07581240 0.04597478 0.02047553
v 0.07756667 0.04753641 0.01850103
v 0.07746060 0.04753641 0.01880135
v 0.07685680 0.04753641 0.01982167
v 0.07737084 0.04909705 0.01880135
v 0.07743612 0.04939798 0.01850103
v 0.07719949 0.05070767 0.01850103
v 0.07747691 0.04910605 0.01850103
f 1 2 8
f 1 8 18
f 1 18 36
f 1 36 35
f 1 35 53
f 1 53 52
f 1 52 70
f 1 70 69
f 1 69 90
f 1 90 121
f 1 121 120
f 1 120 131
f 1 131 130
f 1 130 132
f 1 132 126
f 1 126 111
f 1 111 77
f 1 77 59
f 1 59 58
f 1 58 44
f 1 44 43
f 1 43 42
f 1 42 41
f 1 41 39
f 1 39 20
f 1 20 9
f 1 9 3
f 1 3 4
f 1 4 5
f 1 5 2
f 2 5 6
f 2 6 7
f 2 7 8
f 3 9 10
f 3 10 4
f 4 11 12
f 4 12 5
f 4 10 13
f 4 13 11
f 5 12 6
f 6 12 14
f 6 14 15
f 6 15 16
f 6 16 7
f 7 17 18
f 7 18 8
f 7 16 19
f 7 19 17
f 9 20 21
f 9 21 22
f 9 22 10
f 10 22 23
f 10 23 24
f 10 24 25
f 10 25 13
f 11 26 12
f 11 13 24
f 11 24 27
f 11 27 28
f 11 28 29
f 11 29 30
f 11 30 26
f 12 26 14
f 13 25 24
f 14 26 15
f 15 19 16
f 15 26 31
f 15 31 19
f 17 19 32
f 17 32 33
f 17 33 34
f 17 34 35
f 17 35 36
f 17 36 18
f 19 31 37
f 19 37 38
f 19 38 32
f 20 39 21
f 21 40 57
f 21 57 76
f 21 76 110
f 21 110 122
f 21 122 112
f 21 112 78
f 21 78 60
f 21 60 47
f 21 47 30
f 21 30 29
f 21 29 28
f 21 28 45
f 21 45 24
f 21 24 23
f 21 23 22
f 21 39 41
f 21 41 42
f 21 42 43
f 21 43 44
f 21 44 58
f 21 58 40
f 24 45 27
f 26 46 37
f 26 37 31
f 26 30 46
f 27 45 28
f 30 47 46
f 32 38 33
f 33 38 48
f 33 48 49
f 33 49 50
f 33 50 34
f 34 50 51
f 34 51 52
f 34 52 53
f 34 53 35
f 37 46 54
f 37 54 38
f 38 54 55
f 38 55 56
f 38 56 48
f 40 58 59
f 40 59 57
f 46 47 60
f 46 60 61
f 46 61 54
f 48 56 62
f 48 62 63
f 48 63 64
f 48 64 49
f 49 64 65
f 49 65 66
f 49 66 50
f 50 66 67
f 50 67 68
f 50 68 51
f 51 68 69
f 51 69 70
f 51 70 52
f 54 61 71
f 54 71 72
f 54 72 55
f 55 72 73
f 55 73 74
f 55 74 56
f 56 74 62
f 57 75 76
f 57 59 75
f 59 77 75
f 60 78 79
f 60 79 61
f 61 79 71
f 62 74 80
f 62 80 63
f 63 65 64
f 63 80 65
f 65 80 81
f 65 81 82
f 65 82 83
f 65 83 84
f 65 84 85
f 65 85 86
f 65 86 87
f 65 87 66
f 66 87 67
f 67 87 86
f 67 86 88
f 67 88 68
f 68 88 89
f 68 89 69
f 69 89 90
f 71 79 91
f 71 91 92
f 71 92 72
f 72 92 93
f 72 93 94
f 72 94 73
f 73 95 96
f 73 96 74
f 73 94 97
f 73 97 98
f 73 98 95
f 74 96 81
f 74 81 80
f 75 77 99
f 75 99 100
f 75 100 101
f 75 101 102
f 75 102 103
f 75 103 104
f 75 104 105
f 75 105 106
f 75 106 107
f 75 107 108
f 75 108 95
f 75 95 98
f 75 98 97
f 75 97 94
f 75 94 109
f 75 109 76
f 76 109 110
f 77 111 99
f 78 112 91
f 78 91 79
f 81 96 108
f 81 108 107
f 81 107 83
f 81 83 82
f 83 113 114
f 83 114 84
f 83 107 113
f 84 114 85
f 85 115 116
f 85 116 86
f 85 114 117
f 85 117 118
f 85 118 115
f 86 116 88
f 88 90 89
f 88 116 119
f 88 119 120
f 88 120 121
f 88 121 90
f 91 112 94
f 91 94 93
f 91 93 92
f 94 112 122
f 94 122 109
f 95 108 96
f 99 111 123
f 99 123 100
f 100 123 124
f 100 124 101
f 101 124 125
f 101 125 102
f 102 125 118
f 102 118 103
f 103 118 117
f 103 117 104
f 104 117 113
f 104 113 105
f 105 113 106
f 106 113 107
f 109 122 110
f 111 126 127
f 111 127 123
f 113 117 114
f 115 118 125
f 115 125 128
f 115 128 127
f 115 127 129
f 115 129 116
f 116 129 119
f 119 129 130
f 119 130 131
f 119 131 120
f 123 127 124
f 124 127 128
f 124 128 125
f 126 132 127
f 127 132 129
f 129 132 130

