# https://github.com/mikedh/trimesh
v 0.06381355 0.01890872 -0.02459385
v 0.05395289 -0.00243044 -0.01683141
v 0.05520363 -0.00243044 -0.01746510
v 0.05529508 -0.00399346 -0.01738764
v 0.06589811 -0.00086997 -0.02515545
v 0.06381355 0.01890872 -0.02626038
v 0.06332401 0.01890872 -0.02457986
v 0.05179839 -0.00153802 -0.01629240
v 0.05395289 -0.00399346 -0.01672490
v 0.05506645 -0.00555393 -0.01759421
v 0.06555920 -0.00243044 -0.02515545
v 0.06381355 0.00098372 -0.02643575
v 0.06381355 0.00887021 -0.02728246
v 0.06381355 0.00958160 -0.02728246
v 0.06381355 0.01786331 -0.02647125
v 0.06072032 0.01890872 -0.02644328
v 0.06273227 0.01890872 -0.02459923
v 0.04927540 0.00185830 -0.01766629
v 0.05142990 -0.00153802 -0.01629240
v 0.05179839 -0.00192559 -0.01629240
v 0.05239014 -0.00399346 -0.01668294
v 0.05395289 -0.00555393 -0.01715525
v 0.05477327 -0.00637751 -0.01785242
v 0.06437033 -0.00402151 -0.02515545
v 0.06258702 -0.00554373 -0.02515545
v 0.06173168 -0.00602564 -0.02515545
v 0.06019851 -0.00663759 -0.02515545
v 0.05996719 -0.00670388 -0.02515545
v 0.05867611 -0.00698436 -0.02515545
v 0.05707570 -0.00712715 -0.02515545
v 0.05551295 -0.00713990 -0.02515545
v 0.05517942 -0.00713225 -0.02515545
v 0.05395289 -0.00709910 -0.02515545
v 0.05362743 -0.00708890 -0.02515545
v 0.05239014 -0.00701241 -0.02515545
v 0.05208620 -0.00698691 -0.02515545
v 0.05058262 -0.00677018 -0.02515545
v 0.05473023 0.00927053 -0.02726417
v 0.05473023 0.00929347 -0.02726417
v 0.04899566 0.01890872 -0.02708019
v 0.05395558 0.01890872 -0.02494673
v 0.04771534 0.00265638 -0.01806867
v 0.04771534 0.00187870 -0.01774590
v 0.05142990 -0.00192559 -0.01629240
v 0.04686537 0.00169511 -0.01785779
v 0.05083815 -0.00399346 -0.01707886
v 0.05234172 -0.00564827 -0.01735644
v 0.05282857 -0.00648970 -0.01773299
v 0.05395289 -0.00648205 -0.01774160
v 0.05395289 -0.00672173 -0.01867761
v 0.05395289 -0.00691042 -0.02023871
v 0.05239014 -0.00679058 -0.02023871
v 0.05135727 -0.00644891 -0.02023871
v 0.04883427 -0.00615568 -0.02515545
v 0.04783099 -0.00568142 -0.02515545
v 0.04091831 -0.00130854 -0.02515545
v 0.04038574 -0.00091077 -0.02515545
v 0.03909465 0.00009130 -0.02515545
v 0.03852443 0.00070579 -0.02515545
v 0.04899566 0.01805709 -0.02707589
v 0.03841953 0.00098627 -0.02515545
v 0.04899566 0.01890872 -0.02545885
v 0.05343914 0.01890872 -0.02497901
v 0.04615258 0.00381398 -0.01868944
v 0.04686537 0.00132794 -0.01785779
v 0.05088118 -0.00244064 -0.01660332
v 0.04514662 0.00479310 -0.01924890
v 0.04500406 0.00381398 -0.01910688
v 0.04496640 0.00225096 -0.01906493
v 0.04918126 -0.00250439 -0.01736935
v 0.04970307 -0.00399346 -0.01763078
v 0.05000432 -0.00483744 -0.01783843
v 0.05083815 -0.00513322 -0.01761680
v 0.05179570 -0.00622962 -0.01822359
v 0.05234172 -0.00658405 -0.01871742
v 0.05153211 -0.00638006 -0.01926504
v 0.05094036 -0.00583696 -0.01871742
v 0.04859489 -0.00307044 -0.01805576
v 0.04826943 -0.00203268 -0.01771255
v 0.04509551 0.00106531 -0.01919511
v 0.04101783 0.00537445 -0.02449810
v 0.05031633 0.01890872 -0.02528779
v 0.04306743 0.00860503 -0.02449810
v 0.05239552 0.01890872 -0.02505109
v 0.05187908 0.01890872 -0.02510381
f 1 2 3
f 1 3 4
f 1 4 5
f 1 5 6
f 1 6 16
f 1 16 40
f 1 40 62
f 1 62 82
f 1 82 85
f 1 85 84
f 1 84 63
f 1 63 41
f 1 41 17
f 1 17 7
f 1 7 8
f 1 8 2
f 2 9 4
f 2 4 3
f 2 8 9
f 4 9 10
f 4 10 11
f 4 11 5
f 5 11 12
f 5 12 13
f 5 13 14
f 5 14 15
f 5 15 6
f 6 15 16
f 7 17 18
f 7 18 8
f 8 18 19
f 8 19 44
f 8 44 20
f 8 20 9
f 9 20 21
f 9 21 22
f 9 22 10
f 10 22 23
f 10 23 11
f 11 24 12
f 11 23 24
f 12 24 25
f 12 25 26
f 12 26 27
f 12 27 28
f 12 28 29
f 12 29 30
f 12 30 31
f 12 31 32
f 12 32 33
f 12 33 34
f 12 34 35
f 12 35 36
f 12 36 37
f 12 37 38
f 12 38 13
f 13 38 39
f 13 39 14
f 14 39 40
f 14 40 15
f 15 40 16
f 17 41 42
f 17 42 18
f 18 42 43
f 18 43 19
f 19 43 45
f 19 45 65
f 19 65 44
f 20 44 21
f 21 44 46
f 21 46 47
f 21 47 22
f 22 47 48
f 22 48 49
f 22 49 23
f 23 49 50
f 23 50 28
f 23 28 27
f 23 27 26
f 23 26 25
f 23 25 24
f 28 50 29
f 29 50 51
f 29 51 30
f 30 51 31
f 31 51 32
f 32 51 33
f 33 51 34
f 34 51 35
f 35 51 52
f 35 52 36
f 36 52 37
f 37 52 53
f 37 53 54
f 37 54 38
f 38 54 55
f 38 55 56
f 38 56 57
f 38 57 58
f 38 58 59
f 38 59 60
f 38 60 40
f 38 40 39
f 40 60 61
f 40 61 62
f 41 63 42
f 42 64 43
f 42 63 64
f 43 64 45
f 44 65 66
f 44 66 46
f 45 64 67
f 45 67 68
f 45 68 69
f 45 69 65
f 46 70 71
f 46 71 72
f 46 72 73
f 46 73 47
f 46 66 70
f 47 73 48
f 48 50 49
f 48 73 72
f 48 72 74
f 48 74 75
f 48 75 50
f 50 75 52
f 50 52 51
f 52 75 53
f 53 75 76
f 53 76 54
f 54 76 55
f 55 76 56
f 56 76 77
f 56 77 72
f 56 72 57
f 57 72 58
f 58 72 59
f 59 72 78
f 59 78 79
f 59 79 80
f 59 80 61
f 59 61 60
f 61 80 69
f 61 69 68
f 61 68 67
f 61 67 81
f 61 81 62
f 62 81 83
f 62 83 67
f 62 67 82
f 63 84 64
f 64 84 85
f 64 85 67
f 65 69 80
f 65 80 79
f 65 79 70
f 65 70 66
f 67 83 81
f 67 85 82
f 70 79 71
f 71 79 72
f 72 77 74
f 72 79 78
f 74 77 76
f 74 76 75

