# https://github.com/mikedh/trimesh
v 0.07461347 -0.04658898 0.00107159
v 0.07432511 -0.04358452 0.00107159
v 0.07628866 -0.04658898 0.00107159
v 0.07069894 -0.04658898 0.01847181
v 0.07427875 -0.04303207 0.00107159
v 0.07621480 -0.03522967 0.00107159
v 0.07825142 -0.04658898 0.00868951
v 0.07069894 -0.04658898 0.02079902
v 0.07069894 -0.03041906 0.02445893
v 0.07425989 -0.03890055 0.00107159
v 0.07422453 -0.03990890 0.00107159
v 0.07421039 -0.04046134 0.00107159
v 0.07421589 -0.04146969 0.00107159
v 0.07423711 -0.04202214 0.00107159
v 0.07575593 -0.03416750 0.00107159
v 0.07663045 -0.03124853 0.00545546
v 0.07666895 -0.03210491 0.00517740
v 0.07687875 -0.03210491 0.00630969
v 0.07843450 -0.04658898 0.00944354
v 0.07113502 -0.04658898 0.02072637
v 0.07069894 -0.04655573 0.02083159
v 0.07613230 -0.03041906 0.01085139
v 0.07500320 -0.03123903 0.00544043
v 0.07492619 -0.03417067 0.00107159
v 0.07469126 -0.03522809 0.00107159
v 0.07446183 -0.03678888 0.00107159
v 0.07440368 -0.03734133 0.00107159
v 0.07429996 -0.03835126 0.00107159
v 0.07069894 -0.03041906 0.02619494
v 0.07528606 -0.03416750 0.00107159
v 0.07581879 -0.03120262 0.00540536
v 0.07672003 -0.03107282 0.00630969
v 0.07714118 -0.03210491 0.00787286
v 0.07868987 -0.04658898 0.01099418
v 0.07113502 -0.04650983 0.02079401
v 0.07275521 -0.04658898 0.02032306
v 0.07113502 -0.04572943 0.02138521
v 0.07069894 -0.04599220 0.02125745
v 0.07712154 -0.03041906 0.01085139
v 0.07576693 -0.03107124 0.00626210
v 0.07069894 -0.03097784 0.02632771
v 0.07119945 -0.03041906 0.02609474
v 0.07686382 -0.03084962 0.00787286
v 0.07747669 -0.03041906 0.01255483
v 0.07735805 -0.03210491 0.00943352
v 0.07871501 -0.04615366 0.01255483
v 0.07872601 -0.04658898 0.01255483
v 0.07234506 -0.04555372 0.02126997
v 0.07404225 -0.04658898 0.01990972
v 0.07069894 -0.04577375 0.02141026
v 0.07069894 -0.03638839 0.02603462
v 0.07069894 -0.03210491 0.02658573
v 0.07113502 -0.03210491 0.02649555
v 0.07216198 -0.03092877 0.02592690
v 0.07273164 -0.03041906 0.02551857
v 0.07758591 -0.03041906 0.01879997
v 0.07761026 -0.03041906 0.02036063
v 0.07817207 -0.03897178 0.01805096
v 0.07817049 -0.03990890 0.01804344
v 0.07856258 -0.04615366 0.01411299
v 0.07850915 -0.04658898 0.01411549
v 0.07338615 -0.04530362 0.02108961
v 0.07458833 -0.04658898 0.01970430
v 0.07085295 -0.03633141 0.02601458
v 0.07069894 -0.03531990 0.02639535
v 0.07069894 -0.03366571 0.02666339
v 0.07113502 -0.03366571 0.02657321
v 0.07245034 -0.03210491 0.02605466
v 0.07426932 -0.03041906 0.02486725
v 0.07724490 -0.03041906 0.02180105
v 0.07726847 -0.03210491 0.02192380
v 0.07761262 -0.03054411 0.02036063
v 0.07762991 -0.03210491 0.02036063
v 0.07724647 -0.03366571 0.02192380
v 0.07816186 -0.04071937 0.01802090
v 0.07822471 -0.04422404 0.01666064
v 0.07829621 -0.04615366 0.01530791
v 0.07824907 -0.04658898 0.01514758
v 0.07491598 -0.04658898 0.01955149
v 0.07540078 -0.04576742 0.01984960
v 0.07437304 -0.04470684 0.02093179
v 0.07189483 -0.03597999 0.02580164
v 0.07127881 -0.03536739 0.02621749
v 0.07069894 -0.03410102 0.02662080
v 0.07222091 -0.03493840 0.02596447
v 0.07249513 -0.03366571 0.02608221
v 0.07323137 -0.03210491 0.02566136
v 0.07520906 -0.03041906 0.02436874
v 0.07721268 -0.03041906 0.02192380
v 0.07674517 -0.03210491 0.02297593
v 0.07673024 -0.03366571 0.02295088
v 0.07702018 -0.03532465 0.02206408
v 0.07696596 -0.03678888 0.02171087
v 0.07791120 -0.04468468 0.01720424
v 0.07822078 -0.04425886 0.01665313
v 0.07810685 -0.04526562 0.01640262
v 0.07796542 -0.04615366 0.01608698
v 0.07782556 -0.04658898 0.01598427
v 0.07586986 -0.04658898 0.01881751
v 0.07597829 -0.04632779 0.01893525
v 0.07689446 -0.04584815 0.01839666
v 0.07647331 -0.04459287 0.01946632
v 0.07569229 -0.04459287 0.02014019
v 0.07496863 -0.04374282 0.02109712
v 0.07502441 -0.03598316 0.02425101
v 0.07440604 -0.03536897 0.02473699
v 0.07524049 -0.03494315 0.02440382
v 0.07327615 -0.03366571 0.02566888
v 0.07537249 -0.03210491 0.02448147
v 0.07525463 -0.03041906 0.02432866
v 0.07673653 -0.03041906 0.02280057
v 0.07669724 -0.03041906 0.02287071
v 0.07615351 -0.03210491 0.02375500
v 0.07616687 -0.03366571 0.02373246
v 0.07666110 -0.03486875 0.02282061
v 0.07657310 -0.03590876 0.02267782
v 0.07669646 -0.03947991 0.02126246
v 0.07804635 -0.04508358 0.01665313
v 0.07710897 -0.04459287 0.01868474
v 0.07764798 -0.04621065 0.01665313
v 0.07724490 -0.04628188 0.01736707
v 0.07715690 -0.04658898 0.01725434
v 0.07624780 -0.04658898 0.01848684
v 0.07665246 -0.04658898 0.01809605
v 0.07653381 -0.04052150 0.02104452
v 0.07527035 -0.04270123 0.02130755
v 0.07538664 -0.03366571 0.02450151
v 0.07597987 -0.03041906 0.02366231
v 0.07605294 -0.03041906 0.02358967
f 1 2 5
f 1 5 14
f 1 14 13
f 1 13 12
f 1 12 11
f 1 11 10
f 1 10 28
f 1 28 27
f 1 27 26
f 1 26 25
f 1 25 24
f 1 24 30
f 1 30 15
f 1 15 6
f 1 6 3
f 1 3 7
f 1 7 19
f 1 19 34
f 1 34 47
f 1 47 61
f 1 61 78
f 1 78 98
f 1 98 122
f 1 122 124
f 1 124 123
f 1 123 99
f 1 99 79
f 1 79 63
f 1 63 49
f 1 49 36
f 1 36 20
f 1 20 8
f 1 8 4
f 1 4 2
f 2 4 5
f 3 6 7
f 4 8 21
f 4 21 38
f 4 38 50
f 4 50 51
f 4 51 65
f 4 65 84
f 4 84 66
f 4 66 52
f 4 52 41
f 4 41 29
f 4 29 9
f 4 9 10
f 4 10 11
f 4 11 12
f 4 12 13
f 4 13 14
f 4 14 5
f 6 15 16
f 6 16 17
f 6 17 18
f 6 18 19
f 6 19 7
f 8 20 21
f 9 22 23
f 9 23 24
f 9 24 25
f 9 25 26
f 9 26 27
f 9 27 28
f 9 28 10
f 9 29 42
f 9 42 55
f 9 55 69
f 9 69 88
f 9 88 110
f 9 110 128
f 9 128 129
f 9 129 112
f 9 112 111
f 9 111 89
f 9 89 70
f 9 70 57
f 9 57 56
f 9 56 44
f 9 44 39
f 9 39 22
f 15 30 31
f 15 31 16
f 16 31 32
f 16 32 33
f 16 33 18
f 16 18 17
f 18 33 19
f 19 33 34
f 20 35 21
f 20 36 35
f 21 35 37
f 21 37 38
f 22 39 40
f 22 40 23
f 23 40 31
f 23 31 24
f 24 31 30
f 29 41 42
f 31 40 32
f 32 40 39
f 32 39 43
f 32 43 44
f 32 44 33
f 33 44 45
f 33 45 34
f 34 44 46
f 34 46 47
f 34 45 44
f 35 36 48
f 35 48 37
f 36 49 48
f 37 50 38
f 37 48 51
f 37 51 50
f 39 44 43
f 41 52 53
f 41 53 42
f 42 53 54
f 42 54 55
f 44 56 46
f 46 56 57
f 46 57 58
f 46 58 47
f 47 58 59
f 47 59 60
f 47 60 61
f 48 49 62
f 48 62 51
f 49 63 62
f 51 64 65
f 51 62 64
f 52 66 67
f 52 67 53
f 53 67 68
f 53 68 54
f 54 68 69
f 54 69 55
f 57 70 71
f 57 71 72
f 57 72 58
f 58 72 73
f 58 73 71
f 58 71 59
f 59 71 74
f 59 74 75
f 59 75 60
f 60 76 77
f 60 77 61
f 60 75 76
f 61 77 78
f 62 63 79
f 62 79 80
f 62 80 81
f 62 81 82
f 62 82 64
f 64 82 83
f 64 83 65
f 65 83 84
f 66 84 67
f 67 84 83
f 67 83 85
f 67 85 86
f 67 86 68
f 68 86 87
f 68 87 69
f 69 87 88
f 70 89 71
f 71 73 72
f 71 89 90
f 71 90 74
f 74 90 91
f 74 91 92
f 74 92 75
f 75 92 93
f 75 93 94
f 75 94 76
f 76 94 95
f 76 95 77
f 77 95 96
f 77 96 78
f 78 96 97
f 78 97 98
f 79 99 80
f 80 99 100
f 80 100 101
f 80 101 102
f 80 102 103
f 80 103 104
f 80 104 81
f 81 104 82
f 82 85 83
f 82 104 105
f 82 105 85
f 85 105 106
f 85 106 107
f 85 107 86
f 86 107 108
f 86 108 87
f 87 108 109
f 87 109 88
f 88 109 110
f 89 111 90
f 90 111 112
f 90 112 113
f 90 113 114
f 90 114 91
f 91 114 115
f 91 115 92
f 92 115 116
f 92 116 93
f 93 116 117
f 93 117 94
f 94 97 118
f 94 118 95
f 94 117 119
f 94 119 101
f 94 101 97
f 95 118 96
f 96 118 97
f 97 101 120
f 97 120 98
f 98 120 121
f 98 121 122
f 99 123 100
f 100 123 101
f 101 119 102
f 101 123 124
f 101 124 122
f 101 122 121
f 101 121 120
f 102 119 125
f 102 125 105
f 102 105 126
f 102 126 103
f 103 126 104
f 104 126 105
f 105 107 106
f 105 125 117
f 105 117 107
f 107 127 108
f 107 117 116
f 107 116 114
f 107 114 127
f 108 127 109
f 109 127 113
f 109 113 128
f 109 128 110
f 112 129 113
f 113 127 114
f 113 129 128
f 114 116 115
f 117 125 119

