# https://github.com/mikedh/trimesh
v -0.07355309 -0.05077683 0.00107159
v -0.07355309 -0.04777664 0.00107159
v -0.07316529 -0.05109925 0.00107159
v -0.07315037 -0.05154822 0.00318834
v -0.07355309 -0.05100584 0.00224583
v -0.06464843 -0.05073866 0.00107159
v -0.07355309 -0.04226342 0.01998427
v 0.07458946 -0.04659244 0.00107680
v 0.07627493 -0.04659244 0.00107680
v -0.07271782 -0.05136943 0.00107159
v -0.07288189 -0.05143271 0.00162877
v -0.07326970 -0.05160647 0.00407357
v -0.07209136 -0.05172701 0.00162877
v -0.07235984 -0.05181740 0.00318834
v -0.07355309 -0.05122379 0.00367261
v -0.06464843 -0.05231559 0.00107159
v 0.07663291 -0.04795744 0.00107680
v -0.07355309 -0.04226342 0.02231972
v -0.06464843 -0.04226342 0.02568880
v -0.00482163 -0.04228853 0.02464735
v -0.00617896 -0.04228853 0.02429586
v -0.00711865 -0.04228853 0.02405893
v -0.00853563 -0.04228853 0.02381680
v -0.02410761 -0.04228853 0.02185107
v 0.07840787 -0.04659244 0.00944743
v -0.07231509 -0.05155927 0.00107159
v -0.07197203 -0.05168984 0.00107159
v -0.07265815 -0.05186862 0.00465677
v -0.07252391 -0.05206951 0.00631268
v -0.07334427 -0.05165971 0.00511762
v -0.07097268 -0.05193291 0.00107159
v -0.07095777 -0.05200121 0.00162877
v -0.07095777 -0.05215187 0.00318834
v -0.07355309 -0.05135838 0.00491193
v -0.06525998 -0.05230655 0.00107159
v 0.07663291 -0.04858620 0.00107680
v 0.07596170 -0.04936663 0.00107680
v 0.07520101 -0.05017719 0.00107680
v 0.07424640 -0.05067237 0.00107680
v 0.07367960 -0.05087426 0.00107680
v 0.07268026 -0.05122982 0.00107680
v 0.07212838 -0.05124890 0.00107680
v 0.07111411 -0.05127000 0.00107680
v -0.02565884 -0.05237385 0.00107420
v -0.02722499 -0.05239795 0.00107420
v -0.04909138 -0.05252350 0.00107420
v -0.05065752 -0.05251848 0.00107420
v -0.05220875 -0.05250743 0.00107420
v -0.05377490 -0.05249538 0.00107420
v -0.05532613 -0.05248031 0.00107420
v 0.07863160 -0.04771839 0.00943702
v -0.07355309 -0.04302376 0.02196302
v -0.07159914 -0.04226342 0.02411361
v -0.06464843 -0.04226342 0.02755299
v -0.00482163 -0.04228853 0.02652196
v 0.07870619 -0.04659244 0.01255355
v 0.07867636 -0.04659244 0.01099919
v -0.07252391 -0.05213781 0.00787224
v -0.07344868 -0.05176316 0.00787224
v -0.07338902 -0.05171796 0.00631268
v -0.07095777 -0.05229450 0.00475051
v -0.07095777 -0.05240398 0.00631268
v -0.07355309 -0.05154018 0.00662511
v -0.06939162 -0.05219104 0.00107159
v -0.06784039 -0.05226436 0.00107159
v 0.07831838 -0.04868664 0.00825498
v 0.07843771 -0.04884133 0.00943702
v 0.07746819 -0.04962075 0.00943702
v 0.07667766 -0.05012295 0.00943702
v 0.07579763 -0.05058197 0.00943702
v 0.07424640 -0.05096867 0.00787485
v 0.07268026 -0.05126296 0.00319094
v 0.01802919 -0.05189373 0.00107680
v -0.04909138 -0.05248333 0.00787485
v -0.04752523 -0.05249940 0.00475051
v -0.04752523 -0.05250643 0.00319094
v -0.04752523 -0.05251346 0.00162877
v -0.04909138 -0.05252150 0.00162877
v -0.06939162 -0.05249237 0.00787224
v -0.06939162 -0.05247529 0.00631268
v -0.06939162 -0.05241101 0.00475051
v 0.07882552 -0.04771839 0.01099919
v -0.07355309 -0.04411656 0.02142407
v -0.07061471 -0.04303581 0.02465256
v -0.07083844 -0.04226342 0.02474108
v -0.06548371 -0.04226342 0.02738115
v -0.06454402 -0.04228853 0.02757122
v -0.06414130 -0.04228853 0.02760506
v -0.06314195 -0.04228853 0.02767015
v -0.01629179 -0.04228853 0.02702445
v -0.00482163 -0.04305289 0.02624077
v 0.03370558 -0.04659244 0.02317891
v 0.05236510 -0.04659244 0.02210101
v 0.06798181 -0.04659244 0.02115590
v 0.06835471 -0.04659244 0.02112205
v 0.06956288 -0.04659244 0.02097885
v 0.06968220 -0.04659244 0.02096063
v 0.07035341 -0.04659244 0.02085648
v 0.07111411 -0.04659244 0.02072110
v 0.07273992 -0.04659244 0.02032014
v 0.07400775 -0.04659244 0.01990616
v 0.07455963 -0.04659244 0.01970308
v 0.07490269 -0.04659244 0.01954687
v 0.07585729 -0.04659244 0.01881264
v 0.07623019 -0.04659244 0.01848459
v 0.07663291 -0.04659244 0.01809405
v 0.07714004 -0.04659244 0.01725047
v 0.07781125 -0.04659244 0.01597991
v 0.07822889 -0.04659244 0.01514415
v 0.07849737 -0.04659244 0.01411832
v 0.07873602 -0.04771839 0.01255355
v -0.07344868 -0.05176618 0.00943181
v -0.07095777 -0.05243311 0.00787224
v -0.07252391 -0.05212475 0.00943181
v -0.07355309 -0.05165469 0.00943181
v -0.07355309 -0.05164163 0.00807793
v -0.07355309 -0.05162857 0.00787224
v -0.06939162 -0.05222921 0.00162877
v -0.06939162 -0.05232362 0.00318834
v 0.07851228 -0.04891063 0.01099919
v 0.07754277 -0.04969005 0.01099919
v 0.07676715 -0.05016213 0.01099919
v 0.07579763 -0.05061411 0.01099919
v 0.07424640 -0.05098675 0.00943702
v 0.07268026 -0.05100784 0.01099919
v 0.07424640 -0.05096867 0.01099919
v -0.04909138 -0.05239695 0.00943702
v -0.05220875 -0.05242708 0.00943702
v -0.05377490 -0.05243712 0.00943702
v -0.05065752 -0.05248935 0.00787485
v -0.04909138 -0.05249638 0.00631268
v 0.07268026 -0.05093553 0.01255355
v -0.04909138 -0.05251446 0.00319094
v -0.06939162 -0.05248031 0.00943962
v -0.05065752 -0.05249839 0.00631268
v -0.07355309 -0.04730658 0.01983587
v -0.07033131 -0.04399201 0.02441303
v -0.06940653 -0.04309708 0.02545447
v -0.07028656 -0.04226342 0.02514725
v -0.06627424 -0.04226342 0.02715203
v -0.06627424 -0.04303581 0.02682658
v -0.06616983 -0.04463886 0.02610798
v -0.06442470 -0.04252457 0.02750873
v -0.06314195 -0.04263304 0.02755559
v -0.06002457 -0.04563825 0.02599603
v -0.00482163 -0.04399101 0.02575910
v -0.00482163 -0.04372685 0.02591011
v 0.03364591 -0.04701229 0.02279358
v 0.03471984 -0.04699722 0.02277014
v 0.05236510 -0.04732064 0.02148396
v -0.00482163 -0.04435862 0.02552998
v 0.00087616 -0.04659244 0.02399384
v 0.06798181 -0.04680337 0.02101270
v 0.06956288 -0.04667581 0.02092418
v 0.07111411 -0.04742209 0.02000771
v 0.07268026 -0.04724430 0.01982806
v 0.07372435 -0.04706351 0.01967705
v 0.07475354 -0.04681241 0.01946876
v 0.07499218 -0.04849179 0.01800813
v 0.07652850 -0.04689276 0.01797168
v 0.07657325 -0.04848275 0.01643554
v 0.07688647 -0.04744117 0.01693023
v 0.07796041 -0.04809404 0.01464425
v 0.07818414 -0.04705447 0.01497491
v 0.07836313 -0.04763101 0.01412353
v 0.07828855 -0.04865149 0.01360801
v 0.07843771 -0.04882525 0.01255355
v -0.07337411 -0.05169386 0.01099658
v -0.07355309 -0.05165469 0.00943962
v -0.07095777 -0.05241201 0.00943181
v -0.07252391 -0.05195902 0.01099658
v 0.07727428 -0.04963581 0.01254834
v 0.07669257 -0.05012095 0.01202762
v 0.07588713 -0.05039214 0.01254834
v 0.07424640 -0.05085216 0.01255355
v -0.04440785 -0.05222318 0.01099658
v -0.05377490 -0.05231258 0.01099658
v 0.07268026 -0.05067940 0.01411572
v -0.05220875 -0.05213982 0.01255615
v -0.06939162 -0.05223624 0.01099658
v -0.07095777 -0.05221615 0.01099658
v -0.05377490 -0.05213680 0.01255615
v -0.07355309 -0.04739296 0.01978900
v -0.06931704 -0.04454645 0.02467860
v -0.06848176 -0.04365855 0.02573566
v -0.07300121 -0.04841143 0.01951302
v -0.06888449 -0.04261697 0.02596739
v -0.06897398 -0.04226342 0.02602727
v -0.06667696 -0.04226342 0.02701404
v -0.06743767 -0.04414569 0.02598561
v -0.06661730 -0.04518727 0.02569921
v -0.06557320 -0.04540221 0.02584241
v -0.06464843 -0.04459667 0.02641260
v -0.06470809 -0.04459667 0.02640740
v -0.06314195 -0.04561917 0.02599603
v -0.06157580 -0.04564528 0.02600644
v -0.06002457 -0.04641868 0.02507695
v 0.05082878 -0.04814928 0.02071589
v 0.01802919 -0.04862738 0.02127046
v 0.06595328 -0.04851790 0.01959894
v 0.06956288 -0.04753559 0.02014309
v 0.06699738 -0.04847571 0.01955728
v 0.07111411 -0.04820352 0.01925526
v 0.07268026 -0.04802272 0.01912508
v 0.07396300 -0.04862437 0.01817736
v 0.07439556 -0.04895884 0.01738586
v 0.07505185 -0.05007675 0.01493325
v 0.07551423 -0.04879211 0.01696668
v 0.07581255 -0.04929632 0.01568310
v 0.07691631 -0.04875896 0.01539409
v 0.07740853 -0.04899902 0.01412353
v 0.07612578 -0.04978849 0.01411572
v 0.07645392 -0.04995924 0.01306386
v -0.07329953 -0.05162254 0.01179069
v -0.07355309 -0.05139956 0.01153553
v -0.07355309 -0.05149498 0.01099658
v -0.07355309 -0.05163259 0.00965832
v -0.07252391 -0.05171294 0.01206146
v 0.07533525 -0.05022038 0.01411572
v 0.07424640 -0.05049861 0.01411572
v 0.07268026 -0.05026458 0.01537847
v 0.07111411 -0.05027763 0.01547481
v 0.05082878 -0.05001046 0.01791700
v -0.03347465 -0.05171595 0.01377725
v -0.05220875 -0.05183950 0.01393347
v -0.07095777 -0.05182845 0.01228277
v -0.05377490 -0.05183046 0.01383713
v -0.07355309 -0.04812216 0.01921881
v -0.06875025 -0.04547955 0.02437137
v -0.06790005 -0.04463886 0.02544927
v -0.06790005 -0.04309708 0.02622514
v -0.07355309 -0.04873586 0.01862779
v -0.07337411 -0.05011191 0.01656052
v -0.07249408 -0.04891464 0.01891419
v -0.06470809 -0.04616054 0.02504310
v -0.06616983 -0.04581904 0.02512642
v -0.06784039 -0.04569550 0.02464214
v -0.06855634 -0.04226342 0.02625378
v -0.06782547 -0.04226342 0.02657663
v -0.06470809 -0.04550968 0.02591792
v -0.06464843 -0.04551370 0.02592312
v -0.06302262 -0.04648296 0.02489209
v -0.06157580 -0.04642671 0.02507174
v -0.06002457 -0.04695102 0.02429586
v 0.05082878 -0.04874289 0.01993741
v 0.01802919 -0.04912859 0.02035919
v 0.05082878 -0.04947511 0.01879702
v 0.06646042 -0.04888050 0.01894022
v 0.06956288 -0.04831602 0.01936201
v 0.06798181 -0.04891063 0.01870329
v 0.07111411 -0.04881119 0.01847678
v 0.07268026 -0.04873787 0.01834399
v 0.07424640 -0.04975835 0.01588618
v 0.07424640 -0.05015309 0.01510509
v -0.07355309 -0.05025654 0.01571434
v -0.07355309 -0.05129209 0.01208490
v -0.07252391 -0.05051769 0.01567529
v 0.03322828 -0.05006470 0.01802635
v -0.01629179 -0.05065429 0.01723485
v -0.01629179 -0.05019929 0.01823985
v -0.03350449 -0.05043734 0.01738066
v -0.06157580 -0.04694901 0.02429066
v -0.06244091 -0.04693997 0.02426983
v -0.07252391 -0.05013802 0.01664383
v -0.07355309 -0.04989495 0.01671934
v -0.07252391 -0.04977643 0.01742752
v -0.06347009 -0.04689678 0.02419953
v -0.06464843 -0.04617059 0.02504050
f 1 2 6
f 1 6 16
f 1 16 35
f 1 35 65
f 1 65 64
f 1 64 31
f 1 31 27
f 1 27 26
f 1 26 10
f 1 10 3
f 1 3 4
f 1 4 5
f 1 5 15
f 1 15 34
f 1 34 63
f 1 63 117
f 1 117 116
f 1 116 115
f 1 115 169
f 1 169 217
f 1 217 216
f 1 216 215
f 1 215 256
f 1 256 255
f 1 255 265
f 1 265 232
f 1 232 228
f 1 228 183
f 1 183 136
f 1 136 83
f 1 83 52
f 1 52 18
f 1 18 7
f 1 7 2
f 2 7 8
f 2 8 9
f 2 9 6
f 3 10 11
f 3 11 4
f 4 12 5
f 4 11 13
f 4 13 14
f 4 14 12
f 5 12 15
f 6 9 17
f 6 17 36
f 6 36 16
f 7 18 53
f 7 53 85
f 7 85 139
f 7 139 188
f 7 188 238
f 7 238 239
f 7 239 189
f 7 189 140
f 7 140 86
f 7 86 54
f 7 54 19
f 7 19 20
f 7 20 21
f 7 21 22
f 7 22 23
f 7 23 24
f 7 24 9
f 7 9 8
f 9 24 23
f 9 23 22
f 9 22 21
f 9 21 20
f 9 20 25
f 9 25 17
f 10 26 11
f 11 26 27
f 11 27 13
f 12 14 28
f 12 28 29
f 12 29 30
f 12 30 15
f 13 27 31
f 13 31 32
f 13 32 14
f 14 32 33
f 14 33 29
f 14 29 28
f 15 30 34
f 16 36 37
f 16 37 38
f 16 38 39
f 16 39 40
f 16 40 41
f 16 41 42
f 16 42 43
f 16 43 44
f 16 44 45
f 16 45 46
f 16 46 47
f 16 47 48
f 16 48 49
f 16 49 50
f 16 50 35
f 17 25 51
f 17 51 36
f 18 52 53
f 19 54 55
f 19 55 20
f 20 55 56
f 20 56 57
f 20 57 25
f 25 57 51
f 29 58 59
f 29 59 60
f 29 60 30
f 29 33 61
f 29 61 62
f 29 62 58
f 30 60 63
f 30 63 34
f 31 64 32
f 32 64 33
f 33 64 61
f 35 50 65
f 36 51 66
f 36 66 37
f 37 66 38
f 38 66 67
f 38 67 68
f 38 68 69
f 38 69 70
f 38 70 39
f 39 70 40
f 40 70 41
f 41 70 71
f 41 71 72
f 41 72 42
f 42 72 43
f 43 72 73
f 43 73 45
f 43 45 44
f 45 73 72
f 45 72 74
f 45 74 75
f 45 75 76
f 45 76 77
f 45 77 46
f 46 77 78
f 46 78 79
f 46 79 47
f 47 79 80
f 47 80 48
f 48 80 49
f 49 80 50
f 50 80 81
f 50 81 65
f 51 57 82
f 51 82 66
f 52 83 84
f 52 84 53
f 53 84 85
f 54 86 87
f 54 87 88
f 54 88 89
f 54 89 90
f 54 90 55
f 55 90 91
f 55 91 92
f 55 92 93
f 55 93 94
f 55 94 95
f 55 95 96
f 55 96 97
f 55 97 98
f 55 98 99
f 55 99 100
f 55 100 101
f 55 101 102
f 55 102 103
f 55 103 104
f 55 104 105
f 55 105 106
f 55 106 107
f 55 107 108
f 55 108 109
f 55 109 110
f 55 110 56
f 56 111 82
f 56 82 57
f 56 110 111
f 58 112 59
f 58 62 113
f 58 113 114
f 58 114 112
f 59 112 115
f 59 115 116
f 59 116 117
f 59 117 63
f 59 63 60
f 61 64 62
f 62 64 118
f 62 118 119
f 62 119 81
f 62 81 80
f 62 80 113
f 64 65 118
f 65 81 119
f 65 119 118
f 66 82 67
f 67 82 120
f 67 120 121
f 67 121 68
f 68 121 69
f 69 121 122
f 69 122 70
f 70 122 123
f 70 123 71
f 71 124 72
f 71 123 124
f 72 125 74
f 72 124 126
f 72 126 125
f 74 127 128
f 74 128 129
f 74 129 130
f 74 130 131
f 74 131 75
f 74 125 132
f 74 132 127
f 75 131 133
f 75 133 76
f 76 133 78
f 76 78 77
f 78 133 79
f 79 134 113
f 79 113 80
f 79 133 135
f 79 135 130
f 79 130 134
f 82 111 120
f 83 136 84
f 84 137 138
f 84 138 139
f 84 139 85
f 84 136 137
f 86 140 141
f 86 141 142
f 86 142 143
f 86 143 87
f 87 143 88
f 88 143 89
f 89 143 144
f 89 144 90
f 90 144 145
f 90 145 146
f 90 146 147
f 90 147 92
f 90 92 91
f 92 148 149
f 92 149 150
f 92 150 93
f 92 147 146
f 92 146 151
f 92 151 152
f 92 152 148
f 93 150 153
f 93 153 94
f 94 153 95
f 95 153 154
f 95 154 96
f 96 154 97
f 97 154 98
f 98 154 155
f 98 155 99
f 99 155 156
f 99 156 100
f 100 156 157
f 100 157 101
f 101 157 102
f 102 157 158
f 102 158 103
f 103 158 159
f 103 159 104
f 104 159 105
f 105 159 160
f 105 160 106
f 106 160 161
f 106 161 162
f 106 162 163
f 106 163 107
f 107 163 164
f 107 164 108
f 108 164 109
f 109 164 165
f 109 165 110
f 110 165 111
f 111 165 166
f 111 166 167
f 111 167 120
f 112 114 168
f 112 168 169
f 112 169 115
f 113 134 170
f 113 170 114
f 114 170 171
f 114 171 168
f 120 167 121
f 121 172 173
f 121 173 122
f 121 167 172
f 122 173 123
f 123 173 174
f 123 174 175
f 123 175 126
f 123 126 124
f 125 126 132
f 126 175 132
f 127 176 128
f 127 132 176
f 128 177 129
f 128 176 177
f 129 177 134
f 129 134 130
f 130 135 133
f 130 133 131
f 132 175 178
f 132 178 179
f 132 179 176
f 134 180 181
f 134 181 170
f 134 177 179
f 134 179 182
f 134 182 180
f 136 183 137
f 137 184 185
f 137 185 138
f 137 183 186
f 137 186 184
f 138 185 187
f 138 187 139
f 139 187 188
f 140 189 190
f 140 190 141
f 141 190 142
f 142 190 191
f 142 191 192
f 142 192 143
f 143 193 144
f 143 192 194
f 143 194 193
f 144 193 195
f 144 195 196
f 144 196 145
f 145 196 197
f 145 197 152
f 145 152 151
f 145 151 146
f 148 198 149
f 148 152 199
f 148 199 198
f 149 198 200
f 149 200 150
f 150 200 153
f 152 197 199
f 153 201 154
f 153 200 202
f 153 202 201
f 154 201 155
f 155 201 203
f 155 203 204
f 155 204 156
f 156 204 159
f 156 159 157
f 157 159 158
f 159 204 205
f 159 205 206
f 159 206 207
f 159 207 208
f 159 208 161
f 159 161 160
f 161 208 209
f 161 209 210
f 161 210 166
f 161 166 163
f 161 163 162
f 163 166 164
f 164 166 165
f 166 210 211
f 166 211 212
f 166 212 213
f 166 213 172
f 166 172 167
f 168 214 215
f 168 215 216
f 168 216 217
f 168 217 169
f 168 171 214
f 170 181 171
f 171 218 214
f 171 181 218
f 172 213 173
f 173 213 174
f 174 213 219
f 174 219 175
f 175 219 220
f 175 220 178
f 176 179 177
f 178 221 222
f 178 222 223
f 178 223 224
f 178 224 179
f 178 220 221
f 179 224 225
f 179 225 182
f 180 182 181
f 181 226 218
f 181 182 225
f 181 225 227
f 181 227 226
f 183 228 186
f 184 229 230
f 184 230 185
f 184 186 229
f 185 230 190
f 185 190 231
f 185 231 187
f 186 228 232
f 186 232 233
f 186 233 234
f 186 234 235
f 186 235 236
f 186 236 192
f 186 192 237
f 186 237 229
f 187 231 238
f 187 238 188
f 189 239 231
f 189 231 190
f 190 230 191
f 191 230 229
f 191 229 237
f 191 237 192
f 192 236 235
f 192 235 240
f 192 240 194
f 193 241 195
f 193 194 241
f 194 240 241
f 195 241 242
f 195 242 243
f 195 243 196
f 196 243 197
f 197 243 244
f 197 244 199
f 198 199 245
f 198 245 200
f 199 246 223
f 199 223 247
f 199 247 245
f 199 244 246
f 200 248 202
f 200 245 247
f 200 247 223
f 200 223 248
f 201 202 249
f 201 249 203
f 202 248 250
f 202 250 251
f 202 251 252
f 202 252 249
f 203 252 204
f 203 249 252
f 204 252 205
f 205 253 206
f 205 252 221
f 205 221 253
f 206 253 207
f 207 219 212
f 207 212 209
f 207 209 208
f 207 253 254
f 207 254 220
f 207 220 219
f 209 212 210
f 210 212 211
f 212 219 213
f 214 233 255
f 214 255 256
f 214 256 215
f 214 218 233
f 218 257 233
f 218 226 257
f 220 254 221
f 221 252 251
f 221 251 250
f 221 250 248
f 221 248 223
f 221 223 222
f 221 254 253
f 223 246 258
f 223 258 259
f 223 259 225
f 223 225 224
f 225 259 260
f 225 260 261
f 225 261 262
f 225 262 263
f 225 263 264
f 225 264 227
f 226 227 257
f 227 264 257
f 231 239 238
f 232 265 233
f 233 265 255
f 233 257 264
f 233 264 266
f 233 266 234
f 234 266 267
f 234 267 235
f 235 267 268
f 235 268 240
f 240 268 241
f 241 268 242
f 242 263 243
f 242 268 267
f 242 267 263
f 243 263 262
f 243 262 244
f 244 262 260
f 244 260 246
f 246 260 259
f 246 259 258
f 260 262 261
f 263 267 266
f 263 266 264

