# https://github.com/mikedh/trimesh
v -0.07401291 -0.04226242 0.01949420
v -0.06466271 -0.04226242 0.02569055
v -0.07401291 -0.04226242 0.02200579
v -0.07401291 0.00098339 0.02312720
v -0.06846923 0.00098339 0.02280667
v -0.06784320 0.00098339 0.02280939
v -0.06655544 0.00098339 0.02295558
v -0.06498396 0.00098339 0.02326613
v -0.06466271 0.00098339 0.02333514
v -0.06466271 0.00096646 0.02333514
v -0.06466271 0.00068707 0.02333968
v -0.06466271 -0.04226242 0.02755200
v -0.07160305 -0.04226242 0.02411876
v -0.07165339 -0.04206770 0.02417506
v -0.07355894 -0.03798271 0.02451466
v -0.07401291 -0.04155125 0.02235447
v -0.07401291 0.00098339 0.02513030
v -0.06466271 0.00098339 0.02499410
v -0.06466271 -0.04208039 0.02762918
v -0.06549925 -0.04224972 0.02738583
v -0.06549009 -0.04226242 0.02738219
v -0.07084797 -0.04226242 0.02474439
v -0.07296311 -0.03678473 0.02556615
v -0.07401291 -0.03678473 0.02461000
v -0.07401291 -0.03837639 0.02386633
v -0.07383443 -0.03678473 0.02478616
v -0.07252563 0.00098339 0.02513484
v -0.07401291 -0.00399902 0.02625080
v -0.07398179 -0.00399902 0.02627259
v -0.07238834 -0.00413872 0.02700446
v -0.07177604 -0.00475676 0.02739763
v -0.07096421 -0.00472712 0.02740671
v -0.07096421 -0.00394822 0.02709889
v -0.06466271 -0.00399902 0.02647054
v -0.06997665 -0.00473559 0.02740399
v -0.06466271 -0.04160628 0.02777628
v -0.06487504 -0.04162321 0.02775358
v -0.06551023 -0.04226242 0.02737766
v -0.06628179 -0.04121260 0.02758559
v -0.07029150 -0.04226242 0.02514937
v -0.07218240 -0.03678473 0.02611460
v -0.07322762 -0.03576877 0.02575048
v -0.07401291 -0.03528619 0.02510215
v -0.07401291 -0.00405405 0.02625625
v -0.07401291 -0.00451547 0.02629802
v -0.07258420 -0.00556105 0.02712886
v -0.07180349 -0.00556105 0.02740671
v -0.06940370 -0.02741678 0.02825935
v -0.06940370 -0.02585475 0.02822847
v -0.06466271 -0.02445358 0.02875694
v -0.06466271 -0.00738554 0.02721603
v -0.06825689 -0.00605210 0.02741670
v -0.06466271 -0.03990879 0.02819488
v -0.06472037 -0.03990879 0.02819488
v -0.06628179 -0.03990879 0.02797877
v -0.06628179 -0.04199150 0.02726688
v -0.06628179 -0.04226242 0.02715428
v -0.06718788 -0.04086548 0.02745302
v -0.06968743 -0.04226242 0.02555979
v -0.07033451 -0.03626405 0.02747936
v -0.06897903 -0.04226242 0.02602833
v -0.07135776 -0.03522270 0.02712432
v -0.07263454 -0.03523540 0.02628167
v -0.07337955 -0.03472319 0.02589758
v -0.07401291 -0.03518460 0.02513121
v -0.07401291 -0.00556105 0.02638065
v -0.07193803 -0.02585475 0.02750841
v -0.07096421 -0.02741678 0.02791521
v -0.06940370 -0.02897881 0.02826116
v -0.06466271 -0.02561769 0.02877056
v -0.06466271 -0.00819407 0.02733498
v -0.06466271 -0.03834676 0.02828205
v -0.06472037 -0.03834676 0.02828477
v -0.06628179 -0.03834676 0.02825027
v -0.06748625 -0.03990879 0.02761283
v -0.06784320 -0.03678473 0.02822847
v -0.06795029 -0.03844412 0.02783348
v -0.06667809 -0.04226242 0.02701445
v -0.06897903 -0.03798694 0.02757651
v -0.06855710 -0.04226242 0.02625625
v -0.06783863 -0.04226242 0.02657950
v -0.06946045 -0.03678473 0.02772997
v -0.07057706 -0.03522270 0.02760194
v -0.07162319 -0.03366067 0.02727686
v -0.07172936 -0.03278017 0.02736585
v -0.07346925 -0.03366067 0.02598656
v -0.07401291 -0.03366067 0.02542087
v -0.07401291 -0.00705112 0.02636612
v -0.07193620 -0.02741678 0.02750841
v -0.07096421 -0.02897881 0.02790522
v -0.06466271 -0.02571929 0.02877056
v -0.06940370 -0.03210287 0.02819578
v -0.06784320 -0.03522270 0.02830929
v -0.06628179 -0.03678473 0.02833108
v -0.06940370 -0.03366067 0.02815220
v -0.06940370 -0.03522270 0.02804051
v -0.07084248 -0.03366067 0.02770908
v -0.07180258 -0.03174305 0.02742215
v -0.07240390 -0.03220023 0.02694271
v -0.07354613 -0.03210287 0.02606829
v -0.07401291 -0.03313576 0.02547535
v -0.07401291 -0.00712308 0.02636521
v -0.07191241 -0.02897881 0.02749207
v -0.07269311 -0.02897881 0.02690094
v -0.07186298 -0.03054084 0.02745938
v -0.07096421 -0.03054084 0.02784710
v -0.07111065 -0.03220023 0.02769819
v -0.07264369 -0.03054084 0.02688641
v -0.07357999 -0.03054084 0.02610552
v -0.07401291 -0.03054084 0.02565332
v -0.07401291 -0.03210287 0.02557432
v -0.07401291 -0.01498403 0.02618724
f 1 2 12
f 1 12 21
f 1 21 38
f 1 38 57
f 1 57 78
f 1 78 81
f 1 81 80
f 1 80 61
f 1 61 59
f 1 59 40
f 1 40 22
f 1 22 13
f 1 13 3
f 1 3 16
f 1 16 25
f 1 25 24
f 1 24 43
f 1 43 65
f 1 65 87
f 1 87 101
f 1 101 111
f 1 111 110
f 1 110 112
f 1 112 102
f 1 102 88
f 1 88 66
f 1 66 45
f 1 45 44
f 1 44 28
f 1 28 17
f 1 17 4
f 1 4 5
f 1 5 6
f 1 6 7
f 1 7 8
f 1 8 9
f 1 9 10
f 1 10 11
f 1 11 2
f 2 11 10
f 2 10 9
f 2 9 18
f 2 18 34
f 2 34 51
f 2 51 71
f 2 71 50
f 2 50 70
f 2 70 91
f 2 91 72
f 2 72 53
f 2 53 36
f 2 36 19
f 2 19 12
f 3 13 14
f 3 14 15
f 3 15 16
f 4 17 27
f 4 27 18
f 4 18 9
f 4 9 8
f 4 8 7
f 4 7 6
f 4 6 5
f 12 19 20
f 12 20 21
f 13 22 14
f 14 22 23
f 14 23 15
f 15 24 25
f 15 25 16
f 15 23 26
f 15 26 24
f 17 28 29
f 17 29 30
f 17 30 31
f 17 31 32
f 17 32 33
f 17 33 27
f 18 27 35
f 18 35 34
f 19 36 37
f 19 37 20
f 20 38 21
f 20 37 39
f 20 39 38
f 22 40 23
f 23 40 41
f 23 41 42
f 23 42 26
f 24 26 42
f 24 42 43
f 27 33 35
f 28 44 29
f 29 44 45
f 29 45 46
f 29 46 31
f 29 31 30
f 31 46 47
f 31 47 48
f 31 48 49
f 31 49 50
f 31 50 32
f 32 35 33
f 32 50 35
f 34 35 51
f 35 50 52
f 35 52 51
f 36 53 54
f 36 54 37
f 37 54 55
f 37 55 39
f 38 39 56
f 38 56 57
f 39 55 58
f 39 58 56
f 40 59 41
f 41 60 42
f 41 59 61
f 41 61 60
f 42 60 62
f 42 62 63
f 42 63 64
f 42 64 43
f 43 64 65
f 45 66 46
f 46 66 67
f 46 67 68
f 46 68 47
f 47 68 48
f 48 68 69
f 48 69 70
f 48 70 50
f 48 50 49
f 50 71 52
f 51 52 71
f 53 72 73
f 53 73 54
f 54 73 74
f 54 74 55
f 55 75 58
f 55 74 76
f 55 76 77
f 55 77 75
f 56 58 57
f 57 58 78
f 58 75 79
f 58 79 80
f 58 80 81
f 58 81 78
f 60 61 80
f 60 80 79
f 60 79 82
f 60 82 83
f 60 83 62
f 62 83 84
f 62 84 63
f 63 84 64
f 64 84 85
f 64 85 86
f 64 86 87
f 64 87 65
f 66 88 89
f 66 89 67
f 67 89 68
f 68 89 90
f 68 90 69
f 69 91 70
f 69 90 92
f 69 92 93
f 69 93 91
f 72 91 73
f 73 91 94
f 73 94 74
f 74 94 93
f 74 93 76
f 75 77 82
f 75 82 79
f 76 93 95
f 76 95 96
f 76 96 82
f 76 82 77
f 82 96 83
f 83 96 97
f 83 97 85
f 83 85 84
f 85 97 98
f 85 98 99
f 85 99 86
f 86 99 100
f 86 100 87
f 87 100 101
f 88 102 89
f 89 103 90
f 89 102 104
f 89 104 103
f 90 103 105
f 90 105 106
f 90 106 95
f 90 95 92
f 91 93 94
f 92 95 93
f 95 106 97
f 95 97 96
f 97 106 107
f 97 107 98
f 98 105 108
f 98 108 99
f 98 107 105
f 99 108 100
f 100 108 109
f 100 109 110
f 100 110 111
f 100 111 101
f 102 112 104
f 103 104 108
f 103 108 105
f 104 109 108
f 104 112 109
f 105 107 106
f 109 112 110

