# https://github.com/mikedh/trimesh
v 0.05394196 0.04909645 -0.02338688
v 0.05394196 0.05065851 -0.02328623
v 0.05551219 0.04909645 -0.02335812
v 0.05551219 0.04896158 -0.02335333
v 0.05407916 0.04896158 -0.02337250
v -0.06667643 0.04898908 -0.02337729
v 0.05394196 0.05171778 -0.02284530
v 0.06487262 0.05031546 -0.02273507
v 0.06487262 0.04909645 -0.02290281
v 0.05564940 0.04896158 -0.02334854
v 0.06500982 0.04896158 -0.02290761
v -0.02803037 0.04207174 -0.01163989
v -0.06939004 0.04898908 -0.02273027
v -0.06939004 0.04960840 -0.02243792
v -0.06667643 0.04903098 -0.02335333
v 0.06174739 0.05337411 -0.02133559
v 0.06331763 0.05337804 -0.02134997
v 0.06487262 0.05330734 -0.02129245
v 0.06487262 0.05221926 -0.02183403
v -0.06667643 0.04938058 -0.02315203
v -0.06667643 0.04997895 -0.02270152
v 0.06642761 0.05008894 -0.02265359
v 0.06642761 0.04909645 -0.02281654
v 0.06658006 0.04896158 -0.02282134
v -0.01632221 0.04905324 0.02552297
v -0.07481725 0.04767448 0.02007363
v -0.07504593 0.04767448 0.02007363
v -0.07692106 0.04767448 0.02006884
v -0.07734792 0.04767448 0.01890420
v -0.07737841 0.04767448 0.01879397
v -0.07798821 0.04767448 0.01649346
v -0.07809493 0.04767448 0.01564035
v -0.07815590 0.04767448 0.01426963
v -0.07820164 0.04767448 0.01254904
v -0.07820164 0.04767448 0.01098661
v -0.07818640 0.04767448 0.00942897
v -0.07814066 0.04767448 0.00786654
v -0.07803395 0.04767448 0.00643351
v -0.07725645 0.04767448 0.00098896
v -0.07493921 0.04898908 -0.01957665
v -0.07490872 0.04898908 -0.01962458
v -0.07384157 0.04898908 -0.02062147
v -0.07282016 0.04898908 -0.02140269
v -0.07257623 0.04898908 -0.02157043
v -0.07243903 0.04898908 -0.02165670
v -0.07106698 0.04898908 -0.02231331
v -0.07092978 0.04898908 -0.02235165
v -0.07042669 0.04898908 -0.02247626
v 0.06837897 0.04896158 -0.02264880
v 0.06912597 0.04896158 -0.02255774
v 0.06985773 0.04896158 -0.02245709
v 0.07090963 0.04896158 -0.02222704
v 0.07112306 0.04896158 -0.02216473
v 0.07267806 0.04896158 -0.02167587
v 0.07376045 0.04896158 -0.02123015
v 0.07453794 0.04896158 -0.02052562
v 0.07523921 0.04896158 -0.01974440
v 0.07574230 0.04896158 -0.01867083
v 0.07661126 0.04896158 -0.01640866
v 0.07680945 0.04896158 -0.01556035
v 0.07712959 0.04896158 -0.01398354
v 0.07731253 0.04896158 -0.01242110
v 0.06331763 0.04797040 0.00786174
v -0.00572694 0.04905324 0.02488553
v -0.07100600 0.04907680 -0.02229414
v -0.06844484 0.04981005 -0.02252419
v -0.07211888 0.05010727 -0.02126849
v -0.07094502 0.05030629 -0.02149375
v 0.06331763 0.05415973 -0.02026681
v 0.06475066 0.05412700 -0.02007989
v 0.06642761 0.05312796 -0.02112471
v 0.06642761 0.05221926 -0.02161836
v 0.06642761 0.05086931 -0.02227976
v -0.06739294 0.04994884 -0.02265838
v -0.07094502 0.05162743 -0.01974919
v 0.06734231 0.04991348 -0.02258649
v -0.03662854 0.05034295 0.02469382
v -0.03662854 0.04923916 0.02547025
v -0.03662854 0.04905324 0.02557569
v -0.00572694 0.04909776 0.02487595
v 0.07109258 0.05491916 0.01849203
v -0.00572694 0.05095835 0.02395095
v -0.07669238 0.04892623 0.02007363
v -0.03697918 0.04905324 0.02556610
v -0.03818353 0.04905324 0.02553255
v -0.04751347 0.04905324 0.02504849
v -0.05844413 0.04905324 0.02444940
v -0.07099076 0.04905324 0.02362984
v -0.07160056 0.04905324 0.02355795
v -0.07160056 0.04909776 0.02355315
v -0.07667714 0.04909645 0.02002570
v -0.07707351 0.04909645 0.01879397
v -0.07791198 0.04823358 0.01609087
v -0.07798821 0.04834095 0.01505564
v -0.07800346 0.04841034 0.01411147
v -0.07803395 0.04856616 0.01098661
v -0.07803395 0.04863555 0.00942897
v -0.07801870 0.04857008 0.00786654
v -0.07733267 0.04909645 -0.01086347
v -0.07733267 0.04898908 -0.01086347
v -0.07718023 0.04898908 -0.01242590
v -0.07690581 0.04898908 -0.01410335
v -0.07653993 0.04898908 -0.01583832
v -0.07620454 0.04898908 -0.01683042
v -0.07609783 0.04898908 -0.01709881
v -0.07541180 0.04898908 -0.01867083
v -0.07493921 0.04909645 -0.01956707
v -0.07486298 0.04988992 -0.01945684
v -0.07315555 0.04967125 -0.02089945
v -0.07257623 0.04912918 -0.02150813
v 0.06955283 0.04932689 -0.02239478
v 0.07267806 0.05030891 -0.02127807
v 0.07359276 0.05004311 -0.02110074
v 0.07267806 0.04909645 -0.02165670
v 0.07374520 0.04909645 -0.02121577
v 0.07452270 0.04909645 -0.02051603
v 0.07523921 0.04909645 -0.01973482
v 0.07574230 0.04909645 -0.01867083
v 0.07661126 0.04909645 -0.01640866
v 0.07682469 0.04909645 -0.01554597
v 0.07714484 0.04909645 -0.01398354
v 0.07732778 0.04909645 -0.01242110
v 0.07734302 0.04896158 -0.01086347
v 0.07749547 0.04896158 0.00098417
v 0.06424757 0.04823227 0.00897845
v 0.06331763 0.04847450 0.00980280
v 0.04926175 0.05078028 0.01849682
v 0.07109258 0.05275872 0.01848723
v 0.07109258 0.05486547 0.01849203
v -0.07407025 0.05013739 -0.01976837
v -0.07254575 0.05067946 -0.02025243
v -0.07192070 0.05154102 -0.01959583
v -0.07094502 0.05108667 -0.02053041
v 0.06170166 0.05422389 -0.02009427
v 0.06218950 0.05457480 -0.01948080
v 0.06331763 0.05457480 -0.01948080
v 0.06415610 0.05456694 -0.01946163
v 0.06955283 0.05331389 -0.01986901
v 0.06642761 0.05370407 -0.02022847
v 0.07112306 0.05312665 -0.01961020
v 0.06723559 0.05300488 -0.02101448
v 0.06955283 0.05176754 -0.02123494
v 0.06784539 0.05225593 -0.02131642
v 0.06955283 0.05065851 -0.02183403
v 0.06792162 0.05052364 -0.02218870
v -0.07094502 0.05209618 -0.01867083
v -0.03662854 0.05112333 0.02396533
v -0.04595848 0.05112071 0.02399888
v -0.04595848 0.05034165 0.02460755
v -0.00694654 0.05179896 0.02317453
v -0.04751347 0.05032070 0.02457880
v -0.05844413 0.05013215 0.02439668
v 0.07752596 0.04973541 0.00098417
v 0.07751072 0.05065851 0.00098417
v 0.07741925 0.05129748 0.00098417
v 0.07722106 0.05221926 0.00098417
v 0.07677895 0.05324711 0.00098417
v 0.07109258 0.05527530 0.01725550
v 0.06955283 0.05535779 0.01723154
v 0.06830274 0.05504486 0.01849203
v -0.00572694 0.05160648 0.02334707
v -0.07664665 0.04909645 0.02007363
v -0.07160056 0.05001038 0.02341896
v -0.05844413 0.04909776 0.02445419
v -0.07094502 0.04909776 0.02363463
v -0.07649420 0.05005490 0.01973335
v -0.07663140 0.05028796 0.01879397
v -0.07739366 0.04909645 0.01723154
v -0.07768331 0.04895373 0.01561159
v -0.07768331 0.04918810 0.01411147
v -0.07727170 0.05065720 0.00942897
v -0.07775954 0.04941462 0.00942897
v -0.07707351 0.05065589 -0.00930583
v -0.07681435 0.05053281 -0.01242590
v -0.07718023 0.04909645 -0.01242590
v -0.07693631 0.04909645 -0.01398833
v -0.07657042 0.04910823 -0.01567537
v -0.07638749 0.04963590 -0.01629363
v -0.07614357 0.04910823 -0.01697420
v -0.07539656 0.04909645 -0.01867083
v -0.07507641 0.05019893 -0.01867083
v -0.07471053 0.05133414 -0.01771228
v -0.07414647 0.05096097 -0.01868521
v 0.07112306 0.05074886 -0.02145541
v 0.07060473 0.05155411 -0.02109595
v 0.07267806 0.05108929 -0.02075567
v 0.07377569 0.05176230 -0.01973482
v 0.07420255 0.05058519 -0.02019013
v 0.07514774 0.05008632 -0.01960541
v 0.07659602 0.04992658 -0.01637990
v 0.07725155 0.05065851 -0.01242110
v 0.07671798 0.05028927 -0.01554597
v 0.07693141 0.05080123 -0.01412253
v 0.07731253 0.05065851 -0.01086347
v 0.07754121 0.05065851 0.00006397
v 0.07735827 0.04909645 -0.01086347
v 0.07751072 0.04909645 0.00098417
v -0.07297261 0.05125165 -0.01921241
v -0.07367388 0.05162481 -0.01817238
v -0.07246952 0.05181467 -0.01868521
v 0.00710934 0.05537481 0.00006397
v 0.07267806 0.05488904 -0.01398354
v -0.07251526 0.05305856 -0.01503794
v -0.07251526 0.05329163 -0.01398833
v -0.07251526 0.05361766 -0.01242590
v -0.07251526 0.05460491 -0.00720182
v -0.05844413 0.05532375 0.00474167
v 0.07267806 0.05466122 -0.01510024
v 0.07356226 0.05461408 -0.01491812
v 0.07112306 0.05355088 -0.01867083
v 0.07254085 0.05325365 -0.01867083
v 0.07193105 0.05301011 -0.01946163
v 0.06827225 0.05280324 -0.02085152
v -0.07251526 0.05237115 -0.01710840
v -0.07335373 0.05301143 -0.01480789
v -0.04595848 0.05192989 0.02321766
v -0.05844413 0.05193382 0.02314577
v -0.06001436 0.05194430 0.02311702
v -0.05844413 0.05091252 0.02392699
v -0.00572694 0.05179503 0.02316974
v 0.06673251 0.05507235 0.01849203
v -0.06001436 0.05272337 0.02229746
v -0.06939004 0.05180682 0.02299720
v -0.07094502 0.05065851 0.02340458
v -0.06001436 0.04998419 0.02431040
v 0.07737351 0.05221926 -0.00150326
v 0.07729729 0.05221926 0.00006397
v 0.07693141 0.05346053 -0.00150326
v 0.07683994 0.05332567 0.00006397
v 0.07109258 0.05528185 0.01723154
v 0.07109258 0.05542195 0.01569307
v 0.06955283 0.05544814 0.01566431
v 0.06799784 0.05537351 0.01723154
v -0.07160056 0.05068077 0.02326080
v -0.07606734 0.05039402 0.02007363
v -0.07515264 0.05168636 0.02000174
v -0.07615881 0.05106834 0.01879397
v -0.07679910 0.05053150 0.01723154
v -0.07679910 0.05080385 0.01571703
v -0.07718023 0.05065720 0.01098661
v -0.07669238 0.05181860 0.00942897
v -0.07670763 0.05185919 0.00786654
v -0.07727170 0.05065720 0.00786654
v -0.07660092 0.05193644 -0.00773860
v -0.07626553 0.05271551 -0.00773860
v -0.07686008 0.05080647 -0.01099766
v -0.07650945 0.05161434 -0.01057111
v -0.07667714 0.05030106 -0.01398833
v -0.07653993 0.05007716 -0.01524882
v -0.07541180 0.05075278 -0.01716112
v -0.07500019 0.05159994 -0.01667705
v -0.07490872 0.05303761 -0.01335089
v -0.07414647 0.05185134 -0.01716112
v 0.06955283 0.05254791 -0.02065023
v 0.07254085 0.05225593 -0.01988339
v 0.07296771 0.05280193 -0.01919324
v 0.07369947 0.05316069 -0.01814842
v 0.07426353 0.05220355 -0.01863249
v 0.07482760 0.05112857 -0.01911176
v 0.07511725 0.05160518 -0.01806694
v 0.07534593 0.05062840 -0.01862290
v 0.07609293 0.05053150 -0.01698858
v 0.07673322 0.05185788 -0.01370076
v 0.07656553 0.05141663 -0.01474079
v 0.07683994 0.05213939 -0.01242110
v -0.07439039 0.05285168 -0.01439092
v 0.07109258 0.05541802 0.00944814
v 0.07267806 0.05496630 -0.01242110
v -0.05688914 0.05540231 0.00630411
v -0.00850153 0.05543635 0.00630411
v 0.07392814 0.05480132 -0.01242110
v 0.07377569 0.05472930 -0.01398354
v -0.07407025 0.05342125 -0.01242590
v -0.07330800 0.05456039 -0.00698135
v -0.07204266 0.05464943 0.00942897
v -0.05844413 0.05538791 0.00630411
v 0.07455319 0.05424484 -0.01398354
v 0.07415682 0.05403403 -0.01547887
v 0.07423304 0.05335971 -0.01702213
v -0.07394828 0.05311355 -0.01391644
v 0.06517752 0.05506973 0.01849203
v -0.06156935 0.05320914 0.02150666
v -0.06312434 0.05320128 0.02145394
v -0.06156935 0.05267623 0.02228308
v -0.06781980 0.05260945 0.02203865
v -0.06951199 0.05266182 0.02181339
v -0.07094502 0.05170076 0.02293489
v -0.07160056 0.05162219 0.02286779
v 0.07690092 0.05341470 -0.00305131
v 0.07572705 0.05420687 -0.00303214
v 0.07516299 0.05460753 -0.00249535
v 0.07572705 0.05427102 -0.00144095
v 0.07109258 0.05542326 0.01566431
v 0.07516299 0.05460753 -0.00191543
v 0.00553911 0.05538529 0.01411147
v 0.07109258 0.05544028 0.01413064
v 0.00399936 0.05517841 0.01566911
v -0.06312434 0.05366086 0.02035161
v -0.07524411 0.05150174 0.02007363
v -0.07500019 0.05173611 0.02007363
v -0.07318604 0.05292501 0.01939785
v -0.07400927 0.05268147 0.01884669
v -0.07538132 0.05187883 0.01879397
v -0.07631126 0.05131188 0.01723154
v -0.07638749 0.05141925 0.01626820
v -0.07664665 0.05172564 0.01098661
v -0.07609783 0.05259898 0.00942897
v -0.07614357 0.05263957 0.00786654
v -0.07628077 0.05273646 -0.00618096
v -0.07550327 0.05358623 -0.00618096
v -0.07548803 0.05355743 -0.00773860
v -0.07535083 0.05342256 -0.00930583
v -0.07614357 0.05253875 -0.00930583
v -0.07605210 0.05216820 -0.01099766
v -0.07614357 0.05108143 -0.01398833
v -0.07603685 0.05062185 -0.01567537
v -0.07518313 0.05184086 -0.01554597
v -0.07393304 0.05426841 -0.00759482
v -0.07501544 0.05313320 -0.01242590
v 0.07508676 0.05307035 -0.01644700
v 0.07473613 0.05264481 -0.01749182
v 0.07531544 0.05216296 -0.01702213
v 0.07638259 0.05231354 -0.01412253
v 0.07653504 0.05291977 -0.01242110
v 0.07658077 0.05299440 -0.01160634
v 0.07437025 0.05481572 -0.00144095
v -0.05688914 0.05534077 0.00786654
v 0.07470564 0.05434697 -0.01242110
v -0.07393304 0.05431423 -0.00631037
v -0.07330800 0.05456039 -0.00691905
v -0.07196644 0.05463241 0.01055047
v -0.07407025 0.05391096 0.00942897
v -0.05844413 0.05529101 0.00786654
v 0.07575754 0.05356659 -0.01242110
v 0.07557460 0.05346315 -0.01398354
v 0.07526970 0.05323663 -0.01554597
v -0.06469458 0.05361635 0.02035161
v -0.06469458 0.05316462 0.02140601
v -0.07012179 0.05298655 0.02112803
v -0.07094502 0.05236329 0.02191404
v -0.06908513 0.05303237 0.02121909
v -0.07160056 0.05189585 0.02245083
v 0.00399936 0.05537351 0.01411147
v -0.06469458 0.05388869 0.01879397
v -0.06626481 0.05384549 0.01879397
v -0.07381108 0.05233056 0.02007363
v -0.07260673 0.05323663 0.01884669
v -0.07344520 0.05306118 0.01835783
v -0.07216462 0.05314629 0.01990588
v -0.07437514 0.05278229 0.01723154
v -0.07521362 0.05330210 0.01098661
v -0.07532033 0.05340816 0.00942897
v -0.07536607 0.05344875 0.00786654
v -0.07519837 0.05327984 -0.01086347
v -0.05688914 0.05516270 0.00942897
v -0.07160056 0.05343566 0.01881314
v -0.07094502 0.05356005 0.01879397
v -0.06939004 0.05366610 0.01879397
v -0.06781980 0.05376299 0.01879397
v -0.07407025 0.05379966 0.01098661
v -0.06626481 0.05351815 0.02035161
v -0.06951199 0.05326675 0.02050498
v -0.07094502 0.05324973 0.02020303
v -0.07160056 0.05319474 0.02004487
v -0.07094502 0.05288049 0.02098904
v -0.07231707 0.05299048 0.02007363
v -0.07160056 0.05333877 0.01938827
v -0.06781980 0.05341863 0.02035161
f 1 2 3
f 1 3 4
f 1 4 5
f 1 5 6
f 1 6 2
f 2 7 8
f 2 8 9
f 2 9 3
f 2 6 7
f 3 10 4
f 3 9 11
f 3 11 10
f 4 10 12
f 4 12 5
f 5 12 6
f 6 12 13
f 6 13 14
f 6 14 15
f 6 15 7
f 7 16 17
f 7 17 18
f 7 18 19
f 7 19 8
f 7 15 20
f 7 20 21
f 7 21 16
f 8 19 22
f 8 22 23
f 8 23 9
f 9 23 24
f 9 24 11
f 10 11 12
f 11 24 12
f 12 25 26
f 12 26 27
f 12 27 28
f 12 28 29
f 12 29 30
f 12 30 31
f 12 31 32
f 12 32 33
f 12 33 34
f 12 34 35
f 12 35 36
f 12 36 37
f 12 37 38
f 12 38 39
f 12 39 40
f 12 40 41
f 12 41 42
f 12 42 43
f 12 43 44
f 12 44 45
f 12 45 46
f 12 46 47
f 12 47 48
f 12 48 13
f 12 24 49
f 12 49 50
f 12 50 51
f 12 51 52
f 12 52 53
f 12 53 54
f 12 54 55
f 12 55 56
f 12 56 57
f 12 57 58
f 12 58 59
f 12 59 60
f 12 60 61
f 12 61 62
f 12 62 63
f 12 63 64
f 12 64 25
f 13 48 65
f 13 65 14
f 14 66 20
f 14 20 15
f 14 65 67
f 14 67 68
f 14 68 66
f 16 69 17
f 16 21 69
f 17 69 18
f 18 69 70
f 18 70 71
f 18 71 72
f 18 72 19
f 19 72 73
f 19 73 22
f 20 66 74
f 20 74 21
f 21 74 75
f 21 75 69
f 22 73 76
f 22 76 49
f 22 49 23
f 23 49 24
f 25 77 78
f 25 78 79
f 25 79 26
f 25 64 80
f 25 80 81
f 25 81 82
f 25 82 77
f 26 79 27
f 27 79 28
f 28 83 29
f 28 79 84
f 28 84 85
f 28 85 86
f 28 86 87
f 28 87 88
f 28 88 89
f 28 89 90
f 28 90 83
f 29 83 91
f 29 91 92
f 29 92 30
f 30 92 31
f 31 93 32
f 31 92 93
f 32 93 94
f 32 94 33
f 33 94 95
f 33 95 34
f 34 95 96
f 34 96 97
f 34 97 35
f 35 97 36
f 36 97 98
f 36 98 37
f 37 98 99
f 37 99 100
f 37 100 38
f 38 100 101
f 38 101 39
f 39 101 102
f 39 102 103
f 39 103 104
f 39 104 105
f 39 105 106
f 39 106 40
f 40 106 107
f 40 107 41
f 41 107 108
f 41 108 42
f 42 108 109
f 42 109 43
f 43 109 44
f 44 109 110
f 44 110 45
f 45 110 67
f 45 67 46
f 46 67 65
f 46 65 47
f 47 65 48
f 49 76 50
f 50 76 51
f 51 76 111
f 51 111 52
f 52 111 112
f 52 112 113
f 52 113 53
f 53 113 114
f 53 114 54
f 54 114 55
f 55 114 115
f 55 115 116
f 55 116 56
f 56 116 117
f 56 117 57
f 57 117 118
f 57 118 58
f 58 118 119
f 58 119 59
f 59 119 120
f 59 120 60
f 60 120 121
f 60 121 61
f 61 121 122
f 61 122 62
f 62 122 196
f 62 196 123
f 62 123 63
f 63 123 124
f 63 124 125
f 63 125 64
f 64 125 126
f 64 126 127
f 64 127 128
f 64 128 129
f 64 129 81
f 64 81 80
f 66 68 74
f 67 110 109
f 67 109 108
f 67 108 130
f 67 130 131
f 67 131 132
f 67 132 68
f 68 132 133
f 68 133 74
f 69 75 134
f 69 134 135
f 69 135 136
f 69 136 137
f 69 137 70
f 70 137 138
f 70 138 139
f 70 139 71
f 71 139 138
f 71 138 140
f 71 140 141
f 71 141 142
f 71 142 143
f 71 143 72
f 72 143 144
f 72 144 145
f 72 145 73
f 73 145 76
f 74 133 75
f 75 133 132
f 75 132 146
f 75 146 135
f 75 135 134
f 76 145 144
f 76 144 111
f 77 147 148
f 77 148 149
f 77 149 78
f 77 82 150
f 77 150 147
f 78 149 79
f 79 149 151
f 79 151 152
f 79 152 84
f 81 129 153
f 81 153 154
f 81 154 155
f 81 155 156
f 81 156 157
f 81 157 158
f 81 158 159
f 81 159 160
f 81 160 82
f 82 160 161
f 82 161 150
f 83 162 91
f 83 90 163
f 83 163 162
f 84 152 85
f 85 152 86
f 86 152 164
f 86 164 87
f 87 164 88
f 88 164 165
f 88 165 89
f 89 165 90
f 90 165 163
f 91 162 166
f 91 166 92
f 92 166 167
f 92 167 168
f 92 168 93
f 93 168 169
f 93 169 94
f 94 169 170
f 94 170 95
f 95 170 171
f 95 171 172
f 95 172 96
f 96 172 97
f 97 172 173
f 97 173 98
f 98 173 99
f 99 173 174
f 99 174 175
f 99 175 101
f 99 101 100
f 101 175 176
f 101 176 102
f 102 176 103
f 103 176 177
f 103 177 178
f 103 178 104
f 104 178 179
f 104 179 105
f 105 179 106
f 106 179 178
f 106 178 180
f 106 180 107
f 107 180 108
f 108 181 182
f 108 182 183
f 108 183 130
f 108 180 178
f 108 178 181
f 111 144 184
f 111 184 112
f 112 184 185
f 112 185 186
f 112 186 113
f 113 186 187
f 113 187 188
f 113 188 189
f 113 189 116
f 113 116 115
f 113 115 114
f 116 189 117
f 117 189 118
f 118 189 190
f 118 190 119
f 119 190 120
f 120 190 121
f 121 191 122
f 121 190 192
f 121 192 193
f 121 193 191
f 122 191 194
f 122 194 195
f 122 195 196
f 123 196 197
f 123 197 124
f 124 197 128
f 124 128 125
f 125 128 126
f 126 128 127
f 128 197 153
f 128 153 129
f 130 183 131
f 131 183 198
f 131 198 132
f 132 198 199
f 132 199 200
f 132 200 146
f 135 201 202
f 135 202 136
f 135 146 203
f 135 203 204
f 135 204 205
f 135 205 206
f 135 206 207
f 135 207 201
f 136 202 137
f 137 202 208
f 137 208 209
f 137 209 210
f 137 210 140
f 137 140 138
f 140 210 211
f 140 211 212
f 140 212 141
f 141 213 185
f 141 185 142
f 141 212 213
f 142 185 184
f 142 184 144
f 142 144 143
f 146 200 214
f 146 214 215
f 146 215 203
f 147 216 148
f 147 150 216
f 148 216 217
f 148 217 218
f 148 218 149
f 149 218 219
f 149 219 151
f 150 161 220
f 150 220 221
f 150 221 222
f 150 222 216
f 151 219 152
f 152 219 223
f 152 223 224
f 152 224 225
f 152 225 164
f 153 195 154
f 153 197 195
f 154 195 226
f 154 226 155
f 155 226 227
f 155 227 156
f 156 227 228
f 156 228 229
f 156 229 157
f 157 229 230
f 157 230 158
f 158 230 159
f 159 231 232
f 159 232 233
f 159 233 221
f 159 221 160
f 159 230 231
f 160 221 220
f 160 220 161
f 162 163 234
f 162 234 235
f 162 235 166
f 163 165 224
f 163 224 234
f 164 225 165
f 165 225 224
f 166 235 236
f 166 236 237
f 166 237 167
f 167 237 238
f 167 238 168
f 168 238 169
f 169 238 239
f 169 239 170
f 170 239 240
f 170 240 171
f 171 240 241
f 171 241 242
f 171 242 243
f 171 243 172
f 172 243 173
f 173 243 244
f 173 244 245
f 173 245 246
f 173 246 174
f 174 246 247
f 174 247 248
f 174 248 175
f 175 248 249
f 175 249 176
f 176 249 178
f 176 178 177
f 178 249 250
f 178 250 181
f 181 250 182
f 182 250 251
f 182 251 252
f 182 252 253
f 182 253 199
f 182 199 183
f 183 199 198
f 185 213 254
f 185 254 255
f 185 255 186
f 186 255 187
f 187 255 256
f 187 256 257
f 187 257 258
f 187 258 259
f 187 259 189
f 187 189 188
f 189 259 260
f 189 260 261
f 189 261 262
f 189 262 190
f 190 263 192
f 190 262 264
f 190 264 263
f 191 226 194
f 191 193 263
f 191 263 265
f 191 265 226
f 192 263 193
f 194 226 195
f 195 197 196
f 199 253 266
f 199 266 200
f 200 266 215
f 200 215 214
f 201 267 268
f 201 268 202
f 201 207 269
f 201 269 270
f 201 270 267
f 202 268 271
f 202 271 272
f 202 272 209
f 202 209 208
f 203 215 204
f 204 215 273
f 204 273 205
f 205 273 274
f 205 274 206
f 206 274 275
f 206 275 276
f 206 276 207
f 207 276 269
f 209 272 277
f 209 277 278
f 209 278 279
f 209 279 257
f 209 257 211
f 209 211 210
f 211 257 212
f 212 255 254
f 212 254 213
f 212 257 256
f 212 256 255
f 215 266 252
f 215 252 280
f 215 280 273
f 216 222 217
f 217 222 218
f 218 222 223
f 218 223 219
f 221 233 281
f 221 281 282
f 221 282 222
f 222 282 283
f 222 283 284
f 222 284 223
f 223 285 286
f 223 286 287
f 223 287 224
f 223 284 285
f 224 287 288
f 224 288 234
f 226 265 289
f 226 289 228
f 226 228 227
f 228 289 290
f 228 290 291
f 228 291 292
f 228 292 230
f 228 230 229
f 230 292 231
f 231 293 232
f 231 292 294
f 231 294 293
f 232 295 233
f 232 293 296
f 232 296 270
f 232 270 269
f 232 269 295
f 233 295 297
f 233 297 298
f 233 298 281
f 234 288 235
f 235 299 236
f 235 288 299
f 236 299 288
f 236 288 300
f 236 300 301
f 236 301 302
f 236 302 303
f 236 303 237
f 237 304 238
f 237 303 304
f 238 304 305
f 238 305 239
f 239 305 306
f 239 306 240
f 240 306 241
f 241 306 307
f 241 307 308
f 241 308 242
f 242 308 309
f 242 309 243
f 243 309 244
f 244 309 245
f 245 247 246
f 245 309 310
f 245 310 311
f 245 311 312
f 245 312 313
f 245 313 247
f 247 313 314
f 247 314 248
f 248 314 315
f 248 315 249
f 249 315 252
f 249 252 316
f 249 316 250
f 250 316 251
f 251 316 317
f 251 317 252
f 252 318 274
f 252 274 273
f 252 273 280
f 252 266 253
f 252 317 316
f 252 315 314
f 252 314 313
f 252 313 319
f 252 319 318
f 257 279 320
f 257 320 321
f 257 321 258
f 258 321 259
f 259 321 320
f 259 320 260
f 260 320 322
f 260 322 261
f 261 322 262
f 262 322 264
f 263 264 323
f 263 323 324
f 263 324 265
f 264 322 323
f 265 324 325
f 265 325 289
f 267 296 326
f 267 326 271
f 267 271 268
f 267 270 296
f 269 276 327
f 269 327 295
f 271 326 291
f 271 291 328
f 271 328 272
f 272 328 277
f 274 318 329
f 274 329 330
f 274 330 275
f 275 331 276
f 275 330 332
f 275 332 331
f 276 333 327
f 276 331 333
f 277 328 334
f 277 334 335
f 277 335 336
f 277 336 278
f 278 336 320
f 278 320 279
f 281 298 282
f 282 298 283
f 283 298 337
f 283 337 338
f 283 338 285
f 283 285 284
f 285 338 286
f 286 339 340
f 286 340 287
f 286 338 341
f 286 341 339
f 287 340 342
f 287 342 288
f 288 342 300
f 289 325 334
f 289 334 328
f 289 328 290
f 290 328 291
f 291 326 294
f 291 294 292
f 293 294 326
f 293 326 296
f 295 343 297
f 295 327 343
f 297 343 344
f 297 344 298
f 298 344 345
f 298 345 337
f 300 346 301
f 300 342 346
f 301 347 348
f 301 348 302
f 301 346 349
f 301 349 347
f 302 348 350
f 302 350 303
f 303 350 351
f 303 351 305
f 303 305 304
f 305 351 352
f 305 352 307
f 305 307 306
f 307 352 353
f 307 353 308
f 308 353 310
f 308 310 309
f 310 353 329
f 310 329 311
f 311 329 318
f 311 318 312
f 312 354 313
f 312 318 354
f 313 354 319
f 318 319 354
f 320 336 324
f 320 324 323
f 320 323 322
f 324 336 335
f 324 335 334
f 324 334 325
f 327 333 331
f 327 331 344
f 327 344 355
f 327 355 343
f 329 332 330
f 329 353 332
f 331 356 357
f 331 357 358
f 331 358 359
f 331 359 345
f 331 345 344
f 331 332 360
f 331 360 348
f 331 348 347
f 331 347 356
f 332 353 352
f 332 352 360
f 337 345 359
f 337 359 358
f 337 358 361
f 337 361 362
f 337 362 341
f 337 341 338
f 339 341 362
f 339 362 363
f 339 363 364
f 339 364 349
f 339 349 365
f 339 365 340
f 340 365 342
f 342 349 366
f 342 366 346
f 342 365 349
f 343 355 344
f 346 366 349
f 347 349 356
f 348 360 351
f 348 351 350
f 349 364 367
f 349 367 356
f 351 360 352
f 356 367 357
f 357 363 358
f 357 367 364
f 357 364 363
f 358 363 368
f 358 368 361
f 361 368 362
f 362 368 363

