# https://github.com/mikedh/trimesh
v -0.00573683 0.04905299 0.02489419
v -0.00573683 0.04551222 0.02590025
v -0.00573683 0.04905299 0.02297585
v -0.01631836 0.04905299 0.02552852
v -0.01631836 0.04850722 0.02595397
v -0.01475788 0.04840657 0.02588747
v -0.01388093 0.04834394 0.02584484
v -0.01631836 0.04753424 0.02637259
v -0.01475788 0.04753424 0.02622850
v -0.00573683 0.04524604 0.02595908
v -0.01319742 0.04597299 0.02650389
v -0.01569933 0.04360651 0.02736075
v -0.01475788 0.04271852 0.02749802
v -0.01351983 0.04243893 0.02744772
v -0.00573683 0.03557436 0.02421637
v -0.01007648 0.03504202 0.02353856
v -0.01163695 0.03504202 0.02337316
v -0.06783962 0.04441174 0.02040015
v -0.06315177 0.04905299 0.02169439
v -0.03661090 0.04905299 0.02557797
v -0.01787882 0.04850275 0.02595141
v -0.01787882 0.04753424 0.02639476
v -0.02256023 0.04395321 0.02748608
v -0.01673749 0.04368704 0.02739912
v -0.00573683 0.04441174 0.02612875
v -0.02100621 0.04128701 0.02799168
v -0.01943929 0.04128701 0.02792432
v -0.01787882 0.04128701 0.02783821
v -0.01631836 0.04128701 0.02773675
v -0.01475788 0.04128701 0.02762761
v -0.00573683 0.02879926 0.02769412
v -0.00573683 0.04284826 0.02643142
v -0.00573683 0.04406057 0.02619866
v -0.00573683 0.02620240 0.02578942
v -0.01163695 0.03348300 0.02358119
v -0.03817137 0.02620240 0.02334417
v -0.06940009 0.04284826 0.02042658
v -0.06940009 0.04441174 0.02039759
v -0.06471224 0.04905299 0.02170462
v -0.03697200 0.04905299 0.02557115
v -0.03817137 0.04842446 0.02587979
v -0.03661090 0.04845578 0.02589258
v -0.03661090 0.04753424 0.02626005
v -0.02412715 0.04392190 0.02747671
v -0.02412715 0.04284826 0.02774101
v -0.02256023 0.04284826 0.02775465
v -0.02256023 0.04128701 0.02804539
v -0.03097515 0.03739731 0.02895340
v -0.01943929 0.03972352 0.02806585
v -0.01787882 0.03972352 0.02795075
v -0.00573683 0.02844809 0.02769753
v -0.03087843 0.03660774 0.02895596
v -0.00573683 0.02620240 0.02753468
v -0.03868078 0.02620240 0.02334758
v -0.07161183 0.04125569 0.02092109
v -0.07096056 0.04284826 0.02051781
v -0.03972539 0.02620240 0.02335610
v -0.07161183 0.04284826 0.02057323
v -0.07161183 0.04441174 0.02064485
v -0.07161183 0.04487475 0.02075398
v -0.07161183 0.04905299 0.02184615
v -0.03817137 0.04905299 0.02553790
v -0.03817137 0.04753424 0.02623873
v -0.04753418 0.04905299 0.02505618
v -0.05847036 0.04905299 0.02445681
v -0.03129757 0.03739731 0.02895340
v -0.03817137 0.04597299 0.02665054
v -0.03185856 0.03667484 0.02896705
v -0.03192949 0.03504202 0.02899433
v -0.00573683 0.02723577 0.02767366
v -0.03081395 0.03504202 0.02896278
v -0.03089133 0.03420324 0.02896193
v -0.00573683 0.02688684 0.02763188
v -0.00798726 0.02620240 0.02760971
v -0.07161183 0.02620240 0.02493341
v -0.07161183 0.04905299 0.02356243
v -0.07100570 0.04905299 0.02363576
v -0.03817137 0.04260445 0.02747415
v -0.05222203 0.03660774 0.02810166
v -0.05378895 0.03504425 0.02828241
v -0.05661972 0.02620240 0.02906595
v -0.05621348 0.02620240 0.02908215
v -0.05534942 0.02620240 0.02910772
v -0.05378895 0.03660774 0.02800873
v -0.03192949 0.03413613 0.02897557
v -0.05456918 0.02620240 0.02908726
v -0.07161183 0.02620240 0.02681339
v -0.07161183 0.03348300 0.02617735
v -0.05534942 0.03504425 0.02815708
v -0.06940009 0.02620240 0.02761312
v -0.07109597 0.02620240 0.02709133
v -0.07161183 0.02725591 0.02679122
v -0.07161183 0.03192399 0.02641863
v -0.07029639 0.02677277 0.02743749
v -0.07036732 0.02620240 0.02747330
v -0.07161183 0.02879702 0.02669658
v -0.07161183 0.03036051 0.02658063
f 1 2 10
f 1 10 25
f 1 25 33
f 1 33 32
f 1 32 31
f 1 31 51
f 1 51 70
f 1 70 73
f 1 73 53
f 1 53 34
f 1 34 15
f 1 15 3
f 1 3 19
f 1 19 39
f 1 39 61
f 1 61 76
f 1 76 77
f 1 77 65
f 1 65 64
f 1 64 62
f 1 62 40
f 1 40 20
f 1 20 4
f 1 4 5
f 1 5 6
f 1 6 7
f 1 7 8
f 1 8 9
f 1 9 2
f 2 9 11
f 2 11 12
f 2 12 13
f 2 13 14
f 2 14 10
f 3 15 16
f 3 16 17
f 3 17 18
f 3 18 19
f 4 20 5
f 5 21 22
f 5 22 8
f 5 8 6
f 5 20 21
f 6 8 7
f 8 22 23
f 8 23 24
f 8 24 12
f 8 12 11
f 8 11 9
f 10 14 25
f 12 24 13
f 13 24 26
f 13 26 27
f 13 27 28
f 13 28 14
f 14 28 29
f 14 29 30
f 14 30 31
f 14 31 32
f 14 32 33
f 14 33 25
f 15 34 16
f 16 34 35
f 16 35 17
f 17 35 36
f 17 36 37
f 17 37 18
f 18 37 38
f 18 38 19
f 19 38 39
f 20 40 41
f 20 41 42
f 20 42 21
f 21 42 22
f 22 42 43
f 22 43 23
f 23 43 44
f 23 44 45
f 23 45 46
f 23 46 24
f 24 46 47
f 24 47 26
f 26 47 48
f 26 48 27
f 27 48 28
f 28 48 49
f 28 49 29
f 29 49 30
f 30 49 50
f 30 50 31
f 31 50 49
f 31 49 48
f 31 48 52
f 31 52 51
f 34 53 74
f 34 74 86
f 34 86 83
f 34 83 82
f 34 82 81
f 34 81 90
f 34 90 95
f 34 95 91
f 34 91 87
f 34 87 75
f 34 75 57
f 34 57 54
f 34 54 36
f 34 36 35
f 36 54 37
f 37 55 56
f 37 56 38
f 37 54 57
f 37 57 55
f 38 56 58
f 38 58 59
f 38 59 60
f 38 60 61
f 38 61 39
f 40 62 41
f 41 63 42
f 41 62 64
f 41 64 65
f 41 65 63
f 42 63 43
f 43 63 44
f 44 66 45
f 44 63 67
f 44 67 66
f 45 66 46
f 46 66 48
f 46 48 47
f 48 66 68
f 48 68 69
f 48 69 52
f 51 52 71
f 51 71 72
f 51 72 70
f 52 69 71
f 53 73 74
f 55 58 56
f 55 57 75
f 55 75 87
f 55 87 92
f 55 92 96
f 55 96 97
f 55 97 93
f 55 93 88
f 55 88 76
f 55 76 61
f 55 61 60
f 55 60 59
f 55 59 58
f 63 65 77
f 63 77 67
f 66 67 78
f 66 78 79
f 66 79 80
f 66 80 81
f 66 81 82
f 66 82 83
f 66 83 68
f 67 77 84
f 67 84 78
f 68 83 69
f 69 85 72
f 69 72 71
f 69 83 85
f 70 72 86
f 70 86 73
f 72 85 83
f 72 83 86
f 73 86 74
f 76 88 89
f 76 89 77
f 77 89 84
f 78 84 79
f 79 84 80
f 80 84 89
f 80 89 81
f 81 89 90
f 87 91 92
f 88 93 94
f 88 94 89
f 89 94 90
f 90 94 95
f 91 95 92
f 92 95 96
f 93 97 95
f 93 95 94
f 95 97 96

