# https://github.com/mikedh/trimesh
v 0.05461610 0.00098339 0.02543092
v 0.05589170 0.00098161 0.02557312
v 0.06801295 0.00098161 0.02521762
v 0.06956930 0.00098161 0.02486848
v 0.07067401 0.00098161 0.02442703
v 0.07113786 0.00098161 0.02418402
v 0.05461610 0.00098339 0.02329474
v 0.03817368 0.00098339 0.02566650
v 0.01648238 -0.00399869 0.02826854
v 0.05083202 -0.00306022 0.02748644
v 0.06607208 -0.00913541 0.02746309
v 0.05083202 -0.00399869 0.02787377
v 0.05083202 -0.00755174 0.02902516
v 0.06956930 -0.00867862 0.02654410
v 0.07080828 -0.00867862 0.02608991
v 0.07113786 -0.00867862 0.02588616
v 0.07113786 0.00098161 0.02216245
v 0.05207100 0.00098339 0.02157455
v 0.02273221 0.00098339 0.02485575
v 0.01648238 -0.00204176 0.02709274
v 0.01648238 -0.00282205 0.02767003
v 0.01492603 -0.00399869 0.02814013
v 0.01529223 -0.00596984 0.02904533
v 0.01648238 -0.00514157 0.02876942
v 0.06607208 -0.00992636 0.02746309
v 0.06956930 -0.01023918 0.02665765
v 0.05083202 -0.00867684 0.02924377
v 0.05083202 -0.01023741 0.02949739
v 0.05083202 -0.01179975 0.02967461
v 0.05083202 -0.01336210 0.02979240
v 0.05083202 -0.01394331 0.02981150
v 0.05239448 -0.01394331 0.02957274
v 0.01648238 -0.00592363 0.02905488
v 0.04926346 -0.00745931 0.02905276
v 0.04926346 -0.00867684 0.02930426
v 0.07096697 -0.01023918 0.02618436
v 0.07113786 -0.00982683 0.02603049
v 0.07113786 0.00076121 0.02212213
v 0.04614465 0.00098339 0.01962833
v 0.04712729 0.00098339 0.01976629
v 0.04768269 0.00098339 0.01986498
v 0.04799397 0.00098339 0.01992865
v 0.04895219 0.00098339 0.02013664
v 0.05083812 0.00098339 0.02083278
v 0.01648238 -0.00115483 0.02631170
v 0.01181332 0.00098339 0.02388052
v 0.00878606 0.00098339 0.02357808
v 0.01492603 -0.00218573 0.02698131
v 0.01492603 -0.00296779 0.02757027
v 0.00878606 -0.00576722 0.02763395
v 0.00878606 -0.00582587 0.02766366
v 0.00878606 -0.00905721 0.02910157
v 0.00878606 -0.01023741 0.02944858
v 0.01492603 -0.00867684 0.02965976
v 0.01648238 -0.00711627 0.02934670
v 0.06020066 -0.01492444 0.02816772
v 0.06956930 -0.01180153 0.02663218
v 0.07096086 -0.01180153 0.02618012
v 0.04926346 -0.01023741 0.02957698
v 0.04926346 -0.01179975 0.02976694
v 0.04926346 -0.01336210 0.02985183
v 0.04926346 -0.01394331 0.02985820
v 0.05461610 -0.01717464 0.02854869
v 0.06020066 -0.01648501 0.02800961
v 0.07113786 -0.01023918 0.02607506
v 0.07113786 -0.00087934 0.02195870
v 0.04512539 0.00098339 0.01962409
v 0.07113176 -0.01717464 0.02342208
v 0.00878606 0.00098339 0.02175071
v 0.00878606 -0.00504381 0.02722433
v 0.00878606 -0.01179975 0.02971069
v 0.01549364 -0.01394331 0.03046520
v 0.01492603 -0.01023741 0.02988791
v 0.07078387 -0.01336210 0.02607506
v 0.06163495 -0.01717464 0.02762864
v 0.06956930 -0.01336210 0.02640933
v 0.07113786 -0.01336210 0.02585008
v 0.07113786 -0.01180153 0.02606551
v 0.05461610 -0.01717464 0.02641252
v 0.06023728 -0.01717464 0.02783557
v 0.00878606 -0.01394331 0.02953347
v 0.07113786 -0.00243990 0.02209984
v 0.04458219 0.00098339 0.01964849
v 0.07113786 -0.01649212 0.02342951
v 0.07113786 -0.01717464 0.02422965
v 0.06661528 -0.01717464 0.02412035
v 0.02022984 -0.01394331 0.02571744
v 0.02116975 -0.01394331 0.02564740
v 0.00878606 -0.00087400 0.02200434
v 0.01648238 0.00098339 0.02102061
v 0.00878606 0.00096029 0.02174646
v 0.00878606 -0.01336210 0.02969053
v 0.07054583 -0.01457607 0.02593498
v 0.07113176 -0.01717464 0.02525370
v 0.07046650 -0.01717464 0.02542667
v 0.07113786 -0.01648501 0.02525051
v 0.05533019 -0.01717464 0.02609840
v 0.00878606 -0.01394331 0.02781435
v 0.05707575 -0.01717464 0.02562087
v 0.05616635 -0.01717464 0.02576625
v 0.00878606 -0.00203288 0.02247762
v 0.00878606 -0.00095576 0.02203617
v 0.00878606 0.00057459 0.02173798
v 0.00878606 0.00068656 0.02171781
v 0.05613583 -0.01717464 0.02577368
f 1 2 3
f 1 3 4
f 1 4 5
f 1 5 6
f 1 6 17
f 1 17 7
f 1 7 18
f 1 18 44
f 1 44 43
f 1 43 42
f 1 42 41
f 1 41 40
f 1 40 39
f 1 39 67
f 1 67 83
f 1 83 90
f 1 90 69
f 1 69 47
f 1 47 46
f 1 46 19
f 1 19 8
f 1 8 2
f 2 8 9
f 2 9 10
f 2 10 3
f 3 11 4
f 3 10 12
f 3 12 13
f 3 13 11
f 4 14 15
f 4 15 5
f 4 11 14
f 5 15 6
f 6 16 37
f 6 37 65
f 6 65 78
f 6 78 77
f 6 77 96
f 6 96 85
f 6 85 84
f 6 84 82
f 6 82 66
f 6 66 38
f 6 38 17
f 6 15 16
f 7 17 18
f 8 19 20
f 8 20 21
f 8 21 9
f 9 21 22
f 9 22 23
f 9 23 24
f 9 24 10
f 10 24 12
f 11 25 26
f 11 26 14
f 11 13 27
f 11 27 28
f 11 28 29
f 11 29 30
f 11 30 31
f 11 31 32
f 11 32 25
f 12 24 33
f 12 33 34
f 12 34 13
f 13 34 35
f 13 35 27
f 14 26 36
f 14 36 15
f 15 36 37
f 15 37 16
f 17 38 39
f 17 39 40
f 17 40 41
f 17 41 42
f 17 42 43
f 17 43 44
f 17 44 18
f 19 45 20
f 19 46 45
f 20 45 47
f 20 47 48
f 20 48 49
f 20 49 21
f 21 49 22
f 22 49 50
f 22 50 51
f 22 51 52
f 22 52 23
f 23 52 53
f 23 53 54
f 23 54 55
f 23 55 33
f 23 33 24
f 25 56 57
f 25 57 26
f 25 32 56
f 26 57 58
f 26 58 36
f 27 35 59
f 27 59 28
f 28 59 60
f 28 60 29
f 29 60 30
f 30 60 61
f 30 61 31
f 31 61 62
f 31 62 63
f 31 63 64
f 31 64 32
f 32 64 56
f 33 55 34
f 34 55 35
f 35 55 54
f 35 54 59
f 36 58 65
f 36 65 37
f 38 66 39
f 39 66 68
f 39 68 67
f 45 46 47
f 47 69 91
f 47 91 104
f 47 104 103
f 47 103 89
f 47 89 102
f 47 102 101
f 47 101 98
f 47 98 81
f 47 81 92
f 47 92 71
f 47 71 53
f 47 53 52
f 47 52 51
f 47 51 50
f 47 50 70
f 47 70 49
f 47 49 48
f 49 70 50
f 53 71 54
f 54 72 59
f 54 71 73
f 54 73 72
f 56 64 57
f 57 74 58
f 57 64 75
f 57 75 76
f 57 76 74
f 58 77 78
f 58 78 65
f 58 74 77
f 59 72 60
f 60 72 61
f 61 72 62
f 62 72 63
f 63 79 97
f 63 97 105
f 63 105 100
f 63 100 99
f 63 99 86
f 63 86 68
f 63 68 85
f 63 85 94
f 63 94 95
f 63 95 75
f 63 75 80
f 63 80 64
f 63 72 81
f 63 81 98
f 63 98 79
f 64 80 75
f 66 82 68
f 67 68 83
f 68 82 84
f 68 84 85
f 68 86 87
f 68 87 88
f 68 88 89
f 68 89 90
f 68 90 83
f 69 90 91
f 71 92 72
f 71 72 73
f 72 92 81
f 74 76 93
f 74 93 94
f 74 94 77
f 75 95 93
f 75 93 76
f 77 94 96
f 79 98 97
f 85 96 94
f 86 99 87
f 87 99 100
f 87 100 98
f 87 98 101
f 87 101 102
f 87 102 89
f 87 89 88
f 89 103 90
f 90 103 104
f 90 104 91
f 93 95 94
f 97 98 105
f 98 100 105

