# https://github.com/mikedh/trimesh
v 0.03363955 0.05309100 -0.01978921
v 0.04144251 0.05293675 -0.01978921
v 0.03363955 0.05278250 -0.02053861
v 0.03207403 0.05278250 -0.02053603
v 0.03207403 0.05307447 -0.01978921
v -0.02517235 0.05211042 -0.01918017
v -0.07671135 0.04898689 -0.01503145
v -0.07482533 0.04898689 -0.01503145
v 0.04560902 0.05283208 -0.01978921
v 0.04144251 0.05267783 -0.02035319
v 0.03363955 0.05198923 -0.02161377
v 0.03207403 0.05200024 -0.02162021
v 0.04144251 0.05190108 -0.02162407
v -0.02411223 0.05130612 -0.02238120
v -0.02411223 0.05166420 -0.02160218
v -0.02411223 0.05200575 -0.02023988
v -0.06666488 0.05057344 -0.02146441
v -0.02565310 0.05209389 -0.01918017
v -0.07653877 0.04898689 -0.01584651
v -0.07694556 0.00850218 -0.01851833
v -0.07667437 0.04813301 -0.01503145
v -0.02672555 0.05204982 -0.01918017
v -0.07290232 0.04285551 -0.01503145
v 0.04560902 0.05052937 -0.01978921
v 0.04898661 0.01025951 -0.02449676
v 0.04898661 0.01891395 -0.02545732
v 0.04898661 0.01891395 -0.02707844
v 0.04560902 0.05256766 -0.02026821
v -0.07249553 0.04128548 -0.01503145
v 0.04144251 0.05115738 -0.02240437
v -0.02724328 0.04996196 -0.02422765
v 0.04560902 0.05178539 -0.02140132
v -0.02879648 0.04995645 -0.02421735
v -0.05532408 0.04969202 -0.02371646
v -0.06624577 0.04998399 -0.02273658
v -0.06624577 0.05044674 -0.02180048
v -0.06666488 0.05040818 -0.02183138
v -0.07244622 0.04898689 -0.02166013
v -0.07284069 0.04898689 -0.02141033
v -0.07385150 0.04898689 -0.02062617
v -0.07491162 0.04898689 -0.01963727
v -0.07494859 0.04898689 -0.01958319
v -0.07541702 0.04898689 -0.01867799
v -0.07610733 0.04898689 -0.01710709
v -0.07621827 0.04898689 -0.01683669
v -0.07642783 0.04859025 -0.01636671
v -0.07690858 0.00850218 -0.01867671
v -0.07685927 0.00709742 -0.01851833
v -0.07663739 0.04759314 -0.01503145
v -0.07647714 0.00099359 -0.01851833
v 0.02270554 0.02255532 -0.02071501
v 0.04409281 0.00099359 -0.02449676
v 0.04898661 0.00646941 -0.02449676
v -0.07271742 0.03968240 -0.01503145
v -0.07296396 0.03924169 -0.01503145
v 0.04898661 0.01806559 -0.02707329
v 0.04851819 0.01848977 -0.02726643
v 0.04851819 0.01890294 -0.02726643
v 0.04853051 0.01891395 -0.02726128
v 0.04560902 0.04880510 -0.02269795
v 0.04560902 0.04895383 -0.02266190
v 0.04560902 0.04956532 -0.02247133
v 0.04560902 0.05061201 -0.02211079
v 0.04300804 0.05097008 -0.02231166
v 0.04300804 0.05019333 -0.02271598
v 0.04144251 0.05036962 -0.02279710
v -0.03658711 0.04838642 -0.02576507
v -0.03815264 0.04837540 -0.02576249
v -0.04127136 0.04834786 -0.02573932
v -0.04225751 0.04834235 -0.02572515
v -0.05532408 0.04890425 -0.02469505
v -0.05688961 0.04888222 -0.02465900
v -0.06666488 0.04996747 -0.02270954
v -0.06666488 0.05006112 -0.02253185
v -0.05844281 0.04882162 -0.02459462
v -0.06002065 0.04875001 -0.02451994
v -0.07191616 0.04713591 -0.02268121
v -0.07247088 0.04760416 -0.02216101
v -0.07107793 0.04898689 -0.02231424
v -0.07157101 0.04817157 -0.02250609
v -0.07345703 0.04862330 -0.02114637
v -0.07503488 0.04753254 -0.01971710
v -0.07362961 0.04753254 -0.02133050
v -0.07440621 0.04753254 -0.02049740
v -0.07551564 0.04753254 -0.01867799
v -0.07685927 0.01006670 -0.01867671
v -0.07651412 0.00850218 -0.01963856
v -0.07648946 0.00694317 -0.01959092
v -0.07645249 0.00570368 -0.01952267
v -0.07680997 0.00694317 -0.01867671
v -0.07650179 0.04662909 -0.01503145
v -0.07583614 0.00099359 -0.02023988
v -0.07020272 -0.00318764 -0.02487918
v -0.07020272 -0.00318764 -0.02324004
v -0.06624577 -0.00316010 -0.01948147
v -0.07470206 0.00099359 -0.01851833
v -0.07499791 0.03924169 -0.01503145
v 0.02114002 0.02099631 -0.02076266
v 0.04287244 0.00099359 -0.02529122
v 0.04898661 0.00697623 -0.02488948
v -0.05697589 -0.00168923 -0.01948147
v -0.06434742 -0.00316010 -0.01948147
v -0.05310523 -0.00318764 -0.02223956
v -0.05310523 -0.00318764 -0.02289624
v 0.04898661 0.01191218 -0.02655953
v 0.04818536 0.01891395 -0.02729347
v 0.03363955 0.00099359 -0.02804030
v 0.03333138 0.00099359 -0.02807120
v 0.04679241 0.02099631 -0.02734498
v 0.04679241 0.02203198 -0.02729991
v 0.04457356 0.04752153 -0.02312673
v 0.04464752 0.04920724 -0.02280225
v 0.04521456 0.04980771 -0.02253056
v 0.04417910 0.04997848 -0.02262327
v 0.04300804 0.04908605 -0.02310355
v 0.04144251 0.04908605 -0.02324519
v -0.03815264 0.04596802 -0.02683637
v -0.03658711 0.04751602 -0.02617582
v -0.03815264 0.04751602 -0.02617582
v -0.03970583 0.04751602 -0.02615522
v -0.04127136 0.04751602 -0.02613204
v -0.05375856 0.04722956 -0.02599941
v -0.05532408 0.04797325 -0.02547535
v -0.06158618 0.04865635 -0.02443624
v -0.06312705 0.04855719 -0.02434353
v -0.06469257 0.04841947 -0.02422507
v -0.06666488 0.04937251 -0.02315763
v -0.07094233 0.04898689 -0.02235544
v -0.05688961 0.04786308 -0.02543801
v -0.07202711 0.04596802 -0.02274559
v -0.07281603 0.04596802 -0.02220608
v -0.07101630 0.04760416 -0.02284732
v -0.06730589 0.04693759 -0.02422507
v -0.06762638 0.04596802 -0.02432422
v -0.06860021 0.04514169 -0.02412077
v -0.07095466 0.04596802 -0.02317051
v -0.07053555 0.04854067 -0.02265675
v -0.06668954 0.04722956 -0.02428816
v -0.07483765 0.03191489 -0.02099700
v -0.07607035 0.00850218 -0.02041886
v -0.07365427 0.04596802 -0.02142707
v -0.07609500 0.00694317 -0.02037122
v -0.07525677 0.00099359 -0.02157386
v -0.07478834 0.00099359 -0.02220608
v -0.07467740 0.00099359 -0.02235287
v -0.07388848 0.00099359 -0.02319240
v -0.07302559 0.00099359 -0.02397270
v -0.07224899 0.00099359 -0.02437315
v -0.07023970 0.00443113 -0.02572901
v -0.06940146 0.00537865 -0.02605993
v -0.06856324 0.00537865 -0.02623762
v -0.06782362 0.00538967 -0.02639471
v -0.06624577 0.00538967 -0.02657240
v -0.06938914 -0.00318764 -0.02495773
v -0.06729356 -0.00318764 -0.02223956
v 0.04898661 0.00878865 -0.02584747
v 0.04898661 0.00812207 -0.02550239
v 0.04140553 0.00099359 -0.02606766
v 0.03489690 0.00099359 -0.02781883
v 0.03520508 0.00099359 -0.02775187
v 0.03641311 0.00099359 -0.02746086
v 0.03987699 0.00099359 -0.02655438
v 0.04118365 0.00099359 -0.02614620
v 0.04898661 0.01163122 -0.02651961
v 0.04775391 0.01891395 -0.02732051
v 0.03207403 0.00099359 -0.02813429
v 0.03207403 0.00226063 -0.02813558
v 0.04679241 0.01943730 -0.02736043
v 0.03052083 0.00538967 -0.02813300
v 0.04613908 0.02099631 -0.02736558
v 0.04613908 0.02208706 -0.02731021
v -0.03868270 0.04395178 -0.02727158
v 0.03207403 0.03346839 -0.02653764
v 0.03207403 0.03502740 -0.02636123
v 0.04300804 0.04752153 -0.02339971
v 0.03050850 0.03659192 -0.02614492
v -0.03816496 0.04444758 -0.02717630
v -0.03980445 0.04444758 -0.02720334
v -0.03970583 0.04596802 -0.02683250
v -0.05375856 0.04596802 -0.02647712
v -0.05532408 0.04719651 -0.02596207
v -0.05844281 0.04768680 -0.02537749
v -0.05688961 0.04709184 -0.02588868
v -0.05844281 0.04691004 -0.02578824
v -0.06469257 0.04751602 -0.02465256
v -0.06550615 0.04832031 -0.02414652
v -0.06612250 0.04748296 -0.02434096
v -0.06863720 0.02810275 -0.02571099
v -0.06947543 0.02723235 -0.02538779
v -0.07085605 0.03035037 -0.02449547
v -0.07091768 0.02879136 -0.02456629
v -0.07163264 0.03035037 -0.02403965
v -0.07335842 0.03146316 -0.02263228
v -0.07169428 0.02879136 -0.02408858
v -0.06668954 0.04635365 -0.02452895
v -0.06668954 0.04596802 -0.02460750
v -0.06798386 0.04453572 -0.02438087
v -0.06872348 0.04410603 -0.02418258
v -0.07529375 0.00850218 -0.02157386
v -0.07327213 0.00694317 -0.02410790
v -0.07466508 0.00850218 -0.02235287
v -0.07530608 0.00694317 -0.02161764
v -0.07468973 0.00537865 -0.02239279
v -0.07324748 0.00537865 -0.02408987
v -0.07245855 0.00537865 -0.02457015
v -0.07112724 0.00537865 -0.02535045
v -0.07033832 0.00537865 -0.02578438
v -0.06940146 0.00694317 -0.02617196
v -0.06856324 0.00538967 -0.02623891
v -0.06782362 0.00694317 -0.02650674
v -0.06627042 0.00466250 -0.02645652
v -0.05845513 0.02100181 -0.02806090
v -0.05687728 0.01943730 -0.02809180
v -0.05065217 0.00538967 -0.02770294
v -0.05066450 0.00466250 -0.02756130
v -0.05066450 0.00412814 -0.02745443
v 0.03052083 0.00099359 -0.02811626
v 0.03177818 0.00099359 -0.02813300
v 0.04898661 0.00893188 -0.02590413
v 0.04898661 0.01034766 -0.02631617
v 0.04898661 0.01005569 -0.02624149
v -0.05532408 0.01943730 -0.02814330
v -0.05532408 0.02100181 -0.02816777
v 0.03052083 0.00381964 -0.02814846
v 0.02894298 0.00694868 -0.02812785
v 0.02894298 0.00850769 -0.02809309
v -0.04908664 0.02721582 -0.02813300
v -0.05065217 0.02721582 -0.02814846
v -0.05220536 0.02878585 -0.02808021
v -0.03933602 0.04395178 -0.02727158
v -0.05532408 0.04440351 -0.02660846
v -0.05532408 0.04596802 -0.02642047
v -0.05688961 0.04596802 -0.02629557
v -0.05939198 0.04677783 -0.02571742
v -0.06624577 0.04596802 -0.02472724
v -0.06158618 0.04544468 -0.02575734
v -0.06236278 0.04518025 -0.02570068
v -0.06869883 0.02723235 -0.02573416
v -0.06790990 0.02867568 -0.02590155
v -0.06856324 0.02802563 -0.02574189
v -0.07036297 0.00850218 -0.02580112
v -0.07115190 0.00850218 -0.02533758
v -0.07248321 0.00694317 -0.02459462
v -0.06624577 0.02878585 -0.02636896
v -0.07468973 0.00694317 -0.02239793
v -0.07118887 0.00694317 -0.02537621
v -0.07041228 0.00694317 -0.02582430
v -0.06940146 0.00850218 -0.02613848
v -0.06412553 0.02255532 -0.02730635
v -0.06312705 0.02255532 -0.02746859
v -0.06157385 0.02255532 -0.02770294
v -0.06002065 0.02255532 -0.02792441
v -0.05845513 0.02255532 -0.02808794
v -0.05687728 0.02100181 -0.02814846
v -0.04908664 0.00694317 -0.02785745
v -0.05065217 0.00694317 -0.02779307
v -0.04908664 0.00538967 -0.02774543
v -0.05532408 0.02255532 -0.02817550
v -0.05065217 0.02411984 -0.02818451
v -0.04908664 0.02566783 -0.02818065
v -0.05220536 0.02721582 -0.02814974
v -0.05375856 0.02721582 -0.02813687
v -0.05375856 0.02878585 -0.02805575
v -0.05688961 0.04440351 -0.02651446
v -0.05844281 0.04440351 -0.02631746
v -0.05844281 0.04596802 -0.02609212
v -0.05995902 0.04601761 -0.02584747
v -0.06267095 0.02690733 -0.02730764
v -0.06394062 0.02495168 -0.02726643
v -0.06782362 0.02721582 -0.02604963
v -0.06782362 0.02566783 -0.02611144
v -0.06405157 0.02411984 -0.02729219
v -0.06312705 0.02411984 -0.02743511
v -0.06157385 0.02411984 -0.02766173
v -0.06002065 0.02411984 -0.02786775
v -0.05845513 0.02411984 -0.02804030
v -0.05687728 0.02411984 -0.02813429
v -0.05687728 0.02255532 -0.02815489
v -0.05532408 0.02411984 -0.02816262
v -0.05220536 0.02566783 -0.02817807
v -0.05375856 0.02566783 -0.02816133
v -0.05532408 0.02721582 -0.02807249
v -0.05532408 0.02878585 -0.02795403
v -0.05845513 0.02566783 -0.02791926
v -0.06002065 0.02566783 -0.02774028
v -0.06157385 0.02566783 -0.02755229
v -0.06315170 0.02555214 -0.02734240
v -0.05687728 0.02566783 -0.02806476
f 1 2 3
f 1 3 4
f 1 4 5
f 1 5 6
f 1 6 7
f 1 7 8
f 1 8 2
f 2 9 10
f 2 10 3
f 2 8 9
f 3 11 12
f 3 12 4
f 3 10 13
f 3 13 11
f 4 12 14
f 4 14 15
f 4 15 5
f 5 15 16
f 5 16 6
f 6 16 17
f 6 17 18
f 6 18 7
f 7 19 20
f 7 20 21
f 7 21 49
f 7 49 91
f 7 91 97
f 7 97 55
f 7 55 54
f 7 54 29
f 7 29 23
f 7 23 8
f 7 18 22
f 7 22 17
f 7 17 19
f 8 23 9
f 9 24 53
f 9 53 25
f 9 25 26
f 9 26 27
f 9 27 28
f 9 28 10
f 9 23 29
f 9 29 24
f 10 28 13
f 11 13 12
f 12 13 30
f 12 30 31
f 12 31 14
f 13 28 32
f 13 32 30
f 14 31 33
f 14 33 34
f 14 34 35
f 14 35 36
f 14 36 15
f 15 36 17
f 15 17 16
f 17 36 37
f 17 37 38
f 17 38 39
f 17 39 40
f 17 40 41
f 17 41 42
f 17 42 43
f 17 43 44
f 17 44 45
f 17 45 19
f 17 22 18
f 19 45 46
f 19 46 20
f 20 47 48
f 20 48 21
f 20 46 47
f 21 48 50
f 21 50 49
f 24 51 52
f 24 52 53
f 24 29 54
f 24 54 55
f 24 55 51
f 25 53 100
f 25 100 157
f 25 157 156
f 25 156 219
f 25 219 221
f 25 221 220
f 25 220 164
f 25 164 105
f 25 105 56
f 25 56 27
f 25 27 26
f 27 56 57
f 27 57 58
f 27 58 59
f 27 59 60
f 27 60 61
f 27 61 62
f 27 62 63
f 27 63 32
f 27 32 28
f 30 32 64
f 30 64 65
f 30 65 66
f 30 66 67
f 30 67 31
f 31 67 68
f 31 68 33
f 32 63 64
f 33 68 69
f 33 69 70
f 33 70 71
f 33 71 34
f 34 71 72
f 34 72 35
f 35 73 74
f 35 74 37
f 35 37 36
f 35 72 75
f 35 75 76
f 35 76 73
f 37 74 38
f 38 77 78
f 38 78 39
f 38 74 73
f 38 73 79
f 38 79 80
f 38 80 77
f 39 78 81
f 39 81 40
f 40 81 41
f 41 82 42
f 41 81 83
f 41 83 84
f 41 84 82
f 42 82 43
f 43 82 85
f 43 85 44
f 44 46 45
f 44 85 46
f 46 85 86
f 46 86 47
f 47 86 87
f 47 87 88
f 47 88 89
f 47 89 90
f 47 90 50
f 47 50 48
f 49 50 91
f 50 89 92
f 50 92 93
f 50 93 94
f 50 94 95
f 50 95 102
f 50 102 96
f 50 96 55
f 50 55 97
f 50 97 91
f 50 90 89
f 51 98 52
f 51 55 98
f 52 99 100
f 52 100 53
f 52 98 101
f 52 101 102
f 52 102 103
f 52 103 104
f 52 104 99
f 55 96 101
f 55 101 98
f 56 105 57
f 57 106 58
f 57 105 107
f 57 107 108
f 57 108 106
f 58 106 109
f 58 109 110
f 58 110 59
f 59 110 60
f 60 111 112
f 60 112 61
f 60 110 111
f 61 112 113
f 61 113 62
f 62 113 63
f 63 113 114
f 63 114 65
f 63 65 64
f 65 114 115
f 65 115 66
f 66 115 116
f 66 116 117
f 66 117 118
f 66 118 67
f 67 118 119
f 67 119 68
f 68 119 69
f 69 120 121
f 69 121 70
f 69 119 120
f 70 121 122
f 70 122 123
f 70 123 72
f 70 72 71
f 72 123 75
f 73 76 124
f 73 124 125
f 73 125 126
f 73 126 127
f 73 127 128
f 73 128 79
f 75 123 129
f 75 129 76
f 76 129 124
f 77 130 131
f 77 131 83
f 77 83 78
f 77 80 132
f 77 132 133
f 77 133 134
f 77 134 135
f 77 135 136
f 77 136 130
f 78 83 81
f 79 128 80
f 80 128 137
f 80 137 138
f 80 138 133
f 80 133 132
f 82 84 139
f 82 139 140
f 82 140 87
f 82 87 85
f 83 131 141
f 83 141 84
f 84 141 139
f 85 87 86
f 87 140 142
f 87 142 88
f 88 142 143
f 88 143 89
f 89 143 92
f 92 143 93
f 93 143 144
f 93 144 145
f 93 145 146
f 93 146 147
f 93 147 148
f 93 148 149
f 93 149 150
f 93 150 151
f 93 151 152
f 93 152 153
f 93 153 154
f 93 154 104
f 93 104 103
f 93 103 155
f 93 155 94
f 94 155 95
f 95 155 103
f 95 103 102
f 96 102 101
f 99 156 157
f 99 157 100
f 99 104 158
f 99 158 156
f 104 107 159
f 104 159 160
f 104 160 161
f 104 161 162
f 104 162 163
f 104 163 158
f 104 154 107
f 105 164 159
f 105 159 107
f 106 108 165
f 106 165 109
f 107 154 108
f 108 166 167
f 108 167 165
f 108 154 166
f 109 168 167
f 109 167 169
f 109 169 170
f 109 170 110
f 109 165 168
f 110 170 171
f 110 171 172
f 110 172 173
f 110 173 174
f 110 174 175
f 110 175 111
f 111 175 112
f 112 175 115
f 112 115 113
f 113 115 114
f 115 175 116
f 116 175 174
f 116 174 176
f 116 176 177
f 116 177 117
f 117 177 178
f 117 178 179
f 117 179 119
f 117 119 118
f 119 179 120
f 120 179 121
f 121 179 122
f 122 179 180
f 122 180 181
f 122 181 123
f 123 181 129
f 124 129 125
f 125 129 182
f 125 182 183
f 125 183 126
f 126 183 184
f 126 184 185
f 126 185 186
f 126 186 127
f 127 186 128
f 128 186 187
f 128 187 138
f 128 138 137
f 129 181 183
f 129 183 182
f 130 136 188
f 130 188 189
f 130 189 190
f 130 190 191
f 130 191 192
f 130 192 131
f 131 193 141
f 131 192 194
f 131 194 193
f 133 138 195
f 133 195 196
f 133 196 134
f 134 197 135
f 134 196 197
f 135 197 198
f 135 198 136
f 136 198 188
f 138 187 185
f 138 185 195
f 139 199 140
f 139 141 193
f 139 193 200
f 139 200 201
f 139 201 199
f 140 199 202
f 140 202 142
f 142 202 143
f 143 202 144
f 144 202 145
f 145 202 203
f 145 203 200
f 145 200 204
f 145 204 146
f 146 204 147
f 147 204 205
f 147 205 206
f 147 206 207
f 147 207 148
f 148 207 149
f 149 207 150
f 150 208 209
f 150 209 151
f 150 207 208
f 151 209 152
f 152 209 210
f 152 210 153
f 153 211 154
f 153 210 212
f 153 212 213
f 153 213 214
f 153 214 211
f 154 211 214
f 154 214 215
f 154 215 216
f 154 216 217
f 154 217 218
f 154 218 166
f 156 158 219
f 158 163 219
f 159 164 220
f 159 220 160
f 160 220 161
f 161 220 162
f 162 220 221
f 162 221 163
f 163 221 219
f 165 167 168
f 166 218 222
f 166 222 223
f 166 223 224
f 166 224 167
f 167 224 169
f 169 224 225
f 169 225 226
f 169 226 170
f 170 226 227
f 170 227 172
f 170 172 171
f 172 227 228
f 172 228 229
f 172 229 230
f 172 230 178
f 172 178 177
f 172 177 174
f 172 174 173
f 174 177 176
f 178 230 231
f 178 231 232
f 178 232 180
f 178 180 179
f 180 232 181
f 181 232 183
f 183 233 184
f 183 232 233
f 184 233 234
f 184 234 185
f 185 235 195
f 185 187 186
f 185 234 236
f 185 236 237
f 185 237 235
f 188 238 189
f 188 198 239
f 188 239 240
f 188 240 238
f 189 238 241
f 189 241 191
f 189 191 190
f 191 242 243
f 191 243 194
f 191 194 192
f 191 241 242
f 193 194 200
f 194 243 200
f 195 235 196
f 196 235 244
f 196 244 197
f 197 244 239
f 197 239 198
f 199 201 245
f 199 245 202
f 200 243 204
f 200 203 245
f 200 245 201
f 202 245 203
f 204 243 205
f 205 243 246
f 205 246 206
f 206 246 247
f 206 247 207
f 207 247 208
f 208 248 249
f 208 249 210
f 208 210 209
f 208 247 248
f 210 249 250
f 210 250 251
f 210 251 252
f 210 252 212
f 212 252 253
f 212 253 254
f 212 254 213
f 213 254 222
f 213 222 255
f 213 255 256
f 213 256 214
f 214 256 255
f 214 255 257
f 214 257 215
f 215 257 216
f 216 257 217
f 217 257 218
f 218 257 255
f 218 255 222
f 222 254 223
f 223 254 258
f 223 258 224
f 224 258 259
f 224 259 260
f 224 260 225
f 225 260 226
f 226 260 228
f 226 228 227
f 228 260 261
f 228 261 229
f 229 261 262
f 229 262 263
f 229 263 230
f 230 263 231
f 231 264 232
f 231 263 264
f 232 264 233
f 233 264 265
f 233 265 237
f 233 237 266
f 233 266 234
f 234 266 267
f 234 267 236
f 235 237 244
f 236 267 266
f 236 266 237
f 237 265 268
f 237 268 269
f 237 269 244
f 238 240 270
f 238 270 271
f 238 271 241
f 239 270 240
f 239 244 270
f 241 247 246
f 241 246 242
f 241 271 248
f 241 248 247
f 242 246 243
f 244 269 270
f 248 271 272
f 248 272 249
f 249 272 250
f 250 272 273
f 250 273 251
f 251 274 252
f 251 273 274
f 252 274 275
f 252 275 276
f 252 276 253
f 253 276 277
f 253 277 278
f 253 278 254
f 254 278 258
f 258 278 279
f 258 279 280
f 258 280 259
f 259 280 260
f 260 280 261
f 261 280 262
f 262 280 281
f 262 281 279
f 262 279 277
f 262 277 282
f 262 282 263
f 263 282 283
f 263 283 264
f 264 283 284
f 264 284 285
f 264 285 286
f 264 286 268
f 264 268 265
f 268 287 269
f 268 286 287
f 269 287 274
f 269 274 273
f 269 273 272
f 269 272 270
f 270 272 271
f 274 286 275
f 274 287 286
f 275 286 285
f 275 285 284
f 275 284 276
f 276 284 288
f 276 288 277
f 277 288 282
f 277 279 278
f 279 281 280
f 282 288 283
f 283 288 284

