# https://github.com/mikedh/trimesh
v -0.06138156 -0.01370331 -0.02224076
v -0.06273343 -0.01370331 -0.02341951
v -0.06450036 -0.01370331 -0.02224076
v -0.04910399 -0.01712871 -0.01924574
v -0.04754656 -0.01715165 -0.01927551
v -0.02982591 -0.01596397 -0.02469371
v -0.02982591 -0.01596397 -0.02641629
v -0.06376513 -0.01370331 -0.02427861
v -0.07020433 -0.01370331 -0.02450718
v -0.07020433 -0.02533028 -0.02266462
v -0.07020433 -0.02628348 -0.02252100
v -0.04910399 -0.01961365 -0.01858718
v -0.04910399 -0.01805387 -0.01872555
v -0.04754656 -0.01805387 -0.01876058
v -0.04667693 -0.01724340 -0.01941388
v -0.03859334 -0.01997810 -0.02088600
v -0.03811110 -0.02113265 -0.02071698
v -0.03407918 -0.02490466 -0.02097007
v -0.03192883 -0.02586040 -0.02154193
v -0.03022515 -0.02573807 -0.02221011
v -0.02982591 -0.02535067 -0.02247371
v -0.04608796 -0.01807426 -0.01918531
v -0.04492187 -0.01860948 -0.01935783
v -0.02982591 -0.01702931 -0.02645657
v -0.03001169 -0.01596397 -0.02646008
v -0.06650051 -0.01370331 -0.02592587
v -0.06617242 -0.01370331 -0.02579889
v -0.06554391 -0.01370331 -0.02546699
v -0.06463871 -0.01370331 -0.02487937
v -0.06433434 -0.01370331 -0.02467182
v -0.07020433 -0.01370331 -0.02605899
v -0.07020433 -0.02685693 -0.02253326
v -0.04754656 -0.01961365 -0.01846283
v -0.07020433 -0.03974038 -0.02293785
v -0.06298246 -0.03974038 -0.02179063
v -0.06159501 -0.03974038 -0.02164964
v -0.06142504 -0.03974038 -0.02163300
v -0.05487120 -0.03938357 -0.02100334
v -0.03376691 -0.02586040 -0.02089913
v -0.03298424 -0.02586040 -0.02116186
v -0.02982591 -0.03477050 -0.02094555
v -0.02982591 -0.02596235 -0.02235549
v -0.02982591 -0.01805132 -0.02646358
v -0.03036745 -0.01596397 -0.02654240
v -0.06744129 -0.01370331 -0.02614393
v -0.07020433 -0.01408816 -0.02606862
v -0.06939795 -0.01370331 -0.02621224
v -0.06939795 -0.01493177 -0.02624552
v -0.02982591 -0.03974038 -0.02043236
v -0.02982591 -0.03678649 -0.02071260
v -0.07020433 -0.03974038 -0.02457198
v -0.05520720 -0.03974038 -0.02114609
v -0.02982591 -0.03522416 -0.02087899
v -0.02982591 -0.01859164 -0.02644869
v -0.03036745 -0.01805132 -0.02654940
v -0.03089713 -0.01596397 -0.02658093
v -0.06783657 -0.01370331 -0.02620786
v -0.07020433 -0.01563519 -0.02608613
v -0.06939795 -0.01649409 -0.02627529
v -0.06906196 -0.01370331 -0.02622713
v -0.06783657 -0.01961874 -0.02654240
v -0.02982591 -0.03974038 -0.02290633
v -0.07020433 -0.03597092 -0.02490564
v -0.06939795 -0.03974038 -0.02475238
v -0.02982591 -0.01961365 -0.02631733
v -0.03259686 -0.03938102 -0.02576737
v -0.03349021 -0.03834627 -0.02619210
v -0.03505159 -0.03834627 -0.02653714
v -0.04486257 -0.03289724 -0.02732881
v -0.04483885 -0.03250730 -0.02733144
v -0.03245851 -0.01596397 -0.02665011
v -0.06939795 -0.01805642 -0.02629193
v -0.06975371 -0.01766902 -0.02620436
v -0.07020433 -0.01717713 -0.02609139
v -0.05066141 -0.02760114 -0.02733144
v -0.06783657 -0.01493177 -0.02631733
v -0.06627519 -0.01961874 -0.02659406
v -0.05066141 -0.02897741 -0.02738486
v -0.06783657 -0.02117852 -0.02647409
v -0.06939795 -0.01961874 -0.02629281
v -0.03096829 -0.03974038 -0.02436531
v -0.02982591 -0.02015396 -0.02622888
v -0.07020433 -0.01961874 -0.02601958
v -0.05146779 -0.02978024 -0.02726751
v -0.04521043 -0.03444937 -0.02726313
v -0.04286243 -0.03973274 -0.02631208
v -0.04087414 -0.03974038 -0.02637250
v -0.03106315 -0.03974038 -0.02445025
v -0.03177467 -0.03834627 -0.02525418
v -0.03316212 -0.03974038 -0.02593113
v -0.03343091 -0.03974038 -0.02602746
v -0.03220158 -0.03974038 -0.02536803
v -0.03505159 -0.03974038 -0.02640403
v -0.04517485 -0.03444937 -0.02726313
v -0.04490605 -0.03365929 -0.02731655
v -0.04899726 -0.02886272 -0.02740938
v -0.07020433 -0.01867574 -0.02606862
v -0.05066141 -0.02994590 -0.02731392
v -0.04898145 -0.03051425 -0.02736559
v -0.04130105 -0.03973274 -0.02636812
v -0.04147102 -0.03973274 -0.02636550
v -0.04558990 -0.03365929 -0.02731655
v -0.03661296 -0.03974038 -0.02643030
v -0.03678294 -0.03974038 -0.02642942
v -0.03834431 -0.03974038 -0.02640928
v -0.03522156 -0.03974038 -0.02640841
f 1 2 8
f 1 8 30
f 1 30 29
f 1 29 28
f 1 28 27
f 1 27 26
f 1 26 45
f 1 45 57
f 1 57 60
f 1 60 47
f 1 47 31
f 1 31 9
f 1 9 3
f 1 3 4
f 1 4 5
f 1 5 6
f 1 6 7
f 1 7 2
f 2 7 8
f 3 9 10
f 3 10 11
f 3 11 12
f 3 12 13
f 3 13 4
f 4 13 14
f 4 14 5
f 5 14 15
f 5 15 6
f 6 16 17
f 6 17 18
f 6 18 19
f 6 19 20
f 6 20 21
f 6 21 42
f 6 42 41
f 6 41 53
f 6 53 50
f 6 50 49
f 6 49 62
f 6 62 82
f 6 82 65
f 6 65 54
f 6 54 43
f 6 43 24
f 6 24 7
f 6 15 14
f 6 14 22
f 6 22 23
f 6 23 16
f 7 24 25
f 7 25 26
f 7 26 27
f 7 27 28
f 7 28 29
f 7 29 30
f 7 30 8
f 9 31 46
f 9 46 58
f 9 58 74
f 9 74 97
f 9 97 83
f 9 83 63
f 9 63 51
f 9 51 34
f 9 34 32
f 9 32 11
f 9 11 10
f 11 32 12
f 12 33 13
f 12 32 34
f 12 34 35
f 12 35 36
f 12 36 37
f 12 37 38
f 12 38 33
f 13 33 14
f 14 23 22
f 14 33 18
f 14 18 23
f 16 23 17
f 17 23 18
f 18 39 40
f 18 40 19
f 18 33 39
f 19 41 20
f 19 40 41
f 20 41 42
f 20 42 21
f 24 43 44
f 24 44 25
f 25 44 45
f 25 45 26
f 31 47 48
f 31 48 46
f 33 38 49
f 33 49 50
f 33 50 39
f 34 51 64
f 34 64 87
f 34 87 105
f 34 105 104
f 34 104 103
f 34 103 106
f 34 106 93
f 34 93 91
f 34 91 90
f 34 90 92
f 34 92 88
f 34 88 81
f 34 81 62
f 34 62 49
f 34 49 52
f 34 52 37
f 34 37 36
f 34 36 35
f 37 52 38
f 38 52 49
f 39 50 53
f 39 53 40
f 40 53 41
f 43 54 55
f 43 55 44
f 44 55 56
f 44 56 57
f 44 57 45
f 46 48 59
f 46 59 58
f 47 60 61
f 47 61 48
f 48 61 59
f 51 63 64
f 54 65 66
f 54 66 67
f 54 67 68
f 54 68 55
f 55 68 69
f 55 69 70
f 55 70 56
f 56 70 71
f 56 71 57
f 57 71 60
f 58 59 72
f 58 72 73
f 58 73 74
f 59 61 72
f 60 75 76
f 60 76 77
f 60 77 61
f 60 71 75
f 61 77 78
f 61 78 79
f 61 79 80
f 61 80 72
f 62 81 82
f 63 83 80
f 63 80 79
f 63 79 64
f 64 79 84
f 64 84 85
f 64 85 86
f 64 86 87
f 65 82 81
f 65 81 88
f 65 88 89
f 65 89 66
f 66 90 91
f 66 91 67
f 66 89 88
f 66 88 92
f 66 92 90
f 67 91 93
f 67 93 68
f 68 93 94
f 68 94 95
f 68 95 69
f 69 95 96
f 69 96 70
f 70 96 71
f 71 96 75
f 72 80 73
f 73 80 74
f 74 80 97
f 75 96 78
f 75 78 77
f 75 77 76
f 78 98 84
f 78 84 79
f 78 96 99
f 78 99 98
f 80 83 97
f 84 98 85
f 85 100 101
f 85 101 86
f 85 98 102
f 85 102 95
f 85 95 94
f 85 94 103
f 85 103 104
f 85 104 105
f 85 105 100
f 86 101 87
f 87 101 100
f 87 100 105
f 93 106 94
f 94 106 103
f 95 102 96
f 96 102 99
f 98 99 102

