# https://github.com/mikedh/trimesh
v -0.00483789 0.00098339 0.02808150
v -0.00483789 0.00069473 0.02812717
v -0.00483789 0.00098339 0.02610079
v -0.02568490 0.00098339 0.02780208
v -0.02568490 0.00068828 0.02796617
v -0.02540968 -0.00146135 0.02902503
v -0.02459571 -0.00146135 0.02902503
v -0.02583130 -0.00228378 0.02925414
v -0.02568490 -0.00399639 0.02965818
v -0.00538834 -0.01336251 0.02996314
v -0.00483789 -0.01336251 0.02993605
v -0.02412138 -0.00399639 0.02959238
v -0.00483789 -0.00444470 0.02433061
v -0.00503114 0.00098339 0.02590573
v -0.02724257 0.00098339 0.02774093
v -0.06315097 0.00098339 0.02513868
v -0.03661202 -0.00555902 0.02956916
v -0.00694601 -0.01336251 0.03002661
v -0.03816969 -0.00712004 0.02985246
v -0.03661202 -0.00712004 0.02989812
v -0.00645997 -0.01444135 0.02992134
v -0.00483789 -0.01438169 0.02983697
v -0.00483789 -0.00469949 0.02424779
v -0.00567528 0.00098339 0.02537553
v -0.06442169 0.00098339 0.02502955
v -0.06466179 -0.00399639 0.02647077
v -0.00694601 -0.01444135 0.02994069
v -0.03816969 -0.00867784 0.02998713
v -0.03816969 -0.01024047 0.03000416
v -0.03816969 -0.01180149 0.02996624
v -0.03661202 -0.01336251 0.02986484
v -0.06430458 -0.00781992 0.02740036
v -0.06002977 -0.01024047 0.02815348
v -0.03973321 -0.00867784 0.02990973
v -0.00490230 -0.01444135 0.02983465
v -0.03504849 -0.01549117 0.02961019
v -0.00483789 -0.01444135 0.02982923
v -0.00681719 0.00098339 0.02454501
v -0.00671178 0.00098339 0.02462164
v -0.00483789 -0.00487205 0.02424779
v -0.01178885 0.00098339 0.02290564
v -0.00889017 0.00098339 0.02362470
v -0.00852711 0.00098339 0.02373539
v -0.00774242 0.00098339 0.02400475
v -0.00745548 0.00098339 0.02414407
v -0.06466179 0.00098339 0.02499549
v -0.06466179 -0.00738290 0.02721537
v -0.03661202 -0.01492514 0.02968062
v -0.03973321 -0.01024047 0.02993063
v -0.03973321 -0.01180149 0.02991360
v -0.03816969 -0.01336251 0.02984626
v -0.06466179 -0.00818921 0.02733457
v -0.06434557 -0.00867784 0.02741817
v -0.06159330 -0.01549117 0.02817284
v -0.06159330 -0.01180149 0.02805673
v -0.06159330 -0.01024047 0.02795998
v -0.06002977 -0.01180149 0.02825256
v -0.06002977 -0.01549117 0.02834312
v -0.04129088 -0.01024047 0.02981221
v -0.03663544 -0.01549117 0.02953356
v -0.03349668 -0.01549117 0.02939424
v -0.03197414 -0.01549117 0.02910553
v -0.03036963 -0.01549117 0.02868214
v -0.00483789 -0.01444135 0.02804048
v -0.00483789 -0.00758609 0.02520370
v -0.00538834 -0.00711843 0.02491189
v -0.00538834 -0.00494623 0.02423308
v -0.01319426 0.00098339 0.02268504
v -0.06466179 0.00098339 0.02333522
v -0.06466179 -0.00867784 0.02734928
v -0.06059194 -0.01549117 0.02828739
v -0.06215546 -0.01549117 0.02802577
v -0.03036963 -0.01549117 0.02714029
v -0.01329967 -0.01444135 0.02693595
v -0.00694601 -0.00711843 0.02482598
v -0.00694601 -0.00515587 0.02420289
v -0.01440058 0.00098339 0.02263783
v -0.06466179 0.00097210 0.02333522
v -0.05222385 0.00098339 0.02212001
v -0.06466179 -0.01549117 0.02715113
v -0.06404107 -0.01549117 0.02742668
v -0.06364872 -0.01549117 0.02756833
v -0.06324466 -0.01549117 0.02770997
v -0.04198774 -0.01549117 0.02630590
v -0.04286026 -0.01549117 0.02626411
v -0.06466179 -0.01549117 0.02539875
v -0.01475193 0.00098339 0.02262699
v -0.06466179 0.00068667 0.02333909
v -0.05222385 0.00068667 0.02215020
v -0.05378738 0.00068667 0.02228952
v -0.01755691 0.00098339 0.02256971
v -0.06466179 0.00063184 0.02334451
f 1 2 11
f 1 11 22
f 1 22 37
f 1 37 64
f 1 64 65
f 1 65 40
f 1 40 23
f 1 23 13
f 1 13 3
f 1 3 14
f 1 14 24
f 1 24 39
f 1 39 38
f 1 38 45
f 1 45 44
f 1 44 43
f 1 43 42
f 1 42 41
f 1 41 68
f 1 68 77
f 1 77 87
f 1 87 91
f 1 91 79
f 1 79 69
f 1 69 46
f 1 46 25
f 1 25 16
f 1 16 15
f 1 15 4
f 1 4 5
f 1 5 6
f 1 6 7
f 1 7 8
f 1 8 9
f 1 9 2
f 2 10 11
f 2 9 12
f 2 12 10
f 3 13 14
f 4 15 5
f 5 15 6
f 6 8 7
f 6 15 16
f 6 16 17
f 6 17 8
f 8 17 9
f 9 18 10
f 9 10 12
f 9 17 19
f 9 19 20
f 9 20 18
f 10 21 11
f 10 18 21
f 11 21 22
f 13 23 14
f 14 23 24
f 16 25 17
f 17 25 26
f 17 26 19
f 18 27 21
f 18 20 28
f 18 28 29
f 18 29 30
f 18 30 31
f 18 31 27
f 19 28 20
f 19 26 32
f 19 32 33
f 19 33 34
f 19 34 28
f 21 35 22
f 21 27 36
f 21 36 35
f 22 35 37
f 23 38 39
f 23 39 24
f 23 40 41
f 23 41 42
f 23 42 43
f 23 43 44
f 23 44 45
f 23 45 38
f 25 46 26
f 26 46 69
f 26 69 78
f 26 78 88
f 26 88 92
f 26 92 86
f 26 86 80
f 26 80 70
f 26 70 52
f 26 52 47
f 26 47 32
f 27 31 48
f 27 48 36
f 28 34 49
f 28 49 29
f 29 49 50
f 29 50 30
f 30 50 51
f 30 51 31
f 31 51 48
f 32 47 52
f 32 52 53
f 32 53 54
f 32 54 55
f 32 55 56
f 32 56 33
f 33 56 57
f 33 57 34
f 34 57 58
f 34 58 59
f 34 59 49
f 35 36 37
f 36 48 60
f 36 60 58
f 36 58 71
f 36 71 54
f 36 54 72
f 36 72 83
f 36 83 82
f 36 82 81
f 36 81 80
f 36 80 86
f 36 86 85
f 36 85 84
f 36 84 73
f 36 73 63
f 36 63 62
f 36 62 61
f 36 61 37
f 37 61 62
f 37 62 63
f 37 63 73
f 37 73 64
f 40 65 66
f 40 66 67
f 40 67 68
f 40 68 41
f 48 51 58
f 48 58 60
f 49 59 58
f 49 58 50
f 50 58 51
f 52 70 53
f 53 70 54
f 54 71 57
f 54 57 55
f 54 70 72
f 55 57 56
f 57 71 58
f 64 66 65
f 64 73 74
f 64 74 66
f 66 74 75
f 66 75 76
f 66 76 67
f 67 76 68
f 68 76 77
f 69 79 78
f 70 80 81
f 70 81 82
f 70 82 83
f 70 83 72
f 73 84 74
f 74 84 85
f 74 85 86
f 74 86 75
f 75 86 76
f 76 87 77
f 76 86 87
f 78 79 88
f 79 89 90
f 79 90 88
f 79 91 89
f 86 92 90
f 86 90 89
f 86 89 91
f 86 91 87
f 88 90 92

