# https://github.com/mikedh/trimesh
v 0.06201435 0.01708835 0.02435580
v 0.06201435 0.01708835 0.02258825
v 0.06173691 0.01708835 0.02451203
v 0.06200510 0.00800879 0.02585093
v 0.06201435 0.01161854 0.02515243
v 0.06201435 0.01634906 0.02253273
v 0.04614503 0.00381580 0.01866063
v 0.04458215 0.00537477 0.01855605
v 0.04301926 0.00537635 0.01839207
v 0.02428311 0.01708835 0.01881556
v 0.05830596 0.01708835 0.02604976
v 0.06200510 0.00693690 0.02596584
v 0.06201435 0.00961348 0.02544422
v 0.05502297 0.01708835 0.02751907
v 0.06201435 0.01630177 0.02253014
v 0.06200510 0.00098632 0.02333065
v 0.04869744 0.00255475 0.01949470
v 0.04782814 0.00212284 0.01930490
v 0.04614503 0.00225525 0.01889949
v 0.04458215 0.00381580 0.01852506
v 0.04301926 0.00381580 0.01840498
v -0.00451470 0.01708835 0.01645409
v -0.00344195 0.01708835 0.01652639
v 0.06200510 0.00537477 0.02610012
v 0.06200510 0.00413106 0.02599683
v 0.06200510 0.00377166 0.02596068
v 0.06200510 0.00098632 0.02498587
v 0.06201435 0.00961348 0.02377221
v 0.05395022 0.01708835 0.02788962
v 0.06201435 0.01474122 0.02271090
v 0.06201435 0.01423365 0.02281161
v -0.00572617 0.00098475 0.02532802
v -0.00680817 0.00098475 0.02454301
v -0.00744627 0.00098475 0.02414147
v -0.00774220 0.00098475 0.02400203
v -0.00851902 0.00098475 0.02373219
v -0.00887969 0.00098475 0.02362244
v -0.01178351 0.00098475 0.02290586
v 0.04895638 0.00098632 0.02013897
v 0.04843850 0.00151439 0.01959928
v 0.04614503 0.00125902 0.01937204
v 0.04458215 0.00225525 0.01882073
v 0.04367586 0.00316636 0.01857800
v 0.04739349 0.00137725 0.01949728
v 0.01647792 0.00293149 0.01951794
v -0.01318919 0.01473964 0.01729720
v -0.00460718 0.01707731 0.01645667
v -0.00461643 0.01708835 0.01645538
v 0.05317340 0.01708835 0.02806780
v 0.05238733 0.01708835 0.02820853
v 0.05238733 0.01630177 0.02816722
v 0.05510620 0.01056872 0.02744160
v 0.06102483 0.00302134 0.02583027
v 0.03629607 0.00569161 0.02904777
v 0.06044221 0.00098632 0.02516921
v -0.00572617 0.00098475 0.02764947
v -0.01318919 0.00098475 0.02268379
v 0.04712530 0.00098632 0.01976971
v 0.04768942 0.00098632 0.01986784
v 0.04799460 0.00098632 0.01993110
v 0.04614503 0.00098632 0.01963027
v 0.04458215 0.00126218 0.01936300
v -0.01876564 0.00299139 0.02111507
v -0.01933901 0.00375117 0.02080003
v -0.01943149 0.00537635 0.02027196
v -0.01490004 0.01459147 0.01767679
v -0.01553814 0.01481688 0.01777750
v -0.01318919 0.01481688 0.01729591
v -0.00464417 0.01708835 0.01646183
v -0.02735690 0.01481688 0.02044368
v -0.02839266 0.01481688 0.02068383
v 0.05161051 0.01708835 0.02826276
v 0.03365119 0.01005642 0.02964298
v 0.03365119 0.00849902 0.02959521
v 0.06019252 0.00098632 0.02519504
v 0.03520482 0.00482464 0.02885539
v 0.03520482 0.00560334 0.02907101
v 0.05588302 0.00098632 0.02557076
v 0.03557474 0.00276440 0.02767659
v -0.02567379 0.00098475 0.02780183
v -0.01439141 0.00098475 0.02263731
v -0.01476132 0.00098475 0.02262569
v -0.01754493 0.00098475 0.02257017
v 0.04513702 0.00098632 0.01962639
v 0.04458215 0.00098632 0.01965093
v 0.00691564 0.00098632 0.02140686
v -0.01786860 0.00098475 0.02257921
v -0.01892286 0.00098475 0.02271348
v -0.01943149 0.00128897 0.02255597
v -0.03246171 0.00098475 0.02539129
v -0.02099438 0.00426347 0.02092914
v -0.02099438 0.00537635 0.02059732
v -0.01943149 0.01161697 0.01915255
v -0.01943149 0.01317909 0.01888399
v -0.00555046 0.01708835 0.01670069
v -0.02872558 0.01481688 0.02076646
v -0.03036245 0.01481688 0.02118608
v 0.05082445 0.01708835 0.02828213
v 0.03365119 0.01161854 0.02940929
v 0.03208830 0.01161854 0.02940283
v 0.03208830 0.01005642 0.02959392
v -0.02723668 0.00098475 0.02774114
v -0.03246171 0.00098475 0.02692773
v -0.03246171 0.01481688 0.02180324
v -0.02185443 0.00451726 0.02109570
v -0.03210105 0.01481688 0.02169478
v -0.03186985 0.01481688 0.02162635
v -0.00572617 0.01708835 0.01678720
v 0.05004763 0.01708835 0.02828084
v 0.03276339 0.01402557 0.02897030
v 0.03323503 0.01402557 0.02897030
v -0.03246171 0.00849745 0.02637642
v -0.02867934 0.00098475 0.02756942
v -0.03246171 0.00693848 0.02658300
v -0.03246171 0.01481688 0.02371153
v -0.00572617 0.01708835 0.01887367
v 0.04926156 0.01708835 0.02827438
v 0.04848474 0.01708835 0.02825501
v 0.03457597 0.01708835 0.02785735
v 0.03365119 0.01630177 0.02812977
v -0.03246171 0.00978845 0.02602136
v 0.00712834 0.01708835 0.02182777
v -0.03246171 0.01309240 0.02460112
v 0.03365119 0.01708835 0.02780441
v 0.03244896 0.01708835 0.02756297
v -0.03246171 0.01248236 0.02487613
f 1 2 10
f 1 10 23
f 1 23 22
f 1 22 48
f 1 48 69
f 1 69 95
f 1 95 108
f 1 108 116
f 1 116 122
f 1 122 125
f 1 125 124
f 1 124 119
f 1 119 118
f 1 118 117
f 1 117 109
f 1 109 98
f 1 98 72
f 1 72 50
f 1 50 49
f 1 49 29
f 1 29 14
f 1 14 11
f 1 11 3
f 1 3 4
f 1 4 5
f 1 5 13
f 1 13 28
f 1 28 31
f 1 31 30
f 1 30 15
f 1 15 6
f 1 6 2
f 2 6 7
f 2 7 8
f 2 8 9
f 2 9 10
f 3 11 4
f 4 12 13
f 4 13 5
f 4 11 14
f 4 14 12
f 6 15 7
f 7 15 16
f 7 16 17
f 7 17 18
f 7 18 19
f 7 19 20
f 7 20 9
f 7 9 8
f 9 20 21
f 9 21 22
f 9 22 23
f 9 23 10
f 12 24 13
f 12 14 24
f 13 24 25
f 13 25 26
f 13 26 27
f 13 27 16
f 13 16 28
f 14 29 24
f 15 30 16
f 16 30 31
f 16 31 28
f 16 27 56
f 16 56 32
f 16 32 33
f 16 33 34
f 16 34 35
f 16 35 36
f 16 36 37
f 16 37 38
f 16 38 39
f 16 39 40
f 16 40 18
f 16 18 17
f 18 40 19
f 19 41 42
f 19 42 43
f 19 43 21
f 19 21 20
f 19 40 44
f 19 44 41
f 21 43 42
f 21 42 45
f 21 45 46
f 21 46 47
f 21 47 22
f 22 47 48
f 24 29 49
f 24 49 50
f 24 50 51
f 24 51 52
f 24 52 25
f 25 52 26
f 26 53 27
f 26 52 54
f 26 54 53
f 27 53 55
f 27 55 56
f 32 56 80
f 32 80 102
f 32 102 113
f 32 113 103
f 32 103 90
f 32 90 88
f 32 88 87
f 32 87 83
f 32 83 82
f 32 82 81
f 32 81 57
f 32 57 38
f 32 38 37
f 32 37 36
f 32 36 35
f 32 35 34
f 32 34 33
f 38 57 58
f 38 58 59
f 38 59 60
f 38 60 39
f 39 60 40
f 40 60 59
f 40 59 44
f 41 61 62
f 41 62 42
f 41 44 59
f 41 59 58
f 41 58 61
f 42 62 45
f 45 62 63
f 45 63 64
f 45 64 65
f 45 65 46
f 46 65 66
f 46 66 67
f 46 67 68
f 46 68 48
f 46 48 47
f 48 68 67
f 48 67 70
f 48 70 71
f 48 71 69
f 50 72 73
f 50 73 74
f 50 74 51
f 51 74 52
f 52 74 54
f 53 75 55
f 53 54 76
f 53 76 75
f 54 74 77
f 54 77 76
f 55 75 56
f 56 75 78
f 56 78 79
f 56 79 76
f 56 76 80
f 57 81 61
f 57 61 58
f 61 81 82
f 61 82 83
f 61 83 84
f 61 84 62
f 62 84 85
f 62 85 86
f 62 86 87
f 62 87 63
f 63 87 88
f 63 88 89
f 63 89 90
f 63 90 64
f 64 90 91
f 64 91 65
f 65 91 92
f 65 92 93
f 65 93 66
f 66 93 94
f 66 94 67
f 67 94 70
f 69 71 96
f 69 96 97
f 69 97 95
f 70 94 71
f 71 94 93
f 71 93 92
f 71 92 96
f 72 98 73
f 73 99 100
f 73 100 101
f 73 101 80
f 73 80 74
f 73 98 99
f 74 80 77
f 75 76 78
f 76 79 78
f 76 77 80
f 80 101 102
f 83 87 84
f 84 87 85
f 85 87 86
f 88 90 89
f 90 103 114
f 90 114 112
f 90 112 121
f 90 121 126
f 90 126 123
f 90 123 115
f 90 115 104
f 90 104 92
f 90 92 105
f 90 105 91
f 91 105 92
f 92 104 106
f 92 106 107
f 92 107 97
f 92 97 96
f 95 97 107
f 95 107 106
f 95 106 104
f 95 104 108
f 98 109 110
f 98 110 111
f 98 111 99
f 99 111 110
f 99 110 100
f 100 110 112
f 100 112 102
f 100 102 101
f 102 112 114
f 102 114 113
f 103 113 114
f 104 115 116
f 104 116 108
f 109 117 110
f 110 117 118
f 110 118 119
f 110 119 120
f 110 120 121
f 110 121 112
f 115 122 116
f 115 123 124
f 115 124 125
f 115 125 122
f 119 124 120
f 120 124 121
f 121 124 126
f 123 126 124

