# https://github.com/mikedh/trimesh
v 0.04562894 0.03610285 -0.02429748
v 0.04562894 0.03610285 -0.02262714
v 0.04562894 0.03653818 -0.02428005
v 0.04681050 0.02099291 -0.02734776
v 0.04681050 0.01942809 -0.02736286
v 0.04681050 0.01891040 -0.02735124
v 0.04562894 0.03646170 -0.02250401
v 0.04681050 0.01891040 -0.02559611
v 0.04562894 0.03773238 -0.02418364
v 0.04681050 0.02202828 -0.02730362
v 0.04720700 0.02199298 -0.02729781
v 0.04748994 0.02099291 -0.02732801
v 0.04783862 0.01942514 -0.02733034
v 0.04778084 0.01891040 -0.02732104
v 0.04562894 0.03668525 -0.02245639
v 0.05153471 0.03252611 -0.01624199
v 0.05239746 0.01891040 -0.02505017
v 0.05473466 0.02801402 -0.01789258
v 0.05395958 0.03000240 -0.01661485
v 0.05302111 0.03103483 -0.01627103
v 0.05197904 0.03148192 -0.01653935
v 0.04562894 0.04881262 -0.02269683
v 0.05253295 0.04895968 -0.02331711
v 0.05409507 0.04895968 -0.02337519
v 0.05551971 0.04895968 -0.02335661
v 0.05565918 0.04895968 -0.02335312
v 0.06381448 0.01891040 -0.02626053
v 0.06598431 0.03660289 -0.02466221
v 0.06598431 0.03628816 -0.02468777
v 0.04821919 0.01891040 -0.02729665
v 0.04562894 0.04453289 -0.02096842
v 0.05245923 0.03197019 -0.01606195
v 0.05239746 0.03348207 -0.01582266
v 0.05152475 0.03348207 -0.01623270
v 0.04562894 0.04546825 -0.02089175
v 0.04562894 0.04490938 -0.02090221
v 0.05343954 0.01891040 -0.02497583
v 0.05395958 0.01891040 -0.02494563
v 0.06273255 0.01891040 -0.02459832
v 0.06332632 0.01891040 -0.02457858
v 0.05551971 0.02879643 -0.01729553
v 0.05395958 0.03078481 -0.01617346
v 0.05395958 0.03192019 -0.01572045
v 0.04562894 0.04895968 -0.02266082
v 0.06502193 0.04895968 -0.02291289
v 0.06381448 0.01891040 -0.02459252
v 0.06598431 0.03610285 -0.02470170
v 0.06598431 0.04895968 -0.02285945
v 0.05395958 0.03348207 -0.01549626
v 0.05237355 0.03497924 -0.01610260
v 0.04562894 0.04895968 -0.02084065
v 0.05157655 0.03442037 -0.01629078
v 0.05637648 0.02800813 -0.01788910
v 0.05741856 0.02809932 -0.01795995
v 0.05697025 0.02869053 -0.01754295
v 0.05517700 0.03077304 -0.01618391
v 0.05444774 0.03189371 -0.01579595
v 0.06381448 0.02019579 -0.02410814
v 0.05831518 0.02913763 -0.01768117
v 0.06598431 0.03610285 -0.02288269
v 0.06598431 0.04895968 -0.02121816
v 0.05394762 0.03509983 -0.01596786
v 0.05287566 0.03595578 -0.01623618
v 0.05562531 0.03182606 -0.01597948
v 0.05566915 0.03362031 -0.01590978
v 0.04604737 0.04895968 -0.02074307
v 0.06381448 0.02579032 -0.02236579
v 0.05926760 0.03035831 -0.01800758
v 0.05848853 0.03035831 -0.01757663
v 0.05647013 0.03228492 -0.01619437
v 0.06598431 0.03695291 -0.02263295
v 0.06598431 0.04440935 -0.02124836
v 0.06176221 0.04895968 -0.02095680
v 0.05647013 0.03319381 -0.01619437
v 0.05341961 0.03595578 -0.01623618
v 0.04771310 0.04895968 -0.02060020
v 0.06381448 0.02723749 -0.02207075
v 0.06099509 0.02955530 -0.01944444
v 0.06598431 0.03922661 -0.02205100
v 0.06598431 0.04284747 -0.02144698
v 0.06598431 0.04372401 -0.02133083
v 0.06598431 0.04084144 -0.02172460
v 0.06598431 0.04232684 -0.02151900
f 1 2 7
f 1 7 15
f 1 15 31
f 1 31 36
f 1 36 35
f 1 35 51
f 1 51 44
f 1 44 22
f 1 22 9
f 1 9 3
f 1 3 4
f 1 4 5
f 1 5 6
f 1 6 8
f 1 8 2
f 2 8 7
f 3 9 10
f 3 10 4
f 4 10 11
f 4 11 12
f 4 12 5
f 5 13 14
f 5 14 6
f 5 12 13
f 6 14 30
f 6 30 27
f 6 27 46
f 6 46 40
f 6 40 39
f 6 39 38
f 6 38 37
f 6 37 17
f 6 17 8
f 7 8 16
f 7 16 15
f 8 17 18
f 8 18 19
f 8 19 20
f 8 20 21
f 8 21 16
f 9 22 10
f 10 22 23
f 10 23 24
f 10 24 25
f 10 25 26
f 10 26 11
f 11 27 12
f 11 26 28
f 11 28 29
f 11 29 27
f 12 27 13
f 13 27 30
f 13 30 14
f 15 16 31
f 16 21 32
f 16 32 33
f 16 33 34
f 16 34 35
f 16 35 36
f 16 36 31
f 17 37 18
f 18 37 38
f 18 38 39
f 18 39 40
f 18 40 41
f 18 41 19
f 19 42 20
f 19 41 42
f 20 42 43
f 20 43 32
f 20 32 21
f 22 44 23
f 23 44 51
f 23 51 66
f 23 66 76
f 23 76 73
f 23 73 61
f 23 61 48
f 23 48 45
f 23 45 26
f 23 26 25
f 23 25 24
f 26 45 28
f 27 29 47
f 27 47 60
f 27 60 46
f 28 45 48
f 28 48 61
f 28 61 72
f 28 72 81
f 28 81 80
f 28 80 83
f 28 83 82
f 28 82 79
f 28 79 71
f 28 71 60
f 28 60 47
f 28 47 29
f 32 43 33
f 33 43 49
f 33 49 50
f 33 50 51
f 33 51 52
f 33 52 34
f 34 52 51
f 34 51 35
f 40 46 41
f 41 46 53
f 41 53 54
f 41 54 55
f 41 55 56
f 41 56 42
f 42 56 43
f 43 56 57
f 43 57 49
f 46 58 59
f 46 59 54
f 46 54 53
f 46 60 58
f 49 62 63
f 49 63 50
f 49 57 64
f 49 64 65
f 49 65 61
f 49 61 62
f 50 63 66
f 50 66 51
f 54 59 55
f 55 59 56
f 56 64 57
f 56 59 64
f 58 60 67
f 58 67 59
f 59 67 68
f 59 68 69
f 59 69 70
f 59 70 64
f 60 71 67
f 61 73 62
f 61 65 74
f 61 74 70
f 61 70 72
f 62 73 75
f 62 75 63
f 63 75 76
f 63 76 66
f 64 70 65
f 65 70 74
f 67 77 78
f 67 78 68
f 67 71 79
f 67 79 77
f 68 70 69
f 68 78 80
f 68 80 81
f 68 81 72
f 68 72 70
f 73 76 75
f 77 79 82
f 77 82 78
f 78 82 83
f 78 83 80

