# https://github.com/mikedh/trimesh
v -0.02982591 0.00098157 -0.02307199
v -0.02982591 0.00098157 -0.02493138
v -0.03097432 0.00098157 -0.02246702
v -0.03097698 0.00094689 -0.02246864
v -0.02982591 -0.01595663 -0.02469360
v -0.02982591 -0.00134379 -0.02565929
v -0.04753859 0.00098157 -0.02594479
v -0.03177715 0.00053073 -0.02209821
v -0.03392777 0.00098157 -0.02098533
v -0.02982591 -0.01595663 -0.02641792
v -0.03405005 0.00098157 -0.02093761
v -0.03418297 0.00098157 -0.02090121
v -0.03498845 0.00060009 -0.02079203
v -0.05467896 -0.01360573 -0.01947937
v -0.04597813 -0.01595663 -0.02159515
v -0.05311850 -0.01765958 -0.02150052
v -0.05311850 -0.01766140 -0.02223813
v -0.02982591 -0.00190596 -0.02578060
v -0.03661537 -0.00867759 -0.02754456
v -0.03817583 -0.00867759 -0.02758419
v -0.04885980 0.00098157 -0.02591244
v -0.03037087 -0.01595663 -0.02654248
v -0.03254807 -0.01147020 -0.02729869
v -0.02982591 -0.01180057 -0.02658373
v -0.05311850 -0.01766140 -0.02368019
v -0.05375917 -0.01766140 -0.02395680
v -0.05378841 -0.01766140 -0.02396893
v -0.05513354 -0.01766140 -0.02431751
v -0.03467211 0.00098157 -0.02083489
v -0.03501769 0.00098157 -0.02079688
v -0.05426692 -0.00231481 -0.01947937
v -0.05402234 -0.01180057 -0.01947937
v -0.05413665 -0.01263470 -0.01947937
v -0.05420046 -0.01307458 -0.01947937
v -0.05496074 -0.01385396 -0.01947937
v -0.04909905 -0.01595663 -0.02100150
v -0.04753859 -0.01595663 -0.02129671
v -0.05580345 -0.01433582 -0.01947937
v -0.05606397 -0.01438328 -0.01947937
v -0.05690933 -0.01452382 -0.01947937
v -0.05698376 -0.01452747 -0.01947937
v -0.05698376 -0.01510425 -0.01993310
v -0.05698376 -0.01602234 -0.02071438
v -0.05698376 -0.01757014 -0.02223813
v -0.05619954 -0.01765958 -0.02223813
v -0.05521595 -0.01766140 -0.02223813
v -0.02982591 -0.00712066 -0.02653844
v -0.03263580 -0.00940038 -0.02727524
v -0.03349445 -0.00914667 -0.02733185
v -0.03509479 -0.00861918 -0.02740949
v -0.03505491 -0.01023999 -0.02762140
v -0.03661537 -0.01023999 -0.02771926
v -0.03817583 -0.01023999 -0.02774190
v -0.04909905 0.00098157 -0.02588898
v -0.03973895 -0.01023999 -0.02763919
v -0.05521595 -0.01766140 -0.02433612
v -0.03089723 -0.01595663 -0.02658211
v -0.03381346 -0.01284825 -0.02730678
v -0.03337217 -0.01191373 -0.02737552
v -0.03253212 -0.01023999 -0.02729869
v -0.02982591 -0.01023999 -0.02662740
v -0.03349445 -0.01023999 -0.02743861
v -0.03670310 0.00098157 -0.02077666
v -0.05698376 0.00056724 -0.01947937
v -0.05618093 0.00038289 -0.01947937
v -0.05574496 0.00009998 -0.01947937
v -0.05504582 -0.00087470 -0.01947937
v -0.05539140 -0.01410949 -0.01947937
v -0.05698376 0.00097974 -0.02223813
v -0.02982591 -0.00867759 -0.02662336
v -0.03505491 -0.01180057 -0.02752272
v -0.03661537 -0.01180057 -0.02757691
v -0.03817583 -0.01180057 -0.02760522
v -0.03973895 -0.01180057 -0.02752353
v -0.05025810 0.00098157 -0.02577090
v -0.04135789 -0.01183707 -0.02734641
v -0.04216604 -0.01134243 -0.02728656
v -0.04129941 -0.01023999 -0.02743376
v -0.04216870 -0.00932555 -0.02728656
v -0.05311584 0.00098157 -0.02503895
v -0.05277025 0.00098157 -0.02515703
v -0.05254430 0.00098157 -0.02522335
v -0.05143575 0.00098157 -0.02554282
v -0.04753859 -0.01180057 -0.02612838
v -0.04191349 -0.01238099 -0.02719597
v -0.04087673 -0.01267668 -0.02729465
v -0.03973895 -0.01281540 -0.02734398
v -0.03402081 -0.01595663 -0.02659424
v -0.03349445 -0.01595663 -0.02662336
v -0.03245769 -0.01595663 -0.02665086
v -0.03505491 -0.01292309 -0.02733185
v -0.03799240 0.00098157 -0.02088827
v -0.05698376 0.00097974 -0.02154824
v -0.05552432 0.00097974 -0.02147464
v -0.03817583 -0.01288476 -0.02736986
v -0.05065951 0.00098157 -0.02570215
v -0.04221123 -0.01023999 -0.02729788
v -0.05311584 0.00098157 -0.02223085
f 1 2 7
f 1 7 21
f 1 21 54
f 1 54 75
f 1 75 96
f 1 96 83
f 1 83 82
f 1 82 81
f 1 81 80
f 1 80 98
f 1 98 92
f 1 92 63
f 1 63 30
f 1 30 29
f 1 29 12
f 1 12 11
f 1 11 9
f 1 9 3
f 1 3 4
f 1 4 5
f 1 5 10
f 1 10 24
f 1 24 61
f 1 61 70
f 1 70 47
f 1 47 18
f 1 18 6
f 1 6 2
f 2 6 7
f 3 8 4
f 3 9 8
f 4 8 5
f 5 8 9
f 5 9 11
f 5 11 12
f 5 12 13
f 5 13 14
f 5 14 15
f 5 15 16
f 5 16 17
f 5 17 25
f 5 25 10
f 6 18 19
f 6 19 7
f 7 20 21
f 7 19 20
f 10 22 23
f 10 23 24
f 10 25 26
f 10 26 27
f 10 27 28
f 10 28 22
f 12 29 13
f 13 29 30
f 13 30 31
f 13 31 32
f 13 32 33
f 13 33 34
f 13 34 14
f 14 34 33
f 14 33 32
f 14 32 31
f 14 31 67
f 14 67 66
f 14 66 65
f 14 65 64
f 14 64 41
f 14 41 40
f 14 40 39
f 14 39 38
f 14 38 68
f 14 68 35
f 14 35 36
f 14 36 37
f 14 37 15
f 15 37 16
f 16 38 39
f 16 39 40
f 16 40 41
f 16 41 42
f 16 42 43
f 16 43 44
f 16 44 45
f 16 45 46
f 16 46 17
f 16 37 36
f 16 36 38
f 17 46 56
f 17 56 28
f 17 28 27
f 17 27 26
f 17 26 25
f 18 47 48
f 18 48 49
f 18 49 50
f 18 50 19
f 19 50 51
f 19 51 52
f 19 52 20
f 20 53 21
f 20 52 53
f 21 53 55
f 21 55 54
f 22 28 56
f 22 56 57
f 22 57 58
f 22 58 59
f 22 59 23
f 23 60 61
f 23 61 24
f 23 59 51
f 23 51 62
f 23 62 60
f 30 63 64
f 30 64 65
f 30 65 66
f 30 66 67
f 30 67 31
f 35 68 36
f 36 68 38
f 41 64 93
f 41 93 69
f 41 69 44
f 41 44 43
f 41 43 42
f 44 69 56
f 44 56 45
f 45 56 46
f 47 70 60
f 47 60 48
f 48 62 51
f 48 51 49
f 48 60 62
f 49 51 50
f 51 71 52
f 51 59 71
f 52 71 72
f 52 72 73
f 52 73 53
f 53 73 74
f 53 74 55
f 54 55 75
f 55 74 76
f 55 76 77
f 55 77 78
f 55 78 79
f 55 79 75
f 56 69 80
f 56 80 81
f 56 81 82
f 56 82 83
f 56 83 84
f 56 84 77
f 56 77 85
f 56 85 86
f 56 86 87
f 56 87 88
f 56 88 89
f 56 89 90
f 56 90 57
f 57 90 58
f 58 91 72
f 58 72 71
f 58 71 59
f 58 90 91
f 60 70 61
f 63 92 93
f 63 93 94
f 63 94 64
f 64 94 93
f 69 93 98
f 69 98 80
f 72 91 73
f 73 91 90
f 73 90 95
f 73 95 87
f 73 87 74
f 74 87 86
f 74 86 76
f 75 79 97
f 75 97 96
f 76 86 85
f 76 85 77
f 77 84 83
f 77 83 97
f 77 97 78
f 78 97 79
f 83 96 97
f 87 95 89
f 87 89 88
f 89 95 90
f 92 98 93

