# https://github.com/mikedh/trimesh
v -0.07161200 0.01410324 0.02774846
v -0.07252763 0.01318874 0.02764883
v -0.07161200 0.01318874 0.02774393
v -0.07124719 0.03190802 -0.00773943
v -0.07161200 0.01475208 0.02774393
v -0.07252763 0.01475208 0.02764430
v -0.07352834 0.01318874 0.02747673
v -0.07344759 0.01198813 0.02744050
v -0.07259828 0.01153343 0.02750844
v -0.07161200 0.01253479 0.02769412
v -0.07352617 0.01475208 0.02747673
v -0.07161200 0.03191824 0.02641699
v -0.07161200 0.03035489 0.02658003
v -0.07161200 0.02067850 0.02751296
v -0.07161200 0.02015738 0.02754467
v -0.07161200 0.01876263 0.02761712
v -0.07161200 0.01566659 0.02772582
v -0.07161200 0.01158963 0.02760807
v -0.07161200 0.01109406 0.02753561
v -0.07161200 0.01057805 0.02744503
v -0.07161200 0.00098850 0.02497682
v -0.07161200 0.00098850 0.02331021
v -0.07128973 0.03034979 -0.00773943
v -0.07183911 0.03923941 -0.01851804
v -0.07161200 0.05317669 0.02007663
v -0.07161200 0.05247676 0.02139905
v -0.07161200 0.05189434 0.02245426
v -0.07161200 0.05161845 0.02287544
v -0.07161200 0.05067840 0.02326492
v -0.07161200 0.05000913 0.02342796
v -0.07161200 0.03347648 0.02617696
v -0.07252763 0.01631032 0.02758542
v -0.07343461 0.01631032 0.02743597
v -0.07430914 0.01318874 0.02710990
v -0.07401643 0.01153343 0.02708726
v -0.07534157 0.00098850 0.02463716
v -0.07408853 0.00098850 0.02513080
v -0.07316569 0.01094590 0.02733634
v -0.07212461 0.01067001 0.02742239
v -0.07430699 0.01475208 0.02710084
v -0.07421614 0.01631032 0.02708726
v -0.07252763 0.03191824 0.02637170
v -0.07252763 0.03347648 0.02614526
v -0.07334161 0.01722483 0.02739974
v -0.07252763 0.00098850 0.02513533
v -0.07706109 0.00098850 0.00098762
v -0.07471072 0.00099361 -0.01851804
v -0.07172880 0.02328407 -0.00855915
v -0.07159253 0.02411683 -0.00773943
v -0.07151323 0.02566996 -0.00773943
v -0.07384268 0.03923941 -0.01851804
v -0.07483113 0.04898733 -0.01502631
v -0.07671935 0.04898733 -0.01502631
v -0.07232936 0.05299276 0.02007663
v -0.07256152 0.05187901 0.02200138
v -0.07206333 0.05156736 0.02282563
v -0.07256152 0.05071416 0.02305207
v -0.07252763 0.04909462 0.02345061
v -0.07376193 0.03191824 0.02606827
v -0.07535527 0.01318874 0.02633094
v -0.07527380 0.01162539 0.02626754
v -0.07538339 0.01631032 0.02630830
v -0.07537041 0.01475208 0.02632188
v -0.07612238 0.00098850 0.02383103
v -0.07535743 0.01787367 0.02626301
v -0.07454274 0.03191824 0.02561085
v -0.07354636 0.03347648 0.02595052
v -0.07336467 0.03436544 0.02585089
v -0.07850303 0.00098850 0.00098762
v -0.07648575 0.00099361 -0.01851804
v -0.07514259 0.03667470 -0.01851804
v -0.07691761 0.04898733 -0.01410243
v -0.07522766 0.03649589 -0.01851804
v -0.07576406 0.03503472 -0.01851804
v -0.07607408 0.03340495 -0.01851804
v -0.07607768 0.03336919 -0.01851804
v -0.07643673 0.03279699 -0.01790664
v -0.07661264 0.03337941 -0.01721826
v -0.07701062 0.03347137 -0.01554713
v -0.07383475 0.05232860 0.02007663
v -0.07418514 0.05199652 0.02046158
v -0.07372876 0.05166954 0.02153038
v -0.07694068 0.04898733 -0.01398468
v -0.07717789 0.04898733 -0.01253093
v -0.07719447 0.04898733 -0.01242676
v -0.07310441 0.05127104 0.02257201
v -0.07358890 0.05022881 0.02285733
v -0.07410151 0.04900777 0.02295243
v -0.07432645 0.03347648 0.02552934
v -0.07616492 0.01631032 0.02538894
v -0.07615122 0.01475208 0.02533460
v -0.07613608 0.01318874 0.02525308
v -0.07613825 0.01787367 0.02540706
v -0.07667825 0.00226064 0.02315170
v -0.07660543 0.00098850 0.02304754
v -0.07555787 0.03347648 0.02475038
v -0.07633867 0.03347648 0.02415710
v -0.07545837 0.03503983 0.02463263
v -0.07491981 0.04842534 0.02273958
v -0.07848717 0.00098850 0.00162619
v -0.07861261 0.00695068 0.00318863
v -0.07851817 0.00099361 0.00035812
v -0.07852177 0.00099361 0.00006374
v -0.07845761 0.00099361 -0.00119980
v -0.07843886 0.00099361 -0.00149417
v -0.07670493 0.00099361 -0.01710957
v -0.07657082 0.00099361 -0.01815120
v -0.07654199 0.00099361 -0.01837311
v -0.07686570 0.00710394 -0.01851804
v -0.07690608 0.01006715 -0.01851804
v -0.07694357 0.00866729 -0.01851804
v -0.07726296 0.01006715 -0.01710957
v -0.07501353 0.05173596 0.02007663
v -0.07476912 0.05135790 0.02104580
v -0.07733650 0.04898733 -0.01096848
v -0.07417937 0.05079080 0.02203308
v -0.07462926 0.04946757 0.02253578
v -0.07661769 0.01631032 0.02460999
v -0.07664581 0.01787367 0.02462810
v -0.07657804 0.01475208 0.02455564
v -0.07715698 0.00226064 0.02192439
v -0.07704162 0.00098850 0.02192439
v -0.07623918 0.03503983 0.02408011
v -0.07677702 0.03503983 0.02330115
v -0.07535167 0.04900777 0.02197874
v -0.07635958 0.04805749 0.02106391
v -0.07647782 0.04701526 0.02121336
v -0.07745474 0.00098850 0.01879950
v -0.07799330 0.00301166 0.01668001
v -0.07860612 0.00850891 0.00318863
v -0.07861045 0.00695068 0.00162619
v -0.07859026 0.00537711 0.00162619
v -0.07799835 0.00382398 0.01681587
v -0.07837974 0.04440458 0.01567461
v -0.07839632 0.04440458 0.01410763
v -0.07857656 0.00630694 0.00098762
v -0.07852610 0.00538222 0.00006374
v -0.07726440 0.00851402 -0.01710957
v -0.07716779 0.00695068 -0.01710957
v -0.07738624 0.01163561 -0.01554713
v -0.07694357 0.00851402 -0.01851804
v -0.07527092 0.05150095 0.02007663
v -0.07734587 0.04898733 -0.01085979
v -0.07569341 0.05070395 0.02039365
v -0.07517359 0.05031566 0.02149415
v -0.07703946 0.01631032 0.02348231
v -0.07707767 0.01787367 0.02348231
v -0.07704667 0.01943701 0.02348231
v -0.07793490 0.00382398 0.01759483
v -0.07741220 0.00226064 0.02036195
v -0.07734803 0.00098850 0.02036195
v -0.07729972 0.00098850 0.02065632
v -0.07722403 0.03503983 0.02192439
v -0.07682245 0.04753638 0.02047064
v -0.07701422 0.04597303 0.02036195
v -0.07775826 0.04440458 0.01884479
v -0.07799330 0.04521691 0.01802054
v -0.07621539 0.04909462 0.02081030
v -0.07666311 0.04909462 0.02007663
v -0.07670709 0.04892602 0.02007663
v -0.07838695 0.04596793 0.01254972
v -0.07834009 0.04596793 0.01098727
v -0.07858738 0.00850891 0.00162619
v -0.07819229 0.04440458 0.01723253
v -0.07832783 0.04596793 0.01567461
v -0.07837469 0.04596793 0.01410763
v -0.07608706 0.05039230 0.02007663
v -0.07737398 0.04898733 -0.00940604
v -0.07737471 0.04898733 -0.00930187
v -0.07820454 0.04766410 0.01254972
v -0.07828601 0.04596793 0.00942936
v -0.07816994 0.04752616 0.00786691
v -0.07815264 0.04766410 0.00786691
v -0.07819950 0.04766410 0.00942936
v -0.07800268 0.04440458 0.01806130
v -0.07696664 0.04753638 0.02007663
v -0.07701494 0.04716854 0.02007663
v -0.07771356 0.04582488 0.01864552
v -0.07743383 0.04752616 0.01879950
v -0.07807910 0.04718386 0.01683852
v -0.07812019 0.04582488 0.01730952
v -0.07800916 0.04766410 0.01649433
v -0.07740427 0.04766410 0.01879950
v -0.07736966 0.04766410 0.01890366
v -0.07823266 0.04752616 0.01254972
v -0.07823266 0.04752616 0.01098727
v -0.07822040 0.04752616 0.00942936
v -0.07811226 0.04763345 0.01561573
v -0.07820094 0.04752616 0.01410763
v -0.07819950 0.04766410 0.01279880
v -0.07817282 0.04766410 0.01410763
v -0.07816561 0.04766410 0.01427067
v -0.07810722 0.04766410 0.01558856
v -0.07810145 0.04766410 0.01564291
v -0.07820743 0.04766410 0.01098727
f 1 2 3
f 1 3 4
f 1 4 5
f 1 5 6
f 1 6 2
f 2 7 8
f 2 8 9
f 2 9 10
f 2 10 3
f 2 6 11
f 2 11 7
f 3 10 4
f 4 12 13
f 4 13 14
f 4 14 15
f 4 15 16
f 4 16 17
f 4 17 5
f 4 10 18
f 4 18 19
f 4 19 20
f 4 20 21
f 4 21 22
f 4 22 23
f 4 23 24
f 4 24 25
f 4 25 26
f 4 26 27
f 4 27 28
f 4 28 29
f 4 29 30
f 4 30 31
f 4 31 12
f 5 17 6
f 6 17 16
f 6 16 32
f 6 32 33
f 6 33 11
f 7 34 8
f 7 11 34
f 8 35 36
f 8 36 37
f 8 37 38
f 8 38 9
f 8 34 35
f 9 18 10
f 9 38 39
f 9 39 19
f 9 19 18
f 11 40 34
f 11 33 41
f 11 41 40
f 12 42 13
f 12 31 43
f 12 43 42
f 13 42 14
f 14 42 44
f 14 44 15
f 15 44 33
f 15 33 16
f 16 33 32
f 19 39 20
f 20 39 37
f 20 37 45
f 20 45 21
f 21 45 37
f 21 37 36
f 21 36 64
f 21 64 95
f 21 95 122
f 21 122 152
f 21 152 151
f 21 151 128
f 21 128 100
f 21 100 69
f 21 69 46
f 21 46 22
f 22 46 47
f 22 47 48
f 22 48 49
f 22 49 50
f 22 50 23
f 23 50 24
f 24 51 53
f 24 53 52
f 24 52 25
f 24 50 49
f 24 49 48
f 24 48 47
f 24 47 70
f 24 70 109
f 24 109 141
f 24 141 111
f 24 111 110
f 24 110 76
f 24 76 75
f 24 75 74
f 24 74 73
f 24 73 71
f 24 71 51
f 25 52 53
f 25 53 54
f 25 54 26
f 26 54 55
f 26 55 56
f 26 56 27
f 27 56 28
f 28 56 29
f 29 56 57
f 29 57 30
f 30 57 58
f 30 58 43
f 30 43 31
f 33 44 59
f 33 59 41
f 34 60 61
f 34 61 35
f 34 40 62
f 34 62 63
f 34 63 60
f 35 61 36
f 36 61 64
f 37 39 38
f 40 41 65
f 40 65 62
f 41 59 66
f 41 66 65
f 42 59 44
f 42 43 67
f 42 67 59
f 43 58 68
f 43 68 67
f 46 69 70
f 46 70 47
f 51 71 53
f 53 72 54
f 53 71 73
f 53 73 74
f 53 74 75
f 53 75 76
f 53 76 77
f 53 77 78
f 53 78 79
f 53 79 72
f 54 80 81
f 54 81 82
f 54 82 55
f 54 72 83
f 54 83 84
f 54 84 85
f 54 85 80
f 55 82 56
f 56 82 86
f 56 86 57
f 57 87 58
f 57 86 87
f 58 87 88
f 58 88 68
f 59 67 89
f 59 89 66
f 60 63 90
f 60 90 91
f 60 91 92
f 60 92 61
f 61 92 64
f 62 90 63
f 62 65 93
f 62 93 90
f 64 94 95
f 64 92 94
f 65 66 96
f 65 96 97
f 65 97 93
f 66 89 98
f 66 98 96
f 67 68 88
f 67 88 99
f 67 99 89
f 69 100 101
f 69 101 102
f 69 102 103
f 69 103 104
f 69 104 105
f 69 105 106
f 69 106 107
f 69 107 108
f 69 108 70
f 70 108 109
f 72 79 83
f 76 110 77
f 77 110 78
f 78 110 111
f 78 111 112
f 78 112 79
f 79 112 83
f 80 113 81
f 80 85 113
f 81 113 114
f 81 114 82
f 82 114 86
f 83 112 84
f 84 112 85
f 85 115 113
f 85 112 115
f 86 114 116
f 86 116 117
f 86 117 87
f 87 117 99
f 87 99 88
f 89 99 98
f 90 118 91
f 90 93 119
f 90 119 118
f 91 118 92
f 92 118 120
f 92 120 94
f 93 97 119
f 94 121 95
f 94 120 118
f 94 118 121
f 95 121 122
f 96 98 123
f 96 123 97
f 97 123 124
f 97 124 119
f 98 99 123
f 99 117 125
f 99 125 126
f 99 126 127
f 99 127 123
f 100 128 129
f 100 129 101
f 101 130 131
f 101 131 132
f 101 132 103
f 101 103 102
f 101 129 133
f 101 133 134
f 101 134 135
f 101 135 130
f 103 132 131
f 103 131 104
f 104 131 136
f 104 136 137
f 104 137 105
f 105 138 139
f 105 139 106
f 105 137 140
f 105 140 138
f 106 139 107
f 107 139 108
f 108 139 138
f 108 138 109
f 109 138 141
f 111 141 138
f 111 138 112
f 112 138 140
f 112 140 115
f 113 142 114
f 113 115 143
f 113 143 142
f 114 142 144
f 114 144 145
f 114 145 116
f 115 140 143
f 116 145 117
f 117 145 125
f 118 146 121
f 118 119 147
f 118 147 146
f 119 148 147
f 119 124 148
f 121 149 150
f 121 150 151
f 121 151 152
f 121 152 122
f 121 146 147
f 121 147 149
f 123 127 124
f 124 153 148
f 124 127 154
f 124 154 155
f 124 155 156
f 124 156 157
f 124 157 153
f 125 145 158
f 125 158 126
f 126 158 159
f 126 159 160
f 126 160 154
f 126 154 127
f 128 151 129
f 129 149 133
f 129 151 149
f 130 135 161
f 130 161 131
f 131 161 162
f 131 162 163
f 131 163 143
f 131 143 136
f 133 149 134
f 134 164 165
f 134 165 166
f 134 166 135
f 134 149 164
f 135 166 161
f 136 143 137
f 137 143 140
f 142 167 144
f 142 143 168
f 142 168 169
f 142 169 170
f 142 170 167
f 143 171 172
f 143 172 173
f 143 173 174
f 143 174 168
f 143 163 171
f 144 167 145
f 145 167 158
f 147 148 153
f 147 153 175
f 147 175 164
f 147 164 149
f 149 151 150
f 153 157 175
f 154 160 176
f 154 176 177
f 154 177 155
f 155 177 178
f 155 178 156
f 156 178 157
f 157 164 175
f 157 178 179
f 157 179 180
f 157 180 181
f 157 181 164
f 158 167 159
f 159 167 182
f 159 182 180
f 159 180 183
f 159 183 160
f 160 183 184
f 160 184 179
f 160 179 176
f 161 166 185
f 161 185 186
f 161 186 187
f 161 187 162
f 162 187 172
f 162 172 171
f 162 171 163
f 164 181 165
f 165 180 188
f 165 188 189
f 165 189 166
f 165 181 180
f 166 189 185
f 167 170 190
f 167 190 191
f 167 191 192
f 167 192 193
f 167 193 194
f 167 194 182
f 168 174 169
f 169 174 195
f 169 195 170
f 170 195 185
f 170 185 190
f 172 187 173
f 173 187 174
f 174 187 186
f 174 186 195
f 176 179 178
f 176 178 177
f 179 184 183
f 179 183 180
f 180 182 188
f 182 194 188
f 185 189 190
f 185 195 186
f 188 194 193
f 188 193 192
f 188 192 189
f 189 192 191
f 189 191 190

