# https://github.com/mikedh/trimesh
v -0.07401459 -0.00556909 0.02638136
v -0.07401459 -0.00452174 0.02629404
v -0.07407688 -0.00556909 0.02634027
v -0.07491365 -0.01337232 0.02586257
v -0.07401459 -0.00705714 0.02636595
v -0.07059933 -0.05198925 0.00106872
v -0.07059933 -0.05034046 0.00106872
v -0.07401459 -0.00400325 0.02624267
v -0.07476380 -0.00400325 0.02572388
v -0.07485724 -0.00556909 0.02580607
v -0.07540779 -0.01337232 0.02504073
v -0.07530677 -0.01500037 0.02518969
v -0.07489681 -0.01452336 0.02584716
v -0.07612334 0.00097422 0.02382339
v -0.07660486 0.00097422 0.02304264
v -0.07423261 -0.01500037 0.02610912
v -0.07401459 -0.01499518 0.02618103
v -0.07355327 -0.04225725 0.02231839
v -0.07355327 -0.05128929 0.01207622
v -0.07355327 -0.05139299 0.01153175
v -0.07355327 -0.05148632 0.01099242
v -0.07355327 -0.05165223 0.00943093
v -0.07355327 -0.05163668 0.00807489
v -0.07098404 -0.05192703 0.00106872
v -0.07059933 -0.05173520 -0.00618401
v -0.07021378 -0.03973221 -0.02456752
v -0.07021378 -0.03973221 -0.02293412
v -0.07021378 -0.02685299 -0.02252834
v -0.07021378 -0.02626710 -0.02251293
v -0.07355327 -0.04301942 0.02196397
v -0.07355327 -0.04422750 0.02136300
v -0.07355327 -0.04729694 0.01983233
v -0.07355327 -0.04738508 0.01978610
v -0.07355327 -0.04811615 0.01921595
v -0.07355327 -0.04873315 0.01862525
v -0.07355327 -0.04988938 0.01671961
v -0.07355327 -0.05025232 0.01571286
v -0.07021378 -0.00087677 -0.02317553
v -0.07021378 0.00068387 -0.02322690
v -0.07021378 0.00097941 -0.02328340
v -0.07401459 0.00097422 0.02512292
v -0.07408866 0.00097422 0.02512805
v -0.07534213 0.00097422 0.02463495
v -0.07539601 -0.01649361 0.02494828
v -0.07506433 -0.03053425 0.02450140
v -0.07502224 -0.03209489 0.02445517
v -0.07432858 -0.03209489 0.02523592
v -0.07401459 -0.03209489 0.02556979
v -0.07401459 -0.03053425 0.02564684
v -0.07850147 0.00097941 0.00106872
v -0.07704176 0.00097422 0.02191774
v -0.07673955 -0.02273620 0.02172769
v -0.07401459 -0.03313187 0.02547220
v -0.07401459 -0.03365554 0.02541570
v -0.07401459 -0.03517989 0.02512292
v -0.07401459 -0.03527841 0.02509723
v -0.07401459 -0.03677683 0.02460413
v -0.07381760 -0.05052193 0.01411027
v -0.07434205 -0.04965606 0.01567177
v -0.07523606 -0.04887833 0.01567177
v -0.07536823 -0.04903906 0.01411027
v -0.07541368 -0.04913238 0.01255392
v -0.07422672 -0.05083302 0.00943093
v -0.07355327 -0.05153298 0.00662127
v -0.07059933 -0.05164705 -0.00774551
v -0.07485219 -0.05004492 0.00943093
v -0.07021378 -0.03597318 -0.02490140
v -0.07059933 -0.05149150 -0.00913750
v -0.07059933 -0.05124782 -0.01048326
v -0.07059933 -0.05051156 -0.01398635
v -0.07059933 -0.05029898 -0.01491605
v -0.07059933 -0.05019529 -0.01532184
v -0.07059933 -0.04997234 -0.01611286
v -0.07059933 -0.04974938 -0.01679087
v -0.07059933 -0.04919460 -0.01825477
v -0.07059933 -0.04902350 -0.01867083
v -0.07059933 -0.04870204 -0.01940021
v -0.07059933 -0.04859316 -0.01963135
v -0.07059933 -0.04825614 -0.02022719
v -0.07059933 -0.04814726 -0.02041210
v -0.07059933 -0.04754582 -0.02139317
v -0.07059933 -0.04736435 -0.02167568
v -0.07059933 -0.04695474 -0.02227665
v -0.07059933 -0.04681475 -0.02245642
v -0.07059933 -0.04603184 -0.02298548
v -0.07059933 -0.04473561 -0.02376623
v -0.07059933 -0.04395270 -0.02420797
v -0.07059933 -0.04302460 -0.02431584
v -0.07401459 -0.03837377 0.02385934
v -0.07502056 -0.04246982 0.02124486
v -0.07465016 -0.04351199 0.02098290
v -0.07360799 -0.04736435 0.01978096
v -0.07414927 -0.04780506 0.01889749
v -0.07365008 -0.04879019 0.01847116
v -0.07403900 -0.04926201 0.01717162
v -0.07505844 -0.04869168 0.01674529
v -0.07021378 0.00097941 -0.02495276
v -0.07705944 0.00097941 0.00106872
v -0.07654677 -0.03521619 0.02142978
v -0.07618058 -0.03521619 0.02221052
v -0.07497005 -0.03365554 0.02438840
v -0.07425198 -0.03365554 0.02516915
v -0.07848717 0.00097422 0.00162346
v -0.07745509 0.00097422 0.01879476
v -0.07734818 0.00097422 0.02035625
v -0.07730020 0.00097422 0.02064903
v -0.07851916 0.00097941 0.00035474
v -0.07881126 -0.00868519 0.00162346
v -0.07719750 -0.02117037 0.02035625
v -0.07718571 -0.02273620 0.02035625
v -0.07491869 -0.03470807 0.02432162
v -0.07480084 -0.03575023 0.02419835
v -0.07461732 -0.03677683 0.02400830
v -0.07526384 -0.04146914 0.02147087
v -0.07581018 -0.04771173 0.01567177
v -0.07603663 -0.04771173 0.01411027
v -0.07539853 -0.04920497 0.01099242
v -0.07252793 -0.05063600 -0.00930700
v -0.07465773 -0.04978568 0.00318495
v -0.07350529 -0.05024195 -0.00774551
v -0.07341942 -0.05015899 -0.00930700
v -0.07535476 -0.04926201 0.00943093
v -0.07517545 -0.04900277 0.00318495
v -0.07021378 -0.01960972 -0.02601602
v -0.07180650 -0.04386456 -0.02416174
v -0.07262306 -0.05038713 -0.01083768
v -0.07224256 -0.05028861 -0.01242485
v -0.07178545 -0.05007603 -0.01484928
v -0.07096636 -0.05044416 -0.01398635
v -0.07096636 -0.05017973 -0.01520370
v -0.07096636 -0.04994123 -0.01598444
v -0.07096636 -0.04957829 -0.01710934
v -0.07096636 -0.04900795 -0.01867083
v -0.07096636 -0.04859316 -0.01962622
v -0.07096636 -0.04814726 -0.02040696
v -0.07096636 -0.04736435 -0.02169109
v -0.07096636 -0.04683030 -0.02247183
v -0.07096636 -0.04604739 -0.02298035
v -0.07096636 -0.04472006 -0.02376623
v -0.07096636 -0.04393715 -0.02419770
v -0.07525458 -0.04459044 0.01991965
v -0.07498520 -0.04556520 0.01966796
v -0.07464763 -0.04660217 0.01931868
v -0.07468972 -0.04824059 0.01778800
v -0.07503234 -0.04720362 0.01828111
v -0.07530257 -0.04771691 0.01725381
v -0.07633632 -0.04506744 0.01761850
v -0.07606946 -0.04604220 0.01715108
v -0.07096552 0.00097941 -0.02483976
v -0.07021378 -0.01244423 -0.02599547
v -0.07684309 -0.03521619 0.02035625
v -0.07678501 -0.03677683 0.02035625
v -0.07651142 -0.03677683 0.02133732
v -0.07610482 -0.03677683 0.02211293
v -0.07532277 -0.03522656 0.02359738
v -0.07872371 -0.00868519 0.00318495
v -0.07873802 -0.01025102 0.00318495
v -0.07735408 -0.02273620 0.01879476
v -0.07852252 0.00097941 0.00006196
v -0.07879105 -0.00868519 0.00106872
v -0.07881211 -0.01025102 0.00162346
v -0.07711753 -0.03677683 0.01879476
v -0.07532361 -0.03677683 0.02323269
v -0.07508958 -0.03833748 0.02290909
v -0.07604505 -0.04146914 0.02052575
v -0.07566371 -0.04290535 0.02028948
v -0.07644744 -0.04544594 0.01658093
v -0.07648869 -0.04566889 0.01567177
v -0.07631695 -0.04677327 0.01411027
v -0.07605094 -0.04771173 0.01255392
v -0.07335291 -0.05009678 -0.01028807
v -0.07417958 -0.04927238 -0.00774551
v -0.07472171 -0.04667994 -0.01867083
v -0.07476128 -0.04835984 -0.00774551
v -0.07509800 -0.04757693 -0.00774551
v -0.07059175 -0.01960972 -0.02588761
v -0.07074749 -0.01805944 -0.02591842
v -0.07021378 -0.01867644 -0.02606225
v -0.07252793 -0.04582962 -0.02281598
v -0.07338070 -0.04549779 -0.02263107
v -0.07368123 -0.04458525 -0.02283139
v -0.07397754 -0.04302460 -0.02300603
v -0.07262306 -0.04302460 -0.02378678
v -0.07238819 -0.03366073 -0.02450589
v -0.07320812 -0.04997752 -0.01133078
v -0.07302292 -0.04984790 -0.01242485
v -0.07337144 -0.04857242 -0.01657514
v -0.07321401 -0.04841169 -0.01761785
v -0.07262727 -0.04893536 -0.01709906
v -0.07216006 -0.04872278 -0.01867083
v -0.07187216 -0.04854650 -0.01954917
v -0.07252793 -0.04719843 -0.02148049
v -0.07252793 -0.04660735 -0.02226124
v -0.07630686 -0.04333570 0.01922622
v -0.07605768 -0.04456451 0.01874339
v -0.07529331 -0.04611479 0.01879989
v -0.07647016 -0.04402529 0.01818351
v -0.07225518 0.00097941 -0.02436720
v -0.07077022 -0.01180649 -0.02585165
v -0.07155143 -0.01180649 -0.02556914
v -0.07021378 -0.01337232 -0.02604683
v -0.07089902 -0.01337232 -0.02591329
v -0.07703250 -0.03833748 0.01879476
v -0.07691885 -0.03990850 0.01879476
v -0.07662169 -0.03830119 0.02043330
v -0.07645670 -0.03775678 0.02120377
v -0.07626140 -0.03990850 0.02080312
v -0.07719245 -0.03833748 0.01723326
v -0.07724043 -0.03677683 0.01723326
v -0.07845770 0.00097941 -0.00120675
v -0.07875317 -0.00868519 0.00006196
v -0.07878432 -0.01025102 0.00107385
v -0.07873044 -0.01181167 0.00162346
v -0.07826576 -0.02117037 0.00474645
v -0.07713015 -0.04146914 0.01567177
v -0.07713015 -0.03990850 0.01723326
v -0.07643734 -0.04229873 0.01959605
v -0.07653836 -0.04456451 0.01715108
v -0.07681700 -0.04302979 0.01723326
v -0.07670588 -0.04459044 0.01567177
v -0.07654172 -0.04599035 0.01411027
v -0.07652068 -0.04589703 0.01255392
v -0.07553491 -0.04614590 -0.00774551
v -0.07394303 -0.04750434 -0.01867083
v -0.07447001 -0.04617182 -0.02028369
v -0.07365513 -0.04722435 -0.02023232
v -0.07505086 -0.04589703 -0.01867083
v -0.07497341 -0.04566371 -0.01979572
v -0.07162298 -0.01649880 -0.02557428
v -0.07084261 -0.01649880 -0.02593383
v -0.07021378 -0.01718320 -0.02609306
v -0.07338322 -0.04700140 -0.02114662
v -0.07365681 -0.04606813 -0.02171677
v -0.07449105 -0.04465266 -0.02185546
v -0.07475622 -0.04302460 -0.02239992
v -0.07511484 -0.03210008 -0.02284680
v -0.07409035 -0.03210008 -0.02354023
v -0.07392788 -0.01493297 -0.02452643
v -0.07252793 -0.01493297 -0.02520445
v -0.07294043 -0.04828207 -0.01867083
v -0.07654088 -0.04290017 0.01874339
v -0.07303555 0.00097941 -0.02397169
v -0.07252793 -0.01180649 -0.02518391
v -0.07394303 -0.01180649 -0.02453671
v -0.07384033 -0.01024584 -0.02446479
v -0.07168107 -0.01337232 -0.02561537
v -0.07021378 -0.01408783 -0.02606225
v -0.07021378 -0.01563292 -0.02608279
v -0.07087713 -0.01493297 -0.02592869
v -0.07702998 -0.04146914 0.01723326
v -0.07658381 -0.03990850 0.02002238
v -0.07674796 -0.04146914 0.01879476
v -0.07649037 -0.04146914 0.01974501
v -0.07843834 0.00097941 -0.00149953
v -0.07669241 -0.01180649 -0.02023232
v -0.07873298 -0.01024584 0.00006196
v -0.07681700 -0.00399807 -0.01867083
v -0.07682541 -0.00555872 -0.01867083
v -0.07718487 -0.03678202 -0.00305589
v -0.07724043 -0.03678202 -0.00149953
v -0.07823882 -0.02117037 0.00318495
v -0.07713099 -0.04146914 0.01411027
v -0.07707880 -0.04225725 0.01488075
v -0.07705860 -0.04225725 0.01567177
v -0.07698788 -0.04302979 0.01567177
v -0.07679174 -0.04459044 0.01411027
v -0.07647269 -0.04245946 -0.00462252
v -0.07537160 -0.04458525 -0.01867083
v -0.07478064 -0.04520744 -0.02083843
v -0.07512579 -0.04465266 -0.02028369
v -0.07498689 -0.04417046 -0.02137776
v -0.07252793 -0.01337232 -0.02525582
v -0.07508958 -0.04302460 -0.02161918
v -0.07515609 -0.04146396 -0.02166541
v -0.07549366 -0.03366073 -0.02179382
v -0.07556437 -0.03210008 -0.02179382
v -0.07646680 -0.01304567 -0.02111066
v -0.07613175 -0.01180649 -0.02191196
v -0.07534045 -0.01493297 -0.02321663
v -0.07475117 -0.01337232 -0.02402306
v -0.07470572 -0.01493297 -0.02399737
v -0.07397249 -0.01337232 -0.02455725
v -0.07390346 0.00097941 -0.02318581
v -0.07472087 -0.01180649 -0.02400251
v -0.07461901 -0.01024584 -0.02392546
v -0.07670588 0.00097941 -0.01710934
v -0.07674881 -0.00243742 -0.01867083
v -0.07666042 -0.00868519 -0.02013987
v -0.07663264 -0.01014214 -0.02038128
v -0.07647522 -0.01180649 -0.02113121
v -0.07649963 -0.02429685 -0.01960054
v -0.07664527 -0.02429685 -0.01867083
v -0.07673029 -0.02585231 -0.01710934
v -0.07656950 -0.00399807 -0.01982140
v -0.07612671 -0.03521619 -0.01867083
v -0.07602906 -0.03678202 -0.01867083
v -0.07573442 -0.04146396 -0.01867083
v -0.07560562 -0.04302460 -0.01867083
v -0.07704681 -0.03833748 -0.00305589
v -0.07702829 -0.04302979 0.01411027
v -0.07644576 -0.04234539 -0.00564982
v -0.07687087 -0.03973221 -0.00306103
v -0.07544567 -0.04302460 -0.02023232
v -0.07558542 -0.04146396 -0.02023232
v -0.07589773 -0.03678202 -0.02023232
v -0.07598528 -0.03521619 -0.02023232
v -0.07535139 -0.01180649 -0.02321663
v -0.07535729 -0.01337232 -0.02324231
v -0.07645417 -0.01059323 -0.02107471
v -0.07613428 -0.01014214 -0.02167568
v -0.07529499 -0.01024584 -0.02313958
v -0.07468130 0.00097941 -0.02234856
v -0.07657203 0.00097941 -0.01815718
v -0.07646175 -0.00137452 -0.01953890
v -0.07651310 -0.00243742 -0.01968786
v -0.07654172 0.00097941 -0.01837291
v -0.07643481 -0.02677003 -0.01946699
v -0.07658297 -0.02585231 -0.01867083
v -0.07618311 -0.00243742 -0.02046347
v -0.07526721 0.00097941 -0.02156781
v -0.07479158 0.00097941 -0.02220474
v -0.07584217 0.00097941 -0.02023232
f 1 2 3
f 1 3 4
f 1 4 5
f 1 5 6
f 1 6 7
f 1 7 2
f 2 8 9
f 2 9 10
f 2 10 3
f 2 7 8
f 3 10 4
f 4 11 12
f 4 12 13
f 4 13 5
f 4 10 14
f 4 14 15
f 4 15 11
f 5 13 16
f 5 16 17
f 5 17 18
f 5 18 6
f 6 19 20
f 6 20 21
f 6 21 22
f 6 22 23
f 6 23 24
f 6 24 25
f 6 25 26
f 6 26 27
f 6 27 28
f 6 28 29
f 6 29 7
f 6 18 30
f 6 30 31
f 6 31 32
f 6 32 33
f 6 33 34
f 6 34 35
f 6 35 36
f 6 36 37
f 6 37 19
f 7 29 38
f 7 38 39
f 7 39 40
f 7 40 41
f 7 41 8
f 8 41 42
f 8 42 43
f 8 43 9
f 9 43 10
f 10 43 14
f 11 15 44
f 11 44 12
f 12 44 45
f 12 45 13
f 13 45 46
f 13 46 47
f 13 47 48
f 13 48 49
f 13 49 16
f 14 43 50
f 14 50 15
f 15 50 51
f 15 51 52
f 15 52 44
f 16 49 17
f 17 49 18
f 18 49 48
f 18 48 53
f 18 53 54
f 18 54 55
f 18 55 56
f 18 56 57
f 18 57 30
f 19 37 58
f 19 58 59
f 19 59 60
f 19 60 20
f 20 60 61
f 20 61 21
f 21 61 22
f 22 61 62
f 22 62 63
f 22 63 23
f 23 64 65
f 23 65 25
f 23 25 24
f 23 63 66
f 23 66 64
f 25 65 26
f 26 67 124
f 26 124 178
f 26 178 231
f 26 231 248
f 26 248 247
f 26 247 201
f 26 201 150
f 26 150 97
f 26 97 40
f 26 40 39
f 26 39 38
f 26 38 29
f 26 29 28
f 26 28 27
f 26 65 68
f 26 68 69
f 26 69 70
f 26 70 71
f 26 71 72
f 26 72 73
f 26 73 74
f 26 74 75
f 26 75 76
f 26 76 77
f 26 77 78
f 26 78 79
f 26 79 80
f 26 80 81
f 26 81 82
f 26 82 83
f 26 83 84
f 26 84 85
f 26 85 86
f 26 86 87
f 26 87 88
f 26 88 67
f 30 57 89
f 30 89 90
f 30 90 91
f 30 91 92
f 30 92 31
f 31 92 32
f 32 92 33
f 33 92 34
f 34 93 94
f 34 94 35
f 34 92 93
f 35 94 36
f 36 94 95
f 36 95 96
f 36 96 59
f 36 59 37
f 37 59 58
f 40 97 149
f 40 149 198
f 40 198 242
f 40 242 283
f 40 283 312
f 40 312 321
f 40 321 320
f 40 320 322
f 40 322 316
f 40 316 313
f 40 313 286
f 40 286 254
f 40 254 210
f 40 210 159
f 40 159 107
f 40 107 50
f 40 50 98
f 40 98 41
f 41 98 42
f 42 98 50
f 42 50 43
f 44 52 99
f 44 99 100
f 44 100 45
f 45 100 46
f 46 100 101
f 46 101 47
f 47 101 102
f 47 102 53
f 47 53 48
f 50 103 104
f 50 104 105
f 50 105 106
f 50 106 51
f 50 107 108
f 50 108 103
f 51 106 109
f 51 109 110
f 51 110 52
f 52 110 99
f 53 102 54
f 54 102 111
f 54 111 55
f 55 111 112
f 55 112 56
f 56 112 57
f 57 112 113
f 57 113 114
f 57 114 90
f 57 90 89
f 59 96 60
f 60 96 115
f 60 115 116
f 60 116 61
f 61 116 62
f 62 117 66
f 62 66 63
f 62 116 117
f 64 118 65
f 64 66 119
f 64 119 120
f 64 120 121
f 64 121 118
f 65 118 68
f 66 117 122
f 66 122 123
f 66 123 119
f 67 88 125
f 67 125 124
f 68 118 126
f 68 126 127
f 68 127 128
f 68 128 69
f 69 128 129
f 69 129 70
f 70 129 130
f 70 130 71
f 71 130 72
f 72 130 73
f 73 130 131
f 73 131 132
f 73 132 74
f 74 132 133
f 74 133 75
f 75 133 76
f 76 133 134
f 76 134 77
f 77 134 78
f 78 134 79
f 79 134 135
f 79 135 80
f 80 136 81
f 80 135 136
f 81 136 82
f 82 136 83
f 83 137 84
f 83 136 137
f 84 137 85
f 85 138 86
f 85 137 138
f 86 138 139
f 86 139 87
f 87 140 88
f 87 139 140
f 88 140 125
f 90 114 141
f 90 141 142
f 90 142 92
f 90 92 91
f 92 142 143
f 92 143 93
f 93 144 94
f 93 143 145
f 93 145 144
f 94 144 96
f 94 96 95
f 96 144 145
f 96 145 146
f 96 146 147
f 96 147 148
f 96 148 115
f 97 150 149
f 99 151 152
f 99 152 153
f 99 153 100
f 99 110 151
f 100 153 154
f 100 154 155
f 100 155 101
f 101 155 111
f 101 111 102
f 103 108 156
f 103 156 104
f 104 156 105
f 105 156 157
f 105 157 158
f 105 158 109
f 105 109 106
f 107 159 108
f 108 160 161
f 108 161 157
f 108 157 156
f 108 159 160
f 109 158 110
f 110 158 162
f 110 162 151
f 111 155 154
f 111 154 163
f 111 163 112
f 112 163 164
f 112 164 113
f 113 164 114
f 114 165 166
f 114 166 141
f 114 164 165
f 115 148 147
f 115 147 167
f 115 167 116
f 116 167 168
f 116 168 169
f 116 169 170
f 116 170 117
f 117 170 122
f 118 121 171
f 118 171 126
f 119 123 172
f 119 172 120
f 120 172 121
f 121 172 173
f 121 173 171
f 122 170 123
f 123 174 172
f 123 170 175
f 123 175 174
f 124 176 177
f 124 177 178
f 124 125 176
f 125 140 139
f 125 139 138
f 125 138 179
f 125 179 180
f 125 180 181
f 125 181 182
f 125 182 183
f 125 183 184
f 125 184 177
f 125 177 176
f 126 171 185
f 126 185 128
f 126 128 127
f 128 185 186
f 128 186 187
f 128 187 188
f 128 188 189
f 128 189 190
f 128 190 191
f 128 191 131
f 128 131 130
f 128 130 129
f 131 191 132
f 132 191 133
f 133 191 134
f 134 191 135
f 135 191 136
f 136 191 192
f 136 192 137
f 137 193 179
f 137 179 138
f 137 192 193
f 141 166 194
f 141 194 142
f 142 194 195
f 142 195 196
f 142 196 143
f 143 196 145
f 145 196 146
f 146 196 195
f 146 195 147
f 147 195 194
f 147 194 197
f 147 197 167
f 149 150 199
f 149 199 200
f 149 200 198
f 150 201 202
f 150 202 199
f 151 162 152
f 152 162 203
f 152 203 204
f 152 204 205
f 152 205 153
f 153 205 206
f 153 206 154
f 154 206 207
f 154 207 163
f 157 161 208
f 157 208 209
f 157 209 158
f 158 209 162
f 159 210 211
f 159 211 160
f 160 211 161
f 161 211 212
f 161 212 213
f 161 213 214
f 161 214 215
f 161 215 208
f 162 209 208
f 162 208 216
f 162 216 203
f 163 207 165
f 163 165 164
f 165 217 166
f 165 207 217
f 166 217 194
f 167 197 218
f 167 218 219
f 167 219 220
f 167 220 168
f 168 220 221
f 168 221 169
f 169 221 170
f 170 221 222
f 170 222 223
f 170 223 175
f 171 187 185
f 171 173 224
f 171 224 187
f 172 174 173
f 173 225 226
f 173 226 224
f 173 174 175
f 173 175 227
f 173 227 228
f 173 228 225
f 175 223 227
f 177 229 230
f 177 230 178
f 177 184 229
f 178 230 231
f 179 193 180
f 180 193 232
f 180 232 233
f 180 233 234
f 180 234 181
f 181 235 182
f 181 234 235
f 182 235 236
f 182 236 237
f 182 237 184
f 182 184 183
f 184 237 238
f 184 238 239
f 184 239 229
f 185 187 186
f 187 224 188
f 188 240 189
f 188 224 226
f 188 226 240
f 189 240 190
f 190 240 191
f 191 240 226
f 191 226 232
f 191 232 192
f 192 232 193
f 194 217 197
f 197 217 241
f 197 241 219
f 197 219 218
f 198 200 243
f 198 243 244
f 198 244 245
f 198 245 242
f 199 202 200
f 200 202 246
f 200 246 243
f 201 247 202
f 202 247 248
f 202 248 249
f 202 249 246
f 203 216 250
f 203 250 204
f 204 251 205
f 204 250 252
f 204 252 253
f 204 253 251
f 205 251 206
f 206 251 253
f 206 253 217
f 206 217 207
f 208 215 216
f 210 254 211
f 211 255 256
f 211 256 212
f 211 254 257
f 211 257 258
f 211 258 255
f 212 256 259
f 212 259 213
f 213 259 260
f 213 260 261
f 213 261 214
f 214 261 260
f 214 260 262
f 214 262 215
f 215 262 263
f 215 263 264
f 215 264 250
f 215 250 216
f 217 253 252
f 217 252 241
f 219 265 220
f 219 241 252
f 219 252 250
f 219 250 265
f 220 265 221
f 221 265 266
f 221 266 222
f 222 266 267
f 222 267 268
f 222 268 223
f 223 268 227
f 225 232 226
f 225 228 269
f 225 269 232
f 227 268 228
f 228 268 270
f 228 270 271
f 228 271 269
f 229 239 272
f 229 272 230
f 230 272 246
f 230 246 249
f 230 249 231
f 231 249 248
f 232 269 233
f 233 269 234
f 234 269 271
f 234 271 235
f 235 271 273
f 235 273 274
f 235 274 236
f 236 275 276
f 236 276 277
f 236 277 278
f 236 278 279
f 236 279 280
f 236 280 281
f 236 281 238
f 236 238 237
f 236 274 275
f 238 281 282
f 238 282 239
f 239 282 272
f 242 245 284
f 242 284 285
f 242 285 283
f 243 246 272
f 243 272 244
f 244 284 245
f 244 272 282
f 244 282 280
f 244 280 284
f 250 264 265
f 254 286 287
f 254 287 257
f 255 258 257
f 255 257 288
f 255 288 289
f 255 289 290
f 255 290 277
f 255 277 291
f 255 291 292
f 255 292 256
f 256 292 293
f 256 293 259
f 257 287 294
f 257 294 288
f 259 293 295
f 259 295 296
f 259 296 297
f 259 297 298
f 259 298 299
f 259 299 260
f 260 299 300
f 260 300 262
f 262 300 263
f 263 300 264
f 264 300 265
f 265 300 266
f 266 300 267
f 267 301 268
f 267 300 302
f 267 302 299
f 267 299 301
f 268 301 298
f 268 298 303
f 268 303 270
f 270 303 271
f 271 303 273
f 273 303 304
f 273 304 305
f 273 305 306
f 273 306 274
f 274 306 275
f 275 306 276
f 276 306 277
f 277 290 278
f 277 306 291
f 278 307 308
f 278 308 279
f 278 290 309
f 278 309 310
f 278 310 311
f 278 311 307
f 279 308 280
f 280 282 281
f 280 308 307
f 280 307 284
f 283 285 312
f 284 307 311
f 284 311 285
f 285 311 312
f 286 313 287
f 287 314 315
f 287 315 294
f 287 313 316
f 287 316 314
f 288 309 290
f 288 290 289
f 288 294 309
f 291 306 317
f 291 317 292
f 292 317 318
f 292 318 293
f 293 318 306
f 293 306 295
f 294 315 319
f 294 319 309
f 295 306 305
f 295 305 296
f 296 305 297
f 297 304 298
f 297 305 304
f 298 301 299
f 298 304 303
f 299 302 300
f 306 318 317
f 309 319 310
f 310 319 320
f 310 320 311
f 311 320 321
f 311 321 312
f 314 319 315
f 314 316 322
f 314 322 320
f 314 320 319

