# https://github.com/mikedh/trimesh
v -0.03659207 -0.03974419 -0.02643137
v -0.01471357 -0.03974419 -0.02636137
v -0.03659207 -0.03991263 -0.02641253
v -0.04141985 -0.03974419 -0.02636676
v 0.05269397 -0.03587175 -0.01968485
v 0.05334976 -0.03587175 -0.01968485
v -0.01316477 -0.03974419 -0.02633715
v -0.01471357 -0.03991263 -0.02633715
v -0.03659207 -0.04147481 -0.02603832
v -0.03814086 -0.04147481 -0.02603024
v -0.04126636 -0.04147481 -0.02599255
v -0.03814086 -0.03991263 -0.02639099
v -0.04126636 -0.03991263 -0.02634253
v -0.04282911 -0.03991263 -0.02628330
v -0.04282911 -0.03974419 -0.02631023
v 0.05226142 -0.03565377 -0.01880991
v -0.06936795 -0.03974419 -0.02475147
v 0.05390789 -0.03575615 -0.01854069
v 0.06320067 -0.04016859 -0.02313888
v 0.06176349 -0.03973263 -0.02313888
v 0.06167978 -0.03971942 -0.02313888
v 0.06020074 -0.03950969 -0.02313888
v 0.06529364 -0.04104711 -0.02313888
v 0.06529364 -0.04323021 -0.02313888
v -0.01316477 -0.03991263 -0.02631023
v -0.01471357 -0.04105702 -0.02591717
v -0.03659207 -0.04238141 -0.02576641
v -0.03814086 -0.04239792 -0.02576910
v -0.04126636 -0.04237976 -0.02575295
v -0.04248028 -0.04233683 -0.02573411
v -0.06936795 -0.04401130 -0.02424535
v -0.07055397 -0.04395681 -0.02421035
v -0.06936795 -0.04303535 -0.02442303
v -0.06936795 -0.04147481 -0.02459264
v -0.06936795 -0.03991263 -0.02473801
v 0.05238700 -0.03566863 -0.01723231
v -0.07059583 -0.03974419 -0.02448764
v -0.07059583 -0.03974419 -0.02280774
v -0.07059583 -0.04303535 -0.02431265
v -0.07059583 -0.04147481 -0.02439880
v 0.05394975 -0.03579578 -0.01747999
v 0.05475903 -0.03598734 -0.01782997
v 0.05475903 -0.03598734 -0.01792957
v 0.07194928 -0.04426066 -0.02145090
v 0.07194928 -0.04685495 -0.02145090
v -0.01940182 -0.04423424 -0.02446072
v -0.04126636 -0.04315920 -0.02538682
v -0.06936795 -0.04479240 -0.02377153
v -0.07055397 -0.04473790 -0.02376615
v -0.04280120 -0.04445222 -0.02459802
v -0.07059583 -0.04321204 -0.02428035
v 0.03519675 -0.04749733 0.00107159
v 0.03575487 -0.04749402 0.00107159
v 0.07194928 -0.04962593 0.00107159
v -0.06296347 -0.03974419 -0.02178473
v -0.07058187 -0.05034097 0.00107159
v -0.07059583 -0.04321204 -0.02229354
v 0.07194928 -0.04706467 -0.02121130
v -0.06313090 -0.04679385 -0.02243623
v -0.04280120 -0.04523331 -0.02398421
v -0.04123845 -0.04442414 -0.02460340
v -0.07055397 -0.04602927 -0.02298273
v -0.07055397 -0.04681036 -0.02245777
v -0.07058187 -0.04752044 -0.02144013
v -0.07058187 -0.04754852 -0.02139975
v -0.07058187 -0.04814796 -0.02041173
v -0.07058187 -0.04825695 -0.02022867
v -0.07058187 -0.04859713 -0.01962563
v -0.07058187 -0.04870282 -0.01939949
v -0.07058187 -0.04902484 -0.01867261
v -0.07058187 -0.04919988 -0.01825532
v -0.07058187 -0.04975639 -0.01679618
v -0.07058187 -0.04997602 -0.01610699
v -0.07058187 -0.05019730 -0.01532358
v -0.07058187 -0.05030299 -0.01491168
v -0.07058187 -0.05051436 -0.01398827
v -0.07058187 -0.05124922 -0.01047772
v -0.07058187 -0.05149032 -0.00913972
v -0.07058187 -0.05164555 -0.00775057
v -0.07058187 -0.05173802 -0.00618644
v -0.07058187 -0.05198903 0.00107159
v 0.07194928 -0.05125252 0.00107159
v 0.07194928 -0.04889768 -0.01849223
v -0.06313090 -0.04736357 -0.02165012
v -0.07055397 -0.04695403 -0.02227739
v -0.07055397 -0.04736357 -0.02167704
v -0.06938190 -0.04814136 -0.02042789
v -0.06938190 -0.04861034 -0.01965255
v -0.06938190 -0.04906942 -0.01867261
v -0.06896331 -0.05007510 -0.01637351
v -0.07002375 -0.05002721 -0.01630890
v -0.06938190 -0.05071253 -0.01398827
v -0.06900517 -0.05167857 -0.01034311
v -0.07003770 -0.05155637 -0.00993121
v -0.07026095 -0.05165711 -0.00888397
v -0.07042838 -0.05171160 -0.00775057
v -0.07054001 -0.05175453 -0.00618644
v -0.06938190 -0.05200554 -0.00618644
v -0.06938190 -0.05219049 0.00107159
v 0.07112604 -0.05127068 0.00107159
v 0.07192137 -0.05162243 -0.00216437
v 0.07194928 -0.05161087 -0.00214014
v 0.07194928 -0.04957639 -0.01710847
v -0.00689982 -0.04977455 -0.01730500
v -0.00846257 -0.04976795 -0.01732384
v -0.00846257 -0.05015271 -0.01654312
v -0.06781915 -0.05074720 -0.01398827
v -0.06781915 -0.05171986 -0.01049118
v -0.06945167 -0.05025675 -0.01568702
v -0.00846257 -0.05053253 -0.01554972
v -0.05062890 -0.05038060 -0.01554703
v -0.06946562 -0.05174298 -0.00936855
v -0.06781915 -0.05190976 -0.00930932
v -0.06781915 -0.05208976 -0.00775057
v -0.06938190 -0.05192132 -0.00775057
v -0.06781915 -0.05217728 -0.00618644
v -0.06781915 -0.05226480 0.00107159
v 0.01803441 -0.05189160 0.00107159
v 0.01645771 -0.05218719 -0.00150210
v 0.01490891 -0.05227306 -0.00306355
v 0.07112604 -0.05168022 -0.00462499
v 0.07194928 -0.05163894 -0.00311201
v 0.07194928 -0.05162903 -0.00262203
v 0.07194928 -0.04995785 -0.01619853
v -0.00846257 -0.05089583 -0.01398827
v -0.00689982 -0.05089253 -0.01398827
v -0.00583938 -0.05162077 -0.01011428
v 0.07194928 -0.05025180 -0.01541780
v 0.07112604 -0.05066959 -0.01398827
v -0.06625640 -0.05209802 -0.00775057
v -0.01471357 -0.05195105 -0.00775057
v -0.06625640 -0.05220536 -0.00618644
v -0.05376836 -0.05249269 0.00006203
v -0.05531716 -0.05247783 0.00107159
v -0.02721557 -0.05239857 0.00107159
v -0.02566677 -0.05243489 0.00006203
v 0.01334616 -0.05220866 -0.00462499
v 0.01490891 -0.05220040 -0.00462499
v 0.07194928 -0.05162903 -0.00713407
v 0.07194928 -0.05165215 -0.00619451
v -0.02721557 -0.05244315 0.00006203
v -0.02566677 -0.05244150 -0.00150210
v -0.04906616 -0.05251416 -0.00150210
v -0.04750341 -0.05246462 -0.00306355
v 0.07194928 -0.05166206 -0.00462499
v 0.07112604 -0.05092390 -0.01243221
v 0.01334616 -0.05201875 -0.00618644
v 0.07194928 -0.05062831 -0.01398827
v -0.04750341 -0.05233251 -0.00462499
v -0.05062890 -0.05250591 -0.00150210
v -0.05220561 -0.05249269 -0.00150210
v -0.05220561 -0.05250591 0.00006203
v -0.05376836 -0.05249435 0.00107159
v -0.04906616 -0.05252242 0.00107159
v 0.07194928 -0.05085785 -0.01243221
v -0.04906616 -0.05252407 0.00006203
v -0.05062890 -0.05251581 0.00006203
v -0.05220561 -0.05250591 0.00107159
v -0.05062890 -0.05251581 0.00107159
f 1 2 3
f 1 3 4
f 1 4 5
f 1 5 6
f 1 6 2
f 2 6 7
f 2 7 8
f 2 8 3
f 3 8 9
f 3 9 10
f 3 10 11
f 3 11 12
f 3 12 4
f 4 13 14
f 4 14 15
f 4 15 5
f 4 12 13
f 5 16 6
f 5 15 17
f 5 17 16
f 6 16 18
f 6 18 19
f 6 19 20
f 6 20 21
f 6 21 22
f 6 22 7
f 7 22 21
f 7 21 20
f 7 20 19
f 7 19 23
f 7 23 24
f 7 24 25
f 7 25 8
f 8 25 26
f 8 26 27
f 8 27 9
f 9 27 28
f 9 28 10
f 10 28 29
f 10 29 11
f 11 29 30
f 11 30 31
f 11 31 32
f 11 32 14
f 11 14 13
f 11 13 12
f 14 32 33
f 14 33 15
f 15 33 34
f 15 34 35
f 15 35 17
f 16 36 18
f 16 17 37
f 16 37 38
f 16 38 36
f 17 35 39
f 17 39 40
f 17 40 37
f 18 36 41
f 18 41 42
f 18 42 43
f 18 43 19
f 19 43 23
f 23 43 42
f 23 42 44
f 23 44 45
f 23 45 24
f 24 45 26
f 24 26 25
f 26 45 27
f 27 46 47
f 27 47 28
f 27 45 46
f 28 47 29
f 29 47 31
f 29 31 30
f 31 48 49
f 31 49 32
f 31 47 50
f 31 50 48
f 32 49 51
f 32 51 39
f 32 39 33
f 33 39 34
f 34 39 35
f 36 52 53
f 36 53 54
f 36 54 41
f 36 38 55
f 36 55 56
f 36 56 52
f 37 40 39
f 37 39 51
f 37 51 57
f 37 57 38
f 38 57 56
f 38 56 55
f 41 54 42
f 42 54 44
f 44 54 82
f 44 82 102
f 44 102 123
f 44 123 122
f 44 122 145
f 44 145 140
f 44 140 139
f 44 139 155
f 44 155 148
f 44 148 128
f 44 128 124
f 44 124 103
f 44 103 83
f 44 83 58
f 44 58 45
f 45 58 59
f 45 59 60
f 45 60 61
f 45 61 46
f 46 61 47
f 47 61 50
f 48 62 49
f 48 50 62
f 49 62 51
f 50 61 60
f 50 60 63
f 50 63 62
f 51 62 63
f 51 63 64
f 51 64 65
f 51 65 66
f 51 66 67
f 51 67 68
f 51 68 69
f 51 69 70
f 51 70 71
f 51 71 72
f 51 72 73
f 51 73 74
f 51 74 75
f 51 75 76
f 51 76 77
f 51 77 78
f 51 78 79
f 51 79 80
f 51 80 81
f 51 81 57
f 52 56 81
f 52 81 99
f 52 99 117
f 52 117 134
f 52 134 153
f 52 153 158
f 52 158 159
f 52 159 154
f 52 154 135
f 52 135 118
f 52 118 100
f 52 100 82
f 52 82 54
f 52 54 53
f 56 57 81
f 58 83 84
f 58 84 85
f 58 85 59
f 59 85 63
f 59 63 60
f 63 85 64
f 64 85 65
f 65 85 86
f 65 86 84
f 65 84 83
f 65 83 87
f 65 87 66
f 66 87 88
f 66 88 67
f 67 88 68
f 68 88 89
f 68 89 69
f 69 89 70
f 70 89 90
f 70 90 71
f 71 90 91
f 71 91 72
f 72 91 73
f 73 91 74
f 74 91 75
f 75 91 92
f 75 92 93
f 75 93 76
f 76 93 94
f 76 94 77
f 77 94 78
f 78 94 95
f 78 95 79
f 79 95 96
f 79 96 80
f 80 96 97
f 80 97 81
f 81 97 98
f 81 98 99
f 82 100 101
f 82 101 102
f 83 103 104
f 83 104 88
f 83 88 87
f 84 86 85
f 88 104 105
f 88 105 106
f 88 106 89
f 89 106 90
f 90 107 108
f 90 108 109
f 90 109 91
f 90 106 110
f 90 110 111
f 90 111 107
f 91 109 92
f 92 109 108
f 92 108 93
f 93 112 94
f 93 108 113
f 93 113 114
f 93 114 112
f 94 112 95
f 95 112 115
f 95 115 96
f 96 115 98
f 96 98 97
f 98 115 116
f 98 116 99
f 99 116 117
f 100 118 101
f 101 118 119
f 101 119 120
f 101 120 121
f 101 121 122
f 101 122 123
f 101 123 102
f 103 124 106
f 103 106 104
f 104 106 105
f 106 124 110
f 107 111 108
f 108 111 110
f 108 110 125
f 108 125 126
f 108 126 127
f 108 127 113
f 110 124 128
f 110 128 129
f 110 129 126
f 110 126 125
f 112 114 115
f 113 130 114
f 113 127 131
f 113 131 130
f 114 130 132
f 114 132 116
f 114 116 115
f 116 132 117
f 117 132 133
f 117 133 134
f 118 135 119
f 119 135 136
f 119 136 120
f 120 137 138
f 120 138 139
f 120 139 140
f 120 140 121
f 120 136 141
f 120 141 142
f 120 142 143
f 120 143 144
f 120 144 137
f 121 140 145
f 121 145 122
f 126 129 127
f 127 129 146
f 127 146 139
f 127 139 147
f 127 147 131
f 128 148 129
f 129 148 146
f 130 149 144
f 130 144 132
f 130 131 137
f 130 137 149
f 131 147 137
f 132 150 151
f 132 151 133
f 132 144 150
f 133 151 152
f 133 152 153
f 133 153 134
f 135 154 136
f 136 154 141
f 137 144 149
f 137 147 139
f 137 139 138
f 139 146 155
f 141 154 142
f 142 154 156
f 142 156 143
f 143 156 157
f 143 157 150
f 143 150 144
f 146 148 155
f 150 157 152
f 150 152 151
f 152 158 153
f 152 157 159
f 152 159 158
f 154 159 156
f 156 159 157

