# https://github.com/mikedh/trimesh
v 0.06739014 0.04895968 -0.00836586
v 0.06801095 0.04895968 -0.00814715
v 0.06801095 0.04888233 -0.00774503
v 0.06644959 0.04888391 -0.00774503
v 0.06644959 0.04895968 -0.00835814
v 0.06835630 0.04895968 -0.00774503
v 0.06823011 0.04895968 -0.00752609
v 0.06801095 0.04895968 -0.00721738
v 0.06644959 0.04895968 -0.00720637
v 0.06599950 0.04895968 -0.00774503
v 0.06617552 0.04895968 -0.00801912
f 1 2 3
f 1 3 4
f 1 4 5
f 1 5 11
f 1 11 10
f 1 10 9
f 1 9 8
f 1 8 7
f 1 7 6
f 1 6 2
f 2 6 3
f 3 6 7
f 3 7 8
f 3 8 9
f 3 9 4
f 4 9 10
f 4 10 11
f 4 11 5

