# https://github.com/mikedh/trimesh
v 0.07751174 0.04895029 0.00098570
v 0.07590029 0.04895029 0.00098570
v 0.07746213 0.04817073 0.00098570
v 0.07565629 0.00098809 -0.01555059
v 0.07566568 0.00098809 -0.01710799
v 0.07563082 0.00099279 -0.02023393
v 0.07735488 0.04895029 -0.01087282
v 0.07338794 0.04895499 -0.02139642
v 0.07338794 0.04895499 -0.01884895
v 0.06598627 0.04895499 -0.02121843
v 0.07446044 0.03972228 0.00098570
v 0.07729322 0.04660689 0.00098570
v 0.07532516 0.00098809 -0.01451603
v 0.07708139 0.04504776 0.00098570
v 0.07698353 0.04434802 0.00098570
v 0.07676634 0.04284055 0.00098570
v 0.07662558 0.04191070 0.00098570
v 0.07563887 0.00098809 -0.01839007
v 0.07560267 0.00099279 -0.02052872
v 0.07731734 0.04895029 -0.01242744
v 0.07714842 0.04895029 -0.01398484
v 0.07683069 0.04895029 -0.01556171
v 0.07662692 0.04895029 -0.01641551
v 0.07574746 0.04895029 -0.01867374
v 0.07525410 0.04895029 -0.01974724
v 0.07455429 0.04895029 -0.02052594
v 0.07377404 0.04895029 -0.02123233
v 0.07045864 0.04222065 -0.02418584
v 0.07269348 0.04895499 -0.02168287
v 0.06598627 0.04895499 -0.02285926
v 0.06381712 0.03609682 -0.02165506
v 0.06381712 0.02879424 -0.02188589
v 0.07448458 0.03813027 0.00098570
v 0.07468567 0.00098809 -0.01451603
v 0.07565495 0.03718164 0.00098570
v 0.07522059 0.03558963 0.00098570
v 0.07203791 0.00098809 -0.02648301
v 0.07490151 0.00099279 -0.02375199
v 0.07513211 0.00099279 -0.02310400
v 0.07516562 0.00099279 -0.02299832
v 0.07540962 0.00099279 -0.02203050
v 0.07545386 0.00099279 -0.02181914
v 0.07526751 0.02722101 -0.02158831
v 0.07530639 0.04752735 -0.01982511
v 0.07350859 0.02835749 -0.02417193
v 0.07466422 0.04752735 -0.02060381
v 0.07344960 0.02940005 -0.02411631
v 0.07388397 0.04752735 -0.02134636
v 0.07250713 0.04284524 -0.02296216
v 0.07141586 0.04128611 -0.02384933
v 0.07063560 0.04128611 -0.02429430
v 0.07340938 0.04162893 -0.02251441
v 0.07338794 0.04184495 -0.02250051
v 0.06997065 0.04222065 -0.02418584
v 0.06658822 0.04895499 -0.02282867
v 0.06839406 0.04895499 -0.02265624
v 0.06913811 0.04895499 -0.02256725
v 0.07035809 0.04832101 -0.02257838
v 0.07098015 0.04894090 -0.02222518
v 0.07114237 0.04895499 -0.02217234
v 0.06957248 0.03972697 -0.02464750
v 0.06801197 0.03816314 -0.02489780
v 0.06645147 0.03660401 -0.02483939
v 0.06412412 0.03571173 -0.02412187
v 0.06381712 0.03544405 -0.02395779
v 0.06381712 0.03604986 -0.02382430
v 0.06381712 0.03609682 -0.02380761
v 0.06381712 0.00098809 -0.02469199
v 0.07463204 0.03659931 0.00098570
v 0.07484387 0.03558963 0.00098570
v 0.07232481 0.00099279 -0.02636342
v 0.07259964 0.00099279 -0.02624384
v 0.07337989 0.00099279 -0.02560141
v 0.07398318 0.00099279 -0.02496732
v 0.07411724 0.00099279 -0.02481992
v 0.07475002 0.00099279 -0.02401897
v 0.07113298 0.00098809 -0.02685011
v 0.07203925 0.00129334 -0.02648857
v 0.07488543 0.02722101 -0.02236979
v 0.07418159 0.02722101 -0.02335708
v 0.07355418 0.02722101 -0.02422477
v 0.07269616 0.02722101 -0.02470868
v 0.07080989 0.03972697 -0.02441667
v 0.07338794 0.04166180 -0.02252553
v 0.06957248 0.03816314 -0.02485886
v 0.06985937 0.04895499 -0.02246435
v 0.07098015 0.04895499 -0.02221962
v 0.06801197 0.03660401 -0.02506744
v 0.06381712 0.01787090 -0.02646910
v 0.06381712 0.00098809 -0.02643573
v 0.07476209 0.03591836 0.00098570
v 0.07113298 0.00381520 -0.02688070
v 0.07203791 0.00284778 -0.02648023
v 0.07259025 0.00225606 -0.02623549
v 0.07337185 0.00538372 -0.02559863
v 0.07406361 0.00538372 -0.02481992
v 0.06927754 0.00098809 -0.02733124
v 0.06940624 0.00225606 -0.02736461
v 0.06945450 0.00381520 -0.02738964
v 0.07113298 0.00225606 -0.02687514
v 0.07331956 0.00694756 -0.02555413
v 0.07259159 0.00538372 -0.02619378
v 0.07253931 0.00694756 -0.02614094
v 0.07113298 0.00537903 -0.02684177
v 0.06957248 0.03660401 -0.02498957
v 0.06942769 0.00537903 -0.02738964
v 0.06917699 0.00694286 -0.02734514
v 0.06645147 0.00972770 -0.02727840
v 0.06488963 0.00982163 -0.02728952
v 0.06381712 0.00959151 -0.02728118
v 0.06825597 0.00098809 -0.02732846
v 0.06381712 0.00887300 -0.02728118
v 0.07203791 0.00381520 -0.02646910
v 0.07203791 0.00537903 -0.02644129
v 0.07259025 0.00382459 -0.02621602
v 0.06801197 0.00381520 -0.02739520
v 0.06801197 0.00537903 -0.02742579
v 0.06890752 0.00796663 -0.02728674
v 0.06726122 0.00938018 -0.02726449
f 1 2 11
f 1 11 33
f 1 33 69
f 1 69 91
f 1 91 70
f 1 70 36
f 1 36 35
f 1 35 17
f 1 17 16
f 1 16 15
f 1 15 14
f 1 14 12
f 1 12 3
f 1 3 4
f 1 4 5
f 1 5 6
f 1 6 7
f 1 7 8
f 1 8 9
f 1 9 2
f 2 9 10
f 2 10 11
f 3 12 4
f 4 13 34
f 4 34 68
f 4 68 90
f 4 90 111
f 4 111 97
f 4 97 77
f 4 77 37
f 4 37 18
f 4 18 5
f 4 12 14
f 4 14 15
f 4 15 16
f 4 16 17
f 4 17 13
f 5 18 6
f 6 18 19
f 6 19 20
f 6 20 7
f 7 20 8
f 8 20 21
f 8 21 22
f 8 22 23
f 8 23 24
f 8 24 25
f 8 25 26
f 8 26 27
f 8 27 28
f 8 28 29
f 8 29 60
f 8 60 87
f 8 87 86
f 8 86 57
f 8 57 56
f 8 56 55
f 8 55 30
f 8 30 10
f 8 10 9
f 10 30 67
f 10 67 31
f 10 31 11
f 11 31 32
f 11 32 33
f 13 17 35
f 13 35 36
f 13 36 70
f 13 70 34
f 18 37 38
f 18 38 39
f 18 39 40
f 18 40 41
f 18 41 42
f 18 42 19
f 19 42 21
f 19 21 20
f 21 42 22
f 22 42 41
f 22 41 23
f 23 41 40
f 23 40 39
f 23 39 43
f 23 43 24
f 24 43 44
f 24 44 25
f 25 44 45
f 25 45 46
f 25 46 26
f 26 46 47
f 26 47 48
f 26 48 27
f 27 49 50
f 27 50 51
f 27 51 28
f 27 48 52
f 27 52 53
f 27 53 49
f 28 54 30
f 28 30 55
f 28 55 56
f 28 56 57
f 28 57 58
f 28 58 59
f 28 59 60
f 28 60 29
f 28 51 61
f 28 61 54
f 30 54 61
f 30 61 62
f 30 62 63
f 30 63 64
f 30 64 65
f 30 65 66
f 30 66 67
f 31 67 66
f 31 66 65
f 31 65 89
f 31 89 110
f 31 110 112
f 31 112 90
f 31 90 68
f 31 68 32
f 32 68 33
f 33 68 69
f 34 70 68
f 37 71 72
f 37 72 73
f 37 73 74
f 37 74 75
f 37 75 76
f 37 76 38
f 37 77 78
f 37 78 71
f 38 76 79
f 38 79 43
f 38 43 39
f 43 79 44
f 44 79 80
f 44 80 81
f 44 81 45
f 45 81 82
f 45 82 47
f 45 47 46
f 47 82 83
f 47 83 50
f 47 50 49
f 47 49 84
f 47 84 52
f 47 52 48
f 49 53 84
f 50 83 51
f 51 83 85
f 51 85 61
f 52 84 53
f 57 86 58
f 58 86 59
f 59 86 87
f 59 87 60
f 61 85 62
f 62 85 88
f 62 88 63
f 63 88 89
f 63 89 64
f 64 89 65
f 68 70 91
f 68 91 69
f 71 78 72
f 72 78 92
f 72 92 93
f 72 93 94
f 72 94 95
f 72 95 73
f 73 95 74
f 74 95 75
f 75 95 96
f 75 96 76
f 76 96 79
f 77 97 98
f 77 98 99
f 77 99 100
f 77 100 78
f 78 100 92
f 79 96 80
f 80 96 81
f 81 96 95
f 81 95 101
f 81 101 102
f 81 102 103
f 81 103 82
f 82 103 104
f 82 104 83
f 83 105 85
f 83 104 106
f 83 106 107
f 83 107 105
f 85 105 88
f 88 105 108
f 88 108 109
f 88 109 110
f 88 110 89
f 90 112 111
f 92 113 93
f 92 100 99
f 92 99 106
f 92 106 104
f 92 104 114
f 92 114 102
f 92 102 113
f 93 113 94
f 94 113 115
f 94 115 95
f 95 115 102
f 95 102 101
f 97 111 98
f 98 116 117
f 98 117 99
f 98 111 116
f 99 117 106
f 102 115 113
f 102 114 103
f 103 114 104
f 105 107 118
f 105 118 119
f 105 119 108
f 106 117 107
f 107 117 108
f 107 108 118
f 108 119 118
f 108 117 109
f 109 117 110
f 110 117 112
f 111 112 116
f 112 117 116

