# https://github.com/mikedh/trimesh
v -0.02062156 -0.01444160 0.02956145
v -0.01996085 -0.03522247 0.02989527
v -0.01996085 -0.02897785 0.02963087
v -0.01996085 -0.02738876 0.02940731
v -0.01996085 -0.02721704 0.02937566
v -0.02062156 -0.01444160 0.02796078
v -0.02207863 -0.01444160 0.02961045
v -0.04441597 -0.02741874 0.03106821
v -0.01996085 -0.03544870 0.02986872
v -0.04442473 -0.02897785 0.03106004
v -0.01996085 -0.02721704 0.02762493
v -0.02062156 -0.01858196 0.02682459
v -0.02486588 -0.02967836 0.02111607
v -0.03906464 -0.02044908 0.02117936
v -0.03910840 -0.02044090 0.02117222
v -0.04010603 -0.02028554 0.02105993
v -0.02880390 -0.01444160 0.02708694
v -0.02255994 -0.01444160 0.02961351
v -0.04597806 -0.02741874 0.03108148
v -0.03037036 -0.04082655 0.02746568
v -0.03110983 -0.04228753 0.02669290
v -0.03037036 -0.04228753 0.02660613
v -0.01996085 -0.03544870 0.02819455
v -0.02099786 -0.03544870 0.02987893
v -0.06314784 -0.04228753 0.02767086
v -0.04598243 -0.02897785 0.03092427
v -0.06465742 -0.03990797 0.02819455
v -0.06314784 -0.04146709 0.02794138
v -0.01996085 -0.03201157 0.02786788
v -0.02062156 -0.02273596 0.02639686
v -0.02062156 -0.02117412 0.02639380
v -0.02062156 -0.02021467 0.02650200
v -0.02062156 -0.01961228 0.02658980
v -0.02486588 -0.02981192 0.02111607
v -0.03974285 -0.02273323 0.02065261
v -0.03966409 -0.02141126 0.02085372
v -0.03964659 -0.02105146 0.02090884
v -0.03910840 -0.02049542 0.02115690
v -0.04065735 -0.02028554 0.02105993
v -0.06465304 -0.01549373 0.02539950
v -0.03036598 -0.01444160 0.02709205
v -0.02412203 -0.01444160 0.02955737
v -0.03505661 -0.01549373 0.02960841
v -0.03664057 -0.01549373 0.02953287
v -0.06002805 -0.01549373 0.02834257
v -0.05955549 -0.02003750 0.02897958
v -0.06428111 -0.02487837 0.02898366
v -0.06428111 -0.02531176 0.02898366
v -0.06465742 -0.03834614 0.02828235
v -0.03278130 -0.04228753 0.02675109
v -0.03037036 -0.04228753 0.02459406
v -0.03037036 -0.04228480 0.02457160
v -0.06416298 -0.04228753 0.02760553
v -0.06465742 -0.04160337 0.02777601
v -0.06455678 -0.04228753 0.02757388
v -0.02568411 -0.02984463 0.02110076
v -0.05115875 -0.03930832 0.02106299
v -0.05064243 -0.03837067 0.02094355
v -0.05227014 -0.03824256 0.02099459
v -0.05221764 -0.03735671 0.02101909
v -0.04065297 -0.02141126 0.02092313
v -0.04081050 -0.02117685 0.02097213
v -0.05301837 -0.03754750 0.02113547
v -0.06113070 -0.03366063 0.02409896
v -0.06465742 -0.04228753 0.02568023
v -0.06465742 -0.03210152 0.02630601
v -0.06465742 -0.03064326 0.02640605
v -0.06465742 -0.03053424 0.02642136
v -0.06465742 -0.02793118 0.02687053
v -0.06465304 -0.01549373 0.02715126
v -0.03037036 -0.01444160 0.02810778
v -0.02519842 -0.01444160 0.02943793
v -0.06059250 -0.01549373 0.02828643
v -0.06159013 -0.01549373 0.02817311
v -0.06215458 -0.01549373 0.02802509
v -0.06323973 -0.01549373 0.02771068
v -0.06364665 -0.01549373 0.02756674
v -0.06404046 -0.01549373 0.02742586
v -0.06465304 -0.02445588 0.02875601
v -0.06465304 -0.02562249 0.02877030
v -0.06465304 -0.02572334 0.02877030
v -0.06465742 -0.02793118 0.02843037
v -0.03062414 -0.04228753 0.02456854
v -0.04901909 -0.04228753 0.02379066
v -0.06465742 -0.04207765 0.02762799
v -0.06465742 -0.04228753 0.02754122
v -0.05065993 -0.04228753 0.02375902
v -0.05178008 -0.03930832 0.02106299
v -0.05282147 -0.03869231 0.02124776
v -0.05301837 -0.03765108 0.02113547
v -0.05221326 -0.04228753 0.02387948
v -0.03037036 -0.01444160 0.02860187
v -0.02568411 -0.01444160 0.02938076
f 1 2 3
f 1 3 4
f 1 4 5
f 1 5 11
f 1 11 6
f 1 6 17
f 1 17 41
f 1 41 71
f 1 71 92
f 1 92 93
f 1 93 72
f 1 72 42
f 1 42 18
f 1 18 7
f 1 7 8
f 1 8 2
f 2 9 23
f 2 23 29
f 2 29 11
f 2 11 5
f 2 5 4
f 2 4 3
f 2 8 10
f 2 10 9
f 6 11 12
f 6 12 13
f 6 13 14
f 6 14 15
f 6 15 16
f 6 16 17
f 7 18 19
f 7 19 8
f 8 19 10
f 9 20 21
f 9 21 22
f 9 22 51
f 9 51 23
f 9 10 24
f 9 24 25
f 9 25 20
f 10 19 26
f 10 26 27
f 10 27 28
f 10 28 24
f 11 29 30
f 11 30 31
f 11 31 32
f 11 32 33
f 11 33 12
f 12 33 13
f 13 33 32
f 13 32 31
f 13 31 34
f 13 34 35
f 13 35 36
f 13 36 37
f 13 37 38
f 13 38 15
f 13 15 14
f 15 38 37
f 15 37 16
f 16 37 39
f 16 39 40
f 16 40 17
f 17 40 41
f 18 42 43
f 18 43 19
f 19 43 44
f 19 44 45
f 19 45 46
f 19 46 47
f 19 47 48
f 19 48 49
f 19 49 27
f 19 27 26
f 20 25 50
f 20 50 21
f 21 50 25
f 21 25 53
f 21 53 55
f 21 55 86
f 21 86 65
f 21 65 91
f 21 91 87
f 21 87 84
f 21 84 83
f 21 83 51
f 21 51 22
f 23 34 29
f 23 51 52
f 23 52 34
f 24 28 25
f 25 28 53
f 27 49 82
f 27 82 69
f 27 69 68
f 27 68 67
f 27 67 66
f 27 66 65
f 27 65 86
f 27 86 85
f 27 85 54
f 27 54 28
f 28 54 55
f 28 55 53
f 29 34 30
f 30 34 31
f 34 56 35
f 34 52 57
f 34 57 58
f 34 58 56
f 35 58 59
f 35 59 60
f 35 60 61
f 35 61 39
f 35 39 36
f 35 56 58
f 36 39 37
f 39 61 62
f 39 62 40
f 40 62 60
f 40 60 63
f 40 63 64
f 40 64 65
f 40 65 66
f 40 66 67
f 40 67 68
f 40 68 69
f 40 69 82
f 40 82 70
f 40 70 92
f 40 92 71
f 40 71 41
f 42 72 73
f 42 73 45
f 42 45 44
f 42 44 43
f 45 73 46
f 46 73 74
f 46 74 47
f 47 74 75
f 47 75 76
f 47 76 77
f 47 77 78
f 47 78 79
f 47 79 80
f 47 80 81
f 47 81 48
f 48 81 49
f 49 81 82
f 51 83 52
f 52 83 84
f 52 84 57
f 54 85 55
f 55 85 86
f 57 84 87
f 57 87 88
f 57 88 58
f 58 88 59
f 59 89 90
f 59 90 63
f 59 63 60
f 59 88 89
f 60 62 61
f 63 90 64
f 64 90 65
f 65 90 89
f 65 89 88
f 65 88 91
f 70 82 79
f 70 79 78
f 70 78 92
f 72 93 74
f 72 74 73
f 74 93 92
f 74 92 75
f 75 92 76
f 76 92 77
f 77 92 78
f 79 82 80
f 80 82 81
f 87 91 88

