# File generated by ImageToStl.com - Free Image and 3D model conversion tools

o obj1
v 0.019129019 -0.048300003 -0.013695547
v 0.013993435 -0.048300003 -0.011537325
v 0.015890425 -0.048300003 -0.016667902
v 0.010763172 -0.048300003 -0.014854753
v 0.013011763 -0.048300003 -0.019990055
v 0.007903829 -0.048300003 -0.018496746
v 0.010530561 -0.048300003 -0.023618696
v 0.005447805 -0.048300003 -0.022422035
v 0.008479167 -0.048300003 -0.027506521
v 0.003422927 -0.048300003 -0.026586147
v 0.006884322 -0.048300003 -0.031602844
v 0.001852140 -0.048300003 -0.030941898
v 0.005766820 -0.048300003 -0.035854267
v 0.000753239 -0.048300003 -0.035439938
v 0.005141229 -0.048300003 -0.040205360
v 0.000138678 -0.048300003 -0.040029305
v 0.005015701 -0.048300003 -0.044599407
v 0.000015415 -0.048300003 -0.044657990
v 0.005391873 -0.048300003 -0.048979118
v 0.000384852 -0.048300003 -0.049273560
v 0.006264843 -0.048300003 -0.053287403
v 0.001242798 -0.048300003 -0.053823711
v 0.007623233 -0.048300003 -0.057468098
v 0.002579536 -0.048300003 -0.058256889
v 0.009449329 -0.048300003 -0.061466690
v 0.004379920 -0.048300003 -0.062522869
v 0.011719331 -0.048300003 -0.065231064
v 0.006623551 -0.048300003 -0.066573311
v 0.014403640 -0.048300003 -0.068712135
v 0.071109573 -0.048300003 -0.016667902
v 0.073006561 -0.048300003 -0.011537325
v 0.067870979 -0.048300003 -0.013695547
v 0.069441978 -0.048300003 -0.008582041
v 0.064314674 -0.048300003 -0.011111736
v 0.065583466 -0.048300003 -0.006022398
v 0.060487011 -0.048300003 -0.008950159
v 0.061474728 -0.048300003 -0.003887385
v 0.056437901 -0.048300003 -0.007238992
v 0.057162334 -0.048300003 -0.002201203
v 0.052220123 -0.048300003 -0.006000541
v 0.052695145 -0.048300003 -0.000982951
v 0.047888668 -0.048300003 -0.005250953
v 0.048123764 -0.048300003 -0.000246435
v 0.043500000 -0.048300003 -0.004999999
v 0.043500000 -0.048300003 -0.000000000
v 0.039111328 -0.048300003 -0.005250953
v 0.038876232 -0.048300003 -0.000246435
v 0.034779873 -0.048300003 -0.006000541
v 0.034304855 -0.048300003 -0.000982951
v 0.030562098 -0.048300003 -0.007238992
v 0.029837662 -0.048300003 -0.002201203
v 0.026512985 -0.048300003 -0.008950159
v 0.025525269 -0.048300003 -0.003887385
v 0.022685328 -0.048300003 -0.011111736
v 0.021416536 -0.048300003 -0.006022398
v 0.017558018 -0.048300003 -0.008582041
v 0.069532730 -0.048300003 -0.071864532
v 0.074665863 -0.048300003 -0.073846970
v 0.072596359 -0.048300003 -0.068712135
v 0.077714989 -0.048300003 -0.070362320
v 0.075280670 -0.048300003 -0.065231064
v 0.080376450 -0.048300003 -0.066573311
v 0.077550667 -0.048300003 -0.061466690
v 0.082620079 -0.048300003 -0.062522869
v 0.079376762 -0.048300003 -0.057468098
v 0.084420464 -0.048300003 -0.058256889
v 0.080735153 -0.048300003 -0.053287403
v 0.085757202 -0.048300003 -0.053823711
v 0.081608124 -0.048300003 -0.048979118
v 0.086615143 -0.048300003 -0.049273560
v 0.081984299 -0.048300003 -0.044599407
v 0.086984581 -0.048300003 -0.044657990
v 0.081858772 -0.048300003 -0.040205360
v 0.086861321 -0.048300003 -0.040029305
v 0.081233177 -0.048300003 -0.035854267
v 0.086246758 -0.048300003 -0.035439938
v 0.080115677 -0.048300003 -0.031602844
v 0.085147858 -0.048300003 -0.030941898
v 0.078520828 -0.048300003 -0.027506521
v 0.083577072 -0.048300003 -0.026586147
v 0.076469437 -0.048300003 -0.023618696
v 0.081552193 -0.048300003 -0.022422035
v 0.073988235 -0.048300003 -0.019990055
v 0.079096169 -0.048300003 -0.018496746
v 0.076236824 -0.048300003 -0.014854753
v 0.009285007 -0.048300003 -0.070362320
v 0.012334130 -0.048300003 -0.073846970
v 0.017467266 -0.048300003 -0.071864532
v 0.015736377 -0.048300003 -0.076987778
v 0.020870266 -0.048300003 -0.074647156
v 0.019453196 -0.048300003 -0.079749153
v 0.024568281 -0.048300003 -0.077023720
v 0.023442474 -0.048300003 -0.082099815
v 0.028513100 -0.048300003 -0.078963264
v 0.027659014 -0.048300003 -0.084013123
v 0.032653294 -0.048300003 -0.080440475
v 0.032055038 -0.048300003 -0.085467400
v 0.036934895 -0.048300003 -0.081436119
v 0.036580738 -0.048300003 -0.086446175
v 0.041302078 -0.048300003 -0.081937210
v 0.041184834 -0.048300003 -0.086938347
v 0.043500000 -0.048300003 -0.082000000
v 0.043500000 -0.048300003 -0.087000000
v 0.045697918 -0.048300003 -0.081937210
v 0.045815163 -0.048300003 -0.086938347
v 0.050065102 -0.048300003 -0.081436119
v 0.050419262 -0.048300003 -0.086446175
v 0.054346703 -0.048300003 -0.080440475
v 0.054944962 -0.048300003 -0.085467400
v 0.058486897 -0.048300003 -0.078963264
v 0.059340984 -0.048300003 -0.084013123
v 0.062431717 -0.048300003 -0.077023720
v 0.063557522 -0.048300003 -0.082099815
v 0.066129730 -0.048300003 -0.074647156
v 0.067546799 -0.048300003 -0.079749153
v 0.071263618 -0.048300003 -0.076987778
v 0.067870979 -0.000000000 -0.013695547
v 0.073006561 -0.000000000 -0.011537325
v 0.071109573 -0.000000000 -0.016667902
v 0.076236824 -0.000000000 -0.014854753
v 0.073988235 -0.000000000 -0.019990055
v 0.079096169 -0.000000000 -0.018496746
v 0.076469437 -0.000000000 -0.023618696
v 0.081552193 -0.000000000 -0.022422035
v 0.078520828 -0.000000000 -0.027506521
v 0.083577072 -0.000000000 -0.026586147
v 0.080115677 -0.000000000 -0.031602844
v 0.085147858 -0.000000000 -0.030941898
v 0.081233177 -0.000000000 -0.035854267
v 0.086246758 -0.000000000 -0.035439938
v 0.081858772 -0.000000000 -0.040205360
v 0.086861321 -0.000000000 -0.040029305
v 0.081984299 -0.000000000 -0.044599407
v 0.086984581 -0.000000000 -0.044657990
v 0.081608124 -0.000000000 -0.048979118
v 0.086615143 -0.000000000 -0.049273560
v 0.080735153 -0.000000000 -0.053287403
v 0.085757202 -0.000000000 -0.053823711
v 0.079376762 -0.000000000 -0.057468098
v 0.084420464 -0.000000000 -0.058256889
v 0.077550667 -0.000000000 -0.061466690
v 0.082620079 -0.000000000 -0.062522869
v 0.075280670 -0.000000000 -0.065231064
v 0.080376450 -0.000000000 -0.066573311
v 0.072596359 -0.000000000 -0.068712135
v 0.015890425 -0.000000000 -0.016667902
v 0.013993435 -0.000000000 -0.011537325
v 0.019129019 -0.000000000 -0.013695547
v 0.017558018 -0.000000000 -0.008582041
v 0.022685328 -0.000000000 -0.011111736
v 0.021416536 -0.000000000 -0.006022398
v 0.026512985 -0.000000000 -0.008950159
v 0.025525269 -0.000000000 -0.003887385
v 0.030562098 -0.000000000 -0.007238992
v 0.029837662 -0.000000000 -0.002201203
v 0.034779873 -0.000000000 -0.006000541
v 0.034304855 -0.000000000 -0.000982951
v 0.039111328 -0.000000000 -0.005250953
v 0.038876232 -0.000000000 -0.000246435
v 0.043500000 -0.000000000 -0.004999999
v 0.043500000 -0.000000000 -0.000000000
v 0.047888668 -0.000000000 -0.005250953
v 0.048123764 -0.000000000 -0.000246435
v 0.052220123 -0.000000000 -0.006000541
v 0.052695145 -0.000000000 -0.000982951
v 0.056437901 -0.000000000 -0.007238992
v 0.057162334 -0.000000000 -0.002201203
v 0.060487011 -0.000000000 -0.008950159
v 0.061474728 -0.000000000 -0.003887385
v 0.064314674 -0.000000000 -0.011111736
v 0.065583466 -0.000000000 -0.006022398
v 0.069441978 -0.000000000 -0.008582041
v 0.017467266 -0.000000000 -0.071864532
v 0.012334130 -0.000000000 -0.073846970
v 0.014403640 -0.000000000 -0.068712135
v 0.009285007 -0.000000000 -0.070362320
v 0.011719331 -0.000000000 -0.065231064
v 0.006623551 -0.000000000 -0.066573311
v 0.009449329 -0.000000000 -0.061466690
v 0.004379920 -0.000000000 -0.062522869
v 0.007623233 -0.000000000 -0.057468098
v 0.002579536 -0.000000000 -0.058256889
v 0.006264843 -0.000000000 -0.053287403
v 0.001242798 -0.000000000 -0.053823711
v 0.005391873 -0.000000000 -0.048979118
v 0.000384852 -0.000000000 -0.049273560
v 0.005015701 -0.000000000 -0.044599407
v 0.000015415 -0.000000000 -0.044657990
v 0.005141229 -0.000000000 -0.040205360
v 0.000138678 -0.000000000 -0.040029305
v 0.005766820 -0.000000000 -0.035854267
v 0.000753239 -0.000000000 -0.035439938
v 0.006884322 -0.000000000 -0.031602844
v 0.001852140 -0.000000000 -0.030941898
v 0.008479167 -0.000000000 -0.027506521
v 0.003422927 -0.000000000 -0.026586147
v 0.010530561 -0.000000000 -0.023618696
v 0.005447805 -0.000000000 -0.022422035
v 0.013011763 -0.000000000 -0.019990055
v 0.007903829 -0.000000000 -0.018496746
v 0.010763172 -0.000000000 -0.014854753
v 0.077714989 -0.000000000 -0.070362320
v 0.074665863 -0.000000000 -0.073846970
v 0.069532730 -0.000000000 -0.071864532
v 0.071263618 -0.000000000 -0.076987778
v 0.066129730 -0.000000000 -0.074647156
v 0.067546799 -0.000000000 -0.079749153
v 0.062431717 -0.000000000 -0.077023720
v 0.063557522 -0.000000000 -0.082099815
v 0.058486897 -0.000000000 -0.078963264
v 0.059340984 -0.000000000 -0.084013123
v 0.054346703 -0.000000000 -0.080440475
v 0.054944962 -0.000000000 -0.085467400
v 0.050065102 -0.000000000 -0.081436119
v 0.050419262 -0.000000000 -0.086446175
v 0.045697918 -0.000000000 -0.081937210
v 0.045815163 -0.000000000 -0.086938347
v 0.043500000 -0.000000000 -0.082000000
v 0.043500000 -0.000000000 -0.087000000
v 0.041302078 -0.000000000 -0.081937210
v 0.041184834 -0.000000000 -0.086938347
v 0.036934895 -0.000000000 -0.081436119
v 0.036580738 -0.000000000 -0.086446175
v 0.032653294 -0.000000000 -0.080440475
v 0.032055038 -0.000000000 -0.085467400
v 0.028513100 -0.000000000 -0.078963264
v 0.027659014 -0.000000000 -0.084013123
v 0.024568281 -0.000000000 -0.077023720
v 0.023442474 -0.000000000 -0.082099815
v 0.020870266 -0.000000000 -0.074647156
v 0.019453196 -0.000000000 -0.079749153
v 0.015736377 -0.000000000 -0.076987778
v 0.043500000 -0.000000000 -0.087000000
v 0.041184834 -0.000000000 -0.086938347
v 0.036580738 -0.000000000 -0.086446175
v 0.032055038 -0.000000000 -0.085467400
v 0.027659014 -0.000000000 -0.084013123
v 0.023442474 -0.000000000 -0.082099815
v 0.019453196 -0.000000000 -0.079749153
v 0.015736377 -0.000000000 -0.076987778
v 0.012334130 -0.000000000 -0.073846970
v 0.009285007 -0.000000000 -0.070362320
v 0.006623551 -0.000000000 -0.066573311
v 0.004379920 -0.000000000 -0.062522869
v 0.002579536 -0.000000000 -0.058256889
v 0.001242798 -0.000000000 -0.053823711
v 0.000384852 -0.000000000 -0.049273560
v 0.000015415 -0.000000000 -0.044657990
v 0.000138678 -0.000000000 -0.040029305
v 0.000753239 -0.000000000 -0.035439938
v 0.001852140 -0.000000000 -0.030941898
v 0.003422927 -0.000000000 -0.026586147
v 0.005447805 -0.000000000 -0.022422035
v 0.007903829 -0.000000000 -0.018496746
v 0.010763172 -0.000000000 -0.014854753
v 0.013993435 -0.000000000 -0.011537325
v 0.017558018 -0.000000000 -0.008582041
v 0.021416536 -0.000000000 -0.006022398
v 0.025525269 -0.000000000 -0.003887385
v 0.029837662 -0.000000000 -0.002201203
v 0.034304855 -0.000000000 -0.000982951
v 0.038876232 -0.000000000 -0.000246435
v 0.043500000 -0.000000000 -0.000000000
v 0.048123764 -0.000000000 -0.000246435
v 0.052695145 -0.000000000 -0.000982951
v 0.057162334 -0.000000000 -0.002201203
v 0.061474728 -0.000000000 -0.003887385
v 0.065583466 -0.000000000 -0.006022398
v 0.069441978 -0.000000000 -0.008582041
v 0.073006561 -0.000000000 -0.011537325
v 0.076236824 -0.000000000 -0.014854753
v 0.079096169 -0.000000000 -0.018496746
v 0.081552193 -0.000000000 -0.022422035
v 0.083577072 -0.000000000 -0.026586147
v 0.085147858 -0.000000000 -0.030941898
v 0.086246758 -0.000000000 -0.035439938
v 0.086861321 -0.000000000 -0.040029305
v 0.086984581 -0.000000000 -0.044657990
v 0.086615143 -0.000000000 -0.049273560
v 0.085757202 -0.000000000 -0.053823711
v 0.084420464 -0.000000000 -0.058256889
v 0.082620079 -0.000000000 -0.062522869
v 0.080376450 -0.000000000 -0.066573311
v 0.077714989 -0.000000000 -0.070362320
v 0.074665863 -0.000000000 -0.073846970
v 0.071263618 -0.000000000 -0.076987778
v 0.067546799 -0.000000000 -0.079749153
v 0.063557522 -0.000000000 -0.082099815
v 0.059340984 -0.000000000 -0.084013123
v 0.054944962 -0.000000000 -0.085467400
v 0.050419262 -0.000000000 -0.086446175
v 0.045815163 -0.000000000 -0.086938347
v 0.043500000 -0.000000000 -0.004999999
v 0.047888668 -0.000000000 -0.005250953
v 0.052220123 -0.000000000 -0.006000541
v 0.056437901 -0.000000000 -0.007238992
v 0.060487011 -0.000000000 -0.008950159
v 0.064314674 -0.000000000 -0.011111736
v 0.067870979 -0.000000000 -0.013695547
v 0.071109573 -0.000000000 -0.016667902
v 0.073988235 -0.000000000 -0.019990055
v 0.076469437 -0.000000000 -0.023618696
v 0.078520828 -0.000000000 -0.027506521
v 0.080115677 -0.000000000 -0.031602844
v 0.081233177 -0.000000000 -0.035854267
v 0.081858772 -0.000000000 -0.040205360
v 0.081984299 -0.000000000 -0.044599407
v 0.081608124 -0.000000000 -0.048979118
v 0.080735153 -0.000000000 -0.053287403
v 0.079376762 -0.000000000 -0.057468098
v 0.077550667 -0.000000000 -0.061466690
v 0.075280670 -0.000000000 -0.065231064
v 0.072596359 -0.000000000 -0.068712135
v 0.069532730 -0.000000000 -0.071864532
v 0.066129730 -0.000000000 -0.074647156
v 0.062431717 -0.000000000 -0.077023720
v 0.058486897 -0.000000000 -0.078963264
v 0.054346703 -0.000000000 -0.080440475
v 0.050065102 -0.000000000 -0.081436119
v 0.045697918 -0.000000000 -0.081937210
v 0.043500000 -0.000000000 -0.082000000
v 0.041302078 -0.000000000 -0.081937210
v 0.036934895 -0.000000000 -0.081436119
v 0.032653294 -0.000000000 -0.080440475
v 0.028513100 -0.000000000 -0.078963264
v 0.024568281 -0.000000000 -0.077023720
v 0.020870266 -0.000000000 -0.074647156
v 0.017467266 -0.000000000 -0.071864532
v 0.014403640 -0.000000000 -0.068712135
v 0.011719331 -0.000000000 -0.065231064
v 0.009449329 -0.000000000 -0.061466690
v 0.007623233 -0.000000000 -0.057468098
v 0.006264843 -0.000000000 -0.053287403
v 0.005391873 -0.000000000 -0.048979118
v 0.005015701 -0.000000000 -0.044599407
v 0.005141229 -0.000000000 -0.040205360
v 0.005766820 -0.000000000 -0.035854267
v 0.006884322 -0.000000000 -0.031602844
v 0.008479167 -0.000000000 -0.027506521
v 0.010530561 -0.000000000 -0.023618696
v 0.013011763 -0.000000000 -0.019990055
v 0.015890425 -0.000000000 -0.016667902
v 0.019129019 -0.000000000 -0.013695547
v 0.022685328 -0.000000000 -0.011111736
v 0.026512985 -0.000000000 -0.008950159
v 0.030562098 -0.000000000 -0.007238992
v 0.034779873 -0.000000000 -0.006000541
v 0.039111328 -0.000000000 -0.005250953
vn 0.000000000 -1.000000000 -0.000000000
vn 0.000000000 1.000000000 -0.000000000
vn 0.026620000 0.000000000 -0.999650000
vn -0.026620000 -0.000000000 -0.999650000
vn -0.026620000 -0.000000000 -0.999650000
vn -0.106290000 -0.000000000 -0.994330000
vn -0.211380000 -0.000000000 -0.977400000
vn -0.314080000 -0.000000000 -0.949400000
vn -0.413210000 -0.000000000 -0.910630000
vn -0.507670000 -0.000000000 -0.861550000
vn -0.596370000 -0.000000000 -0.802710000
vn -0.678310000 -0.000000000 -0.734770000
vn -0.752570000 -0.000000000 -0.658510000
vn -0.818300000 -0.000000000 -0.574790000
vn -0.874760000 -0.000000000 -0.484550000
vn -0.921310000 -0.000000000 -0.388820000
vn -0.957420000 -0.000000000 -0.288690000
vn -0.982680000 -0.000000000 -0.185290000
vn -0.996810000 -0.000000000 -0.079790000
vn -0.999650000 -0.000000000 0.026620000
vn -0.991150000 -0.000000000 0.132730000
vn -0.971430000 -0.000000000 0.237330000
vn -0.940700000 -0.000000000 0.339240000
vn -0.899310000 -0.000000000 0.437310000
vn -0.847730000 -0.000000000 0.530420000
vn -0.786550000 -0.000000000 0.617520000
vn -0.716460000 -0.000000000 0.697630000
vn -0.638240000 -0.000000000 0.769830000
vn -0.552800000 -0.000000000 0.833310000
vn -0.461090000 -0.000000000 0.887350000
vn -0.364160000 -0.000000000 0.931340000
vn -0.263100000 -0.000000000 0.964770000
vn -0.159060000 -0.000000000 0.987270000
vn -0.053220000 -0.000000000 0.998580000
vn 0.053220000 -0.000000000 0.998580000
vn 0.159060000 -0.000000000 0.987270000
vn 0.263100000 -0.000000000 0.964770000
vn 0.364160000 -0.000000000 0.931340000
vn 0.461090000 -0.000000000 0.887350000
vn 0.552800000 -0.000000000 0.833310000
vn 0.638240000 -0.000000000 0.769830000
vn 0.716460000 -0.000000000 0.697630000
vn 0.786550000 -0.000000000 0.617520000
vn 0.847730000 -0.000000000 0.530420000
vn 0.899310000 -0.000000000 0.437310000
vn 0.940700000 -0.000000000 0.339240000
vn 0.971430000 -0.000000000 0.237330000
vn 0.991150000 -0.000000000 0.132730000
vn 0.999650000 -0.000000000 0.026620000
vn 0.996810000 0.000000000 -0.079790000
vn 0.982680000 0.000000000 -0.185290000
vn 0.957420000 0.000000000 -0.288690000
vn 0.921310000 0.000000000 -0.388820000
vn 0.874760000 0.000000000 -0.484550000
vn 0.818300000 0.000000000 -0.574790000
vn 0.752570000 0.000000000 -0.658510000
vn 0.678310000 0.000000000 -0.734770000
vn 0.596370000 0.000000000 -0.802710000
vn 0.507670000 0.000000000 -0.861550000
vn 0.413210000 0.000000000 -0.910630000
vn 0.314080000 0.000000000 -0.949400000
vn 0.211380000 0.000000000 -0.977400000
vn 0.106290000 0.000000000 -0.994330000
vn 0.026620000 0.000000000 -0.999650000
vn -0.057090000 -0.000000000 -0.998370000
vn -0.170520000 -0.000000000 -0.985350000
vn -0.281730000 -0.000000000 -0.959490000
vn -0.389270000 -0.000000000 -0.921120000
vn -0.491730000 -0.000000000 -0.870750000
vn -0.587790000 -0.000000000 -0.809020000
vn -0.676170000 -0.000000000 -0.736740000
vn -0.755750000 -0.000000000 -0.654860000
vn -0.825470000 -0.000000000 -0.564440000
vn -0.884430000 -0.000000000 -0.466670000
vn -0.931860000 -0.000000000 -0.362810000
vn -0.967150000 -0.000000000 -0.254220000
vn -0.989820000 -0.000000000 -0.142310000
vn -0.999590000 -0.000000000 -0.028560000
vn -0.996330000 0.000000000 0.085570000
vn -0.980080000 0.000000000 0.198590000
vn -0.951060000 0.000000000 0.309020000
vn -0.909630000 0.000000000 0.415410000
vn -0.856350000 0.000000000 0.516400000
vn -0.791900000 0.000000000 0.610650000
vn -0.717130000 0.000000000 0.696940000
vn -0.633010000 0.000000000 0.774140000
vn -0.540640000 0.000000000 0.841250000
vn -0.441220000 0.000000000 0.897400000
vn -0.336050000 0.000000000 0.941840000
vn -0.226500000 0.000000000 0.974010000
vn -0.113990000 0.000000000 0.993480000
vn -0.028560000 0.000000000 0.999590000
vn -0.028560000 0.000000000 0.999590000
vn 0.028560000 -0.000000000 0.999590000
vn 0.028560000 -0.000000000 0.999590000
vn 0.113990000 -0.000000000 0.993480000
vn 0.226500000 -0.000000000 0.974010000
vn 0.336050000 -0.000000000 0.941840000
vn 0.441220000 -0.000000000 0.897400000
vn 0.540640000 -0.000000000 0.841250000
vn 0.633010000 -0.000000000 0.774140000
vn 0.717130000 -0.000000000 0.696940000
vn 0.791900000 -0.000000000 0.610650000
vn 0.856350000 -0.000000000 0.516400000
vn 0.909630000 -0.000000000 0.415410000
vn 0.951060000 -0.000000000 0.309020000
vn 0.980080000 -0.000000000 0.198590000
vn 0.996330000 -0.000000000 0.085570000
vn 0.999590000 -0.000000000 -0.028560000
vn 0.989820000 -0.000000000 -0.142310000
vn 0.967150000 -0.000000000 -0.254220000
vn 0.931860000 -0.000000000 -0.362810000
vn 0.884430000 -0.000000000 -0.466670000
vn 0.825470000 -0.000000000 -0.564440000
vn 0.755750000 -0.000000000 -0.654860000
vn 0.676170000 -0.000000000 -0.736740000
vn 0.587790000 -0.000000000 -0.809020000
vn 0.491730000 -0.000000000 -0.870750000
vn 0.389270000 -0.000000000 -0.921120000
vn 0.281730000 -0.000000000 -0.959490000
vn 0.170520000 -0.000000000 -0.985350000
vn 0.057090000 -0.000000000 -0.998370000
f 1//1 2//1 3//1
f 3//1 2//1 4//1
f 3//1 4//1 5//1
f 5//1 4//1 6//1
f 5//1 6//1 7//1
f 7//1 6//1 8//1
f 7//1 8//1 9//1
f 9//1 8//1 10//1
f 9//1 10//1 11//1
f 11//1 10//1 12//1
f 11//1 12//1 13//1
f 13//1 12//1 14//1
f 13//1 14//1 15//1
f 15//1 14//1 16//1
f 15//1 16//1 17//1
f 17//1 16//1 18//1
f 17//1 18//1 19//1
f 19//1 18//1 20//1
f 19//1 20//1 21//1
f 21//1 20//1 22//1
f 21//1 22//1 23//1
f 23//1 22//1 24//1
f 23//1 24//1 25//1
f 25//1 24//1 26//1
f 25//1 26//1 27//1
f 27//1 26//1 28//1
f 27//1 28//1 29//1
f 30//1 31//1 32//1
f 32//1 31//1 33//1
f 32//1 33//1 34//1
f 34//1 33//1 35//1
f 34//1 35//1 36//1
f 36//1 35//1 37//1
f 36//1 37//1 38//1
f 38//1 37//1 39//1
f 38//1 39//1 40//1
f 40//1 39//1 41//1
f 40//1 41//1 42//1
f 42//1 41//1 43//1
f 42//1 43//1 44//1
f 44//1 43//1 45//1
f 44//1 45//1 46//1
f 46//1 45//1 47//1
f 46//1 47//1 48//1
f 48//1 47//1 49//1
f 48//1 49//1 50//1
f 50//1 49//1 51//1
f 50//1 51//1 52//1
f 52//1 51//1 53//1
f 52//1 53//1 54//1
f 54//1 53//1 55//1
f 54//1 55//1 1//1
f 1//1 55//1 56//1
f 1//1 56//1 2//1
f 57//1 58//1 59//1
f 59//1 58//1 60//1
f 59//1 60//1 61//1
f 61//1 60//1 62//1
f 61//1 62//1 63//1
f 63//1 62//1 64//1
f 63//1 64//1 65//1
f 65//1 64//1 66//1
f 65//1 66//1 67//1
f 67//1 66//1 68//1
f 67//1 68//1 69//1
f 69//1 68//1 70//1
f 69//1 70//1 71//1
f 71//1 70//1 72//1
f 71//1 72//1 73//1
f 73//1 72//1 74//1
f 73//1 74//1 75//1
f 75//1 74//1 76//1
f 75//1 76//1 77//1
f 77//1 76//1 78//1
f 77//1 78//1 79//1
f 79//1 78//1 80//1
f 79//1 80//1 81//1
f 81//1 80//1 82//1
f 81//1 82//1 83//1
f 83//1 82//1 84//1
f 83//1 84//1 30//1
f 30//1 84//1 85//1
f 30//1 85//1 31//1
f 28//1 86//1 29//1
f 29//1 86//1 87//1
f 29//1 87//1 88//1
f 88//1 87//1 89//1
f 88//1 89//1 90//1
f 90//1 89//1 91//1
f 90//1 91//1 92//1
f 92//1 91//1 93//1
f 92//1 93//1 94//1
f 94//1 93//1 95//1
f 94//1 95//1 96//1
f 96//1 95//1 97//1
f 96//1 97//1 98//1
f 98//1 97//1 99//1
f 98//1 99//1 100//1
f 100//1 99//1 101//1
f 100//1 101//1 102//1
f 102//1 101//1 103//1
f 102//1 103//1 104//1
f 104//1 103//1 105//1
f 104//1 105//1 106//1
f 106//1 105//1 107//1
f 106//1 107//1 108//1
f 108//1 107//1 109//1
f 108//1 109//1 110//1
f 110//1 109//1 111//1
f 110//1 111//1 112//1
f 112//1 111//1 113//1
f 112//1 113//1 114//1
f 114//1 113//1 115//1
f 114//1 115//1 57//1
f 57//1 115//1 116//1
f 57//1 116//1 58//1
f 117//2 118//2 119//2
f 119//2 118//2 120//2
f 119//2 120//2 121//2
f 121//2 120//2 122//2
f 121//2 122//2 123//2
f 123//2 122//2 124//2
f 123//2 124//2 125//2
f 125//2 124//2 126//2
f 125//2 126//2 127//2
f 127//2 126//2 128//2
f 127//2 128//2 129//2
f 129//2 128//2 130//2
f 129//2 130//2 131//2
f 131//2 130//2 132//2
f 131//2 132//2 133//2
f 133//2 132//2 134//2
f 133//2 134//2 135//2
f 135//2 134//2 136//2
f 135//2 136//2 137//2
f 137//2 136//2 138//2
f 137//2 138//2 139//2
f 139//2 138//2 140//2
f 139//2 140//2 141//2
f 141//2 140//2 142//2
f 141//2 142//2 143//2
f 143//2 142//2 144//2
f 143//2 144//2 145//2
f 146//2 147//2 148//2
f 148//2 147//2 149//2
f 148//2 149//2 150//2
f 150//2 149//2 151//2
f 150//2 151//2 152//2
f 152//2 151//2 153//2
f 152//2 153//2 154//2
f 154//2 153//2 155//2
f 154//2 155//2 156//2
f 156//2 155//2 157//2
f 156//2 157//2 158//2
f 158//2 157//2 159//2
f 158//2 159//2 160//2
f 160//2 159//2 161//2
f 160//2 161//2 162//2
f 162//2 161//2 163//2
f 162//2 163//2 164//2
f 164//2 163//2 165//2
f 164//2 165//2 166//2
f 166//2 165//2 167//2
f 166//2 167//2 168//2
f 168//2 167//2 169//2
f 168//2 169//2 170//2
f 170//2 169//2 171//2
f 170//2 171//2 117//2
f 117//2 171//2 172//2
f 117//2 172//2 118//2
f 173//2 174//2 175//2
f 175//2 174//2 176//2
f 175//2 176//2 177//2
f 177//2 176//2 178//2
f 177//2 178//2 179//2
f 179//2 178//2 180//2
f 179//2 180//2 181//2
f 181//2 180//2 182//2
f 181//2 182//2 183//2
f 183//2 182//2 184//2
f 183//2 184//2 185//2
f 185//2 184//2 186//2
f 185//2 186//2 187//2
f 187//2 186//2 188//2
f 187//2 188//2 189//2
f 189//2 188//2 190//2
f 189//2 190//2 191//2
f 191//2 190//2 192//2
f 191//2 192//2 193//2
f 193//2 192//2 194//2
f 193//2 194//2 195//2
f 195//2 194//2 196//2
f 195//2 196//2 197//2
f 197//2 196//2 198//2
f 197//2 198//2 199//2
f 199//2 198//2 200//2
f 199//2 200//2 146//2
f 146//2 200//2 201//2
f 146//2 201//2 147//2
f 144//2 202//2 145//2
f 145//2 202//2 203//2
f 145//2 203//2 204//2
f 204//2 203//2 205//2
f 204//2 205//2 206//2
f 206//2 205//2 207//2
f 206//2 207//2 208//2
f 208//2 207//2 209//2
f 208//2 209//2 210//2
f 210//2 209//2 211//2
f 210//2 211//2 212//2
f 212//2 211//2 213//2
f 212//2 213//2 214//2
f 214//2 213//2 215//2
f 214//2 215//2 216//2
f 216//2 215//2 217//2
f 216//2 217//2 218//2
f 218//2 217//2 219//2
f 218//2 219//2 220//2
f 220//2 219//2 221//2
f 220//2 221//2 222//2
f 222//2 221//2 223//2
f 222//2 223//2 224//2
f 224//2 223//2 225//2
f 224//2 225//2 226//2
f 226//2 225//2 227//2
f 226//2 227//2 228//2
f 228//2 227//2 229//2
f 228//2 229//2 230//2
f 230//2 229//2 231//2
f 230//2 231//2 173//2
f 173//2 231//2 232//2
f 173//2 232//2 174//2
f 105//3 103//3 233//3
f 233//4 103//4 234//4
f 103//5 101//5 234//5
f 234//6 101//6 99//6
f 234//6 99//6 235//6
f 235//7 99//7 97//7
f 235//7 97//7 236//7
f 236//8 97//8 95//8
f 236//8 95//8 237//8
f 237//9 95//9 93//9
f 237//9 93//9 238//9
f 238//10 93//10 91//10
f 238//10 91//10 239//10
f 239//11 91//11 89//11
f 239//11 89//11 240//11
f 240//12 89//12 87//12
f 240//12 87//12 241//12
f 241//13 87//13 86//13
f 241//13 86//13 242//13
f 242//14 86//14 28//14
f 242//14 28//14 243//14
f 243//15 28//15 26//15
f 243//15 26//15 244//15
f 244//16 26//16 24//16
f 244//16 24//16 245//16
f 245//17 24//17 22//17
f 245//17 22//17 246//17
f 246//18 22//18 20//18
f 246//18 20//18 247//18
f 247//19 20//19 18//19
f 247//19 18//19 248//19
f 248//20 18//20 16//20
f 248//20 16//20 249//20
f 249//21 16//21 14//21
f 249//21 14//21 250//21
f 250//22 14//22 12//22
f 250//22 12//22 251//22
f 251//23 12//23 10//23
f 251//23 10//23 252//23
f 252//24 10//24 8//24
f 252//24 8//24 253//24
f 253//25 8//25 6//25
f 253//25 6//25 254//25
f 254//26 6//26 4//26
f 254//26 4//26 255//26
f 255//27 4//27 2//27
f 255//27 2//27 256//27
f 256//28 2//28 56//28
f 256//28 56//28 257//28
f 257//29 56//29 55//29
f 257//29 55//29 258//29
f 258//30 55//30 53//30
f 258//30 53//30 259//30
f 259//31 53//31 51//31
f 259//31 51//31 260//31
f 260//32 51//32 49//32
f 260//32 49//32 261//32
f 261//33 49//33 47//33
f 261//33 47//33 262//33
f 262//34 47//34 45//34
f 262//34 45//34 263//34
f 263//35 45//35 43//35
f 263//35 43//35 264//35
f 264//36 43//36 41//36
f 264//36 41//36 265//36
f 265//37 41//37 39//37
f 265//37 39//37 266//37
f 266//38 39//38 37//38
f 266//38 37//38 267//38
f 267//39 37//39 35//39
f 267//39 35//39 268//39
f 268//40 35//40 33//40
f 268//40 33//40 269//40
f 269//41 33//41 31//41
f 269//41 31//41 270//41
f 270//42 31//42 85//42
f 270//42 85//42 271//42
f 271//43 85//43 84//43
f 271//43 84//43 272//43
f 272//44 84//44 82//44
f 272//44 82//44 273//44
f 273//45 82//45 80//45
f 273//45 80//45 274//45
f 274//46 80//46 78//46
f 274//46 78//46 275//46
f 275//47 78//47 76//47
f 275//47 76//47 276//47
f 276//48 76//48 74//48
f 276//48 74//48 277//48
f 277//49 74//49 72//49
f 277//49 72//49 278//49
f 278//50 72//50 70//50
f 278//50 70//50 279//50
f 279//51 70//51 68//51
f 279//51 68//51 280//51
f 280//52 68//52 66//52
f 280//52 66//52 281//52
f 281//53 66//53 64//53
f 281//53 64//53 282//53
f 282//54 64//54 62//54
f 282//54 62//54 283//54
f 283//55 62//55 60//55
f 283//55 60//55 284//55
f 284//56 60//56 58//56
f 284//56 58//56 285//56
f 285//57 58//57 116//57
f 285//57 116//57 286//57
f 286//58 116//58 115//58
f 286//58 115//58 287//58
f 287//59 115//59 113//59
f 287//59 113//59 288//59
f 288//60 113//60 111//60
f 288//60 111//60 289//60
f 289//61 111//61 109//61
f 289//61 109//61 290//61
f 290//62 109//62 107//62
f 290//62 107//62 291//62
f 291//63 107//63 105//63
f 291//63 105//63 292//63
f 292//64 105//64 233//64
f 44//65 293//65 42//65
f 42//65 293//65 294//65
f 42//66 294//66 40//66
f 40//66 294//66 295//66
f 40//67 295//67 38//67
f 38//67 295//67 296//67
f 38//68 296//68 36//68
f 36//68 296//68 297//68
f 36//69 297//69 34//69
f 34//69 297//69 298//69
f 34//70 298//70 32//70
f 32//70 298//70 299//70
f 32//71 299//71 30//71
f 30//71 299//71 300//71
f 30//72 300//72 83//72
f 83//72 300//72 301//72
f 83//73 301//73 81//73
f 81//73 301//73 302//73
f 81//74 302//74 79//74
f 79//74 302//74 303//74
f 79//75 303//75 77//75
f 77//75 303//75 304//75
f 77//76 304//76 75//76
f 75//76 304//76 305//76
f 75//77 305//77 73//77
f 73//77 305//77 306//77
f 73//78 306//78 71//78
f 71//78 306//78 307//78
f 71//79 307//79 69//79
f 69//79 307//79 308//79
f 69//80 308//80 67//80
f 67//80 308//80 309//80
f 67//81 309//81 65//81
f 65//81 309//81 310//81
f 65//82 310//82 63//82
f 63//82 310//82 311//82
f 63//83 311//83 61//83
f 61//83 311//83 312//83
f 61//84 312//84 59//84
f 59//84 312//84 313//84
f 59//85 313//85 57//85
f 57//85 313//85 314//85
f 57//86 314//86 114//86
f 114//86 314//86 315//86
f 114//87 315//87 112//87
f 112//87 315//87 316//87
f 112//88 316//88 110//88
f 110//88 316//88 317//88
f 110//89 317//89 108//89
f 108//89 317//89 318//89
f 108//90 318//90 106//90
f 106//90 318//90 319//90
f 106//91 319//91 104//91
f 104//91 319//91 320//91
f 104//92 320//92 102//92
f 102//93 320//93 321//93
f 102//94 321//94 100//94
f 100//95 321//95 322//95
f 100//96 322//96 98//96
f 98//96 322//96 323//96
f 98//97 323//97 96//97
f 96//97 323//97 324//97
f 96//98 324//98 94//98
f 94//98 324//98 325//98
f 94//99 325//99 92//99
f 92//99 325//99 326//99
f 92//100 326//100 90//100
f 90//100 326//100 327//100
f 90//101 327//101 88//101
f 88//101 327//101 328//101
f 88//102 328//102 29//102
f 29//102 328//102 329//102
f 29//103 329//103 27//103
f 27//103 329//103 330//103
f 27//104 330//104 25//104
f 25//104 330//104 331//104
f 25//105 331//105 23//105
f 23//105 331//105 332//105
f 23//106 332//106 21//106
f 21//106 332//106 333//106
f 21//107 333//107 19//107
f 19//107 333//107 334//107
f 19//108 334//108 17//108
f 17//108 334//108 335//108
f 17//109 335//109 15//109
f 15//109 335//109 336//109
f 15//110 336//110 13//110
f 13//110 336//110 337//110
f 13//111 337//111 11//111
f 11//111 337//111 338//111
f 11//112 338//112 9//112
f 9//112 338//112 339//112
f 9//113 339//113 7//113
f 7//113 339//113 340//113
f 7//114 340//114 5//114
f 5//114 340//114 341//114
f 5//115 341//115 3//115
f 3//115 341//115 342//115
f 3//116 342//116 1//116
f 1//116 342//116 343//116
f 1//117 343//117 54//117
f 54//117 343//117 344//117
f 54//118 344//118 52//118
f 52//118 344//118 345//118
f 52//119 345//119 50//119
f 50//119 345//119 346//119
f 50//120 346//120 48//120
f 48//120 346//120 347//120
f 48//121 347//121 46//121
f 46//121 347//121 348//121
f 46//122 348//122 44//122
f 44//122 348//122 293//122
# Vertices: 348, normals: 122, texture coordinates: 0, faces: 464

