# Created by Open3D 
# object name: part_039
# number of vertices: 132
# number of triangles: 260
v 0.0344719 -0.025696 0.0535014
vn 0.515012 -0.47027 -0.716665
v 0.0172423 -0.025696 0.061025
vn -0.909499 -0.228425 -0.347323
v 0.0172423 -7.92906e-05 0.0612153
vn -0.596187 0.498849 -0.629056
v 0.0344719 -7.92906e-05 0.0547306
vn 0.518392 0.546681 -0.657579
v 0.0344719 -0.025696 0.0709039
vn 0.929201 -0.369567 0.00233839
v 0.0172423 -0.025696 0.0780627
vn -0.377628 -0.925384 0.0325771
v 0.0172423 -7.92906e-05 0.0798656
vn -0.977417 0.21131 0.00184379
v 0.0344719 -7.92906e-05 0.0747979
vn 0.816509 0.577332 1.10356e-05
v 0.0344719 -0.0255857 0.0709383
vn 0.999997 -0.000765972 0.00251655
v 0.034428 -0.025696 0.0709277
vn 0.0453142 -0.995216 0.0865539
v 0.0186861 -0.025696 0.0777613
vn 0.149436 -0.820199 0.552217
v 0.0172423 -0.0177347 0.0799291
vn -0.983591 -0.0404586 0.17582
v 0.0172423 -0.000242278 0.0798947
vn -0.968489 0.0431004 0.245297
v 0.0228135 -7.92906e-05 0.0785201
vn 0.0248055 0.994475 0.102002
v 0.0335442 -7.92906e-05 0.0751839
vn 0.000146767 1 0.000365443
v 0.0344719 -8.68129e-05 0.0748799
vn 0.981811 0.0271785 0.187908
v 0.0344719 -0.0241414 0.0713771
vn 0.970853 -0.0669724 0.230129
v 0.0343825 -0.025696 0.0709515
vn 0.0440264 -0.995273 0.0865589
v 0.0202446 -0.025696 0.0772644
vn 0.00128006 -0.999991 0.003929
v 0.0202767 -0.0256208 0.0772723
vn 0.318588 -0.215038 0.92318
v 0.0202683 -0.0177924 0.0790831
vn 0.294733 -0.2099 0.932242
v 0.0186861 -0.0177924 0.0795563
vn 0.259374 -0.210877 0.942473
v 0.0175257 -0.0165938 0.0801115
vn 0.23799 -0.199337 0.950592
v 0.0172423 -0.0172532 0.0800348
vn -0.999857 -0.00352895 0.0165272
v 0.0172423 -0.000425327 0.0799264
vn -0.968259 0.0423416 0.246335
v 0.0233633 -7.92906e-05 0.0783852
vn 0.0156039 0.998085 0.0598598
v 0.0172423 -0.00047297 0.0799344
vn -0.967147 0.0387437 0.251249
v 0.0172423 -0.00126534 0.080056
vn -0.96276 0.0405199 0.267303
v 0.0174667 -0.00197998 0.0801088
vn 0.23979 0.122259 0.963096
v 0.0326486 -7.92906e-05 0.0755302
vn 0.000140818 1 0.000372944
v 0.0344719 -0.000397744 0.0748984
vn 0.686086 -0.0246282 0.727103
v 0.0315489 -7.92906e-05 0.0759373
vn 0.0138442 0.999172 0.0382507
v 0.0313363 -0.000397744 0.0760377
vn 0.330476 -0.00503596 0.943801
v 0.0344719 -0.0237778 0.0714723
vn 0.998455 -0.0139471 0.0537885
v 0.0335037 -0.0229052 0.0721966
vn 0.409892 -0.202783 0.889307
v 0.0331833 -0.0241188 0.0720248
vn 0.431337 -0.238916 0.869981
v 0.0321594 -0.0249663 0.0722971
vn 0.394132 -0.231698 0.889368
v 0.0319385 -0.025696 0.072194
vn 0.0515028 -0.993371 0.102769
v 0.0203577 -0.025696 0.0772168
vn 0.0173973 -0.999033 0.0403889
v 0.0211369 -0.0250416 0.0770661
vn 0.384096 -0.223368 0.895867
v 0.0213224 -0.0177924 0.078721
vn 0.349395 -0.207308 0.913754
v 0.0202683 -0.0162101 0.0794056
vn 0.313067 -0.155374 0.936936
v 0.0185765 -0.0161249 0.0799317
vn 0.272805 -0.19024 0.943073
v 0.017976 -0.0155381 0.0802119
vn 0.259583 -0.126263 0.957431
v 0.0172423 -0.0163204 0.0802172
vn -0.998126 -0.0108513 0.0602218
v 0.0172423 -0.0167442 0.0801406
vn -0.999861 -0.00320126 0.016371
v 0.0227629 -0.000929337 0.078639
vn 0.250968 0.0997296 0.962844
v 0.0233465 -0.000400253 0.0784275
vn 0.272885 0.0961204 0.957233
v 0.0288063 -7.92906e-05 0.0768308
vn 0.028793 0.994566 0.10005
v 0.0172423 -0.00197998 0.0801485
vn -0.999673 0.00236837 0.025447
v 0.0177652 -0.0031535 0.080167
vn 0.247379 0.0879826 0.964916
v 0.0321257 -0.00907875 0.0754456
vn 0.359828 -0.0447978 0.931942
v 0.0344719 -0.0035873 0.0747609
vn 0.993927 -0.00484834 0.109938
v 0.0218487 -0.0114684 0.0792629
vn 0.349594 -0.0324647 0.936339
v 0.0313363 -7.92906e-05 0.076014
vn 0.00554462 0.999853 0.0162092
v 0.0297559 -7.92906e-05 0.0765506
vn 0.0842778 0.956542 0.279149
v 0.0297559 -0.000397744 0.0765691
vn 0.307412 0.0226806 0.951306
v 0.0239857 -0.00514196 0.0785359
vn 0.310775 0.0127141 0.950398
v 0.0202683 -0.0114684 0.079818
vn 0.318038 -0.00337116 0.948072
v 0.0344719 -0.0224388 0.0718186
vn 0.998973 -0.0112829 0.0438848
v 0.0291504 -0.0236374 0.073952
vn 0.390342 -0.224329 0.892922
v 0.0343673 -0.0224413 0.0718715
vn 0.434961 -0.190828 0.879997
v 0.0337517 -0.0218495 0.0723024
vn 0.433113 -0.187977 0.88152
v 0.0329184 -0.0130481 0.0745864
vn 0.423964 -0.184017 0.886787
v 0.0300899 -0.0162101 0.0752526
vn 0.404723 -0.181609 0.896224
v 0.0296598 -0.0177572 0.0751099
vn 0.400879 -0.204692 0.892971
v 0.0280641 -0.0208891 0.0750887
vn 0.393167 -0.209182 0.895356
v 0.0281738 -0.0225366 0.0746499
vn 0.387213 -0.215629 0.896421
v 0.0312722 -0.025696 0.0724874
vn 0.0332997 -0.996498 0.0766956
v 0.0209328 -0.025696 0.0769683
vn 0.0159307 -0.999197 0.0367656
v 0.0221135 -0.0177924 0.0783852
vn 0.386953 -0.205533 0.898901
v 0.0216817 -0.0162101 0.0788769
vn 0.382545 -0.152519 0.911261
v 0.0202683 -0.0146304 0.0796118
vn 0.329363 -0.104471 0.938406
v 0.018902 -0.0146304 0.0800348
vn 0.28029 -0.0779373 0.956746
v 0.018111 -0.0146304 0.0802463
vn 0.220562 -0.0508568 0.974046
v 0.0172423 -0.0146304 0.0804208
vn -0.998293 -0.00404525 0.0582653
v 0.0172423 -0.015997 0.0802754
vn -0.999155 -0.00491528 0.04081
v 0.0237175 -0.00197998 0.0784751
vn 0.271343 0.0738863 0.959643
v 0.0172423 -0.00358479 0.080286
vn -0.99908 0.00312068 0.0427747
v 0.0179271 -0.00420916 0.0801987
vn 0.232306 0.0533806 0.971177
v 0.0185478 -0.00363243 0.0799925
vn 0.257524 0.0684616 0.963844
v 0.0202683 -0.00356222 0.0795273
vn 0.25974 0.0695708 0.963169
v 0.0320228 -0.00988617 0.0754112
vn 0.371827 -0.0941809 0.923512
v 0.0329184 -0.00988617 0.0750411
vn 0.392497 -0.0954904 0.914783
v 0.0344719 -0.00830894 0.0745151
vn 0.986996 -0.0148857 0.160054
v 0.0344719 -0.00675178 0.0746182
vn 0.993846 -0.00575978 0.11062
v 0.0218487 -0.0130481 0.0791677
vn 0.362982 -0.0782678 0.928503
v 0.0202683 -0.0130481 0.079744
vn 0.314616 -0.0613889 0.947232
v 0.0238963 -0.00356222 0.0785174
vn 0.291379 0.0439615 0.955597
v 0.0218487 -0.00514196 0.0791968
vn 0.280857 0.0371026 0.959032
v 0.0202683 -0.00988617 0.0797995
vn 0.285033 0.0223655 0.958257
v 0.0191601 -0.0114684 0.0801247
vn 0.231298 -0.00624739 0.972863
v 0.019064 -0.0130481 0.080093
vn 0.258934 -0.0472187 0.96474
v 0.0344719 -0.022015 0.0719111
vn 0.999042 -0.00913914 0.0428013
v 0.0344719 -0.021195 0.0720856
vn 0.992607 -0.0251692 0.118732
v 0.03403 -0.0130481 0.0740339
vn 0.445509 -0.182253 0.87653
v 0.0343268 -0.0114684 0.074182
vn 0.434314 -0.15023 0.888145
v 0.0329184 -0.0114684 0.0748587
vn 0.401627 -0.130376 0.906475
v 0.0315101 -0.0130481 0.0752077
vn 0.389937 -0.151351 0.908318
v 0.0303597 -0.0149413 0.0753663
vn 0.392344 -0.163355 0.905197
v 0.0281738 -0.0146304 0.0763682
vn 0.390357 -0.162449 0.906218
v 0.0290694 -0.0172056 0.0754879
vn 0.391427 -0.192936 0.899756
v 0.0287945 -0.0182587 0.0753769
vn 0.390588 -0.203878 0.897705
v 0.0272326 -0.0133315 0.0769762
vn 0.379333 -0.121721 0.917219
v 0.0219921 -0.0147332 0.0789351
vn 0.369308 -0.103699 0.923503
v 0.0182729 -0.0130481 0.0802754
vn 0.212585 -0.0329772 0.976586
v 0.0172423 -0.0130481 0.0804895
vn -0.988326 -0.00503778 0.152268
v 0.0218487 -0.00356222 0.0790964
vn 0.26473 0.0635704 0.962225
v 0.0172423 -0.00368008 0.0802912
vn -0.999426 0.00165915 0.0338356
v 0.0172423 -0.00498649 0.0803547
vn -0.999417 0.00141644 0.0341072
v 0.0172423 -0.00648097 0.0804076
vn -0.983859 0.00508499 0.178874
v 0.018003 -0.00514196 0.0802172
vn 0.239433 0.035634 0.970259
v 0.0202683 -0.00514196 0.079633
vn 0.255604 0.04581 0.965696
v 0.0317867 -0.0114684 0.0753319
vn 0.377928 -0.107191 0.919609
v 0.0273878 -0.0122783 0.0770291
vn 0.370925 -0.0960856 0.923679
v 0.0344719 -0.0101344 0.0743036
vn 0.995122 -0.0124439 0.0978604
v 0.0202683 -0.0067242 0.0796912
vn 0.263621 0.0338428 0.964033
v 0.0191129 -0.00988617 0.0801115
vn 0.243176 0.0314741 0.969471
v 0.0183218 -0.00988617 0.0802754
vn 0.19426 0.0190724 0.980765
v 0.018369 -0.0114684 0.0802833
vn 0.195999 0.000331 0.980604
v 0.0172423 -0.0128776 0.0804922
vn -0.994908 -0.00121217 0.100776
v 0.0344719 -0.0130481 0.073796
vn 0.999681 -0.00517967 0.0247064
v 0.0344719 -0.0124062 0.0739282
vn 0.999457 -0.00631226 0.0323528
v 0.0344719 -0.0107788 0.074211
vn 0.999969 -0.00113726 0.00779625
v 0.0344719 -0.0114684 0.0741053
vn 0.999966 -0.00150307 0.0080479
v 0.0344719 -0.0113305 0.0741291
vn 0.999969 -0.00120245 0.0078411
v 0.0172423 -0.0067242 0.0804128
vn -0.998485 0.00119491 0.0550095
v 0.0181042 -0.0067242 0.080241
vn 0.201487 0.0255428 0.979158
v 0.0172423 -0.00830644 0.0804472
vn -0.998483 0.00115053 0.0550459
v 0.0172423 -0.00988617 0.0804789
vn -0.99848 0.00107495 0.0551078
v 0.0172423 -0.0112879 0.0805054
vn -0.998477 0.00101377 0.0551579
v 0.0172423 -0.0114684 0.080508
vn -0.993046 0.000149536 0.117724
f 1//1 2//2 3//3
f 1//1 3//3 4//4
f 1//1 4//4 8//8
f 1//1 8//8 16//16
f 1//1 16//16 31//31
f 1//1 31//31 53//53
f 1//1 53//53 86//86
f 1//1 86//86 85//85
f 1//1 85//85 116//116
f 1//1 116//116 124//124
f 1//1 124//124 126//126
f 1//1 126//126 125//125
f 1//1 125//125 123//123
f 1//1 123//123 122//122
f 1//1 122//122 95//95
f 1//1 95//95 94//94
f 1//1 94//94 60//60
f 1//1 60//60 34//34
f 1//1 34//34 17//17
f 1//1 17//17 9//9
f 1//1 9//9 5//5
f 1//1 5//5 10//10
f 1//1 10//10 18//18
f 1//1 18//18 38//38
f 1//1 38//38 69//69
f 1//1 69//69 70//70
f 1//1 70//70 39//39
f 1//1 39//39 19//19
f 1//1 19//19 11//11
f 1//1 11//11 6//6
f 1//1 6//6 2//2
f 2//2 6//6 12//12
f 2//2 12//12 24//24
f 2//2 24//24 46//46
f 2//2 46//46 45//45
f 2//2 45//45 77//77
f 2//2 77//77 76//76
f 2//2 76//76 107//107
f 2//2 107//107 121//121
f 2//2 121//121 132//132
f 2//2 132//132 131//131
f 2//2 131//131 130//130
f 2//2 130//130 129//129
f 2//2 129//129 127//127
f 2//2 127//127 111//111
f 2//2 111//111 110//110
f 2//2 110//110 109//109
f 2//2 109//109 79//79
f 2//2 79//79 50//50
f 2//2 50//50 28//28
f 2//2 28//28 27//27
f 2//2 27//27 25//25
f 2//2 25//25 13//13
f 2//2 13//13 7//7
f 2//2 7//7 3//3
f 3//3 7//7 14//14
f 3//3 14//14 26//26
f 3//3 26//26 49//49
f 3//3 49//49 56//56
f 3//3 56//56 55//55
f 3//3 55//55 32//32
f 3//3 32//32 30//30
f 3//3 30//30 15//15
f 3//3 15//15 8//8
f 3//3 8//8 4//4
f 5//5 9//9 10//10
f 6//6 11//11 12//12
f 7//7 13//13 14//14
f 8//8 15//15 16//16
f 9//9 17//17 10//10
f 10//10 17//17 18//18
f 11//11 19//19 20//20
f 11//11 20//20 21//21
f 11//11 21//21 22//22
f 11//11 22//22 12//12
f 12//12 22//22 23//23
f 12//12 23//23 24//24
f 13//13 25//25 14//14
f 14//14 25//25 27//27
f 14//14 27//27 28//28
f 14//14 28//28 29//29
f 14//14 29//29 26//26
f 15//15 30//30 16//16
f 16//16 30//30 32//32
f 16//16 32//32 33//33
f 16//16 33//33 31//31
f 17//17 34//34 35//35
f 17//17 35//35 36//36
f 17//17 36//36 37//37
f 17//17 37//37 38//38
f 17//17 38//38 18//18
f 19//19 39//39 20//20
f 20//20 39//39 40//40
f 20//20 40//40 41//41
f 20//20 41//41 21//21
f 21//21 41//41 42//42
f 21//21 42//42 43//43
f 21//21 43//43 22//22
f 22//22 43//43 23//23
f 23//23 44//44 45//45
f 23//23 45//45 46//46
f 23//23 46//46 24//24
f 23//23 43//43 44//44
f 26//26 29//29 47//47
f 26//26 47//47 48//48
f 26//26 48//48 49//49
f 28//28 50//50 29//29
f 29//29 50//50 51//51
f 29//29 51//51 47//47
f 31//31 52//52 53//53
f 31//31 33//33 54//54
f 31//31 54//54 52//52
f 32//32 55//55 33//33
f 33//33 55//55 56//56
f 33//33 56//56 57//57
f 33//33 57//57 58//58
f 33//33 58//58 59//59
f 33//33 59//59 54//54
f 34//34 60//60 35//35
f 35//35 61//61 37//37
f 35//35 37//37 36//36
f 35//35 60//60 62//62
f 35//35 62//62 63//63
f 35//35 63//63 64//64
f 35//35 64//64 65//65
f 35//35 65//65 66//66
f 35//35 66//66 67//67
f 35//35 67//67 68//68
f 35//35 68//68 61//61
f 37//37 69//69 38//38
f 37//37 61//61 40//40
f 37//37 40//40 69//69
f 39//39 70//70 40//40
f 40//40 71//71 41//41
f 40//40 70//70 69//69
f 40//40 61//61 68//68
f 40//40 68//68 71//71
f 41//41 72//72 42//42
f 41//41 71//71 72//72
f 42//42 72//72 73//73
f 42//42 73//73 44//44
f 42//42 44//44 43//43
f 44//44 73//73 74//74
f 44//44 74//74 75//75
f 44//44 75//75 76//76
f 44//44 76//76 77//77
f 44//44 77//77 45//45
f 47//47 78//78 48//48
f 47//47 51//51 78//78
f 48//48 78//78 49//49
f 49//49 78//78 56//56
f 50//50 79//79 51//51
f 51//51 79//79 80//80
f 51//51 80//80 81//81
f 51//51 81//81 82//82
f 51//51 82//82 78//78
f 52//52 83//83 84//84
f 52//52 84//84 85//85
f 52//52 85//85 86//86
f 52//52 86//86 53//53
f 52//52 54//54 87//87
f 52//52 87//87 83//83
f 54//54 59//59 88//88
f 54//54 88//88 87//87
f 56//56 78//78 89//89
f 56//56 89//89 57//57
f 57//57 89//89 58//58
f 58//58 89//89 90//90
f 58//58 90//90 91//91
f 58//58 91//91 59//59
f 59//59 91//91 92//92
f 59//59 92//92 93//93
f 59//59 93//93 88//88
f 60//60 94//94 62//62
f 62//62 94//94 63//63
f 63//63 94//94 95//95
f 63//63 95//95 64//64
f 64//64 95//95 96//96
f 64//64 96//96 97//97
f 64//64 97//97 98//98
f 64//64 98//98 99//99
f 64//64 99//99 65//65
f 65//65 99//99 100//100
f 65//65 100//100 101//101
f 65//65 101//101 72//72
f 65//65 72//72 71//71
f 65//65 71//71 102//102
f 65//65 102//102 66//66
f 66//66 102//102 103//103
f 66//66 103//103 67//67
f 67//67 103//103 71//71
f 67//67 71//71 68//68
f 71//71 103//103 102//102
f 72//72 104//104 105//105
f 72//72 105//105 73//73
f 72//72 101//101 99//99
f 72//72 99//99 104//104
f 73//73 105//105 87//87
f 73//73 87//87 88//88
f 73//73 88//88 74//74
f 74//74 93//93 75//75
f 74//74 88//88 93//93
f 75//75 106//106 107//107
f 75//75 107//107 76//76
f 75//75 93//93 106//106
f 78//78 82//82 108//108
f 78//78 108//108 90//90
f 78//78 90//90 89//89
f 79//79 109//109 80//80
f 80//80 109//109 110//110
f 80//80 110//110 111//111
f 80//80 111//111 112//112
f 80//80 112//112 113//113
f 80//80 113//113 82//82
f 80//80 82//82 81//81
f 82//82 113//113 108//108
f 83//83 114//114 84//84
f 83//83 87//87 115//115
f 83//83 115//115 104//104
f 83//83 104//104 114//114
f 84//84 114//114 98//98
f 84//84 98//98 85//85
f 85//85 98//98 116//116
f 87//87 105//105 115//115
f 90//90 108//108 113//113
f 90//90 113//113 117//117
f 90//90 117//117 91//91
f 91//91 117//117 118//118
f 91//91 118//118 92//92
f 92//92 118//118 119//119
f 92//92 119//119 120//120
f 92//92 120//120 121//121
f 92//92 121//121 107//107
f 92//92 107//107 106//106
f 92//92 106//106 93//93
f 95//95 122//122 96//96
f 96//96 122//122 123//123
f 96//96 123//123 97//97
f 97//97 124//124 116//116
f 97//97 116//116 98//98
f 97//97 123//123 125//125
f 97//97 125//125 126//126
f 97//97 126//126 124//124
f 98//98 114//114 104//104
f 98//98 104//104 99//99
f 99//99 101//101 100//100
f 104//104 115//115 105//105
f 111//111 127//127 119//119
f 111//111 119//119 128//128
f 111//111 128//128 112//112
f 112//112 128//128 118//118
f 112//112 118//118 113//113
f 113//113 118//118 117//117
f 118//118 128//128 119//119
f 119//119 127//127 129//129
f 119//119 129//129 130//130
f 119//119 130//130 131//131
f 119//119 131//131 132//132
f 119//119 132//132 120//120
f 120//120 132//132 121//121
