# Created by Open3D 
# object name: part_008
# number of vertices: 271
# number of triangles: 538
v 0.0443742 0.0559553 -0.00947693
vn -0.904622 0.00351435 0.426199
v 0.0457311 0.0551006 -0.00947693
vn 0.523899 0.825916 -0.208311
v 0.0465802 0.0543043 -0.0104745
vn 0.523034 0.824073 -0.217576
v 0.0457278 0.0547254 -0.0109004
vn 0.516044 0.826482 -0.225003
v 0.0444649 0.0555509 -0.0107472
vn 0.511747 0.827555 -0.230796
v 0.0443742 0.0556051 -0.0107472
vn 0.497028 0.836475 -0.230809
v 0.0443742 0.0406883 -0.00947693
vn -0.808517 -0.39605 0.435252
v 0.0467731 0.0544336 -0.00947693
vn 0.53967 0.821807 -0.182727
v 0.0471259 0.0538374 -0.0109004
vn 0.543101 0.811686 -0.214959
v 0.0463576 0.0541584 -0.0115281
vn 0.517112 0.820968 -0.242088
v 0.0443742 0.0555217 -0.0110424
vn 0.502689 0.829972 -0.241766
v 0.0443742 0.0555759 -0.0108518
vn 0.435112 0.866465 -0.244777
v 0.0443742 0.0252671 -0.0374011
vn -0.834705 -0.484538 0.261707
v 0.0612161 0.0215734 -0.00947693
vn 0.117915 -0.619952 0.775729
v 0.0475348 0.0539208 -0.00947693
vn 0.554191 0.819214 -0.147516
v 0.0477838 0.0537499 -0.00947693
vn 0.58991 0.804711 -0.0666787
v 0.0481729 0.0527493 -0.0123276
vn 0.549657 0.806036 -0.219504
v 0.0443742 0.0551256 -0.0123986
vn 0.501788 0.823352 -0.265141
v 0.0479899 0.0526117 -0.0132168
vn 0.516852 0.816916 -0.255955
v 0.0443742 0.0251171 -0.0377
vn -0.837954 -0.499105 0.220744
v 0.0612161 0.014386 -0.0233904
vn -0.689786 -0.644045 0.330759
v 0.0612161 0.0360482 -0.00947693
vn 0.297102 0.0402257 0.953998
v 0.0484449 0.0529661 -0.0107472
vn 0.587091 0.787343 -0.188187
v 0.0512346 0.0510984 -0.00947693
vn 0.557979 0.716574 0.418547
v 0.0511604 0.0510442 -0.0101158
vn 0.622901 0.761045 -0.181121
v 0.0497821 0.0511943 -0.0139118
vn 0.589532 0.782319 -0.20107
v 0.0496024 0.0510567 -0.0148495
vn 0.570239 0.780129 -0.257345
v 0.0443742 0.0546254 -0.0138781
vn 0.479179 0.830626 -0.283633
v 0.0487763 0.0514069 -0.0154249
vn 0.511924 0.817223 -0.264728
v 0.0482388 0.0512068 -0.0170726
vn 0.505612 0.818128 -0.273902
v 0.0443742 0.0246168 -0.0389628
vn -0.871544 -0.458014 0.175026
v 0.0612161 0.0138566 -0.0244963
vn -0.665353 -0.687369 0.291254
v 0.0612161 0.0367403 -0.0139118
vn 0.9882 0.151725 0.0209629
v 0.0583802 0.0425185 -0.00947693
vn 0.457383 0.20096 0.866266
v 0.0500244 0.0513902 -0.0123276
vn 0.596056 0.78121 -0.185546
v 0.0517671 0.0506481 -0.00947693
vn 0.423671 0.485993 0.764404
v 0.052918 0.0496309 -0.00947693
vn 0.668213 0.718456 0.193163
v 0.052796 0.0495267 -0.0103475
vn 0.659615 0.728106 -0.186465
v 0.0515001 0.0497685 -0.0139118
vn 0.64845 0.735943 -0.194682
v 0.0505735 0.0505564 -0.0139118
vn 0.624126 0.753372 -0.207115
v 0.0493303 0.0508482 -0.0159069
vn 0.578444 0.758129 -0.301069
v 0.0480047 0.0510442 -0.0179506
vn 0.532157 0.78248 -0.323317
v 0.0512874 0.0495809 -0.0151559
vn 0.641851 0.729031 -0.237783
v 0.0510747 0.0493932 -0.0162095
vn 0.59483 0.748612 -0.292845
v 0.0443742 0.0545795 -0.0140089
vn 0.444302 0.844481 -0.299078
v 0.0443742 0.0245292 -0.0392131
vn -0.906731 -0.404742 0.118416
v 0.0612161 0.0137148 -0.0248924
vn -0.540783 -0.81594 0.204443
v 0.0612161 0.0368112 -0.0148832
vn 0.988368 0.151751 0.0100077
v 0.0577999 0.0438234 -0.00947693
vn 0.842533 0.460721 0.27906
v 0.0545502 0.0480883 -0.00947693
vn 0.686054 0.699882 0.198735
v 0.0541644 0.0477381 -0.0123276
vn 0.679757 0.710234 -0.183025
v 0.0533747 0.0484719 -0.0123276
vn 0.667733 0.720064 -0.188788
v 0.052519 0.049264 -0.0123276
vn 0.662462 0.724562 -0.190145
v 0.0522914 0.0490514 -0.0139118
vn 0.659346 0.723033 -0.20612
v 0.0448639 0.0510692 -0.0227441
vn 0.572813 0.729379 -0.374021
v 0.0443742 0.0512818 -0.0230691
vn 0.0626633 0.910058 -0.409717
v 0.0443742 0.0516153 -0.0222733
vn 0.332623 0.870751 -0.362152
v 0.0443742 0.0517946 -0.0218362
vn 0.412302 0.853698 -0.318131
v 0.0443742 0.0523574 -0.0202819
vn 0.441521 0.845339 -0.300767
v 0.0508422 0.049214 -0.0170726
vn 0.587436 0.739352 -0.329057
v 0.0514654 0.0481134 -0.0183877
vn 0.577445 0.72778 -0.369992
v 0.0531504 0.0482634 -0.0139118
vn 0.663344 0.71816 -0.210286
v 0.0528768 0.0480133 -0.0154922
vn 0.658272 0.714964 -0.235595
v 0.0525206 0.0476923 -0.01742
vn 0.639309 0.712151 -0.290043
v 0.0443742 0.0244375 -0.0395755
vn -0.770855 -0.625832 0.118815
v 0.0612161 0.0133646 -0.0265624
vn -0.497461 -0.861587 0.100993
v 0.0612161 0.0368445 -0.0154922
vn 0.988383 0.151753 -0.00838004
v 0.0567859 0.045441 -0.00947693
vn 0.832315 0.553938 0.0201187
v 0.0612161 0.0366903 -0.0170726
vn 0.988179 0.151721 -0.0219868
v 0.0612161 0.0363859 -0.0186567
vn 0.962195 0.266458 -0.0563993
v 0.05534 0.0472754 -0.00947693
vn 0.706869 0.662136 0.248823
v 0.0549492 0.0469502 -0.0123276
vn 0.703144 0.688479 -0.177723
v 0.0547497 0.0467376 -0.0139118
vn 0.693958 0.6928 -0.19609
v 0.0539402 0.0475297 -0.0139118
vn 0.673202 0.709377 -0.208768
v 0.0443742 0.0508357 -0.0239172
vn 0.444348 0.786682 -0.428587
v 0.0519551 0.0474755 -0.0188099
vn 0.601722 0.6878 -0.406032
v 0.051106 0.047834 -0.019445
vn 0.586363 0.69798 -0.411098
v 0.0536681 0.0472796 -0.0154922
vn 0.662299 0.713189 -0.22961
v 0.0543507 0.0463248 -0.0164636
vn 0.673736 0.69357 -0.25503
v 0.0541265 0.0461081 -0.0175209
vn 0.688575 0.643065 -0.33516
v 0.0530268 0.0465958 -0.0186567
vn 0.650667 0.660293 -0.375027
v 0.0443742 0.0242291 -0.0407935
vn -0.997677 -0.0675325 0.00889375
v 0.046351 0.0225281 -0.0415407
vn -0.606311 -0.787084 0.113516
v 0.0612161 0.0133896 -0.0281428
vn 0.106817 -0.991467 -0.0747198
v 0.0463395 0.0225156 -0.0423739
vn -0.5417 -0.840546 0.00653404
v 0.0463428 0.0225198 -0.0432967
vn -0.470431 -0.877898 -0.0893857
v 0.0561825 0.0451408 -0.0139118
vn 0.809802 0.566324 -0.153287
v 0.0560258 0.0464791 -0.00947693
vn 0.704807 0.5435 0.45591
v 0.0612161 0.03629 -0.0190453
vn 0.945174 0.316013 -0.0823536
v 0.0594569 0.0390374 -0.0186567
vn 0.824048 0.548123 -0.143198
v 0.0589293 0.0398295 -0.0186567
vn 0.816287 0.556974 -0.153151
v 0.055739 0.0461289 -0.0123276
vn 0.757658 0.632033 -0.162755
v 0.0555411 0.0459288 -0.0139118
vn 0.717076 0.672147 -0.184447
v 0.055307 0.0456953 -0.0154922
vn 0.7044 0.674496 -0.221078
v 0.0545156 0.0464916 -0.0154922
vn 0.678785 0.700183 -0.221346
v 0.0443742 0.0506023 -0.0243133
vn 0.514852 0.738025 -0.436173
v 0.052758 0.0463248 -0.0195534
vn 0.634333 0.660248 -0.402112
v 0.0479421 0.0383454 -0.0399977
vn 0.587472 0.692452 -0.418793
v 0.0558972 0.0447406 -0.0164001
vn 0.726666 0.625314 -0.284497
v 0.0538182 0.0457829 -0.0186567
vn 0.667861 0.646335 -0.36907
v 0.0591667 0.0385455 -0.0213766
vn 0.749601 0.592124 -0.295783
v 0.058283 0.0392167 -0.0219483
vn 0.694834 0.63459 -0.338381
v 0.0573877 0.0398837 -0.0225199
vn 0.66207 0.638659 -0.392146
v 0.0443742 0.024129 -0.0419181
vn -0.997921 -0.0642155 0.00542073
v 0.0443742 0.0240957 -0.0423739
vn -0.994485 -0.104877 0.000532421
v 0.0612161 0.0136231 -0.0299922
vn 0.172215 -0.97478 -0.141937
v 0.0443742 0.0241248 -0.0439543
vn -0.998439 -0.0557678 -0.00298358
v 0.0443742 0.0242124 -0.0445558
vn -0.998732 -0.0494927 -0.0092044
v 0.0443742 0.0243583 -0.0452097
vn -0.992926 -0.114648 -0.0308783
v 0.0466561 0.0225906 -0.0443503
vn -0.344061 -0.8901 -0.298904
v 0.0573778 0.016187 -0.0353237
vn -0.360922 -0.910745 -0.200695
v 0.0560226 0.0449032 -0.0154922
vn 0.788274 0.587583 -0.182676
v 0.0612161 0.0359357 -0.0202819
vn 0.999361 0.0334721 -0.0125527
v 0.0606802 0.0368904 -0.0197962
vn 0.82273 0.547336 -0.153423
v 0.0593266 0.0387956 -0.0202371
vn 0.795406 0.57145 -0.201927
v 0.0443742 0.0473421 -0.0298129
vn -0.134569 0.851394 -0.50697
v 0.0528866 0.0353937 -0.0371769
vn 0.654916 0.640407 -0.401202
v 0.0514374 0.0386664 -0.034173
vn 0.643537 0.652547 -0.400053
v 0.0509774 0.0366444 -0.0382081
vn 0.622356 0.666339 -0.410688
v 0.0495479 0.0367861 -0.0400276
vn 0.628446 0.613211 -0.478568
v 0.0486494 0.0371655 -0.0406515
vn 0.600608 0.628065 -0.494777
v 0.0480657 0.036882 -0.0417051
vn 0.560925 0.601357 -0.568976
v 0.0473106 0.0380994 -0.0409467
vn 0.5308 0.662114 -0.529014
v 0.0446512 0.0398254 -0.0414473
vn 0.528319 0.666424 -0.526078
v 0.0443742 0.0402381 -0.0411746
vn -0.749121 0.535717 -0.389648
v 0.0443742 0.0405841 -0.0406964
vn -0.867999 0.406547 -0.285126
v 0.0451376 0.0402131 -0.0403937
vn 0.534442 0.707477 -0.462437
v 0.0444616 0.0412678 -0.0395494
vn 0.542087 0.714124 -0.44291
v 0.0443742 0.0466667 -0.0309225
vn -0.287307 0.815144 -0.502986
v 0.0589243 0.038237 -0.0224302
vn 0.697706 0.614195 -0.368743
v 0.0605533 0.0367028 -0.0208536
vn 0.809843 0.538382 -0.233021
v 0.0612161 0.0352561 -0.0218511
vn 0.995276 0.087781 -0.0414744
v 0.0612161 0.0329465 -0.0266633
vn 0.995027 0.0895116 -0.0436983
v 0.0612161 0.0323086 -0.0278888
vn 0.99507 0.0877398 -0.0462327
v 0.0612161 0.0321669 -0.0281428
vn 0.956868 0.25074 -0.146739
v 0.0609704 0.032442 -0.0281428
vn 0.68616 0.618931 -0.382242
v 0.0607033 0.032146 -0.0290993
vn 0.681648 0.61974 -0.388945
v 0.0588633 0.0334426 -0.0302426
vn 0.674042 0.621182 -0.399751
v 0.0559467 0.0352811 -0.0322377
vn 0.667154 0.629802 -0.397812
v 0.0612161 0.0140108 -0.0314792
vn 0.874629 -0.456115 -0.164265
v 0.0443742 0.0244417 -0.0454151
vn -0.998806 -0.0416628 -0.0254942
v 0.0477096 0.0224948 -0.0447837
vn -0.185356 -0.835825 -0.516758
v 0.0557027 0.0177379 -0.0386303
vn -0.22757 -0.909478 -0.347939
v 0.0443742 0.0251379 -0.0464837
vn -0.994387 -0.0839735 -0.0643602
v 0.0611073 0.0360983 -0.0202894
vn 0.81703 0.542829 -0.194418
v 0.0612161 0.031233 -0.0295962
vn 0.857691 0.419926 -0.296694
v 0.0525668 0.0350185 -0.0382305
vn 0.689456 0.539932 -0.482828
v 0.0515116 0.0355896 -0.0389142
vn 0.639706 0.581478 -0.502653
v 0.0510813 0.0351477 -0.0399715
vn 0.658375 0.501771 -0.561043
v 0.0495595 0.0352269 -0.0416155
vn 0.64194 0.467642 -0.607638
v 0.0485389 0.0357397 -0.0421871
vn 0.59793 0.505964 -0.621676
v 0.0479569 0.0352019 -0.0431772
vn 0.578959 0.469361 -0.666713
v 0.0474458 0.0362567 -0.0427625
vn 0.541907 0.531308 -0.65119
v 0.0463906 0.0367903 -0.0431847
vn 0.515672 0.560077 -0.64838
v 0.0447237 0.0382953 -0.0431137
vn 0.512203 0.61127 -0.603323
v 0.0443742 0.038904 -0.042755
vn -0.899671 0.32331 -0.293365
v 0.0443742 0.0391833 -0.0424449
vn -0.885553 0.348194 -0.307502
v 0.0443742 0.039521 -0.0420563
vn -0.875071 0.365916 -0.31679
v 0.0443742 0.0399337 -0.0415781
vn -0.911449 0.312359 -0.267754
v 0.0443742 0.041297 -0.0396054
vn -0.998643 0.0439131 -0.0279965
v 0.0612161 0.0318584 -0.0286323
vn 0.999654 0.0221397 -0.0141934
v 0.0612161 0.031283 -0.0295215
vn 0.999656 0.0219968 -0.0142704
v 0.0612161 0.0144319 -0.0323909
vn 0.901712 -0.387843 -0.191033
v 0.0479948 0.0224948 -0.0447837
vn 0.160615 -0.576745 -0.80098
v 0.0443742 0.0253297 -0.0466182
vn -0.995941 -0.047999 -0.0761393
v 0.0560407 0.0177379 -0.0386303
vn 0.107334 -0.772463 -0.625924
v 0.0612161 0.0305034 -0.0305863
vn 0.956016 0.232451 -0.178884
v 0.0529526 0.0339679 -0.0387125
vn 0.684128 0.476644 -0.552069
v 0.0612161 0.0298155 -0.0314381
vn 0.957157 0.22443 -0.182977
v 0.0612161 0.0295195 -0.0317931
vn 0.996181 0.0656999 -0.057501
v 0.060916 0.0292569 -0.0325366
vn 0.703158 0.513901 -0.4914
v 0.0605269 0.0287441 -0.0335902
vn 0.696258 0.500228 -0.514778
v 0.0612161 0.0258633 -0.0354284
vn 0.961304 0.184701 -0.204403
v 0.0507087 0.0345349 -0.0408533
vn 0.666342 0.449143 -0.595197
v 0.0534258 0.0327297 -0.0391421
vn 0.677031 0.456581 -0.577203
v 0.0539814 0.0312372 -0.0396652
vn 0.676031 0.454631 -0.579908
v 0.0542551 0.0304242 -0.0399828
vn 0.667634 0.438885 -0.601369
v 0.0509626 0.0333884 -0.0414249
vn 0.661998 0.441281 -0.60583
v 0.0513137 0.0323336 -0.041806
vn 0.654236 0.421486 -0.627953
v 0.0498381 0.0343973 -0.0418994
vn 0.640349 0.43179 -0.635224
v 0.0497524 0.0323461 -0.0433715
vn 0.615624 0.407664 -0.674401
v 0.0493765 0.0334009 -0.0430277
vn 0.624817 0.435346 -0.648134
v 0.0490286 0.0343973 -0.0426915
vn 0.623882 0.43804 -0.647219
v 0.0451903 0.0355855 -0.0450752
vn 0.528698 0.517015 -0.673182
v 0.0470122 0.0358273 -0.0434424
vn 0.53092 0.52039 -0.668818
v 0.0482372 0.0343973 -0.0434275
vn 0.592829 0.41949 -0.687446
v 0.0477211 0.0332758 -0.0445558
vn 0.588163 0.414017 -0.694733
v 0.0466676 0.0339929 -0.0450042
vn 0.566087 0.419155 -0.709827
v 0.0462455 0.0350435 -0.044653
vn 0.54566 0.476571 -0.6893
v 0.0443742 0.0367653 -0.0447501
vn -0.988487 0.0983019 -0.115023
v 0.0443742 0.0376283 -0.0440029
vn -0.987636 0.10337 -0.117853
v 0.0443742 0.037941 -0.0437189
vn -0.986038 0.112383 -0.122882
v 0.0443742 0.0384412 -0.0432594
vn -0.990623 0.0937376 -0.0993953
v 0.0443742 0.0359148 -0.0454525
vn -0.989411 0.0899406 -0.113913
v 0.0443742 0.0363692 -0.0450789
vn -0.989472 0.0921601 -0.111589
v 0.0612161 0.0144777 -0.0324544
vn 0.973266 -0.1784 -0.14466
v 0.0443742 0.0262385 -0.0471749
vn -0.994542 -0.047329 -0.0929878
v 0.0455712 0.0253255 -0.046521
vn 0.216808 -0.367867 -0.90425
v 0.0464681 0.0255256 -0.0463828
vn 0.396726 -0.206299 -0.894455
v 0.0470583 0.0249628 -0.0459718
vn 0.399463 -0.251348 -0.88162
v 0.0482108 0.0233286 -0.0449668
vn 0.387508 -0.276334 -0.879476
v 0.0560588 0.0190345 -0.0401434
vn 0.467344 -0.366531 -0.804515
v 0.0592508 0.0161453 -0.0353312
vn 0.276149 -0.734148 -0.620297
v 0.0612161 0.024967 -0.0361382
vn 0.907917 0.257047 -0.331081
v 0.0604494 0.0254214 -0.0366762
vn 0.662418 0.3806 -0.645249
v 0.0545832 0.0293695 -0.040334
vn 0.657844 0.389444 -0.64465
v 0.0508059 0.031504 -0.0428596
vn 0.651183 0.396408 -0.647164
v 0.0503575 0.0328673 -0.042415
vn 0.641075 0.429618 -0.635965
v 0.0511093 0.0304492 -0.043166
vn 0.629761 0.285849 -0.722282
v 0.0502948 0.0310788 -0.0435545
vn 0.60488 0.356006 -0.712306
v 0.0480822 0.0322211 -0.044851
vn 0.577182 0.361149 -0.732415
v 0.0445176 0.0348642 -0.0461288
vn 0.539333 0.468117 -0.699991
v 0.0443742 0.0349434 -0.0461811
vn -0.998942 0.0254877 -0.0382667
v 0.0449496 0.0338136 -0.0464276
vn 0.532757 0.365284 -0.763372
v 0.0455976 0.0344306 -0.0455683
vn 0.549887 0.442649 -0.708298
v 0.0612161 0.0152115 -0.0333361
vn 0.975392 -0.164666 -0.146614
v 0.0443742 0.0265929 -0.0472982
vn -0.998903 -0.0128157 -0.0450469
v 0.0455712 0.0264887 -0.0469208
vn 0.338291 -0.184414 -0.922795
v 0.0465901 0.0264887 -0.046465
vn 0.473232 -0.104385 -0.874732
v 0.0612161 0.0203477 -0.0361943
vn 0.985568 -0.0505275 -0.161562
v 0.0612161 0.0200809 -0.0361009
vn 0.98497 -0.0642767 -0.160323
v 0.0612161 0.0190803 -0.0356862
vn 0.984842 -0.0667422 -0.160098
v 0.0612161 0.0185842 -0.0354769
vn 0.984729 -0.0688332 -0.159906
v 0.0612161 0.0170667 -0.0348194
vn 0.984646 -0.0703276 -0.159768
v 0.0612161 0.0169291 -0.0347484
vn 0.98276 -0.0972854 -0.157219
v 0.0612161 0.0160161 -0.0341693
vn 0.991203 -0.0756869 -0.108575
v 0.0603043 0.0164413 -0.0351407
vn 0.358248 -0.671577 -0.64857
v 0.0473815 0.0264887 -0.045998
vn 0.524216 -0.0495988 -0.850139
v 0.0561479 0.0201643 -0.0401994
vn 0.556019 -0.040401 -0.830187
v 0.0612161 0.021686 -0.0365828
vn 0.904627 -0.0435794 -0.42397
v 0.0612161 0.0215984 -0.0365716
vn 0.986054 -0.0332153 -0.163077
v 0.0612161 0.0215025 -0.0365455
vn 0.98563 -0.0487924 -0.161716
v 0.0612161 0.0247669 -0.0362391
vn 0.999832 0.00697109 -0.0169442
v 0.0607314 0.0243666 -0.0369303
vn 0.628038 0.189054 -0.754869
v 0.0559368 0.0274225 -0.0400762
vn 0.645506 0.303662 -0.700794
v 0.0503163 0.029653 -0.0439543
vn 0.60315 0.167465 -0.77985
v 0.0494012 0.029653 -0.0446604
vn 0.584949 0.135021 -0.799752
v 0.0491424 0.0312372 -0.0444437
vn 0.590533 0.251027 -0.766979
v 0.0540523 0.0280729 -0.0414025
vn 0.604557 0.170555 -0.778088
v 0.048351 0.0312372 -0.0450303
vn 0.552942 0.228042 -0.801406
v 0.0460295 0.0328172 -0.0460914
vn 0.540653 0.288921 -0.790075
v 0.0443742 0.034143 -0.0465995
vn -0.999757 0.00816068 -0.0204587
v 0.0452381 0.0328172 -0.0465734
vn 0.47793 0.24469 -0.843629
v 0.0443742 0.0328172 -0.0470292
vn -0.99775 0.0172619 -0.0647879
v 0.0443742 0.0278728 -0.0476195
vn -0.998596 -0.00925154 -0.052157
v 0.0443742 0.0280729 -0.0476419
vn -0.997724 -0.00346125 -0.0673424
v 0.0455712 0.0280729 -0.0471002
vn 0.456668 0.0180699 -0.889453
v 0.0466478 0.0280729 -0.0464986
vn 0.502047 0.013728 -0.864731
v 0.0474376 0.0280729 -0.0460129
vn 0.539718 0.000531487 -0.841846
v 0.0542617 0.0243333 -0.0415781
vn 0.534724 -0.0317957 -0.844428
v 0.0542782 0.0253881 -0.0415893
vn 0.554761 -0.0111888 -0.831935
v 0.0549064 0.0248794 -0.0411447
vn 0.572629 -0.0131415 -0.81971
v 0.0608253 0.0233286 -0.0369826
vn 0.582483 0.00475965 -0.812829
v 0.0612161 0.0219861 -0.0366053
vn 0.983165 -0.012382 -0.182302
v 0.0612161 0.0237955 -0.0366202
vn 0.999619 0.00636242 -0.0268712
v 0.0549064 0.0263719 -0.04107
vn 0.595601 0.0877931 -0.798468
v 0.0560687 0.0264887 -0.0401808
vn 0.604379 0.151272 -0.782204
v 0.0486098 0.029653 -0.0451984
vn 0.545747 0.0683991 -0.835154
v 0.0542023 0.0268222 -0.041537
vn 0.587436 0.107968 -0.802036
v 0.0542782 0.0257674 -0.0415893
vn 0.564392 0.041481 -0.824464
v 0.0462785 0.0317333 -0.0462782
vn 0.503652 0.185995 -0.843647
v 0.0443742 0.0324545 -0.0471039
vn -0.998163 0.0118195 -0.0594297
v 0.0443742 0.0295112 -0.0476008
vn -0.999468 0.00107915 -0.032598
v 0.0443742 0.029653 -0.0475896
vn -0.991544 0.0169745 -0.128657
v 0.0455712 0.029653 -0.0469619
vn 0.467984 0.0942258 -0.878699
v 0.0465489 0.029653 -0.0464314
vn 0.482418 0.0829891 -0.872001
v 0.0473403 0.029653 -0.0459868
vn 0.514911 0.0956171 -0.851894
v 0.0612161 0.0233286 -0.0366762
vn 0.999899 -0.000117397 -0.0142123
v 0.0456784 0.0312163 -0.046678
vn 0.45603 0.136895 -0.879373
v 0.0443742 0.031258 -0.0473393
vn -0.998419 0.00981257 -0.0553387
v 0.0464285 0.0306785 -0.0463641
vn 0.472735 0.126696 -0.872049
f 1//1 2//2 3//3
f 1//1 3//3 4//4
f 1//1 4//4 5//5
f 1//1 5//5 6//6
f 1//1 6//6 12//12
f 1//1 12//12 11//11
f 1//1 11//11 18//18
f 1//1 18//18 28//28
f 1//1 28//28 45//45
f 1//1 45//45 59//59
f 1//1 59//59 58//58
f 1//1 58//58 57//57
f 1//1 57//57 56//56
f 1//1 56//56 75//75
f 1//1 75//75 96//96
f 1//1 96//96 116//116
f 1//1 116//116 129//129
f 1//1 129//129 160//160
f 1//1 160//160 126//126
f 1//1 126//126 125//125
f 1//1 125//125 159//159
f 1//1 159//159 158//158
f 1//1 158//158 157//157
f 1//1 157//157 156//156
f 1//1 156//156 193//193
f 1//1 193//193 192//192
f 1//1 192//192 191//191
f 1//1 191//191 190//190
f 1//1 190//190 195//195
f 1//1 195//195 194//194
f 1//1 194//194 213//213
f 1//1 213//213 242//242
f 1//1 242//242 244//244
f 1//1 244//244 262//262
f 1//1 262//262 270//270
f 1//1 270//270 264//264
f 1//1 264//264 263//263
f 1//1 263//263 246//246
f 1//1 246//246 245//245
f 1//1 245//245 217//217
f 1//1 217//217 197//197
f 1//1 197//197 165//165
f 1//1 165//165 144//144
f 1//1 144//144 141//141
f 1//1 141//141 109//109
f 1//1 109//109 108//108
f 1//1 108//108 107//107
f 1//1 107//107 105//105
f 1//1 105//105 104//104
f 1//1 104//104 82//82
f 1//1 82//82 65//65
f 1//1 65//65 46//46
f 1//1 46//46 31//31
f 1//1 31//31 20//20
f 1//1 20//20 13//13
f 1//1 13//13 7//7
f 1//1 7//7 14//14
f 1//1 14//14 22//22
f 1//1 22//22 34//34
f 1//1 34//34 49//49
f 1//1 49//49 68//68
f 1//1 68//68 88//88
f 1//1 88//88 71//71
f 1//1 71//71 50//50
f 1//1 50//50 37//37
f 1//1 37//37 36//36
f 1//1 36//36 24//24
f 1//1 24//24 16//16
f 1//1 16//16 15//15
f 1//1 15//15 8//8
f 1//1 8//8 2//2
f 2//2 8//8 3//3
f 3//3 8//8 9//9
f 3//3 9//9 10//10
f 3//3 10//10 4//4
f 4//4 10//10 5//5
f 5//5 11//11 12//12
f 5//5 12//12 6//6
f 5//5 10//10 11//11
f 7//7 13//13 14//14
f 8//8 15//15 9//9
f 9//9 15//15 16//16
f 9//9 16//16 17//17
f 9//9 17//17 10//10
f 10//10 18//18 11//11
f 10//10 17//17 19//19
f 10//10 19//19 18//18
f 13//13 20//20 21//21
f 13//13 21//21 14//14
f 14//14 21//21 32//32
f 14//14 32//32 47//47
f 14//14 47//47 66//66
f 14//14 66//66 84//84
f 14//14 84//84 106//106
f 14//14 106//106 140//140
f 14//14 140//140 163//163
f 14//14 163//163 196//196
f 14//14 196//196 216//216
f 14//14 216//216 226//226
f 14//14 226//226 225//225
f 14//14 225//225 224//224
f 14//14 224//224 223//223
f 14//14 223//223 222//222
f 14//14 222//222 221//221
f 14//14 221//221 220//220
f 14//14 220//220 232//232
f 14//14 232//232 231//231
f 14//14 231//231 230//230
f 14//14 230//230 254//254
f 14//14 254//254 268//268
f 14//14 268//268 255//255
f 14//14 255//255 233//233
f 14//14 233//233 204//204
f 14//14 204//204 173//173
f 14//14 173//173 170//170
f 14//14 170//170 169//169
f 14//14 169//169 167//167
f 14//14 167//167 146//146
f 14//14 146//146 162//162
f 14//14 162//162 161//161
f 14//14 161//161 135//135
f 14//14 135//135 134//134
f 14//14 134//134 133//133
f 14//14 133//133 132//132
f 14//14 132//132 113//113
f 14//14 113//113 89//89
f 14//14 89//89 70//70
f 14//14 70//70 69//69
f 14//14 69//69 67//67
f 14//14 67//67 48//48
f 14//14 48//48 33//33
f 14//14 33//33 22//22
f 16//16 23//23 17//17
f 16//16 24//24 25//25
f 16//16 25//25 23//23
f 17//17 23//23 26//26
f 17//17 26//26 27//27
f 17//17 27//27 19//19
f 18//18 19//19 29//29
f 18//18 29//29 30//30
f 18//18 30//30 28//28
f 19//19 27//27 29//29
f 20//20 31//31 32//32
f 20//20 32//32 21//21
f 22//22 33//33 34//34
f 23//23 25//25 35//35
f 23//23 35//35 26//26
f 24//24 36//36 25//25
f 25//25 26//26 35//35
f 25//25 36//36 37//37
f 25//25 37//37 38//38
f 25//25 38//38 39//39
f 25//25 39//39 40//40
f 25//25 40//40 26//26
f 26//26 40//40 27//27
f 27//27 41//41 42//42
f 27//27 42//42 30//30
f 27//27 30//30 29//29
f 27//27 40//40 43//43
f 27//27 43//43 44//44
f 27//27 44//44 41//41
f 28//28 30//30 42//42
f 28//28 42//42 45//45
f 31//31 46//46 47//47
f 31//31 47//47 32//32
f 33//33 48//48 49//49
f 33//33 49//49 34//34
f 37//37 50//50 51//51
f 37//37 51//51 38//38
f 38//38 51//51 52//52
f 38//38 52//52 53//53
f 38//38 53//53 39//39
f 39//39 53//53 54//54
f 39//39 54//54 43//43
f 39//39 43//43 40//40
f 41//41 44//44 42//42
f 42//42 55//55 56//56
f 42//42 56//56 57//57
f 42//42 57//57 58//58
f 42//42 58//58 59//59
f 42//42 59//59 45//45
f 42//42 44//44 60//60
f 42//42 60//60 61//61
f 42//42 61//61 55//55
f 43//43 54//54 62//62
f 43//43 62//62 63//63
f 43//43 63//63 64//64
f 43//43 64//64 44//44
f 44//44 64//64 60//60
f 46//46 65//65 47//47
f 47//47 65//65 66//66
f 48//48 67//67 49//49
f 49//49 67//67 69//69
f 49//49 69//69 70//70
f 49//49 70//70 68//68
f 50//50 71//71 72//72
f 50//50 72//72 51//51
f 51//51 72//72 73//73
f 51//51 73//73 74//74
f 51//51 74//74 62//62
f 51//51 62//62 52//52
f 52//52 62//62 53//53
f 53//53 62//62 54//54
f 55//55 75//75 56//56
f 55//55 61//61 75//75
f 60//60 64//64 61//61
f 61//61 64//64 76//76
f 61//61 76//76 77//77
f 61//61 77//77 75//75
f 62//62 74//74 78//78
f 62//62 78//78 63//63
f 63//63 78//78 79//79
f 63//63 79//79 64//64
f 64//64 79//79 80//80
f 64//64 80//80 81//81
f 64//64 81//81 76//76
f 65//65 82//82 83//83
f 65//65 83//83 66//66
f 66//66 83//83 85//85
f 66//66 85//85 86//86
f 66//66 86//86 84//84
f 68//68 87//87 88//88
f 68//68 70//70 89//89
f 68//68 89//89 90//90
f 68//68 90//90 91//91
f 68//68 91//91 87//87
f 71//71 88//88 92//92
f 71//71 92//92 93//93
f 71//71 93//93 72//72
f 72//72 93//93 73//73
f 73//73 93//93 94//94
f 73//73 94//94 95//95
f 73//73 95//95 74//74
f 74//74 95//95 78//78
f 75//75 77//77 96//96
f 76//76 81//81 97//97
f 76//76 97//97 98//98
f 76//76 98//98 77//77
f 77//77 98//98 96//96
f 78//78 95//95 79//79
f 79//79 95//95 94//94
f 79//79 94//94 99//99
f 79//79 99//99 80//80
f 80//80 100//100 81//81
f 80//80 99//99 101//101
f 80//80 101//101 102//102
f 80//80 102//102 103//103
f 80//80 103//103 100//100
f 81//81 100//100 103//103
f 81//81 103//103 97//97
f 82//82 104//104 83//83
f 83//83 104//104 105//105
f 83//83 105//105 85//85
f 84//84 86//86 106//106
f 85//85 105//105 86//86
f 86//86 105//105 107//107
f 86//86 107//107 108//108
f 86//86 108//108 109//109
f 86//86 109//109 110//110
f 86//86 110//110 111//111
f 86//86 111//111 106//106
f 87//87 112//112 92//92
f 87//87 92//92 88//88
f 87//87 91//91 112//112
f 89//89 113//113 114//114
f 89//89 114//114 90//90
f 90//90 114//114 91//91
f 91//91 114//114 115//115
f 91//91 115//115 112//112
f 92//92 112//112 93//93
f 93//93 112//112 94//94
f 94//94 112//112 99//99
f 96//96 98//98 116//116
f 97//97 103//103 117//117
f 97//97 117//117 118//118
f 97//97 118//118 119//119
f 97//97 119//119 98//98
f 98//98 119//119 120//120
f 98//98 120//120 121//121
f 98//98 121//121 122//122
f 98//98 122//122 123//123
f 98//98 123//123 124//124
f 98//98 124//124 125//125
f 98//98 125//125 126//126
f 98//98 126//126 127//127
f 98//98 127//127 128//128
f 98//98 128//128 129//129
f 98//98 129//129 116//116
f 99//99 112//112 115//115
f 99//99 115//115 101//101
f 101//101 130//130 102//102
f 101//101 115//115 131//131
f 101//101 131//131 132//132
f 101//101 132//132 133//133
f 101//101 133//133 134//134
f 101//101 134//134 135//135
f 101//101 135//135 130//130
f 102//102 130//130 103//103
f 103//103 130//130 136//136
f 103//103 136//136 137//137
f 103//103 137//137 138//138
f 103//103 138//138 139//139
f 103//103 139//139 117//117
f 106//106 111//111 140//140
f 109//109 141//141 110//110
f 110//110 142//142 143//143
f 110//110 143//143 111//111
f 110//110 141//141 144//144
f 110//110 144//144 142//142
f 111//111 143//143 140//140
f 113//113 132//132 131//131
f 113//113 131//131 145//145
f 113//113 145//145 114//114
f 114//114 145//145 115//115
f 115//115 145//145 131//131
f 117//117 119//119 118//118
f 117//117 139//139 138//138
f 117//117 138//138 146//146
f 117//117 146//146 147//147
f 117//117 147//147 119//119
f 119//119 147//147 120//120
f 120//120 122//122 121//121
f 120//120 147//147 148//148
f 120//120 148//148 149//149
f 120//120 149//149 122//122
f 122//122 149//149 150//150
f 122//122 150//150 151//151
f 122//122 151//151 152//152
f 122//122 152//152 153//153
f 122//122 153//153 154//154
f 122//122 154//154 155//155
f 122//122 155//155 156//156
f 122//122 156//156 157//157
f 122//122 157//157 158//158
f 122//122 158//158 159//159
f 122//122 159//159 124//124
f 122//122 124//124 123//123
f 124//124 159//159 125//125
f 126//126 160//160 127//127
f 127//127 160//160 128//128
f 128//128 160//160 129//129
f 130//130 135//135 136//136
f 135//135 161//161 137//137
f 135//135 137//137 136//136
f 137//137 161//161 162//162
f 137//137 162//162 146//146
f 137//137 146//146 138//138
f 140//140 143//143 163//163
f 142//142 164//164 166//166
f 142//142 166//166 143//143
f 142//142 144//144 165//165
f 142//142 165//165 164//164
f 143//143 166//166 163//163
f 146//146 167//167 147//147
f 147//147 168//168 149//149
f 147//147 149//149 148//148
f 147//147 167//167 169//169
f 147//147 169//169 170//170
f 147//147 170//170 171//171
f 147//147 171//171 172//172
f 147//147 172//172 173//173
f 147//147 173//173 168//168
f 149//149 174//174 150//150
f 149//149 168//168 175//175
f 149//149 175//175 176//176
f 149//149 176//176 177//177
f 149//149 177//177 174//174
f 150//150 174//174 177//177
f 150//150 177//177 178//178
f 150//150 178//178 179//179
f 150//150 179//179 180//180
f 150//150 180//180 181//181
f 150//150 181//181 182//182
f 150//150 182//182 183//183
f 150//150 183//183 152//152
f 150//150 152//152 151//151
f 152//152 184//184 185//185
f 152//152 185//185 153//153
f 152//152 183//183 182//182
f 152//152 182//182 181//181
f 152//152 181//181 186//186
f 152//152 186//186 187//187
f 152//152 187//187 188//188
f 152//152 188//188 189//189
f 152//152 189//189 184//184
f 153//153 185//185 154//154
f 154//154 190//190 191//191
f 154//154 191//191 192//192
f 154//154 192//192 193//193
f 154//154 193//193 155//155
f 154//154 185//185 184//184
f 154//154 184//184 194//194
f 154//154 194//194 195//195
f 154//154 195//195 190//190
f 155//155 193//193 156//156
f 163//163 166//166 196//196
f 164//164 165//165 197//197
f 164//164 197//197 198//198
f 164//164 198//198 199//199
f 164//164 199//199 200//200
f 164//164 200//200 201//201
f 164//164 201//201 202//202
f 164//164 202//202 166//166
f 166//166 202//202 203//203
f 166//166 203//203 196//196
f 168//168 173//173 175//175
f 170//170 173//173 171//171
f 171//171 173//173 172//172
f 173//173 204//204 175//175
f 175//175 204//204 176//176
f 176//176 204//204 177//177
f 177//177 204//204 205//205
f 177//177 205//205 206//206
f 177//177 206//206 179//179
f 177//177 179//179 178//178
f 179//179 206//206 207//207
f 179//179 207//207 181//181
f 179//179 181//181 208//208
f 179//179 208//208 180//180
f 180//180 208//208 181//181
f 181//181 207//207 209//209
f 181//181 209//209 210//210
f 181//181 210//210 211//211
f 181//181 211//211 187//187
f 181//181 187//187 186//186
f 184//184 189//189 212//212
f 184//184 212//212 213//213
f 184//184 213//213 194//194
f 187//187 211//211 188//188
f 188//188 211//211 214//214
f 188//188 214//214 215//215
f 188//188 215//215 189//189
f 189//189 215//215 212//212
f 196//196 203//203 216//216
f 197//197 217//217 199//199
f 197//197 199//199 198//198
f 199//199 217//217 218//218
f 199//199 218//218 219//219
f 199//199 219//219 202//202
f 199//199 202//202 200//200
f 200//200 202//202 201//201
f 202//202 220//220 221//221
f 202//202 221//221 222//222
f 202//202 222//222 223//223
f 202//202 223//223 224//224
f 202//202 224//224 225//225
f 202//202 225//225 226//226
f 202//202 226//226 227//227
f 202//202 227//227 216//216
f 202//202 216//216 203//203
f 202//202 219//219 228//228
f 202//202 228//228 229//229
f 202//202 229//229 230//230
f 202//202 230//230 231//231
f 202//202 231//231 232//232
f 202//202 232//232 220//220
f 204//204 233//233 234//234
f 204//204 234//234 205//205
f 205//205 234//234 235//235
f 205//205 235//235 206//206
f 206//206 209//209 207//207
f 206//206 235//235 209//209
f 209//209 236//236 237//237
f 209//209 237//237 238//238
f 209//209 238//238 210//210
f 209//209 235//235 239//239
f 209//209 239//239 236//236
f 210//210 238//238 211//211
f 211//211 238//238 240//240
f 211//211 240//240 241//241
f 211//211 241//241 214//214
f 212//212 215//215 214//214
f 212//212 214//214 213//213
f 213//213 214//214 242//242
f 214//214 241//241 243//243
f 214//214 243//243 244//244
f 214//214 244//244 242//242
f 216//216 227//227 226//226
f 217//217 245//245 218//218
f 218//218 245//245 219//219
f 219//219 245//245 246//246
f 219//219 246//246 247//247
f 219//219 247//247 248//248
f 219//219 248//248 228//228
f 228//228 248//248 249//249
f 228//228 249//249 250//250
f 228//228 250//250 229//229
f 229//229 250//250 251//251
f 229//229 251//251 252//252
f 229//229 252//252 253//253
f 229//229 253//253 254//254
f 229//229 254//254 230//230
f 233//233 255//255 234//234
f 234//234 255//255 253//253
f 234//234 253//253 256//256
f 234//234 256//256 257//257
f 234//234 257//257 235//235
f 235//235 257//257 239//239
f 236//236 239//239 257//257
f 236//236 257//257 237//237
f 237//237 258//258 240//240
f 237//237 240//240 238//238
f 237//237 257//257 259//259
f 237//237 259//259 260//260
f 237//237 260//260 258//258
f 240//240 261//261 241//241
f 240//240 258//258 261//261
f 241//241 261//261 243//243
f 243//243 261//261 244//244
f 244//244 261//261 262//262
f 246//246 263//263 247//247
f 247//247 263//263 264//264
f 247//247 264//264 265//265
f 247//247 265//265 266//266
f 247//247 266//266 248//248
f 248//248 266//266 267//267
f 248//248 267//267 249//249
f 249//249 260//260 251//251
f 249//249 251//251 250//250
f 249//249 267//267 258//258
f 249//249 258//258 260//260
f 251//251 260//260 253//253
f 251//251 253//253 252//252
f 253//253 260//260 256//256
f 253//253 255//255 268//268
f 253//253 268//268 254//254
f 256//256 260//260 259//259
f 256//256 259//259 257//257
f 258//258 267//267 261//261
f 261//261 269//269 270//270
f 261//261 270//270 262//262
f 261//261 267//267 271//271
f 261//261 271//271 269//269
f 264//264 270//270 269//269
f 264//264 269//269 271//271
f 264//264 271//271 265//265
f 265//265 271//271 266//266
f 266//266 271//271 267//267
