# Created by Open3D 
# object name: part_001
# number of vertices: 158
# number of triangles: 312
v -0.0584831 0.0454569 -0.00497289
vn 0.820824 0.00063024 0.57118
v -0.0584831 0.0448903 -0.00916697
vn -0.780181 0.61717 -0.102074
v -0.0587574 0.0451035 -0.00497289
vn -0.789801 0.607843 -0.0821063
v -0.0584831 0.0252526 -0.00497289
vn 0.928311 -0.211989 0.30545
v -0.0584831 0.0444921 -0.0107062
vn -0.17516 0.933541 -0.312763
v -0.0596176 0.0431234 -0.0100253
vn -0.844234 0.500292 -0.192294
v -0.059132 0.0439872 -0.00916697
vn -0.812317 0.573438 -0.106349
v -0.0599028 0.0434656 -0.00600149
vn -0.808277 0.580584 -0.0980374
v -0.0599594 0.0435385 -0.00497289
vn -0.793876 0.603472 -0.0747121
v -0.0696757 -0.00355622 -0.00497289
vn 0.826097 -0.321302 0.462956
v -0.0584831 0.0122561 -0.028015
vn 0.966364 -0.224421 0.1256
v -0.0584831 0.0438526 -0.0119522
vn -0.693169 0.633483 -0.343827
v -0.0590274 0.0437404 -0.0106302
vn -0.803987 0.529984 -0.269668
v -0.0628948 0.0391129 -0.00497289
vn -0.856065 0.491751 -0.159169
v -0.0611027 0.0413565 -0.00758423
vn -0.850923 0.502493 -0.153071
v -0.0611723 0.0414968 -0.00672223
vn -0.837932 0.531303 -0.124846
v -0.0607869 0.0421923 -0.00611739
vn -0.817772 0.565527 -0.106902
v -0.0647218 0.0293697 -0.021818
vn -0.816247 0.51913 -0.253467
v -0.0657278 0.0285227 -0.0202353
vn -0.822651 0.513642 -0.243757
v -0.0662134 0.0277318 -0.0202353
vn -0.854001 0.481183 -0.197852
v -0.0674176 0.0286349 -0.0125932
vn -0.856642 0.47988 -0.189419
v -0.067509 0.0288593 -0.0115393
vn -0.865453 0.476322 -0.155267
v -0.0607826 0.0423998 -0.00497289
vn -0.816023 0.576718 -0.0387726
v -0.0701286 -0.00468928 -0.00497289
vn 0.877041 -0.368551 0.30817
v -0.0584831 0.0115774 -0.0293514
vn 0.968664 -0.224956 0.105287
v -0.0584831 0.0349845 -0.0279643
vn 0.47869 0.767635 -0.426137
v -0.0596655 0.0336944 -0.0274898
vn -0.781618 0.537356 -0.316735
v -0.0645149 0.0291005 -0.0229879
vn -0.793666 0.530971 -0.296925
v -0.0630516 0.038838 -0.00497289
vn -0.873463 0.476599 -0.099581
v -0.0625878 0.0396289 -0.00497289
vn -0.844242 0.524391 0.110768
v -0.061144 0.041867 -0.00497289
vn -0.833687 0.552221 0.00432364
v -0.061867 0.0407676 -0.00497289
vn -0.838575 0.540944 0.064585
v -0.0655449 0.0280235 -0.0218398
vn -0.833391 0.472079 -0.287403
v -0.066037 0.0274626 -0.0213255
vn -0.840877 0.472183 -0.264516
v -0.0771295 0.00688808 -0.0227416
vn -0.846034 0.391737 -0.361619
v -0.0772449 0.00703392 -0.021818
vn -0.918358 0.392005 -0.0543128
v -0.0689223 0.0269185 -0.00916697
vn -0.877491 0.461355 -0.131002
v -0.0703442 -0.00515484 -0.00497289
vn 0.781631 -0.369773 0.502315
v -0.0584831 0.0112576 -0.0301482
vn 0.955253 -0.279774 0.0960119
v -0.0584831 0.0346984 -0.0284424
vn 0.197986 0.776517 -0.598184
v -0.0629688 0.0260042 -0.0313036
vn -0.774688 0.512741 -0.370074
v -0.0626727 0.0271485 -0.0303221
vn -0.777149 0.513942 -0.363186
v -0.0633172 0.0265651 -0.0297643
vn -0.778822 0.513316 -0.360476
v -0.0643233 0.0256564 -0.0288806
vn -0.787943 0.504396 -0.353171
v -0.0645563 0.025993 -0.0278266
vn -0.797074 0.509728 -0.323806
v -0.0627728 0.0257069 -0.0321113
vn -0.766009 0.505657 -0.396913
v -0.0656276 0.024916 -0.0266459
vn -0.827938 0.46777 -0.309371
v -0.0637854 0.0374806 -0.00497289
vn -0.88127 0.472206 -0.0196008
v -0.0660827 0.0244 -0.0261787
vn -0.834175 0.469564 -0.289241
v -0.0771295 0.00654031 -0.0227416
vn -0.679208 -0.35465 -0.642573
v -0.0801977 -0.00110501 -0.00843174
vn -0.9807 0.0296495 -0.193257
v -0.0803501 -0.000841378 -0.00758423
vn -0.982921 0.109001 -0.148273
v -0.0649308 0.0250394 -0.0282685
vn -0.824875 0.451811 -0.339778
v -0.064578 0.0245178 -0.0297209
vn -0.81962 0.439848 -0.367093
v -0.0643712 0.0241644 -0.0305684
vn -0.816811 0.429685 -0.384955
v -0.0645715 0.023222 -0.0311805
vn -0.816338 0.42632 -0.38967
v -0.0641229 0.0236764 -0.0316223
vn -0.813859 0.424547 -0.396728
v -0.0643929 0.0226219 -0.0321873
vn -0.81476 0.419524 -0.400206
v -0.0637876 0.023222 -0.0327813
vn -0.811479 0.406076 -0.420243
v -0.0641273 0.0220553 -0.0332413
vn -0.809714 0.393795 -0.435073
v -0.0643668 0.0210008 -0.0337121
vn -0.805633 0.372299 -0.460814
v -0.0627598 0.0225265 -0.0352514
vn -0.78892 0.331233 -0.51758
v -0.062971 0.021472 -0.0355484
vn -0.790627 0.299097 -0.534275
v -0.0595849 0.022476 -0.0399779
vn -0.786267 0.279896 -0.550856
v -0.0597308 0.0214215 -0.0401952
vn -0.771304 0.19727 -0.605123
v -0.0592539 0.0201594 -0.041155
vn -0.758286 0.144529 -0.635699
v -0.0584831 0.0201594 -0.0419699
vn 0.883018 -0.00723242 -0.469283
v -0.0805199 -0.000661884 -0.00600149
vn -0.933216 0.359015 -0.0147349
v -0.0728506 0.0186113 -0.00497289
vn -0.912515 0.368865 0.176791
v -0.0702244 0.0248263 -0.00497289
vn -0.914192 0.400106 0.0645578
v -0.0690137 0.0271204 -0.00758423
vn -0.899577 0.430814 -0.0718402
v -0.0706992 -0.00589526 -0.00497289
vn 0.856961 -0.444471 0.260891
v -0.0584831 0.0109323 -0.0312275
vn 0.971201 -0.231038 0.0582155
v -0.0584831 0.0277935 -0.037113
vn 0.965586 0.20314 -0.16241
v -0.0597308 0.0274514 -0.0354832
vn -0.732305 0.533142 -0.423661
v -0.0610787 0.0271204 -0.0334803
vn -0.747025 0.523651 -0.409565
v -0.0613531 0.0275299 -0.0324264
vn -0.755487 0.521994 -0.395932
v -0.0641316 0.0253087 -0.0297209
vn -0.803611 0.45944 -0.378318
v -0.0611331 0.0256115 -0.0351681
vn -0.76466 0.472462 -0.438263
v -0.0628012 0.0241756 -0.0337447
vn -0.787705 0.438721 -0.432487
v -0.0629754 0.024787 -0.0327378
vn -0.805011 0.439216 -0.398806
v -0.063744 0.0247758 -0.0311805
vn -0.806094 0.446937 -0.387891
v -0.0608522 0.0265539 -0.0345705
vn -0.755065 0.500125 -0.423972
v -0.0642579 0.0365719 -0.00497289
vn -0.832749 0.430741 0.347839
v -0.0629057 0.0138379 -0.0369609
vn -0.65751 -0.150207 -0.738321
v -0.0627794 0.0130077 -0.0368522
vn -0.597651 -0.258115 -0.759071
v -0.0642536 0.0117625 -0.0351753
vn -0.579417 -0.335231 -0.742897
v -0.0631104 0.0106743 -0.0355411
vn -0.551984 -0.391141 -0.736425
v -0.0693404 0.00471172 -0.0275985
vn -0.523642 -0.455352 -0.720038
v -0.0708516 0.00185103 -0.0243316
vn -0.440613 -0.589324 -0.677169
v -0.0738392 -0.00119476 -0.019453
vn -0.540678 -0.526999 -0.655698
v -0.0755486 -0.00306823 -0.0165048
vn -0.726244 -0.471241 -0.500502
v -0.0771425 -0.00299531 -0.0133828
vn -0.824156 -0.399392 -0.401563
v -0.08003 -0.0023783 -0.0079935
vn -0.837188 -0.385524 -0.387928
v -0.0801977 -0.00132377 -0.00843174
vn -0.943959 -0.163791 -0.286555
v -0.0591755 0.0185776 -0.0411948
vn -0.677678 -0.102837 -0.728132
v -0.080631 -0.00197443 -0.00600149
vn -0.983353 -0.102174 -0.150254
v -0.0630254 0.023323 -0.0341214
vn -0.801725 0.390124 -0.452813
v -0.062566 0.023323 -0.0349109
vn -0.779999 0.407012 -0.475334
v -0.061107 0.0239456 -0.0367219
vn -0.773582 0.397071 -0.493869
v -0.0584831 0.0248936 -0.0400395
vn 0.948 0.185412 -0.258686
v -0.0594129 0.023323 -0.0397099
vn -0.77758 0.340941 -0.528325
v -0.0584831 0.0234184 -0.0409703
vn 0.997737 0.0304742 -0.05994
v -0.0591712 0.0218646 -0.0407493
vn -0.756045 0.217682 -0.61726
v -0.0584831 0.0217693 -0.0416041
vn 0.999179 0.011647 -0.0387912
v -0.0584831 0.0185776 -0.041796
vn 0.991423 -0.0343152 -0.12611
v -0.0807268 -0.00197443 -0.00497289
vn -0.0628753 -6.74676e-05 0.998021
v -0.080509 -0.000734804 -0.00497289
vn -0.227187 0.0869234 0.969964
v -0.0694209 0.0265427 -0.00497289
vn -0.628244 0.296031 0.719496
v -0.0694296 0.0264137 -0.00600149
vn -0.904655 0.423505 -0.0473698
v -0.0692772 0.0268456 -0.00497289
vn -0.658245 0.336463 0.673429
v -0.0690529 0.0272046 -0.00600149
vn -0.887889 0.458195 -0.0413624
v -0.0709322 -0.00630473 -0.00497289
vn 0.734839 -0.423714 0.529602
v -0.0584831 0.0105677 -0.0328863
vn 0.926486 -0.372562 0.0531101
v -0.0584831 0.0273616 -0.0376309
vn 0.991216 0.0992843 -0.0873656
v -0.0594172 0.0270082 -0.0365371
vn -0.734709 0.508764 -0.448733
v -0.060064 0.026481 -0.0360265
vn -0.751283 0.494266 -0.43735
v -0.0614489 0.024557 -0.0356679
vn -0.771282 0.427685 -0.471392
v -0.0597678 0.0259537 -0.0371022
vn -0.756916 0.460688 -0.463514
v -0.0623548 0.0119532 -0.0366748
vn -0.442191 -0.396987 -0.804281
v -0.0596938 0.0160984 -0.0400829
vn -0.516629 -0.313891 -0.796597
v -0.0627903 0.00987217 -0.0352767
vn -0.196309 -0.702378 -0.684199
v -0.0682995 0.00381425 -0.0271168
vn -0.0912258 -0.770397 -0.631005
v -0.0738871 -0.00435834 -0.0162984
vn -0.165425 -0.765933 -0.621274
v -0.074941 -0.00412275 -0.015976
vn -0.443728 -0.676622 -0.587612
v -0.0771186 -0.0109323 -0.00538578
vn -0.769356 -0.467858 -0.434973
v -0.0772013 -0.0111623 -0.00497289
vn -0.0690883 -0.0309157 0.997131
v -0.0801977 -0.00284947 -0.00693954
vn -0.897618 -0.361951 -0.251544
v -0.080337 -0.00190152 -0.00751179
vn -0.943213 -0.232272 -0.237487
v -0.0803936 -0.00347209 -0.00497289
vn -0.0698137 -0.019718 0.997365
v -0.0594368 0.0253816 -0.0381561
vn -0.764013 0.424021 -0.486303
v -0.0590666 0.0248711 -0.0391521
vn -0.770495 0.402322 -0.494444
v -0.0584831 0.0259705 -0.0390978
vn 0.996544 0.0552237 -0.0620527
v -0.0584831 0.0173156 -0.0413361
vn 0.989928 -0.0666327 -0.12491
v -0.0717988 -0.00780238 -0.00497289
vn 0.73069 -0.426505 0.533091
v -0.0584831 0.0105453 -0.0344655
vn 0.965259 -0.259852 -0.0274178
v -0.0736889 -0.0110277 -0.00497289
vn 0.722592 -0.561024 0.403873
v -0.0584831 0.0263912 -0.0387066
vn 0.96213 0.194793 -0.190686
v -0.0590906 0.026481 -0.0376309
vn -0.740171 0.491781 -0.458583
v -0.0613008 0.0114091 -0.0368957
vn -0.332387 -0.477661 -0.81324
v -0.0603906 0.0113081 -0.0370152
vn -0.0823223 -0.663866 -0.743307
v -0.0588097 0.0112913 -0.0370478
vn 0.032716 -0.799816 -0.599353
v -0.0626553 0.00987217 -0.0352767
vn 0.0227785 -0.804539 -0.593463
v -0.0719861 -0.00300092 -0.0181781
vn 0.112205 -0.831328 -0.544338
v -0.0682995 0.00318041 -0.0263236
vn -0.0641084 -0.780069 -0.622401
v -0.0737935 -0.00435834 -0.0162984
vn 0.0633399 -0.838391 -0.541377
v -0.076204 -0.0118466 -0.00497289
vn -0.0200916 -0.63698 0.770619
v -0.0763173 -0.0117905 -0.00497289
vn -0.115061 -0.176872 0.977485
v -0.0801781 -0.00410032 -0.00497289
vn -0.00723524 -0.00270512 0.99997
v -0.0801127 -0.00420689 -0.00508154
vn -0.896471 -0.377876 -0.231406
v -0.0584831 0.015773 -0.040369
vn 0.99932 -0.0199013 -0.0310243
v -0.0603906 0.0122561 -0.0376853
vn -0.198272 -0.532541 -0.822854
v -0.0584831 0.0108987 -0.0360228
vn 0.913846 -0.384165 -0.131543
v -0.0746231 -0.0116335 -0.00497289
vn 0.281188 -0.954448 0.0998134
v -0.0584831 0.0129292 -0.0385074
vn 0.998995 -0.0250713 -0.0371593
v -0.0584831 0.0129123 -0.0384929
vn 0.999167 -0.027178 -0.0304441
v -0.0584831 0.0113249 -0.0370152
vn 0.724633 -0.592003 -0.35276
v -0.0595261 0.0130806 -0.038406
vn -0.16505 -0.540186 -0.825201
f 1//1 2//2 3//3
f 1//1 3//3 9//9
f 1//1 9//9 23//23
f 1//1 23//23 31//31
f 1//1 31//31 32//32
f 1//1 32//32 30//30
f 1//1 30//30 14//14
f 1//1 14//14 29//29
f 1//1 29//29 48//48
f 1//1 48//48 84//84
f 1//1 84//84 111//111
f 1//1 111//111 109//109
f 1//1 109//109 70//70
f 1//1 70//70 69//69
f 1//1 69//69 108//108
f 1//1 108//108 107//107
f 1//1 107//107 130//130
f 1//1 130//130 149//149
f 1//1 149//149 127//127
f 1//1 127//127 148//148
f 1//1 148//148 147//147
f 1//1 147//147 154//154
f 1//1 154//154 137//137
f 1//1 137//137 135//135
f 1//1 135//135 113//113
f 1//1 113//113 72//72
f 1//1 72//72 38//38
f 1//1 38//38 24//24
f 1//1 24//24 10//10
f 1//1 10//10 4//4
f 1//1 4//4 11//11
f 1//1 11//11 25//25
f 1//1 25//25 39//39
f 1//1 39//39 73//73
f 1//1 73//73 114//114
f 1//1 114//114 136//136
f 1//1 136//136 153//153
f 1//1 153//153 157//157
f 1//1 157//157 156//156
f 1//1 156//156 155//155
f 1//1 155//155 151//151
f 1//1 151//151 134//134
f 1//1 134//134 106//106
f 1//1 106//106 67//67
f 1//1 67//67 105//105
f 1//1 105//105 103//103
f 1//1 103//103 101//101
f 1//1 101//101 133//133
f 1//1 133//133 138//138
f 1//1 138//138 115//115
f 1//1 115//115 74//74
f 1//1 74//74 40//40
f 1//1 40//40 26//26
f 1//1 26//26 12//12
f 1//1 12//12 5//5
f 1//1 5//5 2//2
f 2//2 5//5 6//6
f 2//2 6//6 7//7
f 2//2 7//7 8//8
f 2//2 8//8 9//9
f 2//2 9//9 3//3
f 4//4 10//10 11//11
f 5//5 12//12 13//13
f 5//5 13//13 6//6
f 6//6 14//14 15//15
f 6//6 15//15 16//16
f 6//6 16//16 17//17
f 6//6 17//17 7//7
f 6//6 13//13 18//18
f 6//6 18//18 19//19
f 6//6 19//19 20//20
f 6//6 20//20 21//21
f 6//6 21//21 22//22
f 6//6 22//22 14//14
f 7//7 17//17 8//8
f 8//8 17//17 23//23
f 8//8 23//23 9//9
f 10//10 24//24 11//11
f 11//11 24//24 25//25
f 12//12 26//26 27//27
f 12//12 27//27 28//28
f 12//12 28//28 13//13
f 13//13 28//28 18//18
f 14//14 30//30 16//16
f 14//14 16//16 15//15
f 14//14 22//22 29//29
f 16//16 31//31 17//17
f 16//16 30//30 32//32
f 16//16 32//32 31//31
f 17//17 31//31 23//23
f 18//18 28//28 33//33
f 18//18 33//33 19//19
f 19//19 33//33 20//20
f 20//20 33//33 34//34
f 20//20 34//34 35//35
f 20//20 35//35 21//21
f 21//21 35//35 36//36
f 21//21 36//36 22//22
f 22//22 36//36 37//37
f 22//22 37//37 29//29
f 24//24 38//38 39//39
f 24//24 39//39 25//25
f 26//26 40//40 27//27
f 27//27 41//41 42//42
f 27//27 42//42 43//43
f 27//27 43//43 44//44
f 27//27 44//44 45//45
f 27//27 45//45 28//28
f 27//27 40//40 46//46
f 27//27 46//46 41//41
f 28//28 45//45 47//47
f 28//28 47//47 33//33
f 29//29 37//37 48//48
f 33//33 47//47 49//49
f 33//33 49//49 35//35
f 33//33 35//35 34//34
f 35//35 50//50 95//95
f 35//35 95//95 51//51
f 35//35 51//51 52//52
f 35//35 52//52 36//36
f 35//35 49//49 47//47
f 35//35 47//47 53//53
f 35//35 53//53 54//54
f 35//35 54//54 55//55
f 35//35 55//55 56//56
f 35//35 56//56 57//57
f 35//35 57//57 58//58
f 35//35 58//58 59//59
f 35//35 59//59 60//60
f 35//35 60//60 61//61
f 35//35 61//61 62//62
f 35//35 62//62 63//63
f 35//35 63//63 64//64
f 35//35 64//64 65//65
f 35//35 65//65 66//66
f 35//35 66//66 67//67
f 35//35 67//67 50//50
f 36//36 52//52 68//68
f 36//36 68//68 69//69
f 36//36 69//69 70//70
f 36//36 70//70 71//71
f 36//36 71//71 37//37
f 37//37 71//71 48//48
f 38//38 72//72 39//39
f 39//39 72//72 73//73
f 40//40 74//74 75//75
f 40//40 75//75 76//76
f 40//40 76//76 77//77
f 40//40 77//77 46//46
f 41//41 43//43 42//42
f 41//41 46//46 44//44
f 41//41 44//44 43//43
f 44//44 46//46 78//78
f 44//44 78//78 54//54
f 44//44 54//54 53//53
f 44//44 53//53 45//45
f 45//45 53//53 47//47
f 46//46 79//79 80//80
f 46//46 80//80 81//81
f 46//46 81//81 82//82
f 46//46 82//82 78//78
f 46//46 77//77 76//76
f 46//46 76//76 83//83
f 46//46 83//83 79//79
f 48//48 71//71 84//84
f 50//50 85//85 86//86
f 50//50 86//86 87//87
f 50//50 87//87 88//88
f 50//50 88//88 89//89
f 50//50 89//89 90//90
f 50//50 90//90 91//91
f 50//50 91//91 92//92
f 50//50 92//92 93//93
f 50//50 93//93 94//94
f 50//50 94//94 95//95
f 50//50 67//67 96//96
f 50//50 96//96 85//85
f 51//51 95//95 52//52
f 52//52 95//95 97//97
f 52//52 97//97 68//68
f 54//54 78//78 82//82
f 54//54 82//82 55//55
f 55//55 82//82 57//57
f 55//55 57//57 56//56
f 57//57 82//82 81//81
f 57//57 81//81 80//80
f 57//57 80//80 59//59
f 57//57 59//59 58//58
f 59//59 80//80 60//60
f 60//60 80//80 98//98
f 60//60 98//98 61//61
f 61//61 98//98 62//62
f 62//62 64//64 63//63
f 62//62 98//98 99//99
f 62//62 99//99 100//100
f 62//62 100//100 101//101
f 62//62 101//101 102//102
f 62//62 102//102 64//64
f 64//64 102//102 103//103
f 64//64 103//103 104//104
f 64//64 104//104 65//65
f 65//65 104//104 66//66
f 66//66 104//104 105//105
f 66//66 105//105 67//67
f 67//67 106//106 96//96
f 68//68 97//97 107//107
f 68//68 107//107 108//108
f 68//68 108//108 69//69
f 70//70 109//109 110//110
f 70//70 110//110 71//71
f 71//71 110//110 109//109
f 71//71 109//109 111//111
f 71//71 111//111 112//112
f 71//71 112//112 84//84
f 72//72 113//113 114//114
f 72//72 114//114 73//73
f 74//74 115//115 116//116
f 74//74 116//116 75//75
f 75//75 116//116 117//117
f 75//75 117//117 83//83
f 75//75 83//83 76//76
f 79//79 118//118 80//80
f 79//79 83//83 117//117
f 79//79 117//117 119//119
f 79//79 119//119 118//118
f 80//80 99//99 98//98
f 80//80 118//118 99//99
f 84//84 112//112 111//111
f 85//85 96//96 106//106
f 85//85 106//106 86//86
f 86//86 120//120 88//88
f 86//86 88//88 87//87
f 86//86 106//106 121//121
f 86//86 121//121 120//120
f 88//88 122//122 89//89
f 88//88 120//120 122//122
f 89//89 122//122 90//90
f 90//90 123//123 124//124
f 90//90 124//124 125//125
f 90//90 125//125 91//91
f 90//90 122//122 123//123
f 91//91 125//125 92//92
f 92//92 125//125 126//126
f 92//92 126//126 93//93
f 93//93 126//126 94//94
f 94//94 126//126 127//127
f 94//94 127//127 128//128
f 94//94 128//128 129//129
f 94//94 129//129 95//95
f 95//95 129//129 97//97
f 97//97 129//129 128//128
f 97//97 128//128 130//130
f 97//97 130//130 107//107
f 99//99 118//118 100//100
f 100//100 118//118 131//131
f 100//100 131//131 132//132
f 100//100 132//132 101//101
f 101//101 103//103 102//102
f 101//101 132//132 131//131
f 101//101 131//131 133//133
f 103//103 105//105 104//104
f 106//106 134//134 121//121
f 113//113 135//135 114//114
f 114//114 135//135 137//137
f 114//114 137//137 136//136
f 115//115 138//138 116//116
f 116//116 138//138 139//139
f 116//116 139//139 119//119
f 116//116 119//119 117//117
f 118//118 119//119 131//131
f 119//119 139//139 138//138
f 119//119 138//138 131//131
f 120//120 140//140 122//122
f 120//120 121//121 134//134
f 120//120 134//134 140//140
f 122//122 140//140 141//141
f 122//122 141//141 142//142
f 122//122 142//142 143//143
f 122//122 143//143 144//144
f 122//122 144//144 124//124
f 122//122 124//124 145//145
f 122//122 145//145 123//123
f 123//123 145//145 124//124
f 124//124 144//144 146//146
f 124//124 146//146 147//147
f 124//124 147//147 125//125
f 125//125 147//147 148//148
f 125//125 148//148 126//126
f 126//126 148//148 127//127
f 127//127 149//149 150//150
f 127//127 150//150 128//128
f 128//128 149//149 130//130
f 128//128 150//150 149//149
f 131//131 138//138 133//133
f 134//134 151//151 152//152
f 134//134 152//152 140//140
f 136//136 137//137 153//153
f 137//137 154//154 153//153
f 140//140 152//152 141//141
f 141//141 152//152 155//155
f 141//141 155//155 156//156
f 141//141 156//156 142//142
f 142//142 156//156 157//157
f 142//142 157//157 144//144
f 142//142 144//144 143//143
f 144//144 157//157 154//154
f 144//144 154//154 147//147
f 144//144 147//147 146//146
f 151//151 155//155 158//158
f 151//151 158//158 152//152
f 152//152 158//158 155//155
f 153//153 154//154 157//157
