# Created by Open3D 
# object name: part_020
# number of vertices: 316
# number of triangles: 628
v -0.00149753 0.0315474 -0.0534456
vn -0.964087 -0.26539 0.0102252
v -0.00149753 0.0317301 -0.0518636
vn -0.0908236 -0.987662 0.127577
v -0.00149753 0.0316119 -0.0546501
vn -0.109705 -0.9925 -0.0539385
v 0.00761622 0.0307978 -0.0581896
vn -0.00243516 -0.993146 -0.116858
v 0.00761622 0.0308301 -0.0566076
vn -0.0691538 -0.9973 0.0247243
v 0.020384 0.0301477 -0.0487035
vn 0.937342 -0.348253 0.0104793
v -0.00149753 0.0317784 -0.0516563
vn -0.111744 -0.966913 0.22933
v 0.020384 0.030153 -0.0486625
vn -0.103886 -0.965474 0.238888
v -0.00149753 0.0316334 -0.0550276
vn -0.148564 -0.980675 -0.127297
v 0.0060355 0.0310047 -0.0581896
vn -0.149293 -0.96863 -0.198665
v 0.0060355 0.0314453 -0.0597715
vn -0.154587 -0.9373 -0.312366
v 0.00761622 0.0313325 -0.0597715
vn 0.0610769 -0.910829 -0.40824
v 0.0123584 0.0311901 -0.0581896
vn 0.131059 -0.956088 -0.262145
v 0.020384 0.0303599 -0.050178
vn 0.102546 -0.974984 -0.197207
v 0.020384 0.0303035 -0.0497908
vn 0.0553713 -0.988279 -0.142263
v -0.00149753 0.0319504 -0.0509347
vn -0.133764 -0.930447 0.34114
v 0.020384 0.0305399 -0.0471568
vn -0.107314 -0.953342 0.282175
v -0.00149753 0.0318913 -0.0566721
vn -0.174294 -0.960778 -0.215702
v 0.0060355 0.0319262 -0.0606339
vn -0.0484533 -0.577212 -0.815155
v -0.00149753 0.0320014 -0.0570476
vn -0.245172 -0.922165 -0.299168
v 0.00190808 0.031988 -0.0590363
vn -0.206059 -0.896777 -0.391575
v 0.00519374 0.0320041 -0.0605811
vn -0.218611 -0.519471 -0.82605
v 0.00761622 0.0318993 -0.0606515
vn 0.0185579 -0.569082 -0.822071
v 0.00865718 0.0319665 -0.0606026
vn 0.164465 -0.529668 -0.832108
v 0.0107776 0.0316629 -0.0596288
vn 0.112201 -0.852785 -0.510068
v 0.0123584 0.0317435 -0.0594156
vn 0.18362 -0.782401 -0.59509
v 0.020384 0.0312384 -0.0533087
vn 0.210416 -0.936381 -0.280921
v 0.020384 0.0307871 -0.0517482
vn 0.19072 -0.945137 -0.265219
v 0.0139669 0.0315958 -0.05826
vn 0.210853 -0.893412 -0.39668
v 0.0186834 0.0318349 -0.0562556
vn 0.205455 -0.911226 -0.357008
v 0.020384 0.0317328 -0.0549005
vn 0.217762 -0.929612 -0.297323
v 0.020384 0.030693 -0.046838
vn -0.150929 -0.709313 0.688546
v -0.00149753 0.0324608 -0.0501467
vn -0.198142 -0.810378 0.551386
v 0.0060355 0.0328155 -0.0607571
vn -0.0631639 -0.069417 -0.995586
v 0.00761622 0.0328155 -0.0607982
vn 0.0109938 0.00229891 -0.999937
v -0.00149753 0.0322002 -0.0575286
vn -0.464092 -0.815018 -0.346936
v -0.00149753 0.0324501 -0.0581016
vn -0.455862 -0.733567 -0.504054
v -0.00149753 0.033111 -0.0589718
vn -0.509066 -0.684972 -0.521214
v -0.00149753 0.0333206 -0.0592455
vn -0.62856 -0.470217 -0.619523
v -0.00149753 0.0341158 -0.0597344
vn -0.660526 -0.385806 -0.644095
v -0.00149753 0.0343979 -0.0598908
vn -0.698589 -0.248464 -0.670998
v -0.00149753 0.0356525 -0.0603034
vn -0.704391 -0.220618 -0.674656
v -0.00149753 0.0360663 -0.0604364
vn -0.455485 -0.105821 -0.883932
v 0.00919051 0.0328773 -0.0606535
vn 0.0989199 -0.106597 -0.989369
v 0.0104842 0.0334441 -0.0605792
vn 0.15013 -0.0728371 -0.98598
v 0.0109169 0.0328773 -0.0604481
vn 0.227011 -0.162536 -0.960233
v 0.0123584 0.0328155 -0.0600297
vn 0.303525 -0.273954 -0.912591
v 0.0134593 0.0318832 -0.0591438
vn 0.339429 -0.537155 -0.772174
v 0.0177302 0.032082 -0.0573448
vn 0.34738 -0.664189 -0.661952
v 0.0196815 0.0319584 -0.0559271
vn 0.377769 -0.755375 -0.535443
v 0.020384 0.0317784 -0.05501
vn 0.932034 -0.319611 -0.170766
v 0.020384 0.0315366 -0.0460421
vn -0.00377021 -0.563932 0.825813
v -0.00149753 0.0418533 -0.040821
vn -0.242234 -0.272885 0.931051
v -0.00149753 0.0332507 -0.0491553
vn -0.235504 -0.682799 0.691609
v -0.00149753 0.0326489 -0.0499081
vn -0.21365 -0.764069 0.60873
v 0.00016672 0.0365123 -0.0605948
vn -0.0685909 -0.0511045 -0.996335
v 0.00016672 0.0369206 -0.0605948
vn -0.0300194 0.0116184 -0.999482
v 0.00761622 0.0340943 -0.0607082
vn 0.0299907 0.0850304 -0.995927
v 0.00919693 0.0339439 -0.0606437
vn 0.0584814 0.127709 -0.990086
v 0.0104842 0.033737 -0.0605792
vn 0.112256 0.0425941 -0.992766
v 0.00128907 0.0370308 -0.0606183
vn -0.00296885 0.0974268 -0.995238
v -0.00149753 0.037055 -0.060456
vn -0.957293 -0.00282664 -0.289105
v 0.0123584 0.0343979 -0.0601392
vn 0.276961 0.0372556 -0.960159
v 0.0152413 0.0343979 -0.0591634
vn 0.333532 -0.0632216 -0.940616
v 0.0149843 0.0332991 -0.0590969
vn 0.376902 -0.226251 -0.898196
v 0.0139669 0.0327886 -0.0593237
vn 0.37173 -0.372206 -0.850458
v 0.0182528 0.0331352 -0.0575931
vn 0.403625 -0.328821 -0.853794
v 0.020384 0.0328155 -0.0562517
vn 0.899893 -0.188062 -0.393479
v 0.020384 0.0327429 -0.056195
vn 0.902098 -0.269168 -0.337296
v 0.020384 0.0325925 -0.0560737
vn 0.865097 -0.354471 -0.354905
v 0.020384 0.031902 -0.0552172
vn 0.972827 -0.183873 -0.140707
v 0.020384 0.0394702 -0.0408601
vn 0.999993 -0.00182591 0.00325462
v 0.0203755 0.0395052 -0.040821
vn -0.0516578 -0.488629 0.870961
v -0.00149753 0.0575915 -0.040821
vn -0.999999 5.47113e-05 0.00141409
v -0.00149753 0.037458 -0.060454
vn -0.935749 0.0582129 -0.347828
v 0.00227648 0.0369663 -0.0606046
vn 0.0676338 0.206255 -0.976158
v 0.0109169 0.0343173 -0.0604755
vn 0.0938044 0.165289 -0.981774
v -0.00149753 0.0387395 -0.0601959
vn -0.893543 0.092032 -0.439444
v 0.00128907 0.0378206 -0.0604462
vn 0.00494118 0.233022 -0.972459
v 0.0123584 0.0359803 -0.0599065
vn 0.202457 0.192421 -0.960201
v 0.0150186 0.0370765 -0.0590539
vn 0.254521 0.163794 -0.953095
v 0.0152671 0.0359803 -0.0591321
vn 0.263825 0.12548 -0.956374
v 0.0160574 0.0359803 -0.0589111
vn 0.309146 0.0636977 -0.948879
v 0.0160317 0.0343979 -0.0588544
vn 0.364795 -0.0977717 -0.92594
v 0.0171027 0.0359803 -0.0585455
vn 0.377292 0.0322248 -0.925534
v 0.0171027 0.0343979 -0.0584301
vn 0.395017 -0.145285 -0.907113
v 0.020384 0.0344758 -0.0569674
vn 0.912454 -0.0842104 -0.400419
v 0.020384 0.034328 -0.0569107
vn 0.956423 -0.115583 -0.268135
v 0.020384 0.0408431 -0.040821
vn 0.338662 -9.80702e-07 0.940908
v -0.00147825 0.0575915 -0.040821
vn 0.000344528 0.0386611 0.999252
v -0.00149753 0.057218 -0.0414155
vn -0.995969 0.0750447 -0.0491298
v 0.00128907 0.0391425 -0.0601059
vn 0.062541 0.27278 -0.960041
v 0.0107776 0.03756 -0.0598028
vn 0.0904533 0.253927 -0.962985
v 0.0107776 0.0359803 -0.0601783
vn 0.0876276 0.205941 -0.974633
v -0.00149753 0.0391425 -0.0601079
vn -0.783218 0.179718 -0.595207
v 0.0123584 0.03756 -0.059531
vn 0.18616 0.246422 -0.951116
v 0.0139434 0.0375869 -0.0591751
vn 0.211498 0.225019 -0.951123
v 0.0144746 0.0381323 -0.0589268
vn 0.220757 0.252928 -0.941963
v 0.0155369 0.0375869 -0.0587977
vn 0.269022 0.242524 -0.932099
v 0.0171027 0.03756 -0.0583245
vn 0.341435 0.180609 -0.92239
v 0.020384 0.0374741 -0.0570026
vn 0.888818 0.0737406 -0.452288
v 0.020384 0.0372457 -0.0570241
vn 0.952825 0.0257343 -0.302429
v 0.020384 0.0359803 -0.0571297
vn 0.917971 -0.0100493 -0.39652
v 0.0195358 0.0350776 -0.057423
vn 0.407136 -0.0972174 -0.908179
v 0.0187412 0.0344892 -0.0577066
vn 0.406769 -0.113018 -0.906513
v 0.020384 0.0541983 -0.040821
vn 0.359568 8.26979e-05 0.933119
v -0.000291645 0.0575807 -0.040821
vn 0.00203701 0.106942 0.994263
v -0.000291645 0.0572127 -0.0414057
vn 0.0155577 0.8365 -0.547746
v -0.00149753 0.0540666 -0.0461829
vn -0.941544 0.280511 -0.186573
v 0.00128907 0.0407249 -0.0595858
vn 0.0135649 0.335816 -0.94183
v 0.00287193 0.0407249 -0.0595017
vn 0.0735331 0.311572 -0.947373
v 0.00919693 0.0391425 -0.0594802
vn 0.0781691 0.284539 -0.955472
v 0.0109233 0.0392956 -0.059267
vn 0.117729 0.288826 -0.950116
v 0.0123584 0.0388899 -0.0591477
vn 0.171644 0.279058 -0.944809
v -0.00149753 0.0407249 -0.0595799
vn -0.915047 0.144807 -0.376458
v 0.0134207 0.0385487 -0.0590363
vn 0.194208 0.267172 -0.943876
v 0.0139434 0.0391022 -0.0587684
vn 0.203836 0.283288 -0.937123
v 0.0155219 0.0391425 -0.0583753
vn 0.250428 0.28669 -0.924713
v 0.0171027 0.0391425 -0.057908
vn 0.282698 0.252664 -0.925334
v 0.0179316 0.039978 -0.0574132
vn 0.321385 0.268341 -0.908132
v 0.0181907 0.0391425 -0.0575286
vn 0.350136 0.222845 -0.909805
v 0.020384 0.0391425 -0.0566741
vn 0.91315 0.10116 -0.394873
v 0.020384 0.0390243 -0.0566975
vn 0.957344 0.0558248 -0.283508
v 0.020384 0.0539538 -0.0412258
vn 0.999944 0.00902792 -0.00549151
v 0.0203198 0.0542198 -0.040821
vn 0.0145207 0.0449384 0.998884
v 0.00014316 0.0575673 -0.040821
vn 0.00114154 0.0353471 0.999374
v 0.00128907 0.0571885 -0.0413666
vn 0.028143 0.842774 -0.537531
v 0.00287193 0.0558613 -0.0433475
vn 0.0242311 0.834476 -0.550511
v -0.000291645 0.0565679 -0.0423776
vn 0.0165571 0.833127 -0.552833
v 0.00287193 0.0553347 -0.0441375
vn 0.0334958 0.826765 -0.561549
v -0.000291645 0.0540505 -0.0461575
vn 0.0238853 0.824268 -0.565696
v -0.00149753 0.0539081 -0.0464117
vn -0.985614 0.138622 -0.0966943
v 0.00128907 0.0418156 -0.059136
vn 0.0040044 0.423121 -0.906064
v 0.00287193 0.0417727 -0.0591106
vn 0.0654535 0.40289 -0.912905
v 0.00919693 0.0411118 -0.0588388
vn 0.0808828 0.343372 -0.93571
v 0.00919693 0.0403219 -0.0591145
vn 0.0815938 0.30768 -0.947985
v 0.0115487 0.0399243 -0.0589776
vn 0.144143 0.298505 -0.94346
v 0.0104949 0.0401258 -0.059048
vn 0.102831 0.321725 -0.941233
v 0.0123584 0.0407249 -0.0585943
vn 0.164927 0.310084 -0.936294
v -0.00149753 0.041778 -0.0591243
vn -0.923569 0.173524 -0.34192
v 0.0139391 0.0407249 -0.0582678
vn 0.220893 0.322122 -0.920567
v 0.0156312 0.0408458 -0.0577691
vn 0.250862 0.320898 -0.913287
v 0.0171027 0.0403165 -0.0575364
vn 0.258743 0.310811 -0.914576
v 0.0171027 0.0411064 -0.0572607
vn 0.278005 0.337701 -0.899261
v 0.0185484 0.0405932 -0.0569733
vn 0.311494 0.343875 -0.885845
v 0.020384 0.0408377 -0.0562028
vn 0.97375 0.0670879 -0.217508
v 0.020384 0.053892 -0.0413236
vn 0.999972 0.00621891 -0.00407878
v 0.0202662 0.0539699 -0.041263
vn 0.236585 0.819133 -0.522541
v 0.0202662 0.0542359 -0.040821
vn 0.00681733 0.0242169 0.999683
v 0.00128907 0.0575297 -0.040821
vn 0.00118302 0.0353396 0.999375
v 0.00287193 0.0574759 -0.040821
vn 0.0022786 0.0503193 0.998731
v 0.00287193 0.0571589 -0.0413216
vn 0.0438933 0.842646 -0.536676
v 0.00287193 0.0564846 -0.0423776
vn 0.0491874 0.841096 -0.538644
v 0.00445264 0.0558076 -0.0432634
vn 0.0705173 0.838157 -0.540852
v 0.00445264 0.0552837 -0.0440534
vn 0.0834873 0.82581 -0.557734
v 0.00445264 0.0544938 -0.0452072
vn 0.0671987 0.817173 -0.572462
v 0.00287193 0.0545448 -0.0452815
vn 0.0452308 0.817662 -0.573919
v 0.00128907 0.0540236 -0.0461282
vn 0.0285127 0.821953 -0.568841
v -0.000291645 0.0533789 -0.0471216
vn 0.0241925 0.817518 -0.575395
v -0.00149753 0.0534111 -0.0471216
vn -0.996427 0.069106 -0.0485625
v 0.00128907 0.0426055 -0.0587039
vn -0.00320653 0.53809 -0.842881
v 0.00287193 0.0425625 -0.0586882
vn 0.0424159 0.521132 -0.852422
v 0.0107776 0.0434867 -0.0576772
vn 0.0563602 0.532509 -0.844546
v 0.0107776 0.0423046 -0.0582541
vn 0.0905935 0.383617 -0.919038
v 0.0109233 0.0406819 -0.0588075
vn 0.123747 0.325066 -0.93756
v 0.0123584 0.0423046 -0.0580312
vn 0.177718 0.365479 -0.913697
v -0.00149753 0.0425706 -0.0586745
vn -0.965409 0.138119 -0.221152
v 0.013862 0.0423261 -0.0576616
vn 0.226028 0.373207 -0.899793
v 0.0151792 0.041813 -0.0575267
vn 0.241107 0.357622 -0.902205
v 0.016233 0.041453 -0.057378
vn 0.253307 0.350115 -0.901806
v 0.0171027 0.0423046 -0.0567894
vn 0.274991 0.396995 -0.875657
v 0.0187026 0.0423449 -0.0562165
vn 0.309704 0.379764 -0.871701
v 0.0199171 0.0418452 -0.0559897
vn 0.319885 0.379733 -0.86803
v 0.020384 0.0416571 -0.0558977
vn 0.97354 0.0964855 -0.20715
v 0.020384 0.0531317 -0.0424793
vn 0.993149 0.0973743 -0.0645958
v 0.0192574 0.0541069 -0.0414918
vn 0.228588 0.822437 -0.520908
v 0.0155219 0.0555684 -0.040821
vn 0.0439998 0.159344 0.986242
v 0.017199 0.0550983 -0.040821
vn 0.00680713 0.0242352 0.999683
v 0.0186834 0.0528926 -0.0436115
vn 0.223162 0.808264 -0.544892
v 0.0187112 0.0537469 -0.0422974
vn 0.225918 0.817544 -0.529701
v 0.00445264 0.0573712 -0.040821
vn 0.0257436 0.271093 0.962209
v 0.0053094 0.0557565 -0.0431832
vn 0.117813 0.832339 -0.541602
v 0.0060355 0.054389 -0.04508
vn 0.112821 0.823675 -0.555726
v 0.0060355 0.053849 -0.0458701
vn 0.106118 0.81772 -0.565749
v 0.00494099 0.0525621 -0.0478822
vn 0.0769856 0.811858 -0.578758
v 0.00287193 0.0526347 -0.0479859
vn 0.0517183 0.81461 -0.577698
v 0.00128907 0.0526776 -0.0480426
vn 0.035325 0.812801 -0.581469
v 0.00128907 0.0533278 -0.0471216
vn 0.0330192 0.817598 -0.574842
v -0.000291645 0.0527018 -0.0480719
vn 0.0200369 0.809555 -0.586701
v -0.00149753 0.0532499 -0.0473484
vn -0.985762 0.13669 -0.0979231
v -0.00149753 0.0434625 -0.0580722
vn -0.966838 0.143028 -0.211584
v -0.00149753 0.0437393 -0.0578845
vn -0.863911 0.292729 -0.409838
v 0.00128907 0.043742 -0.0579119
vn -0.00212874 0.599709 -0.800216
v 0.00287193 0.043742 -0.0578982
vn 0.0349344 0.581492 -0.812801
v 0.00445264 0.0444673 -0.0572509
vn 0.0418091 0.624133 -0.780199
v 0.0107776 0.0442766 -0.0570613
vn 0.0627451 0.649322 -0.757921
v 0.0123584 0.0433175 -0.057554
vn 0.167705 0.54634 -0.820602
v 0.0132815 0.0431455 -0.0574328
vn 0.219422 0.472736 -0.853449
v 0.0156312 0.0423261 -0.0571844
vn 0.241898 0.388184 -0.889269
v 0.0143375 0.0428661 -0.0572959
vn 0.243942 0.458742 -0.854428
v 0.0181864 0.0432449 -0.0559466
vn 0.298279 0.583254 -0.755543
v 0.0192403 0.0428984 -0.0556944
vn 0.374016 0.530191 -0.760927
v 0.0203733 0.0423449 -0.0554988
vn 0.388038 0.526887 -0.756186
v 0.020384 0.0423288 -0.0555027
vn 1 0.000451014 -0.000766324
v 0.020384 0.0526212 -0.0432223
vn 0.997329 0.0597089 -0.0420692
v 0.0198528 0.0527153 -0.0433495
vn 0.253079 0.794482 -0.552041
v 0.0155219 0.0554046 -0.0410733
vn 0.209724 0.814079 -0.541564
v 0.0147187 0.0557673 -0.040821
vn 0.0112964 0.0459593 0.998879
v 0.0196815 0.0495021 -0.048025
vn 0.250715 0.782475 -0.569979
v 0.0186834 0.0523391 -0.0444035
vn 0.224127 0.796737 -0.561228
v 0.0175139 0.0525003 -0.0446342
vn 0.206873 0.804306 -0.557042
v 0.0147744 0.0541768 -0.0431871
vn 0.205463 0.811664 -0.546797
v 0.0060355 0.0571724 -0.040821
vn 0.0221581 0.156908 0.987365
v 0.0123669 0.0562535 -0.040821
vn 0.0717468 0.484599 0.871789
v 0.0107776 0.0540559 -0.0445775
vn 0.122693 0.831972 -0.541081
v 0.0107776 0.0534192 -0.0455396
vn 0.11959 0.824917 -0.552458
v 0.0107776 0.0527341 -0.0465467
vn 0.11494 0.818748 -0.56253
v 0.00951179 0.0509394 -0.0494017
vn 0.113101 0.814872 -0.5685
v 0.00845798 0.0510066 -0.0495033
vn 0.0990119 0.81314 -0.573585
v 0.0060355 0.0530591 -0.0469945
vn 0.0960073 0.81403 -0.572833
v 0.00761622 0.0510549 -0.0495679
vn 0.0908325 0.806687 -0.583956
v 0.0060355 0.0511463 -0.0496872
vn 0.0838784 0.798497 -0.596127
v 0.00445264 0.0512188 -0.0497888
vn 0.0683312 0.804281 -0.590308
v 0.00287193 0.0512779 -0.0498729
vn 0.0486331 0.808494 -0.586491
v 0.00287193 0.0520678 -0.0487759
vn 0.0512483 0.810859 -0.582994
v 0.00128907 0.0513128 -0.0499238
vn 0.0292008 0.808427 -0.587871
v -0.00149753 0.0527153 -0.0480876
vn -0.94105 0.2731 -0.199604
v 0.00128907 0.0507352 -0.0507138
vn 0.015436 0.800395 -0.599274
v -0.00149753 0.0443384 -0.0574269
vn -0.969209 0.149936 -0.195329
v -0.00149753 0.0445264 -0.0572803
vn -0.816548 0.360993 -0.450482
v 0.00287193 0.0445291 -0.0572822
vn 0.0105993 0.634894 -0.772526
v 0.00445264 0.045413 -0.0564609
vn 0.0412588 0.650726 -0.758191
v 0.00445264 0.0462029 -0.0557628
vn 0.0541484 0.700268 -0.711824
v 0.0107776 0.0451229 -0.0562712
vn 0.0740863 0.723498 -0.686339
v 0.0123584 0.0449939 -0.0561441
vn 0.163167 0.723586 -0.670671
v 0.0123584 0.0441073 -0.0569361
vn 0.189961 0.626549 -0.755878
v 0.0171027 0.0434625 -0.0561363
vn 0.229833 0.60822 -0.759766
v 0.0171027 0.0442524 -0.0553346
vn 0.26502 0.711574 -0.650712
v 0.0180922 0.0447602 -0.0543353
vn 0.299354 0.711745 -0.635457
v 0.0186662 0.0438897 -0.0550139
vn 0.30863 0.701868 -0.641973
v 0.020384 0.0441852 -0.0538621
vn 0.941947 0.247548 -0.226839
v 0.020384 0.0434814 -0.0546267
vn 0.98882 0.100308 -0.110337
v 0.020384 0.0423449 -0.055493
vn 1 0.000506617 -0.000666519
v 0.020384 0.0493543 -0.0478216
vn 0.998949 0.037199 -0.0267671
v 0.0139391 0.0556007 -0.0413686
vn 0.187125 0.818248 -0.543558
v 0.0139391 0.055958 -0.040821
vn 0.0114946 0.0559535 0.998367
v 0.020384 0.0486504 -0.0487407
vn 0.998898 0.0372598 -0.0285549
v 0.020384 0.0486155 -0.0487857
vn 0.994723 0.0805799 -0.0635135
v 0.0199599 0.0480379 -0.049738
vn 0.285021 0.732679 -0.618017
v 0.0166914 0.0479788 -0.0512633
vn 0.249073 0.762069 -0.597673
v 0.016308 0.0494188 -0.0494916
vn 0.215264 0.794645 -0.567628
v 0.0135685 0.051114 -0.0480739
vn 0.201907 0.803961 -0.559357
v 0.0139391 0.0537415 -0.0441336
vn 0.197151 0.807714 -0.555634
v 0.0139391 0.0542789 -0.0433436
vn 0.190227 0.814705 -0.547786
v 0.0128103 0.0561703 -0.040821
vn 0.00800626 0.0425919 0.99906
v 0.0129003 0.0557055 -0.041527
vn 0.156025 0.827748 -0.538971
v 0.0123584 0.0539323 -0.0443898
vn 0.160289 0.820445 -0.548796
v 0.011825 0.0526481 -0.0464254
vn 0.144303 0.815403 -0.56062
v 0.0107776 0.0513961 -0.0484806
vn 0.131908 0.813309 -0.566682
v 0.0107776 0.05084 -0.0492706
vn 0.137836 0.802931 -0.579917
v 0.0104092 0.0495074 -0.0511811
vn 0.129205 0.77176 -0.622649
v 0.00907056 0.0504692 -0.050131
vn 0.0984719 0.798461 -0.593939
v 0.00919693 0.0495907 -0.0512828
vn 0.0852336 0.783435 -0.615601
v 0.00445264 0.0506224 -0.0505808
vn 0.0778705 0.7894 -0.608921
v 0.00287193 0.0506976 -0.0506649
vn 0.0522288 0.796189 -0.60279
v -0.00149753 0.0525756 -0.0482773
vn -0.985814 0.134345 -0.100612
v -0.00149753 0.049948 -0.0517756
vn -0.990636 0.10897 -0.0822532
v -0.000291645 0.0507406 -0.0507196
vn 0.00296363 0.799585 -0.600546
v 0.00128907 0.0499454 -0.0517424
vn 0.0269299 0.787429 -0.615817
v -0.00149753 0.0493462 -0.0525676
vn -0.954554 0.234208 -0.184319
v -0.00149753 0.0452411 -0.0567054
vn -0.931258 0.229907 -0.282669
v -0.00149753 0.0461277 -0.0559779
vn -0.690795 0.468243 -0.550954
v 0.00287193 0.0454506 -0.0564903
vn 0.0169696 0.653023 -0.757148
v 0.00287193 0.0462432 -0.0558039
vn 0.0216599 0.701975 -0.711872
v 0.00287193 0.046974 -0.0550139
vn 0.0360953 0.735354 -0.676721
v 0.00287193 0.0477638 -0.0541515
vn 0.0397898 0.738388 -0.673201
v 0.00445264 0.0469229 -0.0549728
vn 0.065403 0.738976 -0.67055
v 0.0060355 0.0476429 -0.0540107
vn 0.0779 0.749483 -0.657424
v 0.0107776 0.0459127 -0.0553952
vn 0.10348 0.754671 -0.647891
v 0.0136392 0.0448193 -0.0559662
vn 0.198783 0.721821 -0.662918
v 0.0123584 0.0457838 -0.0552251
vn 0.156609 0.760147 -0.630595
v 0.0155219 0.0475193 -0.0522723
vn 0.206576 0.745067 -0.634194
v 0.0155219 0.0437366 -0.0563553
vn 0.21158 0.631115 -0.746276
v 0.014693 0.0446635 -0.0558039
vn 0.220244 0.690864 -0.688622
v 0.0155219 0.0445264 -0.0556455
vn 0.248671 0.71892 -0.649089
v 0.0171027 0.0464581 -0.052857
vn 0.259927 0.723133 -0.639935
v 0.0202662 0.0442954 -0.0537976
vn 0.308691 0.709775 -0.63319
v 0.0179444 0.0462808 -0.052681
vn 0.289926 0.720145 -0.630345
v 0.020384 0.0474038 -0.0502542
vn 0.98362 0.134708 -0.119777
v 0.020384 0.0442658 -0.0537721
vn 0.999964 0.00630207 -0.00562208
v 0.020384 0.0479492 -0.0496304
vn 0.99957 0.0226162 -0.0186599
v 0.0171733 0.0473313 -0.0518206
vn 0.274827 0.72921 -0.626676
v 0.0155219 0.0481426 -0.0514823
vn 0.187445 0.784639 -0.590937
v 0.0156783 0.0490292 -0.0502269
vn 0.189811 0.790799 -0.581901
v 0.0123584 0.0512618 -0.0482753
vn 0.179772 0.80131 -0.5706
v 0.0108719 0.0499749 -0.0504244
vn 0.157804 0.794941 -0.585804
v 0.0114631 0.0493973 -0.0510443
vn 0.168399 0.773456 -0.611071
v 0.00919693 0.0489325 -0.0520748
vn 0.0965775 0.762851 -0.639321
v 0.00445264 0.0498325 -0.0515937
vn 0.0786305 0.781477 -0.618959
v 0.00445264 0.0491958 -0.0523838
vn 0.0820355 0.764817 -0.639004
v 0.00287193 0.0499051 -0.0516915
vn 0.059815 0.78597 -0.615364
v 0.00128907 0.049314 -0.0525324
vn 0.027614 0.752037 -0.658543
v -0.000291645 0.0493328 -0.0525519
vn 0.0169843 0.764491 -0.644411
v -0.00149753 0.0485403 -0.0534827
vn -0.976745 0.160539 -0.142116
v -0.00149753 0.0462835 -0.055841
vn -0.93935 0.239975 -0.245019
v -0.00149753 0.047076 -0.0550491
vn -0.94049 0.241222 -0.239356
v -0.00149753 0.0476456 -0.0544683
vn -0.941048 0.241844 -0.236516
v -0.00149753 0.0478525 -0.0542551
vn -0.700033 0.525869 -0.483131
v 0.00128907 0.0478014 -0.0541945
vn 0.0305569 0.734556 -0.67786
v 0.00128907 0.0485241 -0.0534045
vn 0.0321586 0.739451 -0.672442
v 0.00287193 0.0484812 -0.0533595
vn 0.0424086 0.740983 -0.670183
v 0.00287193 0.0492737 -0.0524815
vn 0.0602863 0.75887 -0.648446
v 0.00445264 0.0477128 -0.0540909
vn 0.063862 0.745741 -0.663168
v 0.00919693 0.0481426 -0.0530134
vn 0.086156 0.758499 -0.645954
v 0.0139391 0.047694 -0.0524776
vn 0.164222 0.763427 -0.624668
v 0.0123584 0.0506788 -0.0490653
vn 0.176984 0.788921 -0.588456
f 1//1 2//2 7//7
f 1//1 7//7 16//16
f 1//1 16//16 33//33
f 1//1 33//33 55//55
f 1//1 55//55 54//54
f 1//1 54//54 53//53
f 1//1 53//53 74//74
f 1//1 74//74 91//91
f 1//1 91//91 109//109
f 1//1 109//109 132//132
f 1//1 132//132 160//160
f 1//1 160//160 190//190
f 1//1 190//190 227//227
f 1//1 227//227 266//266
f 1//1 266//266 267//267
f 1//1 267//267 270//270
f 1//1 270//270 304//304
f 1//1 304//304 308//308
f 1//1 308//308 307//307
f 1//1 307//307 306//306
f 1//1 306//306 305//305
f 1//1 305//305 272//272
f 1//1 272//272 271//271
f 1//1 271//271 230//230
f 1//1 230//230 229//229
f 1//1 229//229 192//192
f 1//1 192//192 191//191
f 1//1 191//191 167//167
f 1//1 167//167 140//140
f 1//1 140//140 115//115
f 1//1 115//115 95//95
f 1//1 95//95 78//78
f 1//1 78//78 75//75
f 1//1 75//75 62//62
f 1//1 62//62 43//43
f 1//1 43//43 42//42
f 1//1 42//42 41//41
f 1//1 41//41 40//40
f 1//1 40//40 39//39
f 1//1 39//39 38//38
f 1//1 38//38 37//37
f 1//1 37//37 36//36
f 1//1 36//36 20//20
f 1//1 20//20 18//18
f 1//1 18//18 9//9
f 1//1 9//9 3//3
f 1//1 3//3 4//4
f 1//1 4//4 5//5
f 1//1 5//5 6//6
f 1//1 6//6 2//2
f 2//2 6//6 8//8
f 2//2 8//8 7//7
f 3//3 9//9 4//4
f 4//4 10//10 11//11
f 4//4 11//11 12//12
f 4//4 12//12 13//13
f 4//4 13//13 14//14
f 4//4 14//14 15//15
f 4//4 15//15 6//6
f 4//4 6//6 5//5
f 4//4 9//9 10//10
f 6//6 15//15 14//14
f 6//6 14//14 28//28
f 6//6 28//28 27//27
f 6//6 27//27 31//31
f 6//6 31//31 51//51
f 6//6 51//51 71//71
f 6//6 71//71 70//70
f 6//6 70//70 69//69
f 6//6 69//69 68//68
f 6//6 68//68 88//88
f 6//6 88//88 87//87
f 6//6 87//87 103//103
f 6//6 103//103 102//102
f 6//6 102//102 101//101
f 6//6 101//101 123//123
f 6//6 123//123 122//122
f 6//6 122//122 146//146
f 6//6 146//146 174//174
f 6//6 174//174 204//204
f 6//6 204//204 243//243
f 6//6 243//243 242//242
f 6//6 242//242 241//241
f 6//6 241//241 290//290
f 6//6 290//290 289//289
f 6//6 289//289 291//291
f 6//6 291//291 248//248
f 6//6 248//248 247//247
f 6//6 247//247 244//244
f 6//6 244//244 205//205
f 6//6 205//205 175//175
f 6//6 175//175 147//147
f 6//6 147//147 124//124
f 6//6 124//124 106//106
f 6//6 106//106 89//89
f 6//6 89//89 72//72
f 6//6 72//72 52//52
f 6//6 52//52 32//32
f 6//6 32//32 17//17
f 6//6 17//17 8//8
f 7//7 8//8 16//16
f 8//8 17//17 16//16
f 9//9 18//18 10//10
f 10//10 18//18 11//11
f 11//11 19//19 12//12
f 11//11 18//18 20//20
f 11//11 20//20 21//21
f 11//11 21//21 22//22
f 11//11 22//22 19//19
f 12//12 19//19 23//23
f 12//12 23//23 24//24
f 12//12 24//24 25//25
f 12//12 25//25 26//26
f 12//12 26//26 13//13
f 13//13 27//27 28//28
f 13//13 28//28 14//14
f 13//13 26//26 29//29
f 13//13 29//29 30//30
f 13//13 30//30 31//31
f 13//13 31//31 27//27
f 16//16 17//17 32//32
f 16//16 32//32 33//33
f 19//19 22//22 34//34
f 19//19 34//34 35//35
f 19//19 35//35 23//23
f 20//20 36//36 21//21
f 21//21 36//36 37//37
f 21//21 37//37 22//22
f 22//22 37//37 38//38
f 22//22 38//38 39//39
f 22//22 39//39 40//40
f 22//22 40//40 41//41
f 22//22 41//41 42//42
f 22//22 42//42 43//43
f 22//22 43//43 34//34
f 23//23 35//35 24//24
f 24//24 26//26 25//25
f 24//24 35//35 44//44
f 24//24 44//44 45//45
f 24//24 45//45 46//46
f 24//24 46//46 47//47
f 24//24 47//47 26//26
f 26//26 47//47 48//48
f 26//26 48//48 29//29
f 29//29 48//48 49//49
f 29//29 49//49 30//30
f 30//30 50//50 31//31
f 30//30 49//49 50//50
f 31//31 50//50 51//51
f 32//32 52//52 53//53
f 32//32 53//53 54//54
f 32//32 54//54 55//55
f 32//32 55//55 33//33
f 34//34 43//43 56//56
f 34//34 56//56 57//57
f 34//34 57//57 35//35
f 35//35 58//58 59//59
f 35//35 59//59 60//60
f 35//35 60//60 45//45
f 35//35 45//45 44//44
f 35//35 57//57 61//61
f 35//35 61//61 58//58
f 43//43 62//62 56//56
f 45//45 60//60 63//63
f 45//45 63//63 46//46
f 46//46 63//63 47//47
f 47//47 63//63 64//64
f 47//47 64//64 65//65
f 47//47 65//65 66//66
f 47//47 66//66 48//48
f 48//48 66//66 67//67
f 48//48 67//67 49//49
f 49//49 67//67 68//68
f 49//49 68//68 69//69
f 49//49 69//69 70//70
f 49//49 70//70 50//50
f 50//50 71//71 51//51
f 50//50 70//70 71//71
f 52//52 72//72 73//73
f 52//52 73//73 53//53
f 53//53 73//73 89//89
f 53//53 89//89 106//106
f 53//53 106//106 125//125
f 53//53 125//125 149//149
f 53//53 149//149 178//178
f 53//53 178//178 177//177
f 53//53 177//177 208//208
f 53//53 208//208 246//246
f 53//53 246//246 255//255
f 53//53 255//255 214//214
f 53//53 214//214 213//213
f 53//53 213//213 181//181
f 53//53 181//181 151//151
f 53//53 151//151 150//150
f 53//53 150//150 126//126
f 53//53 126//126 107//107
f 53//53 107//107 90//90
f 53//53 90//90 74//74
f 56//56 62//62 57//57
f 57//57 62//62 75//75
f 57//57 75//75 61//61
f 58//58 61//61 76//76
f 58//58 76//76 59//59
f 59//59 76//76 77//77
f 59//59 77//77 60//60
f 60//60 77//77 63//63
f 61//61 75//75 78//78
f 61//61 78//78 79//79
f 61//61 79//79 76//76
f 63//63 77//77 80//80
f 63//63 80//80 81//81
f 63//63 81//81 82//82
f 63//63 82//82 83//83
f 63//63 83//83 64//64
f 64//64 84//84 65//65
f 64//64 83//83 85//85
f 64//64 85//85 84//84
f 65//65 84//84 86//86
f 65//65 86//86 67//67
f 65//65 67//67 66//66
f 67//67 86//86 87//87
f 67//67 87//87 88//88
f 67//67 88//88 68//68
f 72//72 89//89 73//73
f 74//74 90//90 91//91
f 76//76 79//79 92//92
f 76//76 92//92 93//93
f 76//76 93//93 94//94
f 76//76 94//94 77//77
f 77//77 94//94 80//80
f 78//78 95//95 79//79
f 79//79 95//95 92//92
f 80//80 94//94 93//93
f 80//80 93//93 96//96
f 80//80 96//96 97//97
f 80//80 97//97 81//81
f 81//81 97//97 98//98
f 81//81 98//98 99//99
f 81//81 99//99 100//100
f 81//81 100//100 83//83
f 81//81 83//83 82//82
f 83//83 100//100 85//85
f 84//84 85//85 86//86
f 85//85 100//100 101//101
f 85//85 101//101 102//102
f 85//85 102//102 103//103
f 85//85 103//103 86//86
f 86//86 103//103 104//104
f 86//86 104//104 105//105
f 86//86 105//105 87//87
f 87//87 105//105 104//104
f 87//87 104//104 103//103
f 90//90 107//107 91//91
f 91//91 107//107 108//108
f 91//91 108//108 109//109
f 92//92 95//95 110//110
f 92//92 110//110 111//111
f 92//92 111//111 112//112
f 92//92 112//112 93//93
f 93//93 112//112 113//113
f 93//93 113//113 114//114
f 93//93 114//114 96//96
f 95//95 115//115 110//110
f 96//96 114//114 116//116
f 96//96 116//116 98//98
f 96//96 98//98 97//97
f 98//98 116//116 117//117
f 98//98 117//117 118//118
f 98//98 118//118 99//99
f 99//99 118//118 119//119
f 99//99 119//119 100//100
f 100//100 119//119 120//120
f 100//100 120//120 121//121
f 100//100 121//121 122//122
f 100//100 122//122 123//123
f 100//100 123//123 101//101
f 106//106 124//124 125//125
f 107//107 126//126 127//127
f 107//107 127//127 108//108
f 108//108 127//127 128//128
f 108//108 128//128 129//129
f 108//108 129//129 109//109
f 109//109 130//130 131//131
f 109//109 131//131 132//132
f 109//109 129//129 128//128
f 109//109 128//128 130//130
f 110//110 115//115 133//133
f 110//110 133//133 134//134
f 110//110 134//134 111//111
f 111//111 135//135 136//136
f 111//111 136//136 112//112
f 111//111 134//134 135//135
f 112//112 136//136 113//113
f 113//113 137//137 114//114
f 113//113 136//136 138//138
f 113//113 138//138 137//137
f 114//114 137//137 139//139
f 114//114 139//139 117//117
f 114//114 117//117 116//116
f 115//115 140//140 133//133
f 117//117 139//139 141//141
f 117//117 141//141 118//118
f 118//118 141//141 142//142
f 118//118 142//142 143//143
f 118//118 143//143 120//120
f 118//118 120//120 119//119
f 120//120 122//122 121//121
f 120//120 143//143 144//144
f 120//120 144//144 145//145
f 120//120 145//145 146//146
f 120//120 146//146 122//122
f 124//124 147//147 148//148
f 124//124 148//148 125//125
f 125//125 148//148 149//149
f 126//126 150//150 127//127
f 127//127 150//150 151//151
f 127//127 151//151 152//152
f 127//127 152//152 153//153
f 127//127 153//153 128//128
f 128//128 153//153 154//154
f 128//128 154//154 155//155
f 128//128 155//155 130//130
f 130//130 155//155 156//156
f 130//130 156//156 157//157
f 130//130 157//157 158//158
f 130//130 158//158 131//131
f 131//131 158//158 159//159
f 131//131 159//159 132//132
f 132//132 159//159 160//160
f 133//133 140//140 161//161
f 133//133 161//161 162//162
f 133//133 162//162 134//134
f 134//134 162//162 163//163
f 134//134 163//163 164//164
f 134//134 164//164 135//135
f 135//135 138//138 136//136
f 135//135 164//164 138//138
f 137//137 138//138 165//165
f 137//137 165//165 139//139
f 138//138 164//164 165//165
f 139//139 165//165 164//164
f 139//139 164//164 166//166
f 139//139 166//166 141//141
f 140//140 167//167 161//161
f 141//141 166//166 168//168
f 141//141 168//168 169//169
f 141//141 169//169 142//142
f 142//142 144//144 143//143
f 142//142 169//169 170//170
f 142//142 170//170 144//144
f 144//144 170//170 171//171
f 144//144 171//171 145//145
f 145//145 171//171 172//172
f 145//145 172//172 173//173
f 145//145 173//173 174//174
f 145//145 174//174 146//146
f 147//147 175//175 148//148
f 148//148 176//176 177//177
f 148//148 177//177 178//178
f 148//148 178//178 149//149
f 148//148 175//175 179//179
f 148//148 179//179 180//180
f 148//148 180//180 176//176
f 151//151 181//181 152//152
f 152//152 181//181 153//153
f 153//153 181//181 154//154
f 154//154 181//181 182//182
f 154//154 182//182 155//155
f 155//155 183//183 184//184
f 155//155 184//184 156//156
f 155//155 182//182 183//183
f 156//156 184//184 185//185
f 156//156 185//185 186//186
f 156//156 186//186 157//157
f 157//157 186//186 187//187
f 157//157 187//187 188//188
f 157//157 188//188 158//158
f 158//158 188//188 159//159
f 159//159 188//188 187//187
f 159//159 187//187 189//189
f 159//159 189//189 190//190
f 159//159 190//190 160//160
f 161//161 191//191 192//192
f 161//161 192//192 193//193
f 161//161 193//193 194//194
f 161//161 194//194 162//162
f 161//161 167//167 191//191
f 162//162 194//194 163//163
f 163//163 194//194 195//195
f 163//163 195//195 196//196
f 163//163 196//196 197//197
f 163//163 197//197 164//164
f 164//164 197//197 166//166
f 166//166 197//197 198//198
f 166//166 198//198 168//168
f 168//168 199//199 169//169
f 168//168 198//198 200//200
f 168//168 200//200 199//199
f 169//169 199//199 171//171
f 169//169 171//171 170//170
f 171//171 199//199 200//200
f 171//171 200//200 201//201
f 171//171 201//201 172//172
f 172//172 201//201 173//173
f 173//173 201//201 174//174
f 174//174 201//201 202//202
f 174//174 202//202 203//203
f 174//174 203//203 204//204
f 175//175 205//205 206//206
f 175//175 206//206 179//179
f 176//176 180//180 177//177
f 177//177 180//180 207//207
f 177//177 207//207 208//208
f 179//179 206//206 209//209
f 179//179 209//209 210//210
f 179//179 210//210 211//211
f 179//179 211//211 212//212
f 179//179 212//212 207//207
f 179//179 207//207 180//180
f 181//181 213//213 182//182
f 182//182 213//213 214//214
f 182//182 214//214 215//215
f 182//182 215//215 216//216
f 182//182 216//216 183//183
f 183//183 216//216 217//217
f 183//183 217//217 184//184
f 184//184 217//217 218//218
f 184//184 218//218 219//219
f 184//184 219//219 220//220
f 184//184 220//220 185//185
f 185//185 220//220 219//219
f 185//185 219//219 221//221
f 185//185 221//221 222//222
f 185//185 222//222 223//223
f 185//185 223//223 224//224
f 185//185 224//224 225//225
f 185//185 225//225 186//186
f 186//186 225//225 187//187
f 187//187 225//225 224//224
f 187//187 224//224 226//226
f 187//187 226//226 189//189
f 189//189 227//227 190//190
f 189//189 226//226 228//228
f 189//189 228//228 227//227
f 192//192 229//229 193//193
f 193//193 229//229 230//230
f 193//193 230//230 231//231
f 193//193 231//231 194//194
f 194//194 231//231 195//195
f 195//195 231//231 232//232
f 195//195 232//232 196//196
f 196//196 232//232 233//233
f 196//196 233//233 234//234
f 196//196 234//234 235//235
f 196//196 235//235 236//236
f 196//196 236//236 197//197
f 197//197 236//236 237//237
f 197//197 237//237 198//198
f 198//198 237//237 200//200
f 200//200 237//237 201//201
f 201//201 237//237 238//238
f 201//201 238//238 239//239
f 201//201 239//239 240//240
f 201//201 240//240 241//241
f 201//201 241//241 242//242
f 201//201 242//242 202//202
f 202//202 242//242 203//203
f 203//203 243//243 204//204
f 203//203 242//242 243//243
f 205//205 244//244 209//209
f 205//205 209//209 206//206
f 207//207 245//245 208//208
f 207//207 212//212 245//245
f 208//208 245//245 246//246
f 209//209 244//244 247//247
f 209//209 247//247 248//248
f 209//209 248//248 249//249
f 209//209 249//249 250//250
f 209//209 250//250 251//251
f 209//209 251//251 210//210
f 210//210 251//251 211//211
f 211//211 252//252 253//253
f 211//211 253//253 212//212
f 211//211 251//251 252//252
f 212//212 253//253 254//254
f 212//212 254//254 245//245
f 214//214 255//255 256//256
f 214//214 256//256 257//257
f 214//214 257//257 215//215
f 215//215 257//257 216//216
f 216//216 257//257 258//258
f 216//216 258//258 217//217
f 217//217 258//258 259//259
f 217//217 259//259 218//218
f 218//218 259//259 260//260
f 218//218 260//260 261//261
f 218//218 261//261 262//262
f 218//218 262//262 219//219
f 219//219 262//262 221//221
f 221//221 262//262 222//222
f 222//222 262//262 263//263
f 222//222 263//263 264//264
f 222//222 264//264 223//223
f 223//223 264//264 265//265
f 223//223 265//265 224//224
f 224//224 265//265 228//228
f 224//224 228//228 226//226
f 227//227 228//228 266//266
f 228//228 267//267 268//268
f 228//228 268//268 266//266
f 228//228 265//265 269//269
f 228//228 269//269 270//270
f 228//228 270//270 267//267
f 230//230 271//271 231//231
f 231//231 271//271 272//272
f 231//231 272//272 273//273
f 231//231 273//273 232//232
f 232//232 273//273 274//274
f 232//232 274//274 233//233
f 233//233 274//274 275//275
f 233//233 275//275 276//276
f 233//233 276//276 277//277
f 233//233 277//277 234//234
f 234//234 277//277 278//278
f 234//234 278//278 279//279
f 234//234 279//279 235//235
f 235//235 280//280 236//236
f 235//235 279//279 281//281
f 235//235 281//281 282//282
f 235//235 282//282 280//280
f 236//236 283//283 237//237
f 236//236 280//280 284//284
f 236//236 284//284 283//283
f 237//237 283//283 284//284
f 237//237 284//284 285//285
f 237//237 285//285 238//238
f 238//238 285//285 286//286
f 238//238 286//286 239//239
f 239//239 287//287 241//241
f 239//239 241//241 240//240
f 239//239 286//286 288//288
f 239//239 288//288 249//249
f 239//239 249//249 289//289
f 239//239 289//289 287//287
f 241//241 287//287 290//290
f 245//245 256//256 246//246
f 245//245 254//254 257//257
f 245//245 257//257 256//256
f 246//246 256//256 255//255
f 248//248 291//291 249//249
f 249//249 291//291 289//289
f 249//249 288//288 292//292
f 249//249 292//292 250//250
f 250//250 282//282 293//293
f 250//250 293//293 251//251
f 250//250 292//292 282//282
f 251//251 293//293 294//294
f 251//251 294//294 295//295
f 251//251 295//295 252//252
f 252//252 295//295 253//253
f 253//253 257//257 254//254
f 253//253 295//295 257//257
f 257//257 295//295 258//258
f 258//258 295//295 259//259
f 259//259 295//295 260//260
f 260//260 295//295 296//296
f 260//260 296//296 261//261
f 261//261 263//263 262//262
f 261//261 296//296 297//297
f 261//261 297//297 281//281
f 261//261 281//281 279//279
f 261//261 279//279 298//298
f 261//261 298//298 263//263
f 263//263 299//299 264//264
f 263//263 298//298 300//300
f 263//263 300//300 299//299
f 264//264 299//299 301//301
f 264//264 301//301 265//265
f 265//265 301//301 269//269
f 266//266 268//268 267//267
f 269//269 301//301 312//312
f 269//269 312//312 302//302
f 269//269 302//302 303//303
f 269//269 303//303 270//270
f 270//270 303//303 304//304
f 272//272 305//305 274//274
f 272//272 274//274 273//273
f 274//274 305//305 306//306
f 274//274 306//306 307//307
f 274//274 307//307 308//308
f 274//274 308//308 309//309
f 274//274 309//309 275//275
f 275//275 309//309 276//276
f 276//276 309//309 310//310
f 276//276 310//310 311//311
f 276//276 311//311 277//277
f 277//277 311//311 312//312
f 277//277 312//312 313//313
f 277//277 313//313 278//278
f 278//278 313//313 312//312
f 278//278 312//312 300//300
f 278//278 300//300 314//314
f 278//278 314//314 279//279
f 279//279 314//314 298//298
f 280//280 282//282 284//284
f 281//281 297//297 315//315
f 281//281 315//315 282//282
f 282//282 315//315 297//297
f 282//282 297//297 293//293
f 282//282 292//292 286//286
f 282//282 286//286 285//285
f 282//282 285//285 284//284
f 286//286 292//292 288//288
f 287//287 289//289 290//290
f 293//293 297//297 316//316
f 293//293 316//316 295//295
f 293//293 295//295 294//294
f 295//295 316//316 296//296
f 296//296 316//316 297//297
f 298//298 314//314 300//300
f 299//299 300//300 312//312
f 299//299 312//312 301//301
f 302//302 312//312 311//311
f 302//302 311//311 310//310
f 302//302 310//310 308//308
f 302//302 308//308 304//304
f 302//302 304//304 303//303
f 308//308 310//310 309//309
