# Created by Open3D 
# object name: part_003
# number of vertices: 94
# number of triangles: 184
v -0.0237831 0.0662784 0.0140976
vn 0.793938 0.0497593 0.605959
v -0.0237831 0.0683275 0.00191071
vn -0.0819368 0.983122 0.163576
v -0.0271785 0.067761 0.00348609
vn -0.11704 0.981201 0.153447
v -0.0271785 0.0674546 0.00506707
vn -0.204774 0.958608 0.197831
v -0.0271785 0.0661299 0.0113937
vn -0.205987 0.957343 0.202643
v -0.0240161 0.0662289 0.0140976
vn -0.210995 0.953589 0.214822
v -0.0237831 0.046206 0.0140976
vn 0.712221 -0.686836 0.144902
v -0.0237831 0.0684172 0.00124312
vn -0.0606446 0.989528 0.130981
v -0.0262687 0.0683894 -0.000530582
vn -0.105211 0.987941 0.113592
v -0.0265664 0.0684575 -0.00158643
vn -0.201475 0.974513 0.0986566
v -0.0287598 0.0674144 0.00348609
vn -0.299975 0.940459 0.159849
v -0.0287857 0.0670863 0.00505589
vn -0.235445 0.951774 0.196703
v -0.0287598 0.0657801 0.0113937
vn -0.224501 0.953427 0.201433
v -0.0271785 0.0657801 0.0129747
vn -0.212696 0.953179 0.214965
v -0.0271675 0.0655232 0.0140976
vn -0.21597 0.948384 0.232216
v -0.0426745 0.037199 0.0140976
vn -0.71758 -0.405776 0.56606
v -0.0426745 0.0406687 -0.0144381
vn 0.0424619 -0.804854 -0.591952
v -0.0237831 0.0507684 -0.0144381
vn 0.893246 -0.36225 -0.266246
v -0.0237831 0.0685379 0.000312975
vn 0.2087 0.972343 0.104853
v -0.0237831 0.0686865 -0.00125403
vn 0.201456 0.975748 0.0856281
v -0.0255973 0.0686618 -0.0028378
vn -0.0902268 0.994535 0.0525366
v -0.0267181 0.0685256 -0.0028378
vn -0.342346 0.938712 0.0402421
v -0.0297418 0.0653035 0.0124077
vn -0.296109 0.931262 0.212299
v -0.0287598 0.0675103 0.00190512
vn -0.361045 0.931359 0.0470844
v -0.0398301 0.062883 0.0082318
vn -0.36114 0.930565 0.0602281
v -0.0398301 0.062623 0.00981278
vn -0.301751 0.934434 0.189154
v -0.028732 0.0654335 0.0129496
vn -0.226652 0.947866 0.224009
v -0.0279941 0.065322 0.0140976
vn -0.225362 0.916952 0.329259
v -0.0426745 0.0604037 0.0140976
vn -0.00314014 6.69538e-05 0.999995
v -0.0426745 0.0577821 -0.0144381
vn -0.999197 0.00534737 -0.0397095
v -0.0237831 0.0671792 -0.0144381
vn 0.831981 9.37597e-05 -0.554804
v -0.0237831 0.068801 -0.0028378
vn 0.577543 0.814652 0.0527752
v -0.0237831 0.0688041 -0.00306964
vn 0.773957 0.633207 0.00619935
v -0.0237831 0.0688165 -0.00441877
vn 0.527862 0.849323 0.00332583
v -0.0255973 0.0686741 -0.00441877
vn -0.0980936 0.994283 -0.042179
v -0.0267162 0.0685349 -0.00441877
vn -0.387832 0.921405 -0.0244736
v -0.0275096 0.0682006 -0.0028378
vn -0.392165 0.919884 0.00444437
v -0.0298786 0.0647401 0.0140976
vn -0.29621 0.905246 0.304613
v -0.0289392 0.0650466 0.0140976
vn -0.267706 0.85012 0.453464
v -0.0282863 0.0652416 0.0140976
vn -0.25863 0.873877 0.411643
v -0.0281846 0.0653004 0.0139943
vn -0.257043 0.93199 0.255585
v -0.0403128 0.0619885 0.0118183
vn -0.303901 0.924128 0.231586
v -0.0414113 0.0613106 0.0129747
vn -0.306811 0.909927 0.279104
v -0.0410914 0.0623444 0.0082318
vn -0.419171 0.907874 0.00781411
v -0.040912 0.0622237 0.00981278
vn -0.412228 0.899405 0.145389
v -0.0407067 0.0621092 0.0107653
vn -0.335579 0.918063 0.211064
v -0.0425154 0.0605028 0.0140976
vn -0.0131126 0.0267966 0.999555
v -0.0424229 0.0605956 0.0140054
vn -0.309235 0.893597 0.325359
v -0.0426745 0.0604254 0.0140389
vn -0.999935 0.0107646 0.00384477
v -0.0426745 0.0585961 -0.0125527
vn -0.999801 0.0183956 -0.00770566
v -0.0420679 0.0588438 -0.0129354
vn -0.433699 0.847079 -0.307184
v -0.0414687 0.0585404 -0.0144381
vn -0.0510304 0.0839856 -0.995159
v -0.0239606 0.0671389 -0.0144381
vn -0.00724559 0.0273357 -0.9996
v -0.0237831 0.0672596 -0.0141392
vn 0.998465 0.0536205 -0.0138629
v -0.0237831 0.0688041 -0.00465061
vn 0.900768 0.433103 -0.0322215
v -0.0237831 0.0686989 -0.00599974
vn 0.64917 0.757633 -0.0675969
v -0.0265627 0.0684699 -0.00561986
vn -0.370517 0.915733 -0.155404
v -0.0275059 0.0681603 -0.00441877
vn -0.468659 0.876285 -0.111727
v -0.0398301 0.0628768 0.00665083
vn -0.426079 0.903706 -0.0421041
v -0.0303299 0.0645916 0.0140976
vn -0.251263 0.754266 0.606589
v -0.0413041 0.0617409 0.0113323
vn -0.383227 0.901766 0.199887
v -0.0426745 0.0607875 0.0129552
vn -0.981932 0.185706 0.0363802
v -0.0409989 0.0623166 0.00665083
vn -0.476647 0.87226 -0.10941
v -0.0418811 0.0618275 0.0082318
vn -0.622924 0.780644 -0.050603
v -0.0426745 0.0610445 0.0111815
vn -0.997355 0.0723358 0.0070488
v -0.0417035 0.0617904 0.00981278
vn -0.483877 0.866392 0.123401
v -0.042238 0.0606173 0.0140976
vn -0.0533378 0.15896 0.985843
v -0.0426745 0.0607628 0.0130418
vn -0.999936 0.0107633 0.00352006
v -0.0426745 0.0605245 0.0137596
vn -0.999935 0.0107638 0.00364174
v -0.0426745 0.0587509 -0.0121253
vn -0.999807 0.0186711 -0.00614633
v -0.040973 0.0588159 -0.0144381
vn -0.0421779 0.0837262 -0.995596
v -0.0424026 0.0590109 -0.0118823
vn -0.430084 0.868809 -0.245353
v -0.0249223 0.0668758 -0.0144381
vn -0.208613 0.437779 -0.874545
v -0.0240161 0.0672627 -0.0139074
vn -0.263666 0.939008 -0.220782
v -0.0237831 0.0672968 -0.0139856
vn 0.999518 0.0301915 -0.00725556
v -0.0237831 0.0686741 -0.00623158
vn 0.846372 0.529144 -0.0605056
v -0.0271785 0.0677239 -0.00758071
vn -0.428222 0.872567 -0.23506
v -0.0271249 0.0680922 -0.00608633
vn -0.445331 0.87437 -0.192762
v -0.0426486 0.0591471 -0.0107455
vn -0.468376 0.874282 -0.127494
v -0.0237831 0.0685287 -0.00748854
vn 0.82909 0.553828 -0.076714
v -0.0260523 0.0683739 -0.00667291
vn -0.21046 0.957836 -0.195592
v -0.0422214 0.0604997 -0.00212552
vn -0.504943 0.856351 -0.10815
v -0.0426745 0.0601654 -0.00256127
vn -0.997112 0.0754964 -0.00821812
v -0.0426745 0.0610847 0.0082318
vn -0.999497 0.0316401 -0.00234097
v -0.0426745 0.0611002 0.00962284
vn -0.999478 0.032302 0.000440641
v -0.0426745 0.0602954 -0.00125403
vn -0.999498 0.0315576 -0.00268785
v -0.0426745 0.0591316 -0.0107455
vn -0.999844 0.0175089 -0.00245374
v -0.0237831 0.0673153 -0.0139074
vn 0.999489 0.0311272 -0.00722244
v -0.0240161 0.067628 -0.0123264
vn -0.244121 0.945837 -0.214005
v -0.0237831 0.067628 -0.0125583
vn 0.997918 0.0628361 -0.0145163
v -0.0237831 0.0683027 -0.00894102
vn 0.918614 0.390424 -0.0609705
v -0.0237831 0.0682377 -0.00935163
vn 0.926314 0.371321 -0.063739
v -0.0237831 0.0679901 -0.0107622
vn 0.933004 0.353717 -0.0662458
v -0.0237831 0.0676806 -0.0123264
vn 0.911306 0.403553 -0.0816455
f 1//1 2//2 3//3
f 1//1 3//3 4//4
f 1//1 4//4 5//5
f 1//1 5//5 6//6
f 1//1 6//6 15//15
f 1//1 15//15 28//28
f 1//1 28//28 40//40
f 1//1 40//40 39//39
f 1//1 39//39 38//38
f 1//1 38//38 60//60
f 1//1 60//60 67//67
f 1//1 67//67 47//47
f 1//1 47//47 29//29
f 1//1 29//29 16//16
f 1//1 16//16 7//7
f 1//1 7//7 18//18
f 1//1 18//18 31//31
f 1//1 31//31 54//54
f 1//1 54//54 75//75
f 1//1 75//75 88//88
f 1//1 88//88 90//90
f 1//1 90//90 94//94
f 1//1 94//94 93//93
f 1//1 93//93 92//92
f 1//1 92//92 91//91
f 1//1 91//91 80//80
f 1//1 80//80 76//76
f 1//1 76//76 56//56
f 1//1 56//56 55//55
f 1//1 55//55 34//34
f 1//1 34//34 33//33
f 1//1 33//33 32//32
f 1//1 32//32 20//20
f 1//1 20//20 19//19
f 1//1 19//19 8//8
f 1//1 8//8 2//2
f 2//2 8//8 3//3
f 3//3 8//8 9//9
f 3//3 9//9 10//10
f 3//3 10//10 11//11
f 3//3 11//11 4//4
f 4//4 11//11 12//12
f 4//4 12//12 13//13
f 4//4 13//13 5//5
f 5//5 13//13 14//14
f 5//5 14//14 6//6
f 6//6 14//14 15//15
f 7//7 16//16 17//17
f 7//7 17//17 18//18
f 8//8 19//19 9//9
f 9//9 19//19 20//20
f 9//9 20//20 21//21
f 9//9 21//21 10//10
f 10//10 21//21 22//22
f 10//10 22//22 11//11
f 11//11 23//23 12//12
f 11//11 22//22 24//24
f 11//11 24//24 25//25
f 11//11 25//25 26//26
f 11//11 26//26 23//23
f 12//12 23//23 13//13
f 13//13 23//23 27//27
f 13//13 27//27 14//14
f 14//14 27//27 15//15
f 15//15 27//27 28//28
f 16//16 29//29 49//49
f 16//16 49//49 69//69
f 16//16 69//69 68//68
f 16//16 68//68 62//62
f 16//16 62//62 65//65
f 16//16 65//65 85//85
f 16//16 85//85 84//84
f 16//16 84//84 86//86
f 16//16 86//86 83//83
f 16//16 83//83 87//87
f 16//16 87//87 70//70
f 16//16 70//70 50//50
f 16//16 50//50 30//30
f 16//16 30//30 17//17
f 17//17 30//30 52//52
f 17//17 52//52 71//71
f 17//17 71//71 73//73
f 17//17 73//73 53//53
f 17//17 53//53 31//31
f 17//17 31//31 18//18
f 20//20 32//32 21//21
f 21//21 32//32 33//33
f 21//21 33//33 34//34
f 21//21 34//34 35//35
f 21//21 35//35 22//22
f 22//22 35//35 36//36
f 22//22 36//36 37//37
f 22//22 37//37 25//25
f 22//22 25//25 24//24
f 23//23 38//38 39//39
f 23//23 39//39 40//40
f 23//23 40//40 41//41
f 23//23 41//41 27//27
f 23//23 26//26 42//42
f 23//23 42//42 43//43
f 23//23 43//43 38//38
f 25//25 44//44 45//45
f 25//25 45//45 26//26
f 25//25 37//37 44//44
f 26//26 45//45 46//46
f 26//26 46//46 42//42
f 27//27 41//41 28//28
f 28//28 41//41 40//40
f 29//29 47//47 48//48
f 29//29 48//48 49//49
f 30//30 50//50 51//51
f 30//30 51//51 52//52
f 31//31 53//53 54//54
f 34//34 55//55 35//35
f 35//35 55//55 56//56
f 35//35 56//56 57//57
f 35//35 57//57 36//36
f 36//36 57//57 58//58
f 36//36 58//58 59//59
f 36//36 59//59 44//44
f 36//36 44//44 37//37
f 38//38 43//43 60//60
f 42//42 46//46 43//43
f 43//43 46//46 61//61
f 43//43 61//61 62//62
f 43//43 62//62 48//48
f 43//43 48//48 60//60
f 44//44 59//59 63//63
f 44//44 63//63 64//64
f 44//44 64//64 65//65
f 44//44 65//65 66//66
f 44//44 66//66 45//45
f 45//45 66//66 62//62
f 45//45 62//62 61//61
f 45//45 61//61 46//46
f 47//47 67//67 48//48
f 48//48 62//62 68//68
f 48//48 68//68 69//69
f 48//48 69//69 49//49
f 48//48 67//67 60//60
f 50//50 70//70 51//51
f 51//51 71//71 52//52
f 51//51 70//70 72//72
f 51//51 72//72 73//73
f 51//51 73//73 71//71
f 53//53 74//74 54//54
f 53//53 73//73 74//74
f 54//54 74//74 75//75
f 56//56 76//76 57//57
f 57//57 77//77 78//78
f 57//57 78//78 79//79
f 57//57 79//79 58//58
f 57//57 76//76 80//80
f 57//57 80//80 81//81
f 57//57 81//81 73//73
f 57//57 73//73 77//77
f 58//58 79//79 63//63
f 58//58 63//63 59//59
f 62//62 66//66 65//65
f 63//63 79//79 82//82
f 63//63 82//82 83//83
f 63//63 83//83 64//64
f 64//64 84//84 85//85
f 64//64 85//85 65//65
f 64//64 83//83 86//86
f 64//64 86//86 84//84
f 70//70 87//87 72//72
f 72//72 87//87 79//79
f 72//72 79//79 77//77
f 72//72 77//77 73//73
f 73//73 81//81 74//74
f 74//74 88//88 75//75
f 74//74 81//81 89//89
f 74//74 89//89 90//90
f 74//74 90//90 88//88
f 77//77 79//79 78//78
f 79//79 87//87 82//82
f 80//80 91//91 81//81
f 81//81 91//91 92//92
f 81//81 92//92 93//93
f 81//81 93//93 94//94
f 81//81 94//94 89//89
f 82//82 87//87 83//83
f 89//89 94//94 90//90
