# Created by Open3D 
# object name: part_028
# number of vertices: 282
# number of triangles: 560
v 0.0344754 -0.0578479 0.0493545
vn -0.999604 -0.0280006 -0.00281523
v 0.0344754 -0.0578404 0.0509057
vn 0.337707 -0.940013 0.0482752
v 0.0344754 -0.0575613 0.0480002
vn 0.24288 -0.948911 -0.201437
v 0.0418877 -0.0550422 0.045075
vn 0.259315 -0.948219 -0.183403
v 0.0420789 -0.055129 0.0461892
vn 0.315337 -0.943973 -0.097349
v 0.0408275 -0.0556381 0.0477718
vn 0.347574 -0.937111 0.0318635
v 0.0360834 -0.0572068 0.0509332
vn 0.365221 -0.92665 0.0890716
v 0.0360834 -0.0570522 0.052512
vn 0.376883 -0.918528 0.119442
v 0.0344754 -0.057682 0.0524805
vn 0.283045 -0.954256 0.0963323
v 0.0344754 -0.0575387 0.0478978
vn 0.176253 -0.93912 -0.294938
v 0.0529132 -0.0503586 0.036701
vn 0.266164 -0.946033 -0.184875
v 0.0518957 -0.0508828 0.0382837
vn 0.350384 -0.933942 -0.070587
v 0.0428699 -0.0548273 0.0461892
vn 0.387352 -0.921876 -0.0101983
v 0.0420418 -0.0551554 0.0477718
vn 0.407783 -0.91038 0.0701463
v 0.036893 -0.0565507 0.0533387
vn 0.429219 -0.879428 0.205858
v 0.0360611 -0.0567581 0.0539568
vn 0.367658 -0.903314 0.221025
v 0.0344754 -0.0576782 0.052512
vn 0.218261 -0.95523 0.199747
v 0.0418394 -0.0550762 0.0490514
vn 0.426513 -0.890034 0.161016
v 0.0344754 -0.0569843 0.0468191
vn 0.0328974 -0.887879 -0.4589
v 0.0527164 -0.0502191 0.0359018
vn 0.134462 -0.902732 -0.40865
v 0.0534424 -0.0500946 0.036701
vn 0.999999 -0.00138763 -0.000527227
v 0.0534424 -0.0501361 0.0372877
vn 0.514927 -0.856501 -0.0354373
v 0.0529931 -0.0504302 0.0382837
vn 0.460059 -0.884361 0.079061
v 0.0496806 -0.0518557 0.0403742
vn 0.381109 -0.924164 -0.0260059
v 0.0428328 -0.0547594 0.0477718
vn 0.465182 -0.879263 0.10248
v 0.0365736 -0.0563697 0.0543938
vn 0.494253 -0.800591 0.338773
v 0.041598 -0.054948 0.0501065
vn 0.489616 -0.828453 0.271922
v 0.0345014 -0.0573351 0.0540946
vn 0.336554 -0.906983 0.253207
v 0.0355189 -0.056645 0.0550631
vn 0.408722 -0.806524 0.427159
v 0.0344754 -0.0573501 0.0540592
vn -0.998546 -0.052725 0.0111809
v 0.0439877 -0.0541259 0.0477718
vn 0.479876 -0.868781 0.122224
v 0.0450517 -0.0535338 0.0477718
vn 0.496763 -0.85429 0.15302
v 0.0344754 -0.0568448 0.0465553
vn -0.0776763 -0.807411 -0.584853
v 0.0525642 -0.0502191 0.0359018
vn -0.0539895 -0.740725 -0.669635
v 0.0534424 -0.0461689 0.0332168
vn -0.0174597 -0.49062 -0.871199
v 0.0533385 -0.0494988 0.0355003
vn 0.136685 -0.565894 -0.813069
v 0.0534424 -0.0494611 0.0355081
vn 0.772746 -0.539384 -0.334557
v 0.0534424 -0.0501059 0.0382837
vn 0.713337 -0.69871 0.0543563
v 0.0534424 -0.0500154 0.0388388
vn 0.675284 -0.72752 0.121267
v 0.0527109 -0.0502304 0.0407207
vn 0.58186 -0.793122 0.17999
v 0.0528074 -0.050302 0.0398664
vn 0.500239 -0.85635 0.128165
v 0.0519552 -0.0505811 0.041327
vn 0.50001 -0.854134 0.142986
v 0.0387906 -0.0551893 0.0537836
vn 0.518162 -0.777904 0.355491
v 0.0384211 -0.0549291 0.0548387
vn 0.542184 -0.694382 0.47315
v 0.0413269 -0.0547783 0.0509332
vn 0.513889 -0.7876 0.340007
v 0.044853 -0.0534169 0.0486734
vn 0.535048 -0.792566 0.292511
v 0.0445243 -0.0531944 0.0497285
vn 0.538199 -0.765217 0.353248
v 0.0345014 -0.0568297 0.0554096
vn 0.29322 -0.866939 0.403038
v 0.0344754 -0.0573426 0.0540946
vn -0.999091 -0.0398244 0.0152248
v 0.0373664 -0.0553175 0.0553151
vn 0.469779 -0.703598 0.533158
v 0.0361354 -0.055804 0.0557167
vn 0.428595 -0.716209 0.550773
v 0.0345014 -0.0563508 0.0562009
vn 0.406963 -0.722776 0.558548
v 0.0344754 -0.0563584 0.0562088
vn -0.885034 -0.384402 0.262585
v 0.0458426 -0.0530323 0.0477718
vn 0.546381 -0.804715 0.232168
v 0.0515077 -0.0505057 0.0430278
vn 0.531125 -0.825867 0.18934
v 0.0344754 -0.0562264 0.0457679
vn -0.212857 -0.706514 -0.674929
v 0.0515095 -0.0501738 0.0359491
vn -0.209863 -0.602267 -0.770215
v 0.0506963 -0.0491179 0.0356341
vn -0.307618 -0.440197 -0.843562
v 0.0512087 -0.0469156 0.0343585
vn -0.333943 -0.393712 -0.856431
v 0.0534424 -0.0451394 0.0327562
vn -0.299402 -0.318393 -0.899436
v 0.0534424 -0.0485221 0.0348428
vn 0.987262 -0.0908898 -0.130589
v 0.0534424 -0.0498155 0.040016
vn 0.805571 -0.578713 0.127068
v 0.0534424 -0.0494535 0.0413979
vn 0.843921 -0.518925 0.136066
v 0.0534424 -0.049446 0.0414254
vn 0.726823 -0.656178 0.202879
v 0.0525196 -0.0500795 0.0417719
vn 0.605075 -0.764395 0.222676
v 0.051283 -0.0503548 0.0441734
vn 0.586931 -0.765631 0.263291
v 0.0434715 -0.0535489 0.050512
vn 0.524493 -0.770268 0.36276
v 0.0430909 -0.0532925 0.0515631
vn 0.551019 -0.721507 0.419293
v 0.0447973 -0.0518104 0.0517482
vn 0.58723 -0.653974 0.476948
v 0.0432784 -0.0518632 0.0533742
vn 0.569506 -0.595035 0.567095
v 0.0400421 -0.053383 0.0548899
vn 0.55001 -0.576043 0.604701
v 0.0392455 -0.0537525 0.0552482
vn 0.539076 -0.58239 0.608456
v 0.0378808 -0.0543635 0.0558663
vn 0.532869 -0.585187 0.611234
v 0.0367537 -0.0548537 0.0563663
vn 0.489035 -0.590453 0.642036
v 0.0469196 -0.0522403 0.0477718
vn 0.572123 -0.763976 0.298354
v 0.0466021 -0.0520141 0.0489096
vn 0.592541 -0.70182 0.395403
v 0.0439933 -0.0529078 0.0509962
vn 0.567787 -0.714058 0.40956
v 0.0344754 -0.0568335 0.0554174
vn -0.999873 -0.0144342 0.00671989
v 0.0356991 -0.0552383 0.0567521
vn 0.422474 -0.669559 0.610906
v 0.0344754 -0.0561057 0.0565041
vn -0.918536 -0.29981 0.257694
v 0.0344754 -0.0554382 0.0450829
vn -0.361385 -0.533571 -0.764658
v 0.0344754 -0.0540316 0.0442364
vn -0.361269 -0.441836 -0.821137
v 0.0344754 -0.0532171 0.0438388
vn -0.443153 -0.307605 -0.842018
v 0.052917 -0.0446756 0.0328349
vn -0.468872 -0.0911387 -0.878552
v 0.0534424 -0.0446756 0.032642
vn 0.988484 -0.0117818 -0.150866
v 0.0534424 -0.0489746 0.0428191
vn 0.782137 -0.582405 0.221509
v 0.0522987 -0.0498834 0.0430278
vn 0.627729 -0.737396 0.249406
v 0.0529132 -0.0488502 0.0442679
vn 0.64143 -0.702121 0.309183
v 0.0510193 -0.0501399 0.0452285
vn 0.62785 -0.706435 0.326733
v 0.0499647 -0.0505622 0.0461892
vn 0.583529 -0.747184 0.318134
v 0.04961 -0.0471305 0.0518033
vn 0.575991 -0.565936 0.589873
v 0.0450888 -0.0520631 0.0509332
vn 0.574119 -0.705431 0.415637
v 0.0509506 -0.0484919 0.0483388
vn 0.608379 -0.668623 0.427573
v 0.0495153 -0.0486239 0.050134
vn 0.602188 -0.658931 0.450754
v 0.0511289 -0.047074 0.0501734
vn 0.634559 -0.596524 0.49142
v 0.0502079 -0.0474285 0.0507954
vn 0.589065 -0.612004 0.527687
v 0.0416389 -0.0518142 0.0548978
vn 0.555604 -0.536449 0.635238
v 0.0383951 -0.0533038 0.0564174
vn 0.535125 -0.508889 0.674295
v 0.0373404 -0.0538016 0.0567993
vn 0.483877 -0.53198 0.694881
v 0.036128 -0.0542088 0.0573033
vn 0.464927 -0.539854 0.701713
v 0.0348691 -0.0546199 0.0578072
vn 0.451971 -0.541352 0.708985
v 0.0496695 -0.0503322 0.0471773
vn 0.604417 -0.700865 0.378772
v 0.0513034 -0.0488162 0.0472836
vn 0.624852 -0.671829 0.397751
v 0.0344754 -0.0554684 0.0572442
vn -0.933007 -0.261956 0.246734
v 0.0344754 -0.0547707 0.0579214
vn -0.959118 -0.190527 0.209265
v 0.0344754 -0.0526891 0.0437089
vn -0.580735 -0.182062 -0.793473
v 0.0534424 -0.0384345 0.0322326
vn -0.371593 -0.0266703 -0.928012
v 0.0344754 -0.0525307 0.0436813
vn -0.610456 -0.126016 -0.781961
v 0.0344754 -0.0510034 0.0434372
vn -0.548554 -0.048218 -0.834723
v 0.0534424 -0.0486163 0.0436656
vn 0.941138 -0.30362 0.148573
v 0.0526477 -0.04859 0.045323
vn 0.657833 -0.667347 0.349147
v 0.0516191 -0.0491104 0.0461892
vn 0.636962 -0.685189 0.353264
v 0.0507557 -0.0499023 0.0461892
vn 0.617563 -0.699121 0.360341
v 0.0506647 -0.0465309 0.0512285
vn 0.623642 -0.543037 0.562301
v 0.0511122 -0.0454788 0.0517324
vn 0.664057 -0.412828 0.623379
v 0.0502079 -0.0461086 0.0520946
vn 0.599119 -0.518692 0.60993
v 0.0495228 -0.0454675 0.0533033
vn 0.637793 -0.332222 0.694873
v 0.0519162 -0.0478621 0.0477915
vn 0.65469 -0.631651 0.415208
v 0.0513981 -0.0473568 0.0493545
vn 0.655727 -0.625172 0.4233
v 0.0503806 -0.048243 0.0495041
vn 0.615107 -0.651636 0.443862
v 0.0526125 -0.0453393 0.0500356
vn 0.686444 -0.493714 0.533893
v 0.0513944 -0.0461086 0.0507954
vn 0.660038 -0.521537 0.540693
v 0.052527 -0.0468666 0.0483033
vn 0.669183 -0.607244 0.42831
v 0.0534424 -0.0462368 0.0477482
vn 0.898608 -0.348171 0.266984
v 0.0529838 -0.0458144 0.0489844
vn 0.682548 -0.561392 0.46794
v 0.04847 -0.0459955 0.0537679
vn 0.544494 -0.507935 0.667479
v 0.0377527 -0.0526702 0.0573151
vn 0.520154 -0.475183 0.709676
v 0.0365569 -0.0530888 0.0578544
vn 0.472451 -0.507801 0.720366
v 0.0478517 -0.0452526 0.054823
vn 0.543484 -0.371476 0.752749
v 0.0355022 -0.053564 0.0581773
vn 0.454135 -0.522889 0.721352
v 0.0344754 -0.0527947 0.059378
vn -0.748727 -0.38068 0.54267
v 0.0344754 -0.0540882 0.0584332
vn -0.996809 -0.0471328 0.0644206
v 0.0344754 -0.0541938 0.0583544
vn -0.99669 -0.0487688 0.0650398
v 0.0524101 -0.0483448 0.0461892
vn 0.666195 -0.641732 0.379954
v 0.0528538 -0.0472361 0.0472482
vn 0.66687 -0.626553 0.403381
v 0.0534424 -0.0380234 0.0322877
vn -0.439207 0.136898 -0.887894
v 0.0344754 -0.0494234 0.043449
vn -0.674126 0.00722276 -0.738581
v 0.0344754 -0.0493932 0.043453
vn -0.689609 0.100667 -0.717151
v 0.0534424 -0.048013 0.0448348
vn 0.961374 -0.242145 0.130869
v 0.0534424 -0.0473908 0.0459333
vn 0.965581 -0.226163 0.128468
v 0.0534424 -0.0472437 0.0461892
vn 0.85341 -0.449043 0.264674
v 0.0529485 -0.0442834 0.0503899
vn 0.699595 -0.41206 0.583758
v 0.0534424 -0.0437517 0.0501616
vn 0.98836 -0.0743725 0.132716
v 0.0534424 -0.0430955 0.0504883
vn 0.979941 -0.0878365 0.178889
v 0.0534424 -0.0429258 0.0505671
vn 0.86533 -0.178888 0.468192
v 0.0479464 -0.0328307 0.059634
vn 0.649433 -0.27212 0.710062
v 0.0534424 -0.0455278 0.0486537
vn 0.986916 -0.119854 0.107849
v 0.0534424 -0.0447585 0.049445
vn 0.990727 -0.0961794 0.0959649
v 0.0534424 -0.0446794 0.0495041
vn 0.990495 -0.0802428 0.11172
v 0.0534424 -0.0462481 0.0477325
vn 0.952036 -0.252895 0.172253
v 0.0371121 -0.0520329 0.0582088
vn 0.507525 -0.444645 0.738044
v 0.035246 -0.0517426 0.0595985
vn 0.471875 -0.461579 0.751185
v 0.0367574 -0.0500758 0.0595552
vn 0.503018 -0.420074 0.755322
v 0.0471572 -0.0334567 0.0600158
vn 0.592171 -0.294947 0.749894
v 0.0462233 -0.0325365 0.0611103
vn 0.572118 -0.289867 0.76724
v 0.0459392 -0.0336113 0.0609017
vn 0.57017 -0.303834 0.763277
v 0.0424447 -0.0382723 0.0616497
vn 0.567412 -0.30614 0.764409
v 0.0419415 -0.0396525 0.0614528
vn 0.54407 -0.330448 0.771228
v 0.0416055 -0.0407046 0.0612009
vn 0.503377 -0.388477 0.771814
v 0.03719 -0.0490199 0.0598347
vn 0.495888 -0.392879 0.77443
v 0.0344754 -0.0521121 0.0598387
vn -0.990961 -0.0684795 0.115354
v 0.0534424 -0.0469495 0.0466774
vn 0.984604 -0.14689 0.0947572
v 0.0534424 -0.0367752 0.0325042
vn -0.306886 0.260803 -0.915316
v 0.0344754 -0.0480394 0.0436459
vn -0.60424 0.209604 -0.768739
v 0.0534424 -0.0323178 0.0545592
vn 0.961766 -0.0961935 0.256425
v 0.0494262 -0.0293688 0.0595395
vn 0.666535 -0.253955 0.700884
v 0.0484236 -0.0304473 0.0600591
vn 0.634155 -0.250677 0.731443
v 0.0474877 -0.0304473 0.0608505
vn 0.609949 -0.257145 0.749559
v 0.0470607 -0.0320161 0.0606379
vn 0.600733 -0.270003 0.752474
v 0.0361707 -0.0511316 0.0593466
vn 0.49542 -0.429615 0.754977
v 0.0357028 -0.0506904 0.0598859
vn 0.468371 -0.403447 0.78604
v 0.0344754 -0.0510638 0.0604056
vn -0.951968 -0.143824 0.270318
v 0.0464721 -0.0314806 0.0612954
vn 0.580185 -0.261152 0.771483
v 0.04318 -0.0296102 0.0643583
vn 0.555136 -0.254359 0.791912
v 0.0429721 -0.0304473 0.0642127
vn 0.553311 -0.28429 0.78296
v 0.0436646 -0.0320274 0.0631339
vn 0.558213 -0.287197 0.778406
v 0.0417874 -0.0362925 0.0629056
vn 0.544076 -0.291341 0.78683
v 0.0423519 -0.0368016 0.0622954
vn 0.564696 -0.299693 0.768962
v 0.0414848 -0.0373446 0.0627048
vn 0.534115 -0.307587 0.787472
v 0.0411821 -0.0383553 0.0625119
vn 0.526596 -0.322473 0.78658
v 0.0401163 -0.0392528 0.0628387
vn 0.457684 -0.362779 0.811737
v 0.0408609 -0.0399806 0.0620237
vn 0.500563 -0.369644 0.782815
v 0.0404858 -0.0415154 0.061504
vn 0.485182 -0.386924 0.784148
v 0.0361707 -0.0494988 0.0602009
vn 0.460932 -0.384756 0.79969
v 0.0534424 -0.0241233 0.0362483
vn -0.307222 0.274437 -0.911208
v 0.0344754 -0.04793 0.0436813
vn -0.779346 0.231453 -0.58228
v 0.0534424 -0.0313185 0.0549214
vn 0.949078 -0.10538 0.296893
v 0.0524843 -0.0257033 0.0578505
vn 0.677862 -0.245276 0.693068
v 0.0526793 -0.0201448 0.0596221
vn 0.679176 -0.238028 0.694307
v 0.0519514 -0.019515 0.0604686
vn 0.640131 -0.232497 0.732242
v 0.0486891 -0.0287353 0.060382
vn 0.637943 -0.232702 0.734083
v 0.0477514 -0.0291539 0.0610631
vn 0.614327 -0.234144 0.753511
v 0.0466968 -0.0304473 0.0614607
vn 0.583347 -0.244007 0.774704
v 0.0344754 -0.0509959 0.060441
vn -0.904419 -0.187059 0.383452
v 0.0434028 -0.028558 0.0645237
vn 0.575254 -0.237799 0.782646
v 0.0401683 -0.0204993 0.0692166
vn 0.575665 -0.216879 0.788399
v 0.0399381 -0.0215552 0.0690551
vn 0.522674 -0.2514 0.814622
v 0.0421811 -0.0304473 0.0647481
vn 0.517627 -0.2663 0.813109
v 0.0418617 -0.0316654 0.0645316
vn 0.50185 -0.287163 0.815895
v 0.0415572 -0.0327213 0.0643347
vn 0.492473 -0.295203 0.818734
v 0.0403911 -0.0383553 0.063004
vn 0.48791 -0.296916 0.820844
v 0.0344754 -0.0497062 0.061067
vn -0.623451 -0.332056 0.707848
v 0.0348672 -0.0494234 0.0609804
vn 0.457042 -0.382706 0.8029
v 0.0371919 -0.034867 0.0661457
vn 0.476335 -0.301773 0.825856
v 0.0362152 -0.0353158 0.0665315
vn 0.464223 -0.315259 0.827713
v 0.0348728 -0.0351913 0.0673229
vn 0.455492 -0.324786 0.828879
v 0.0344754 -0.0363792 0.0670709
vn -0.457357 -0.327709 0.826699
v 0.0344754 -0.0366734 0.0669528
vn -0.694295 -0.272428 0.666137
v 0.0344754 -0.0382949 0.0662874
vn -0.681913 -0.282406 0.674716
v 0.0344754 -0.0399655 0.0655749
vn -0.686996 -0.287836 0.667223
v 0.0345534 -0.0415381 0.0648465
vn 0.446992 -0.375698 0.811818
v 0.0534424 -0.0228977 0.0366814
vn -0.294547 0.321323 -0.899996
v 0.0534424 -0.0193265 0.0379609
vn 0.112129 0.847341 -0.519076
v 0.0344754 -0.0193755 0.0552442
vn -1 0.000209407 -0.00042344
v 0.034481 -0.0193265 0.0552482
vn -0.633132 0.343128 -0.693835
v 0.0534424 -0.0255412 0.0569489
vn 0.997946 -0.0209135 0.0605524
v 0.0534424 -0.0207972 0.0585552
vn 0.998024 -0.0201208 0.0595192
v 0.0534424 -0.0196017 0.0589568
vn 0.996707 -0.0254014 0.0770011
v 0.0531101 -0.0193265 0.0594095
vn 0.0604202 0.996657 0.0549959
v 0.0527963 -0.0193265 0.0597521
vn 0.0386171 0.99849 0.0390816
v 0.0523451 -0.0193265 0.0601654
vn 0.0437166 0.997894 0.0479111
v 0.0519756 -0.0193265 0.0605001
vn 0.00802177 0.999928 0.00890809
v 0.0517286 -0.0193265 0.0607206
vn 0.399663 0.791487 0.462404
v 0.0511363 -0.0193265 0.0612324
vn 0.381179 0.778584 0.498508
v 0.0479501 -0.028098 0.0612166
vn 0.594203 -0.218001 0.774208
v 0.0444519 -0.0272834 0.0641221
vn 0.59016 -0.215687 0.777939
v 0.0436628 -0.0272834 0.0647087
vn 0.575791 -0.226394 0.785628
v 0.0403837 -0.0193265 0.0693701
vn 0.0406167 0.997661 0.0549763
v 0.0392455 -0.0193755 0.0700118
vn 0.476476 -0.211588 0.853347
v 0.036893 -0.021789 0.0707087
vn 0.466642 -0.208507 0.859517
v 0.0366479 -0.0228449 0.0705709
vn 0.477966 -0.233336 0.846819
v 0.0388964 -0.0225394 0.0693701
vn 0.483537 -0.244469 0.840492
v 0.0386161 -0.0236217 0.0692126
vn 0.496168 -0.265497 0.826637
v 0.0396874 -0.0225394 0.0688977
vn 0.514002 -0.26513 0.815786
v 0.0399585 -0.0263369 0.0674882
vn 0.508727 -0.269179 0.817765
v 0.0389113 -0.0272834 0.0678189
vn 0.50109 -0.275613 0.820333
v 0.0386142 -0.0283469 0.0676339
vn 0.494322 -0.283565 0.821728
v 0.0377322 -0.028871 0.0679803
vn 0.487224 -0.292173 0.822951
v 0.0404951 -0.0336113 0.0646497
vn 0.488394 -0.294041 0.82159
v 0.0391489 -0.0335547 0.0654686
vn 0.487201 -0.294739 0.822049
v 0.0382466 -0.0340449 0.0658268
vn 0.484989 -0.296455 0.82274
v 0.0344754 -0.0417191 0.0648032
vn -0.999941 -0.00454284 0.00981629
v 0.0376969 -0.0335547 0.0663268
vn 0.48157 -0.295818 0.824974
v 0.0361187 -0.0290219 0.0688701
vn 0.477944 -0.296079 0.826986
v 0.0360723 -0.0336905 0.0672126
vn 0.472258 -0.300037 0.828825
v 0.0351996 -0.034275 0.0674922
vn 0.450738 -0.306485 0.838393
v 0.0344754 -0.0355081 0.0674095
vn -0.996745 -0.0277011 0.0757165
v 0.0534424 -0.0193265 0.0590355
vn 0.999942 0.0107419 8.08971e-05
v 0.0344754 -0.0193265 0.0578269
vn -0.897162 0.441701 -3.69802e-07
v 0.0534424 -0.0194848 0.0589922
vn 0.999691 -0.00683311 0.0238899
v 0.0392919 -0.0193265 0.0699961
vn 0.00117524 0.999997 0.00205016
v 0.0392436 -0.0193265 0.0700236
vn 0.114164 0.968911 0.219497
v 0.0360834 -0.0209593 0.071315
vn 0.451359 -0.187582 0.872404
v 0.0361057 -0.0224074 0.0709803
vn 0.454419 -0.210723 0.865505
v 0.0355357 -0.0241233 0.0708347
vn 0.456897 -0.230747 0.85907
v 0.0363266 -0.0241233 0.0703858
vn 0.482584 -0.24835 0.839902
v 0.0353147 -0.0249529 0.0707126
vn 0.466817 -0.262449 0.844513
v 0.0359386 -0.0255676 0.0701536
vn 0.483671 -0.271016 0.832234
v 0.0372495 -0.0257033 0.0693425
vn 0.487861 -0.270123 0.830075
v 0.0380405 -0.0257033 0.068874
vn 0.495377 -0.273694 0.824435
v 0.0375688 -0.0272382 0.0686418
vn 0.492271 -0.280637 0.823961
v 0.0366701 -0.0277322 0.069004
vn 0.483878 -0.286991 0.82674
v 0.0361187 -0.0272382 0.0694921
vn 0.476172 -0.283713 0.832326
v 0.0356174 -0.0285995 0.0693032
vn 0.467899 -0.290243 0.834763
v 0.0352887 -0.0296516 0.0691181
vn 0.460513 -0.300531 0.83523
v 0.0344754 -0.0289992 0.0697795
vn -0.990611 -0.0466058 0.128521
v 0.0344754 -0.0193265 0.0724528
vn -0.895599 0.444857 0.00214686
v 0.0382168 -0.0193265 0.0705512
vn 0.0598109 0.991349 0.116834
v 0.0347372 -0.0209593 0.0720039
vn 0.446355 -0.175681 0.877441
v 0.0344754 -0.0223546 0.0718386
vn -0.970932 -0.0511929 0.233817
v 0.0344754 -0.0224414 0.0718189
vn -0.966265 -0.0640994 0.249445
v 0.0344754 -0.0237801 0.0714725
vn -0.996313 -0.0215018 0.0830593
v 0.0345014 -0.0241233 0.0713701
vn 0.438022 -0.250696 0.863301
v 0.0344754 -0.0255676 0.0709449
vn -0.996959 -0.0227086 0.0745479
v 0.0344754 -0.0264274 0.0706811
vn -0.996086 -0.0265647 0.0842997
v 0.034999 -0.026005 0.0705473
vn 0.467973 -0.283584 0.837008
v 0.0369784 -0.0266763 0.0691811
vn 0.486353 -0.276552 0.828842
v 0.0344754 -0.0273362 0.070378
vn -0.96928 -0.081132 0.232192
v 0.0344754 -0.0209593 0.0721339
vn -0.999845 -0.00350028 0.0172581
v 0.035077 -0.0193265 0.0721496
vn 0.0336952 0.997228 0.066346
v 0.0374444 -0.0193265 0.0709449
vn 0.0338063 0.99722 0.0664066
v 0.0344754 -0.0241233 0.0713819
vn -0.999997 -0.000636081 0.00215518
f 1//1 2//2 9//9
f 1//1 9//9 17//17
f 1//1 17//17 30//30
f 1//1 30//30 49//49
f 1//1 49//49 78//78
f 1//1 78//78 53//53
f 1//1 53//53 80//80
f 1//1 80//80 104//104
f 1//1 104//104 105//105
f 1//1 105//105 133//133
f 1//1 133//133 132//132
f 1//1 132//132 131//131
f 1//1 131//131 161//161
f 1//1 161//161 172//172
f 1//1 172//172 194//194
f 1//1 194//194 202//202
f 1//1 202//202 242//242
f 1//1 242//242 210//210
f 1//1 210//210 209//209
f 1//1 209//209 208//208
f 1//1 208//208 207//207
f 1//1 207//207 247//247
f 1//1 247//247 266//266
f 1//1 266//266 278//278
f 1//1 278//278 275//275
f 1//1 275//275 274//274
f 1//1 274//274 282//282
f 1//1 282//282 272//272
f 1//1 272//272 271//271
f 1//1 271//271 270//270
f 1//1 270//270 279//279
f 1//1 279//279 267//267
f 1//1 267//267 249//249
f 1//1 249//249 214//214
f 1//1 214//214 186//186
f 1//1 186//186 164//164
f 1//1 164//164 138//138
f 1//1 138//138 137//137
f 1//1 137//137 109//109
f 1//1 109//109 108//108
f 1//1 108//108 106//106
f 1//1 106//106 83//83
f 1//1 83//83 82//82
f 1//1 82//82 81//81
f 1//1 81//81 56//56
f 1//1 56//56 33//33
f 1//1 33//33 19//19
f 1//1 19//19 10//10
f 1//1 10//10 3//3
f 1//1 3//3 4//4
f 1//1 4//4 5//5
f 1//1 5//5 6//6
f 1//1 6//6 2//2
f 2//2 6//6 7//7
f 2//2 7//7 8//8
f 2//2 8//8 9//9
f 3//3 10//10 4//4
f 4//4 10//10 11//11
f 4//4 11//11 5//5
f 5//5 11//11 12//12
f 5//5 12//12 13//13
f 5//5 13//13 6//6
f 6//6 14//14 8//8
f 6//6 8//8 7//7
f 6//6 13//13 14//14
f 8//8 15//15 16//16
f 8//8 16//16 17//17
f 8//8 17//17 9//9
f 8//8 14//14 18//18
f 8//8 18//18 15//15
f 10//10 19//19 20//20
f 10//10 20//20 11//11
f 11//11 20//20 21//21
f 11//11 21//21 22//22
f 11//11 22//22 23//23
f 11//11 23//23 12//12
f 12//12 23//23 24//24
f 12//12 24//24 13//13
f 13//13 24//24 23//23
f 13//13 23//23 14//14
f 14//14 23//23 25//25
f 14//14 25//25 18//18
f 15//15 26//26 16//16
f 15//15 18//18 27//27
f 15//15 27//27 26//26
f 16//16 28//28 17//17
f 16//16 26//26 29//29
f 16//16 29//29 28//28
f 17//17 28//28 30//30
f 18//18 25//25 31//31
f 18//18 31//31 32//32
f 18//18 32//32 27//27
f 19//19 33//33 20//20
f 20//20 34//34 35//35
f 20//20 35//35 36//36
f 20//20 36//36 37//37
f 20//20 37//37 21//21
f 20//20 33//33 34//34
f 21//21 37//37 61//61
f 21//21 61//61 35//35
f 21//21 35//35 60//60
f 21//21 60//60 85//85
f 21//21 85//85 107//107
f 21//21 107//107 136//136
f 21//21 136//136 163//163
f 21//21 163//163 185//185
f 21//21 185//185 212//212
f 21//21 212//212 213//213
f 21//21 213//213 248//248
f 21//21 248//248 250//250
f 21//21 250//250 218//218
f 21//21 218//218 217//217
f 21//21 217//217 216//216
f 21//21 216//216 187//187
f 21//21 187//187 165//165
f 21//21 165//165 145//145
f 21//21 145//145 144//144
f 21//21 144//144 143//143
f 21//21 143//143 149//149
f 21//21 149//149 148//148
f 21//21 148//148 147//147
f 21//21 147//147 124//124
f 21//21 124//124 150//150
f 21//21 150//150 162//162
f 21//21 162//162 141//141
f 21//21 141//141 140//140
f 21//21 140//140 139//139
f 21//21 139//139 110//110
f 21//21 110//110 86//86
f 21//21 86//86 64//64
f 21//21 64//64 63//63
f 21//21 63//63 62//62
f 21//21 62//62 39//39
f 21//21 39//39 38//38
f 21//21 38//38 22//22
f 22//22 38//38 23//23
f 23//23 38//38 39//39
f 23//23 39//39 40//40
f 23//23 40//40 41//41
f 23//23 41//41 42//42
f 23//23 42//42 32//32
f 23//23 32//32 31//31
f 23//23 31//31 25//25
f 26//26 43//43 44//44
f 26//26 44//44 29//29
f 26//26 27//27 45//45
f 26//26 45//45 43//43
f 27//27 32//32 46//46
f 27//27 46//46 47//47
f 27//27 47//47 45//45
f 28//28 29//29 48//48
f 28//28 48//48 49//49
f 28//28 49//49 30//30
f 29//29 44//44 50//50
f 29//29 50//50 51//51
f 29//29 51//51 52//52
f 29//29 52//52 53//53
f 29//29 53//53 48//48
f 32//32 54//54 46//46
f 32//32 42//42 55//55
f 32//32 55//55 54//54
f 33//33 56//56 57//57
f 33//33 57//57 34//34
f 34//34 57//57 35//35
f 35//35 58//58 59//59
f 35//35 59//59 60//60
f 35//35 61//61 36//36
f 35//35 57//57 58//58
f 36//36 61//61 37//37
f 39//39 62//62 40//40
f 40//40 62//62 63//63
f 40//40 63//63 64//64
f 40//40 64//64 65//65
f 40//40 65//65 66//66
f 40//40 66//66 55//55
f 40//40 55//55 42//42
f 40//40 42//42 41//41
f 43//43 45//45 67//67
f 43//43 67//67 44//44
f 44//44 67//67 68//68
f 44//44 68//68 69//69
f 44//44 69//69 70//70
f 44//44 70//70 71//71
f 44//44 71//71 72//72
f 44//44 72//72 73//73
f 44//44 73//73 74//74
f 44//44 74//74 50//50
f 45//45 47//47 67//67
f 46//46 54//54 75//75
f 46//46 75//75 76//76
f 46//46 76//76 47//47
f 47//47 76//76 77//77
f 47//47 77//77 68//68
f 47//47 68//68 67//67
f 48//48 53//53 78//78
f 48//48 78//78 49//49
f 50//50 74//74 79//79
f 50//50 79//79 51//51
f 51//51 79//79 52//52
f 52//52 79//79 53//53
f 53//53 79//79 80//80
f 54//54 55//55 66//66
f 54//54 66//66 75//75
f 56//56 81//81 57//57
f 57//57 81//81 82//82
f 57//57 82//82 58//58
f 58//58 82//82 59//59
f 59//59 82//82 83//83
f 59//59 83//83 60//60
f 60//60 84//84 85//85
f 60//60 83//83 84//84
f 64//64 86//86 87//87
f 64//64 87//87 66//66
f 64//64 66//66 65//65
f 66//66 88//88 89//89
f 66//66 89//89 90//90
f 66//66 90//90 75//75
f 66//66 87//87 86//86
f 66//66 86//86 88//88
f 68//68 77//77 69//69
f 69//69 91//91 70//70
f 69//69 77//77 92//92
f 69//69 92//92 76//76
f 69//69 76//76 93//93
f 69//69 93//93 94//94
f 69//69 94//94 95//95
f 69//69 95//95 96//96
f 69//69 96//96 91//91
f 70//70 97//97 71//71
f 70//70 91//91 97//97
f 71//71 97//97 98//98
f 71//71 98//98 72//72
f 72//72 98//98 73//73
f 73//73 98//98 74//74
f 74//74 98//98 99//99
f 74//74 99//99 100//100
f 74//74 100//100 101//101
f 74//74 101//101 79//79
f 75//75 90//90 76//76
f 76//76 92//92 77//77
f 76//76 90//90 102//102
f 76//76 102//102 103//103
f 76//76 103//103 93//93
f 79//79 104//104 80//80
f 79//79 101//101 105//105
f 79//79 105//105 104//104
f 83//83 106//106 84//84
f 84//84 107//107 85//85
f 84//84 106//106 108//108
f 84//84 108//108 109//109
f 84//84 109//109 107//107
f 86//86 110//110 88//88
f 88//88 110//110 111//111
f 88//88 111//111 89//89
f 89//89 111//111 112//112
f 89//89 112//112 113//113
f 89//89 113//113 90//90
f 90//90 113//113 102//102
f 91//91 114//114 115//115
f 91//91 115//115 116//116
f 91//91 116//116 117//117
f 91//91 117//117 97//97
f 91//91 96//96 95//95
f 91//91 95//95 114//114
f 93//93 103//103 118//118
f 93//93 118//118 119//119
f 93//93 119//119 95//95
f 93//93 95//95 120//120
f 93//93 120//120 94//94
f 94//94 120//120 95//95
f 95//95 121//121 122//122
f 95//95 122//122 115//115
f 95//95 115//115 114//114
f 95//95 119//119 123//123
f 95//95 123//123 124//124
f 95//95 124//124 125//125
f 95//95 125//125 121//121
f 97//97 117//117 126//126
f 97//97 126//126 98//98
f 98//98 127//127 128//128
f 98//98 128//128 99//99
f 98//98 126//126 129//129
f 98//98 129//129 127//127
f 99//99 128//128 100//100
f 100//100 128//128 101//101
f 101//101 128//128 130//130
f 101//101 130//130 131//131
f 101//101 131//131 132//132
f 101//101 132//132 133//133
f 101//101 133//133 105//105
f 102//102 113//113 103//103
f 103//103 113//113 112//112
f 103//103 112//112 111//111
f 103//103 111//111 134//134
f 103//103 134//134 135//135
f 103//103 135//135 118//118
f 107//107 109//109 137//137
f 107//107 137//137 138//138
f 107//107 138//138 136//136
f 110//110 139//139 111//111
f 111//111 139//139 140//140
f 111//111 140//140 141//141
f 111//111 141//141 134//134
f 115//115 117//117 116//116
f 115//115 122//122 121//121
f 115//115 121//121 142//142
f 115//115 142//142 143//143
f 115//115 143//143 144//144
f 115//115 144//144 145//145
f 115//115 145//145 117//117
f 117//117 146//146 129//129
f 117//117 129//129 126//126
f 117//117 145//145 146//146
f 118//118 135//135 119//119
f 119//119 135//135 123//123
f 121//121 125//125 147//147
f 121//121 147//147 148//148
f 121//121 148//148 149//149
f 121//121 149//149 142//142
f 123//123 135//135 150//150
f 123//123 150//150 124//124
f 124//124 147//147 125//125
f 127//127 151//151 128//128
f 127//127 129//129 151//151
f 128//128 151//151 152//152
f 128//128 152//152 131//131
f 128//128 131//131 130//130
f 129//129 153//153 151//151
f 129//129 146//146 154//154
f 129//129 154//154 155//155
f 129//129 155//155 156//156
f 129//129 156//156 157//157
f 129//129 157//157 158//158
f 129//129 158//158 159//159
f 129//129 159//159 160//160
f 129//129 160//160 153//153
f 131//131 152//152 161//161
f 134//134 141//141 135//135
f 135//135 141//141 162//162
f 135//135 162//162 150//150
f 136//136 138//138 164//164
f 136//136 164//164 163//163
f 142//142 149//149 143//143
f 145//145 165//165 166//166
f 145//145 166//166 146//146
f 146//146 166//166 167//167
f 146//146 167//167 168//168
f 146//146 168//168 169//169
f 146//146 169//169 155//155
f 146//146 155//155 154//154
f 151//151 153//153 170//170
f 151//151 170//170 152//152
f 152//152 170//170 153//153
f 152//152 153//153 171//171
f 152//152 171//171 172//172
f 152//152 172//172 161//161
f 153//153 160//160 171//171
f 155//155 169//169 173//173
f 155//155 173//173 174//174
f 155//155 174//174 175//175
f 155//155 175//175 176//176
f 155//155 176//176 177//177
f 155//155 177//177 178//178
f 155//155 178//178 156//156
f 156//156 178//178 157//157
f 157//157 178//178 177//177
f 157//157 177//177 179//179
f 157//157 179//179 158//158
f 158//158 179//179 180//180
f 158//158 180//180 181//181
f 158//158 181//181 182//182
f 158//158 182//182 159//159
f 159//159 182//182 183//183
f 159//159 183//183 160//160
f 160//160 183//183 181//181
f 160//160 181//181 184//184
f 160//160 184//184 171//171
f 163//163 164//164 185//185
f 164//164 186//186 185//185
f 165//165 187//187 166//166
f 166//166 187//187 188//188
f 166//166 188//188 189//189
f 166//166 189//189 190//190
f 166//166 190//190 191//191
f 166//166 191//191 192//192
f 166//166 192//192 167//167
f 167//167 192//192 168//168
f 168//168 192//192 193//193
f 168//168 193//193 173//173
f 168//168 173//173 169//169
f 171//171 184//184 194//194
f 171//171 194//194 172//172
f 173//173 193//193 174//174
f 174//174 193//193 195//195
f 174//174 195//195 196//196
f 174//174 196//196 197//197
f 174//174 197//197 198//198
f 174//174 198//198 175//175
f 175//175 177//177 176//176
f 175//175 198//198 199//199
f 175//175 199//199 177//177
f 177//177 200//200 201//201
f 177//177 201//201 179//179
f 177//177 199//199 200//200
f 179//179 201//201 181//181
f 179//179 181//181 180//180
f 181//181 202//202 203//203
f 181//181 203//203 184//184
f 181//181 183//183 182//182
f 181//181 201//201 204//204
f 181//181 204//204 205//205
f 181//181 205//205 206//206
f 181//181 206//206 207//207
f 181//181 207//207 208//208
f 181//181 208//208 209//209
f 181//181 209//209 210//210
f 181//181 210//210 211//211
f 181//181 211//211 202//202
f 184//184 203//203 202//202
f 184//184 202//202 194//194
f 185//185 186//186 212//212
f 186//186 213//213 212//212
f 186//186 214//214 215//215
f 186//186 215//215 213//213
f 187//187 216//216 189//189
f 187//187 189//189 188//188
f 189//189 216//216 217//217
f 189//189 217//217 218//218
f 189//189 218//218 219//219
f 189//189 219//219 220//220
f 189//189 220//220 221//221
f 189//189 221//221 190//190
f 190//190 221//221 222//222
f 190//190 222//222 223//223
f 190//190 223//223 192//192
f 190//190 192//192 191//191
f 192//192 223//223 224//224
f 192//192 224//224 225//225
f 192//192 225//225 226//226
f 192//192 226//226 195//195
f 192//192 195//195 193//193
f 195//195 226//226 227//227
f 195//195 227//227 196//196
f 196//196 228//228 229//229
f 196//196 229//229 230//230
f 196//196 230//230 231//231
f 196//196 231//231 197//197
f 196//196 227//227 226//226
f 196//196 226//226 224//224
f 196//196 224//224 228//228
f 197//197 231//231 232//232
f 197//197 232//232 233//233
f 197//197 233//233 234//234
f 197//197 234//234 198//198
f 198//198 234//234 235//235
f 198//198 235//235 236//236
f 198//198 236//236 199//199
f 199//199 236//236 237//237
f 199//199 237//237 238//238
f 199//199 238//238 239//239
f 199//199 239//239 200//200
f 200//200 239//239 201//201
f 201//201 239//239 240//240
f 201//201 240//240 241//241
f 201//201 241//241 204//204
f 202//202 211//211 242//242
f 204//204 241//241 243//243
f 204//204 243//243 244//244
f 204//204 244//244 245//245
f 204//204 245//245 246//246
f 204//204 246//246 205//205
f 205//205 246//246 206//206
f 206//206 246//246 247//247
f 206//206 247//247 207//207
f 210//210 242//242 211//211
f 213//213 215//215 249//249
f 213//213 249//249 267//267
f 213//213 267//267 280//280
f 213//213 280//280 281//281
f 213//213 281//281 268//268
f 213//213 268//268 252//252
f 213//213 252//252 251//251
f 213//213 251//251 228//228
f 213//213 228//228 224//224
f 213//213 224//224 223//223
f 213//213 223//223 222//222
f 213//213 222//222 221//221
f 213//213 221//221 220//220
f 213//213 220//220 219//219
f 213//213 219//219 248//248
f 214//214 249//249 215//215
f 218//218 250//250 219//219
f 219//219 250//250 248//248
f 224//224 226//226 225//225
f 228//228 251//251 229//229
f 229//229 251//251 252//252
f 229//229 252//252 230//230
f 230//230 252//252 253//253
f 230//230 253//253 254//254
f 230//230 254//254 231//231
f 231//231 254//254 255//255
f 231//231 255//255 256//256
f 231//231 256//256 232//232
f 232//232 256//256 233//233
f 233//233 256//256 257//257
f 233//233 257//257 258//258
f 233//233 258//258 259//259
f 233//233 259//259 260//260
f 233//233 260//260 236//236
f 233//233 236//236 235//235
f 233//233 235//235 234//234
f 236//236 260//260 261//261
f 236//236 261//261 237//237
f 237//237 261//261 238//238
f 238//238 261//261 262//262
f 238//238 262//262 244//244
f 238//238 244//244 243//243
f 238//238 243//243 241//241
f 238//238 241//241 240//240
f 238//238 240//240 239//239
f 244//244 262//262 263//263
f 244//244 263//263 264//264
f 244//244 264//264 265//265
f 244//244 265//265 245//245
f 245//245 265//265 246//246
f 246//246 265//265 266//266
f 246//246 266//266 247//247
f 252//252 268//268 253//253
f 253//253 269//269 270//270
f 253//253 270//270 254//254
f 253//253 268//268 269//269
f 254//254 270//270 271//271
f 254//254 271//271 255//255
f 255//255 257//257 256//256
f 255//255 271//271 272//272
f 255//255 272//272 273//273
f 255//255 273//273 257//257
f 257//257 273//273 274//274
f 257//257 274//274 275//275
f 257//257 275//275 276//276
f 257//257 276//276 258//258
f 258//258 276//276 263//263
f 258//258 263//263 277//277
f 258//258 277//277 259//259
f 259//259 277//277 260//260
f 260//260 277//277 261//261
f 261//261 277//277 262//262
f 262//262 277//277 263//263
f 263//263 276//276 264//264
f 264//264 276//276 278//278
f 264//264 278//278 265//265
f 265//265 278//278 266//266
f 267//267 279//279 269//269
f 267//267 269//269 280//280
f 268//268 281//281 269//269
f 269//269 279//279 270//270
f 269//269 281//281 280//280
f 272//272 282//282 273//273
f 273//273 282//282 274//274
f 275//275 278//278 276//276
