# Created by Open3D 
# object name: part_041
# number of vertices: 282
# number of triangles: 560
v 0.0718144 -7.929e-05 0.0316028
vn 0.000349622 -0.839683 -0.543077
v 0.0717023 0.000842252 0.0316028
vn 0.928893 0.113138 0.352644
v 0.0715801 -7.929e-05 0.0322199
vn 0.924833 0.116775 0.362005
v 0.0580523 -7.929e-05 0.0316028
vn -0.477305 -0.481936 -0.73479
v 0.0716955 0.00089646 0.0316028
vn 0.926206 0.1206 0.35721
v 0.0715156 -7.929e-05 0.0323773
vn 0.908473 0.0793906 0.410334
v 0.0678416 0.0106737 0.0382838
vn 0.923253 0.118481 0.365466
v 0.037129 0.0250906 0.0376252
vn -0.884579 0.327388 -0.332169
v 0.0448912 0.0250906 0.0316028
vn -0.144391 0.037614 -0.988806
v 0.037129 -7.929e-05 0.0531534
vn -0.594287 -0.748646 -0.293858
v 0.0715801 0.00175147 0.0316028
vn 0.931451 0.130095 0.339814
v 0.0709689 -7.929e-05 0.0335371
vn 0.898175 0.0240028 0.438982
v 0.0672304 0.0106737 0.039721
vn 0.910964 0.0943931 0.40154
v 0.0669078 0.00969546 0.0406281
vn 0.906575 0.0798176 0.414429
v 0.0666328 0.00913859 0.041324
vn 0.896858 0.081424 0.43476
v 0.066643 0.00751234 0.0415849
vn 0.902088 0.0637876 0.426813
v 0.0676073 0.0122556 0.0382838
vn 0.924344 0.190791 0.330435
v 0.0671116 0.0122556 0.0394601
vn 0.897684 0.152696 0.413336
v 0.0692541 0.00909424 0.0351193
vn 0.931531 0.144553 0.333699
v 0.037129 0.0250906 0.0637983
vn -0.0523344 0.998596 0.00813513
v 0.064609 0.0250906 0.0316028
vn 0.000251241 0.248963 -0.968513
v 0.037129 -7.929e-05 0.0739171
vn -0.596914 -0.802305 0.000623386
v 0.0709587 0.0059403 0.0316028
vn 0.943023 0.150562 0.296715
v 0.0699332 0.00751234 0.0338643
vn 0.934259 0.138591 0.32856
v 0.0660521 0.00593044 0.0430263
vn 0.896872 0.0479545 0.439683
v 0.0655734 0.00276665 0.0442689
vn 0.895117 0.0300841 0.444815
v 0.0662185 0.00118475 0.0430263
vn 0.893912 -0.0014195 0.448241
v 0.066755 -7.929e-05 0.041908
vn 0.88784 -0.109238 0.446997
v 0.0668501 0.0106737 0.0405121
vn 0.888683 0.126762 0.440652
v 0.0663747 0.0106737 0.0414482
vn 0.87027 0.14164 0.471772
v 0.0657805 0.00909424 0.0429062
vn 0.839201 0.130602 0.527906
v 0.0654953 0.00593044 0.0440825
vn 0.868776 0.0891112 0.487122
v 0.0669995 0.0132215 0.0392281
vn 0.873628 0.292273 0.389037
v 0.0682083 0.0121151 0.0365566
vn 0.933664 0.230569 0.274061
v 0.067682 0.013835 0.0367015
vn 0.906927 0.303964 0.291702
v 0.0667075 0.0122556 0.0402512
vn 0.852116 0.207365 0.480518
v 0.0698246 0.00901293 0.0334335
vn 0.937854 0.187191 0.292215
v 0.037129 0.0248763 0.0639391
vn -0.947697 0.170047 0.270101
v 0.0408742 0.0250906 0.061719
vn 0.0104047 0.999779 0.0182925
v 0.0647041 0.0249132 0.0316028
vn 0.624603 0.315465 -0.71439
v 0.0644834 0.0250906 0.031959
vn 0.00726502 0.99997 0.00259015
v 0.0645853 0.0249058 0.031959
vn 0.846195 0.440992 0.299133
v 0.0378318 -7.929e-05 0.0735692
vn 0.0168244 -0.999309 0.0331463
v 0.037129 0.000736299 0.073797
vn -0.996502 0.0188542 0.0814086
v 0.0706803 0.00751234 0.0316028
vn 0.978483 0.202932 0.0372811
v 0.0655428 0.00434854 0.0441944
vn 0.878286 0.0511813 0.475388
v 0.0651455 0.00276665 0.04506
vn 0.844293 0.0382358 0.534515
v 0.0655836 0.00118475 0.0442813
vn 0.887681 -0.00924251 0.460367
v 0.0661914 -7.929e-05 0.0430263
vn 0.886767 -0.105304 0.450062
v 0.0656549 0.0106737 0.042695
vn 0.84012 0.168973 0.51541
v 0.0602899 0.0154169 0.049699
vn 0.819742 0.127484 0.558365
v 0.0654206 0.00715259 0.0439458
vn 0.826949 0.12986 0.547075
v 0.0649758 0.00593044 0.0448736
vn 0.819594 0.115226 0.561239
v 0.065081 0.00434854 0.0449855
vn 0.833879 0.0764498 0.546627
v 0.0671693 0.0137833 0.0382051
vn 0.881929 0.340707 0.325761
v 0.063879 0.0196476 0.040918
vn 0.87935 0.341499 0.331847
v 0.0622016 0.0210127 0.0438754
vn 0.859457 0.339959 0.381788
v 0.0621269 0.0191819 0.045292
vn 0.853762 0.263686 0.448954
v 0.0694137 0.0106737 0.0335371
vn 0.937478 0.228338 0.262673
v 0.06994 0.010649 0.0316028
vn 0.95987 0.257422 0.11128
v 0.0698959 0.0108092 0.0316028
vn 0.938858 0.2658 0.218853
v 0.0681031 0.013835 0.0351193
vn 0.929782 0.280253 0.23867
v 0.0675971 0.0154169 0.0351193
vn 0.918189 0.306941 0.25043
v 0.0669486 0.017876 0.0344152
vn 0.906651 0.326334 0.267376
v 0.0665275 0.0184747 0.0350116
vn 0.883067 0.34254 0.320716
v 0.0622525 0.0181273 0.0455612
vn 0.850389 0.211365 0.481834
v 0.0619537 0.0169988 0.0465553
vn 0.846862 0.197231 0.493888
v 0.0700012 0.00948848 0.0324394
vn 0.940618 0.21723 0.260863
v 0.037129 0.0232722 0.0649415
vn -0.98411 0.0937501 0.150793
v 0.0408267 0.0237601 0.0625847
vn 0.428858 0.475901 0.767853
v 0.0408742 0.0249625 0.0618019
vn 0.427059 0.482345 0.76483
v 0.0420185 0.0244746 0.0614622
vn 0.43986 0.48041 0.758769
v 0.0438487 0.0250906 0.0600001
vn 0.140965 0.962528 0.231667
v 0.0652236 0.0238783 0.0316028
vn 0.619936 0.306677 -0.722239
v 0.0655055 0.0212566 0.0347051
vn 0.855577 0.421522 0.300511
v 0.064042 0.0250906 0.0331933
vn 0.142236 0.988513 0.0511039
v 0.0621778 0.0225404 0.0422476
vn 0.836282 0.449577 0.313867
v 0.0381408 -7.929e-05 0.0734035
vn 0.0186456 -0.999226 0.0346419
v 0.0393632 -7.929e-05 0.072745
vn 0.0823134 -0.985175 0.150516
v 0.0390848 0.00118475 0.0726414
vn 0.474918 0.190505 0.859163
v 0.037567 0.00114533 0.0734698
vn 0.461035 0.204217 0.863563
v 0.0385415 0.0037424 0.0723266
vn 0.455321 0.212277 0.864651
v 0.0382869 0.004797 0.0721982
vn 0.446849 0.217047 0.86788
v 0.0380016 0.00593044 0.0720574
vn 0.437998 0.227904 0.869608
v 0.0372105 0.00593044 0.0724426
vn 0.425844 0.22221 0.877086
v 0.037129 0.00624584 0.0724012
vn -0.999971 0.00188952 0.00733404
v 0.0701098 0.00997636 0.0316028
vn 0.960548 0.231384 -0.154303
v 0.0644562 0.00118475 0.0461908
vn 0.844549 0.0114268 0.535356
v 0.0651557 0.00118475 0.0450724
vn 0.864423 0.00237251 0.502759
v 0.0592101 -7.929e-05 0.0544789
vn 0.81763 -0.216009 0.533686
v 0.0655632 -7.929e-05 0.0442523
vn 0.870275 -0.204549 0.448085
v 0.0651489 -7.929e-05 0.0450435
vn 0.793415 -0.414118 0.446092
v 0.0652338 -7.929e-05 0.0448861
vn 0.851731 -0.275028 0.445998
v 0.0611116 0.0171171 0.0479138
vn 0.839849 0.186935 0.509616
v 0.0606974 0.0166686 0.0487381
vn 0.830683 0.158298 0.533768
v 0.0601881 0.0171171 0.0493014
vn 0.782812 0.20669 0.586928
v 0.0594988 0.0154169 0.0507594
vn 0.780049 0.168369 0.602641
v 0.0575497 0.00882073 0.0550422
vn 0.788439 0.148587 0.596897
v 0.0576652 0.00751234 0.055183
vn 0.811647 0.116778 0.572356
v 0.0589555 0.000223784 0.0547978
vn 0.818449 0.114335 0.563088
v 0.0640658 0.02017 0.0398618
vn 0.877148 0.351897 0.326771
v 0.0619334 0.0220673 0.0432997
vn 0.807675 0.435779 0.397186
v 0.0596244 0.0250192 0.0447204
vn 0.804859 0.436691 0.401874
v 0.0604325 0.0234644 0.0447618
vn 0.796772 0.422692 0.43184
v 0.0605887 0.0225207 0.0453872
vn 0.789306 0.389127 0.474949
v 0.06193 0.0201626 0.0449648
vn 0.797939 0.35017 0.490585
v 0.063862 0.0211507 0.0393317
vn 0.87109 0.369581 0.323439
v 0.0617941 0.018625 0.0461287
vn 0.835076 0.22682 0.501199
v 0.0607347 0.0196575 0.0472014
vn 0.76963 0.352164 0.532588
v 0.0609453 0.0185807 0.0475204
vn 0.806672 0.290924 0.514434
v 0.069845 0.0109866 0.0316028
vn 0.946932 0.288428 -0.141875
v 0.0680046 0.0170185 0.0316028
vn 0.946081 0.289217 -0.145892
v 0.0678993 0.0173512 0.0316028
vn 0.95024 0.311303 -0.0115638
v 0.0674579 0.0186497 0.0316028
vn 0.942357 0.334303 -0.0143134
v 0.066351 0.0201626 0.0335371
vn 0.894271 0.360306 0.265442
v 0.0657703 0.0202291 0.0351897
vn 0.878369 0.357212 0.317596
v 0.037129 0.0220648 0.065687
vn -0.767973 0.331035 0.5483
v 0.0416756 0.0225896 0.0628208
vn 0.435791 0.464285 0.771055
v 0.0423751 0.0232919 0.0619965
vn 0.439287 0.471045 0.764947
v 0.044701 0.0224566 0.061164
vn 0.444178 0.477166 0.7583
v 0.0441747 0.0250906 0.0597972
vn 0.0222208 0.999142 0.0349595
v 0.0457095 0.0218554 0.0609486
vn 0.447633 0.478605 0.755356
v 0.0463241 0.0208993 0.0611889
vn 0.478155 0.412619 0.775315
v 0.0479641 0.0241346 0.0580617
vn 0.492955 0.482002 0.724341
v 0.0656039 0.02308 0.0316028
vn 0.401749 0.189816 -0.895861
v 0.0656583 0.0217667 0.0334708
vn 0.874527 0.404417 0.267675
v 0.0639979 0.0250906 0.0333134
vn 0.0946944 0.994865 0.0357321
v 0.0602831 0.0250906 0.0431547
vn 0.0945392 0.994849 0.0365645
v 0.0595972 0.0250906 0.0446914
vn 0.0933372 0.994758 0.0417622
v 0.0394583 -7.929e-05 0.0726911
vn 0.0114734 -0.999732 0.0201088
v 0.0400322 0.000374089 0.0722769
vn 0.548335 0.180928 0.816452
v 0.039876 0.00118475 0.0721858
vn 0.501729 0.197342 0.842214
v 0.03955 0.00276665 0.0720036
vn 0.486653 0.20351 0.84956
v 0.0387588 0.00276665 0.0724467
vn 0.468912 0.205566 0.85899
v 0.0392478 0.00593044 0.0714071
vn 0.464371 0.218171 0.858348
v 0.037129 0.00702447 0.0721982
vn -0.993577 0.0305625 0.108956
v 0.0392546 0.00740639 0.0709971
vn 0.450116 0.252997 0.856381
v 0.064609 -7.929e-05 0.0459671
vn 0.571197 -0.738004 0.359281
v 0.058694 -7.929e-05 0.0552244
vn 0.73302 -0.408114 0.544174
v 0.0605785 0.0177232 0.0485393
vn 0.801309 0.24651 0.545103
v 0.0591287 0.0180879 0.050283
vn 0.748794 0.267063 0.606617
v 0.0593086 0.0169988 0.0504943
vn 0.756384 0.220906 0.615698
v 0.0588672 0.0154169 0.0515505
vn 0.760004 0.186301 0.622644
v 0.0570064 0.00924454 0.0556138
vn 0.769935 0.17157 0.614625
v 0.05611 0.00909424 0.0567694
vn 0.761845 0.161364 0.627338
v 0.0570268 0.00751234 0.0559741
vn 0.770009 0.12682 0.625302
v 0.0557229 0.00593044 0.0578877
vn 0.767035 0.120973 0.630097
v 0.0558078 0.00475757 0.0579995
vn 0.775768 0.109322 0.621476
v 0.0583782 -7.929e-05 0.0556303
vn 0.72697 -0.366141 0.58091
v 0.0595463 0.0250906 0.0447949
vn 0.060474 0.997579 0.0343462
v 0.0592882 0.0245658 0.0457724
vn 0.766917 0.421496 0.483921
v 0.059604 0.0233609 0.0462571
vn 0.764947 0.380385 0.519772
v 0.0603137 0.0218923 0.0462446
vn 0.771993 0.367832 0.518388
v 0.0608434 0.0214661 0.0457559
vn 0.783787 0.361437 0.505016
v 0.061115 0.0201749 0.0462446
vn 0.789461 0.353585 0.501725
v 0.0592 0.0228582 0.0471931
vn 0.74087 0.375311 0.557003
v 0.0589181 0.0191425 0.0500262
vn 0.719515 0.365171 0.590719
v 0.060419 0.0185807 0.0483115
vn 0.770805 0.321459 0.550022
v 0.0670776 0.0196378 0.0316028
vn 0.62037 0.238831 -0.747062
v 0.0668603 0.020202 0.0316028
vn 0.554106 0.226114 -0.801148
v 0.0662219 0.0217346 0.0316028
vn 0.521311 0.219508 -0.824652
v 0.0660386 0.0221535 0.0316028
vn 0.740762 0.334076 -0.582807
v 0.037129 0.0212739 0.0661385
vn -0.992094 0.0617771 0.109235
v 0.0398726 0.0192164 0.0658651
vn 0.436112 0.45381 0.777086
v 0.0471526 0.0250906 0.0579001
vn 0.0229737 0.999139 0.0345602
v 0.040331 0.0181643 0.0661675
vn 0.470076 0.387476 0.793026
v 0.0408471 0.0169471 0.0663995
vn 0.503863 0.34229 0.79307
v 0.0428674 0.0154169 0.065745
vn 0.511046 0.335263 0.791474
v 0.043156 0.0145422 0.0659273
vn 0.514442 0.3073 0.800572
v 0.0440864 0.0154711 0.0649291
vn 0.528212 0.321297 0.785977
v 0.047173 0.0202883 0.0608782
vn 0.532276 0.327533 0.780643
v 0.0481305 0.0212049 0.0597765
vn 0.572396 0.397373 0.717257
v 0.0476687 0.0222595 0.0594534
vn 0.497757 0.458998 0.735907
v 0.0482697 0.0233239 0.0583226
vn 0.581719 0.436072 0.686618
v 0.049414 0.0223753 0.0579457
vn 0.604822 0.433772 0.667856
v 0.0490609 0.0233239 0.0576268
vn 0.600726 0.45048 0.660452
v 0.049594 0.024206 0.0565333
vn 0.607296 0.458787 0.648618
v 0.0485787 0.0246988 0.0571132
vn 0.596811 0.459318 0.657909
v 0.0484429 0.0250906 0.0569599
vn 0.035887 0.998396 0.0437908
v 0.0395738 -7.929e-05 0.0726248
vn 0.015507 -0.999609 0.0232592
v 0.0402427 0.00593044 0.0708397
vn 0.548121 0.192288 0.813996
v 0.0467519 -7.929e-05 0.0678284
vn 0.295624 -0.858132 0.419782
v 0.0391391 0.00430173 0.0718627
vn 0.47818 0.206601 0.853616
v 0.0400763 0.00680763 0.0707278
vn 0.562352 0.239507 0.791452
v 0.0375602 0.00744088 0.0718586
vn 0.435417 0.271286 0.85838
v 0.037129 0.00766265 0.0719994
vn -0.999875 0.00478839 0.015064
v 0.0387317 0.00871724 0.0708521
vn 0.451578 0.287596 0.84461
v 0.0397843 0.00786223 0.0705456
vn 0.504865 0.30076 0.809108
v 0.0595735 0.0186004 0.0494422
vn 0.764649 0.293431 0.573769
v 0.0557026 0.0173413 0.0547191
vn 0.725699 0.275476 0.630455
v 0.0558723 0.0162867 0.0549096
vn 0.737061 0.202071 0.64491
v 0.0559674 0.0102375 0.0566037
vn 0.749803 0.188865 0.634134
v 0.0554139 0.00909424 0.0575605
vn 0.736289 0.183979 0.651176
v 0.0541134 0.00751234 0.0594699
vn 0.665734 0.179732 0.72422
v 0.0547959 0.00751234 0.0586788
vn 0.749313 0.153846 0.644098
v 0.0542323 0.00643064 0.0595901
vn 0.70539 0.144271 0.693982
v 0.0555837 0.00751234 0.0577345
vn 0.764369 0.129734 0.631592
v 0.0562357 0.00751234 0.0569433
vn 0.766946 0.128408 0.628733
v 0.0539844 0.00118475 0.0608906
vn 0.762162 0.113234 0.637407
v 0.0540761 -7.929e-05 0.0609776
vn 0.197742 -0.966757 0.162106
v 0.0587178 0.0250906 0.0461452
vn 0.0193093 0.999743 0.0118834
v 0.0586465 0.0250906 0.0462571
vn 0.0188001 0.999735 0.0132679
v 0.0577093 0.0250906 0.0475742
vn 0.0884634 0.993953 0.0650515
v 0.0589011 0.0239128 0.0468286
vn 0.741728 0.40589 0.53394
v 0.0572815 0.0250906 0.0481292
vn 0.591004 0.638947 0.492403
v 0.0541067 0.02068 0.0547108
vn 0.680402 0.406623 0.609681
v 0.0544021 0.0196254 0.0550339
vn 0.698074 0.351 0.624093
v 0.0554411 0.0185807 0.0543836
vn 0.717923 0.323829 0.616216
v 0.037129 0.0202119 0.066735
vn -0.988094 0.0739092 0.134935
v 0.0393055 0.0186472 0.0664699
vn 0.413241 0.415636 0.810234
v 0.0392885 0.0170555 0.0672569
vn 0.411837 0.367304 0.833953
v 0.039842 0.0159417 0.0674515
vn 0.470947 0.327396 0.819159
v 0.043971 0.0139434 0.0656001
vn 0.536261 0.282747 0.795285
v 0.0449761 0.0149783 0.064519
vn 0.540273 0.306667 0.78362
v 0.0407588 0.0154144 0.067087
vn 0.501272 0.306323 0.809255
v 0.0477129 0.0189528 0.0610563
vn 0.54811 0.306457 0.778241
v 0.0484429 0.0201626 0.0600208
vn 0.569443 0.32438 0.755322
v 0.0492341 0.0201626 0.0593747
vn 0.602994 0.352635 0.715574
v 0.0528401 0.019586 0.0565996
vn 0.617842 0.372074 0.6927
v 0.0497807 0.0213207 0.0582771
vn 0.603183 0.40932 0.684563
v 0.0487723 0.0217913 0.0588652
vn 0.588237 0.428093 0.686086
v 0.0524734 0.0206406 0.0562682
vn 0.612631 0.428362 0.664221
v 0.0530506 0.0214365 0.055212
vn 0.611645 0.442847 0.655574
v 0.0510371 0.0224369 0.0564007
vn 0.60876 0.444378 0.657221
v 0.04992 0.0233239 0.0568356
vn 0.608233 0.447079 0.655876
v 0.0526568 0.0224911 0.0548516
vn 0.62327 0.470287 0.624791
v 0.0495125 0.0250906 0.0559493
vn 0.0863839 0.992404 0.0875938
v 0.0490133 0.0250906 0.0564297
vn 0.0272165 0.999214 0.0288041
v 0.0475431 -7.929e-05 0.0672113
vn 0.626736 -0.161644 0.762281
v 0.0493801 0.011031 0.0626841
vn 0.587882 0.22944 0.775727
v 0.046521 0.00118475 0.0676503
vn 0.57921 0.21935 0.785113
v 0.044538 0.0122556 0.0657989
vn 0.543521 0.273092 0.793729
v 0.0452918 0.013835 0.0647385
vn 0.546558 0.285938 0.787092
v 0.0463648 0.00198063 0.0675385
vn 0.574998 0.229178 0.785401
v 0.0465346 0.0118909 0.0645024
vn 0.572387 0.235182 0.785534
v 0.0463207 0.012943 0.0643409
vn 0.569223 0.272178 0.775825
v 0.037129 0.00847084 0.0717385
vn -0.999038 0.0135483 0.0417158
v 0.0377775 0.00918541 0.0711834
vn 0.432304 0.286652 0.854952
v 0.037275 0.0106737 0.0709184
vn 0.444151 0.303429 0.843007
v 0.0392546 0.00918541 0.0703716
vn 0.490869 0.308772 0.814683
v 0.0383785 0.00977184 0.0706574
vn 0.466265 0.317055 0.825877
v 0.0546499 0.0185807 0.0552824
vn 0.691752 0.30355 0.655238
v 0.0538758 0.0185807 0.0560735
vn 0.672772 0.294545 0.67869
v 0.0541202 0.0173364 0.0563179
vn 0.667919 0.237986 0.705158
v 0.0549997 0.0168115 0.0556138
vn 0.689531 0.22498 0.688427
v 0.0546228 0.00909424 0.058451
vn 0.723901 0.198453 0.660745
v 0.0538724 0.00909424 0.0592421
vn 0.680751 0.222308 0.697967
v 0.0512408 0.0102991 0.0613297
vn 0.645927 0.19227 0.73879
v 0.0477264 -7.929e-05 0.0670498
vn 0.66526 -0.00774138 0.746572
v 0.0484225 -7.929e-05 0.0664202
vn 0.442616 -0.753347 0.486373
v 0.0485821 -7.929e-05 0.0662711
vn 0.497778 -0.685926 0.530776
v 0.0531933 0.00118475 0.0616776
vn 0.679919 0.14968 0.717848
v 0.0526568 -7.929e-05 0.0624397
vn 0.112469 -0.986678 0.117546
v 0.0534445 -7.929e-05 0.0616486
vn 0.117624 -0.986472 0.114183
v 0.0570608 0.0250906 0.048386
vn 0.13286 0.983611 0.121894
v 0.0563885 0.0250906 0.0491026
vn 0.247203 0.938834 0.239751
v 0.037129 0.0189971 0.0673811
vn -0.990623 0.0618011 0.121844
v 0.0383106 0.0176222 0.0674681
vn 0.397382 0.374943 0.837559
v 0.037129 0.0117332 0.0705663
vn -0.995146 0.0390217 0.0903435
v 0.037129 0.0110926 0.0708397
vn -0.737549 0.251776 0.626602
v 0.0479981 0.0178982 0.061251
vn 0.57517 0.285014 0.766776
v 0.0487383 0.0185881 0.0604267
vn 0.579348 0.294285 0.7601
v 0.0494785 0.019278 0.0595901
vn 0.604615 0.316706 0.730847
v 0.052161 0.0185807 0.0576102
vn 0.618817 0.291959 0.729264
v 0.0530846 0.0185807 0.0568191
vn 0.643526 0.262322 0.71907
v 0.0554547 0.0250906 0.0500552
vn 0.0794766 0.993755 0.0783217
v 0.0548333 0.0250906 0.0506807
vn 0.0785323 0.993763 0.079174
v 0.051071 0.0113537 0.0611764
vn 0.648526 0.245379 0.720557
v 0.0495634 0.0147073 0.0612386
vn 0.601467 0.27014 0.751839
v 0.0493054 0.0157594 0.061048
vn 0.58047 0.281296 0.764151
v 0.037129 0.00918294 0.0715065
vn -0.999705 0.00778839 0.0230117
v 0.037129 0.0106737 0.0709929
vn -0.999697 0.00806821 0.0232764
v 0.0542968 0.0162818 0.0564877
vn 0.687171 0.224476 0.690946
v 0.037129 0.0182234 0.0677539
vn -0.99876 0.0214614 0.0449173
v 0.037129 0.0180435 0.0678367
vn -0.998825 0.0194044 0.0444051
v 0.037129 0.0170481 0.0682675
vn -0.998832 0.0191838 0.0443502
v 0.0490032 0.0169988 0.0608202
vn 0.583935 0.284089 0.760469
v 0.0497332 0.0182234 0.0597972
vn 0.605274 0.282256 0.744295
v 0.0502833 0.0186817 0.059151
vn 0.61593 0.29239 0.731531
v 0.050796 0.0169988 0.0593623
vn 0.624497 0.268598 0.733388
v 0.0525074 0.0169988 0.057896
vn 0.628689 0.265531 0.73092
v 0.0500048 0.0169988 0.0600291
vn 0.616647 0.272931 0.738414
f 1//1 2//2 3//3
f 1//1 3//3 6//6
f 1//1 6//6 12//12
f 1//1 12//12 28//28
f 1//1 28//28 49//49
f 1//1 49//49 91//91
f 1//1 91//91 93//93
f 1//1 93//93 92//92
f 1//1 92//92 138//138
f 1//1 138//138 90//90
f 1//1 90//90 139//139
f 1//1 139//139 149//149
f 1//1 149//149 200//200
f 1//1 200//200 254//254
f 1//1 254//254 253//253
f 1//1 253//253 251//251
f 1//1 251//251 250//250
f 1//1 250//250 249//249
f 1//1 249//249 229//229
f 1//1 229//229 182//182
f 1//1 182//182 180//180
f 1//1 180//180 130//130
f 1//1 130//130 79//79
f 1//1 79//79 78//78
f 1//1 78//78 43//43
f 1//1 43//43 22//22
f 1//1 22//22 10//10
f 1//1 10//10 4//4
f 1//1 4//4 9//9
f 1//1 9//9 21//21
f 1//1 21//21 40//40
f 1//1 40//40 74//74
f 1//1 74//74 125//125
f 1//1 125//125 162//162
f 1//1 162//162 161//161
f 1//1 161//161 160//160
f 1//1 160//160 159//159
f 1//1 159//159 114//114
f 1//1 114//114 113//113
f 1//1 113//113 112//112
f 1//1 112//112 111//111
f 1//1 111//111 61//61
f 1//1 61//61 60//60
f 1//1 60//60 87//87
f 1//1 87//87 45//45
f 1//1 45//45 23//23
f 1//1 23//23 11//11
f 1//1 11//11 5//5
f 1//1 5//5 2//2
f 2//2 5//5 3//3
f 3//3 5//5 7//7
f 3//3 7//7 6//6
f 4//4 8//8 9//9
f 4//4 10//10 8//8
f 5//5 11//11 7//7
f 6//6 7//7 13//13
f 6//6 13//13 14//14
f 6//6 14//14 15//15
f 6//6 15//15 16//16
f 6//6 16//16 12//12
f 7//7 17//17 18//18
f 7//7 18//18 13//13
f 7//7 11//11 19//19
f 7//7 19//19 17//17
f 8//8 20//20 39//39
f 8//8 39//39 73//73
f 8//8 73//73 121//121
f 8//8 121//121 165//165
f 8//8 165//165 179//179
f 8//8 179//179 228//228
f 8//8 228//228 227//227
f 8//8 227//227 267//267
f 8//8 267//267 266//266
f 8//8 266//266 256//256
f 8//8 256//256 255//255
f 8//8 255//255 205//205
f 8//8 205//205 203//203
f 8//8 203//203 202//202
f 8//8 202//202 201//201
f 8//8 201//201 150//150
f 8//8 150//150 129//129
f 8//8 129//129 128//128
f 8//8 128//128 127//127
f 8//8 127//127 76//76
f 8//8 76//76 41//41
f 8//8 41//41 21//21
f 8//8 21//21 9//9
f 8//8 10//10 22//22
f 8//8 22//22 44//44
f 8//8 44//44 86//86
f 8//8 86//86 136//136
f 8//8 136//136 186//186
f 8//8 186//186 237//237
f 8//8 237//237 271//271
f 8//8 271//271 272//272
f 8//8 272//272 260//260
f 8//8 260//260 259//259
f 8//8 259//259 276//276
f 8//8 276//276 275//275
f 8//8 275//275 274//274
f 8//8 274//274 257//257
f 8//8 257//257 209//209
f 8//8 209//209 163//163
f 8//8 163//163 117//117
f 8//8 117//117 69//69
f 8//8 69//69 38//38
f 8//8 38//38 20//20
f 11//11 23//23 24//24
f 11//11 24//24 19//19
f 12//12 16//16 25//25
f 12//12 25//25 26//26
f 12//12 26//26 27//27
f 12//12 27//27 28//28
f 13//13 18//18 29//29
f 13//13 29//29 14//14
f 14//14 29//29 15//15
f 15//15 30//30 31//31
f 15//15 31//31 32//32
f 15//15 32//32 25//25
f 15//15 25//25 16//16
f 15//15 29//29 30//30
f 17//17 33//33 18//18
f 17//17 19//19 34//34
f 17//17 34//34 35//35
f 17//17 35//35 33//33
f 18//18 33//33 36//36
f 18//18 36//36 30//30
f 18//18 30//30 29//29
f 19//19 24//24 23//23
f 19//19 23//23 37//37
f 19//19 37//37 34//34
f 20//20 38//38 39//39
f 21//21 41//41 42//42
f 21//21 42//42 40//40
f 22//22 43//43 44//44
f 23//23 45//45 37//37
f 25//25 32//32 46//46
f 25//25 46//46 26//26
f 26//26 46//46 47//47
f 26//26 47//47 89//89
f 26//26 89//89 48//48
f 26//26 48//48 27//27
f 27//27 48//48 49//49
f 27//27 49//49 28//28
f 30//30 36//36 50//50
f 30//30 50//50 31//31
f 31//31 50//50 51//51
f 31//31 51//51 52//52
f 31//31 52//52 32//32
f 32//32 52//52 53//53
f 32//32 53//53 54//54
f 32//32 54//54 46//46
f 33//33 35//35 55//55
f 33//33 55//55 56//56
f 33//33 56//56 57//57
f 33//33 57//57 58//58
f 33//33 58//58 36//36
f 34//34 37//37 59//59
f 34//34 59//59 60//60
f 34//34 60//60 61//61
f 34//34 61//61 62//62
f 34//34 62//62 35//35
f 35//35 62//62 63//63
f 35//35 63//63 64//64
f 35//35 64//64 65//65
f 35//35 65//65 55//55
f 36//36 58//58 66//66
f 36//36 66//66 67//67
f 36//36 67//67 50//50
f 37//37 45//45 68//68
f 37//37 68//68 59//59
f 38//38 69//69 70//70
f 38//38 70//70 71//71
f 38//38 71//71 39//39
f 39//39 71//71 72//72
f 39//39 72//72 73//73
f 40//40 42//42 75//75
f 40//40 75//75 74//74
f 41//41 76//76 42//42
f 42//42 76//76 77//77
f 42//42 77//77 75//75
f 43//43 78//78 44//44
f 44//44 78//78 79//79
f 44//44 79//79 80//80
f 44//44 80//80 81//81
f 44//44 81//81 82//82
f 44//44 82//82 83//83
f 44//44 83//83 84//84
f 44//44 84//84 85//85
f 44//44 85//85 86//86
f 45//45 87//87 68//68
f 46//46 54//54 47//47
f 47//47 88//88 89//89
f 47//47 54//54 90//90
f 47//47 90//90 88//88
f 48//48 91//91 49//49
f 48//48 89//89 92//92
f 48//48 92//92 93//93
f 48//48 93//93 91//91
f 50//50 67//67 94//94
f 50//50 94//94 95//95
f 50//50 95//95 51//51
f 51//51 95//95 96//96
f 51//51 96//96 97//97
f 51//51 97//97 98//98
f 51//51 98//98 99//99
f 51//51 99//99 53//53
f 51//51 53//53 52//52
f 53//53 99//99 100//100
f 53//53 100//100 90//90
f 53//53 90//90 54//54
f 55//55 65//65 56//56
f 56//56 65//65 101//101
f 56//56 101//101 57//57
f 57//57 77//77 102//102
f 57//57 102//102 103//103
f 57//57 103//103 104//104
f 57//57 104//104 105//105
f 57//57 105//105 106//106
f 57//57 106//106 58//58
f 57//57 101//101 107//107
f 57//57 107//107 77//77
f 58//58 108//108 66//66
f 58//58 106//106 109//109
f 58//58 109//109 110//110
f 58//58 110//110 108//108
f 59//59 68//68 87//87
f 59//59 87//87 60//60
f 61//61 111//111 62//62
f 62//62 111//111 112//112
f 62//62 112//112 113//113
f 62//62 113//113 63//63
f 63//63 113//113 114//114
f 63//63 114//114 64//64
f 64//64 115//115 65//65
f 64//64 114//114 115//115
f 65//65 115//115 116//116
f 65//65 116//116 101//101
f 66//66 108//108 67//67
f 67//67 108//108 94//94
f 69//69 117//117 70//70
f 70//70 118//118 119//119
f 70//70 119//119 72//72
f 70//70 72//72 71//71
f 70//70 117//117 118//118
f 72//72 120//120 73//73
f 72//72 119//119 120//120
f 73//73 120//120 122//122
f 73//73 122//122 123//123
f 73//73 123//123 124//124
f 73//73 124//124 121//121
f 74//74 75//75 126//126
f 74//74 126//126 125//125
f 75//75 116//116 115//115
f 75//75 115//115 126//126
f 75//75 77//77 107//107
f 75//75 107//107 116//116
f 76//76 127//127 77//77
f 77//77 128//128 129//129
f 77//77 129//129 103//103
f 77//77 103//103 102//102
f 77//77 127//127 128//128
f 79//79 130//130 131//131
f 79//79 131//131 80//80
f 80//80 131//131 132//132
f 80//80 132//132 133//133
f 80//80 133//133 134//134
f 80//80 134//134 81//81
f 81//81 134//134 82//82
f 82//82 134//134 135//135
f 82//82 135//135 83//83
f 83//83 135//135 84//84
f 84//84 136//136 86//86
f 84//84 86//86 85//85
f 84//84 135//135 137//137
f 84//84 137//137 136//136
f 88//88 138//138 89//89
f 88//88 90//90 138//138
f 89//89 138//138 92//92
f 90//90 100//100 139//139
f 94//94 140//140 95//95
f 94//94 108//108 140//140
f 95//95 140//140 96//96
f 96//96 141//141 142//142
f 96//96 142//142 97//97
f 96//96 140//140 141//141
f 97//97 142//142 143//143
f 97//97 143//143 144//144
f 97//97 144//144 98//98
f 98//98 144//144 145//145
f 98//98 145//145 99//99
f 99//99 145//145 146//146
f 99//99 146//146 147//147
f 99//99 147//147 148//148
f 99//99 148//148 149//149
f 99//99 149//149 139//139
f 99//99 139//139 100//100
f 101//101 116//116 107//107
f 103//103 129//129 150//150
f 103//103 150//150 104//104
f 104//104 150//150 151//151
f 104//104 151//151 105//105
f 105//105 151//151 152//152
f 105//105 152//152 153//153
f 105//105 153//153 154//154
f 105//105 154//154 106//106
f 106//106 154//154 155//155
f 106//106 155//155 109//109
f 108//108 110//110 140//140
f 109//109 156//156 157//157
f 109//109 157//157 158//158
f 109//109 158//158 110//110
f 109//109 155//155 154//154
f 109//109 154//154 153//153
f 109//109 153//153 152//152
f 109//109 152//152 156//156
f 110//110 158//158 140//140
f 114//114 159//159 115//115
f 115//115 159//159 160//160
f 115//115 160//160 161//161
f 115//115 161//161 162//162
f 115//115 162//162 126//126
f 117//117 163//163 164//164
f 117//117 164//164 118//118
f 118//118 123//123 119//119
f 118//118 164//164 123//123
f 119//119 123//123 120//120
f 120//120 123//123 122//122
f 121//121 124//124 165//165
f 123//123 164//164 166//166
f 123//123 166//166 167//167
f 123//123 167//167 168//168
f 123//123 168//168 169//169
f 123//123 169//169 170//170
f 123//123 170//170 171//171
f 123//123 171//171 172//172
f 123//123 172//172 173//173
f 123//123 173//173 124//124
f 124//124 174//174 175//175
f 124//124 175//175 176//176
f 124//124 176//176 177//177
f 124//124 177//177 178//178
f 124//124 178//178 179//179
f 124//124 179//179 165//165
f 124//124 173//173 172//172
f 124//124 172//172 174//174
f 125//125 126//126 162//162
f 130//130 180//180 131//131
f 131//131 181//181 132//132
f 131//131 180//180 182//182
f 131//131 182//182 181//181
f 132//132 181//181 133//133
f 133//133 135//135 183//183
f 133//133 183//183 134//134
f 133//133 181//181 184//184
f 133//133 184//184 135//135
f 134//134 183//183 135//135
f 135//135 184//184 137//137
f 136//136 137//137 185//185
f 136//136 185//185 186//186
f 137//137 187//187 185//185
f 137//137 184//184 188//188
f 137//137 188//188 187//187
f 140//140 158//158 189//189
f 140//140 189//189 141//141
f 141//141 189//189 157//157
f 141//141 157//157 190//190
f 141//141 190//190 142//142
f 142//142 190//190 191//191
f 142//142 191//191 143//143
f 143//143 191//191 192//192
f 143//143 192//192 145//145
f 143//143 145//145 144//144
f 145//145 192//192 193//193
f 145//145 193//193 194//194
f 145//145 194//194 195//195
f 145//145 195//195 196//196
f 145//145 196//196 197//197
f 145//145 197//197 198//198
f 145//145 198//198 146//146
f 146//146 198//198 147//147
f 147//147 198//198 197//197
f 147//147 197//197 196//196
f 147//147 196//196 199//199
f 147//147 199//199 148//148
f 148//148 199//199 149//149
f 149//149 199//199 200//200
f 150//150 201//201 151//151
f 151//151 201//201 202//202
f 151//151 202//202 203//203
f 151//151 203//203 204//204
f 151//151 204//204 152//152
f 152//152 204//204 156//156
f 156//156 204//204 203//203
f 156//156 203//203 205//205
f 156//156 205//205 157//157
f 157//157 189//189 158//158
f 157//157 205//205 206//206
f 157//157 206//206 207//207
f 157//157 207//207 208//208
f 157//157 208//208 190//190
f 163//163 209//209 164//164
f 164//164 209//209 210//210
f 164//164 210//210 166//166
f 166//166 210//210 211//211
f 166//166 211//211 212//212
f 166//166 212//212 167//167
f 167//167 212//212 169//169
f 167//167 169//169 168//168
f 169//169 213//213 214//214
f 169//169 214//214 170//170
f 169//169 212//212 215//215
f 169//169 215//215 188//188
f 169//169 188//188 184//184
f 169//169 184//184 213//213
f 170//170 214//214 216//216
f 170//170 216//216 171//171
f 171//171 216//216 217//217
f 171//171 217//217 172//172
f 172//172 217//217 218//218
f 172//172 218//218 219//219
f 172//172 219//219 220//220
f 172//172 220//220 221//221
f 172//172 221//221 174//174
f 174//174 221//221 175//175
f 175//175 221//221 220//220
f 175//175 220//220 219//219
f 175//175 219//219 222//222
f 175//175 222//222 223//223
f 175//175 223//223 224//224
f 175//175 224//224 225//225
f 175//175 225//225 176//176
f 176//176 225//225 177//177
f 177//177 225//225 223//223
f 177//177 223//223 226//226
f 177//177 226//226 227//227
f 177//177 227//227 228//228
f 177//177 228//228 179//179
f 177//177 179//179 178//178
f 181//181 182//182 184//184
f 182//182 229//229 230//230
f 182//182 230//230 231//231
f 182//182 231//231 184//184
f 184//184 232//232 233//233
f 184//184 233//233 213//213
f 184//184 231//231 234//234
f 184//184 234//234 230//230
f 184//184 230//230 235//235
f 184//184 235//235 236//236
f 184//184 236//236 232//232
f 185//185 237//237 186//186
f 185//185 187//187 238//238
f 185//185 238//238 237//237
f 187//187 239//239 238//238
f 187//187 188//188 240//240
f 187//187 240//240 241//241
f 187//187 241//241 239//239
f 188//188 215//215 240//240
f 190//190 208//208 207//207
f 190//190 207//207 242//242
f 190//190 242//242 243//243
f 190//190 243//243 244//244
f 190//190 244//244 245//245
f 190//190 245//245 191//191
f 191//191 246//246 192//192
f 191//191 245//245 247//247
f 191//191 247//247 246//246
f 192//192 246//246 193//193
f 193//193 246//246 194//194
f 194//194 247//247 248//248
f 194//194 248//248 249//249
f 194//194 249//249 250//250
f 194//194 250//250 251//251
f 194//194 251//251 196//196
f 194//194 196//196 195//195
f 194//194 246//246 247//247
f 196//196 251//251 252//252
f 196//196 252//252 199//199
f 199//199 252//252 253//253
f 199//199 253//253 254//254
f 199//199 254//254 200//200
f 205//205 255//255 206//206
f 206//206 226//226 223//223
f 206//206 223//223 222//222
f 206//206 222//222 219//219
f 206//206 219//219 207//207
f 206//206 255//255 256//256
f 206//206 256//256 226//226
f 207//207 219//219 243//243
f 207//207 243//243 242//242
f 209//209 257//257 210//210
f 210//210 257//257 258//258
f 210//210 258//258 211//211
f 211//211 258//258 259//259
f 211//211 259//259 260//260
f 211//211 260//260 212//212
f 212//212 260//260 241//241
f 212//212 241//241 240//240
f 212//212 240//240 215//215
f 213//213 233//233 214//214
f 214//214 233//233 216//216
f 216//216 233//233 236//236
f 216//216 236//236 261//261
f 216//216 261//261 262//262
f 216//216 262//262 217//217
f 217//217 262//262 263//263
f 217//217 263//263 218//218
f 218//218 263//263 219//219
f 219//219 264//264 265//265
f 219//219 265//265 243//243
f 219//219 263//263 264//264
f 223//223 225//225 224//224
f 226//226 256//256 266//266
f 226//226 266//266 267//267
f 226//226 267//267 227//227
f 229//229 249//249 248//248
f 229//229 248//248 230//230
f 230//230 248//248 268//268
f 230//230 268//268 269//269
f 230//230 269//269 236//236
f 230//230 236//236 235//235
f 230//230 234//234 231//231
f 232//232 236//236 233//233
f 236//236 269//269 270//270
f 236//236 270//270 261//261
f 237//237 238//238 271//271
f 238//238 239//239 272//272
f 238//238 272//272 271//271
f 239//239 241//241 260//260
f 239//239 260//260 272//272
f 243//243 265//265 244//244
f 244//244 273//273 245//245
f 244//244 265//265 268//268
f 244//244 268//268 247//247
f 244//244 247//247 273//273
f 245//245 273//273 247//247
f 247//247 268//268 248//248
f 251//251 253//253 252//252
f 257//257 274//274 258//258
f 258//258 274//274 275//275
f 258//258 275//275 276//276
f 258//258 276//276 259//259
f 261//261 270//270 277//277
f 261//261 277//277 262//262
f 262//262 278//278 263//263
f 262//262 277//277 278//278
f 263//263 279//279 264//264
f 263//263 278//278 279//279
f 264//264 279//279 278//278
f 264//264 278//278 280//280
f 264//264 280//280 265//265
f 265//265 280//280 281//281
f 265//265 281//281 268//268
f 268//268 280//280 269//269
f 268//268 281//281 280//280
f 269//269 280//280 282//282
f 269//269 282//282 278//278
f 269//269 278//278 270//270
f 270//270 278//278 277//277
f 278//278 282//282 280//280
