# Created by Open3D 
# object name: part_006
# number of vertices: 392
# number of triangles: 780
v -0.0212892 0.0677686 -0.0144425
vn 0.910298 0.00021374 0.413952
v -0.0212892 0.0676197 -0.0150559
vn -0.223491 0.946596 -0.232394
v -0.0219047 0.0676242 -0.0144425
vn -0.223623 0.947155 -0.229977
v -0.0212892 0.051635 -0.0144425
vn 0.578461 -0.59515 0.557834
v -0.0212892 0.0675114 -0.015494
vn -0.221615 0.941449 -0.254089
v -0.0234874 0.0672496 -0.0144425
vn -0.224598 0.946475 -0.231822
v -0.0426763 0.0406687 -0.0144425
vn -0.659776 -0.339067 0.670619
v -0.0426763 0.0227299 -0.0403219
vn 0.413645 -0.758877 0.502994
v -0.0213667 0.0302754 -0.0476472
vn 0.435215 -0.759928 0.482802
v -0.0212892 0.030298 -0.0476866
vn 0.999984 -0.00478165 0.00306652
v -0.0212892 0.0670827 -0.0170142
vn -0.178778 0.938524 -0.295314
v -0.0232341 0.0668164 -0.0162913
vn -0.255886 0.915388 -0.310784
v -0.0238642 0.0669157 -0.0153757
vn -0.230617 0.939463 -0.253426
v -0.0239605 0.0671368 -0.0144425
vn -0.232549 0.947494 -0.219489
v -0.0426763 0.0577816 -0.0144425
vn -0.0238665 0.00662296 0.999693
v -0.0426763 0.0222696 -0.0411587
vn 0.289137 -0.881513 0.373275
v -0.0212892 0.0297971 -0.0487031
vn 0.910778 -0.377135 0.168086
v -0.0212892 0.0302393 -0.0478049
vn 0.999992 -0.00366596 0.00180671
v -0.0212892 0.0666043 -0.0183768
vn -0.143445 0.933124 -0.3297
v -0.0242892 0.0666449 -0.0158226
vn -0.329859 0.880315 -0.340938
v -0.0248461 0.0668345 -0.0147667
vn -0.419661 0.847449 -0.325139
v -0.0212892 0.0651105 -0.0225958
vn -0.205076 0.920037 -0.33388
v -0.0249214 0.0668751 -0.0144425
vn -0.17972 0.36761 0.912449
v -0.0414684 0.0585397 -0.0144425
vn -0.495674 0.833001 0.245797
v -0.0422136 0.0573348 -0.0163045
vn -0.510803 0.793693 -0.330351
v -0.0426763 0.0576101 -0.0148675
vn -0.999586 0.0264915 -0.0112563
v -0.0426763 0.0218453 -0.042438
vn -0.20882 -0.955482 0.208441
v -0.0230059 0.0287772 -0.0492463
vn 0.376345 -0.915775 0.140431
v -0.0224616 0.0292149 -0.0487118
vn 0.411118 -0.857188 0.31018
v -0.0212892 0.0294044 -0.0502803
vn 0.998742 -0.0497353 0.00645767
v -0.0212892 0.0649616 -0.0229857
vn -0.182276 0.91828 -0.351479
v -0.0212892 0.0648037 -0.0233976
vn -0.251942 0.902349 -0.349701
v -0.0224344 0.0643885 -0.0234019
vn -0.33748 0.875173 -0.346668
v -0.0239019 0.0638424 -0.0232749
vn -0.361133 0.865788 -0.346402
v -0.0248545 0.0636754 -0.0226659
vn -0.393514 0.850639 -0.348653
v -0.0263597 0.0636393 -0.0209923
vn -0.40906 0.847656 -0.33786
v -0.0314615 0.0590813 -0.0261927
vn -0.426485 0.8426 -0.328839
v -0.0406184 0.0589053 -0.0146966
vn -0.427773 0.842576 -0.327225
v -0.0409743 0.058815 -0.0144425
vn -0.457196 0.872385 -0.172962
v -0.0407147 0.0589459 -0.0144425
vn -0.175841 0.350216 0.920016
v -0.0408047 0.0574341 -0.0181095
vn -0.449325 0.824944 -0.34289
v -0.0413637 0.0575875 -0.0169266
vn -0.482147 0.810853 -0.331741
v -0.0426763 0.0573348 -0.015494
vn -0.999582 0.0264428 -0.0116917
v -0.0418598 0.0571046 -0.017356
vn -0.514806 0.777356 -0.361514
v -0.0426763 0.0567887 -0.0167251
vn -0.994537 0.0945973 -0.0441397
v -0.0426763 0.0216693 -0.0439101
vn -0.0681434 -0.99745 -0.0211938
v -0.0212892 0.0293909 -0.0518312
vn 0.889491 -0.456656 -0.0164515
v -0.0212892 0.0643433 -0.0245454
vn -0.0573421 0.925825 -0.373578
v -0.0217079 0.0636754 -0.0258203
vn -0.32214 0.854715 -0.407049
v -0.0223151 0.0638334 -0.0248696
vn -0.339932 0.869456 -0.358459
v -0.022761 0.0634678 -0.0253253
vn -0.363089 0.851801 -0.377627
v -0.023299 0.0636845 -0.0242694
vn -0.364782 0.858701 -0.359954
v -0.0243541 0.0634498 -0.0237218
vn -0.382802 0.848586 -0.365192
v -0.0277958 0.0604126 -0.027161
vn -0.388309 0.847374 -0.362177
v -0.0287776 0.0601915 -0.0266046
vn -0.39382 0.847033 -0.356988
v -0.0304462 0.0593927 -0.0266571
vn -0.40345 0.847146 -0.345791
v -0.0310428 0.0588647 -0.0272486
vn -0.418538 0.831614 -0.365026
v -0.0319618 0.05863 -0.0266571
vn -0.441494 0.829647 -0.341714
v -0.0330902 0.0575379 -0.0278357
vn -0.445622 0.825269 -0.346917
v -0.0361698 0.0559087 -0.0277217
vn -0.451763 0.820019 -0.351395
v -0.0372249 0.0556064 -0.0270295
vn -0.495694 0.789348 -0.362239
v -0.0425172 0.0559945 -0.0186572
vn -0.561041 0.746844 -0.357012
v -0.0391006 0.0542074 -0.0274457
vn -0.506977 0.780972 -0.36477
v -0.0408947 0.0543653 -0.024598
vn -0.538141 0.761141 -0.362034
v -0.0426763 0.0566353 -0.0170493
vn -0.999948 0.00918312 -0.00435583
v -0.0426763 0.0218363 -0.0455355
vn -0.291948 -0.937748 -0.188136
v -0.0212892 0.0295308 -0.0534435
vn 0.85155 -0.521464 -0.0542029
v -0.0212892 0.0641764 -0.0249485
vn 0.854248 0.478368 -0.20353
v -0.0212892 0.0637431 -0.0259561
vn 0.797852 0.541435 -0.265104
v -0.0217414 0.0605299 -0.0321598
vn -0.299355 0.820816 -0.486464
v -0.0245572 0.0603991 -0.0303285
vn -0.325435 0.846855 -0.420629
v -0.0251748 0.0606473 -0.0292727
vn -0.353194 0.848989 -0.393028
v -0.0239019 0.0631564 -0.0248696
vn -0.38005 0.848758 -0.367658
v -0.0262299 0.0604216 -0.0287732
vn -0.377058 0.844791 -0.379678
v -0.0272327 0.0602185 -0.0282037
vn -0.382621 0.847791 -0.367221
v -0.0288739 0.0594423 -0.0282562
vn -0.39145 0.835877 -0.384807
v -0.0299898 0.0591219 -0.027805
vn -0.397173 0.837191 -0.375986
v -0.0316185 0.0575695 -0.0294435
vn -0.406504 0.828329 -0.38552
v -0.0326694 0.0573032 -0.0288871
vn -0.435719 0.815712 -0.380477
v -0.0357406 0.0556695 -0.0287776
vn -0.45566 0.795405 -0.399632
v -0.0366847 0.0553762 -0.0282081
vn -0.484734 0.78556 -0.384615
v -0.0382088 0.0545007 -0.0280416
vn -0.497958 0.778567 -0.38193
v -0.0426763 0.0558681 -0.0186572
vn -0.999449 0.0298558 -0.0144748
v -0.0426763 0.056184 -0.018
vn -0.999948 0.00917684 -0.00437868
v -0.0422765 0.0542209 -0.0227316
vn -0.574786 0.735971 -0.357726
v -0.0387091 0.0539366 -0.0284972
vn -0.538266 0.739526 -0.404192
v -0.0405305 0.054099 -0.0256538
vn -0.56896 0.722634 -0.392536
v -0.0419478 0.0539501 -0.0237831
vn -0.588708 0.712753 -0.381321
v -0.0426763 0.0222831 -0.0469375
vn -0.549723 -0.792084 -0.265342
v -0.0212892 0.0301265 -0.0564445
vn 0.701538 -0.673302 -0.233472
v -0.0212892 0.0297249 -0.055025
vn 0.922483 -0.378649 -0.0751604
v -0.0212892 0.0611031 -0.0312924
vn 0.951263 0.276214 -0.13713
v -0.0251601 0.0590723 -0.0323526
vn -0.345503 0.791305 -0.504445
v -0.0240254 0.0601102 -0.0312617
vn -0.3294 0.831659 -0.447033
v -0.0212892 0.0606067 -0.0322738
vn 0.992931 0.0988349 -0.0657228
v -0.0212892 0.05687 -0.0376582
vn 0.953328 0.248032 -0.172181
v -0.0220806 0.0559042 -0.0386527
vn -0.285606 0.785914 -0.548423
v -0.0242976 0.0587203 -0.0334085
vn -0.316213 0.778233 -0.542552
v -0.0256521 0.0593972 -0.0313756
vn -0.363684 0.822488 -0.437319
v -0.0256604 0.060205 -0.0297721
vn -0.370052 0.833279 -0.41074
v -0.0272745 0.0594423 -0.0298247
vn -0.38348 0.82755 -0.410004
v -0.0284238 0.0591309 -0.0293647
vn -0.388679 0.831764 -0.396354
v -0.031114 0.0573167 -0.0304994
vn -0.402724 0.818789 -0.409142
v -0.032054 0.0571317 -0.0298729
vn -0.434763 0.800319 -0.412881
v -0.0336031 0.0563149 -0.0298203
vn -0.43882 0.800235 -0.408732
v -0.0341956 0.0556876 -0.0304118
vn -0.448933 0.782523 -0.431412
v -0.0351607 0.0554439 -0.0298203
vn -0.463733 0.77269 -0.433475
v -0.0366596 0.0546045 -0.0297064
vn -0.47038 0.772499 -0.426601
v -0.037654 0.0542886 -0.0291631
vn -0.492042 0.767811 -0.410317
v -0.0426763 0.0543292 -0.0218203
vn -0.999681 0.022709 -0.011095
v -0.0426763 0.0537019 -0.0230909
vn -0.99878 0.043948 -0.0225016
v -0.0383428 0.0534356 -0.0298335
vn -0.511603 0.744985 -0.428089
v -0.0390295 0.0525737 -0.0305038
vn -0.556861 0.688856 -0.464094
v -0.0394042 0.0528806 -0.0294523
vn -0.565264 0.720315 -0.402023
v -0.040206 0.0538508 -0.0265607
vn -0.557776 0.727863 -0.398875
v -0.0408236 0.0527542 -0.0276516
vn -0.586097 0.705191 -0.398994
v -0.041416 0.0536929 -0.0250668
vn -0.588327 0.708524 -0.389698
v -0.0422262 0.0526053 -0.0258072
vn -0.59716 0.700074 -0.39153
v -0.0424921 0.0528354 -0.0249791
vn -0.597258 0.702976 -0.386145
v -0.0426763 0.0534086 -0.0236473
vn -0.997359 0.063856 -0.0346003
v -0.0426763 0.0229916 -0.048633
vn -0.999052 -0.0400488 -0.0170633
v -0.0414097 0.0240792 -0.0511127
vn 0.0415372 -0.777707 -0.627253
v -0.0406184 0.0241198 -0.0510733
vn 0.176494 -0.912536 -0.368955
v -0.0212892 0.0305823 -0.0572331
vn 0.83865 -0.425866 -0.339564
v -0.0295167 0.0541487 -0.036817
vn -0.33892 0.768386 -0.542878
v -0.0303415 0.0544917 -0.0357568
vn -0.3546 0.779985 -0.515638
v -0.0309444 0.0556605 -0.0335487
vn -0.365555 0.781479 -0.505628
v -0.0294894 0.0572987 -0.0320416
vn -0.376661 0.808324 -0.452481
v -0.0212892 0.0560486 -0.0388411
vn 0.296898 0.776922 -0.555197
v -0.0225391 0.0553536 -0.0391916
vn -0.293207 0.779882 -0.553004
v -0.0231357 0.0557102 -0.0383679
vn -0.306887 0.77899 -0.546805
v -0.0233639 0.0510483 -0.0448214
vn -0.281766 0.780545 -0.557994
v -0.024419 0.0508498 -0.044541
vn -0.31106 0.776589 -0.547861
v -0.0255976 0.0511612 -0.0434062
vn -0.322766 0.774458 -0.544092
v -0.0268119 0.0591174 -0.0308981
vn -0.377934 0.8254 -0.419382
v -0.0304901 0.0571317 -0.0314326
vn -0.408997 0.79934 -0.440202
v -0.0315704 0.0559854 -0.0324928
vn -0.416539 0.782464 -0.462867
v -0.0320246 0.0563374 -0.0314107
vn -0.426811 0.795315 -0.430472
v -0.0331426 0.0559764 -0.0309506
vn -0.433194 0.795302 -0.424073
v -0.0326213 0.0556921 -0.0320065
vn -0.455112 0.756752 -0.469254
v -0.037183 0.0539952 -0.030219
vn -0.474695 0.75261 -0.456336
v -0.0423476 0.0432094 -0.0401642
vn -0.554365 0.683339 -0.475107
v -0.0426763 0.0433538 -0.0395552
vn -0.978163 0.171662 -0.11717
v -0.0426763 0.0459442 -0.0357524
vn -0.981 0.160511 -0.108976
v -0.0423937 0.0495771 -0.0307404
vn -0.57566 0.680773 -0.45295
v -0.0426763 0.0500194 -0.0296275
vn -0.951927 0.262226 -0.158341
v -0.0404593 0.0524473 -0.0287075
vn -0.586594 0.696405 -0.413434
v -0.0378487 0.052849 -0.0313055
vn -0.489158 0.730749 -0.476162
v -0.0374593 0.0525827 -0.0321029
vn -0.485359 0.718132 -0.498712
v -0.038638 0.0522984 -0.0313055
vn -0.508637 0.70445 -0.495014
v -0.0405765 0.041481 -0.0446987
vn -0.536461 0.685072 -0.492835
v -0.0421362 0.0509445 -0.0288389
vn -0.592556 0.6953 -0.406737
v -0.0426763 0.0506963 -0.0284709
vn -0.988813 0.129248 -0.0744532
v -0.0418766 0.0523029 -0.026863
vn -0.597387 0.69622 -0.398002
v -0.0413742 0.0529753 -0.0264249
vn -0.589966 0.70609 -0.391634
v -0.0426763 0.052673 -0.0249791
vn -0.999623 0.0239456 -0.0134471
v -0.0426763 0.0509942 -0.0279496
vn -0.997885 0.0564779 -0.0321824
v -0.0426763 0.0519825 -0.0262059
vn -0.999604 0.0245058 -0.0138501
v -0.0426763 0.0530385 -0.024322
vn -0.999932 0.0102419 -0.00565672
v -0.0426763 0.0240341 -0.051047
vn -0.999998 -0.00167275 -0.000726771
v -0.0426219 0.0240702 -0.0511302
vn 0.0100918 -0.768514 -0.639754
v -0.0263429 0.0304379 -0.0573996
vn 0.0379649 -0.741734 -0.669619
v -0.0212892 0.0313721 -0.0580042
vn 0.995976 -0.0542911 -0.0713015
v -0.0303415 0.0539501 -0.0365454
vn -0.382334 0.747423 -0.543305
v -0.026389 0.0509987 -0.0431653
vn -0.329473 0.77071 -0.545394
v -0.0251475 0.0480021 -0.0481423
vn -0.351365 0.753381 -0.555842
v -0.029615 0.0494508 -0.0432091
vn -0.371554 0.747727 -0.550319
v -0.0312961 0.0542615 -0.0354107
vn -0.43052 0.740081 -0.516655
v -0.0212892 0.0555026 -0.039599
vn 0.96853 0.201935 -0.145505
v -0.0224344 0.0506422 -0.0458334
vn -0.260171 0.782233 -0.566059
v -0.0240171 0.0482142 -0.0484358
vn -0.273203 0.778822 -0.564621
v -0.0320246 0.0554213 -0.032966
vn -0.436677 0.755962 -0.487683
v -0.0318634 0.0545639 -0.0344249
vn -0.456107 0.743008 -0.489802
v -0.0329081 0.0542886 -0.0338685
vn -0.463634 0.737252 -0.491429
v -0.0334629 0.054609 -0.0328564
vn -0.464117 0.740673 -0.485797
v -0.03613 0.0543157 -0.0307491
vn -0.465941 0.740356 -0.484534
v -0.0420776 0.0414088 -0.0430119
vn -0.576518 0.662583 -0.478132
v -0.0426763 0.0426995 -0.0404753
vn -0.998837 0.0391835 -0.0281033
v -0.0426763 0.0491529 -0.0310076
vn -0.999853 0.0142478 -0.00955052
v -0.0426763 0.0496945 -0.0301577
vn -0.999848 0.0147629 -0.00926892
v -0.0345159 0.0543066 -0.0323088
vn -0.466175 0.737994 -0.487899
v -0.0323491 0.0539321 -0.03492
vn -0.466 0.728914 -0.501527
v -0.0331656 0.0528806 -0.0356823
vn -0.468534 0.727254 -0.501575
v -0.0344217 0.0479164 -0.0417064
vn -0.468529 0.725915 -0.503516
v -0.0350623 0.0470318 -0.042346
vn -0.491767 0.711838 -0.501449
v -0.0377336 0.0432952 -0.0450185
vn -0.494422 0.709519 -0.502125
v -0.0387887 0.0429206 -0.0444884
vn -0.505869 0.705322 -0.496606
v -0.0395214 0.0418646 -0.0452332
vn -0.50622 0.70187 -0.501119
v -0.038996 0.0414855 -0.046289
vn -0.495176 0.67106 -0.551796
v -0.0408278 0.038516 -0.0481028
vn -0.528194 0.653171 -0.542567
v -0.0418808 0.0380828 -0.0475727
vn -0.542718 0.652264 -0.529158
v -0.0426763 0.0380286 -0.046806
vn -0.981542 0.150021 -0.11861
v -0.0426763 0.0388274 -0.0457721
vn -0.994017 0.086524 -0.0666614
v -0.0426763 0.0392606 -0.0452069
vn -0.988736 0.119814 -0.0897008
v -0.0414956 0.041129 -0.0440853
vn -0.577147 0.656775 -0.485334
v -0.0426763 0.0240747 -0.0511258
vn -0.961038 -0.124747 -0.246665
v -0.0263994 0.0304379 -0.0573996
vn -0.20147 -0.319722 -0.925844
v -0.0212892 0.0326267 -0.0587928
vn 0.995726 -0.0411782 -0.0826673
v -0.0327511 0.0478577 -0.0431916
vn -0.393298 0.742917 -0.541656
v -0.0240171 0.0476321 -0.0492288
vn -0.293761 0.748237 -0.59485
v -0.024419 0.0460977 -0.0508892
vn -0.328373 0.715831 -0.616244
v -0.0255976 0.0464813 -0.0497589
vn -0.359135 0.720273 -0.593488
v -0.0256437 0.0473252 -0.0486811
vn -0.372035 0.725765 -0.578667
v -0.0293429 0.0461473 -0.0477699
vn -0.375283 0.728044 -0.573685
v -0.0311935 0.0462872 -0.0463679
vn -0.378597 0.734355 -0.563371
v -0.0318027 0.0466257 -0.0455048
vn -0.379357 0.741918 -0.552852
v -0.0338041 0.0475599 -0.0427622
vn -0.438496 0.731917 -0.521554
v -0.0212892 0.0508272 -0.0460875
vn 0.934077 0.287046 -0.212382
v -0.0230603 0.0477945 -0.0494347
vn -0.232404 0.771802 -0.59187
v -0.0426763 0.0397977 -0.0444796
vn -0.993535 0.0913281 -0.067432
v -0.0426763 0.0401858 -0.0439539
vn -0.999416 0.0275286 -0.0202319
v -0.0426763 0.0403708 -0.0436998
vn -0.999409 0.0278067 -0.0202246
v -0.0426763 0.0410748 -0.0427316
vn -0.999403 0.0279982 -0.0202195
v -0.0346478 0.0465038 -0.0434895
vn -0.475133 0.713443 -0.515022
v -0.0359164 0.0447077 -0.0447819
vn -0.469974 0.708416 -0.526565
v -0.0371725 0.0429071 -0.04607
vn -0.477456 0.702906 -0.527219
v -0.0361195 0.0432545 -0.0465344
vn -0.458979 0.701412 -0.545307
v -0.0354789 0.0428348 -0.0475859
vn -0.461676 0.679724 -0.569939
v -0.0379429 0.041851 -0.0467228
vn -0.469118 0.671704 -0.573361
v -0.0372981 0.0413997 -0.0477786
vn -0.47257 0.663518 -0.580019
v -0.0391718 0.0384483 -0.0495968
vn -0.465378 0.645845 -0.605234
v -0.0402269 0.0380602 -0.0491587
vn -0.494556 0.651139 -0.575701
v -0.0413951 0.0375457 -0.0486855
vn -0.524409 0.636548 -0.56551
v -0.0425067 0.0370267 -0.048208
vn -0.540556 0.636749 -0.549864
v -0.0426763 0.0372163 -0.0478049
vn -0.999183 0.0311308 -0.0257818
v -0.0426763 0.0376901 -0.0472266
vn -0.999115 0.0326333 -0.0265378
v -0.0426763 0.0241514 -0.0511609
vn -0.936512 -0.139805 -0.321557
v -0.0267051 0.0312367 -0.0574872
vn -0.261898 -0.147271 -0.953793
v -0.0216682 0.0335834 -0.0589856
vn -0.206744 -0.166135 -0.964187
v -0.0212892 0.033439 -0.0590338
vn 0.997402 -0.0181194 -0.0697219
v -0.0426763 0.0248103 -0.0514456
vn -0.937158 -0.127764 -0.32467
v -0.0426763 0.0265117 -0.0520897
vn -0.951921 -0.0972087 -0.290512
v -0.0418787 0.0277031 -0.0526198
vn -0.262476 -0.192659 -0.94551
v -0.0329897 0.0464226 -0.0449572
vn -0.40648 0.720681 -0.561599
v -0.033398 0.0469912 -0.0438707
vn -0.427729 0.727945 -0.535859
v -0.0233639 0.0463098 -0.0511346
vn -0.264341 0.729862 -0.630417
v -0.0239417 0.0467566 -0.0503328
vn -0.290118 0.736834 -0.610661
v -0.0239396 0.0454388 -0.0518268
vn -0.296812 0.700628 -0.648863
v -0.0245132 0.0445407 -0.052519
vn -0.326431 0.655964 -0.680555
v -0.0255976 0.0450146 -0.0514369
vn -0.352328 0.686105 -0.636494
v -0.0255976 0.0458088 -0.0505475
vn -0.361876 0.704172 -0.610891
v -0.0295439 0.0446761 -0.0494873
vn -0.377366 0.716049 -0.587256
v -0.0324308 0.0445272 -0.0477173
vn -0.396033 0.715008 -0.576126
v -0.0322466 0.0459939 -0.0460086
vn -0.395917 0.717604 -0.572969
v -0.0340428 0.0461022 -0.0445453
vn -0.448728 0.712517 -0.53941
v -0.0212892 0.0480292 -0.0497414
vn 0.950813 0.245845 -0.188456
v -0.0212892 0.0476501 -0.0502321
vn 0.953815 0.237547 -0.183872
v -0.0212892 0.0474425 -0.0504993
vn 0.959188 0.221931 -0.17523
v -0.0212892 0.0468649 -0.0512266
vn 0.961346 0.215346 -0.171581
v -0.0212892 0.0466257 -0.0515245
vn 0.871244 0.380653 -0.3099
v -0.0224344 0.0464587 -0.0513142
vn -0.232402 0.746719 -0.623218
v -0.0342312 0.0446445 -0.0462803
vn -0.439203 0.709516 -0.551079
v -0.0350037 0.0435343 -0.047082
vn -0.44553 0.705141 -0.551615
v -0.0344238 0.0431778 -0.0480021
vn -0.416609 0.698566 -0.581757
v -0.0349869 0.0422437 -0.0486286
vn -0.446648 0.664412 -0.599218
v -0.0362451 0.0417788 -0.0481948
vn -0.459315 0.658897 -0.595722
v -0.0373672 0.0382813 -0.0510119
vn -0.44756 0.606188 -0.657439
v -0.0382486 0.0379519 -0.0507096
vn -0.454039 0.602419 -0.656461
v -0.0396722 0.0374464 -0.0501839
vn -0.457035 0.601314 -0.655394
v -0.0409094 0.0370087 -0.0497195
vn -0.493833 0.592733 -0.636237
v -0.0363121 0.0402399 -0.0498159
vn -0.451735 0.651047 -0.609978
v -0.0355899 0.03973 -0.0508717
vn -0.446453 0.629057 -0.636371
v -0.0419645 0.0365439 -0.0492638
vn -0.538993 0.598291 -0.592904
v -0.0426763 0.0367108 -0.0483832
vn -0.999434 0.0246928 -0.0228286
v -0.0270149 0.0328162 -0.0576012
vn -0.286383 -0.0766282 -0.955046
v -0.0255976 0.0328162 -0.0579955
vn -0.232794 -0.119737 -0.965127
v -0.0422241 0.0287591 -0.0526636
vn -0.287085 -0.0888615 -0.953774
v -0.0212892 0.0344002 -0.0591828
vn 0.991155 -0.0134735 -0.132022
v -0.0426763 0.0280867 -0.0524051
vn -0.999596 -0.00507312 -0.0279725
v -0.0224344 0.0457592 -0.0521072
vn -0.250533 0.715869 -0.65174
v -0.0234602 0.0447754 -0.0527556
vn -0.284128 0.682072 -0.673832
v -0.0265858 0.0432049 -0.0527512
vn -0.343071 0.646043 -0.681858
v -0.0255976 0.0442564 -0.0522299
vn -0.353677 0.668291 -0.654446
v -0.0233681 0.0431733 -0.0542978
vn -0.304504 0.618746 -0.724175
v -0.0265188 0.0415848 -0.0542934
vn -0.316849 0.589183 -0.743284
v -0.0276095 0.0444911 -0.050863
vn -0.362218 0.695835 -0.62017
v -0.0296653 0.0431643 -0.051139
vn -0.368875 0.663992 -0.65042
v -0.0289137 0.044288 -0.0503153
vn -0.36726 0.701487 -0.610767
v -0.0302536 0.043593 -0.050289
vn -0.382238 0.695459 -0.608466
v -0.0315431 0.0433358 -0.0497633
vn -0.395941 0.691756 -0.603908
v -0.0303415 0.0444595 -0.0492156
vn -0.394308 0.709416 -0.584167
v -0.031987 0.0439315 -0.0487425
vn -0.39546 0.708704 -0.584252
v -0.0335026 0.0434396 -0.0483131
vn -0.396529 0.708042 -0.58433
v -0.0212892 0.0461473 -0.0520941
vn 0.954679 0.224835 -0.195029
v -0.0325962 0.0430244 -0.0494084
vn -0.407924 0.680015 -0.609244
v -0.0335026 0.0427491 -0.0491061
vn -0.41209 0.676897 -0.609911
v -0.0335026 0.0419593 -0.049978
vn -0.418778 0.671836 -0.610951
v -0.034495 0.0416525 -0.0496319
vn -0.433124 0.658835 -0.615093
v -0.035548 0.0412914 -0.0492507
vn -0.449874 0.656381 -0.605621
v -0.0363121 0.0386785 -0.0513493
vn -0.43137 0.584107 -0.68756
v -0.0391174 0.0368327 -0.0511171
vn -0.435716 0.547537 -0.714391
v -0.0401704 0.0363814 -0.0507753
vn -0.481626 0.545442 -0.685952
v -0.0413637 0.0359346 -0.050254
vn -0.507101 0.53469 -0.675985
v -0.0425025 0.0354878 -0.0497326
vn -0.530953 0.514634 -0.673232
v -0.0350414 0.0406912 -0.050254
vn -0.44017 0.650119 -0.619351
v -0.0345347 0.040091 -0.0512354
vn -0.429185 0.625352 -0.651717
v -0.0426763 0.0362054 -0.0489221
vn -0.999471 0.0228486 -0.0231368
v -0.0426763 0.0356638 -0.0494172
vn -0.999646 0.0176133 -0.0199396
v -0.0255976 0.0344002 -0.0580787
vn -0.307923 0.0456929 -0.950313
v -0.0240171 0.0344002 -0.0585256
vn -0.251946 -0.0366874 -0.967046
v -0.0426763 0.0283304 -0.0524402
vn -0.99991 0.000286975 -0.0133862
v -0.0422241 0.0289171 -0.0526636
vn -0.350436 0.131104 -0.927365
v -0.0212892 0.0348425 -0.0591959
vn 0.99807 0.000439215 -0.0621033
v -0.0212892 0.0459533 -0.0523131
vn 0.992018 0.0933863 -0.0847312
v -0.0212892 0.0453801 -0.0529396
vn 0.992324 0.0912344 -0.083483
v -0.0212892 0.0451635 -0.0531762
vn 0.970646 0.175924 -0.164001
v -0.0224344 0.0449694 -0.0529615
vn -0.257317 0.695846 -0.670512
v -0.0224344 0.0441752 -0.0537501
vn -0.276159 0.662911 -0.695906
v -0.0270798 0.0422527 -0.0533909
vn -0.35396 0.636202 -0.685536
v -0.0276388 0.0429161 -0.0524796
vn -0.356547 0.651998 -0.669159
v -0.0212892 0.0429567 -0.0552748
vn 0.990648 0.0858708 -0.106036
v -0.0212892 0.0420722 -0.055967
vn 0.846754 0.325984 -0.420407
v -0.0224344 0.0433854 -0.0544862
vn -0.273758 0.640983 -0.717075
v -0.0287609 0.0418059 -0.0529265
vn -0.362763 0.627684 -0.688779
v -0.0212892 0.0418826 -0.0561116
vn 0.954526 0.175808 -0.240774
v -0.0212892 0.0410161 -0.0567381
vn 0.955657 0.172442 -0.238711
v -0.0212892 0.0403482 -0.05722
vn 0.974292 0.130615 -0.183561
v -0.0216263 0.039924 -0.0573909
vn -0.310828 0.492858 -0.812697
v -0.0270987 0.0407318 -0.0546395
vn -0.324186 0.525451 -0.786641
v -0.0283715 0.0402083 -0.0544336
vn -0.361365 0.523361 -0.771692
v -0.0275739 0.0412644 -0.0540305
vn -0.362337 0.591335 -0.720441
v -0.0287609 0.0426002 -0.0521773
vn -0.370307 0.640168 -0.673096
v -0.0326318 0.0398834 -0.0526154
vn -0.380104 0.589099 -0.71308
v -0.0326757 0.0414945 -0.0510513
vn -0.398263 0.657909 -0.639173
v -0.0307204 0.0428484 -0.0508191
vn -0.393654 0.677091 -0.621759
v -0.0335026 0.0412237 -0.0507666
vn -0.430444 0.65198 -0.624212
v -0.0335026 0.039554 -0.0523525
vn -0.426393 0.556093 -0.713407
v -0.0397182 0.035903 -0.0513712
vn -0.419201 0.480369 -0.7704
v -0.0407629 0.0353254 -0.0511609
vn -0.459603 0.45313 -0.763831
v -0.034384 0.0384257 -0.0526987
vn -0.410247 0.490525 -0.768819
v -0.0418159 0.0346981 -0.0507885
vn -0.536017 0.447633 -0.715759
v -0.0426763 0.0349508 -0.0499473
vn -0.999472 0.01796 -0.0270944
v -0.0335026 0.040434 -0.0515596
vn -0.409965 0.629546 -0.660001
v -0.0269144 0.0344002 -0.0576055
vn -0.344832 0.127158 -0.930012
v -0.0266674 0.0356007 -0.0575179
vn -0.360843 0.189873 -0.913094
v -0.0257044 0.03607 -0.0577633
vn -0.312167 0.215998 -0.925147
v -0.0240171 0.0359797 -0.0583328
vn -0.278262 0.227681 -0.93313
v -0.0218712 0.0354337 -0.0590426
vn -0.265275 0.101998 -0.958762
v -0.0426763 0.0293593 -0.0523745
vn -0.999666 0.00370372 -0.0255606
v -0.0419813 0.0299731 -0.0525716
vn -0.365227 0.176908 -0.913954
v -0.0212892 0.0357451 -0.0591389
vn 0.99891 0.00856557 -0.0458822
v -0.0212892 0.044622 -0.0537458
vn 0.993829 0.0799594 -0.0768731
v -0.0212892 0.0444053 -0.0539648
vn 0.981326 0.134179 -0.137821
v -0.0212892 0.0438322 -0.0544993
vn 0.983637 0.122646 -0.131974
v -0.0212892 0.0436111 -0.0547008
vn 0.996579 0.0547967 -0.0618659
v -0.0296213 0.0415577 -0.0526899
vn -0.370783 0.637243 -0.675604
v -0.0212892 0.0395856 -0.057645
vn 0.99991 0.00622086 -0.0118803
v -0.0260666 0.0397525 -0.0557085
vn -0.325009 0.50551 -0.799268
v -0.0212892 0.039202 -0.0578202
vn 0.991813 0.0523261 -0.116482
v -0.0239836 0.0376044 -0.0577326
vn -0.264223 0.396515 -0.879182
v -0.025248 0.037108 -0.0575749
vn -0.293101 0.373927 -0.879926
v -0.0244881 0.0381595 -0.0572813
vn -0.324525 0.47142 -0.820029
v -0.0268705 0.0386965 -0.0560196
vn -0.328419 0.477159 -0.815144
v -0.0273101 0.0391929 -0.055542
vn -0.342654 0.497621 -0.796845
v -0.0288425 0.0392471 -0.0548279
vn -0.361061 0.486825 -0.795384
v -0.0303415 0.0387055 -0.0544643
vn -0.371174 0.494651 -0.785843
v -0.0335026 0.0387642 -0.0529177
vn -0.376087 0.496348 -0.782431
v -0.0370972 0.0364175 -0.0524752
vn -0.403042 0.433666 -0.80591
v -0.0386987 0.034856 -0.0524927
vn -0.395469 0.401515 -0.826069
v -0.0397726 0.0343551 -0.0521817
vn -0.444693 0.381091 -0.810566
v -0.0413386 0.0342603 -0.0513405
vn -0.463535 0.36808 -0.80601
v -0.0422283 0.0336421 -0.0510908
vn -0.525025 0.405228 -0.748425
v -0.0311852 0.0383896 -0.0542583
vn -0.381984 0.450667 -0.806838
v -0.0360441 0.0369094 -0.0527293
vn -0.390442 0.433864 -0.811983
v -0.0426763 0.0343596 -0.0503328
vn -0.998427 0.0290632 -0.0479363
v -0.0263031 0.0366522 -0.0573602
vn -0.375167 0.324216 -0.868409
v -0.0398292 0.0312367 -0.0531718
vn -0.36785 0.204188 -0.90719
v -0.0397726 0.0326673 -0.0528608
vn -0.375237 0.249061 -0.892841
v -0.0212892 0.0367108 -0.0588585
vn 0.97525 0.0744213 -0.208206
v -0.0214065 0.0364852 -0.0589024
vn -0.257655 0.301114 -0.91812
v -0.0212892 0.0363769 -0.0589681
vn 0.998164 0.0166176 -0.0582453
v -0.0212892 0.0359662 -0.059082
vn 0.99681 0.0208355 -0.0770432
v -0.0426763 0.0296166 -0.0523219
vn -0.999191 0.010737 -0.0387675
v -0.0416484 0.0312367 -0.0524051
vn -0.438929 0.251206 -0.862692
v -0.0406289 0.0320355 -0.0526592
vn -0.407007 0.252646 -0.87779
v -0.0212892 0.0375367 -0.0585606
vn 0.996774 0.0294283 -0.0746747
v -0.0224344 0.0375593 -0.0582145
vn -0.261418 0.390815 -0.882567
v -0.0279256 0.0383129 -0.0557961
vn -0.357919 0.453421 -0.816274
v -0.0257044 0.0376044 -0.0571105
vn -0.334128 0.462698 -0.821139
v -0.0302012 0.0374194 -0.0552441
vn -0.384808 0.4108 -0.826539
v -0.0295795 0.0367966 -0.0558268
vn -0.3854 0.375347 -0.84296
v -0.0392074 0.0338 -0.0527381
vn -0.387114 0.336274 -0.858523
v -0.0402625 0.0330915 -0.0524665
vn -0.452704 0.339447 -0.824521
v -0.0425423 0.0328162 -0.0512923
vn -0.466707 0.357375 -0.808992
v -0.0426763 0.0340663 -0.0504993
vn -0.999877 0.00769957 -0.0136992
v -0.0426763 0.0328162 -0.0512003
vn -0.999881 0.00738232 -0.0135447
v -0.0287609 0.0379474 -0.0556165
vn -0.369188 0.431815 -0.822943
v -0.0317965 0.0374555 -0.0544686
vn -0.387818 0.431939 -0.814264
v -0.0322382 0.0379113 -0.054013
vn -0.388396 0.436812 -0.811384
v -0.0426763 0.0312863 -0.0518356
vn -0.997366 0.0244819 -0.0682787
v -0.0412569 0.0326673 -0.0520853
vn -0.462666 0.332369 -0.821871
v -0.0426763 0.0324507 -0.0513668
vn -0.998988 0.0169228 -0.0416838
f 1//1 2//2 3//3
f 1//1 3//3 6//6
f 1//1 6//6 14//14
f 1//1 14//14 23//23
f 1//1 23//23 40//40
f 1//1 40//40 39//39
f 1//1 39//39 24//24
f 1//1 24//24 15//15
f 1//1 15//15 7//7
f 1//1 7//7 4//4
f 1//1 4//4 10//10
f 1//1 10//10 18//18
f 1//1 18//18 17//17
f 1//1 17//17 30//30
f 1//1 30//30 47//47
f 1//1 47//47 67//67
f 1//1 67//67 91//91
f 1//1 91//91 90//90
f 1//1 90//90 124//124
f 1//1 124//124 163//163
f 1//1 163//163 198//198
f 1//1 198//198 230//230
f 1//1 230//230 268//268
f 1//1 268//268 303//303
f 1//1 303//303 341//341
f 1//1 341//341 372//372
f 1//1 372//372 371//371
f 1//1 371//371 369//369
f 1//1 369//369 376//376
f 1//1 376//376 349//349
f 1//1 349//349 347//347
f 1//1 347//347 317//317
f 1//1 317//317 316//316
f 1//1 316//316 315//315
f 1//1 315//315 312//312
f 1//1 312//312 311//311
f 1//1 311//311 345//345
f 1//1 345//345 344//344
f 1//1 344//344 343//343
f 1//1 343//343 342//342
f 1//1 342//342 306//306
f 1//1 306//306 305//305
f 1//1 305//305 304//304
f 1//1 304//304 284//284
f 1//1 284//284 250//250
f 1//1 250//250 249//249
f 1//1 249//249 248//248
f 1//1 248//248 247//247
f 1//1 247//247 246//246
f 1//1 246//246 208//208
f 1//1 208//208 169//169
f 1//1 169//169 129//129
f 1//1 129//129 96//96
f 1//1 96//96 95//95
f 1//1 95//95 92//92
f 1//1 92//92 69//69
f 1//1 69//69 68//68
f 1//1 68//68 48//48
f 1//1 48//48 32//32
f 1//1 32//32 31//31
f 1//1 31//31 22//22
f 1//1 22//22 19//19
f 1//1 19//19 11//11
f 1//1 11//11 5//5
f 1//1 5//5 2//2
f 2//2 5//5 6//6
f 2//2 6//6 3//3
f 4//4 7//7 8//8
f 4//4 8//8 9//9
f 4//4 9//9 10//10
f 5//5 11//11 12//12
f 5//5 12//12 13//13
f 5//5 13//13 14//14
f 5//5 14//14 6//6
f 7//7 15//15 26//26
f 7//7 26//26 43//43
f 7//7 43//43 45//45
f 7//7 45//45 65//65
f 7//7 65//65 84//84
f 7//7 84//84 83//83
f 7//7 83//83 110//110
f 7//7 110//110 111//111
f 7//7 111//111 120//120
f 7//7 120//120 159//159
f 7//7 159//159 156//156
f 7//7 156//156 158//158
f 7//7 158//158 157//157
f 7//7 157//157 153//153
f 7//7 153//153 146//146
f 7//7 146//146 180//180
f 7//7 180//180 179//179
f 7//7 179//179 144//144
f 7//7 144//144 143//143
f 7//7 143//143 178//178
f 7//7 178//178 213//213
f 7//7 213//213 212//212
f 7//7 212//212 211//211
f 7//7 211//211 210//210
f 7//7 210//210 194//194
f 7//7 194//194 193//193
f 7//7 193//193 192//192
f 7//7 192//192 226//226
f 7//7 226//226 225//225
f 7//7 225//225 264//264
f 7//7 264//264 297//297
f 7//7 297//297 298//298
f 7//7 298//298 332//332
f 7//7 332//332 365//365
f 7//7 365//365 385//385
f 7//7 385//385 386//386
f 7//7 386//386 392//392
f 7//7 392//392 390//390
f 7//7 390//390 373//373
f 7//7 373//373 339//339
f 7//7 339//339 301//301
f 7//7 301//301 269//269
f 7//7 269//269 232//232
f 7//7 232//232 231//231
f 7//7 231//231 227//227
f 7//7 227//227 196//196
f 7//7 196//196 160//160
f 7//7 160//160 121//121
f 7//7 121//121 89//89
f 7//7 89//89 66//66
f 7//7 66//66 46//46
f 7//7 46//46 27//27
f 7//7 27//27 16//16
f 7//7 16//16 8//8
f 8//8 16//16 9//9
f 9//9 16//16 17//17
f 9//9 17//17 18//18
f 9//9 18//18 10//10
f 11//11 19//19 12//12
f 12//12 20//20 21//21
f 12//12 21//21 13//13
f 12//12 19//19 22//22
f 12//12 22//22 20//20
f 13//13 21//21 14//14
f 14//14 21//21 23//23
f 15//15 24//24 25//25
f 15//15 25//25 26//26
f 16//16 27//27 28//28
f 16//16 28//28 29//29
f 16//16 29//29 17//17
f 17//17 29//29 28//28
f 17//17 28//28 30//30
f 20//20 22//22 31//31
f 20//20 31//31 32//32
f 20//20 32//32 33//33
f 20//20 33//33 34//34
f 20//20 34//34 21//21
f 21//21 34//34 35//35
f 21//21 35//35 36//36
f 21//21 36//36 37//37
f 21//21 37//37 38//38
f 21//21 38//38 39//39
f 21//21 39//39 40//40
f 21//21 40//40 23//23
f 24//24 41//41 42//42
f 24//24 42//42 25//25
f 24//24 39//39 41//41
f 25//25 43//43 26//26
f 25//25 42//42 41//41
f 25//25 41//41 44//44
f 25//25 44//44 45//45
f 25//25 45//45 43//43
f 27//27 46//46 28//28
f 28//28 47//47 30//30
f 28//28 46//46 47//47
f 32//32 48//48 33//33
f 33//33 48//48 49//49
f 33//33 49//49 50//50
f 33//33 50//50 51//51
f 33//33 51//51 52//52
f 33//33 52//52 34//34
f 34//34 52//52 53//53
f 34//34 53//53 35//35
f 35//35 53//53 54//54
f 35//35 54//54 55//55
f 35//35 55//55 56//56
f 35//35 56//56 36//36
f 36//36 56//56 37//37
f 37//37 56//56 57//57
f 37//37 57//57 58//58
f 37//37 58//58 41//41
f 37//37 41//41 38//38
f 38//38 41//41 39//39
f 41//41 58//58 59//59
f 41//41 59//59 60//60
f 41//41 60//60 61//61
f 41//41 61//61 44//44
f 44//44 62//62 45//45
f 44//44 61//61 63//63
f 44//44 63//63 64//64
f 44//44 64//64 62//62
f 45//45 62//62 65//65
f 46//46 66//66 67//67
f 46//46 67//67 47//47
f 48//48 68//68 49//49
f 49//49 51//51 50//50
f 49//49 68//68 69//69
f 49//49 69//69 70//70
f 49//49 70//70 71//71
f 49//49 71//71 72//72
f 49//49 72//72 51//51
f 51//51 73//73 52//52
f 51//51 72//72 74//74
f 51//51 74//74 73//73
f 52//52 73//73 53//53
f 53//53 73//73 75//75
f 53//53 75//75 54//54
f 54//54 75//75 76//76
f 54//54 76//76 77//77
f 54//54 77//77 55//55
f 55//55 77//77 56//56
f 56//56 77//77 57//57
f 57//57 77//77 78//78
f 57//57 78//78 79//79
f 57//57 79//79 59//59
f 57//57 59//59 58//58
f 59//59 79//79 60//60
f 60//60 80//80 81//81
f 60//60 81//81 61//61
f 60//60 79//79 80//80
f 61//61 81//81 82//82
f 61//61 82//82 63//63
f 62//62 83//83 84//84
f 62//62 84//84 65//65
f 62//62 64//64 85//85
f 62//62 85//85 83//83
f 63//63 82//82 86//86
f 63//63 86//86 87//87
f 63//63 87//87 64//64
f 64//64 87//87 88//88
f 64//64 88//88 85//85
f 66//66 89//89 90//90
f 66//66 90//90 91//91
f 66//66 91//91 67//67
f 69//69 92//92 70//70
f 70//70 93//93 94//94
f 70//70 94//94 71//71
f 70//70 92//92 95//95
f 70//70 95//95 96//96
f 70//70 96//96 97//97
f 70//70 97//97 98//98
f 70//70 98//98 93//93
f 71//71 94//94 93//93
f 71//71 93//93 99//99
f 71//71 99//99 100//100
f 71//71 100//100 72//72
f 72//72 100//100 74//74
f 73//73 74//74 75//75
f 74//74 100//100 101//101
f 74//74 101//101 102//102
f 74//74 102//102 76//76
f 74//74 76//76 75//75
f 76//76 102//102 103//103
f 76//76 103//103 77//77
f 77//77 103//103 78//78
f 78//78 103//103 79//79
f 79//79 103//103 104//104
f 79//79 104//104 105//105
f 79//79 105//105 80//80
f 80//80 105//105 106//106
f 80//80 106//106 107//107
f 80//80 107//107 108//108
f 80//80 108//108 109//109
f 80//80 109//109 81//81
f 81//81 109//109 82//82
f 82//82 109//109 86//86
f 83//83 85//85 110//110
f 85//85 88//88 111//111
f 85//85 111//111 110//110
f 86//86 112//112 113//113
f 86//86 113//113 114//114
f 86//86 114//114 115//115
f 86//86 115//115 87//87
f 86//86 109//109 112//112
f 87//87 115//115 114//114
f 87//87 114//114 116//116
f 87//87 116//116 117//117
f 87//87 117//117 88//88
f 88//88 117//117 118//118
f 88//88 118//118 119//119
f 88//88 119//119 120//120
f 88//88 120//120 111//111
f 89//89 121//121 122//122
f 89//89 122//122 123//123
f 89//89 123//123 90//90
f 90//90 123//123 124//124
f 93//93 98//98 125//125
f 93//93 125//125 126//126
f 93//93 126//126 127//127
f 93//93 127//127 128//128
f 93//93 128//128 99//99
f 96//96 129//129 97//97
f 97//97 130//130 131//131
f 97//97 131//131 98//98
f 97//97 129//129 132//132
f 97//97 132//132 130//130
f 98//98 131//131 133//133
f 98//98 133//133 134//134
f 98//98 134//134 125//125
f 99//99 135//135 100//100
f 99//99 128//128 135//135
f 100//100 135//135 101//101
f 101//101 135//135 128//128
f 101//101 128//128 103//103
f 101//101 103//103 102//102
f 103//103 128//128 136//136
f 103//103 136//136 137//137
f 103//103 137//137 138//138
f 103//103 138//138 139//139
f 103//103 139//139 106//106
f 103//103 106//106 104//104
f 104//104 106//106 105//105
f 106//106 139//139 140//140
f 106//106 140//140 141//141
f 106//106 141//141 107//107
f 107//107 141//141 108//108
f 108//108 141//141 109//109
f 109//109 141//141 112//112
f 112//112 141//141 113//113
f 113//113 142//142 143//143
f 113//113 143//143 144//144
f 113//113 144//144 145//145
f 113//113 145//145 146//146
f 113//113 146//146 147//147
f 113//113 147//147 114//114
f 113//113 141//141 148//148
f 113//113 148//148 149//149
f 113//113 149//149 150//150
f 113//113 150//150 151//151
f 113//113 151//151 142//142
f 114//114 147//147 116//116
f 116//116 147//147 152//152
f 116//116 152//152 153//153
f 116//116 153//153 154//154
f 116//116 154//154 118//118
f 116//116 118//118 155//155
f 116//116 155//155 117//117
f 117//117 155//155 118//118
f 118//118 156//156 119//119
f 118//118 154//154 157//157
f 118//118 157//157 158//158
f 118//118 158//158 156//156
f 119//119 156//156 159//159
f 119//119 159//159 120//120
f 121//121 160//160 161//161
f 121//121 161//161 122//122
f 122//122 161//161 162//162
f 122//122 162//162 124//124
f 122//122 124//124 123//123
f 124//124 162//162 163//163
f 125//125 164//164 126//126
f 125//125 134//134 165//165
f 125//125 165//165 166//166
f 125//125 166//166 167//167
f 125//125 167//167 164//164
f 126//126 164//164 168//168
f 126//126 168//168 127//127
f 127//127 137//137 128//128
f 127//127 168//168 137//137
f 128//128 137//137 136//136
f 129//129 169//169 170//170
f 129//129 170//170 132//132
f 130//130 132//132 133//133
f 130//130 133//133 131//131
f 132//132 170//170 171//171
f 132//132 171//171 166//166
f 132//132 166//166 133//133
f 133//133 166//166 134//134
f 134//134 166//166 165//165
f 137//137 168//168 172//172
f 137//137 172//172 140//140
f 137//137 140//140 138//138
f 138//138 140//140 139//139
f 140//140 172//172 168//168
f 140//140 168//168 173//173
f 140//140 173//173 174//174
f 140//140 174//174 175//175
f 140//140 175//175 176//176
f 140//140 176//176 141//141
f 141//141 176//176 149//149
f 141//141 149//149 148//148
f 142//142 151//151 177//177
f 142//142 177//177 178//178
f 142//142 178//178 143//143
f 144//144 179//179 145//145
f 145//145 179//179 180//180
f 145//145 180//180 146//146
f 146//146 153//153 152//152
f 146//146 152//152 147//147
f 149//149 176//176 181//181
f 149//149 181//181 174//174
f 149//149 174//174 182//182
f 149//149 182//182 183//183
f 149//149 183//183 184//184
f 149//149 184//184 185//185
f 149//149 185//185 186//186
f 149//149 186//186 187//187
f 149//149 187//187 150//150
f 150//150 187//187 151//151
f 151//151 187//187 188//188
f 151//151 188//188 189//189
f 151//151 189//189 190//190
f 151//151 190//190 191//191
f 151//151 191//191 192//192
f 151//151 192//192 193//193
f 151//151 193//193 194//194
f 151//151 194//194 195//195
f 151//151 195//195 177//177
f 153//153 157//157 154//154
f 160//160 196//196 161//161
f 161//161 196//196 197//197
f 161//161 197//197 162//162
f 162//162 197//197 163//163
f 163//163 197//197 198//198
f 164//164 167//167 199//199
f 164//164 199//199 168//168
f 166//166 171//171 200//200
f 166//166 200//200 201//201
f 166//166 201//201 202//202
f 166//166 202//202 203//203
f 166//166 203//203 204//204
f 166//166 204//204 205//205
f 166//166 205//205 167//167
f 167//167 205//205 206//206
f 167//167 206//206 199//199
f 168//168 182//182 174//174
f 168//168 174//174 173//173
f 168//168 199//199 207//207
f 168//168 207//207 184//184
f 168//168 184//184 182//182
f 169//169 208//208 170//170
f 170//170 208//208 209//209
f 170//170 209//209 171//171
f 171//171 209//209 200//200
f 174//174 181//181 175//175
f 175//175 181//181 176//176
f 177//177 195//195 210//210
f 177//177 210//210 211//211
f 177//177 211//211 212//212
f 177//177 212//212 213//213
f 177//177 213//213 178//178
f 182//182 184//184 183//183
f 184//184 207//207 214//214
f 184//184 214//214 185//185
f 185//185 214//214 186//186
f 186//186 214//214 215//215
f 186//186 215//215 216//216
f 186//186 216//216 189//189
f 186//186 189//189 187//187
f 187//187 189//189 188//188
f 189//189 216//216 217//217
f 189//189 217//217 218//218
f 189//189 218//218 219//219
f 189//189 219//219 220//220
f 189//189 220//220 221//221
f 189//189 221//221 222//222
f 189//189 222//222 190//190
f 190//190 222//222 223//223
f 190//190 223//223 224//224
f 190//190 224//224 191//191
f 191//191 224//224 225//225
f 191//191 225//225 226//226
f 191//191 226//226 192//192
f 194//194 210//210 195//195
f 196//196 227//227 197//197
f 197//197 228//228 229//229
f 197//197 229//229 230//230
f 197//197 230//230 198//198
f 197//197 227//227 231//231
f 197//197 231//231 232//232
f 197//197 232//232 233//233
f 197//197 233//233 228//228
f 199//199 206//206 234//234
f 199//199 234//234 235//235
f 199//199 235//235 207//207
f 200//200 209//209 236//236
f 200//200 236//236 237//237
f 200//200 237//237 201//201
f 201//201 238//238 239//239
f 201//201 239//239 240//240
f 201//201 240//240 241//241
f 201//201 241//241 202//202
f 201//201 237//237 236//236
f 201//201 236//236 238//238
f 202//202 241//241 242//242
f 202//202 242//242 203//203
f 203//203 242//242 204//204
f 204//204 242//242 205//205
f 205//205 242//242 243//243
f 205//205 243//243 244//244
f 205//205 244//244 234//234
f 205//205 234//234 206//206
f 207//207 235//235 245//245
f 207//207 245//245 214//214
f 208//208 246//246 209//209
f 209//209 246//246 247//247
f 209//209 247//247 248//248
f 209//209 248//248 249//249
f 209//209 249//249 250//250
f 209//209 250//250 251//251
f 209//209 251//251 236//236
f 214//214 245//245 215//215
f 215//215 245//245 217//217
f 215//215 217//217 216//216
f 217//217 245//245 252//252
f 217//217 252//252 253//253
f 217//217 253//253 218//218
f 218//218 254//254 255//255
f 218//218 255//255 256//256
f 218//218 256//256 220//220
f 218//218 220//220 219//219
f 218//218 253//253 254//254
f 220//220 256//256 221//221
f 221//221 257//257 258//258
f 221//221 258//258 259//259
f 221//221 259//259 260//260
f 221//221 260//260 222//222
f 221//221 256//256 261//261
f 221//221 261//261 262//262
f 221//221 262//262 257//257
f 222//222 260//260 223//223
f 223//223 260//260 263//263
f 223//223 263//263 224//224
f 224//224 263//263 264//264
f 224//224 264//264 225//225
f 228//228 265//265 266//266
f 228//228 266//266 229//229
f 228//228 233//233 267//267
f 228//228 267//267 265//265
f 229//229 266//266 268//268
f 229//229 268//268 230//230
f 232//232 269//269 233//233
f 233//233 269//269 267//267
f 234//234 252//252 245//245
f 234//234 245//245 235//235
f 234//234 244//244 243//243
f 234//234 243//243 254//254
f 234//234 254//254 252//252
f 236//236 251//251 270//270
f 236//236 270//270 271//271
f 236//236 271//271 238//238
f 238//238 271//271 239//239
f 239//239 272//272 273//273
f 239//239 273//273 240//240
f 239//239 271//271 274//274
f 239//239 274//274 275//275
f 239//239 275//275 272//272
f 240//240 276//276 241//241
f 240//240 273//273 277//277
f 240//240 277//277 276//276
f 241//241 276//276 278//278
f 241//241 278//278 242//242
f 242//242 278//278 277//277
f 242//242 277//277 279//279
f 242//242 279//279 280//280
f 242//242 280//280 281//281
f 242//242 281//281 243//243
f 243//243 281//281 282//282
f 243//243 282//282 283//283
f 243//243 283//283 254//254
f 250//250 284//284 251//251
f 251//251 284//284 270//270
f 252//252 254//254 253//253
f 254//254 285//285 286//286
f 254//254 286//286 287//287
f 254//254 287//287 288//288
f 254//254 288//288 255//255
f 254//254 283//283 280//280
f 254//254 280//280 285//285
f 255//255 288//288 289//289
f 255//255 289//289 256//256
f 256//256 289//289 261//261
f 257//257 290//290 291//291
f 257//257 291//291 258//258
f 257//257 262//262 290//290
f 258//258 291//291 259//259
f 259//259 291//291 260//260
f 260//260 291//291 292//292
f 260//260 292//292 293//293
f 260//260 293//293 294//294
f 260//260 294//294 263//263
f 261//261 289//289 288//288
f 261//261 288//288 295//295
f 261//261 295//295 262//262
f 262//262 295//295 296//296
f 262//262 296//296 290//290
f 263//263 297//297 264//264
f 263//263 294//294 298//298
f 263//263 298//298 297//297
f 265//265 299//299 300//300
f 265//265 300//300 266//266
f 265//265 267//267 299//299
f 266//266 300//300 268//268
f 267//267 269//269 301//301
f 267//267 301//301 302//302
f 267//267 302//302 299//299
f 268//268 300//300 303//303
f 270//270 284//284 304//304
f 270//270 304//304 305//305
f 270//270 305//305 306//306
f 270//270 306//306 307//307
f 270//270 307//307 271//271
f 271//271 307//307 308//308
f 271//271 308//308 274//274
f 272//272 275//275 309//309
f 272//272 309//309 310//310
f 272//272 310//310 273//273
f 273//273 310//310 277//277
f 274//274 311//311 312//312
f 274//274 312//312 275//275
f 274//274 308//308 313//313
f 274//274 313//313 311//311
f 275//275 314//314 309//309
f 275//275 312//312 315//315
f 275//275 315//315 316//316
f 275//275 316//316 317//317
f 275//275 317//317 318//318
f 275//275 318//318 319//319
f 275//275 319//319 320//320
f 275//275 320//320 321//321
f 275//275 321//321 314//314
f 276//276 277//277 278//278
f 277//277 310//310 322//322
f 277//277 322//322 323//323
f 277//277 323//323 324//324
f 277//277 324//324 325//325
f 277//277 325//325 280//280
f 277//277 280//280 279//279
f 280//280 283//283 282//282
f 280//280 282//282 281//281
f 280//280 325//325 324//324
f 280//280 324//324 285//285
f 285//285 324//324 286//286
f 286//286 324//324 287//287
f 287//287 324//324 288//288
f 288//288 324//324 326//326
f 288//288 326//326 296//296
f 288//288 296//296 295//295
f 290//290 296//296 323//323
f 290//290 323//323 327//327
f 290//290 327//327 291//291
f 291//291 328//328 329//329
f 291//291 329//329 292//292
f 291//291 327//327 330//330
f 291//291 330//330 328//328
f 292//292 329//329 293//293
f 293//293 329//329 294//294
f 294//294 329//329 331//331
f 294//294 331//331 332//332
f 294//294 332//332 298//298
f 296//296 326//326 324//324
f 296//296 324//324 333//333
f 296//296 333//333 323//323
f 299//299 302//302 334//334
f 299//299 334//334 335//335
f 299//299 335//335 336//336
f 299//299 336//336 337//337
f 299//299 337//337 338//338
f 299//299 338//338 300//300
f 300//300 338//338 303//303
f 301//301 339//339 302//302
f 302//302 339//339 340//340
f 302//302 340//340 335//335
f 302//302 335//335 334//334
f 303//303 338//338 341//341
f 306//306 342//342 307//307
f 307//307 342//342 343//343
f 307//307 343//343 308//308
f 308//308 344//344 313//313
f 308//308 343//343 344//344
f 309//309 314//314 310//310
f 310//310 314//314 322//322
f 311//311 313//313 345//345
f 313//313 344//344 345//345
f 314//314 321//321 323//323
f 314//314 323//323 346//346
f 314//314 346//346 322//322
f 317//317 347//347 318//318
f 318//318 348//348 319//319
f 318//318 347//347 349//349
f 318//318 349//349 350//350
f 318//318 350//350 351//351
f 318//318 351//351 352//352
f 318//318 352//352 353//353
f 318//318 353//353 348//348
f 319//319 348//348 354//354
f 319//319 354//354 320//320
f 320//320 323//323 321//321
f 320//320 354//354 355//355
f 320//320 355//355 356//356
f 320//320 356//356 323//323
f 322//322 346//346 323//323
f 323//323 333//333 324//324
f 323//323 356//356 357//357
f 323//323 357//357 330//330
f 323//323 330//330 327//327
f 328//328 330//330 358//358
f 328//328 358//358 329//329
f 329//329 359//359 360//360
f 329//329 360//360 361//361
f 329//329 361//361 362//362
f 329//329 362//362 331//331
f 329//329 358//358 359//359
f 330//330 357//357 363//363
f 330//330 363//363 364//364
f 330//330 364//364 358//358
f 331//331 362//362 365//365
f 331//331 365//365 332//332
f 335//335 366//366 336//336
f 335//335 340//340 367//367
f 335//335 367//367 368//368
f 335//335 368//368 366//366
f 336//336 366//366 351//351
f 336//336 351//351 337//337
f 337//337 351//351 369//369
f 337//337 369//369 370//370
f 337//337 370//370 371//371
f 337//337 371//371 372//372
f 337//337 372//372 341//341
f 337//337 341//341 338//338
f 339//339 373//373 340//340
f 340//340 373//373 374//374
f 340//340 374//374 375//375
f 340//340 375//375 367//367
f 348//348 353//353 354//354
f 349//349 376//376 377//377
f 349//349 377//377 350//350
f 350//350 377//377 351//351
f 351//351 377//377 376//376
f 351//351 376//376 369//369
f 351//351 366//366 378//378
f 351//351 378//378 379//379
f 351//351 379//379 352//352
f 352//352 379//379 353//353
f 353//353 379//379 378//378
f 353//353 378//378 354//354
f 354//354 378//378 355//355
f 355//355 378//378 356//356
f 356//356 378//378 363//363
f 356//356 363//363 357//357
f 358//358 364//364 380//380
f 358//358 380//380 359//359
f 359//359 380//380 381//381
f 359//359 381//381 382//382
f 359//359 382//382 360//360
f 360//360 382//382 383//383
f 360//360 383//383 361//361
f 361//361 383//383 384//384
f 361//361 384//384 362//362
f 362//362 385//385 365//365
f 362//362 384//384 386//386
f 362//362 386//386 385//385
f 363//363 378//378 387//387
f 363//363 387//387 380//380
f 363//363 380//380 388//388
f 363//363 388//388 389//389
f 363//363 389//389 364//364
f 364//364 389//389 388//388
f 364//364 388//388 380//380
f 366//366 381//381 380//380
f 366//366 380//380 387//387
f 366//366 387//387 378//378
f 366//366 368//368 382//382
f 366//366 382//382 381//381
f 367//367 375//375 368//368
f 368//368 375//375 383//383
f 368//368 383//383 382//382
f 369//369 371//371 370//370
f 373//373 390//390 374//374
f 374//374 390//390 375//375
f 375//375 390//390 383//383
f 383//383 390//390 391//391
f 383//383 391//391 384//384
f 384//384 391//391 392//392
f 384//384 392//392 386//386
f 390//390 392//392 391//391
