# Created by Open3D 
# object name: part_044
# number of vertices: 64
# number of triangles: 124
v 0.0700364 0.0250906 0.0177217
vn 0.0643404 0.997928 -0.000478821
v 0.0700148 0.0250906 0.0174972
vn 0.913657 0.382871 -0.136531
v 0.0699622 0.0250906 0.0188269
vn 0.93155 0.357158 0.068216
v 0.0756797 0.0106737 0.0161401
vn 0.934589 0.34634 0.0811893
v 0.0756055 0.0106737 0.0145602
vn 0.915641 0.378643 -0.135023
v 0.0699251 0.0250906 0.0169763
vn 0.908021 0.386298 -0.162085
v 0.0699189 0.0250906 0.0193272
vn 0.917099 0.330501 0.222932
v 0.0758839 0.00909424 0.0177217
vn 0.909806 0.243978 0.33575
v 0.0761902 0.00909424 0.0161401
vn 0.977787 0.199558 0.0640974
v 0.0761346 0.00909424 0.0145602
vn 0.969066 0.226891 -0.0971124
v 0.0754817 0.0106983 0.0140993
vn 0.00212372 0.00072337 -0.999997
v 0.0753456 0.0110457 0.0140993
vn 0.89763 0.381565 -0.220608
v 0.0694424 0.0249058 0.0140993
vn 0.903014 0.385321 -0.189984
v 0.0697735 0.0250906 0.0161452
vn 0.904409 0.388431 -0.176536
v 0.0694764 0.0250906 0.0206997
vn 0.898453 0.328431 0.291401
v 0.07068 0.00751234 0.031601
vn 0.0617118 0.012962 0.99801
v 0.0709584 0.0059403 0.031601
vn 0.919005 0.150079 0.364564
v 0.0716112 0.00319292 0.0310322
vn 0.923966 0.136164 0.357415
v 0.0755715 0.00276665 0.0208848
vn 0.929955 0.11824 0.348142
v 0.0758221 -7.929e-05 0.0208848
vn 0.108127 -0.993656 0.0309081
v 0.0759922 0.00751234 0.0177217
vn 0.974969 0.0665716 0.212139
v 0.0763542 0.00759612 0.0160304
vn 0.983057 0.0526534 0.175574
v 0.0694115 0.0250906 0.0208916
vn 0.890022 0.303023 0.340644
v 0.0678985 0.0173512 0.031601
vn 0.892181 0.294323 0.342617
v 0.0680037 0.0170185 0.031601
vn 0.890368 0.272246 0.364866
v 0.0698446 0.0109866 0.031601
vn 0.890574 0.271572 0.364866
v 0.0698972 0.0108092 0.031601
vn 0.895633 0.254466 0.364813
v 0.0699405 0.010649 0.031601
vn 0.900902 0.235433 0.36462
v 0.0700241 0.0103238 0.031601
vn 0.902761 0.228372 0.364512
v 0.0701107 0.00997636 0.031601
vn 0.906973 0.211597 0.364179
v 0.0764161 0.00712549 0.015429
vn 0.997157 0.0177734 0.0732292
v 0.0764161 0.00712549 0.0152868
vn 0.995253 0.0688641 -0.0687638
v 0.0763326 0.00759612 0.0146785
vn 0.980303 0.0483054 -0.1915
v 0.0761624 0.00756655 0.0140993
vn 0.679174 0.0385836 -0.732962
v 0.0761036 0.00810617 0.0140993
vn 0.692602 0.0757442 -0.717332
v 0.0759953 0.00909424 0.0140993
vn 0.760789 0.126719 -0.636507
v 0.0758623 0.00955501 0.0140993
vn 0.915258 0.293046 -0.276454
v 0.0693589 0.0250906 0.0140993
vn 0.00178086 0.245178 -0.969476
v 0.0715803 0.00175147 0.031601
vn 0.856833 0.125089 0.50019
v 0.0716886 0.00213832 0.0312172
vn 0.924482 0.124538 0.360311
v 0.0734954 -7.929e-05 0.0272162
vn 0.931893 0.0911294 0.351098
v 0.0717474 0.00118475 0.0313731
vn 0.927641 0.114352 0.355537
v 0.0758901 -7.929e-05 0.0205678
vn 0.983246 0.0437468 0.176957
v 0.0761067 -7.929e-05 0.0193032
vn 0.995353 -0.00917706 0.0958562
v 0.0687896 0.0250906 0.022391
vn 0.795071 0.495837 0.349295
v 0.0668621 0.020202 0.031601
vn 0.834261 0.33467 0.438183
v 0.0670787 0.0196378 0.031601
vn 0.84262 0.323219 0.430722
v 0.0672921 0.0190809 0.031601
vn 0.843771 0.322332 0.42913
v 0.0674561 0.0186497 0.031601
vn 0.866543 0.303791 0.395998
v 0.0764161 0.00668443 0.015429
vn 0.997203 -0.0022535 0.074703
v 0.0764965 -7.929e-05 0.0140993
vn 0.095768 -0.508448 -0.855751
v 0.0550681 0.0250906 0.0140993
vn -0.471551 0.159906 -0.86722
v 0.0716948 0.00089646 0.031601
vn 0.910635 0.110574 0.398142
v 0.0718123 -7.929e-05 0.031601
vn 0.0235382 -0.810809 0.584837
v 0.0764811 -7.929e-05 0.0143443
vn 0.996834 -0.0273128 0.0746754
v 0.0646097 0.0250906 0.031601
vn 0.00364515 0.630419 0.776247
v 0.0647056 0.0249132 0.031601
vn 0.738872 0.373367 0.56095
v 0.0652223 0.0238783 0.031601
vn 0.750131 0.368403 0.549165
v 0.0656059 0.02308 0.031601
vn 0.764215 0.361898 0.533859
v 0.0660391 0.0221535 0.031601
vn 0.775234 0.356563 0.521416
v 0.0662247 0.0217346 0.031601
vn 0.8065 0.340117 0.483609
v 0.0665651 -7.929e-05 0.0140993
vn -0.600892 -0.490192 -0.63138
v 0.0448922 0.0250906 0.031601
vn -0.937855 0.150023 0.312922
v 0.0580537 -7.929e-05 0.031601
vn -0.548101 -0.743495 0.383146
f 1//1 2//2 6//6
f 1//1 6//6 14//14
f 1//1 14//14 38//38
f 1//1 38//38 52//52
f 1//1 52//52 63//63
f 1//1 63//63 56//56
f 1//1 56//56 45//45
f 1//1 45//45 23//23
f 1//1 23//23 15//15
f 1//1 15//15 7//7
f 1//1 7//7 3//3
f 1//1 3//3 4//4
f 1//1 4//4 5//5
f 1//1 5//5 2//2
f 2//2 5//5 6//6
f 3//3 7//7 4//4
f 4//4 8//8 9//9
f 4//4 9//9 10//10
f 4//4 10//10 5//5
f 4//4 7//7 8//8
f 5//5 10//10 11//11
f 5//5 11//11 12//12
f 5//5 12//12 13//13
f 5//5 13//13 14//14
f 5//5 14//14 6//6
f 7//7 15//15 8//8
f 8//8 16//16 17//17
f 8//8 17//17 18//18
f 8//8 18//18 19//19
f 8//8 19//19 20//20
f 8//8 20//20 21//21
f 8//8 21//21 22//22
f 8//8 22//22 9//9
f 8//8 15//15 23//23
f 8//8 23//23 24//24
f 8//8 24//24 25//25
f 8//8 25//25 26//26
f 8//8 26//26 27//27
f 8//8 27//27 28//28
f 8//8 28//28 29//29
f 8//8 29//29 30//30
f 8//8 30//30 16//16
f 9//9 22//22 31//31
f 9//9 31//31 32//32
f 9//9 32//32 10//10
f 10//10 32//32 33//33
f 10//10 33//33 34//34
f 10//10 34//34 35//35
f 10//10 35//35 36//36
f 10//10 36//36 37//37
f 10//10 37//37 11//11
f 11//11 37//37 36//36
f 11//11 36//36 35//35
f 11//11 35//35 34//34
f 11//11 34//34 51//51
f 11//11 51//51 62//62
f 11//11 62//62 52//52
f 11//11 52//52 38//38
f 11//11 38//38 13//13
f 11//11 13//13 12//12
f 13//13 38//38 14//14
f 16//16 30//30 29//29
f 16//16 29//29 28//28
f 16//16 28//28 27//27
f 16//16 27//27 26//26
f 16//16 26//26 25//25
f 16//16 25//25 24//24
f 16//16 24//24 49//49
f 16//16 49//49 48//48
f 16//16 48//48 47//47
f 16//16 47//47 46//46
f 16//16 46//46 61//61
f 16//16 61//61 60//60
f 16//16 60//60 59//59
f 16//16 59//59 58//58
f 16//16 58//58 57//57
f 16//16 57//57 56//56
f 16//16 56//56 63//63
f 16//16 63//63 64//64
f 16//16 64//64 54//54
f 16//16 54//54 53//53
f 16//16 53//53 39//39
f 16//16 39//39 17//17
f 17//17 39//39 40//40
f 17//17 40//40 18//18
f 18//18 40//40 19//19
f 19//19 41//41 20//20
f 19//19 40//40 42//42
f 19//19 42//42 41//41
f 20//20 43//43 22//22
f 20//20 22//22 21//21
f 20//20 41//41 54//54
f 20//20 54//54 64//64
f 20//20 64//64 62//62
f 20//20 62//62 51//51
f 20//20 51//51 55//55
f 20//20 55//55 44//44
f 20//20 44//44 43//43
f 22//22 43//43 44//44
f 22//22 44//44 31//31
f 23//23 45//45 46//46
f 23//23 46//46 47//47
f 23//23 47//47 48//48
f 23//23 48//48 49//49
f 23//23 49//49 24//24
f 31//31 50//50 51//51
f 31//31 51//51 32//32
f 31//31 44//44 50//50
f 32//32 51//51 33//33
f 33//33 51//51 34//34
f 39//39 53//53 40//40
f 40//40 53//53 42//42
f 41//41 42//42 53//53
f 41//41 53//53 54//54
f 44//44 55//55 50//50
f 45//45 56//56 57//57
f 45//45 57//57 58//58
f 45//45 58//58 59//59
f 45//45 59//59 60//60
f 45//45 60//60 61//61
f 45//45 61//61 46//46
f 50//50 55//55 51//51
f 52//52 62//62 63//63
f 62//62 64//64 63//63
