# Created by Open3D 
# object name: part_021
# number of vertices: 234
# number of triangles: 464
v -0.00149947 0.0472595 -0.0328402
vn 0.720959 0.513252 0.465608
v -0.0212892 0.0472595 -0.0274951
vn -0.856353 0.509371 0.0848596
v -0.0212892 0.044016 -0.0312662
vn 0.17337 -0.746737 0.642127
v -0.00571702 0.0319955 -0.0494501
vn 0.167609 -0.754908 0.634051
v -0.00149947 0.0332516 -0.0491515
vn 0.184375 -0.746565 0.639254
v -0.00149947 0.0472595 -0.0548634
vn 0.092255 0.99565 -0.0130315
v -0.0212892 0.0472595 -0.0507353
vn -0.0159853 0.999863 -0.00419982
v -0.0212892 0.0431868 -0.0322334
vn 0.153373 -0.757042 0.635109
v -0.00149947 0.0319501 -0.0509365
vn 0.256284 -0.908122 0.331109
v -0.00149947 0.0324609 -0.0501446
vn 0.620586 -0.649522 0.439312
v -0.00149947 0.0326481 -0.0499044
vn 0.353632 -0.731747 0.582659
v -0.0212892 0.0309581 -0.0468311
vn 0.149155 -0.759157 0.633588
v -0.0212892 0.030386 -0.047571
vn 0.0851808 -0.788749 0.608785
v -0.0212892 0.0302968 -0.0476878
vn -0.0607836 -0.839237 0.540357
v -0.0212892 0.0302356 -0.0478047
vn -0.0294022 -0.895031 0.445035
v -0.00149947 0.0470775 -0.0550484
vn 0.989771 0.101 -0.10076
v -0.00345617 0.0471493 -0.0551133
vn 0.030591 0.707543 -0.706008
v -0.00345617 0.0472595 -0.0549997
vn 0.000229298 0.999975 -0.00699624
v -0.014497 0.0472595 -0.0533478
vn -0.0201896 0.998396 -0.0528885
v -0.0212892 0.0468658 -0.0512285
vn -0.921881 0.302445 -0.242205
v -0.0212892 0.0294011 -0.0502809
vn -0.283762 -0.948681 0.139586
v -0.00149947 0.0317786 -0.0516569
vn 0.559103 -0.806662 0.191571
v -0.0212892 0.0297947 -0.0487036
vn -0.334389 -0.893085 0.30097
v -0.00149947 0.0462833 -0.0558402
vn 0.999717 0.016631 -0.0170212
v -0.00187531 0.046299 -0.0558532
vn 0.0493322 0.701347 -0.711111
v -0.00503896 0.047158 -0.0551198
vn -0.0240849 0.715577 -0.698118
v -0.00345617 0.0463585 -0.0559019
vn 0.0274018 0.63969 -0.768144
v -0.00503896 0.0463673 -0.0559116
vn -0.00487199 0.668971 -0.743273
v -0.00503896 0.0472595 -0.0550127
vn -0.000111685 0.99999 -0.00453648
v -0.0129432 0.0472595 -0.0539222
vn -0.0165864 0.998688 -0.0484562
v -0.0153417 0.0462658 -0.0542468
vn -0.241427 0.714297 -0.656881
v -0.0212892 0.0466279 -0.0515239
vn -0.777134 0.486782 -0.398881
v -0.00149947 0.0317296 -0.0518646
vn 0.615593 -0.781476 0.101684
v -0.0212892 0.0293871 -0.0518322
vn -0.802274 -0.596873 -0.0099274
v -0.0118506 0.0304158 -0.0524878
vn 0.109103 -0.993996 0.00822182
v -0.00149947 0.0315459 -0.0534451
vn 0.377176 -0.926131 0.00449623
v -0.00149947 0.0461276 -0.0559765
vn 0.993581 0.0720352 -0.0872279
v -0.00661982 0.047123 -0.0550646
vn -0.0402595 0.721467 -0.691278
v -0.00661982 0.0472595 -0.0549218
vn -0.00200427 0.999585 -0.0287503
v -0.00661982 0.0463323 -0.0558889
vn -0.0335981 0.679195 -0.733188
v -0.00820068 0.046285 -0.0558467
vn -0.0445772 0.707529 -0.705277
v -0.00149947 0.0452406 -0.0567035
vn 0.99367 0.0709737 -0.0870822
v -0.00149947 0.0445268 -0.0572812
vn 0.884773 0.288972 -0.365611
v -0.00503896 0.0445968 -0.0573396
vn 0.0215748 0.612331 -0.790307
v -0.00503896 0.0454663 -0.0566451
vn 0.0108995 0.627766 -0.778326
v -0.00661982 0.0446108 -0.0573558
vn -0.00223122 0.588411 -0.808559
v -0.00661982 0.0454663 -0.0566386
vn -0.0300254 0.647479 -0.761492
v -0.0113643 0.0472595 -0.0543798
vn -0.00728628 0.999535 -0.0295931
v -0.0129432 0.0466367 -0.0546459
vn -0.192623 0.723154 -0.663284
v -0.014526 0.046397 -0.0543863
vn -0.220804 0.721212 -0.656581
v -0.0129432 0.0458827 -0.0554346
vn -0.212464 0.690638 -0.691288
v -0.014249 0.0448697 -0.0559993
vn -0.231289 0.671796 -0.703701
v -0.0161069 0.0445443 -0.0556845
vn -0.242782 0.674942 -0.696785
v -0.0199719 0.0446458 -0.0542046
vn -0.245372 0.683352 -0.687621
v -0.0208514 0.0444866 -0.0540488
vn -0.25137 0.674468 -0.694195
v -0.0212892 0.0446213 -0.053747
vn -0.94259 0.24146 -0.230695
v -0.0212892 0.0451636 -0.0531758
vn -0.946847 0.235392 -0.219252
v -0.0212892 0.0459544 -0.0523157
vn -0.945485 0.240892 -0.219154
v -0.0212892 0.0461468 -0.0520951
vn -0.941241 0.257263 -0.218818
v -0.0212892 0.0295306 -0.0534451
vn -0.995083 -0.0985047 -0.010307
v -0.0192706 0.0297475 -0.0550256
vn 0.0350608 -0.99308 -0.112087
v -0.0176878 0.0298315 -0.0550256
vn 0.0746827 -0.994201 -0.0773791
v -0.0176878 0.0297702 -0.0534451
vn 0.107779 -0.993848 -0.0254904
v -0.00149947 0.0316107 -0.0546492
vn 0.837102 -0.546244 -0.0296269
v -0.0133791 0.030393 -0.0575246
vn 0.113704 -0.988994 -0.0946717
v -0.00810575 0.0472595 -0.0548114
vn -0.00431718 0.998646 -0.0518491
v -0.00820068 0.0454663 -0.0565607
vn -0.0489544 0.649804 -0.758524
v -0.00899498 0.046257 -0.0558175
vn -0.0669441 0.70117 -0.709845
v -0.00149947 0.0443396 -0.0574272
vn 0.98101 0.11729 -0.154477
v -0.00149947 0.0437361 -0.0578816
vn 0.946262 0.188065 -0.263096
v -0.00820068 0.0445618 -0.0573234
vn -0.0525992 0.59634 -0.801007
v -0.00345617 0.0437693 -0.0578881
vn 0.010675 0.560921 -0.8278
v -0.00149947 0.0425674 -0.0586734
vn 0.964929 0.142048 -0.220759
v -0.00503896 0.0438061 -0.0578783
vn -0.00343639 0.536808 -0.843697
v -0.00661982 0.0438201 -0.0578556
vn -0.0261072 0.511616 -0.858818
v -0.00970017 0.0472595 -0.0546589
vn -0.00749125 0.998437 -0.0553756
v -0.0113643 0.0468344 -0.0548471
vn -0.135501 0.725131 -0.675148
v -0.0113643 0.0460838 -0.055639
vn -0.157723 0.693501 -0.702979
v -0.0129432 0.0450919 -0.0561907
vn -0.197613 0.63886 -0.74351
v -0.0161069 0.0437536 -0.0563952
vn -0.225785 0.629701 -0.743302
v -0.0176878 0.0434632 -0.0561356
vn -0.248644 0.639321 -0.72763
v -0.0176878 0.0442539 -0.0554021
vn -0.252124 0.661248 -0.70653
v -0.0208514 0.0436958 -0.0547855
vn -0.254996 0.657846 -0.708672
v -0.0212892 0.0443991 -0.0539676
vn -0.999683 0.0172857 -0.0182886
v -0.0212892 0.0297213 -0.0550256
vn -0.978992 -0.19935 -0.0428287
v -0.0176878 0.0300362 -0.0566061
vn 0.0265894 -0.984215 -0.17497
v -0.00149947 0.0316317 -0.0550256
vn 0.860794 -0.504145 -0.0697947
v -0.014526 0.0303458 -0.0576414
vn 0.0453769 -0.951164 -0.305332
v -0.012889 0.0306817 -0.0581087
vn 0.121258 -0.905722 -0.406158
v -0.00236739 0.0319833 -0.0574856
vn 0.141056 -0.922536 -0.359208
v -0.00149947 0.0318906 -0.056671
vn 0.83143 -0.545517 -0.105521
v -0.00962655 0.0455852 -0.0563335
vn -0.0826148 0.644123 -0.760448
v -0.0100489 0.0461923 -0.0557526
vn -0.105924 0.697337 -0.708873
v -0.00962655 0.0468169 -0.0551457
vn -0.0866041 0.726706 -0.681467
v -0.00149947 0.0434597 -0.0580698
vn 0.994615 0.0581376 -0.0857987
v -0.00978347 0.0444656 -0.057252
vn -0.0925794 0.602616 -0.792643
v -0.00820068 0.0437711 -0.0578167
vn -0.0446936 0.484662 -0.873559
v -0.00978347 0.0436749 -0.0577712
vn -0.0744395 0.504916 -0.859953
v -0.00345617 0.04255 -0.0586799
vn -0.0137312 0.505317 -0.862824
v -0.00149947 0.0417767 -0.0591245
vn 0.997668 0.0319034 -0.0603368
v -0.00503896 0.0424677 -0.058667
vn -0.0394583 0.473749 -0.879775
v -0.0113643 0.0452931 -0.0563562
vn -0.128746 0.639945 -0.757558
v -0.0129432 0.044121 -0.0569826
vn -0.173729 0.60853 -0.77428
v -0.0150414 0.0429996 -0.0573299
vn -0.209151 0.601058 -0.771352
v -0.0161069 0.0427896 -0.0571838
vn -0.248332 0.577909 -0.777401
v -0.0198866 0.0430223 -0.0557559
vn -0.260185 0.610955 -0.747688
v -0.0212892 0.0436084 -0.0547043
vn -0.997137 0.0505824 -0.0561985
v -0.0212892 0.0301271 -0.0564439
vn -0.993419 -0.107367 -0.0398943
v -0.0194042 0.0301271 -0.0567554
vn -0.0433728 -0.9605 -0.274879
v -0.0176878 0.0303091 -0.0576479
vn -0.0300411 -0.947101 -0.319527
v -0.0161069 0.0303196 -0.0576836
vn 0.00923337 -0.933241 -0.359132
v -0.014526 0.0307184 -0.0584333
vn 0.0356133 -0.882681 -0.468621
v -0.0129432 0.0315144 -0.0597185
vn 0.0795449 -0.791859 -0.605501
v -0.00820068 0.0318941 -0.0592966
vn 0.129595 -0.854486 -0.503049
v -0.00149947 0.032202 -0.0575278
vn 0.999331 -0.0336528 -0.0143335
v -0.00149947 0.0320008 -0.0570475
vn 0.999275 -0.0357887 -0.0130076
v -0.00709253 0.0319763 -0.0590953
vn 0.168359 -0.80168 -0.573554
v -0.00503896 0.032125 -0.0586832
vn 0.154342 -0.879984 -0.449229
v -0.00149947 0.0324486 -0.058099
vn 0.977552 -0.176443 -0.11515
v -0.0113643 0.0435279 -0.0576868
vn -0.113964 0.520357 -0.84631
v -0.0113643 0.0443186 -0.0571449
vn -0.133943 0.5936 -0.793535
v -0.00978347 0.0423033 -0.0585209
vn -0.0532656 0.453515 -0.889655
v -0.0113643 0.0423033 -0.0583781
vn -0.0974057 0.470681 -0.87691
v -0.00187531 0.041775 -0.0591245
vn -0.0119177 0.4236 -0.905771
v -0.00345617 0.0417592 -0.0591083
vn -0.0405108 0.425973 -0.903828
v -0.00149947 0.0407218 -0.0595789
vn 0.999655 0.00886726 -0.0247307
v -0.00187531 0.0407218 -0.0595821
vn -0.00906948 0.343769 -0.93901
v -0.00661982 0.0423628 -0.0586442
vn -0.0431857 0.456972 -0.888432
v -0.0129432 0.0433302 -0.0575538
vn -0.145336 0.532047 -0.834148
v -0.0139875 0.043178 -0.0574532
vn -0.174982 0.563613 -0.807293
v -0.0145183 0.0424048 -0.0578394
vn -0.172285 0.516934 -0.838509
v -0.0161069 0.0419989 -0.057729
vn -0.219569 0.507539 -0.833183
v -0.0173158 0.0417277 -0.0575408
vn -0.246557 0.529998 -0.811364
v -0.0192706 0.0412606 -0.0572487
vn -0.254141 0.555488 -0.791736
v -0.0208514 0.0419989 -0.056207
vn -0.266718 0.569233 -0.777712
v -0.0193229 0.0424187 -0.0563984
vn -0.255918 0.581609 -0.772164
v -0.0208514 0.0427896 -0.0555774
vn -0.285969 0.599194 -0.747789
v -0.0212892 0.0429523 -0.0552755
vn -0.997872 0.0417256 -0.050098
v -0.0212892 0.030582 -0.0572325
vn -0.982276 -0.139336 -0.125374
v -0.0189664 0.0303493 -0.0575505
vn -0.119748 -0.822539 -0.555958
v -0.0161069 0.0307412 -0.0584755
vn -0.0444844 -0.822977 -0.56633
v -0.014526 0.0315092 -0.0596114
vn -0.056591 -0.728015 -0.683221
v -0.0129432 0.0324049 -0.0605103
vn 0.000389064 -0.500372 -0.865811
v -0.00820068 0.0327181 -0.0600884
vn 0.1164 -0.675009 -0.72857
v -0.00503896 0.0329157 -0.0597282
vn 0.153421 -0.709693 -0.687603
v -0.00149947 0.0333199 -0.0592446
vn 0.947986 -0.221597 -0.22851
v -0.00149947 0.0331117 -0.058972
vn 0.980705 -0.155608 -0.118337
v -0.0129432 0.0423033 -0.0581639
vn -0.12615 0.495767 -0.859244
v -0.00978347 0.0414076 -0.0589396
vn -0.0507291 0.394901 -0.917322
v -0.0113643 0.0412851 -0.0588811
vn -0.0774787 0.416283 -0.905928
v -0.0129432 0.0411294 -0.0587968
vn -0.0955145 0.441716 -0.892056
v -0.014526 0.0409685 -0.0586994
vn -0.148995 0.487906 -0.860086
v -0.00345617 0.0407218 -0.0595594
vn -0.0452115 0.346897 -0.936813
v -0.00149947 0.0391403 -0.0601079
vn 0.999874 0.0047152 -0.0151839
v -0.00187531 0.0391403 -0.0601111
vn -0.00440977 0.267726 -0.963485
v -0.00345617 0.0391403 -0.0600949
vn -0.0415675 0.28032 -0.959006
v -0.0205705 0.040183 -0.0575376
vn -0.239163 0.478162 -0.845081
v -0.0160546 0.0406203 -0.0585534
vn -0.226743 0.480959 -0.846916
v -0.0212892 0.0403474 -0.0572228
vn -0.995936 0.0486544 -0.0757945
v -0.0209986 0.0407148 -0.0570735
vn -0.261238 0.555022 -0.78975
v -0.0212892 0.0418817 -0.0561128
vn -0.999763 0.0128394 -0.0175981
v -0.0212892 0.0420689 -0.0559668
vn -0.999745 0.0139167 -0.0177952
v -0.0212892 0.0313727 -0.0580049
vn -0.995273 -0.0608674 -0.075681
v -0.0176878 0.0316894 -0.0592673
vn -0.185901 -0.604983 -0.774233
v -0.0176878 0.0308986 -0.0584398
vn -0.141953 -0.736092 -0.661829
v -0.0161069 0.0315319 -0.0594751
vn -0.125473 -0.622119 -0.772803
v -0.0138635 0.0334896 -0.060572
vn -0.0843904 -0.0999609 -0.991406
v -0.0129432 0.0331957 -0.0605882
vn -0.0110987 -0.0258908 -0.999603
v -0.0119901 0.0331764 -0.0605882
vn 0.00187689 -0.0765509 -0.997064
v -0.00692398 0.0335123 -0.0606012
vn 0.0149333 -0.118331 -0.992862
v -0.00587007 0.0336313 -0.0605558
vn 0.114654 -0.607964 -0.785643
v -0.0161069 0.032816 -0.0601955
vn -0.158301 -0.331883 -0.929943
v -0.0144447 0.0329035 -0.0604162
vn -0.118974 -0.152138 -0.981172
v -0.00503896 0.0337905 -0.0605168
vn 0.198365 -0.440185 -0.875721
v -0.00149947 0.0341159 -0.0597347
vn 0.993404 -0.0589449 -0.0983582
v -0.0113643 0.0404944 -0.0592089
vn -0.0542823 0.347508 -0.936105
v -0.0129432 0.0403387 -0.059157
vn -0.069419 0.359746 -0.930464
v -0.014526 0.0401777 -0.0590921
vn -0.0952645 0.399885 -0.911601
v -0.0154928 0.0400238 -0.0590239
vn -0.172412 0.390564 -0.904286
v -0.0129432 0.0391403 -0.0595951
vn -0.0523983 0.316199 -0.947245
v -0.00149947 0.0387362 -0.0601955
vn 0.995852 0.0183968 -0.08911
v -0.00345617 0.0376393 -0.0604357
vn -0.0264886 0.206187 -0.978154
v -0.00820068 0.0375605 -0.0602669
vn -0.0395688 0.2206 -0.974561
v -0.014526 0.0375605 -0.060004
vn -0.0515523 0.26069 -0.964045
v -0.0212892 0.0395829 -0.0576479
vn -0.947036 0.143724 -0.28717
v -0.0165467 0.0397386 -0.0588844
vn -0.23871 0.438918 -0.866238
v -0.0212892 0.0326253 -0.0587935
vn -0.996009 -0.0352866 -0.0819798
v -0.019906 0.0321267 -0.0589396
vn -0.238543 -0.471035 -0.849248
v -0.0188521 0.0318818 -0.0590759
vn -0.228485 -0.564265 -0.793347
v -0.0176878 0.032816 -0.0598515
vn -0.234486 -0.312173 -0.920632
v -0.0138635 0.0337467 -0.060572
vn -0.0323517 0.0659558 -0.997298
v -0.0161069 0.0343975 -0.0604357
vn -0.0988836 -0.00348714 -0.995093
v -0.0129432 0.0338639 -0.0605882
vn -0.00978278 0.00609029 -0.999934
v -0.00648614 0.0342541 -0.0606401
vn -0.00529612 -0.0115408 -0.999919
v -0.00503896 0.0345812 -0.0606466
vn 0.0233574 -0.0327014 -0.999192
v -0.0176878 0.0343975 -0.0602182
vn -0.219518 -0.100433 -0.970425
v -0.0040238 0.0348804 -0.0606109
vn 0.105679 -0.111629 -0.988115
v -0.00149947 0.0360648 -0.0604357
vn 0.986675 -0.0256738 -0.160664
v -0.00149947 0.0356536 -0.0603026
vn 0.99333 -0.0358395 -0.109593
v -0.00149947 0.0343975 -0.0598905
vn 0.993389 -0.039772 -0.107687
v -0.014526 0.0391403 -0.0594848
vn -0.0919649 0.332647 -0.938557
v -0.0161069 0.0375605 -0.0598483
vn -0.130793 0.31106 -0.941347
v -0.0160546 0.0391823 -0.0592446
vn -0.16472 0.349707 -0.922265
v -0.0176878 0.0375605 -0.0595659
vn -0.203692 0.339654 -0.918229
v -0.0176878 0.0386294 -0.0591116
vn -0.219249 0.394137 -0.892517
v -0.00149947 0.0374573 -0.0604552
vn 0.994841 0.0170968 -0.0999974
v -0.014526 0.035979 -0.060361
vn -0.0364142 0.156217 -0.987051
v -0.00248169 0.0368415 -0.060572
vn 0.013891 0.103516 -0.994531
v -0.00345617 0.0368485 -0.0605752
vn -0.00427205 0.129218 -0.991607
v -0.00439964 0.036803 -0.0605687
vn -0.0309922 0.152977 -0.987744
v -0.0161069 0.035979 -0.0602864
vn -0.0875365 0.189451 -0.97798
v -0.0185421 0.0383863 -0.058998
vn -0.243872 0.41103 -0.878397
v -0.0209986 0.0392925 -0.0578653
vn -0.261738 0.393575 -0.881245
v -0.0212892 0.0391998 -0.0578199
vn -0.99993 0.00483171 -0.0108354
v -0.0212892 0.0334388 -0.0590337
vn -0.982073 -0.0426773 -0.183607
v -0.0144447 0.0343223 -0.0605103
vn -0.0326439 0.0844228 -0.995895
v -0.00661982 0.0357306 -0.0606336
vn -0.0226604 0.0667774 -0.997511
v -0.0176878 0.035979 -0.0600852
vn -0.170537 0.192683 -0.966328
v -0.00497115 0.03607 -0.0606336
vn 0.00492141 0.0334049 -0.99943
v -0.00348135 0.0360945 -0.0606012
vn 0.0229884 0.00700558 -0.999711
v -0.00248169 0.0366998 -0.060572
vn 0.0833359 -0.0323104 -0.995998
v -0.0192706 0.0343975 -0.0597866
vn -0.272254 -0.0312038 -0.961719
v -0.0192706 0.035979 -0.059699
vn -0.256634 0.179387 -0.949715
v -0.00149947 0.0370549 -0.0604552
vn 0.99938 -0.000492407 -0.0352093
v -0.0191485 0.037529 -0.0591992
vn -0.247367 0.34887 -0.903936
v -0.019596 0.0380364 -0.0588422
vn -0.261801 0.392306 -0.881791
v -0.0212892 0.0375378 -0.0585599
vn -0.995044 0.0391634 -0.0913941
v -0.0212892 0.0343975 -0.059183
vn -0.998193 -0.00677512 -0.0597032
v -0.0212892 0.0348401 -0.0591927
vn -0.99098 0.00608994 -0.133871
v -0.0212892 0.0357411 -0.0591375
vn -0.997885 0.00615078 -0.0647068
v -0.0212892 0.0359668 -0.0590856
vn -0.99745 0.0183765 -0.0689619
v -0.0212892 0.0363744 -0.0589688
vn -0.991497 0.0374732 -0.12462
v -0.0203496 0.0369815 -0.0590694
vn -0.267404 0.316849 -0.910001
v -0.0212892 0.0367103 -0.0588584
vn -0.999366 0.0118039 -0.033582
f 1//1 2//2 3//3
f 1//1 3//3 4//4
f 1//1 4//4 5//5
f 1//1 5//5 11//11
f 1//1 11//11 10//10
f 1//1 10//10 9//9
f 1//1 9//9 22//22
f 1//1 22//22 33//33
f 1//1 33//33 36//36
f 1//1 36//36 64//64
f 1//1 64//64 87//87
f 1//1 87//87 91//91
f 1//1 91//91 116//116
f 1//1 116//116 115//115
f 1//1 115//115 119//119
f 1//1 119//119 147//147
f 1//1 147//147 146//146
f 1//1 146//146 175//175
f 1//1 175//175 200//200
f 1//1 200//200 199//199
f 1//1 199//199 198//198
f 1//1 198//198 224//224
f 1//1 224//224 206//206
f 1//1 206//206 181//181
f 1//1 181//181 154//154
f 1//1 154//154 126//126
f 1//1 126//126 100//100
f 1//1 100//100 73//73
f 1//1 73//73 95//95
f 1//1 95//95 70//70
f 1//1 70//70 69//69
f 1//1 69//69 43//43
f 1//1 43//43 42//42
f 1//1 42//42 37//37
f 1//1 37//37 24//24
f 1//1 24//24 16//16
f 1//1 16//16 6//6
f 1//1 6//6 18//18
f 1//1 18//18 29//29
f 1//1 29//29 39//39
f 1//1 39//39 66//66
f 1//1 66//66 76//76
f 1//1 76//76 48//48
f 1//1 48//48 30//30
f 1//1 30//30 19//19
f 1//1 19//19 7//7
f 1//1 7//7 2//2
f 2//2 7//7 20//20
f 2//2 20//20 32//32
f 2//2 32//32 59//59
f 2//2 59//59 58//58
f 2//2 58//58 57//57
f 2//2 57//57 56//56
f 2//2 56//56 84//84
f 2//2 84//84 107//107
f 2//2 107//107 138//138
f 2//2 138//138 162//162
f 2//2 162//162 161//161
f 2//2 161//161 159//159
f 2//2 159//159 185//185
f 2//2 185//185 214//214
f 2//2 214//214 227//227
f 2//2 227//227 234//234
f 2//2 234//234 232//232
f 2//2 232//232 231//231
f 2//2 231//231 230//230
f 2//2 230//230 229//229
f 2//2 229//229 228//228
f 2//2 228//228 215//215
f 2//2 215//215 187//187
f 2//2 187//187 163//163
f 2//2 163//163 139//139
f 2//2 139//139 108//108
f 2//2 108//108 85//85
f 2//2 85//85 60//60
f 2//2 60//60 34//34
f 2//2 34//34 21//21
f 2//2 21//21 23//23
f 2//2 23//23 15//15
f 2//2 15//15 14//14
f 2//2 14//14 13//13
f 2//2 13//13 12//12
f 2//2 12//12 8//8
f 2//2 8//8 3//3
f 3//3 8//8 4//4
f 4//4 9//9 10//10
f 4//4 10//10 11//11
f 4//4 11//11 5//5
f 4//4 8//8 12//12
f 4//4 12//12 13//13
f 4//4 13//13 14//14
f 4//4 14//14 15//15
f 4//4 15//15 9//9
f 6//6 16//16 17//17
f 6//6 17//17 18//18
f 7//7 19//19 20//20
f 9//9 21//21 22//22
f 9//9 15//15 23//23
f 9//9 23//23 21//21
f 16//16 24//24 25//25
f 16//16 25//25 17//17
f 17//17 26//26 18//18
f 17//17 25//25 27//27
f 17//17 27//27 28//28
f 17//17 28//28 26//26
f 18//18 26//26 29//29
f 19//19 30//30 31//31
f 19//19 31//31 32//32
f 19//19 32//32 20//20
f 21//21 33//33 22//22
f 21//21 34//34 35//35
f 21//21 35//35 36//36
f 21//21 36//36 33//33
f 24//24 37//37 25//25
f 25//25 37//37 27//27
f 26//26 38//38 39//39
f 26//26 39//39 29//29
f 26//26 28//28 40//40
f 26//26 40//40 41//41
f 26//26 41//41 38//38
f 27//27 37//37 42//42
f 27//27 42//42 43//43
f 27//27 43//43 44//44
f 27//27 44//44 45//45
f 27//27 45//45 28//28
f 28//28 45//45 46//46
f 28//28 46//46 47//47
f 28//28 47//47 40//40
f 30//30 48//48 49//49
f 30//30 49//49 50//50
f 30//30 50//50 31//31
f 31//31 50//50 51//51
f 31//31 51//51 52//52
f 31//31 52//52 53//53
f 31//31 53//53 54//54
f 31//31 54//54 55//55
f 31//31 55//55 56//56
f 31//31 56//56 57//57
f 31//31 57//57 58//58
f 31//31 58//58 59//59
f 31//31 59//59 32//32
f 34//34 60//60 61//61
f 34//34 61//61 62//62
f 34//34 62//62 63//63
f 34//34 63//63 35//35
f 35//35 63//63 36//36
f 36//36 63//63 65//65
f 36//36 65//65 64//64
f 38//38 41//41 39//39
f 39//39 41//41 66//66
f 40//40 47//47 67//67
f 40//40 67//67 41//41
f 41//41 68//68 66//66
f 41//41 67//67 68//68
f 43//43 69//69 44//44
f 44//44 69//69 70//70
f 44//44 70//70 46//46
f 44//44 46//46 45//45
f 46//46 71//71 47//47
f 46//46 70//70 72//72
f 46//46 72//72 73//73
f 46//46 73//73 74//74
f 46//46 74//74 75//75
f 46//46 75//75 71//71
f 47//47 71//71 67//67
f 48//48 76//76 77//77
f 48//48 77//77 49//49
f 49//49 77//77 78//78
f 49//49 78//78 51//51
f 49//49 51//51 50//50
f 51//51 78//78 79//79
f 51//51 79//79 52//52
f 52//52 79//79 80//80
f 52//52 80//80 53//53
f 53//53 80//80 81//81
f 53//53 81//81 82//82
f 53//53 82//82 55//55
f 53//53 55//55 54//54
f 55//55 82//82 83//83
f 55//55 83//83 107//107
f 55//55 107//107 84//84
f 55//55 84//84 56//56
f 60//60 85//85 61//61
f 61//61 85//85 86//86
f 61//61 86//86 62//62
f 62//62 86//86 65//65
f 62//62 65//65 63//63
f 64//64 65//65 87//87
f 65//65 86//86 88//88
f 65//65 88//88 89//89
f 65//65 89//89 90//90
f 65//65 90//90 91//91
f 65//65 91//91 87//87
f 66//66 68//68 76//76
f 67//67 71//71 92//92
f 67//67 92//92 68//68
f 68//68 92//92 93//93
f 68//68 93//93 94//94
f 68//68 94//94 76//76
f 70//70 95//95 72//72
f 71//71 96//96 92//92
f 71//71 75//75 97//97
f 71//71 97//97 98//98
f 71//71 98//98 96//96
f 72//72 95//95 73//73
f 73//73 99//99 74//74
f 73//73 100//100 99//99
f 74//74 99//99 75//75
f 75//75 99//99 101//101
f 75//75 101//101 97//97
f 76//76 94//94 93//93
f 76//76 93//93 77//77
f 77//77 93//93 78//78
f 78//78 93//93 102//102
f 78//78 102//102 79//79
f 79//79 102//102 103//103
f 79//79 103//103 104//104
f 79//79 104//104 80//80
f 80//80 104//104 105//105
f 80//80 105//105 81//81
f 81//81 106//106 83//83
f 81//81 83//83 82//82
f 81//81 105//105 106//106
f 83//83 106//106 107//107
f 85//85 108//108 109//109
f 85//85 109//109 110//110
f 85//85 110//110 86//86
f 86//86 110//110 111//111
f 86//86 111//111 88//88
f 88//88 111//111 112//112
f 88//88 112//112 89//89
f 89//89 112//112 113//113
f 89//89 113//113 114//114
f 89//89 114//114 90//90
f 90//90 115//115 116//116
f 90//90 116//116 91//91
f 90//90 114//114 117//117
f 90//90 117//117 118//118
f 90//90 118//118 119//119
f 90//90 119//119 115//115
f 92//92 102//102 93//93
f 92//92 96//96 102//102
f 96//96 98//98 120//120
f 96//96 120//120 121//121
f 96//96 121//121 102//102
f 97//97 101//101 122//122
f 97//97 122//122 98//98
f 98//98 122//122 123//123
f 98//98 123//123 120//120
f 99//99 100//100 124//124
f 99//99 124//124 125//125
f 99//99 125//125 101//101
f 100//100 126//126 127//127
f 100//100 127//127 124//124
f 101//101 128//128 122//122
f 101//101 125//125 128//128
f 102//102 121//121 103//103
f 103//103 121//121 129//129
f 103//103 129//129 130//130
f 103//103 130//130 104//104
f 104//104 130//130 131//131
f 104//104 131//131 132//132
f 104//104 132//132 105//105
f 105//105 132//132 133//133
f 105//105 133//133 134//134
f 105//105 134//134 135//135
f 105//105 135//135 136//136
f 105//105 136//136 106//106
f 106//106 136//136 135//135
f 106//106 135//135 137//137
f 106//106 137//137 138//138
f 106//106 138//138 107//107
f 108//108 139//139 140//140
f 108//108 140//140 110//110
f 108//108 110//110 109//109
f 110//110 140//140 141//141
f 110//110 141//141 111//111
f 111//111 141//141 112//112
f 112//112 141//141 113//113
f 113//113 142//142 143//143
f 113//113 143//143 144//144
f 113//113 144//144 114//114
f 113//113 141//141 142//142
f 114//114 144//144 145//145
f 114//114 145//145 117//117
f 117//117 145//145 146//146
f 117//117 146//146 147//147
f 117//117 147//147 119//119
f 117//117 119//119 118//118
f 120//120 129//129 121//121
f 120//120 123//123 148//148
f 120//120 148//148 129//129
f 122//122 128//128 125//125
f 122//122 125//125 149//149
f 122//122 149//149 150//150
f 122//122 150//150 123//123
f 123//123 150//150 151//151
f 123//123 151//151 152//152
f 123//123 152//152 148//148
f 124//124 127//127 153//153
f 124//124 153//153 125//125
f 125//125 153//153 149//149
f 126//126 154//154 155//155
f 126//126 155//155 127//127
f 127//127 155//155 156//156
f 127//127 156//156 153//153
f 129//129 148//148 152//152
f 129//129 152//152 131//131
f 129//129 131//131 130//130
f 131//131 152//152 132//132
f 132//132 157//157 133//133
f 132//132 152//152 158//158
f 132//132 158//158 157//157
f 133//133 157//157 159//159
f 133//133 159//159 134//134
f 134//134 159//159 160//160
f 134//134 160//160 135//135
f 135//135 161//161 162//162
f 135//135 162//162 138//138
f 135//135 138//138 137//137
f 135//135 160//160 159//159
f 135//135 159//159 161//161
f 139//139 163//163 164//164
f 139//139 164//164 165//165
f 139//139 165//165 140//140
f 140//140 165//165 141//141
f 141//141 165//165 166//166
f 141//141 166//166 142//142
f 142//142 166//166 143//143
f 143//143 167//167 168//168
f 143//143 168//168 169//169
f 143//143 169//169 170//170
f 143//143 170//170 171//171
f 143//143 171//171 144//144
f 143//143 166//166 172//172
f 143//143 172//172 173//173
f 143//143 173//173 167//167
f 144//144 171//171 145//145
f 145//145 171//171 174//174
f 145//145 174//174 146//146
f 146//146 174//174 175//175
f 149//149 153//153 176//176
f 149//149 176//176 150//150
f 150//150 176//176 177//177
f 150//150 177//177 178//178
f 150//150 178//178 151//151
f 151//151 178//178 152//152
f 152//152 178//178 179//179
f 152//152 179//179 158//158
f 153//153 156//156 180//180
f 153//153 180//180 176//176
f 154//154 181//181 155//155
f 155//155 181//181 182//182
f 155//155 182//182 156//156
f 156//156 182//182 183//183
f 156//156 183//183 184//184
f 156//156 184//184 180//180
f 157//157 185//185 159//159
f 157//157 158//158 186//186
f 157//157 186//186 185//185
f 158//158 179//179 186//186
f 163//163 187//187 188//188
f 163//163 188//188 189//189
f 163//163 189//189 164//164
f 164//164 189//189 188//188
f 164//164 188//188 190//190
f 164//164 190//190 172//172
f 164//164 172//172 166//166
f 164//164 166//166 165//165
f 167//167 191//191 193//193
f 167//167 193//193 168//168
f 167//167 173//173 192//192
f 167//167 192//192 191//191
f 168//168 193//193 194//194
f 168//168 194//194 169//169
f 169//169 194//194 170//170
f 170//170 194//194 195//195
f 170//170 195//195 171//171
f 171//171 195//195 174//174
f 172//172 196//196 192//192
f 172//172 192//192 173//173
f 172//172 190//190 196//196
f 174//174 195//195 197//197
f 174//174 197//197 198//198
f 174//174 198//198 199//199
f 174//174 199//199 200//200
f 174//174 200//200 175//175
f 176//176 180//180 177//177
f 177//177 180//180 201//201
f 177//177 201//201 178//178
f 178//178 201//201 179//179
f 179//179 201//201 202//202
f 179//179 202//202 203//203
f 179//179 203//203 204//204
f 179//179 204//204 205//205
f 179//179 205//205 186//186
f 180//180 184//184 201//201
f 181//181 206//206 182//182
f 182//182 207//207 183//183
f 182//182 206//206 208//208
f 182//182 208//208 209//209
f 182//182 209//209 210//210
f 182//182 210//210 207//207
f 183//183 207//207 184//184
f 184//184 202//202 201//201
f 184//184 207//207 211//211
f 184//184 211//211 202//202
f 185//185 186//186 212//212
f 185//185 212//212 213//213
f 185//185 213//213 214//214
f 186//186 205//205 212//212
f 187//187 215//215 190//190
f 187//187 190//190 188//188
f 190//190 215//215 196//196
f 191//191 216//216 217//217
f 191//191 217//217 193//193
f 191//191 192//192 216//216
f 192//192 196//196 218//218
f 192//192 218//218 211//211
f 192//192 211//211 207//207
f 192//192 207//207 216//216
f 193//193 217//217 194//194
f 194//194 217//217 195//195
f 195//195 217//217 219//219
f 195//195 219//219 220//220
f 195//195 220//220 221//221
f 195//195 221//221 197//197
f 196//196 215//215 222//222
f 196//196 222//222 223//223
f 196//196 223//223 218//218
f 197//197 221//221 198//198
f 198//198 221//221 224//224
f 202//202 204//204 203//203
f 202//202 211//211 218//218
f 202//202 218//218 204//204
f 204//204 218//218 223//223
f 204//204 223//223 225//225
f 204//204 225//225 212//212
f 204//204 212//212 205//205
f 206//206 224//224 221//221
f 206//206 221//221 208//208
f 207//207 210//210 217//217
f 207//207 217//217 216//216
f 208//208 221//221 220//220
f 208//208 220//220 219//219
f 208//208 219//219 209//209
f 209//209 219//219 210//210
f 210//210 219//219 217//217
f 212//212 226//226 213//213
f 212//212 225//225 226//226
f 213//213 226//226 227//227
f 213//213 227//227 214//214
f 215//215 228//228 222//222
f 222//222 228//228 229//229
f 222//222 229//229 223//223
f 223//223 229//229 230//230
f 223//223 230//230 231//231
f 223//223 231//231 232//232
f 223//223 232//232 233//233
f 223//223 233//233 225//225
f 225//225 233//233 227//227
f 225//225 227//227 226//226
f 227//227 233//233 234//234
f 232//232 234//234 233//233
