# Created by Open3D 
# object name: part_024
# number of vertices: 131
# number of triangles: 258
v 0.0761028 0.00637949 0.0140976
vn 0.291487 0.478063 0.828548
v 0.0780505 -0.00248073 0.00925109
vn 0.98141 0.135639 0.13578
v 0.0780991 -0.0021659 0.00823163
vn 0.987308 0.153525 0.0406621
v 0.0779521 -0.00137562 0.00823163
vn 0.976258 0.215534 0.0215722
v 0.0775347 0.00118158 0.000326748
vn 0.972422 0.233029 0.00964729
v 0.0764151 0.00514908 0.00264733
vn 0.957327 0.288868 -0.00900252
v 0.0759216 0.00637949 -0.004418
vn 0.954689 0.296851 -0.0211774
v 0.0652537 0.00637949 0.0140976
vn -0.879879 0.283222 0.381573
v 0.0785729 -0.0114662 0.0140976
vn 0.980681 0.128842 0.147191
v 0.0782881 -0.00356015 0.00823163
vn 0.995908 0.0888438 0.0165782
v 0.0778353 -0.000398999 -0.00125605
vn 0.991244 0.131786 -0.00826855
v 0.0779731 -0.0013467 0.00665066
vn 0.983412 0.181269 0.00655106
v 0.0775268 0.00118158 -0.00125605
vn 0.962724 0.269262 -0.0257025
v 0.075919 0.00637949 -0.00445435
vn 0.887379 0.455514 -0.0711778
v 0.0680519 0.00637949 -0.00446707
vn -0.803954 0.447426 -0.391749
v 0.0673038 -0.0209561 0.0140976
vn -0.915132 -0.0709597 0.396861
v 0.078649 -0.0125874 0.0140976
vn 0.78605 0.0140335 0.618004
v 0.0786621 -0.0114662 0.0129764
vn 0.999545 0.0222123 -0.0204021
v 0.0783629 -0.00514394 0.00823163
vn 0.999118 0.0404028 -0.0114452
v 0.078334 -0.00514394 0.00665066
vn 0.999161 0.03177 -0.0258334
v 0.0780098 -0.00257069 -0.00225915
vn 0.998617 0.0452954 -0.0267051
v 0.0777998 -0.000398999 -0.00283702
vn 0.982521 0.169605 -0.0767196
v 0.0774126 0.00118158 -0.00283702
vn 0.964849 0.245143 -0.0947121
v 0.0759177 0.00637949 -0.00446707
vn 0.0553638 0.960693 -0.272035
v 0.0681779 0.00589761 -0.00446707
vn -0.870606 -0.253936 -0.42138
v 0.0674941 -0.0225142 0.0140976
vn -0.951192 -0.251548 -0.178766
v 0.0786438 -0.0130468 0.0140976
vn 0.296597 -0.0162561 0.954864
v 0.0786477 -0.0130468 0.0129764
vn 0.995951 -0.0594527 -0.0674318
v 0.0780098 -0.00309433 -0.00225915
vn 0.997469 -0.0288029 -0.0650111
v 0.0779376 -0.00201813 -0.00280613
vn 0.988931 0.0345582 -0.144295
v 0.0775964 -0.000398999 -0.004418
vn 0.982609 0.120079 -0.141636
v 0.0772158 0.00118158 -0.004418
vn 0.963751 0.23748 -0.121602
v 0.0772079 0.00118158 -0.00446707
vn 0.00768417 0.00188582 -0.999969
v 0.0699222 -3.27672e-05 -0.00446707
vn -0.861361 -0.262517 -0.434904
v 0.0679338 -0.0239984 0.0140976
vn -0.849368 -0.381016 -0.365241
v 0.0785624 -0.014168 0.0140976
vn 0.245168 -0.0238203 0.969188
v 0.0779915 -0.0106792 0.0026964
vn 0.960542 -0.222777 -0.166522
v 0.0780308 -0.00988888 0.00243472
vn 0.994354 -0.0629889 -0.0854015
v 0.0782028 -0.00830509 0.0034887
vn 0.996276 -0.0469017 -0.0723497
v 0.0784902 -0.0146274 0.0140976
vn 0.338137 -0.0614636 0.939088
v 0.0783983 -0.0146274 0.0129764
vn 0.975479 -0.19177 -0.108001
v 0.0779114 -0.0035987 -0.00280613
vn 0.978627 -0.101686 -0.178745
v 0.0776646 -0.00197958 -0.004418
vn 0.979751 -0.0274415 -0.198331
v 0.0775846 -0.000398999 -0.00446707
vn 0.00531941 0.000251784 -0.999986
v 0.0775767 -0.000350811 -0.00446707
vn 0.00618791 0.00147472 -0.99998
v 0.0776515 -0.00193139 -0.00446707
vn 0.0105687 0.000443191 -0.999944
v 0.070232 -0.000800568 -0.00446707
vn -0.770862 -0.329985 -0.544869
v 0.0730578 -0.00776538 -0.00382559
vn -0.629293 -0.463517 -0.623813
v 0.0683118 -0.0245638 0.0140976
vn -0.716024 -0.483731 0.503303
v 0.070757 -0.00198279 -0.00446707
vn -0.754055 -0.340362 -0.561743
v 0.0714355 -0.00346699 -0.00446707
vn -0.737253 -0.35219 -0.576559
v 0.0775872 -0.0113088 0.00206401
vn 0.888209 -0.373998 -0.266852
v 0.0774415 -0.00988888 0.000326748
vn 0.891432 -0.290686 -0.347636
v 0.0776765 -0.00514394 -0.00283702
vn 0.932603 -0.218733 -0.287069
v 0.07804 -0.0155462 0.0118751
vn 0.94109 -0.300418 -0.155238
v 0.0773496 -0.0146274 0.00665066
vn 0.914297 -0.353791 -0.197214
v 0.0782658 -0.0155912 0.0140976
vn 0.387344 -0.0985757 0.91665
v 0.077494 -0.00356015 -0.004418
vn 0.951228 -0.145766 -0.271877
v 0.0774835 -0.00351518 -0.00446707
vn 0.00928881 -0.00101816 -0.999956
v 0.0776489 -0.00197958 -0.00446707
vn 0.00467307 -0.000495692 -0.999989
v 0.0729449 -0.00652534 -0.00446707
vn -0.132121 -0.0915186 -0.987
v 0.0740369 -0.00722246 -0.00446707
vn -0.030487 -0.078629 -0.996438
v 0.0740369 -0.00789389 -0.00392735
vn 0.0420298 -0.629665 -0.775729
v 0.0740369 -0.00868417 -0.00327861
vn -0.130972 -0.644331 -0.753448
v 0.073109 -0.0171011 0.00419015
vn -0.16412 -0.650642 -0.741437
v 0.0714237 -0.0219167 0.00885494
vn -0.391079 -0.612897 -0.686596
v 0.0703698 -0.0212774 0.00932741
vn -0.626666 -0.479491 -0.614311
v 0.068657 -0.0247245 0.013865
vn -0.620403 -0.494764 -0.60853
v 0.0692187 -0.0257011 0.0140976
vn -0.117097 -0.0949834 0.988568
v 0.0768128 -0.0127898 0.00190772
vn 0.848657 -0.425009 -0.314879
v 0.076822 -0.0114919 0.00031221
vn 0.85693 -0.375059 -0.353556
v 0.0765923 -0.0157486 0.00543857
vn 0.862587 -0.424351 -0.275447
v 0.076574 -0.0109844 -0.000689076
vn 0.682569 -0.469717 -0.559879
v 0.0769743 -0.00534633 -0.00446707
vn 0.775357 -0.290369 -0.560809
v 0.0770045 -0.00525959 -0.00446707
vn 0.484852 -0.148206 -0.861947
v 0.0773024 -0.00418339 -0.00446707
vn 0.129516 -0.035838 -0.990929
v 0.0781805 -0.0159124 0.0140976
vn 0.245201 -0.0762991 0.966465
v 0.0780938 -0.0161437 0.0140976
vn 0.311961 -0.118367 0.942693
v 0.0778077 -0.016526 0.0129764
vn 0.912623 -0.385485 -0.136094
v 0.077708 -0.0161277 0.0113663
vn 0.901253 -0.400895 -0.164397
v 0.0773706 -0.0162112 0.00981261
vn 0.895479 -0.406134 -0.182133
v 0.0770373 -0.0162112 0.00823163
vn 0.885454 -0.423284 -0.191841
v 0.0766986 -0.0162497 0.00679603
vn 0.863346 -0.457103 -0.213755
v 0.077473 -0.00356015 -0.00446707
vn 0.00404278 -0.00109584 -0.999991
v 0.0743808 -0.007155 -0.00446707
vn 0.0330179 -0.158905 -0.986742
v 0.0756185 -0.0112735 -0.000941669
vn 0.19494 -0.622687 -0.757799
v 0.0740369 -0.00959654 -0.00248812
vn 0.0106021 -0.66349 -0.74811
v 0.0734922 -0.0171011 0.00419015
vn 0.121698 -0.690088 -0.71342
v 0.0719723 -0.0219167 0.00885494
vn 0.251925 -0.721558 -0.644894
v 0.0715825 -0.0233752 0.0105395
vn -0.00755065 -0.756731 -0.653682
v 0.0708764 -0.02644 0.0140976
vn -0.0161356 -0.171356 0.985077
v 0.0692319 -0.0257171 0.0140976
vn -0.188903 -0.276107 0.94238
v 0.0765621 -0.0124429 0.000831933
vn 0.568393 -0.634091 -0.524269
v 0.0762327 -0.0168023 0.00636535
vn 0.72658 -0.589848 -0.352365
v 0.0763325 -0.0153342 0.00438641
vn 0.669027 -0.602664 -0.43497
v 0.0756185 -0.0120638 -0.000254761
vn 0.197296 -0.684801 -0.701514
v 0.0757943 -0.00682732 -0.00446707
vn 0.337077 -0.5395 -0.771569
v 0.0758127 -0.00681447 -0.00446707
vn 0.120408 -0.154275 -0.980664
v 0.0765805 -0.00621372 -0.00446707
vn 0.161456 -0.133508 -0.977808
v 0.0769205 -0.00547483 -0.00446707
vn 0.223275 -0.101354 -0.969472
v 0.0778786 -0.0167027 0.0140976
vn 0.100959 -0.0411434 0.994039
v 0.0775728 -0.0174223 0.0140976
vn 0.206748 -0.0910361 0.97415
v 0.077242 -0.0177918 0.0129764
vn 0.893473 -0.418623 -0.162668
v 0.0761343 -0.0205449 0.0140976
vn 0.725758 -0.360165 0.586137
v 0.0759531 -0.0208919 0.0140976
vn 0.488202 -0.256322 0.834241
v 0.0753415 -0.0220548 0.0140976
vn 0.483705 -0.257197 0.836588
v 0.0751486 -0.022405 0.0140976
vn 0.640003 -0.390554 0.661713
v 0.075772 -0.00683696 -0.00446707
vn 0.0279047 -0.109545 -0.99359
v 0.0752483 -0.0077686 -0.00382922
vn 0.141474 -0.618867 -0.772651
v 0.0745462 -0.016873 0.00442638
vn 0.394997 -0.697802 -0.597537
v 0.0730263 -0.0216019 0.00918385
vn 0.447917 -0.70349 -0.55179
v 0.0723923 -0.0224982 0.00986167
vn 0.41127 -0.722347 -0.555943
v 0.0717584 -0.0233752 0.0105395
vn 0.301132 -0.752257 -0.586028
v 0.0720773 -0.0253059 0.0133398
vn 0.404097 -0.737059 -0.54171
v 0.072416 -0.025624 0.0140976
vn 0.0705114 -0.107509 0.991701
v 0.0757563 -0.0163108 0.00493157
vn 0.620809 -0.633353 -0.462018
v 0.0751788 -0.0172617 0.00547855
vn 0.558088 -0.667375 -0.493101
v 0.0750186 -0.0220355 0.0129764
vn 0.808273 -0.524816 -0.26695
v 0.0746813 -0.0231246 0.0140976
vn 0.297629 -0.216905 0.929715
v 0.0744438 -0.0228258 0.0129764
vn 0.726573 -0.596801 -0.340469
v 0.0736523 -0.0237382 0.0129764
vn 0.699797 -0.61565 -0.362298
v 0.0733951 -0.0234459 0.0120096
vn 0.621908 -0.651666 -0.434238
v 0.0774074 -0.0177918 0.0140976
vn 0.0924287 -0.0417909 0.994842
v 0.0768785 -0.0189579 0.0140976
vn 0.0905792 -0.0418858 0.995008
v 0.0735513 -0.0220291 0.0102397
vn 0.504159 -0.69165 -0.51715
v 0.072811 -0.0230828 0.0109556
vn 0.466738 -0.710955 -0.526021
v 0.072563 -0.0255019 0.0140976
vn 0.0722044 -0.0761753 0.994477
v 0.0741813 -0.0237221 0.0140976
vn 0.0485623 -0.0410718 0.997975
v 0.073945 -0.0239952 0.0140976
vn 0.085185 -0.0742816 0.993592
v 0.0731798 -0.0248658 0.0140976
vn 0.0461689 -0.0409135 0.998095
v 0.0729515 -0.0251164 0.0140976
vn 0.126637 -0.12317 0.984272
f 1//1 2//2 3//3
f 1//1 3//3 4//4
f 1//1 4//4 5//5
f 1//1 5//5 6//6
f 1//1 6//6 7//7
f 1//1 7//7 14//14
f 1//1 14//14 24//24
f 1//1 24//24 15//15
f 1//1 15//15 8//8
f 1//1 8//8 16//16
f 1//1 16//16 26//26
f 1//1 26//26 35//35
f 1//1 35//35 49//49
f 1//1 49//49 69//69
f 1//1 69//69 92//92
f 1//1 92//92 91//91
f 1//1 91//91 115//115
f 1//1 115//115 127//127
f 1//1 127//127 131//131
f 1//1 131//131 130//130
f 1//1 130//130 129//129
f 1//1 129//129 128//128
f 1//1 128//128 119//119
f 1//1 119//119 107//107
f 1//1 107//107 106//106
f 1//1 106//106 105//105
f 1//1 105//105 104//104
f 1//1 104//104 124//124
f 1//1 124//124 123//123
f 1//1 123//123 102//102
f 1//1 102//102 101//101
f 1//1 101//101 78//78
f 1//1 78//78 77//77
f 1//1 77//77 57//57
f 1//1 57//57 40//40
f 1//1 40//40 36//36
f 1//1 36//36 27//27
f 1//1 27//27 17//17
f 1//1 17//17 9//9
f 1//1 9//9 2//2
f 2//2 10//10 3//3
f 2//2 9//9 10//10
f 3//3 10//10 11//11
f 3//3 11//11 12//12
f 3//3 12//12 4//4
f 4//4 12//12 5//5
f 5//5 12//12 11//11
f 5//5 11//11 13//13
f 5//5 13//13 6//6
f 6//6 13//13 7//7
f 7//7 13//13 23//23
f 7//7 23//23 14//14
f 8//8 15//15 16//16
f 9//9 17//17 18//18
f 9//9 18//18 10//10
f 10//10 19//19 20//20
f 10//10 20//20 21//21
f 10//10 21//21 11//11
f 10//10 18//18 19//19
f 11//11 22//22 13//13
f 11//11 21//21 22//22
f 13//13 22//22 23//23
f 14//14 23//23 24//24
f 15//15 24//24 33//33
f 15//15 33//33 45//45
f 15//15 45//45 44//44
f 15//15 44//44 46//46
f 15//15 46//46 60//60
f 15//15 60//60 59//59
f 15//15 59//59 84//84
f 15//15 84//84 76//76
f 15//15 76//76 75//75
f 15//15 75//75 74//74
f 15//15 74//74 100//100
f 15//15 100//100 99//99
f 15//15 99//99 98//98
f 15//15 98//98 97//97
f 15//15 97//97 108//108
f 15//15 108//108 85//85
f 15//15 85//85 62//62
f 15//15 62//62 61//61
f 15//15 61//61 51//51
f 15//15 51//51 50//50
f 15//15 50//50 47//47
f 15//15 47//47 34//34
f 15//15 34//34 25//25
f 15//15 25//25 26//26
f 15//15 26//26 16//16
f 17//17 27//27 28//28
f 17//17 28//28 18//18
f 18//18 28//28 29//29
f 18//18 29//29 21//21
f 18//18 21//21 20//20
f 18//18 20//20 19//19
f 21//21 29//29 30//30
f 21//21 30//30 22//22
f 22//22 31//31 32//32
f 22//22 32//32 23//23
f 22//22 30//30 31//31
f 23//23 32//32 24//24
f 24//24 32//32 33//33
f 25//25 34//34 26//26
f 26//26 34//34 35//35
f 27//27 36//36 28//28
f 28//28 37//37 38//38
f 28//28 38//38 39//39
f 28//28 39//39 29//29
f 28//28 36//36 40//40
f 28//28 40//40 41//41
f 28//28 41//41 37//37
f 29//29 42//42 30//30
f 29//29 39//39 38//38
f 29//29 38//38 42//42
f 30//30 42//42 43//43
f 30//30 43//43 31//31
f 31//31 44//44 45//45
f 31//31 45//45 33//33
f 31//31 33//33 32//32
f 31//31 43//43 46//46
f 31//31 46//46 44//44
f 34//34 47//47 35//35
f 35//35 48//48 49//49
f 35//35 47//47 50//50
f 35//35 50//50 51//51
f 35//35 51//51 48//48
f 37//37 52//52 53//53
f 37//37 53//53 54//54
f 37//37 54//54 42//42
f 37//37 42//42 38//38
f 37//37 41//41 55//55
f 37//37 55//55 56//56
f 37//37 56//56 52//52
f 40//40 57//57 41//41
f 41//41 57//57 55//55
f 42//42 58//58 43//43
f 42//42 54//54 58//58
f 43//43 58//58 59//59
f 43//43 59//59 60//60
f 43//43 60//60 46//46
f 48//48 61//61 62//62
f 48//48 62//62 63//63
f 48//48 63//63 64//64
f 48//48 64//64 65//65
f 48//48 65//65 66//66
f 48//48 66//66 67//67
f 48//48 67//67 49//49
f 48//48 51//51 61//61
f 49//49 68//68 69//69
f 49//49 67//67 68//68
f 52//52 70//70 71//71
f 52//52 71//71 53//53
f 52//52 56//56 72//72
f 52//52 72//72 70//70
f 53//53 71//71 73//73
f 53//53 73//73 74//74
f 53//53 74//74 75//75
f 53//53 75//75 54//54
f 54//54 75//75 76//76
f 54//54 76//76 58//58
f 55//55 57//57 77//77
f 55//55 77//77 78//78
f 55//55 78//78 79//79
f 55//55 79//79 80//80
f 55//55 80//80 81//81
f 55//55 81//81 56//56
f 56//56 81//81 82//82
f 56//56 82//82 83//83
f 56//56 83//83 72//72
f 58//58 76//76 84//84
f 58//58 84//84 59//59
f 62//62 85//85 63//63
f 63//63 85//85 86//86
f 63//63 86//86 64//64
f 64//64 86//86 87//87
f 64//64 87//87 65//65
f 65//65 88//88 89//89
f 65//65 89//89 66//66
f 65//65 87//87 88//88
f 66//66 89//89 113//113
f 66//66 113//113 90//90
f 66//66 90//90 91//91
f 66//66 91//91 92//92
f 66//66 92//92 67//67
f 67//67 92//92 69//69
f 67//67 69//69 68//68
f 70//70 93//93 71//71
f 70//70 72//72 93//93
f 71//71 93//93 73//73
f 72//72 83//83 94//94
f 72//72 94//94 95//95
f 72//72 95//95 93//93
f 73//73 93//93 96//96
f 73//73 96//96 86//86
f 73//73 86//86 97//97
f 73//73 97//97 98//98
f 73//73 98//98 99//99
f 73//73 99//99 100//100
f 73//73 100//100 74//74
f 78//78 101//101 79//79
f 79//79 101//101 102//102
f 79//79 102//102 103//103
f 79//79 103//103 80//80
f 80//80 103//103 81//81
f 81//81 103//103 104//104
f 81//81 104//104 82//82
f 82//82 104//104 83//83
f 83//83 104//104 105//105
f 83//83 105//105 106//106
f 83//83 106//106 107//107
f 83//83 107//107 94//94
f 85//85 108//108 109//109
f 85//85 109//109 86//86
f 86//86 96//96 87//87
f 86//86 109//109 108//108
f 86//86 108//108 97//97
f 87//87 96//96 88//88
f 88//88 96//96 110//110
f 88//88 110//110 89//89
f 89//89 110//110 111//111
f 89//89 111//111 112//112
f 89//89 112//112 113//113
f 90//90 113//113 91//91
f 91//91 113//113 114//114
f 91//91 114//114 115//115
f 93//93 95//95 116//116
f 93//93 116//116 117//117
f 93//93 117//117 110//110
f 93//93 110//110 96//96
f 94//94 117//117 116//116
f 94//94 116//116 95//95
f 94//94 107//107 118//118
f 94//94 118//118 119//119
f 94//94 119//119 120//120
f 94//94 120//120 121//121
f 94//94 121//121 122//122
f 94//94 122//122 117//117
f 102//102 123//123 103//103
f 103//103 123//123 124//124
f 103//103 124//124 104//104
f 107//107 119//119 118//118
f 110//110 117//117 111//111
f 111//111 125//125 126//126
f 111//111 126//126 112//112
f 111//111 117//117 125//125
f 112//112 126//126 114//114
f 112//112 114//114 113//113
f 114//114 126//126 115//115
f 115//115 126//126 122//122
f 115//115 122//122 127//127
f 117//117 122//122 125//125
f 119//119 128//128 120//120
f 120//120 128//128 129//129
f 120//120 129//129 121//121
f 121//121 129//129 130//130
f 121//121 130//130 131//131
f 121//121 131//131 122//122
f 122//122 131//131 127//127
f 122//122 126//126 125//125
