# Created by Open3D 
# object name: part_045
# number of vertices: 231
# number of triangles: 458
v -0.0066188 -0.00514279 0.0823057
vn 0.0393788 0.000912583 0.999224
v -0.0066188 -0.00356002 0.0822689
vn 0.0727032 0.0442873 0.99637
v -0.00820182 -0.00356002 0.0822862
vn -0.0142045 0.0319733 0.999388
v -0.00820182 -0.00514279 0.0823013
vn -0.0336963 -0.0195873 0.99924
v -0.0066188 -0.00672299 0.0822646
vn 0.028585 -0.0698815 0.997146
v -0.00503772 -0.00672299 0.0821716
vn 0.0769705 -0.0177409 0.996876
v -0.00503772 -0.00514279 0.0821694
vn 0.0935493 0.0147741 0.995505
v -0.00131128 -0.00458008 0.0817888
vn 0.999936 0.000371066 0.0113335
v -0.00131128 -0.00426918 0.081778
vn 0.11785 0.0819077 0.989648
v -0.0066188 -0.00197982 0.0821759
vn 0.0811796 0.0639285 0.994647
v -0.0097829 -0.00356002 0.0822148
vn -0.0729749 0.0327149 0.996797
v -0.00820182 -0.00197982 0.0821932
vn -0.0171404 0.066272 0.997654
v -0.0097829 -0.00514279 0.082204
vn -0.0941839 -0.0371891 0.99486
v -0.00820182 -0.00672299 0.0822192
vn -0.0532989 -0.078054 0.995523
v -0.0066188 -0.00830576 0.0821218
vn -0.0176945 -0.116319 0.993054
v -0.00131128 -0.0140664 0.0814795
vn 0.0746452 -0.0903864 0.993105
v -0.00131128 -0.0130515 0.0815703
vn 0.12211 -0.0828408 0.989053
v -0.00131128 -0.0114328 0.0817001
vn 0.119118 -0.0752156 0.990027
v -0.00131128 -0.010518 0.0817628
vn 0.115454 -0.0658959 0.991125
v -0.00131128 -0.00980631 0.0818082
vn 0.0944088 -0.0397985 0.994738
v -0.00131128 -0.00833402 0.0818342
vn 0.100994 -0.00322964 0.994882
v -0.00131128 -0.00672299 0.0818255
vn 0.100431 0.00789252 0.994913
v -0.00131128 -0.00588022 0.0818147
vn 0.0995697 0.0136153 0.994937
v -0.00131128 -0.00514279 0.0818039
vn 0.0986257 0.0198592 0.994926
v -0.00131128 -0.00197982 0.0815184
vn 0.145859 0.112068 0.982937
v -0.00519371 -0.000152953 0.0818601
vn 0.00390741 0.999596 0.028161
v -0.00639734 -0.000152953 0.0820159
vn 0.125264 0.0995144 0.98712
v -0.0066188 -0.000397049 0.0820656
vn 0.0728234 0.0752677 0.994501
v -0.0113621 -0.00356002 0.0820332
vn -0.13154 0.0298022 0.990863
v -0.0097829 -0.00197982 0.0821024
vn -0.0930552 0.0860317 0.991937
v -0.00820182 -0.000397049 0.0820764
vn -0.050047 0.0897494 0.994706
v -0.0113621 -0.00514279 0.0820072
vn -0.146644 -0.0469575 0.988074
v -0.0097829 -0.00672299 0.0820916
vn -0.104968 -0.0898485 0.990408
v -0.00820182 -0.00830576 0.082057
vn -0.0623757 -0.123263 0.990412
v -0.0066188 -0.0146291 0.0813108
vn -0.0561803 -0.137573 0.988897
v -0.00503772 -0.0146291 0.0813627
vn -0.0256427 -0.128322 0.991401
v -0.00187554 -0.0162119 0.0812286
vn -0.0184429 -0.124976 0.991988
v -0.00187554 -0.0146291 0.0814211
vn -0.0116644 -0.119286 0.992791
v -0.00131128 -0.0146291 0.0814254
vn 0.168559 -0.106181 0.979956
v -0.00131128 -0.000152953 0.0813087
vn 0.750709 0.65727 0.0665799
v -0.00662651 -0.000152953 0.0820375
vn 0.0145053 0.592955 0.805105
v -0.00819796 -0.000152953 0.0820483
vn -0.0192026 0.702998 0.710932
v -0.0114545 -0.00190787 0.0819034
vn -0.122911 0.0953274 0.987829
v -0.0123423 -0.00238579 0.0818126
vn -0.195074 0.0617634 0.978842
v -0.0124521 -0.00356002 0.0818364
vn -0.193196 -0.00248111 0.981157
v -0.0097675 -0.000152953 0.0818991
vn -0.110234 0.28372 0.95255
v -0.012377 -0.00514279 0.0818212
vn -0.1948 -0.0388045 0.980075
v -0.0122402 -0.00614487 0.0817888
vn -0.180463 -0.0672207 0.981282
v -0.011416 -0.00669216 0.0818818
vn -0.140399 -0.0845632 0.986477
v -0.0109249 -0.00795118 0.0818255
vn -0.139239 -0.109854 0.984147
v -0.00987727 -0.00840854 0.0818947
vn -0.0980223 -0.113396 0.988703
v -0.00941315 -0.00940034 0.0818169
vn -0.0823913 -0.135772 0.987308
v -0.00820182 -0.0146291 0.0811659
vn -0.097294 -0.152741 0.983465
v -0.0066188 -0.0162119 0.0810664
vn -0.0636789 -0.158736 0.985265
v -0.00131128 -0.0193749 0.0808264
vn 0.147048 -0.139549 0.979236
v -0.0097829 -0.0114687 0.0814882
vn -0.0946777 -0.144206 0.985008
v -0.00131128 -0.0162119 0.0812308
vn 0.851639 -0.0663499 0.519912
v -0.00131128 -0.0156466 0.0813022
vn 0.605916 -0.096567 0.789646
v -0.00131128 -0.000152953 0.0634838
vn 0.529027 0.345026 -0.775299
v -0.0120419 -0.00133232 0.0817563
vn -0.155507 0.13051 0.979176
v -0.0128989 -0.00190787 0.0816482
vn -0.212155 0.104226 0.971662
v -0.0145262 -0.00197982 0.0812784
vn -0.247897 0.0693191 0.966303
v -0.0132436 -0.00356002 0.0816633
vn -0.225668 0.018806 0.974023
v -0.0131685 -0.00514279 0.0816504
vn -0.214891 -0.0234952 0.976355
v -0.0112638 -0.000152953 0.0816871
vn -0.089791 0.778732 0.620898
v -0.0145262 -0.00672299 0.0813022
vn -0.209232 -0.0491091 0.976632
v -0.0128392 -0.00669216 0.0816352
vn -0.181767 -0.0775311 0.98028
v -0.0119783 -0.00719834 0.0817434
vn -0.161819 -0.0947459 0.982262
v -0.0104666 -0.00900465 0.0817607
vn -0.115143 -0.129235 0.984906
v -0.0129432 -0.00830576 0.0814752
vn -0.16363 -0.102751 0.981156
v -0.0129432 -0.00988853 0.0812914
vn -0.154142 -0.122525 0.980422
v -0.0113621 -0.00988853 0.0815293
vn -0.142407 -0.127218 0.981599
v -0.00987727 -0.00991166 0.0816979
vn -0.107381 -0.138666 0.9845
v -0.0097829 -0.0146291 0.0809951
vn -0.119484 -0.163846 0.979223
v -0.00820182 -0.0162119 0.0809086
vn -0.108488 -0.168149 0.979774
v -0.0097829 -0.0130515 0.0812459
vn -0.107558 -0.153262 0.982315
v -0.0066188 -0.0177921 0.0808004
vn -0.0702067 -0.173688 0.982295
v -0.00187554 -0.0193749 0.0807983
vn -0.0546358 -0.167067 0.984431
v -0.00131128 -0.0209551 0.080556
vn 0.166961 -0.18478 0.968494
v -0.0113621 -0.0114687 0.081313
vn -0.123092 -0.147966 0.981302
v -0.0209853 -0.000152953 0.0611784
vn -0.712903 0.554911 -0.42877
v -0.00131128 -0.0264023 0.0634362
vn 0.746268 -0.512541 -0.424719
v -0.0209853 -0.0264023 0.0602117
vn -0.222813 -0.248092 -0.942764
v -0.0114545 -0.00034566 0.0816893
vn -0.156433 0.161008 0.974477
v -0.0129432 -0.000397049 0.0814579
vn -0.1905 0.132754 0.97267
v -0.0145262 -0.000397049 0.0811227
vn -0.233057 0.104696 0.966811
v -0.0161073 -0.00197982 0.0808372
vn -0.287364 0.0750732 0.954875
v -0.0161073 -0.00356002 0.0809324
vn -0.271704 0.0393685 0.961575
v -0.0145262 -0.00356002 0.0813541
vn -0.245499 0.0200568 0.969189
v -0.0161073 -0.000397049 0.0806901
vn -0.293308 0.0948786 0.951298
v -0.0145262 -0.00514279 0.0813476
vn -0.229461 -0.0161931 0.973183
v -0.0129432 -0.000152953 0.0814168
vn -0.0538923 0.951207 0.303811
v -0.0161073 -0.00672299 0.0809345
vn -0.241674 -0.030064 0.969892
v -0.0161073 -0.00830576 0.080861
vn -0.227112 -0.0649114 0.971703
v -0.0145262 -0.00830576 0.081194
vn -0.189561 -0.083857 0.978281
v -0.0145262 -0.00988853 0.0810297
vn -0.175711 -0.116959 0.977469
v -0.0145262 -0.0114687 0.0808221
vn -0.169243 -0.144281 0.974956
v -0.0129432 -0.0114687 0.0810773
vn -0.152122 -0.155332 0.976079
v -0.0113621 -0.0146291 0.0807831
vn -0.148753 -0.171094 0.973961
v -0.0097829 -0.0162119 0.0807139
vn -0.129151 -0.178359 0.975453
v -0.0113621 -0.0130515 0.0810513
vn -0.138364 -0.163756 0.976749
v -0.00820182 -0.0177921 0.0806253
vn -0.119764 -0.182759 0.975836
v -0.0066188 -0.0193749 0.0805063
vn -0.0809733 -0.201301 0.976177
v -0.00131128 -0.0221576 0.0802944
vn 0.230189 -0.221979 0.947491
v -0.0209853 -0.000152953 0.0788367
vn -0.034006 0.998228 0.0488388
v -0.00131128 -0.0264023 0.0791114
vn 0.975648 -0.219131 0.00967386
v -0.0209853 -0.0264023 0.0750412
vn -0.811522 -0.583622 0.0285988
v -0.0145262 -0.000152953 0.0810902
vn -0.0538937 0.970653 0.234369
v -0.0161284 -0.000152953 0.0806555
vn -0.0525613 0.981971 0.181575
v -0.0184336 -0.00294593 0.0801754
vn -0.342213 0.103105 0.933948
v -0.0178193 -0.00350863 0.0804176
vn -0.293511 0.063788 0.953825
v -0.0185492 -0.00399939 0.0802208
vn -0.378646 0.0593824 0.923635
v -0.0176883 -0.00514279 0.0805258
vn -0.278059 0.0145123 0.960454
v -0.0161073 -0.00514279 0.0809583
vn -0.253394 -0.00132234 0.967362
v -0.0171587 -0.000152953 0.080303
vn -0.240557 0.725615 0.644682
v -0.0176883 -0.00672299 0.080515
vn -0.26694 -0.0196244 0.963513
v -0.0176883 -0.00830576 0.0804609
vn -0.253849 -0.0485043 0.966027
v -0.0177307 -0.00976006 0.0803441
vn -0.244674 -0.0946382 0.964976
v -0.0161073 -0.00988853 0.0807291
vn -0.213029 -0.105422 0.971342
v -0.0161073 -0.0114687 0.0805214
vn -0.194462 -0.147941 0.96969
v -0.0145262 -0.0130515 0.0805517
vn -0.164503 -0.168888 0.97181
v -0.0138849 -0.0155516 0.0802165
vn -0.162079 -0.184635 0.96935
v -0.0113621 -0.0162119 0.0804933
vn -0.147179 -0.181892 0.972242
v -0.010507 -0.0185347 0.0801819
vn -0.140394 -0.191903 0.97132
v -0.00814019 -0.0193826 0.0803246
vn -0.123115 -0.193966 0.973252
v -0.00757208 -0.0202536 0.0802143
vn -0.124528 -0.245907 0.961261
v -0.0066188 -0.0204181 0.0802619
vn -0.0898218 -0.252334 0.963462
v -0.00131128 -0.022949 0.0800889
vn 0.435551 -0.229862 0.870321
v -0.0209853 -0.000397049 0.0788562
vn -0.991607 0.010071 0.128893
v -0.00618164 -0.0264023 0.0786724
vn -0.0151821 -0.986758 0.161487
v -0.00131128 -0.0257008 0.0793255
vn 0.553762 -0.237563 0.798067
v -0.017698 -0.0264023 0.0763583
vn -0.0152963 -0.999118 0.0391173
v -0.0176171 -0.025634 0.0766827
vn -0.340219 -0.325144 0.882345
v -0.0209853 -0.0218775 0.0767562
vn -0.989884 -0.0500787 0.132744
v -0.0209853 -0.00197982 0.0789795
vn -0.991609 0.0100213 0.128883
v -0.0209853 -0.00373474 0.0791157
vn -0.991621 0.00968858 0.128818
v -0.0209853 -0.00514279 0.0792173
vn -0.991635 0.00928301 0.128737
v -0.0209853 -0.00529439 0.0792282
vn -0.991729 0.00649967 0.128187
v -0.0209853 -0.00684889 0.0793039
vn -0.985872 0.00561488 0.167409
v -0.0186069 -0.00514279 0.0802446
vn -0.358414 0.0134963 0.933465
v -0.0186108 -0.00672299 0.0802425
vn -0.32904 -0.014276 0.944208
v -0.0185472 -0.00830576 0.0802143
vn -0.325643 -0.0353117 0.944833
v -0.0184953 -0.00914597 0.0801949
vn -0.309668 -0.0803976 0.94744
v -0.0182873 -0.010202 0.0801343
vn -0.286676 -0.127845 0.949459
v -0.0171741 -0.0114687 0.0802684
vn -0.250661 -0.137499 0.95826
v -0.0169315 -0.0123089 0.0801992
vn -0.232741 -0.168708 0.957794
v -0.0160206 -0.012923 0.0802879
vn -0.20557 -0.172903 0.963247
v -0.0154371 -0.0139893 0.0802165
vn -0.189442 -0.171284 0.966837
v -0.0149402 -0.0150428 0.0801213
vn -0.192247 -0.190396 0.962699
v -0.0144568 -0.0161323 0.0799894
vn -0.183302 -0.200223 0.962451
v -0.0145262 -0.0177921 0.0796283
vn -0.187449 -0.204142 0.960827
v -0.0128083 -0.0176534 0.0799721
vn -0.17212 -0.20271 0.963993
v -0.0113621 -0.0181749 0.0801127
vn -0.16543 -0.201678 0.96538
v -0.0113621 -0.0193749 0.0798553
vn -0.158586 -0.224035 0.961592
v -0.0099023 -0.0193826 0.0800781
vn -0.144713 -0.231071 0.962115
v -0.0125079 -0.0235579 0.0786745
vn -0.152024 -0.235826 0.959831
v -0.0113621 -0.0238739 0.0787567
vn -0.131511 -0.25176 0.958813
v -0.0105109 -0.0248812 0.078601
vn -0.122366 -0.268616 0.955443
v -0.00820182 -0.024118 0.0790854
vn -0.112685 -0.261929 0.958486
v -0.0066188 -0.024118 0.0792671
vn -0.0960838 -0.261638 0.960371
v -0.00131128 -0.0237789 0.0798662
vn 0.0501328 -0.259587 0.964418
v -0.00710796 -0.0264023 0.0785707
vn -0.0312486 -0.964707 0.261465
v -0.00131128 -0.0251381 0.0794877
vn 0.516852 -0.232994 0.823758
v -0.00131128 -0.024118 0.0797732
vn 0.135963 -0.265814 0.954388
v -0.0066034 -0.0257933 0.0788021
vn -0.095384 -0.267921 0.958708
v -0.0163672 -0.0264023 0.076847
vn -0.0133285 -0.999208 0.0374907
v -0.0164924 -0.0261171 0.0769076
vn -0.290962 -0.301793 0.907889
v -0.0170413 -0.025061 0.0770741
vn -0.297559 -0.294896 0.908017
v -0.0209853 -0.02086 0.0771239
vn -0.857885 -0.163951 0.486984
v -0.0209853 -0.0210938 0.0770439
vn -0.989661 -0.0487417 0.134893
v -0.0209853 -0.00830833 0.079319
vn -0.99227 0.00118883 0.12409
v -0.0209853 -0.00842909 0.079319
vn -0.946002 -0.00776852 0.324067
v -0.0209853 -0.00988853 0.0792584
vn -0.982496 -0.00833553 0.186097
v -0.0209853 -0.0100401 0.0792476
vn -0.992113 -0.0105978 0.124898
v -0.0209853 -0.0114687 0.0791244
vn -0.97672 -0.0220063 0.213386
v -0.0179657 -0.0114687 0.0800478
vn -0.274189 -0.142871 0.951004
v -0.0209853 -0.0116306 0.0791049
vn -0.991111 -0.0172715 0.131912
v -0.0209853 -0.0132031 0.0788973
vn -0.99115 -0.018023 0.131519
v -0.0209853 -0.0146291 0.078694
vn -0.982168 -0.0275697 0.185971
v -0.0192694 -0.0146291 0.0791849
vn -0.259961 -0.159179 0.952409
v -0.0176883 -0.0146291 0.0795915
vn -0.231458 -0.187317 0.954641
v -0.0160206 -0.0145598 0.0799851
vn -0.214124 -0.185741 0.958985
v -0.0161073 -0.0162119 0.0796283
vn -0.213049 -0.203571 0.955599
v -0.0145262 -0.0193749 0.0792866
vn -0.193849 -0.21545 0.957081
v -0.0129432 -0.0193749 0.0795807
vn -0.172143 -0.218031 0.96064
v -0.0135633 -0.0231853 0.078575
vn -0.185266 -0.236548 0.953793
v -0.012999 -0.0241001 0.0784193
vn -0.188726 -0.299056 0.935387
v -0.0113621 -0.0246653 0.0785361
vn -0.162863 -0.298781 0.940322
v -0.0113621 -0.0257008 0.0781901
vn -0.157407 -0.324654 0.932643
v -0.0099023 -0.0256546 0.0784345
vn -0.139968 -0.317869 0.937746
v -0.00820182 -0.0261556 0.078508
vn -0.126654 -0.301101 0.945144
v -0.00820182 -0.0253642 0.0787437
vn -0.111531 -0.2686 0.956773
v -0.0071407 -0.0264023 0.0785664
vn -0.0020439 -0.999879 0.0154295
v -0.0155526 -0.0264023 0.0770914
vn -0.0697689 -0.964188 0.255879
v -0.0160206 -0.025634 0.0772039
vn -0.272638 -0.290774 0.917125
v -0.0161073 -0.024118 0.0776559
vn -0.265645 -0.285803 0.920733
v -0.0176883 -0.0225378 0.0776667
vn -0.282443 -0.286129 0.915618
v -0.0192694 -0.0209551 0.0776689
vn -0.293824 -0.284794 0.912447
v -0.0209853 -0.0207238 0.0771693
vn -0.961175 -0.0851232 0.262484
v -0.0206676 -0.0146291 0.078787
vn -0.271952 -0.150123 0.950529
v -0.0209853 -0.0159267 0.0784474
vn -0.999493 -0.00599508 0.0312601
v -0.020344 -0.0157597 0.0786897
vn -0.257947 -0.206981 0.943728
v -0.0193195 -0.0162556 0.0788454
vn -0.239818 -0.20603 0.948704
v -0.0176883 -0.0162119 0.0792628
vn -0.229131 -0.204956 0.951573
v -0.0168699 -0.0201329 0.0786031
vn -0.239718 -0.218269 0.945988
v -0.0162478 -0.0195136 0.07888
vn -0.21095 -0.208732 0.954951
v -0.0158165 -0.0206416 0.0787243
vn -0.20752 -0.218121 0.953603
v -0.0152541 -0.0216976 0.0785967
vn -0.215337 -0.245284 0.945233
v -0.0146475 -0.0210835 0.0788605
vn -0.18629 -0.225632 0.956236
v -0.0146475 -0.0226098 0.0784842
vn -0.222321 -0.266317 0.937896
v -0.0145262 -0.024118 0.0780819
vn -0.231394 -0.284001 0.930484
v -0.0145262 -0.0257008 0.0775737
vn -0.201549 -0.307859 0.929839
v -0.0129432 -0.0257008 0.0779024
vn -0.179386 -0.321027 0.929926
v -0.0113621 -0.0264023 0.0779306
vn -0.0113181 -0.997913 0.0635675
v -0.00984838 -0.0264023 0.0781836
vn -0.0101588 -0.997837 0.064952
v -0.00820182 -0.0264023 0.0784258
vn -0.0062636 -0.999032 0.0435409
v -0.0152445 -0.0264023 0.0771714
vn -0.031219 -0.991248 0.128265
v -0.0161073 -0.0225378 0.0781382
vn -0.250826 -0.273783 0.928509
v -0.0176883 -0.0209551 0.0781576
vn -0.271018 -0.270113 0.923898
v -0.0192694 -0.0193749 0.0781295
vn -0.270238 -0.238069 0.932896
v -0.0208505 -0.0193749 0.0776364
vn -0.289554 -0.256936 0.922032
v -0.0209853 -0.0195059 0.0775521
vn -0.996391 -0.0253531 0.0810103
v -0.0209853 -0.016253 0.0783825
vn -0.999852 -0.00382034 0.016781
v -0.020864 -0.0162556 0.0784193
vn -0.27263 -0.225654 0.935283
v -0.0162478 -0.0210835 0.0785145
vn -0.24739 -0.258961 0.933669
v -0.0145262 -0.0264023 0.077325
vn -0.018476 -0.995917 0.0883657
v -0.0139003 -0.0264023 0.0774548
vn -0.00827535 -0.999092 0.0417912
v -0.0129316 -0.0264023 0.0776407
vn -0.00789161 -0.999082 0.0420993
v -0.0208505 -0.0177921 0.0780517
vn -0.284842 -0.234605 0.929422
v -0.0209853 -0.0193749 0.077591
vn -0.999922 -0.00317606 0.012056
v -0.0209853 -0.017805 0.0780019
vn -0.999979 -0.00160122 0.00631527
f 1//1 2//2 3//3
f 1//1 3//3 4//4
f 1//1 4//4 5//5
f 1//1 5//5 6//6
f 1//1 6//6 7//7
f 1//1 7//7 2//2
f 2//2 7//7 8//8
f 2//2 8//8 9//9
f 2//2 9//9 10//10
f 2//2 10//10 12//12
f 2//2 12//12 3//3
f 3//3 11//11 4//4
f 3//3 12//12 11//11
f 4//4 11//11 13//13
f 4//4 13//13 14//14
f 4//4 14//14 5//5
f 5//5 14//14 15//15
f 5//5 15//15 16//16
f 5//5 16//16 17//17
f 5//5 17//17 18//18
f 5//5 18//18 19//19
f 5//5 19//19 20//20
f 5//5 20//20 6//6
f 6//6 21//21 7//7
f 6//6 20//20 21//21
f 7//7 21//21 22//22
f 7//7 22//22 23//23
f 7//7 23//23 24//24
f 7//7 24//24 8//8
f 8//8 24//24 23//23
f 8//8 23//23 22//22
f 8//8 22//22 21//21
f 8//8 21//21 20//20
f 8//8 20//20 19//19
f 8//8 19//19 18//18
f 8//8 18//18 17//17
f 8//8 17//17 16//16
f 8//8 16//16 39//39
f 8//8 39//39 58//58
f 8//8 58//58 57//57
f 8//8 57//57 55//55
f 8//8 55//55 79//79
f 8//8 79//79 104//104
f 8//8 104//104 128//128
f 8//8 128//128 161//161
f 8//8 161//161 164//164
f 8//8 164//164 163//163
f 8//8 163//163 131//131
f 8//8 131//131 106//106
f 8//8 106//106 82//82
f 8//8 82//82 59//59
f 8//8 59//59 40//40
f 8//8 40//40 25//25
f 8//8 25//25 9//9
f 9//9 25//25 26//26
f 9//9 26//26 27//27
f 9//9 27//27 28//28
f 9//9 28//28 10//10
f 10//10 28//28 12//12
f 11//11 29//29 13//13
f 11//11 12//12 30//30
f 11//11 30//30 29//29
f 12//12 28//28 31//31
f 12//12 31//31 30//30
f 13//13 32//32 33//33
f 13//13 33//33 14//14
f 13//13 29//29 32//32
f 14//14 33//33 34//34
f 14//14 34//34 15//15
f 15//15 34//34 35//35
f 15//15 35//35 36//36
f 15//15 36//36 37//37
f 15//15 37//37 38//38
f 15//15 38//38 39//39
f 15//15 39//39 16//16
f 25//25 40//40 26//26
f 26//26 40//40 59//59
f 26//26 59//59 81//81
f 26//26 81//81 105//105
f 26//26 105//105 115//115
f 26//26 115//115 109//109
f 26//26 109//109 108//108
f 26//26 108//108 92//92
f 26//26 92//92 65//65
f 26//26 65//65 46//46
f 26//26 46//46 42//42
f 26//26 42//42 41//41
f 26//26 41//41 27//27
f 27//27 41//41 28//28
f 28//28 41//41 42//42
f 28//28 42//42 31//31
f 29//29 30//30 43//43
f 29//29 43//43 44//44
f 29//29 44//44 45//45
f 29//29 45//45 32//32
f 30//30 31//31 46//46
f 30//30 46//46 43//43
f 31//31 42//42 46//46
f 32//32 45//45 47//47
f 32//32 47//47 48//48
f 32//32 48//48 49//49
f 32//32 49//49 33//33
f 33//33 49//49 50//50
f 33//33 50//50 51//51
f 33//33 51//51 34//34
f 34//34 51//51 52//52
f 34//34 52//52 35//35
f 35//35 53//53 54//54
f 35//35 54//54 55//55
f 35//35 55//55 36//36
f 35//35 52//52 56//56
f 35//35 56//56 53//53
f 36//36 55//55 37//37
f 37//37 57//57 58//58
f 37//37 58//58 38//38
f 37//37 55//55 57//57
f 38//38 58//58 39//39
f 43//43 60//60 44//44
f 43//43 46//46 60//60
f 44//44 60//60 61//61
f 44//44 61//61 62//62
f 44//44 62//62 63//63
f 44//44 63//63 45//45
f 45//45 63//63 64//64
f 45//45 64//64 47//47
f 46//46 65//65 60//60
f 47//47 64//64 66//66
f 47//47 66//66 48//48
f 48//48 66//66 67//67
f 48//48 67//67 68//68
f 48//48 68//68 49//49
f 49//49 68//68 50//50
f 50//50 69//69 51//51
f 50//50 68//68 70//70
f 50//50 70//70 71//71
f 50//50 71//71 72//72
f 50//50 72//72 69//69
f 51//51 69//69 52//52
f 52//52 69//69 73//73
f 52//52 73//73 56//56
f 53//53 74//74 75//75
f 53//53 75//75 54//54
f 53//53 56//56 76//76
f 53//53 76//76 74//74
f 54//54 75//75 77//77
f 54//54 77//77 78//78
f 54//54 78//78 55//55
f 55//55 78//78 79//79
f 56//56 73//73 80//80
f 56//56 80//80 76//76
f 59//59 82//82 83//83
f 59//59 83//83 81//81
f 60//60 65//65 84//84
f 60//60 84//84 85//85
f 60//60 85//85 61//61
f 61//61 85//85 86//86
f 61//61 86//86 62//62
f 62//62 87//87 88//88
f 62//62 88//88 89//89
f 62//62 89//89 63//63
f 62//62 86//86 90//90
f 62//62 90//90 87//87
f 63//63 89//89 91//91
f 63//63 91//91 64//64
f 64//64 91//91 66//66
f 65//65 92//92 84//84
f 66//66 91//91 93//93
f 66//66 93//93 94//94
f 66//66 94//94 95//95
f 66//66 95//95 67//67
f 67//67 95//95 70//70
f 67//67 70//70 68//68
f 69//69 72//72 80//80
f 69//69 80//80 73//73
f 70//70 95//95 96//96
f 70//70 96//96 71//71
f 71//71 96//96 97//97
f 71//71 97//97 98//98
f 71//71 98//98 72//72
f 72//72 98//98 80//80
f 74//74 99//99 100//100
f 74//74 100//100 75//75
f 74//74 76//76 80//80
f 74//74 80//80 101//101
f 74//74 101//101 99//99
f 75//75 100//100 102//102
f 75//75 102//102 77//77
f 77//77 102//102 103//103
f 77//77 103//103 79//79
f 77//77 79//79 78//78
f 79//79 103//103 104//104
f 80//80 98//98 101//101
f 81//81 83//83 107//107
f 81//81 107//107 134//134
f 81//81 134//134 170//170
f 81//81 170//170 169//169
f 81//81 169//169 199//199
f 81//81 199//199 222//222
f 81//81 222//222 230//230
f 81//81 230//230 231//231
f 81//81 231//231 223//223
f 81//81 223//223 201//201
f 81//81 201//201 179//179
f 81//81 179//179 178//178
f 81//81 178//178 177//177
f 81//81 177//177 175//175
f 81//81 175//175 174//174
f 81//81 174//174 173//173
f 81//81 173//173 172//172
f 81//81 172//172 171//171
f 81//81 171//171 139//139
f 81//81 139//139 138//138
f 81//81 138//138 137//137
f 81//81 137//137 136//136
f 81//81 136//136 135//135
f 81//81 135//135 129//129
f 81//81 129//129 105//105
f 82//82 106//106 130//130
f 82//82 130//130 162//162
f 82//82 162//162 193//193
f 82//82 193//193 216//216
f 82//82 216//216 215//215
f 82//82 215//215 214//214
f 82//82 214//214 228//228
f 82//82 228//228 227//227
f 82//82 227//227 226//226
f 82//82 226//226 217//217
f 82//82 217//217 194//194
f 82//82 194//194 166//166
f 82//82 166//166 132//132
f 82//82 132//132 107//107
f 82//82 107//107 83//83
f 84//84 92//92 85//85
f 85//85 92//92 108//108
f 85//85 108//108 86//86
f 86//86 108//108 109//109
f 86//86 109//109 90//90
f 87//87 110//110 111//111
f 87//87 111//111 88//88
f 87//87 90//90 110//110
f 88//88 111//111 112//112
f 88//88 112//112 113//113
f 88//88 113//113 114//114
f 88//88 114//114 89//89
f 89//89 114//114 91//91
f 90//90 109//109 115//115
f 90//90 115//115 110//110
f 91//91 114//114 93//93
f 93//93 116//116 117//117
f 93//93 117//117 94//94
f 93//93 114//114 116//116
f 94//94 117//117 118//118
f 94//94 118//118 119//119
f 94//94 119//119 95//95
f 95//95 119//119 96//96
f 96//96 119//119 120//120
f 96//96 120//120 97//97
f 97//97 120//120 121//121
f 97//97 121//121 98//98
f 98//98 121//121 99//99
f 98//98 99//99 101//101
f 99//99 122//122 123//123
f 99//99 123//123 100//100
f 99//99 121//121 122//122
f 100//100 123//123 124//124
f 100//100 124//124 102//102
f 102//102 124//124 125//125
f 102//102 125//125 103//103
f 103//103 125//125 126//126
f 103//103 126//126 127//127
f 103//103 127//127 104//104
f 104//104 127//127 128//128
f 105//105 129//129 112//112
f 105//105 112//112 110//110
f 105//105 110//110 115//115
f 106//106 131//131 130//130
f 107//107 132//132 133//133
f 107//107 133//133 134//134
f 110//110 112//112 111//111
f 112//112 129//129 135//135
f 112//112 135//135 136//136
f 112//112 136//136 137//137
f 112//112 137//137 138//138
f 112//112 138//138 139//139
f 112//112 139//139 140//140
f 112//112 140//140 113//113
f 113//113 140//140 141//141
f 113//113 141//141 116//116
f 113//113 116//116 114//114
f 116//116 141//141 142//142
f 116//116 142//142 117//117
f 117//117 142//142 143//143
f 117//117 143//143 118//118
f 118//118 144//144 145//145
f 118//118 145//145 119//119
f 118//118 143//143 144//144
f 119//119 145//145 120//120
f 120//120 145//145 146//146
f 120//120 146//146 147//147
f 120//120 147//147 148//148
f 120//120 148//148 121//121
f 121//121 148//148 149//149
f 121//121 149//149 122//122
f 122//122 149//149 150//150
f 122//122 150//150 151//151
f 122//122 151//151 152//152
f 122//122 152//152 153//153
f 122//122 153//153 124//124
f 122//122 124//124 123//123
f 124//124 153//153 154//154
f 124//124 154//154 155//155
f 124//124 155//155 126//126
f 124//124 126//126 125//125
f 126//126 155//155 156//156
f 126//126 156//156 157//157
f 126//126 157//157 158//158
f 126//126 158//158 159//159
f 126//126 159//159 160//160
f 126//126 160//160 127//127
f 127//127 160//160 161//161
f 127//127 161//161 128//128
f 130//130 131//131 163//163
f 130//130 163//163 164//164
f 130//130 164//164 165//165
f 130//130 165//165 162//162
f 132//132 166//166 133//133
f 133//133 166//166 167//167
f 133//133 167//167 168//168
f 133//133 168//168 169//169
f 133//133 169//169 170//170
f 133//133 170//170 134//134
f 139//139 171//171 140//140
f 140//140 171//171 172//172
f 140//140 172//172 141//141
f 141//141 172//172 142//142
f 142//142 172//172 173//173
f 142//142 173//173 143//143
f 143//143 173//173 174//174
f 143//143 174//174 175//175
f 143//143 175//175 144//144
f 144//144 176//176 145//145
f 144//144 175//175 177//177
f 144//144 177//177 178//178
f 144//144 178//178 179//179
f 144//144 179//179 176//176
f 145//145 176//176 180//180
f 145//145 180//180 146//146
f 146//146 180//180 181//181
f 146//146 181//181 182//182
f 146//146 182//182 147//147
f 147//147 182//182 148//148
f 148//148 182//182 149//149
f 149//149 182//182 183//183
f 149//149 183//183 151//151
f 149//149 151//151 150//150
f 151//151 183//183 184//184
f 151//151 184//184 185//185
f 151//151 185//185 152//152
f 152//152 185//185 153//153
f 153//153 185//185 154//154
f 154//154 185//185 156//156
f 154//154 156//156 155//155
f 156//156 186//186 187//187
f 156//156 187//187 188//188
f 156//156 188//188 157//157
f 156//156 185//185 186//186
f 157//157 188//188 158//158
f 158//158 188//188 189//189
f 158//158 189//189 190//190
f 158//158 190//190 191//191
f 158//158 191//191 162//162
f 158//158 162//162 192//192
f 158//158 192//192 159//159
f 159//159 192//192 160//160
f 160//160 192//192 165//165
f 160//160 165//165 164//164
f 160//160 164//164 161//161
f 162//162 165//165 192//192
f 162//162 191//191 193//193
f 166//166 194//194 167//167
f 167//167 194//194 195//195
f 167//167 195//195 168//168
f 168//168 195//195 196//196
f 168//168 196//196 197//197
f 168//168 197//197 198//198
f 168//168 198//198 199//199
f 168//168 199//199 169//169
f 176//176 179//179 200//200
f 176//176 200//200 180//180
f 179//179 201//201 202//202
f 179//179 202//202 200//200
f 180//180 200//200 202//202
f 180//180 202//202 181//181
f 181//181 202//202 203//203
f 181//181 203//203 204//204
f 181//181 204//204 183//183
f 181//181 183//183 182//182
f 183//183 204//204 205//205
f 183//183 205//205 206//206
f 183//183 206//206 184//184
f 184//184 206//206 207//207
f 184//184 207//207 208//208
f 184//184 208//208 209//209
f 184//184 209//209 186//186
f 184//184 186//186 185//185
f 186//186 210//210 211//211
f 186//186 211//211 187//187
f 186//186 209//209 208//208
f 186//186 208//208 210//210
f 187//187 211//211 212//212
f 187//187 212//212 213//213
f 187//187 213//213 188//188
f 188//188 213//213 189//189
f 189//189 213//213 214//214
f 189//189 214//214 215//215
f 189//189 215//215 190//190
f 190//190 215//215 216//216
f 190//190 216//216 191//191
f 191//191 216//216 193//193
f 194//194 217//217 211//211
f 194//194 211//211 196//196
f 194//194 196//196 195//195
f 196//196 211//211 218//218
f 196//196 218//218 219//219
f 196//196 219//219 197//197
f 197//197 219//219 198//198
f 198//198 219//219 220//220
f 198//198 220//220 221//221
f 198//198 221//221 222//222
f 198//198 222//222 199//199
f 201//201 223//223 202//202
f 202//202 223//223 224//224
f 202//202 224//224 220//220
f 202//202 220//220 205//205
f 202//202 205//205 203//203
f 203//203 205//205 204//204
f 205//205 220//220 219//219
f 205//205 219//219 225//225
f 205//205 225//225 208//208
f 205//205 208//208 207//207
f 205//205 207//207 206//206
f 208//208 225//225 218//218
f 208//208 218//218 211//211
f 208//208 211//211 210//210
f 211//211 217//217 212//212
f 212//212 217//217 226//226
f 212//212 226//226 213//213
f 213//213 226//226 227//227
f 213//213 227//227 228//228
f 213//213 228//228 214//214
f 218//218 225//225 219//219
f 220//220 224//224 229//229
f 220//220 229//229 221//221
f 221//221 230//230 222//222
f 221//221 229//229 230//230
f 223//223 229//229 224//224
f 223//223 231//231 229//229
f 229//229 231//231 230//230
