# Created by Open3D 
# object name: part_029
# number of vertices: 128
# number of triangles: 252
v 0.0206209 0.0508791 0.0443195
vn 0.824378 9.08182e-05 0.56604
v 0.0206209 0.0509056 0.0443106
vn -0.0448045 0.684578 0.727561
v 0.0012907 0.0495269 0.0443195
vn -0.0494923 0.683368 0.728395
v 0.0206209 0.0249355 0.0443195
vn 0.71271 -0.700671 0.0332456
v 0.0206209 0.0544363 0.0409204
vn -0.00465537 0.693079 0.720847
v 0.0171022 0.0624964 0.0331194
vn -0.0115909 0.69583 0.718113
v 0.0155221 0.0632255 0.032365
vn -0.0268594 0.691597 0.721784
v 0.0139399 0.0640254 0.0315367
vn -0.047048 0.685263 0.726774
v -0.000291528 0.0493855 0.0443195
vn -0.0611225 0.679057 0.731537
v 0.0123577 0.0639856 0.0314627
vn -0.0672971 0.691927 0.718824
v -0.00131128 0.0265528 0.0443195
vn -0.827801 -0.0317646 0.560122
v -0.00131128 0.0284441 0.0416659
vn -0.060593 -0.800186 -0.596683
v 0.0206209 0.0474279 0.0140976
vn 0.494576 -0.488028 -0.719182
v 0.0206209 0.059275 0.0362552
vn 0.125581 0.689598 0.713221
v 0.0202667 0.0600704 0.0354949
vn 0.000633251 0.69836 0.715746
v 0.0186844 0.062439 0.0331283
vn 0.0840333 0.758238 0.646539
v 0.0171022 0.0632874 0.0322881
vn 0.0559313 0.759116 0.648549
v 0.0155221 0.0639989 0.0315752
vn 0.0375716 0.765394 0.642464
v 0.0123577 0.0654925 0.0299067
vn -0.0387386 0.778937 0.625904
v 0.0123577 0.0647766 0.0306965
vn -0.0634061 0.718464 0.692669
v -0.00131128 0.0492927 0.0443195
vn -0.433238 0.260325 0.862865
v -0.00131128 0.0649003 0.0292499
vn -0.762145 0.450583 0.464875
v -0.00131128 0.0399378 0.0264277
vn -0.0714907 -0.795683 -0.60148
v 0.0206209 0.0671893 0.0140976
vn 0.990333 0.00076898 -0.138708
v -0.00131128 0.0492838 0.0140976
vn -0.674509 -0.280191 -0.68303
v 0.0206209 0.060066 0.0354771
vn 0.616968 0.563599 0.549278
v 0.0202667 0.0608349 0.034705
vn 0.0553823 0.724876 0.68665
v 0.0202667 0.0622622 0.0329833
vn 0.158246 0.790502 0.591663
v 0.0187875 0.0633007 0.0318976
vn 0.168892 0.820012 0.54686
v 0.0171022 0.063884 0.0314953
vn 0.127028 0.822689 0.554118
v 0.0206209 0.0608084 0.0346873
vn 0.688591 0.553518 0.468465
v 0.0202667 0.0616215 0.0337761
vn 0.142991 0.767401 0.62502
v 0.0139399 0.0654218 0.0298505
vn 0.0964378 0.83166 0.546846
v 0.0123577 0.0662083 0.0287944
vn 0.0636803 0.861696 0.503413
v 0.0107776 0.0667651 0.0279128
vn -0.0183441 0.869245 0.494042
v 0.0107776 0.0661774 0.0287944
vn -0.0318234 0.830876 0.555547
v -0.00131128 0.0670656 0.0267709
vn -0.567676 0.682529 0.460324
v -0.00131128 0.0666723 0.0272797
vn -0.84553 0.419201 0.330679
v -0.00131128 0.0664425 0.0275608
vn -0.828779 0.425458 0.36347
v -0.00131128 0.0659343 0.0281435
vn -0.822675 0.427497 0.374769
v -0.00131128 0.0656515 0.028463
vn -0.636638 0.566727 0.522983
v 0.0163744 0.0683073 0.0140976
vn 0.160708 0.619534 -0.768343
v 0.0206209 0.0671716 0.0142071
vn 0.326349 0.932034 0.15751
v -0.00131128 0.0699953 0.0140976
vn -0.807177 7.19229e-06 -0.590309
v 0.0206209 0.0622136 0.0329241
vn 0.870079 0.420065 0.257892
v 0.0206209 0.0616038 0.0336933
vn 0.981899 0.148117 0.118049
v 0.0193822 0.0636321 0.0311137
vn 0.251985 0.883644 0.394558
v 0.0183281 0.0637514 0.0313326
vn 0.175853 0.85646 0.485337
v 0.015037 0.0653113 0.0297085
vn 0.173908 0.865801 0.469195
v 0.0139399 0.0660006 0.0287944
vn 0.184632 0.891674 0.413315
v 0.0123577 0.0667386 0.0278063
vn 0.0947257 0.896417 0.43297
v 0.0107776 0.0671584 0.0271229
vn 0.0155856 0.921391 0.388324
v -0.00131128 0.067671 0.025632
vn -0.556788 0.74601 0.365317
v -0.00131128 0.0672821 0.0263804
vn -0.917085 0.352049 0.187129
v 0.0144852 0.0687713 0.0140976
vn 0.0414116 0.170857 -0.984425
v 0.0134934 0.0684841 0.0174523
vn 0.239379 0.958133 0.157094
v 0.0145732 0.0667695 0.0260668
vn 0.261923 0.950098 0.169442
v 0.0206209 0.0671098 0.0145236
vn 0.89814 0.430848 0.087828
v -0.00131128 0.0699953 0.0141272
vn -0.999702 0.024375 0.00135086
v -0.00112236 0.0700042 0.0140976
vn -5.45053e-05 0.00125789 -0.999999
v 0.0206209 0.0627527 0.0319509
vn 0.985189 0.155881 0.0714404
v 0.0202667 0.062872 0.0319538
vn 0.281631 0.839358 0.464933
v 0.0206209 0.0633802 0.0304776
vn 0.979713 0.18686 0.0724297
v 0.0198888 0.0638398 0.0300576
vn 0.340098 0.888381 0.308402
v 0.0186844 0.0647059 0.0287944
vn 0.306922 0.901711 0.304493
v 0.0168253 0.0654041 0.0284068
vn 0.259941 0.904986 0.336795
v 0.0155479 0.0655764 0.0288772
vn 0.235352 0.900011 0.366865
v 0.0140043 0.0666193 0.0272354
vn 0.228172 0.908949 0.348926
v 0.0123577 0.0670612 0.0270164
vn 0.126701 0.952433 0.277161
v 0.00603523 0.0689613 0.0224666
vn 0.0840067 0.961956 0.259968
v 0.004453 0.0690806 0.0224666
vn 0.0582502 0.957586 0.282199
v 0.00287078 0.0691513 0.0224666
vn 0.0223169 0.946232 0.322718
v 0.00287078 0.0686476 0.0237535
vn -0.00852316 0.910726 0.412924
v -0.00131128 0.0678698 0.0251971
vn -0.996371 0.0781448 0.0337366
v 0.0012907 0.0686255 0.023712
vn -0.0354007 0.918799 0.393135
v 0.0128193 0.069169 0.0140976
vn 0.0403771 0.170523 -0.984526
v 0.0131434 0.0683957 0.0185054
vn 0.224231 0.96119 0.160729
v 0.0123577 0.0692751 0.0140976
vn 0.0448016 0.212243 -0.976189
v 0.0135191 0.0669153 0.0267265
vn 0.228873 0.956189 0.182537
v 0.0155221 0.0662039 0.0272117
vn 0.281084 0.923483 0.261097
v 0.0182894 0.0653776 0.0269336
vn 0.318244 0.927276 0.197182
v 0.0171022 0.0660492 0.025632
vn 0.305828 0.933393 0.187741
v 0.0193435 0.0651831 0.0260491
vn 0.35999 0.912352 0.19499
v 0.0202667 0.064538 0.0272117
vn 0.383107 0.90084 0.204246
v 0.0206209 0.0643877 0.027188
vn 0.999327 0.0358224 0.00790893
v -0.000291528 0.0700395 0.0140976
vn -0.00908674 0.254844 -0.966939
v -0.00131128 0.0699025 0.0157838
vn -0.9997 0.0244432 0.00143961
v 0.0206209 0.0638442 0.0290991
vn 0.99939 0.0331426 0.0110107
v 0.0203547 0.0640475 0.0288447
vn 0.358771 0.893511 0.270042
v 0.0187639 0.0650992 0.0273596
vn 0.34719 0.904787 0.246617
v 0.0178794 0.0652273 0.0279868
vn 0.294475 0.912752 0.283141
v 0.0123577 0.0673705 0.025632
vn 0.185177 0.967689 0.171135
v 0.00761531 0.0687757 0.0224666
vn 0.139965 0.969079 0.203212
v 0.00761531 0.0685017 0.0235523
vn 0.113105 0.962911 0.244967
v 0.00603523 0.0692618 0.0208869
vn 0.116714 0.983406 0.138888
v 0.004453 0.0694209 0.0208869
vn 0.0808195 0.988638 0.126739
v 0.00287078 0.0695269 0.0208869
vn 0.0443193 0.992683 0.112324
v 0.0012907 0.0691292 0.0224666
vn -0.0427343 0.945566 0.322612
v 0.0012907 0.0695535 0.0208869
vn -0.0155851 0.983403 0.180764
v -0.00131128 0.0683338 0.0240966
vn -0.989258 0.135335 0.0552474
v 0.0123577 0.0689481 0.0161418
vn 0.181835 0.970719 0.156974
v 0.0125123 0.0686343 0.0178753
vn 0.19379 0.96785 0.16035
v 0.0107433 0.0695755 0.0140976
vn 0.0960347 0.606492 -0.789268
v 0.0172525 0.0656118 0.0273596
vn 0.299987 0.921087 0.248205
v 0.0206209 0.0640165 0.028534
vn 0.997261 0.0712871 0.0196993
v -5.9979e-06 0.0700484 0.0140976
vn -0.00437287 0.223638 -0.974662
v -0.00131128 0.0696904 0.0193042
vn -0.985765 0.167587 0.0134559
v 0.0206209 0.0639679 0.0287086
vn 0.999458 0.0314928 0.00960559
v 0.0120185 0.0684929 0.0193042
vn 0.184459 0.969434 0.161777
v 0.00919753 0.0687625 0.0208869
vn 0.181444 0.970056 0.16146
v 0.00761531 0.0690541 0.0208869
vn 0.165784 0.97366 0.15653
v 0.0095904 0.0697214 0.0140976
vn 0.0404019 0.321195 -0.946151
v 0.00919753 0.06977 0.0140976
vn 0.0587355 0.597077 -0.80003
v 0.00820783 0.0698539 0.0140976
vn 0.0243338 0.311168 -0.950043
v 0.00761531 0.0698937 0.0140976
vn 0.0362206 0.586721 -0.808979
v 0.00685532 0.0699291 0.0140976
vn 0.0242037 0.656638 -0.753818
v 0.0012907 0.0697081 0.0193042
vn 0.0197962 0.996838 0.0769592
v -0.00131128 0.0689525 0.0224666
vn -0.99701 0.0733749 0.024246
v -0.00131128 0.0686918 0.0231736
vn -0.996747 0.0754529 0.0283258
v -0.00131128 0.0685327 0.0235848
vn -0.996668 0.076046 0.0294907
v -0.00131128 0.0694474 0.0208869
vn -0.994347 0.103126 0.0252738
v 0.0107776 0.0687271 0.0193042
vn 0.18214 0.970301 0.159187
v 0.0012907 0.0700705 0.0140976
vn -0.0035484 0.224409 -0.974488
v 0.00167069 0.0700749 0.0140976
vn 0.000572094 0.541169 -0.840913
v 0.00617477 0.0699512 0.0140976
vn 0.00756807 0.23377 -0.972262
v 0.00589998 0.06996 0.0140976
vn 0.00687577 0.233203 -0.972404
v 0.0030275 0.070044 0.0140976
vn 0.0068024 0.233143 -0.972419
v 0.00287078 0.0700484 0.0140976
vn 0.00528695 0.231899 -0.972725
f 1//1 2//2 3//3
f 1//1 3//3 9//9
f 1//1 9//9 21//21
f 1//1 21//21 11//11
f 1//1 11//11 4//4
f 1//1 4//4 13//13
f 1//1 13//13 24//24
f 1//1 24//24 43//43
f 1//1 43//43 58//58
f 1//1 58//58 85//85
f 1//1 85//85 105//105
f 1//1 105//105 108//108
f 1//1 108//108 88//88
f 1//1 88//88 63//63
f 1//1 63//63 61//61
f 1//1 61//61 45//45
f 1//1 45//45 46//46
f 1//1 46//46 31//31
f 1//1 31//31 26//26
f 1//1 26//26 14//14
f 1//1 14//14 5//5
f 1//1 5//5 2//2
f 2//2 5//5 6//6
f 2//2 6//6 7//7
f 2//2 7//7 8//8
f 2//2 8//8 3//3
f 3//3 8//8 10//10
f 3//3 10//10 9//9
f 4//4 11//11 12//12
f 4//4 12//12 13//13
f 5//5 14//14 15//15
f 5//5 15//15 6//6
f 6//6 16//16 17//17
f 6//6 17//17 18//18
f 6//6 18//18 7//7
f 6//6 15//15 16//16
f 7//7 18//18 8//8
f 8//8 18//18 19//19
f 8//8 19//19 20//20
f 8//8 20//20 10//10
f 9//9 10//10 21//21
f 10//10 20//20 22//22
f 10//10 22//22 21//21
f 11//11 21//21 22//22
f 11//11 22//22 41//41
f 11//11 41//41 40//40
f 11//11 40//40 39//39
f 11//11 39//39 38//38
f 11//11 38//38 37//37
f 11//11 37//37 54//54
f 11//11 54//54 53//53
f 11//11 53//53 74//74
f 11//11 74//74 100//100
f 11//11 100//100 120//120
f 11//11 120//120 119//119
f 11//11 119//119 118//118
f 11//11 118//118 121//121
f 11//11 121//121 107//107
f 11//11 107//107 87//87
f 11//11 87//87 59//59
f 11//11 59//59 44//44
f 11//11 44//44 25//25
f 11//11 25//25 23//23
f 11//11 23//23 12//12
f 12//12 23//23 13//13
f 13//13 23//23 25//25
f 13//13 25//25 44//44
f 13//13 44//44 60//60
f 13//13 60//60 86//86
f 13//13 86//86 106//106
f 13//13 106//106 123//123
f 13//13 123//123 124//124
f 13//13 124//124 128//128
f 13//13 128//128 127//127
f 13//13 127//127 126//126
f 13//13 126//126 125//125
f 13//13 125//125 116//116
f 13//13 116//116 115//115
f 13//13 115//115 114//114
f 13//13 114//114 113//113
f 13//13 113//113 112//112
f 13//13 112//112 103//103
f 13//13 103//103 78//78
f 13//13 78//78 76//76
f 13//13 76//76 55//55
f 13//13 55//55 42//42
f 13//13 42//42 24//24
f 14//14 26//26 15//15
f 15//15 26//26 27//27
f 15//15 27//27 16//16
f 16//16 28//28 29//29
f 16//16 29//29 30//30
f 16//16 30//30 17//17
f 16//16 27//27 31//31
f 16//16 31//31 32//32
f 16//16 32//32 28//28
f 17//17 30//30 18//18
f 18//18 30//30 33//33
f 18//18 33//33 19//19
f 19//19 33//33 34//34
f 19//19 34//34 35//35
f 19//19 35//35 36//36
f 19//19 36//36 37//37
f 19//19 37//37 38//38
f 19//19 38//38 39//39
f 19//19 39//39 40//40
f 19//19 40//40 41//41
f 19//19 41//41 20//20
f 20//20 41//41 22//22
f 24//24 42//42 43//43
f 26//26 31//31 27//27
f 28//28 45//45 29//29
f 28//28 32//32 31//31
f 28//28 31//31 46//46
f 28//28 46//46 45//45
f 29//29 45//45 47//47
f 29//29 47//47 48//48
f 29//29 48//48 30//30
f 30//30 48//48 49//49
f 30//30 49//49 33//33
f 33//33 49//49 50//50
f 33//33 50//50 34//34
f 34//34 51//51 35//35
f 34//34 50//50 51//51
f 35//35 51//51 52//52
f 35//35 52//52 53//53
f 35//35 53//53 54//54
f 35//35 54//54 37//37
f 35//35 37//37 36//36
f 42//42 55//55 56//56
f 42//42 56//56 57//57
f 42//42 57//57 43//43
f 43//43 57//57 58//58
f 44//44 59//59 60//60
f 45//45 61//61 62//62
f 45//45 62//62 47//47
f 47//47 62//62 61//61
f 47//47 61//61 63//63
f 47//47 63//63 64//64
f 47//47 64//64 65//65
f 47//47 65//65 66//66
f 47//47 66//66 67//67
f 47//47 67//67 50//50
f 47//47 50//50 49//49
f 47//47 49//49 48//48
f 50//50 67//67 68//68
f 50//50 68//68 69//69
f 50//50 69//69 51//51
f 51//51 69//69 52//52
f 52//52 69//69 70//70
f 52//52 70//70 71//71
f 52//52 71//71 72//72
f 52//52 72//72 73//73
f 52//52 73//73 53//53
f 53//53 73//73 75//75
f 53//53 75//75 74//74
f 55//55 76//76 56//56
f 56//56 77//77 57//57
f 56//56 76//76 78//78
f 56//56 78//78 77//77
f 57//57 79//79 80//80
f 57//57 80//80 81//81
f 57//57 81//81 82//82
f 57//57 82//82 58//58
f 57//57 77//77 79//79
f 58//58 82//82 81//81
f 58//58 81//81 83//83
f 58//58 83//83 84//84
f 58//58 84//84 85//85
f 59//59 86//86 60//60
f 59//59 87//87 86//86
f 63//63 88//88 89//89
f 63//63 89//89 64//64
f 64//64 89//89 65//65
f 65//65 89//89 90//90
f 65//65 90//90 91//91
f 65//65 91//91 66//66
f 66//66 91//91 80//80
f 66//66 80//80 68//68
f 66//66 68//68 67//67
f 68//68 80//80 79//79
f 68//68 79//79 69//69
f 69//69 92//92 93//93
f 69//69 93//93 94//94
f 69//69 94//94 70//70
f 69//69 79//79 92//92
f 70//70 93//93 95//95
f 70//70 95//95 96//96
f 70//70 96//96 71//71
f 70//70 94//94 93//93
f 71//71 96//96 97//97
f 71//71 97//97 72//72
f 72//72 98//98 73//73
f 72//72 97//97 99//99
f 72//72 99//99 98//98
f 73//73 98//98 75//75
f 74//74 75//75 100//100
f 75//75 98//98 100//100
f 77//77 78//78 101//101
f 77//77 101//101 102//102
f 77//77 102//102 92//92
f 77//77 92//92 79//79
f 78//78 103//103 101//101
f 80//80 91//91 104//104
f 80//80 104//104 81//81
f 81//81 104//104 91//91
f 81//81 91//91 90//90
f 81//81 90//90 83//83
f 83//83 90//90 84//84
f 84//84 90//90 89//89
f 84//84 89//89 105//105
f 84//84 105//105 85//85
f 86//86 87//87 107//107
f 86//86 107//107 106//106
f 88//88 108//108 89//89
f 89//89 108//108 105//105
f 92//92 102//102 109//109
f 92//92 109//109 110//110
f 92//92 110//110 111//111
f 92//92 111//111 93//93
f 93//93 111//111 95//95
f 95//95 111//111 103//103
f 95//95 103//103 112//112
f 95//95 112//112 113//113
f 95//95 113//113 96//96
f 96//96 113//113 114//114
f 96//96 114//114 115//115
f 96//96 115//115 97//97
f 97//97 115//115 116//116
f 97//97 116//116 117//117
f 97//97 117//117 99//99
f 98//98 118//118 119//119
f 98//98 119//119 120//120
f 98//98 120//120 100//100
f 98//98 99//99 121//121
f 98//98 121//121 118//118
f 99//99 107//107 121//121
f 99//99 117//117 107//107
f 101//101 103//103 111//111
f 101//101 111//111 110//110
f 101//101 110//110 122//122
f 101//101 122//122 102//102
f 102//102 122//122 109//109
f 106//106 107//107 123//123
f 107//107 117//117 124//124
f 107//107 124//124 123//123
f 109//109 122//122 110//110
f 116//116 125//125 117//117
f 117//117 125//125 126//126
f 117//117 126//126 127//127
f 117//117 127//127 128//128
f 117//117 128//128 124//124
