# Created by Open3D 
# object name: part_025
# number of vertices: 198
# number of triangles: 392
v 0.0223996 0.0512268 -0.0175409
vn -0.67908 -0.342607 -0.649207
v 0.044372 0.0388207 -0.0175409
vn 0.167907 -0.927305 -0.334534
v 0.0223996 0.0522743 -0.00190246
vn -0.503316 -0.555882 0.661565
v 0.0223996 0.0655287 -0.0175409
vn -0.611555 0.0708501 -0.788023
v 0.044372 0.0409158 -0.00190246
vn 0.143913 -0.641166 0.753787
v 0.044372 0.0532468 -0.0175409
vn 0.114617 0.0347371 -0.992802
v 0.0223996 0.0682991 -0.00190246
vn -0.99807 0.00363464 0.0619973
v 0.0223996 0.0657019 -0.0170403
vn -0.991959 0.120084 -0.0399586
v 0.0233353 0.0654162 -0.0169913
vn 0.295723 0.904145 -0.308332
v 0.0230019 0.0653325 -0.0175409
vn 0.0125 0.0377782 -0.999208
v 0.044372 0.0572061 -0.00190246
vn 0.578403 0.0025507 0.815747
v 0.038702 0.0575293 -0.0175409
vn 0.190225 0.254526 -0.948172
v 0.044372 0.0542482 -0.0148985
vn 0.951333 0.288322 -0.108791
v 0.0234321 0.0679932 -0.00190246
vn 0.0349874 0.116706 0.99255
v 0.0223996 0.0682558 -0.00283939
vn -0.992652 0.120865 -0.00584611
v 0.0223996 0.0662358 -0.0154129
vn -0.997041 0.0734101 -0.0227923
v 0.0234321 0.0658866 -0.0154895
vn 0.301713 0.911028 -0.281065
v 0.0243484 0.0652806 -0.0164096
vn 0.319429 0.899183 -0.299056
v 0.0237999 0.065093 -0.0174644
vn 0.302334 0.898387 -0.318584
v 0.0238795 0.0650381 -0.0175409
vn 0.0172942 0.0494732 -0.998626
v 0.044372 0.0572321 -0.00283939
vn 0.992121 0.125267 -0.00213158
v 0.0430857 0.0581671 -0.00190246
vn 0.0325651 0.0443693 0.998484
v 0.044372 0.05458 -0.0140075
vn 0.816019 0.544329 -0.194474
v 0.038018 0.0580228 -0.0175409
vn 0.0872815 0.121854 -0.988703
v 0.0381255 0.0586779 -0.0154895
vn 0.56909 0.775902 -0.272236
v 0.0250131 0.067517 -0.00190246
vn 0.0182118 0.0584065 0.998127
v 0.0234321 0.067947 -0.00283939
vn 0.287506 0.956024 -0.0579535
v 0.0223996 0.0682472 -0.00299401
vn -0.991054 0.133139 -0.00923211
v 0.0223996 0.0666744 -0.013908
vn -0.989209 0.140716 -0.0408075
v 0.0234321 0.0663454 -0.013908
vn 0.318037 0.914595 -0.249736
v 0.0249292 0.065396 -0.0153517
vn 0.327513 0.90661 -0.266071
v 0.0254024 0.0650872 -0.015788
vn 0.336052 0.898126 -0.283618
v 0.026594 0.0642301 -0.0170709
vn 0.338948 0.896043 -0.286742
v 0.0270651 0.0638983 -0.0175409
vn 0.0342121 0.0929594 -0.995082
v 0.0249292 0.064865 -0.0169913
vn 0.322498 0.892325 -0.315835
v 0.0249571 0.0646601 -0.0175409
vn 0.0204399 0.0573384 -0.998146
v 0.044372 0.0571801 -0.00442084
vn 0.930819 0.364401 -0.028066
v 0.041836 0.0590674 -0.00190246
vn 0.193353 0.27147 0.942825
v 0.044372 0.0546262 -0.0138759
vn 0.888461 0.434015 -0.149221
v 0.0376459 0.0582825 -0.0175409
vn 0.0166103 0.0240794 -0.999572
v 0.0376115 0.0584643 -0.0171138
vn 0.547542 0.788215 -0.280916
v 0.0373361 0.0592262 -0.0154895
vn 0.538537 0.798117 -0.270161
v 0.0383665 0.0588452 -0.0144959
vn 0.566896 0.783268 -0.255185
v 0.0255422 0.0673352 -0.00190246
vn 0.0392888 0.113284 0.992786
v 0.0250131 0.0674709 -0.00283939
vn 0.30158 0.951579 -0.0595472
v 0.0234321 0.0678403 -0.00442084
vn 0.287787 0.955014 -0.0716045
v 0.0223996 0.0681433 -0.00442084
vn -0.997816 0.0658766 -0.00489481
v 0.0223996 0.0667465 -0.0136508
vn -0.993499 0.109787 -0.0301188
v 0.0250131 0.0657769 -0.013908
vn 0.338258 0.911875 -0.232518
v 0.0226405 0.0668158 -0.0131165
vn 0.304346 0.925693 -0.224647
v 0.0234859 0.0666744 -0.0124843
vn 0.327734 0.91912 -0.218651
v 0.0258304 0.065243 -0.0147332
vn 0.342615 0.904649 -0.253428
v 0.0264521 0.0648275 -0.0153517
vn 0.348936 0.897547 -0.269543
v 0.0277255 0.0637944 -0.0170709
vn 0.355344 0.891118 -0.282203
v 0.0275362 0.0637165 -0.0175409
vn 0.0130134 0.0318605 -0.999408
v 0.044372 0.0570618 -0.00518631
vn 0.971624 0.233606 -0.0370754
v 0.039784 0.0603228 -0.00442084
vn 0.557329 0.821797 -0.118464
v 0.0399066 0.0604093 -0.00283939
vn 0.563512 0.824269 -0.0550997
v 0.040825 0.059786 -0.00190246
vn 0.0321861 0.0457259 0.998435
v 0.044372 0.0549696 -0.0128639
vn 0.948517 0.299942 -0.101735
v 0.0369554 0.0587558 -0.0175409
vn 0.0432932 0.0641873 -0.996998
v 0.03705 0.059027 -0.0166147
vn 0.52879 0.800513 -0.282064
v 0.0365489 0.0602766 -0.013908
vn 0.543732 0.799605 -0.254926
v 0.0354755 0.0606113 -0.0150302
vn 0.51723 0.808399 -0.281004
v 0.0357573 0.0608076 -0.013908
vn 0.524097 0.812126 -0.256465
v 0.0377685 0.0594282 -0.0139432
vn 0.552981 0.797384 -0.24164
v 0.0370027 0.0605854 -0.0118505
vn 0.56365 0.796475 -0.218923
v 0.0385794 0.0590068 -0.0134411
vn 0.56845 0.791119 -0.22582
v 0.044372 0.0551283 -0.0123955
vn 0.917474 0.380883 -0.114761
v 0.0263703 0.0670467 -0.00190246
vn 0.0433515 0.112199 0.99274
v 0.0263101 0.0670207 -0.00283939
vn 0.349568 0.934907 -0.0612477
v 0.0250131 0.0673554 -0.00442084
vn 0.311569 0.94666 -0.0822167
v 0.0223996 0.0681144 -0.00478061
vn -0.990671 0.135763 -0.011819
v 0.0234321 0.0677075 -0.00600229
vn 0.294628 0.950922 -0.0945662
v 0.0223996 0.0668418 -0.0132819
vn -0.999854 0.0165943 -0.00402618
v 0.0250131 0.0661578 -0.0123266
vn 0.344828 0.91499 -0.209489
v 0.0272436 0.0651796 -0.0128624
vn 0.356115 0.91114 -0.207382
v 0.0269038 0.0650526 -0.013908
vn 0.355562 0.902728 -0.242195
v 0.0223996 0.0669341 -0.0128777
vn -0.998425 0.0549 -0.0115406
v 0.0229933 0.066937 -0.0120617
vn 0.290344 0.936803 -0.195194
v 0.0240494 0.0667552 -0.0112565
vn 0.326433 0.923243 -0.202642
v 0.0282804 0.0640368 -0.0155706
vn 0.361971 0.89529 -0.259677
v 0.0288784 0.0636155 -0.0161539
vn 0.38869 0.879239 -0.275425
v 0.0289021 0.063148 -0.0175409
vn 0.0431756 0.101407 -0.993908
v 0.044372 0.0569291 -0.00600229
vn 0.785032 0.601573 -0.147763
v 0.0442752 0.0569954 -0.00600229
vn 0.557336 0.817102 -0.147377
v 0.0395925 0.0601871 -0.00600229
vn 0.555888 0.817449 -0.15088
v 0.038801 0.0607181 -0.00600229
vn 0.523429 0.840397 -0.140551
v 0.0389924 0.0608249 -0.00442084
vn 0.506398 0.857308 -0.0926523
v 0.039115 0.0608768 -0.00283939
vn 0.494593 0.868125 -0.0416711
v 0.0399173 0.060418 -0.00190246
vn 0.0493319 0.0773255 0.995785
v 0.0366242 0.0589722 -0.0175409
vn 0.0885402 0.141231 -0.986009
v 0.0367812 0.0604267 -0.0129053
vn 0.546919 0.801421 -0.242082
v 0.0351765 0.060418 -0.016085
vn 0.498709 0.811235 -0.305267
v 0.0345893 0.0609807 -0.0155308
vn 0.479239 0.825711 -0.297543
v 0.0344194 0.0616416 -0.0138943
vn 0.497222 0.826114 -0.265153
v 0.0348711 0.0618349 -0.0123266
vn 0.503573 0.831641 -0.234068
v 0.0361853 0.0609923 -0.0123572
vn 0.529836 0.816887 -0.227968
v 0.0359573 0.061581 -0.0106732
vn 0.537584 0.819245 -0.199603
v 0.0371963 0.0607325 -0.0107451
vn 0.55665 0.806513 -0.199191
v 0.044372 0.0568829 -0.00617835
vn 0.935449 0.341029 -0.0929174
v 0.044372 0.0565049 -0.00755925
vn 0.902386 0.414988 -0.116121
v 0.044372 0.0555785 -0.0108477
vn 0.953343 0.290358 -0.0826439
v 0.0301496 0.0655634 -0.00190246
vn 0.0225413 0.0573567 0.998099
v 0.0307175 0.0653094 -0.00283939
vn 0.37719 0.925405 -0.0367891
v 0.029756 0.0656846 -0.00283939
vn 0.361521 0.9311 -0.0485354
v 0.0261531 0.0669572 -0.00442084
vn 0.349351 0.932821 -0.0883091
v 0.0306401 0.0652777 -0.00403504
vn 0.380124 0.922348 -0.0691374
v 0.0251658 0.0671217 -0.00614926
vn 0.318708 0.942109 -0.10419
v 0.0223996 0.0680019 -0.00598852
vn -0.991827 0.126889 -0.0133418
v 0.0234321 0.0675315 -0.00758375
vn 0.294834 0.948666 -0.114478
v 0.0243506 0.0668706 -0.0102032
vn 0.360983 0.917679 -0.166002
v 0.0275254 0.0652921 -0.0118091
vn 0.370424 0.911469 -0.178915
v 0.0281019 0.0649429 -0.0123327
vn 0.383644 0.902583 -0.195349
v 0.028175 0.0645418 -0.013908
vn 0.379673 0.896852 -0.226947
v 0.0223996 0.0670495 -0.0123159
vn -0.999141 0.0406207 -0.0082122
v 0.0223996 0.0672371 -0.0113789
vn -0.994349 0.104233 -0.0201159
v 0.0234859 0.0670495 -0.0107359
vn 0.28501 0.942922 -0.172243
v 0.0292247 0.0637684 -0.0150991
vn 0.395531 0.884316 -0.248074
v 0.0297539 0.0633875 -0.0155706
vn 0.406668 0.87365 -0.267126
v 0.0309003 0.0622418 -0.0175409
vn 0.239125 0.509824 -0.826377
v 0.030169 0.0625823 -0.0175409
vn 0.0415008 0.0897074 -0.995103
v 0.0297775 0.0627613 -0.0175409
vn 0.0403239 0.0903221 -0.995096
v 0.038431 0.0604728 -0.00830788
vn 0.55673 0.807635 -0.194364
v 0.0386117 0.0605969 -0.0072546
vn 0.550084 0.816142 -0.176972
v 0.03628 0.0617108 -0.0091652
vn 0.525851 0.834742 -0.163362
v 0.0364822 0.0618551 -0.00758375
vn 0.49105 0.862397 -0.12305
v 0.0376631 0.0613963 -0.00600229
vn 0.491047 0.864623 -0.106299
v 0.0375082 0.0616791 -0.00428
vn 0.488408 0.868791 -0.081613
v 0.0383062 0.061353 -0.00190246
vn 0.0293591 0.0516736 0.998232
v 0.0391279 0.0608826 -0.00190246
vn 0.0295954 0.0512162 0.998249
v 0.0395947 0.0606085 -0.00190246
vn 0.0298517 0.0507202 0.998267
v 0.0339612 0.0637944 -0.00283939
vn 0.479864 0.875339 -0.0592608
v 0.0339827 0.0638059 -0.00190246
vn 0.0594017 0.105519 0.992642
v 0.0348582 0.0602275 -0.0170709
vn 0.491498 0.810867 -0.317684
v 0.0339117 0.0606142 -0.0175409
vn 0.0206885 0.0345807 -0.999188
v 0.0340666 0.0607066 -0.0170709
vn 0.480751 0.819541 -0.31182
v 0.0329201 0.0611827 -0.0175409
vn 0.0993957 0.177228 -0.979138
v 0.0335246 0.061985 -0.0144132
vn 0.426054 0.862566 -0.27287
v 0.0338386 0.0621379 -0.0133584
vn 0.420913 0.877098 -0.231368
v 0.0351292 0.061985 -0.0111524
vn 0.495821 0.843022 -0.208508
v 0.0340817 0.062262 -0.0123266
vn 0.430741 0.880689 -0.197102
v 0.0374781 0.0609201 -0.0091652
vn 0.545918 0.816252 -0.188962
v 0.0353465 0.0621033 -0.0100975
vn 0.483318 0.858493 -0.171446
v 0.0307541 0.0653238 -0.00190246
vn 0.0235334 0.0567246 0.998112
v 0.0312208 0.065119 -0.00190246
vn 0.0246959 0.0559838 0.998126
v 0.0315456 0.0649747 -0.00190246
vn 0.0469446 0.104178 0.99345
v 0.0315069 0.0649545 -0.00283939
vn 0.414377 0.908925 -0.046337
v 0.0259681 0.0668822 -0.0057206
vn 0.351432 0.929625 -0.110875
v 0.0298958 0.0655201 -0.00450504
vn 0.356042 0.929831 -0.0929904
v 0.0305153 0.06522 -0.00508986
vn 0.368748 0.921794 -0.119674
v 0.0329201 0.0643052 -0.00283939
vn 0.426653 0.902286 -0.0620261
v 0.0329201 0.0641666 -0.00442084
vn 0.430509 0.896936 -0.100835
v 0.0312359 0.0649516 -0.00450504
vn 0.422261 0.901025 -0.0992461
v 0.0248539 0.0670582 -0.00758375
vn 0.327023 0.937713 -0.117258
v 0.0223996 0.0679326 -0.00660242
vn -0.997656 0.067982 -0.00787086
v 0.0234321 0.0673237 -0.0091652
vn 0.281631 0.949266 -0.13992
v 0.0223996 0.067745 -0.00813488
vn -0.990126 0.138984 -0.0182601
v 0.0223996 0.0678172 -0.00758375
vn -0.997631 0.0682774 -0.00835716
v 0.0245614 0.0669543 -0.0091652
vn 0.351351 0.926487 -0.134815
v 0.0303454 0.0651478 -0.00600229
vn 0.385589 0.909345 -0.156245
v 0.0292226 0.0653383 -0.00758375
vn 0.372843 0.914533 -0.156897
v 0.027762 0.0653873 -0.0107451
vn 0.372383 0.91426 -0.15956
v 0.0285536 0.0650641 -0.0107451
vn 0.381101 0.910158 -0.162399
v 0.029756 0.0645533 -0.0107451
vn 0.390052 0.90534 -0.167982
v 0.029756 0.0642359 -0.0123266
vn 0.391541 0.89905 -0.195972
v 0.0305841 0.0636703 -0.0131824
vn 0.400628 0.889851 -0.218316
v 0.0297539 0.0638838 -0.0137886
vn 0.392269 0.889941 -0.23266
v 0.0223996 0.0673583 -0.0107421
vn -0.991984 0.12464 -0.0208043
v 0.0302787 0.0635289 -0.0142357
vn 0.403489 0.882036 -0.24333
v 0.0313499 0.0620225 -0.0175409
vn 0.0926808 0.188405 -0.977708
v 0.0354884 0.0621812 -0.0091652
vn 0.470179 0.873409 -0.12684
v 0.0366543 0.061959 -0.00600229
vn 0.482022 0.86952 -0.107652
v 0.0356906 0.0622851 -0.00758375
vn 0.473129 0.873154 -0.117263
v 0.0338257 0.0637193 -0.00442084
vn 0.477155 0.872816 -0.102548
v 0.0329201 0.0643398 -0.00190246
vn 0.0488988 0.101266 0.993657
v 0.033346 0.0641291 -0.00190246
vn 0.0271151 0.0539687 0.998174
v 0.0316747 0.0618609 -0.0175409
vn 0.0786525 0.147951 -0.985862
v 0.0329201 0.061353 -0.0170709
vn 0.456165 0.836725 -0.302993
v 0.0329675 0.0618494 -0.0156288
vn 0.455617 0.837135 -0.302685
v 0.0329201 0.0628017 -0.0123266
vn 0.408623 0.890125 -0.201756
v 0.0345613 0.0623832 -0.0106732
vn 0.430124 0.885247 -0.177005
v 0.0327674 0.0632518 -0.0105997
vn 0.415444 0.890984 -0.183175
v 0.034499 0.062692 -0.0091652
vn 0.443558 0.885105 -0.140874
v 0.0321221 0.0647121 -0.00190246
vn 0.051551 0.111907 0.992381
v 0.025796 0.0668129 -0.00677388
vn 0.356162 0.925882 -0.126061
v 0.0295538 0.0654624 -0.00600229
vn 0.364425 0.92055 -0.140652
v 0.0313391 0.0647034 -0.00600229
vn 0.419727 0.897141 -0.137726
v 0.0337203 0.0636587 -0.00525673
vn 0.452754 0.882834 -0.124973
v 0.0329954 0.0639329 -0.00587063
vn 0.431067 0.893112 -0.128574
v 0.0223996 0.0676094 -0.0091652
vn -0.99754 0.0693343 -0.0102837
v 0.0330836 0.0633759 -0.0091652
vn 0.415364 0.896187 -0.155952
v 0.0321393 0.0636559 -0.00997506
vn 0.397102 0.903381 -0.161903
v 0.0313628 0.0638809 -0.0105997
vn 0.396614 0.90037 -0.17897
v 0.0319049 0.063552 -0.0110299
vn 0.403903 0.894335 -0.192425
v 0.0308014 0.0637684 -0.0123266
vn 0.404577 0.89255 -0.199177
v 0.0333675 0.0634943 -0.00758375
vn 0.429507 0.892297 -0.139034
v 0.0335697 0.0635837 -0.00631154
vn 0.445709 0.885663 -0.130173
f 1//1 2//2 3//3
f 1//1 3//3 7//7
f 1//1 7//7 15//15
f 1//1 15//15 28//28
f 1//1 28//28 47//47
f 1//1 47//47 73//73
f 1//1 73//73 110//110
f 1//1 110//110 156//156
f 1//1 156//156 159//159
f 1//1 159//159 158//158
f 1//1 158//158 191//191
f 1//1 191//191 169//169
f 1//1 169//169 117//117
f 1//1 117//117 116//116
f 1//1 116//116 79//79
f 1//1 79//79 75//75
f 1//1 75//75 48//48
f 1//1 48//48 29//29
f 1//1 29//29 16//16
f 1//1 16//16 8//8
f 1//1 8//8 4//4
f 1//1 4//4 10//10
f 1//1 10//10 20//20
f 1//1 20//20 36//36
f 1//1 36//36 34//34
f 1//1 34//34 55//55
f 1//1 55//55 84//84
f 1//1 84//84 123//123
f 1//1 123//123 122//122
f 1//1 122//122 121//121
f 1//1 121//121 171//171
f 1//1 171//171 178//178
f 1//1 178//178 138//138
f 1//1 138//138 136//136
f 1//1 136//136 92//92
f 1//1 92//92 61//61
f 1//1 61//61 40//40
f 1//1 40//40 24//24
f 1//1 24//24 12//12
f 1//1 12//12 6//6
f 1//1 6//6 2//2
f 2//2 5//5 3//3
f 2//2 6//6 13//13
f 2//2 13//13 23//23
f 2//2 23//23 39//39
f 2//2 39//39 60//60
f 2//2 60//60 69//69
f 2//2 69//69 103//103
f 2//2 103//103 102//102
f 2//2 102//102 101//101
f 2//2 101//101 85//85
f 2//2 85//85 56//56
f 2//2 56//56 37//37
f 2//2 37//37 21//21
f 2//2 21//21 11//11
f 2//2 11//11 5//5
f 3//3 5//5 11//11
f 3//3 11//11 22//22
f 3//3 22//22 38//38
f 3//3 38//38 59//59
f 3//3 59//59 91//91
f 3//3 91//91 132//132
f 3//3 132//132 131//131
f 3//3 131//131 130//130
f 3//3 130//130 134//134
f 3//3 134//134 177//177
f 3//3 177//177 176//176
f 3//3 176//176 185//185
f 3//3 185//185 147//147
f 3//3 147//147 146//146
f 3//3 146//146 145//145
f 3//3 145//145 104//104
f 3//3 104//104 70//70
f 3//3 70//70 44//44
f 3//3 44//44 26//26
f 3//3 26//26 14//14
f 3//3 14//14 7//7
f 4//4 8//8 9//9
f 4//4 9//9 10//10
f 6//6 12//12 13//13
f 7//7 14//14 15//15
f 8//8 16//16 17//17
f 8//8 17//17 9//9
f 9//9 18//18 19//19
f 9//9 19//19 10//10
f 9//9 17//17 18//18
f 10//10 19//19 20//20
f 11//11 21//21 22//22
f 12//12 23//23 13//13
f 12//12 24//24 25//25
f 12//12 25//25 23//23
f 14//14 26//26 45//45
f 14//14 45//45 27//27
f 14//14 27//27 15//15
f 15//15 27//27 28//28
f 16//16 29//29 17//17
f 17//17 30//30 31//31
f 17//17 31//31 18//18
f 17//17 29//29 30//30
f 18//18 31//31 32//32
f 18//18 32//32 33//33
f 18//18 33//33 34//34
f 18//18 34//34 35//35
f 18//18 35//35 36//36
f 18//18 36//36 20//20
f 18//18 20//20 19//19
f 21//21 37//37 38//38
f 21//21 38//38 22//22
f 23//23 25//25 39//39
f 24//24 40//40 41//41
f 24//24 41//41 25//25
f 25//25 41//41 42//42
f 25//25 42//42 43//43
f 25//25 43//43 39//39
f 26//26 44//44 45//45
f 27//27 46//46 28//28
f 27//27 45//45 46//46
f 28//28 46//46 47//47
f 29//29 48//48 30//30
f 30//30 49//49 31//31
f 30//30 48//48 50//50
f 30//30 50//50 51//51
f 30//30 51//51 49//49
f 31//31 52//52 53//53
f 31//31 53//53 32//32
f 31//31 49//49 52//52
f 32//32 53//53 33//33
f 33//33 53//53 54//54
f 33//33 54//54 34//34
f 34//34 54//54 55//55
f 34//34 36//36 35//35
f 37//37 56//56 57//57
f 37//37 57//57 58//58
f 37//37 58//58 38//38
f 38//38 58//58 59//59
f 39//39 43//43 60//60
f 40//40 61//61 41//41
f 41//41 61//61 62//62
f 41//41 62//62 42//42
f 42//42 63//63 43//43
f 42//42 62//62 64//64
f 42//42 64//64 65//65
f 42//42 65//65 63//63
f 43//43 63//63 66//66
f 43//43 66//66 67//67
f 43//43 67//67 68//68
f 43//43 68//68 69//69
f 43//43 69//69 60//60
f 44//44 70//70 71//71
f 44//44 71//71 45//45
f 45//45 71//71 72//72
f 45//45 72//72 46//46
f 46//46 73//73 47//47
f 46//46 72//72 74//74
f 46//46 74//74 73//73
f 48//48 75//75 50//50
f 49//49 51//51 76//76
f 49//49 76//76 77//77
f 49//49 77//77 78//78
f 49//49 78//78 52//52
f 50//50 75//75 79//79
f 50//50 79//79 80//80
f 50//50 80//80 51//51
f 51//51 80//80 81//81
f 51//51 81//81 76//76
f 52//52 78//78 53//53
f 53//53 78//78 82//82
f 53//53 82//82 54//54
f 54//54 83//83 84//84
f 54//54 84//84 55//55
f 54//54 82//82 83//83
f 56//56 85//85 86//86
f 56//56 86//86 57//57
f 57//57 87//87 88//88
f 57//57 88//88 89//89
f 57//57 89//89 58//58
f 57//57 86//86 87//87
f 58//58 89//89 90//90
f 58//58 90//90 91//91
f 58//58 91//91 59//59
f 61//61 92//92 62//62
f 62//62 92//92 64//64
f 63//63 65//65 93//93
f 63//63 93//93 66//66
f 64//64 94//94 95//95
f 64//64 95//95 96//96
f 64//64 96//96 65//65
f 64//64 92//92 94//94
f 65//65 96//96 97//97
f 65//65 97//97 98//98
f 65//65 98//98 93//93
f 66//66 93//93 67//67
f 67//67 93//93 98//98
f 67//67 98//98 99//99
f 67//67 99//99 100//100
f 67//67 100//100 85//85
f 67//67 85//85 101//101
f 67//67 101//101 102//102
f 67//67 102//102 68//68
f 68//68 102//102 103//103
f 68//68 103//103 69//69
f 70//70 104//104 105//105
f 70//70 105//105 106//106
f 70//70 106//106 71//71
f 71//71 107//107 72//72
f 71//71 106//106 108//108
f 71//71 108//108 107//107
f 72//72 107//107 109//109
f 72//72 109//109 74//74
f 73//73 74//74 110//110
f 74//74 109//109 111//111
f 74//74 111//111 110//110
f 76//76 81//81 112//112
f 76//76 112//112 77//77
f 77//77 112//112 113//113
f 77//77 113//113 114//114
f 77//77 114//114 115//115
f 77//77 115//115 78//78
f 78//78 115//115 82//82
f 79//79 116//116 80//80
f 80//80 116//116 117//117
f 80//80 117//117 118//118
f 80//80 118//118 81//81
f 81//81 118//118 112//112
f 82//82 119//119 83//83
f 82//82 115//115 119//119
f 83//83 119//119 120//120
f 83//83 120//120 121//121
f 83//83 121//121 122//122
f 83//83 122//122 123//123
f 83//83 123//123 84//84
f 85//85 100//100 124//124
f 85//85 124//124 125//125
f 85//85 125//125 86//86
f 86//86 125//125 87//87
f 87//87 125//125 88//88
f 88//88 125//125 126//126
f 88//88 126//126 127//127
f 88//88 127//127 128//128
f 88//88 128//128 89//89
f 89//89 128//128 129//129
f 89//89 129//129 90//90
f 90//90 130//130 131//131
f 90//90 131//131 132//132
f 90//90 132//132 91//91
f 90//90 129//129 133//133
f 90//90 133//133 134//134
f 90//90 134//134 130//130
f 92//92 135//135 94//94
f 92//92 136//136 135//135
f 94//94 137//137 95//95
f 94//94 135//135 137//137
f 95//95 138//138 139//139
f 95//95 139//139 96//96
f 95//95 137//137 138//138
f 96//96 139//139 140//140
f 96//96 140//140 97//97
f 97//97 141//141 98//98
f 97//97 140//140 142//142
f 97//97 142//142 141//141
f 98//98 141//141 99//99
f 99//99 143//143 100//100
f 99//99 141//141 144//144
f 99//99 144//144 126//126
f 99//99 126//126 143//143
f 100//100 143//143 124//124
f 104//104 145//145 105//105
f 105//105 145//145 146//146
f 105//105 146//146 147//147
f 105//105 147//147 148//148
f 105//105 148//148 108//108
f 105//105 108//108 106//106
f 107//107 149//149 109//109
f 107//107 108//108 150//150
f 107//107 150//150 151//151
f 107//107 151//151 149//149
f 108//108 151//151 150//150
f 108//108 148//148 152//152
f 108//108 152//152 153//153
f 108//108 153//153 154//154
f 108//108 154//154 151//151
f 109//109 149//149 155//155
f 109//109 155//155 111//111
f 110//110 111//111 156//156
f 111//111 157//157 158//158
f 111//111 158//158 159//159
f 111//111 159//159 156//156
f 111//111 155//155 160//160
f 111//111 160//160 157//157
f 112//112 118//118 157//157
f 112//112 157//157 160//160
f 112//112 160//160 161//161
f 112//112 161//161 162//162
f 112//112 162//162 163//163
f 112//112 163//163 113//113
f 113//113 163//163 164//164
f 113//113 164//164 165//165
f 113//113 165//165 114//114
f 114//114 165//165 166//166
f 114//114 166//166 115//115
f 115//115 166//166 167//167
f 115//115 167//167 168//168
f 115//115 168//168 119//119
f 117//117 169//169 118//118
f 118//118 169//169 157//157
f 119//119 168//168 170//170
f 119//119 170//170 139//139
f 119//119 139//139 120//120
f 120//120 139//139 121//121
f 121//121 139//139 171//171
f 124//124 143//143 125//125
f 125//125 143//143 126//126
f 126//126 144//144 172//172
f 126//126 172//172 127//127
f 127//127 173//173 128//128
f 127//127 172//172 174//174
f 127//127 174//174 175//175
f 127//127 175//175 173//173
f 128//128 173//173 175//175
f 128//128 175//175 129//129
f 129//129 175//175 133//133
f 133//133 175//175 153//153
f 133//133 153//153 152//152
f 133//133 152//152 176//176
f 133//133 176//176 177//177
f 133//133 177//177 134//134
f 135//135 136//136 137//137
f 136//136 138//138 137//137
f 138//138 178//178 179//179
f 138//138 179//179 139//139
f 139//139 179//179 180//180
f 139//139 180//180 178//178
f 139//139 178//178 171//171
f 139//139 170//170 140//140
f 140//140 170//170 167//167
f 140//140 167//167 181//181
f 140//140 181//181 142//142
f 141//141 142//142 182//182
f 141//141 182//182 144//144
f 142//142 181//181 183//183
f 142//142 183//183 182//182
f 144//144 182//182 184//184
f 144//144 184//184 172//172
f 147//147 185//185 148//148
f 148//148 185//185 152//152
f 149//149 186//186 155//155
f 149//149 151//151 186//186
f 151//151 161//161 187//187
f 151//151 187//187 160//160
f 151//151 160//160 186//186
f 151//151 154//154 153//153
f 151//151 153//153 188//188
f 151//151 188//188 161//161
f 152//152 185//185 176//176
f 153//153 175//175 189//189
f 153//153 189//189 190//190
f 153//153 190//190 188//188
f 155//155 186//186 160//160
f 157//157 169//169 191//191
f 157//157 191//191 158//158
f 160//160 187//187 161//161
f 161//161 188//188 192//192
f 161//161 192//192 193//193
f 161//161 193//193 165//165
f 161//161 165//165 164//164
f 161//161 164//164 162//162
f 162//162 164//164 163//163
f 165//165 193//193 194//194
f 165//165 194//194 166//166
f 166//166 194//194 195//195
f 166//166 195//195 196//196
f 166//166 196//196 167//167
f 167//167 196//196 181//181
f 167//167 170//170 168//168
f 172//172 184//184 189//189
f 172//172 189//189 175//175
f 172//172 175//175 174//174
f 178//178 180//180 179//179
f 181//181 195//195 183//183
f 181//181 196//196 195//195
f 182//182 183//183 192//192
f 182//182 192//192 184//184
f 183//183 195//195 194//194
f 183//183 194//194 193//193
f 183//183 193//193 192//192
f 184//184 192//192 197//197
f 184//184 197//197 198//198
f 184//184 198//198 189//189
f 188//188 190//190 197//197
f 188//188 197//197 192//192
f 189//189 198//198 190//190
f 190//190 198//198 197//197
