# Created by Open3D 
# object name: part_033
# number of vertices: 192
# number of triangles: 380
v 0.00445336 0.0713219 -0.00224906
vn -2.32672e-05 0.00350679 0.999994
v 0.00445336 0.071318 -0.00283888
vn 0.00453709 0.99884 -0.0479337
v 0.00287207 0.0712904 -0.00283888
vn -0.0283794 0.998682 -0.042774
v 0.00287207 0.0712885 -0.00224906
vn -0.0339741 0.999176 0.0222153
v 0.00603465 0.0712924 -0.00224906
vn 0.0260329 0.999613 0.00978022
v 0.00445336 0.0712176 -0.00441972
vn -0.00356925 0.996508 -0.0834223
v 0.00287207 0.0712019 -0.00441972
vn -0.0192687 0.997747 -0.0642644
v 0.00603465 0.0712865 -0.00283888
vn 0.0352243 0.998985 -0.0280892
v 0.00603465 0.0712058 -0.00441972
vn 0.0136565 0.997979 -0.0620612
v -0.00149753 0.0709993 -0.00600205
vn -0.999049 0.0435308 -0.00243671
v -0.00149753 0.071076 -0.00441972
vn -0.0418026 0.998498 -0.0354139
v 0.00129078 0.0712275 -0.00283888
vn -0.0410127 0.999074 -0.013
v 0.00129078 0.0712235 -0.00224906
vn -0.0422158 0.997773 0.0516406
v 0.00702647 0.0712452 -0.00224906
vn 0.0496625 0.998095 0.0366129
v 0.00761594 0.071078 -0.00600205
vn 0.0212425 0.996114 -0.0854773
v 0.00603465 0.0710799 -0.00600205
vn -0.0028224 0.995484 -0.0948878
v -0.000290509 0.0709049 -0.00758289
vn -0.00356763 0.994956 -0.10025
v -0.00149753 0.070899 -0.00758289
vn -0.0150417 0.996619 -0.0807763
v 0.00761594 0.0712098 -0.00283888
vn 0.0627502 0.997922 -0.0146495
v 0.00761594 0.0711744 -0.00441972
vn 0.0409747 0.998104 -0.0459343
v -0.00149753 0.0711075 -0.00283888
vn -0.0998739 0.99492 -0.0126227
v -0.000290509 0.0711606 -0.00283888
vn -0.0429919 0.999039 -0.00854247
v -0.00149753 0.0711035 -0.00224906
vn -0.533961 0.0211703 0.845244
v 0.00761594 0.0712117 -0.00224906
vn 0.074105 0.992856 0.0935191
v 0.00761594 0.0709049 -0.00758289
vn 0.0355572 0.991396 -0.125974
v 0.00603465 0.0709206 -0.00758289
vn 0.000741633 0.993406 -0.114646
v 0.00919723 0.0709914 -0.00600205
vn 0.069456 0.993886 -0.0858259
v -0.000290509 0.0707259 -0.00916522
vn -0.000569205 0.990439 -0.137953
v -0.00149753 0.0708557 -0.00796013
vn -0.078924 0.990143 -0.115704
v 0.00919723 0.0710858 -0.00283888
vn 0.0961004 0.995371 -0.00133079
v 0.00919723 0.071076 -0.00441972
vn 0.0824646 0.996132 -0.0303522
v -0.00149753 0.0553139 -0.00224906
vn -0.48122 -0.503763 0.717391
v 0.00860776 0.0711331 -0.00224906
vn 0.0792077 0.964751 0.250962
v 0.00761594 0.0706688 -0.00916522
vn 0.0424737 0.984822 -0.168293
v 0.00603465 0.0707101 -0.00916522
vn 0.00695719 0.98688 -0.161307
v 0.00919723 0.0708144 -0.00758289
vn 0.0662183 0.98886 -0.133308
v 0.0107762 0.0708498 -0.00600205
vn 0.106984 0.991624 -0.0723603
v 0.0107762 0.0706865 -0.00758289
vn 0.0966874 0.986595 -0.131464
v -0.000290509 0.0704505 -0.0107446
vn 5.15862e-05 0.981217 -0.192909
v -0.00149753 0.0707141 -0.00916522
vn -0.0641561 0.986443 -0.151046
v 0.010189 0.0709718 -0.00224906
vn 0.108452 0.961927 0.250868
v 0.0107762 0.0709088 -0.00283888
vn 0.128033 0.991751 0.00611971
v 0.0107762 0.0709147 -0.00441972
vn 0.117832 0.992865 -0.0183204
v 0.00919723 0.0710819 -0.00224906
vn 0.0936256 0.917867 0.385687
v -0.00149753 0.0542242 -0.017541
vn -0.451695 -0.657527 -0.603017
v 0.0223996 0.0523142 -0.00224906
vn 0.34601 -0.659765 0.667074
v 0.00761594 0.070362 -0.0107446
vn 0.0491169 0.977599 -0.204663
v 0.00603465 0.0704131 -0.0107446
vn 0.0129215 0.977901 -0.208671
v 0.00919723 0.0705764 -0.00916522
vn 0.0709475 0.982576 -0.171785
v 0.0123575 0.0706531 -0.00600205
vn 0.135586 0.989077 -0.0578115
v 0.0123575 0.0705016 -0.00758289
vn 0.134782 0.983764 -0.118501
v 0.0107762 0.0704406 -0.00916522
vn 0.096669 0.978657 -0.181342
v 0.0123575 0.0702597 -0.00916522
vn 0.123775 0.979341 -0.159912
v 0.00129078 0.0701318 -0.0121383
vn 0.00765253 0.973238 -0.229672
v -0.000290509 0.0701318 -0.0121353
vn -0.0177834 0.971807 -0.235105
v -0.00149753 0.0703384 -0.0110754
vn -0.23571 0.946543 -0.220219
v -0.00149753 0.0704131 -0.0107446
vn -0.312959 0.931095 -0.187399
v -0.00149753 0.0706472 -0.00954097
vn -0.277508 0.943741 -0.17984
v 0.0107762 0.0709029 -0.00224906
vn 0.106742 0.809509 0.577323
v 0.0117703 0.0707632 -0.00224906
vn 0.129053 0.91807 0.374823
v 0.0123575 0.0706865 -0.00283888
vn 0.145679 0.989291 0.00899241
v 0.0123575 0.0707003 -0.00441972
vn 0.143617 0.989576 -0.0106656
v 0.0223996 0.0512284 -0.017541
vn 0.336991 -0.712369 -0.615604
v -0.00149753 0.0686487 -0.017541
vn -0.994375 0.00676009 -0.105702
v 0.0223996 0.0682828 -0.00224906
vn 0.0383669 0.0185844 0.999091
v 0.00761594 0.0700826 -0.0119272
vn 0.0456738 0.969075 -0.242503
v 0.00919723 0.0702616 -0.0107446
vn 0.0761021 0.974348 -0.211788
v 0.00603465 0.0701062 -0.0120006
vn 0.0167965 0.967694 -0.251568
v 0.0139388 0.0704151 -0.00600205
vn 0.162101 0.985193 -0.0558458
v 0.0139388 0.0702616 -0.00758289
vn 0.16503 0.979575 -0.114881
v 0.0138288 0.070059 -0.00904696
vn 0.154531 0.976053 -0.153106
v 0.0106826 0.0701121 -0.0108074
vn 0.09604 0.974575 -0.202435
v 0.0123575 0.0700472 -0.0102775
vn 0.108034 0.974099 -0.198647
v 0.0132276 0.0699941 -0.0100185
vn 0.154365 0.966949 -0.202931
v 0.00129078 0.0699312 -0.0129287
vn 0.00935797 0.965154 -0.261517
v -0.000290509 0.0699292 -0.0129272
vn -0.0205072 0.966462 -0.255988
v -0.00149753 0.0699095 -0.0128344
vn -0.371916 0.899556 -0.229079
v -0.00149753 0.0701062 -0.0120425
vn -0.450979 0.867138 -0.211399
v 0.0123575 0.0706806 -0.00224906
vn 0.149744 0.953686 0.260883
v 0.0139388 0.0704564 -0.00441972
vn 0.160194 0.987084 -0.00166279
v 0.0223996 0.0655289 -0.017541
vn 0.542614 0.00131306 -0.839981
v -0.00149753 0.0687844 -0.0170709
vn -0.225494 0.939846 -0.256598
v -0.000290509 0.0687982 -0.0170709
vn 0.00644125 0.962939 -0.269642
v -0.000290509 0.0686585 -0.017541
vn 0.000176708 0.032222 -0.999481
v 0.0218288 0.0684539 -0.00224906
vn 0.273732 0.935281 0.224321
v 0.0223996 0.0682572 -0.00283888
vn 0.947156 0.320413 -0.0152192
v 0.0163668 0.0699981 -0.00539127
vn 0.286086 0.955822 -0.0675199
v 0.00761594 0.0695614 -0.0139077
vn 0.0329239 0.96536 -0.258836
v 0.00919723 0.0700276 -0.0117251
vn 0.0699876 0.969456 -0.235066
v 0.00919723 0.0698328 -0.0125155
vn 0.0643143 0.96801 -0.242527
v 0.00919723 0.0694807 -0.0139077
vn 0.056536 0.964485 -0.258016
v 0.0111458 0.069945 -0.0113763
vn 0.10079 0.970598 -0.218587
v 0.0106826 0.0698014 -0.0121892
vn 0.0899595 0.968784 -0.231009
v 0.00603465 0.0691778 -0.0154886
vn 0.0163313 0.965673 -0.259248
v 0.0155224 0.070183 -0.00441972
vn 0.17951 0.983756 0.000515885
v 0.0155902 0.070118 -0.00595115
vn 0.188011 0.97806 -0.0897236
v 0.0150522 0.0700571 -0.00758289
vn 0.202459 0.972243 -0.117276
v 0.0147785 0.0699902 -0.00844067
vn 0.204672 0.965734 -0.159583
v 0.0142826 0.0698958 -0.00949456
vn 0.211894 0.955806 -0.203805
v 0.0123575 0.0698741 -0.0110694
vn 0.119597 0.968491 -0.218452
v 0.0138288 0.0697364 -0.0106248
vn 0.196913 0.952849 -0.230877
v 0.0123575 0.069585 -0.0123269
vn 0.141554 0.961018 -0.237502
v -0.000290509 0.0692348 -0.0154886
vn -0.00463801 0.964535 -0.263915
v -0.000290509 0.0696637 -0.0139077
vn -0.00826033 0.96513 -0.261642
v 0.00603465 0.068745 -0.0170709
vn 0.0118652 0.96359 -0.26712
v -0.00149753 0.0692093 -0.0154886
vn -0.532431 0.817615 -0.219139
v -0.00149753 0.0696322 -0.0139077
vn -0.518533 0.826766 -0.218131
v 0.0133516 0.0705213 -0.00224906
vn 0.152152 0.941664 0.300199
v 0.0139388 0.0704347 -0.00283888
vn 0.16965 0.985373 0.0160726
v 0.0218476 0.0658712 -0.0170709
vn 0.280993 0.911765 -0.299544
v 0.0223996 0.065702 -0.017041
vn 0.999505 0.0298621 -0.00991328
v 0.0218125 0.0657197 -0.017541
vn 0.00774014 0.0248311 -0.999662
v 0.00603465 0.0686073 -0.017541
vn 0.00232391 0.0822881 -0.996606
v 0.0215364 0.0685385 -0.00224906
vn 0.227851 0.789484 0.569911
v 0.0163926 0.070004 -0.00441972
vn 0.264869 0.964279 -0.003104
v 0.0223996 0.0682474 -0.00299457
vn 0.947422 0.319185 -0.0226388
v 0.0161657 0.069941 -0.00644516
vn 0.292105 0.948706 -0.120959
v 0.0223996 0.0681451 -0.00441972
vn 0.947462 0.318976 -0.0238898
v 0.0223996 0.0681136 -0.0047805
vn 0.9476 0.318165 -0.0287223
v 0.0223996 0.0680035 -0.00598858
vn 0.947663 0.317743 -0.0312195
v 0.0223996 0.0679346 -0.00660235
vn 0.882135 0.46784 -0.0544389
v 0.00761594 0.0691286 -0.0154886
vn 0.0490114 0.960378 -0.274357
v 0.0107762 0.0693765 -0.0139077
vn 0.0894235 0.96286 -0.254763
v 0.00919723 0.0690381 -0.0154886
vn 0.063322 0.958046 -0.279531
v 0.0156627 0.070118 -0.00276852
vn 0.187984 0.981795 0.0272119
v 0.0163668 0.0699941 -0.00324906
vn 0.2326 0.972349 0.0208553
v 0.0139388 0.070421 -0.00224906
vn 0.166697 0.919327 0.356441
v 0.0150709 0.0702144 -0.00224906
vn 0.167955 0.914353 0.368442
v 0.0158429 0.0698623 -0.00758289
vn 0.27519 0.947967 -0.160089
v 0.0153914 0.0697246 -0.00904696
vn 0.261315 0.944854 -0.197397
v 0.0155224 0.0693194 -0.0107446
vn 0.248386 0.942092 -0.225315
v 0.0139388 0.0692919 -0.0123269
vn 0.2043 0.946921 -0.248196
v 0.0123575 0.0691719 -0.0139077
vn 0.159279 0.948145 -0.275049
v 0.0223996 0.0662351 -0.0154137
vn 0.998381 0.0542383 -0.0171122
v 0.0201657 0.0662252 -0.017541
vn 0.014185 0.0471608 -0.998787
v 0.0201095 0.0664455 -0.0169152
vn 0.272794 0.915663 -0.295203
v 0.0217212 0.0664632 -0.0153628
vn 0.278478 0.916433 -0.287403
v 0.00767208 0.0686132 -0.0172071
vn 0.0558765 0.956241 -0.287194
v 0.00797618 0.0684913 -0.017541
vn 0.00254542 0.0417518 -0.999125
v 0.0202663 0.0689024 -0.00224906
vn 0.0773139 0.272026 0.959179
v 0.018685 0.0693568 -0.00283888
vn 0.273388 0.961904 0.000262289
v 0.018685 0.0693489 -0.00224906
vn 0.18982 0.696214 0.692282
v 0.0171037 0.0694827 -0.00758289
vn 0.288764 0.945658 -0.149488
v 0.0223996 0.0678166 -0.00758289
vn 0.945015 0.324435 -0.0410866
v 0.0223996 0.06761 -0.00916522
vn 0.930856 0.361621 -0.0523151
v 0.0107762 0.0689142 -0.0154886
vn 0.104481 0.951724 -0.288626
v 0.00919723 0.0686014 -0.0169407
vn 0.0675332 0.954596 -0.290147
v 0.0155739 0.0701161 -0.00224906
vn 0.0904123 0.460916 0.882826
v 0.0162241 0.0699882 -0.00224906
vn 0.159502 0.80066 0.577497
v 0.0162896 0.0699745 -0.00224906
vn 0.13186 0.574969 0.80748
v 0.0163528 0.0699587 -0.00224906
vn 0.128362 0.512102 0.849279
v 0.0170195 0.0697915 -0.00224906
vn 0.104002 0.40056 0.910349
v 0.0169774 0.0698191 -0.00276852
vn 0.256724 0.966074 0.0281837
v 0.0223996 0.0673583 -0.0107416
vn 0.887351 0.454609 -0.0770607
v 0.0171037 0.0692132 -0.00916522
vn 0.275448 0.944483 -0.179109
v 0.0223996 0.0670514 -0.0123164
vn 0.901431 0.424117 -0.0868757
v 0.0223996 0.0669334 -0.0128778
vn 0.756258 0.639338 -0.138999
v 0.016444 0.0684342 -0.013255
vn 0.242962 0.938736 -0.244425
v 0.0155224 0.0689122 -0.0123269
vn 0.230091 0.94089 -0.248565
v 0.0223996 0.0668409 -0.013282
vn 0.833782 0.537036 -0.128064
v 0.021492 0.0669373 -0.0139077
vn 0.254118 0.93965 -0.229088
v 0.0211107 0.0668311 -0.014752
vn 0.247866 0.935702 -0.251047
v 0.0154078 0.0685326 -0.0138329
vn 0.22218 0.940339 -0.257677
v 0.0139388 0.0688532 -0.0139077
vn 0.203089 0.941158 -0.270141
v 0.0123785 0.0686506 -0.0155634
vn 0.184094 0.936364 -0.298883
v 0.0118639 0.0684559 -0.0164631
vn 0.148667 0.942105 -0.300562
v 0.0139388 0.068507 -0.015029
vn 0.190395 0.936042 -0.295932
v 0.0223996 0.0666304 -0.0140664
vn 0.99582 0.0876679 -0.0256205
v 0.018685 0.0666619 -0.017541
vn 0.0304625 0.106314 -0.993866
v 0.0205329 0.0666737 -0.0158059
vn 0.266252 0.920116 -0.287221
v 0.00864518 0.06845 -0.017541
vn 0.00250405 0.0398574 -0.999202
v 0.0107762 0.0685306 -0.0167086
vn 0.105902 0.948438 -0.298748
v 0.00919723 0.0684146 -0.017541
vn 0.012973 0.145212 -0.989316
v 0.0223996 0.0672363 -0.0113793
vn 0.958954 0.278327 -0.0542324
v 0.0158592 0.0682946 -0.0143104
vn 0.226293 0.93741 -0.264677
v 0.0170241 0.0681294 -0.0138329
vn 0.239485 0.936568 -0.255903
v 0.0223996 0.0667465 -0.0136503
vn 0.997845 0.0635209 -0.0164216
v 0.0222826 0.0667131 -0.0139077
vn 0.280389 0.924605 -0.257851
v 0.018685 0.0666914 -0.0174422
vn 0.249449 0.929014 -0.273327
v 0.018685 0.0669235 -0.0166517
vn 0.240097 0.933575 -0.266067
v 0.0171037 0.0676553 -0.0154886
vn 0.237195 0.935592 -0.261545
v 0.0148066 0.0684146 -0.014752
vn 0.20492 0.935768 -0.286959
v 0.0128768 0.067913 -0.017541
vn 0.0276098 0.141575 -0.989542
v 0.0143996 0.06761 -0.017541
vn 0.0419105 0.207321 -0.977375
v 0.0123715 0.0680074 -0.017541
vn 0.0109974 0.0652446 -0.997809
v 0.0107762 0.068267 -0.017541
vn 0.00940261 0.058032 -0.99827
v 0.0107762 0.0682808 -0.0174991
vn 0.123824 0.946002 -0.29958
v 0.0155247 0.0673779 -0.017541
vn 0.0404228 0.193445 -0.980278
v 0.0223996 0.0666757 -0.0139077
vn 0.999976 0.00662635 -0.00184794
v 0.0184651 0.0667209 -0.017541
vn 0.0126788 0.049748 -0.998681
v 0.0104885 0.0682946 -0.017541
vn 0.0050084 0.0537829 -0.99854
v 0.0175598 0.0669491 -0.017541
vn 0.0623596 0.270553 -0.960683
f 1//1 2//2 3//3
f 1//1 3//3 4//4
f 1//1 4//4 13//13
f 1//1 13//13 23//23
f 1//1 23//23 32//32
f 1//1 32//32 46//46
f 1//1 46//46 65//65
f 1//1 65//65 85//85
f 1//1 85//85 114//114
f 1//1 114//114 140//140
f 1//1 140//140 142//142
f 1//1 142//142 152//152
f 1//1 152//152 151//151
f 1//1 151//151 150//150
f 1//1 150//150 149//149
f 1//1 149//149 148//148
f 1//1 148//148 128//128
f 1//1 128//128 127//127
f 1//1 127//127 108//108
f 1//1 108//108 79//79
f 1//1 79//79 60//60
f 1//1 60//60 59//59
f 1//1 59//59 41//41
f 1//1 41//41 44//44
f 1//1 44//44 33//33
f 1//1 33//33 24//24
f 1//1 24//24 14//14
f 1//1 14//14 5//5
f 1//1 5//5 2//2
f 2//2 6//6 7//7
f 2//2 7//7 3//3
f 2//2 5//5 8//8
f 2//2 8//8 20//20
f 2//2 20//20 9//9
f 2//2 9//9 6//6
f 3//3 7//7 10//10
f 3//3 10//10 11//11
f 3//3 11//11 12//12
f 3//3 12//12 4//4
f 4//4 12//12 13//13
f 5//5 14//14 8//8
f 6//6 9//9 15//15
f 6//6 15//15 16//16
f 6//6 16//16 17//17
f 6//6 17//17 18//18
f 6//6 18//18 7//7
f 7//7 18//18 10//10
f 8//8 14//14 19//19
f 8//8 19//19 20//20
f 9//9 20//20 15//15
f 10//10 18//18 29//29
f 10//10 29//29 40//40
f 10//10 40//40 58//58
f 10//10 58//58 57//57
f 10//10 57//57 56//56
f 10//10 56//56 78//78
f 10//10 78//78 77//77
f 10//10 77//77 107//107
f 10//10 107//107 106//106
f 10//10 106//106 82//82
f 10//10 82//82 64//64
f 10//10 64//64 45//45
f 10//10 45//45 32//32
f 10//10 32//32 23//23
f 10//10 23//23 21//21
f 10//10 21//21 11//11
f 11//11 21//21 22//22
f 11//11 22//22 12//12
f 12//12 22//22 13//13
f 13//13 22//22 23//23
f 14//14 24//24 19//19
f 15//15 25//25 26//26
f 15//15 26//26 16//16
f 15//15 20//20 27//27
f 15//15 27//27 25//25
f 16//16 26//26 17//17
f 17//17 28//28 18//18
f 17//17 26//26 28//28
f 18//18 28//28 29//29
f 19//19 24//24 30//30
f 19//19 30//30 31//31
f 19//19 31//31 20//20
f 20//20 31//31 27//27
f 21//21 23//23 22//22
f 24//24 33//33 30//30
f 25//25 34//34 35//35
f 25//25 35//35 26//26
f 25//25 27//27 36//36
f 25//25 36//36 34//34
f 26//26 35//35 28//28
f 27//27 31//31 37//37
f 27//27 37//37 38//38
f 27//27 38//38 36//36
f 28//28 39//39 40//40
f 28//28 40//40 29//29
f 28//28 35//35 39//39
f 30//30 41//41 42//42
f 30//30 42//42 43//43
f 30//30 43//43 31//31
f 30//30 33//33 44//44
f 30//30 44//44 41//41
f 31//31 43//43 37//37
f 32//32 45//45 46//46
f 34//34 47//47 48//48
f 34//34 48//48 35//35
f 34//34 36//36 49//49
f 34//34 49//49 47//47
f 35//35 48//48 39//39
f 36//36 38//38 49//49
f 37//37 43//43 50//50
f 37//37 50//50 51//51
f 37//37 51//51 38//38
f 38//38 52//52 49//49
f 38//38 51//51 53//53
f 38//38 53//53 52//52
f 39//39 54//54 55//55
f 39//39 55//55 56//56
f 39//39 56//56 57//57
f 39//39 57//57 58//58
f 39//39 58//58 40//40
f 39//39 48//48 54//54
f 41//41 59//59 42//42
f 42//42 59//59 60//60
f 42//42 60//60 61//61
f 42//42 61//61 62//62
f 42//42 62//62 43//43
f 43//43 62//62 50//50
f 45//45 63//63 46//46
f 45//45 64//64 84//84
f 45//45 84//84 113//113
f 45//45 113//113 139//139
f 45//45 139//139 171//171
f 45//45 171//171 173//173
f 45//45 173//173 191//191
f 45//45 191//191 186//186
f 45//45 186//186 185//185
f 45//45 185//185 183//183
f 45//45 183//183 184//184
f 45//45 184//184 188//188
f 45//45 188//188 192//192
f 45//45 192//192 190//190
f 45//45 190//190 169//169
f 45//45 169//169 135//135
f 45//45 135//135 112//112
f 45//45 112//112 81//81
f 45//45 81//81 63//63
f 46//46 63//63 81//81
f 46//46 81//81 111//111
f 46//46 111//111 134//134
f 46//46 134//134 168//168
f 46//46 168//168 189//189
f 46//46 189//189 177//177
f 46//46 177//177 160//160
f 46//46 160//160 157//157
f 46//46 157//157 156//156
f 46//46 156//156 174//174
f 46//46 174//174 154//154
f 46//46 154//154 145//145
f 46//46 145//145 144//144
f 46//46 144//144 121//121
f 46//46 121//121 120//120
f 46//46 120//120 119//119
f 46//46 119//119 118//118
f 46//46 118//118 116//116
f 46//46 116//116 86//86
f 46//46 86//86 65//65
f 47//47 66//66 48//48
f 47//47 49//49 67//67
f 47//47 67//67 66//66
f 48//48 66//66 68//68
f 48//48 68//68 54//54
f 49//49 52//52 67//67
f 50//50 62//62 69//69
f 50//50 69//69 51//51
f 51//51 69//69 70//70
f 51//51 70//70 71//71
f 51//51 71//71 53//53
f 52//52 72//72 67//67
f 52//52 53//53 73//73
f 52//52 73//73 72//72
f 53//53 71//71 74//74
f 53//53 74//74 73//73
f 54//54 75//75 55//55
f 54//54 68//68 75//75
f 55//55 76//76 77//77
f 55//55 77//77 78//78
f 55//55 78//78 56//56
f 55//55 75//75 76//76
f 60//60 79//79 61//61
f 61//61 79//79 80//80
f 61//61 80//80 62//62
f 62//62 80//80 69//69
f 64//64 82//82 83//83
f 64//64 83//83 84//84
f 65//65 86//86 87//87
f 65//65 87//87 85//85
f 66//66 88//88 68//68
f 66//66 67//67 89//89
f 66//66 89//89 90//90
f 66//66 90//90 91//91
f 66//66 91//91 88//88
f 67//67 72//72 92//92
f 67//67 92//92 93//93
f 67//67 93//93 89//89
f 68//68 88//88 94//94
f 68//68 94//94 75//75
f 69//69 80//80 95//95
f 69//69 95//95 87//87
f 69//69 87//87 96//96
f 69//69 96//96 70//70
f 70//70 96//96 97//97
f 70//70 97//97 98//98
f 70//70 98//98 71//71
f 71//71 98//98 99//99
f 71//71 99//99 74//74
f 72//72 73//73 92//92
f 73//73 74//74 100//100
f 73//73 100//100 92//92
f 74//74 101//101 102//102
f 74//74 102//102 100//100
f 74//74 99//99 101//101
f 75//75 83//83 103//103
f 75//75 103//103 104//104
f 75//75 104//104 76//76
f 75//75 94//94 105//105
f 75//75 105//105 83//83
f 76//76 104//104 82//82
f 76//76 82//82 106//106
f 76//76 106//106 107//107
f 76//76 107//107 77//77
f 79//79 108//108 80//80
f 80//80 108//108 109//109
f 80//80 109//109 95//95
f 81//81 110//110 111//111
f 81//81 112//112 110//110
f 82//82 104//104 103//103
f 82//82 103//103 83//83
f 83//83 105//105 113//113
f 83//83 113//113 84//84
f 85//85 87//87 115//115
f 85//85 115//115 114//114
f 86//86 116//116 87//87
f 87//87 117//117 96//96
f 87//87 95//95 115//115
f 87//87 116//116 118//118
f 87//87 118//118 119//119
f 87//87 119//119 120//120
f 87//87 120//120 121//121
f 87//87 121//121 117//117
f 88//88 122//122 105//105
f 88//88 105//105 94//94
f 88//88 91//91 122//122
f 89//89 93//93 123//123
f 89//89 123//123 90//90
f 90//90 123//123 91//91
f 91//91 123//123 124//124
f 91//91 124//124 122//122
f 92//92 100//100 102//102
f 92//92 102//102 93//93
f 93//93 102//102 123//123
f 95//95 125//125 126//126
f 95//95 126//126 115//115
f 95//95 109//109 127//127
f 95//95 127//127 128//128
f 95//95 128//128 125//125
f 96//96 117//117 97//97
f 97//97 117//117 129//129
f 97//97 129//129 98//98
f 98//98 129//129 130//130
f 98//98 130//130 99//99
f 99//99 130//130 131//131
f 99//99 131//131 101//101
f 101//101 132//132 102//102
f 101//101 131//131 132//132
f 102//102 132//132 133//133
f 102//102 133//133 123//123
f 105//105 122//122 113//113
f 108//108 127//127 109//109
f 110//110 134//134 111//111
f 110//110 112//112 135//135
f 110//110 135//135 136//136
f 110//110 136//136 137//137
f 110//110 137//137 134//134
f 113//113 122//122 138//138
f 113//113 138//138 139//139
f 114//114 115//115 141//141
f 114//114 141//141 140//140
f 115//115 126//126 142//142
f 115//115 142//142 141//141
f 117//117 143//143 129//129
f 117//117 121//121 144//144
f 117//117 144//144 145//145
f 117//117 145//145 143//143
f 122//122 124//124 138//138
f 123//123 146//146 124//124
f 123//123 133//133 146//146
f 124//124 146//146 147//147
f 124//124 147//147 138//138
f 125//125 128//128 148//148
f 125//125 148//148 149//149
f 125//125 149//149 126//126
f 126//126 149//149 150//150
f 126//126 150//150 151//151
f 126//126 151//151 152//152
f 126//126 152//152 153//153
f 126//126 153//153 142//142
f 129//129 143//143 154//154
f 129//129 154//154 155//155
f 129//129 155//155 130//130
f 130//130 155//155 156//156
f 130//130 156//156 157//157
f 130//130 157//157 131//131
f 131//131 158//158 159//159
f 131//131 159//159 132//132
f 131//131 157//157 160//160
f 131//131 160//160 161//161
f 131//131 161//161 162//162
f 131//131 162//162 158//158
f 132//132 163//163 164//164
f 132//132 164//164 133//133
f 132//132 159//159 163//163
f 133//133 165//165 166//166
f 133//133 166//166 146//146
f 133//133 164//164 167//167
f 133//133 167//167 165//165
f 134//134 137//137 168//168
f 135//135 169//169 136//136
f 136//136 169//169 170//170
f 136//136 170//170 137//137
f 137//137 170//170 162//162
f 137//137 162//162 168//168
f 138//138 147//147 139//139
f 139//139 147//147 171//171
f 140//140 141//141 142//142
f 142//142 153//153 152//152
f 143//143 145//145 154//154
f 146//146 172//172 173//173
f 146//146 173//173 147//147
f 146//146 166//166 172//172
f 147//147 173//173 171//171
f 154//154 174//174 155//155
f 155//155 174//174 156//156
f 158//158 175//175 159//159
f 158//158 162//162 176//176
f 158//158 176//176 175//175
f 159//159 175//175 163//163
f 160//160 177//177 162//162
f 160//160 162//162 161//161
f 162//162 177//177 178//178
f 162//162 178//178 168//168
f 162//162 170//170 169//169
f 162//162 169//169 179//179
f 162//162 179//179 180//180
f 162//162 180//180 181//181
f 162//162 181//181 176//176
f 163//163 175//175 164//164
f 164//164 175//175 182//182
f 164//164 182//182 167//167
f 165//165 183//183 166//166
f 165//165 167//167 184//184
f 165//165 184//184 183//183
f 166//166 183//183 185//185
f 166//166 185//185 186//186
f 166//166 186//186 187//187
f 166//166 187//187 172//172
f 167//167 182//182 188//188
f 167//167 188//188 184//184
f 168//168 178//178 189//189
f 169//169 190//190 179//179
f 172//172 187//187 191//191
f 172//172 191//191 173//173
f 175//175 176//176 181//181
f 175//175 181//181 192//192
f 175//175 192//192 182//182
f 177//177 189//189 178//178
f 179//179 190//190 180//180
f 180//180 190//190 192//192
f 180//180 192//192 181//181
f 182//182 192//192 188//188
f 186//186 191//191 187//187
