# Created by Open3D 
# object name: part_022
# number of vertices: 200
# number of triangles: 396
v -0.000291645 0.0686594 -0.0175447
vn 7.44173e-05 0.0124804 0.999922
v -0.000291645 0.0684853 -0.0181167
vn 0.00544654 0.943132 -0.332373
v -0.00149753 0.0684853 -0.018119
vn -0.999997 0.00218796 -0.000660474
v -0.00149753 0.068648 -0.0175447
vn -0.433902 0.0362413 0.900231
v 0.0060355 0.0686052 -0.0175447
vn 0.0174339 0.984607 -0.173911
v 0.0060355 0.0684596 -0.0180415
vn 0.0239578 0.948302 -0.316465
v -0.00149753 0.0684197 -0.0183058
vn 0.000316896 0.94196 -0.335726
v 0.0060355 0.067692 -0.0202358
vn 0.00820264 0.943078 -0.332469
v 0.0060355 0.066833 -0.0226557
vn 0.00570169 0.942046 -0.335436
v -0.000291645 0.0660396 -0.0249799
vn 0.00421916 0.941654 -0.336557
v -0.00149753 0.0542218 -0.0175447
vn -0.32137 -0.717348 0.618169
v 0.00744487 0.0685224 -0.0175447
vn 0.0554858 0.943257 0.327394
v 0.00797605 0.068491 -0.0175447
vn 0.0614203 0.992545 0.105267
v 0.00919693 0.0683569 -0.0177339
vn 0.0790026 0.944577 -0.318643
v 0.00767191 0.0681942 -0.0185382
vn 0.0613691 0.947332 -0.31432
v 0.00761622 0.0676292 -0.0202358
vn 0.0617075 0.944358 -0.323078
v 0.0070122 0.0668273 -0.0226398
vn 0.0373784 0.94272 -0.331483
v -0.00149753 0.0660396 -0.0249799
vn -0.00571495 0.941609 -0.336661
v 0.0060355 0.0665504 -0.0234464
vn 0.00862264 0.939887 -0.341377
v -0.000291645 0.0655031 -0.026461
vn 0.0094585 0.935925 -0.352072
v -0.00149753 0.0655031 -0.0264633
vn -0.0548283 0.937113 -0.344693
v -0.00149753 0.0418533 -0.040821
vn -0.751245 -0.50928 -0.419839
v 0.0203755 0.0395075 -0.040821
vn -0.0899816 -0.88973 0.447531
v 0.020384 0.0518903 -0.0175447
vn 0.536401 -0.421171 0.731361
v 0.00919693 0.068414 -0.0175447
vn 0.0308664 0.393825 0.918667
v 0.0104885 0.0682941 -0.0175447
vn 0.094674 0.965276 -0.243474
v 0.0107776 0.0657542 -0.0249799
vn 0.0929837 0.941287 -0.32455
v 0.00919693 0.0658883 -0.0249799
vn 0.0683733 0.942608 -0.326826
v 0.00761622 0.0659654 -0.0249799
vn 0.0288169 0.937389 -0.34709
v 0.0060355 0.0659882 -0.0249799
vn 0.0115541 0.93531 -0.35364
v 0.00761622 0.0654574 -0.0262856
vn 0.0178015 0.928097 -0.371912
v -0.000291645 0.0651949 -0.0272517
vn 0.0112546 0.921538 -0.388124
v -0.00149753 0.0651949 -0.027254
vn -0.272313 0.890235 -0.365139
v -0.00149753 0.0575922 -0.040821
vn -1 1.06749e-05 -0.000854261
v 0.020384 0.0408431 -0.040821
vn 0.72353 -1.18224e-05 -0.690293
v 0.020384 0.040064 -0.0401784
vn 0.999975 -0.00641548 0.00304486
v 0.020384 0.0661566 -0.0175447
vn 0.0593148 0.000904002 0.998239
v 0.0107776 0.0682656 -0.0175447
vn 0.0970253 0.949505 -0.298373
v 0.0120456 0.0668872 -0.021243
vn 0.110007 0.942856 -0.314518
v 0.0123584 0.0661252 -0.0233986
vn 0.125137 0.934928 -0.332041
v 0.0117608 0.0652833 -0.0258709
vn 0.166585 0.893907 -0.416149
v 0.0107776 0.0653604 -0.0260304
vn 0.105175 0.90952 -0.402133
v 0.00919693 0.0654317 -0.0262081
vn 0.0551189 0.919201 -0.389912
v 0.00761622 0.0651064 -0.0270763
vn 0.0357929 0.910898 -0.411075
v 0.00445264 0.0647382 -0.0281427
vn 0.0210268 0.915568 -0.401613
v 0.00445264 0.0651578 -0.0271583
vn 0.0164418 0.922642 -0.385307
v 0.00287193 0.0647611 -0.0281427
vn 0.0119045 0.914181 -0.405132
v 0.00287193 0.064059 -0.0297218
vn 0.00982854 0.91252 -0.408915
v -0.000291645 0.0647925 -0.0281427
vn 0.00478331 0.910699 -0.413044
v -0.00149753 0.0647982 -0.0281427
vn -0.148639 0.898829 -0.412326
v -0.00149753 0.0577178 -0.0406228
vn -0.696299 0.609601 -0.378886
v -0.00147825 0.0575922 -0.040821
vn 0.00225476 0.245638 -0.969359
v 0.020384 0.054199 -0.040821
vn 0.767075 0.000620023 -0.641557
v 0.020384 0.0657571 -0.0187706
vn 0.953358 0.285598 -0.0976862
v 0.0201656 0.0662251 -0.0175447
vn 0.179746 0.595484 0.783001
v 0.0108355 0.068257 -0.0175447
vn 0.154693 0.984416 -0.0836328
v 0.0130995 0.0668073 -0.0210014
vn 0.156658 0.941898 -0.297131
v 0.0124869 0.0666418 -0.0217898
vn 0.140511 0.939998 -0.310902
v 0.0139391 0.0658912 -0.0233986
vn 0.155086 0.931486 -0.329063
v 0.0139391 0.0654289 -0.0245789
vn 0.155375 0.91882 -0.362807
v 0.015085 0.0653204 -0.0243533
vn 0.201825 0.872098 -0.445771
v 0.0116344 0.0636681 -0.0289653
vn 0.201216 0.858405 -0.47186
v 0.0107776 0.0642559 -0.0281427
vn 0.139425 0.875168 -0.463295
v 0.0107776 0.0649551 -0.0268211
vn 0.121976 0.879618 -0.459776
v 0.00919693 0.0650579 -0.0269988
vn 0.0840848 0.891245 -0.445659
v 0.0051252 0.0636481 -0.0305011
vn 0.0650164 0.892915 -0.445505
v 0.00454046 0.063962 -0.0298744
vn 0.0343 0.910869 -0.411268
v 0.00407139 0.0636709 -0.0305512
vn 0.0191719 0.905075 -0.424819
v 0.00287193 0.0636766 -0.0305626
vn -0.00338532 0.902868 -0.429905
v -0.00149753 0.0646184 -0.0285187
vn -0.232696 0.876906 -0.42058
v 0.00128907 0.0602948 -0.0365258
vn 0.00385955 0.846192 -0.532863
v -0.00149753 0.0585083 -0.0393467
vn -0.573126 0.697644 -0.429907
v -0.000291645 0.0575808 -0.040821
vn 0.00628868 0.318622 -0.947861
v 0.0202662 0.0542361 -0.040821
vn 0.0517853 0.180524 -0.982206
v 0.020384 0.0557372 -0.0384034
vn 0.972502 0.197735 -0.123045
v 0.0172397 0.0656401 -0.0219562
vn 0.274367 0.910524 -0.309304
v 0.0186834 0.0663164 -0.0186544
vn 0.269362 0.915286 -0.299493
v 0.0202662 0.0658313 -0.0186544
vn 0.279721 0.912492 -0.29852
v 0.020384 0.0653804 -0.0198416
vn 0.990351 0.13054 -0.0465126
v 0.0184135 0.0654232 -0.021521
vn 0.290441 0.901398 -0.321133
v 0.0186834 0.0666617 -0.0175447
vn 0.0952986 0.32638 0.940422
v 0.0123712 0.0680059 -0.0175447
vn 0.171483 0.97927 -0.107818
v 0.0155219 0.0661195 -0.0218172
vn 0.189105 0.936661 -0.294799
v 0.0139391 0.066402 -0.0218172
vn 0.165279 0.939184 -0.301025
v 0.0155755 0.065543 -0.023492
vn 0.201485 0.924583 -0.323343
v 0.0161388 0.0651892 -0.0240822
vn 0.269061 0.860606 -0.432393
v 0.0149136 0.0636994 -0.0274386
vn 0.216403 0.855173 -0.471009
v 0.0107776 0.0633142 -0.029895
vn 0.15267 0.859387 -0.488002
v 0.0107776 0.0637451 -0.0291065
vn 0.130213 0.873909 -0.468324
v 0.0144296 0.0604175 -0.0335408
vn 0.218974 0.850929 -0.477462
v 0.0133736 0.0605431 -0.0337709
vn 0.18562 0.850521 -0.492097
v 0.00919693 0.0638507 -0.0293093
vn 0.106363 0.878812 -0.465163
v 0.00919693 0.0644671 -0.0281427
vn 0.0955444 0.882714 -0.460095
v 0.0060355 0.0636024 -0.0304168
vn 0.0925333 0.880551 -0.46483
v 0.0060355 0.0631315 -0.0313032
vn 0.0930399 0.877803 -0.4699
v 0.0060355 0.0623924 -0.0326772
vn 0.090072 0.876004 -0.473818
v 0.00445264 0.0624666 -0.0327911
vn 0.0545506 0.875096 -0.480865
v 0.00454046 0.0633342 -0.0311687
vn 0.03248 0.882601 -0.468999
v 0.00287193 0.0632828 -0.0313533
vn -0.00681082 0.886717 -0.462262
v -0.00149753 0.0638735 -0.0300636
vn -0.14523 0.884325 -0.443709
v -0.00149753 0.0639905 -0.0298266
vn -0.238394 0.874803 -0.421768
v 0.00128907 0.0607828 -0.0357351
vn -0.0158833 0.856137 -0.516504
v 0.00287193 0.0607771 -0.0357214
vn 0.0280282 0.85064 -0.525001
v 0.00287193 0.0602805 -0.0365121
vn 0.0301683 0.839899 -0.541904
v -0.00149753 0.0589906 -0.0385561
vn -0.542349 0.720654 -0.431875
v 0.00128907 0.0575294 -0.040821
vn 0.00735301 0.226032 -0.974092
v 0.017199 0.055098 -0.040821
vn 0.0109793 0.0390843 -0.999176
v 0.0164772 0.0557943 -0.0400782
vn 0.231606 0.820265 -0.522996
v 0.0197607 0.0558286 -0.0385469
vn 0.23485 0.821345 -0.519844
v 0.020384 0.0560854 -0.0378314
vn 0.96585 0.222358 -0.133006
v 0.0152264 0.0590562 -0.0354822
vn 0.229446 0.824026 -0.518011
v 0.0162802 0.0588993 -0.0352429
vn 0.245889 0.827286 -0.50511
v 0.0171027 0.0662508 -0.0202358
vn 0.232185 0.926936 -0.294755
v 0.0168028 0.0653946 -0.0230271
vn 0.247578 0.915403 -0.317399
v 0.0178416 0.0668044 -0.0178273
vn 0.240517 0.928179 -0.283963
v 0.0184649 0.0667217 -0.0175447
vn 0.109007 0.405265 0.907677
v 0.020384 0.0650921 -0.0206369
vn 0.968463 0.23398 -0.0856271
v 0.0178566 0.0652205 -0.022576
vn 0.302634 0.886104 -0.351044
v 0.0128767 0.0679117 -0.0175447
vn 0.190985 0.98019 0.0524615
v 0.0155305 0.0666047 -0.0201857
vn 0.187635 0.941758 -0.279079
v 0.0160617 0.0667673 -0.0192651
vn 0.198491 0.940292 -0.276499
v 0.020384 0.0639449 -0.0235603
vn 0.94214 0.309924 -0.127745
v 0.020384 0.0636681 -0.0242143
vn 0.961276 0.251824 -0.11195
v 0.020384 0.0633827 -0.024825
vn 0.961318 0.249407 -0.116892
v 0.020384 0.0633284 -0.0249389
vn 0.96133 0.246654 -0.122501
v 0.020384 0.0624637 -0.0266752
vn 0.96133 0.246512 -0.12279
v 0.020384 0.0624352 -0.0267322
vn 0.961308 0.244144 -0.127594
v 0.020384 0.0608513 -0.0297605
vn 0.961306 0.243968 -0.127949
v 0.020384 0.0604718 -0.030476
vn 0.856832 0.448085 -0.255066
v 0.0159674 0.0635596 -0.0271811
vn 0.238863 0.849053 -0.471226
v 0.00919693 0.0634312 -0.0301
vn 0.105498 0.87463 -0.473173
v 0.0123584 0.0612623 -0.0328845
vn 0.169868 0.851561 -0.495972
v 0.0107284 0.0624523 -0.0313989
vn 0.165234 0.851715 -0.497273
v 0.00919693 0.0617503 -0.0330987
vn 0.150915 0.852077 -0.501188
v 0.00761622 0.0618758 -0.0333061
vn 0.115607 0.86712 -0.484498
v 0.0155219 0.060272 -0.0332651
vn 0.237735 0.846219 -0.47686
v 0.0156612 0.0594558 -0.0346163
vn 0.23964 0.839185 -0.488202
v 0.0139177 0.0600694 -0.0343656
vn 0.213911 0.839453 -0.49956
v 0.0139391 0.0592275 -0.0357465
vn 0.193952 0.828991 -0.524554
v 0.0123584 0.060175 -0.0347257
vn 0.162081 0.842669 -0.513457
v 0.0123584 0.0606458 -0.033935
vn 0.164917 0.849504 -0.501144
v 0.0060355 0.0619586 -0.0334679
vn 0.0825689 0.862557 -0.499177
v 0.00445264 0.0620157 -0.0335818
vn 0.0472378 0.85718 -0.512846
v 0.00287193 0.0620442 -0.0336296
vn 0.00799917 0.86337 -0.504508
v 0.00287193 0.0624923 -0.032839
vn 0.00931809 0.878566 -0.47753
v 0.00128907 0.0624752 -0.0328207
vn -0.0221937 0.879722 -0.47497
v -0.00149753 0.0636195 -0.030558
vn -0.200639 0.863399 -0.46291
v -0.00149753 0.0636481 -0.0305034
vn -0.308919 0.846003 -0.434566
v -0.000291645 0.0607457 -0.0356873
vn -0.0394433 0.860327 -0.508214
v 0.00128907 0.0615362 -0.0344659
vn -0.0267142 0.861277 -0.507433
v 0.00287193 0.0615419 -0.0344659
vn 0.0193298 0.855156 -0.518011
v -0.000291645 0.0602748 -0.0364802
vn -0.0356196 0.859077 -0.510605
v 0.00445264 0.0614735 -0.0344659
vn 0.0537097 0.849115 -0.52547
v 0.00445264 0.0607372 -0.0356485
vn 0.0518017 0.846282 -0.53021
v 0.00445264 0.0602377 -0.0364392
vn 0.0561431 0.841351 -0.537565
v 0.00445264 0.0594701 -0.0376309
vn 0.049561 0.839219 -0.541531
v 0.00445264 0.0589335 -0.0384604
vn 0.044951 0.836855 -0.545576
v 0.00287193 0.0574752 -0.040821
vn 0.0156204 0.305345 -0.952114
v 0.00181383 0.0575123 -0.040821
vn 0.00773979 0.225944 -0.974109
v -0.00149753 0.0595386 -0.0376309
vn -0.767484 0.552729 -0.324744
v 0.0155219 0.0555689 -0.040821
vn 0.0114616 0.0428108 -0.999017
v 0.0155219 0.0559227 -0.040281
vn 0.21073 0.822994 -0.527517
v 0.0171027 0.0587737 -0.0350356
vn 0.253952 0.828894 -0.498441
v 0.0171027 0.0592475 -0.0342449
vn 0.256442 0.830802 -0.493969
v 0.017229 0.0666817 -0.0187046
vn 0.204802 0.93857 -0.277746
v 0.017561 0.0669471 -0.0175447
vn 0.152335 0.712194 0.685254
v 0.020384 0.0650436 -0.0207667
vn 0.984629 0.163422 -0.0616397
v 0.020384 0.0646469 -0.0218172
vn 0.984629 0.163378 -0.061756
v 0.020384 0.0646155 -0.0218992
vn 0.984622 0.162052 -0.0652653
v 0.0143996 0.0676092 -0.0175447
vn 0.18897 0.938324 0.289549
v 0.0155241 0.067378 -0.0175447
vn 0.154492 0.737686 0.657231
v 0.0107284 0.0616504 -0.0327638
vn 0.164875 0.850343 -0.499732
v 0.00913482 0.0608856 -0.0345502
vn 0.157202 0.844397 -0.512133
v 0.00856507 0.060526 -0.0353113
vn 0.146859 0.833285 -0.53298
v 0.00761622 0.0611938 -0.0344659
vn 0.111652 0.850761 -0.513555
v 0.0127846 0.0588394 -0.03674
vn 0.161593 0.828657 -0.535924
v 0.0122962 0.0593074 -0.0361475
vn 0.160219 0.837949 -0.521701
v 0.0139391 0.0561168 -0.0405749
vn 0.191231 0.82504 -0.531733
v 0.0060355 0.0613593 -0.0344659
vn 0.0740121 0.850984 -0.519951
v 0.00128907 0.0620357 -0.0336114
vn -0.0312342 0.868442 -0.494805
v -0.00149753 0.0630259 -0.031629
vn -0.60889 0.689631 -0.391997
v -0.000291645 0.061462 -0.0344659
vn -0.0506675 0.863115 -0.50246
v 0.0060355 0.0606829 -0.0355574
vn 0.0724938 0.845629 -0.528826
v 0.0060355 0.0601807 -0.0363481
vn 0.0765018 0.839061 -0.538631
v 0.00525157 0.0589079 -0.0384216
vn 0.0634322 0.834104 -0.547948
v 0.00445264 0.0573696 -0.040821
vn 0.0168778 0.173485 -0.984692
v -0.00149753 0.0602463 -0.036421
vn -0.874229 0.41936 -0.244664
v 0.0139391 0.055957 -0.040821
vn 0.023785 0.118159 -0.99271
v 0.00761622 0.0600893 -0.0362182
vn 0.126015 0.829537 -0.544048
v 0.00761622 0.0605973 -0.0354275
vn 0.1013 0.841216 -0.531125
v 0.0117286 0.0589392 -0.0368835
vn 0.148292 0.828462 -0.540056
v 0.0123669 0.0562538 -0.040821
vn 0.0566643 0.34866 -0.935535
v 0.0128103 0.056171 -0.040821
vn 0.0383005 0.202878 -0.978455
v -0.000291645 0.0619957 -0.0335431
vn -0.0457176 0.866486 -0.497103
v -0.00149753 0.0607058 -0.0356303
vn -0.869919 0.426618 -0.247464
v 0.00588129 0.0592931 -0.0377426
vn 0.0888736 0.834963 -0.543083
v 0.00630538 0.0588536 -0.0383441
vn 0.111029 0.819094 -0.562813
v 0.0060355 0.0571727 -0.040821
vn 0.0191119 0.135553 -0.990586
v 0.00761622 0.0592988 -0.0374167
vn 0.127832 0.823965 -0.552033
v 0.00761622 0.0587566 -0.0382074
vn 0.120628 0.81761 -0.562994
f 1//1 2//2 3//3
f 1//1 3//3 4//4
f 1//1 4//4 11//11
f 1//1 11//11 24//24
f 1//1 24//24 37//37
f 1//1 37//37 55//55
f 1//1 55//55 81//81
f 1//1 81//81 116//116
f 1//1 116//116 166//166
f 1//1 166//166 171//171
f 1//1 171//171 170//170
f 1//1 170//170 119//119
f 1//1 119//119 82//82
f 1//1 82//82 56//56
f 1//1 56//56 38//38
f 1//1 38//38 26//26
f 1//1 26//26 25//25
f 1//1 25//25 13//13
f 1//1 13//13 12//12
f 1//1 12//12 5//5
f 1//1 5//5 6//6
f 1//1 6//6 2//2
f 2//2 7//7 3//3
f 2//2 6//6 8//8
f 2//2 8//8 9//9
f 2//2 9//9 10//10
f 2//2 10//10 7//7
f 3//3 7//7 18//18
f 3//3 18//18 21//21
f 3//3 21//21 33//33
f 3//3 33//33 50//50
f 3//3 50//50 70//70
f 3//3 70//70 101//101
f 3//3 101//101 100//100
f 3//3 100//100 148//148
f 3//3 148//148 147//147
f 3//3 147//147 181//181
f 3//3 181//181 195//195
f 3//3 195//195 187//187
f 3//3 187//187 160//160
f 3//3 160//160 105//105
f 3//3 105//105 72//72
f 3//3 72//72 51//51
f 3//3 51//51 34//34
f 3//3 34//34 22//22
f 3//3 22//22 11//11
f 3//3 11//11 4//4
f 5//5 12//12 6//6
f 6//6 12//12 13//13
f 6//6 13//13 14//14
f 6//6 14//14 15//15
f 6//6 15//15 16//16
f 6//6 16//16 17//17
f 6//6 17//17 8//8
f 7//7 10//10 18//18
f 8//8 17//17 9//9
f 9//9 17//17 19//19
f 9//9 19//19 10//10
f 10//10 19//19 20//20
f 10//10 20//20 21//21
f 10//10 21//21 18//18
f 11//11 22//22 23//23
f 11//11 23//23 24//24
f 13//13 25//25 14//14
f 14//14 16//16 15//15
f 14//14 25//25 26//26
f 14//14 26//26 27//27
f 14//14 27//27 28//28
f 14//14 28//28 16//16
f 16//16 28//28 17//17
f 17//17 28//28 29//29
f 17//17 29//29 19//19
f 19//19 29//29 30//30
f 19//19 30//30 20//20
f 20//20 31//31 32//32
f 20//20 32//32 33//33
f 20//20 33//33 21//21
f 20//20 30//30 31//31
f 22//22 34//34 52//52
f 22//22 52//52 73//73
f 22//22 73//73 106//106
f 22//22 106//106 159//159
f 22//22 159//159 158//158
f 22//22 158//158 186//186
f 22//22 186//186 198//198
f 22//22 198//198 192//192
f 22//22 192//192 193//193
f 22//22 193//193 188//188
f 22//22 188//188 161//161
f 22//22 161//161 107//107
f 22//22 107//107 74//74
f 22//22 74//74 53//53
f 22//22 53//53 35//35
f 22//22 35//35 23//23
f 23//23 35//35 36//36
f 23//23 36//36 24//24
f 24//24 36//36 35//35
f 24//24 35//35 53//53
f 24//24 53//53 75//75
f 24//24 75//75 110//110
f 24//24 110//110 129//129
f 24//24 129//129 128//128
f 24//24 128//128 127//127
f 24//24 127//127 126//126
f 24//24 126//126 125//125
f 24//24 125//125 124//124
f 24//24 124//124 123//123
f 24//24 123//123 122//122
f 24//24 122//122 169//169
f 24//24 169//169 168//168
f 24//24 168//168 167//167
f 24//24 167//167 117//117
f 24//24 117//117 79//79
f 24//24 79//79 54//54
f 24//24 54//54 37//37
f 26//26 38//38 27//27
f 27//27 38//38 39//39
f 27//27 39//39 40//40
f 27//27 40//40 41//41
f 27//27 41//41 42//42
f 27//27 42//42 43//43
f 27//27 43//43 28//28
f 28//28 43//43 29//29
f 29//29 43//43 31//31
f 29//29 31//31 30//30
f 31//31 43//43 44//44
f 31//31 44//44 45//45
f 31//31 45//45 46//46
f 31//31 46//46 32//32
f 32//32 46//46 45//45
f 32//32 45//45 47//47
f 32//32 47//47 48//48
f 32//32 48//48 49//49
f 32//32 49//49 50//50
f 32//32 50//50 33//33
f 34//34 51//51 52//52
f 37//37 54//54 55//55
f 38//38 56//56 39//39
f 39//39 57//57 58//58
f 39//39 58//58 40//40
f 39//39 56//56 57//57
f 40//40 59//59 41//41
f 40//40 58//58 59//59
f 41//41 60//60 61//61
f 41//41 61//61 62//62
f 41//41 62//62 63//63
f 41//41 63//63 64//64
f 41//41 64//64 42//42
f 41//41 59//59 60//60
f 42//42 64//64 65//65
f 42//42 65//65 43//43
f 43//43 65//65 66//66
f 43//43 66//66 44//44
f 44//44 66//66 67//67
f 44//44 67//67 45//45
f 45//45 48//48 47//47
f 45//45 67//67 68//68
f 45//45 68//68 48//48
f 48//48 68//68 69//69
f 48//48 69//69 49//49
f 49//49 69//69 50//50
f 50//50 69//69 70//70
f 51//51 71//71 52//52
f 51//51 72//72 71//71
f 52//52 71//71 73//73
f 53//53 74//74 75//75
f 54//54 76//76 77//77
f 54//54 77//77 78//78
f 54//54 78//78 55//55
f 54//54 79//79 80//80
f 54//54 80//80 76//76
f 55//55 78//78 77//77
f 55//55 77//77 81//81
f 56//56 82//82 57//57
f 57//57 83//83 84//84
f 57//57 84//84 59//59
f 57//57 59//59 58//58
f 57//57 82//82 83//83
f 59//59 84//84 83//83
f 59//59 83//83 85//85
f 59//59 85//85 61//61
f 59//59 61//61 60//60
f 61//61 85//85 86//86
f 61//61 86//86 87//87
f 61//61 87//87 62//62
f 62//62 88//88 89//89
f 62//62 89//89 63//63
f 62//62 87//87 90//90
f 62//62 90//90 91//91
f 62//62 91//91 88//88
f 63//63 89//89 92//92
f 63//63 92//92 64//64
f 64//64 92//92 93//93
f 64//64 93//93 65//65
f 65//65 93//93 66//66
f 66//66 94//94 95//95
f 66//66 95//95 96//96
f 66//66 96//96 97//97
f 66//66 97//97 98//98
f 66//66 98//98 68//68
f 66//66 68//68 67//67
f 66//66 93//93 94//94
f 68//68 98//98 99//99
f 68//68 99//99 69//69
f 69//69 99//99 100//100
f 69//69 100//100 101//101
f 69//69 101//101 70//70
f 71//71 102//102 103//103
f 71//71 103//103 104//104
f 71//71 104//104 73//73
f 71//71 72//72 102//102
f 72//72 105//105 102//102
f 73//73 104//104 106//106
f 74//74 107//107 108//108
f 74//74 108//108 109//109
f 74//74 109//109 75//75
f 75//75 109//109 111//111
f 75//75 111//111 112//112
f 75//75 112//112 110//110
f 76//76 113//113 77//77
f 76//76 80//80 114//114
f 76//76 114//114 113//113
f 77//77 113//113 115//115
f 77//77 115//115 116//116
f 77//77 116//116 81//81
f 79//79 117//117 80//80
f 80//80 117//117 118//118
f 80//80 118//118 114//114
f 82//82 119//119 83//83
f 83//83 119//119 120//120
f 83//83 120//120 121//121
f 83//83 121//121 113//113
f 83//83 113//113 114//114
f 83//83 114//114 85//85
f 85//85 114//114 86//86
f 86//86 114//114 118//118
f 86//86 118//118 122//122
f 86//86 122//122 123//123
f 86//86 123//123 124//124
f 86//86 124//124 125//125
f 86//86 125//125 126//126
f 86//86 126//126 127//127
f 86//86 127//127 128//128
f 86//86 128//128 129//129
f 86//86 129//129 130//130
f 86//86 130//130 87//87
f 87//87 130//130 90//90
f 88//88 131//131 89//89
f 88//88 91//91 132//132
f 88//88 132//132 133//133
f 88//88 133//133 134//134
f 88//88 134//134 135//135
f 88//88 135//135 131//131
f 89//89 131//131 92//92
f 90//90 136//136 137//137
f 90//90 137//137 138//138
f 90//90 138//138 91//91
f 90//90 130//130 136//136
f 91//91 138//138 139//139
f 91//91 139//139 140//140
f 91//91 140//140 141//141
f 91//91 141//141 132//132
f 92//92 131//131 94//94
f 92//92 94//94 93//93
f 94//94 131//131 95//95
f 95//95 131//131 96//96
f 96//96 131//131 135//135
f 96//96 135//135 142//142
f 96//96 142//142 97//97
f 97//97 142//142 143//143
f 97//97 143//143 144//144
f 97//97 144//144 145//145
f 97//97 145//145 98//98
f 98//98 145//145 99//99
f 99//99 145//145 146//146
f 99//99 146//146 147//147
f 99//99 147//147 148//148
f 99//99 148//148 100//100
f 102//102 149//149 150//150
f 102//102 150//150 144//144
f 102//102 144//144 151//151
f 102//102 151//151 103//103
f 102//102 105//105 152//152
f 102//102 152//152 149//149
f 103//103 151//151 143//143
f 103//103 143//143 153//153
f 103//103 153//153 154//154
f 103//103 154//154 104//104
f 104//104 154//154 155//155
f 104//104 155//155 156//156
f 104//104 156//156 157//157
f 104//104 157//157 158//158
f 104//104 158//158 159//159
f 104//104 159//159 106//106
f 105//105 160//160 149//149
f 105//105 149//149 152//152
f 107//107 161//161 108//108
f 108//108 161//161 162//162
f 108//108 162//162 111//111
f 108//108 111//111 109//109
f 110//110 112//112 163//163
f 110//110 163//163 164//164
f 110//110 164//164 129//129
f 111//111 139//139 138//138
f 111//111 138//138 137//137
f 111//111 137//137 112//112
f 111//111 162//162 139//139
f 112//112 137//137 164//164
f 112//112 164//164 163//163
f 113//113 121//121 165//165
f 113//113 165//165 115//115
f 115//115 165//165 166//166
f 115//115 166//166 116//116
f 117//117 167//167 118//118
f 118//118 167//167 168//168
f 118//118 168//168 169//169
f 118//118 169//169 122//122
f 119//119 170//170 120//120
f 120//120 170//170 121//121
f 121//121 166//166 165//165
f 121//121 170//170 171//171
f 121//121 171//171 166//166
f 129//129 164//164 137//137
f 129//129 137//137 136//136
f 129//129 136//136 130//130
f 132//132 141//141 133//133
f 133//133 141//141 172//172
f 133//133 172//172 134//134
f 134//134 172//172 141//141
f 134//134 141//141 140//140
f 134//134 140//140 173//173
f 134//134 173//173 174//174
f 134//134 174//174 175//175
f 134//134 175//175 135//135
f 135//135 175//175 142//142
f 139//139 176//176 177//177
f 139//139 177//177 140//140
f 139//139 162//162 178//178
f 139//139 178//178 176//176
f 140//140 177//177 174//174
f 140//140 174//174 173//173
f 142//142 175//175 179//179
f 142//142 179//179 143//143
f 143//143 179//179 153//153
f 143//143 151//151 144//144
f 144//144 150//150 180//180
f 144//144 180//180 145//145
f 145//145 180//180 146//146
f 146//146 181//181 147//147
f 146//146 180//180 181//181
f 149//149 182//182 150//150
f 149//149 160//160 182//182
f 150//150 182//182 180//180
f 153//153 179//179 183//183
f 153//153 183//183 154//154
f 154//154 183//183 155//155
f 155//155 184//184 185//185
f 155//155 185//185 156//156
f 155//155 183//183 184//184
f 156//156 185//185 157//157
f 157//157 185//185 158//158
f 158//158 185//185 186//186
f 160//160 187//187 182//182
f 161//161 188//188 162//162
f 162//162 188//188 178//178
f 174//174 189//189 190//190
f 174//174 190//190 175//175
f 174//174 177//177 176//176
f 174//174 176//176 191//191
f 174//174 191//191 192//192
f 174//174 192//192 189//189
f 175//175 190//190 183//183
f 175//175 183//183 179//179
f 176//176 178//178 188//188
f 176//176 188//188 193//193
f 176//176 193//193 192//192
f 176//176 192//192 191//191
f 180//180 182//182 194//194
f 180//180 194//194 181//181
f 181//181 194//194 182//182
f 181//181 182//182 195//195
f 182//182 187//187 195//195
f 183//183 190//190 184//184
f 184//184 189//189 196//196
f 184//184 196//196 185//185
f 184//184 190//190 189//189
f 185//185 196//196 197//197
f 185//185 197//197 186//186
f 186//186 197//197 198//198
f 189//189 192//192 199//199
f 189//189 199//199 197//197
f 189//189 197//197 196//196
f 192//192 198//198 197//197
f 192//192 197//197 200//200
f 192//192 200//200 199//199
f 197//197 199//199 200//200
