# Created by Open3D 
# object name: part_013
# number of vertices: 286
# number of triangles: 568
v -0.0426763 0.0597763 -0.00497392
vn 0.942494 0.00104886 0.33422
v -0.0426763 0.0591643 -0.0104529
vn -0.473236 0.875463 -0.0980455
v -0.043043 0.0595787 -0.00497392
vn -0.476195 0.874471 -0.0924067
v -0.0426763 0.0427353 -0.00497392
vn 0.80478 -0.446043 0.391631
v -0.0426763 0.0591305 -0.0107456
vn -0.275594 0.946683 -0.166849
v -0.0468069 0.057251 -0.00758559
vn -0.530609 0.84174 -0.0996366
v -0.0441909 0.0589185 -0.00497392
vn -0.502477 0.863708 -0.0390493
v -0.0584793 0.0252558 -0.00497392
vn -0.675561 -0.371487 0.636879
v -0.0550403 0.0132606 -0.0325452
vn 0.693378 -0.626763 0.355522
v -0.0426763 0.0227305 -0.0403245
vn 0.908689 -0.363365 0.205547
v -0.0426763 0.0587498 -0.0121305
vn -0.297902 0.910339 -0.287293
v -0.0434405 0.0586872 -0.0107456
vn -0.508626 0.840887 -0.184957
v -0.0468874 0.0572896 -0.00600557
vn -0.557493 0.829187 -0.0406408
v -0.0465733 0.0571209 -0.00916561
vn -0.53767 0.812236 -0.226237
v -0.0478171 0.0562293 -0.00907731
vn -0.603644 0.771646 -0.200442
v -0.0485674 0.0557763 -0.00849178
vn -0.596203 0.790896 -0.137929
v -0.0533834 0.0526679 -0.00543863
vn -0.635955 0.734846 -0.235715
v -0.0534375 0.0527016 -0.00497392
vn -0.576095 0.803541 0.14979
v -0.0465223 0.0575498 -0.00497392
vn -0.510216 0.859992 0.00965197
v -0.0584793 0.0122582 -0.0280189
vn 0.669011 -0.647465 0.364985
v -0.0584793 0.0454534 -0.00497392
vn -0.277234 0.0238459 0.960507
v -0.0561758 0.0127931 -0.0313044
vn 0.649451 -0.679993 0.340327
v -0.0555987 0.0125184 -0.032996
vn 0.647041 -0.69143 0.321345
v -0.0548237 0.0130148 -0.0336001
vn 0.672144 -0.705424 0.224943
v -0.0426763 0.0222678 -0.0411563
vn 0.904723 -0.391833 0.167162
v -0.0426763 0.0585956 -0.012558
vn 0.985824 0.154941 -0.0643818
v -0.0429563 0.05848 -0.0123814
vn -0.537688 0.788236 -0.299291
v -0.0469121 0.057304 -0.00497392
vn -0.538475 0.768058 0.346601
v -0.0473515 0.0560799 -0.0107456
vn -0.592386 0.756667 -0.276646
v -0.0483957 0.0556173 -0.00954667
vn -0.637256 0.72645 -0.257244
v -0.0549939 0.0511546 -0.00557339
vn -0.670304 0.697868 -0.252336
v -0.0550975 0.0512558 -0.00497392
vn -0.786143 0.607727 0.112457
v -0.0542188 0.0520221 -0.00497392
vn -0.17589 0.201948 0.963473
v -0.0532859 0.0494293 -0.0147328
vn -0.633867 0.721972 -0.277433
v -0.0534515 0.0495739 -0.0139103
vn -0.655193 0.710746 -0.25605
v -0.0584793 0.0122534 -0.0280282
vn 0.375093 -0.824754 0.423185
v -0.0564063 0.049357 -0.00497392
vn -0.459933 0.248184 0.852564
v -0.0584793 0.0448896 -0.00916561
vn -0.995295 0.0957247 -0.0149717
v -0.0584793 0.0115739 -0.0293526
vn 0.319716 -0.85327 0.411961
v -0.0572139 0.0118967 -0.0311464
vn 0.640966 -0.694571 0.326702
v -0.0566322 0.0116172 -0.0328845
vn 0.615248 -0.740193 0.271263
v -0.0564558 0.0114775 -0.0339208
vn 0.629054 -0.769291 0.111722
v -0.0426763 0.0218486 -0.0424389
vn 0.919911 -0.383023 0.0840074
v -0.0426763 0.0576125 -0.0148676
vn -0.207117 0.897266 -0.389894
v -0.0470931 0.0558631 -0.0117866
vn -0.571756 0.747134 -0.338948
v -0.0545483 0.0491113 -0.0123303
vn -0.683158 0.682361 -0.260149
v -0.0547494 0.0493185 -0.0112057
vn -0.723677 0.645923 -0.243054
v -0.0552538 0.0483209 -0.0123303
vn -0.758141 0.609489 -0.231828
v -0.0558602 0.0502149 -0.00497392
vn -0.810324 0.581694 0.0707651
v -0.0560443 0.0472703 -0.0123303
vn -0.785235 0.574526 -0.230925
v -0.0562531 0.0475787 -0.0107456
vn -0.790455 0.575225 -0.210467
v -0.0517079 0.0494342 -0.0178882
vn -0.590015 0.707871 -0.388332
v -0.0530229 0.0491835 -0.0157877
vn -0.668224 0.66743 -0.328656
v -0.05375 0.0486438 -0.0153556
vn -0.691432 0.648724 -0.31793
v -0.054833 0.0478101 -0.0146538
vn -0.76624 0.56269 -0.310251
v -0.0543518 0.0486004 -0.0140404
vn -0.698554 0.657401 -0.282571
v -0.0561155 0.0498342 -0.00497392
vn -0.796675 0.496601 0.344524
v -0.0584793 0.0448125 -0.00946767
vn -0.995108 0.0957067 -0.0245143
v -0.0580199 0.0114678 -0.0305191
vn 0.590338 -0.74957 0.299408
v -0.0584793 0.0112558 -0.0301473
vn -0.984053 -0.168094 0.0581654
v -0.0577321 0.0112751 -0.031574
vn 0.533596 -0.806496 0.254635
v -0.0574227 0.0111064 -0.0328845
vn 0.482697 -0.855162 0.188949
v -0.0584793 0.0105714 -0.0328845
vn -0.97978 -0.199009 0.020665
v -0.0570793 0.0111208 -0.0344552
vn 0.412699 -0.910607 0.0217925
v -0.0564156 0.0114534 -0.0349756
vn 0.60368 -0.796617 0.031186
v -0.0426763 0.0216654 -0.0439074
vn 0.936543 -0.350518 0.00502963
v -0.0426763 0.0567884 -0.0167218
vn -0.16472 0.897629 -0.408815
v -0.0426763 0.056186 -0.0179998
vn -0.520512 0.76892 -0.371254
v -0.0550372 0.0480558 -0.0135989
vn -0.754044 0.597657 -0.272439
v -0.05819 0.0448944 -0.0107456
vn -0.79421 0.570726 -0.208572
v -0.0584793 0.0444944 -0.0107084
vn -0.987137 0.149911 -0.0555579
v -0.0564543 0.0462823 -0.0131714
vn -0.796684 0.530064 -0.29039
v -0.0484793 0.0493763 -0.02254
vn -0.584621 0.697378 -0.414587
v -0.0451299 0.0476366 -0.0301612
vn -0.595207 0.684564 -0.420833
v -0.0472463 0.0433474 -0.0340788
vn -0.599509 0.679656 -0.422679
v -0.0482998 0.0428751 -0.0333213
vn -0.611058 0.668996 -0.423145
v -0.0504378 0.0433811 -0.0294038
vn -0.616584 0.666714 -0.418707
v -0.0514914 0.0428799 -0.0286138
vn -0.652025 0.638074 -0.409542
v -0.0532844 0.0478486 -0.0178882
vn -0.701781 0.602786 -0.379675
v -0.0534886 0.0480655 -0.017075
vn -0.687641 0.645164 -0.333035
v -0.0527027 0.0488558 -0.017075
vn -0.665692 0.665627 -0.337335
v -0.0426763 0.0558679 -0.018655
vn -0.374162 0.833754 -0.406026
v -0.0426763 0.0543257 -0.0218197
vn -0.371637 0.833946 -0.407945
v -0.0426763 0.0536992 -0.0230883
vn -0.363164 0.834528 -0.414337
v -0.0426763 0.0535113 -0.0234601
vn -0.316431 0.836039 -0.44823
v -0.0426763 0.053039 -0.0243198
vn -0.297615 0.835867 -0.461251
v -0.0426763 0.0526727 -0.0249797
vn -0.288483 0.835627 -0.467446
v -0.0426763 0.0519836 -0.0262066
vn -0.283851 0.835467 -0.470556
v -0.0426763 0.0514583 -0.027136
vn -0.279379 0.835288 -0.473541
v -0.0426763 0.0509956 -0.0279492
vn -0.276934 0.83518 -0.475164
v -0.0426763 0.0506968 -0.0284743
vn -0.343482 0.81139 -0.472934
v -0.0556436 0.0470486 -0.0139103
vn -0.785455 0.539846 -0.3027
v -0.0546489 0.0475691 -0.0154903
vn -0.745342 0.571156 -0.343869
v -0.0584793 0.0349908 -0.0279678
vn -0.984427 0.153074 -0.0864446
v -0.0584793 0.0109329 -0.0312301
vn -0.983741 -0.17426 0.0434434
v -0.0584793 0.0105425 -0.0344645
vn -0.99058 -0.136085 -0.0152554
v -0.0564156 0.0114534 -0.0353149
vn 0.512417 -0.84611 -0.146722
v -0.0426763 0.0218389 -0.0455385
vn 0.942989 -0.323964 -0.0762881
v -0.0580415 0.0447064 -0.011596
vn -0.801775 0.531382 -0.273478
v -0.0584793 0.0438534 -0.0119539
vn -0.99607 0.0775398 -0.0427928
v -0.0434498 0.0491402 -0.0300265
vn -0.58474 0.695725 -0.417188
v -0.0426763 0.0500221 -0.0296222
vn -0.228885 0.838483 -0.494527
v -0.0440764 0.0480848 -0.0308723
vn -0.573807 0.688176 -0.444026
v -0.0453511 0.046239 -0.0320712
vn -0.581482 0.68557 -0.438033
v -0.0468502 0.0430004 -0.0351336
vn -0.596679 0.65204 -0.467781
v -0.0500712 0.0430534 -0.0304587
vn -0.633286 0.643648 -0.429728
v -0.0478496 0.0424125 -0.0346178
vn -0.616387 0.642789 -0.454851
v -0.0488428 0.0418197 -0.034102
vn -0.632729 0.637903 -0.439013
v -0.0518394 0.0400751 -0.0322896
vn -0.640904 0.619989 -0.45261
v -0.0529409 0.0395787 -0.0313044
vn -0.672762 0.620831 -0.402443
v -0.0536588 0.0387835 -0.0313044
vn -0.690257 0.607992 -0.392291
v -0.054737 0.0382052 -0.0302728
vn -0.703394 0.596791 -0.386106
v -0.0565146 0.0368606 -0.0290738
vn -0.717916 0.587882 -0.372816
v -0.0579827 0.0351402 -0.0288554
vn -0.741286 0.560986 -0.368497
v -0.0584793 0.0347064 -0.0284465
vn -0.999757 0.0173228 -0.0136195
v -0.0584793 0.0108992 -0.0360212
vn -0.997875 -0.0625817 -0.0181279
v -0.0572603 0.0112461 -0.0359237
vn 0.321448 -0.919426 -0.226552
v -0.0567559 0.0115979 -0.0363698
vn 0.40789 -0.855575 -0.318774
v -0.0426763 0.0222823 -0.0469373
vn 0.969923 -0.228125 -0.084898
v -0.0426763 0.0496944 -0.0301566
vn 0.908637 0.352744 -0.223496
v -0.0426763 0.0491546 -0.0310024
vn 0.685166 0.606234 -0.403768
v -0.0451547 0.0445088 -0.0349896
vn -0.563415 0.689392 -0.455305
v -0.0462036 0.0439305 -0.0345342
vn -0.573251 0.687011 -0.446541
v -0.0457967 0.0434534 -0.0357749
vn -0.564664 0.682255 -0.464416
v -0.0453589 0.0430872 -0.0368298
vn -0.570599 0.664926 -0.481964
v -0.0455523 0.0369426 -0.0449716
vn -0.598143 0.642572 -0.478881
v -0.048453 0.0414293 -0.0351569
vn -0.628518 0.62196 -0.467045
v -0.0485705 0.0352269 -0.0432196
vn -0.640733 0.609472 -0.46691
v -0.0533772 0.0384751 -0.0322524
vn -0.684671 0.573663 -0.449595
v -0.0562176 0.0364992 -0.0301287
vn -0.710098 0.570193 -0.413087
v -0.0568998 0.0359739 -0.0296501
vn -0.723047 0.559454 -0.405233
v -0.0566368 0.0354438 -0.0308118
vn -0.721313 0.540245 -0.43341
v -0.0584793 0.0278004 -0.0371133
vn -0.995361 0.0749501 -0.0603179
v -0.0584793 0.0113233 -0.0370111
vn -0.903325 -0.311 -0.295436
v -0.0578095 0.0113907 -0.0369414
vn 0.330989 -0.853422 -0.402639
v -0.0426763 0.0229907 -0.0486335
vn 0.947817 -0.293009 -0.125654
v -0.0426763 0.0456366 -0.0361978
vn 0.983244 0.150803 -0.102418
v -0.0436463 0.0445667 -0.0366811
vn -0.542973 0.693387 -0.473704
v -0.0441011 0.0449185 -0.0356262
vn -0.549586 0.693147 -0.466372
v -0.0447292 0.0440125 -0.0362257
vn -0.553435 0.688018 -0.469405
v -0.0426763 0.0433474 -0.039553
vn 0.866166 0.410655 -0.284814
v -0.0426763 0.0426968 -0.0404778
vn 0.879872 0.38645 -0.276553
v -0.0426763 0.0410727 -0.0427317
vn 0.88714 0.373863 -0.270571
v -0.0426763 0.0401811 -0.0439539
vn 0.399016 0.740161 -0.541247
v -0.0439031 0.038451 -0.0448833
vn -0.572079 0.660827 -0.485833
v -0.0445018 0.0374968 -0.0454549
vn -0.570484 0.65122 -0.500461
v -0.0440439 0.0369956 -0.0466167
vn -0.56835 0.646287 -0.509207
v -0.045099 0.0365185 -0.0460265
vn -0.582683 0.631227 -0.511892
v -0.0456513 0.0354679 -0.0466631
vn -0.605379 0.608417 -0.513172
v -0.0461293 0.0359402 -0.0454967
vn -0.618963 0.609488 -0.495388
v -0.0471132 0.0353618 -0.0449669
vn -0.639378 0.591815 -0.490867
v -0.0466073 0.0364173 -0.0442792
vn -0.626348 0.621822 -0.470134
v -0.0499985 0.0350679 -0.0414119
vn -0.657127 0.594079 -0.463955
v -0.0516306 0.0319546 -0.0430756
vn -0.669579 0.576259 -0.468604
v -0.0534561 0.0306679 -0.0418487
vn -0.697025 0.558905 -0.449202
v -0.0549258 0.0289618 -0.0416861
vn -0.709865 0.543075 -0.448511
v -0.0566863 0.0276173 -0.0403802
vn -0.729774 0.526542 -0.4361
v -0.0580415 0.0273136 -0.038461
vn -0.732478 0.526479 -0.431621
v -0.0584793 0.0273666 -0.0376291
vn -0.999829 0.0138872 -0.0122184
v -0.0426763 0.0240751 -0.0511244
vn 0.574691 -0.580877 -0.576466
v -0.0584793 0.0129281 -0.0385075
vn -0.860289 -0.318984 -0.397684
v -0.0426763 0.0240365 -0.0510453
vn 0.966654 -0.234801 -0.102215
v -0.0426763 0.0392558 -0.0452039
vn 0.966955 0.20406 -0.15283
v -0.043439 0.038051 -0.0459382
vn -0.562305 0.654867 -0.504938
v -0.0429733 0.0375402 -0.0470953
vn -0.558355 0.650454 -0.514927
v -0.0435628 0.0365763 -0.0476715
vn -0.562191 0.631666 -0.533798
v -0.0446225 0.0360221 -0.0471697
vn -0.581924 0.617911 -0.528725
v -0.0452011 0.0349859 -0.047718
vn -0.614791 0.529526 -0.584495
v -0.0467048 0.0349185 -0.0460218
vn -0.63925 0.577088 -0.50826
v -0.0501748 0.0320895 -0.0448136
vn -0.645256 0.558731 -0.521023
v -0.0513583 0.0313522 -0.0440886
vn -0.660758 0.550031 -0.510749
v -0.0516615 0.0304028 -0.0447067
vn -0.667153 0.506398 -0.546322
v -0.0520421 0.0308992 -0.0436518
vn -0.689803 0.531027 -0.492119
v -0.0534917 0.0291546 -0.043438
vn -0.697438 0.482243 -0.530114
v -0.0545452 0.0283932 -0.042741
vn -0.704342 0.477519 -0.525241
v -0.0551749 0.0279498 -0.0422763
vn -0.71433 0.470521 -0.518018
v -0.0563336 0.0271209 -0.0414305
vn -0.726035 0.468759 -0.503128
v -0.0572015 0.0264413 -0.0407427
vn -0.747287 0.458746 -0.480744
v -0.0577399 0.0268124 -0.0395159
vn -0.751003 0.474619 -0.459056
v -0.0584793 0.026398 -0.0387073
vn -0.998804 0.0353033 -0.0338339
v -0.0436772 0.0241618 -0.05105
vn -0.212827 -0.563155 -0.798474
v -0.0430878 0.0247787 -0.0513892
vn -0.127539 -0.363958 -0.922642
v -0.0426763 0.0248124 -0.051445
vn 0.999973 -0.00269553 -0.00683322
v -0.0584793 0.0157715 -0.0403709
vn -0.999284 -0.0205293 -0.0317842
v -0.0572262 0.0173329 -0.0419649
vn -0.309178 -0.519972 -0.796265
v -0.0517404 0.0209233 -0.0463518
vn -0.307577 -0.50032 -0.809368
v -0.0509004 0.0207401 -0.0465144
vn -0.223332 -0.580221 -0.783241
v -0.0426763 0.0388221 -0.0457709
vn 0.99521 0.0774725 -0.0596168
v -0.0426763 0.0380221 -0.0468072
vn 0.992913 0.0936956 -0.0731076
v -0.0426763 0.0376847 -0.0472254
vn 0.995008 0.0774884 -0.0628936
v -0.0426763 0.0372124 -0.0478063
vn 0.995975 0.0684446 -0.0578676
v -0.0426763 0.0367064 -0.0483826
vn 0.983061 0.134716 -0.12427
v -0.044146 0.0355209 -0.0482431
vn -0.562029 0.582809 -0.586905
v -0.0435597 0.034904 -0.049298
vn -0.572106 0.484666 -0.66166
v -0.0456203 0.0339305 -0.0481456
vn -0.604224 0.465699 -0.646558
v -0.0501346 0.0304703 -0.0463471
vn -0.620908 0.471794 -0.626006
v -0.0471705 0.033863 -0.0465702
vn -0.635858 0.530032 -0.561027
v -0.0512933 0.0297859 -0.0456129
vn -0.658903 0.460438 -0.594848
v -0.0520143 0.0293474 -0.0451342
vn -0.686624 0.443313 -0.576213
v -0.0548902 0.0273377 -0.0432103
vn -0.699245 0.440909 -0.562722
v -0.0566631 0.0260654 -0.0418859
vn -0.737721 0.406805 -0.538774
v -0.0580508 0.0257618 -0.0400549
vn -0.767232 0.419281 -0.485343
v -0.0584793 0.0259739 -0.0390976
vn -0.99987 0.0107309 -0.012059
v -0.0501021 0.0225474 -0.0479039
vn -0.340241 -0.419562 -0.841549
v -0.0472942 0.0239353 -0.0496605
vn -0.371786 -0.2881 -0.882482
v -0.0441027 0.0252172 -0.0512219
vn -0.32952 -0.276297 -0.902816
v -0.0429935 0.0264895 -0.0520119
vn -0.358015 -0.203809 -0.911201
v -0.0426763 0.0265136 -0.0520863
vn 0.999883 -0.00479481 -0.0144921
v -0.0584793 0.0173184 -0.0413329
vn -0.999956 -0.00415437 -0.00839685
v -0.0581715 0.0176269 -0.0416954
vn -0.402058 -0.419567 -0.813826
v -0.052794 0.0214678 -0.0461101
vn -0.404146 -0.384203 -0.830093
v -0.0571272 0.0186486 -0.0426898
vn -0.436271 -0.351966 -0.828122
v -0.0426763 0.0362004 -0.0489216
vn 0.994352 0.0745367 -0.0755575
v -0.0426763 0.0356606 -0.0494142
vn 0.993996 0.0710445 -0.0832085
v -0.0426763 0.0349522 -0.049944
vn 0.99919 0.0231502 -0.0329042
v -0.0426763 0.0343594 -0.0503297
vn 0.984568 0.0914494 -0.149204
v -0.0439727 0.0338534 -0.0496419
vn -0.560012 0.432004 -0.706936
v -0.0450263 0.0331546 -0.0492004
vn -0.597884 0.441767 -0.668862
v -0.0454161 0.0320992 -0.049535
vn -0.594031 0.397598 -0.699316
v -0.050427 0.0296558 -0.0465981
vn -0.603574 0.409438 -0.684148
v -0.0515625 0.0286293 -0.0461891
vn -0.647844 0.396118 -0.650683
v -0.0544663 0.0264895 -0.0443024
vn -0.690172 0.401729 -0.601894
v -0.0551424 0.0264895 -0.0435124
vn -0.713958 0.388077 -0.582803
v -0.0562562 0.0252413 -0.0429408
vn -0.736437 0.336522 -0.586868
v -0.0577445 0.0249088 -0.041161
vn -0.760829 0.359597 -0.540212
v -0.0582628 0.0249088 -0.0403709
vn -0.78352 0.35344 -0.511055
v -0.0584793 0.0248992 -0.040041
vn -0.999741 0.0133481 -0.0184156
v -0.0532828 0.0225184 -0.0463332
vn -0.491641 -0.209674 -0.845178
v -0.0523531 0.0218968 -0.0465191
vn -0.409078 -0.367668 -0.83515
v -0.0503728 0.0236028 -0.048048
vn -0.435333 -0.213726 -0.874532
v -0.0475201 0.0249088 -0.049786
vn -0.422696 -0.138786 -0.895581
v -0.0461572 0.0249088 -0.0503622
vn -0.373943 -0.203393 -0.904874
v -0.0428496 0.0281666 -0.0523558
vn -0.416546 -0.110888 -0.902326
v -0.0426763 0.0280847 -0.0524023
vn 0.999961 -0.0016484 -0.0086676
v -0.0584793 0.0185859 -0.0417976
vn -0.999996 -0.000597489 -0.00278332
v -0.0583819 0.0185859 -0.0418813
vn -0.575412 -0.170778 -0.799835
v -0.0426763 0.0340655 -0.0505016
vn 0.999694 0.012143 -0.0215494
v -0.0433353 0.0328173 -0.0507386
vn -0.544623 0.418291 -0.726924
v -0.0445297 0.0327016 -0.0498836
vn -0.558612 0.414668 -0.718334
v -0.043685 0.0318823 -0.0510035
vn -0.537767 0.382168 -0.751501
v -0.0445683 0.0313088 -0.0506132
vn -0.582134 0.338144 -0.739445
v -0.0456698 0.0312365 -0.0497627
vn -0.588947 0.357178 -0.724959
v -0.0498654 0.0284413 -0.0477227
vn -0.592323 0.357156 -0.722214
v -0.0508679 0.0280076 -0.0471
vn -0.602104 0.346304 -0.719406
v -0.0518441 0.0275787 -0.0464819
vn -0.642567 0.30285 -0.70384
v -0.0547541 0.0254341 -0.044637
vn -0.686449 0.313357 -0.656197
v -0.0564604 0.0241859 -0.0431917
vn -0.737805 0.232037 -0.633879
v -0.0579533 0.0239016 -0.0414909
vn -0.765705 0.286426 -0.575896
v -0.0584793 0.023757 -0.0407613
vn -0.999848 0.00929394 -0.0147466
v -0.0550248 0.0217474 -0.0448833
vn -0.627166 -0.0537978 -0.777026
v -0.0550449 0.0233281 -0.0449158
vn -0.653325 0.0379851 -0.756124
v -0.0532828 0.0226534 -0.0463332
vn -0.574278 0.0287242 -0.818157
v -0.0504749 0.0249088 -0.048127
vn -0.522785 0.0462847 -0.851207
v -0.0493209 0.0249088 -0.0488101
vn -0.501503 -0.0127926 -0.865062
v -0.0483106 0.0249088 -0.0493817
vn -0.475441 -0.0655559 -0.877302
v -0.0444786 0.0280703 -0.0515194
vn -0.497328 0.0418474 -0.866553
v -0.0426763 0.0283305 -0.0524441
vn 0.999326 0.00204429 -0.0366634
v -0.0584793 0.0201666 -0.0419695
vn -0.999995 0.000637644 -0.00314978
v -0.0584623 0.0201666 -0.0419881
vn -0.672702 0.0340732 -0.739129
v -0.057466 0.0201666 -0.0427781
vn -0.618931 -0.0843005 -0.780909
v -0.0426763 0.0328173 -0.0511987
vn 0.999165 0.0192194 -0.0360668
v -0.0426763 0.032451 -0.051366
vn 0.999328 0.014457 -0.0336945
v -0.0430925 0.0313088 -0.0516076
vn -0.469278 0.308934 -0.827247
v -0.0440362 0.0308317 -0.0512405
vn -0.53196 0.313034 -0.786784
v -0.0451377 0.0296558 -0.0508966
vn -0.571542 0.267831 -0.775633
v -0.0501733 0.0273859 -0.0479504
vn -0.586773 0.28828 -0.756698
v -0.0520653 0.0264895 -0.0466631
vn -0.6346 0.23773 -0.735369
v -0.0549397 0.0243787 -0.0448275
vn -0.666214 0.18059 -0.723565
v -0.0582829 0.0217474 -0.0418487
vn -0.729992 0.168816 -0.662279
v -0.0581096 0.0228462 -0.0416861
vn -0.751102 0.21838 -0.623022
v -0.0584793 0.0217763 -0.0416024
vn -0.999894 0.00473791 -0.0137518
v -0.0584793 0.0232703 -0.0410308
vn -0.999878 0.00560229 -0.0146101
v -0.0584793 0.0234245 -0.0409704
vn -0.999859 0.00814223 -0.014704
v -0.0558354 0.0233281 -0.0441026
vn -0.715594 0.136693 -0.685011
v -0.053238 0.0237088 -0.0463007
vn -0.606207 0.0987567 -0.789151
v -0.0539109 0.0232413 -0.0458127
vn -0.614191 0.0503797 -0.787548
v -0.0512639 0.0249088 -0.0476204
vn -0.570265 0.0730027 -0.81821
v -0.0503264 0.0264895 -0.0480526
vn -0.556467 0.143149 -0.818445
v -0.0493209 0.0264895 -0.04868
vn -0.525575 0.0887026 -0.846111
v -0.0426763 0.029357 -0.0523744
vn 0.996113 0.00766836 -0.0877467
v -0.0443471 0.0296558 -0.0514357
vn -0.510865 0.142264 -0.847807
v -0.0426763 0.0312895 -0.0518354
vn 0.999122 0.0123518 -0.0400368
v -0.0511154 0.0264895 -0.0474531
vn -0.616788 0.182883 -0.765589
v -0.0523206 0.0249088 -0.0468304
vn -0.610264 0.144063 -0.778989
v -0.0426763 0.0296173 -0.0523233
vn 0.999989 0.00124398 -0.00445965
v -0.0428496 0.0295305 -0.0522629
vn -0.451139 0.239789 -0.859637
f 1//1 2//2 3//3
f 1//1 3//3 7//7
f 1//1 7//7 19//19
f 1//1 19//19 28//28
f 1//1 28//28 18//18
f 1//1 18//18 33//33
f 1//1 33//33 32//32
f 1//1 32//32 49//49
f 1//1 49//49 57//57
f 1//1 57//57 37//37
f 1//1 37//37 21//21
f 1//1 21//21 8//8
f 1//1 8//8 4//4
f 1//1 4//4 10//10
f 1//1 10//10 25//25
f 1//1 25//25 43//43
f 1//1 43//43 66//66
f 1//1 66//66 98//98
f 1//1 98//98 119//119
f 1//1 119//119 136//136
f 1//1 136//136 162//162
f 1//1 162//162 160//160
f 1//1 160//160 183//183
f 1//1 183//183 208//208
f 1//1 208//208 234//234
f 1//1 234//234 257//257
f 1//1 257//257 280//280
f 1//1 280//280 285//285
f 1//1 285//285 282//282
f 1//1 282//282 262//262
f 1//1 262//262 261//261
f 1//1 261//261 237//237
f 1//1 237//237 216//216
f 1//1 216//216 215//215
f 1//1 215//215 214//214
f 1//1 214//214 213//213
f 1//1 213//213 192//192
f 1//1 192//192 191//191
f 1//1 191//191 190//190
f 1//1 190//190 189//189
f 1//1 189//189 188//188
f 1//1 188//188 163//163
f 1//1 163//163 144//144
f 1//1 144//144 143//143
f 1//1 143//143 142//142
f 1//1 142//142 141//141
f 1//1 141//141 137//137
f 1//1 137//137 121//121
f 1//1 121//121 120//120
f 1//1 120//120 102//102
f 1//1 102//102 91//91
f 1//1 91//91 90//90
f 1//1 90//90 89//89
f 1//1 89//89 88//88
f 1//1 88//88 87//87
f 1//1 87//87 86//86
f 1//1 86//86 85//85
f 1//1 85//85 84//84
f 1//1 84//84 83//83
f 1//1 83//83 82//82
f 1//1 82//82 68//68
f 1//1 68//68 67//67
f 1//1 67//67 44//44
f 1//1 44//44 26//26
f 1//1 26//26 11//11
f 1//1 11//11 5//5
f 1//1 5//5 2//2
f 2//2 5//5 6//6
f 2//2 6//6 3//3
f 3//3 6//6 7//7
f 4//4 8//8 9//9
f 4//4 9//9 10//10
f 5//5 11//11 12//12
f 5//5 12//12 6//6
f 6//6 13//13 7//7
f 6//6 12//12 14//14
f 6//6 14//14 15//15
f 6//6 15//15 16//16
f 6//6 16//16 17//17
f 6//6 17//17 18//18
f 6//6 18//18 13//13
f 7//7 13//13 19//19
f 8//8 20//20 9//9
f 8//8 21//21 38//38
f 8//8 38//38 58//58
f 8//8 58//58 71//71
f 8//8 71//71 100//100
f 8//8 100//100 94//94
f 8//8 94//94 115//115
f 8//8 115//115 133//133
f 8//8 133//133 159//159
f 8//8 159//159 180//180
f 8//8 180//180 203//203
f 8//8 203//203 227//227
f 8//8 227//227 249//249
f 8//8 249//249 273//273
f 8//8 273//273 272//272
f 8//8 272//272 271//271
f 8//8 271//271 258//258
f 8//8 258//258 235//235
f 8//8 235//235 209//209
f 8//8 209//209 184//184
f 8//8 184//184 161//161
f 8//8 161//161 134//134
f 8//8 134//134 116//116
f 8//8 116//116 96//96
f 8//8 96//96 63//63
f 8//8 63//63 95//95
f 8//8 95//95 60//60
f 8//8 60//60 39//39
f 8//8 39//39 36//36
f 8//8 36//36 20//20
f 9//9 20//20 22//22
f 9//9 22//22 23//23
f 9//9 23//23 24//24
f 9//9 24//24 25//25
f 9//9 25//25 10//10
f 11//11 26//26 27//27
f 11//11 27//27 14//14
f 11//11 14//14 12//12
f 13//13 28//28 19//19
f 13//13 18//18 28//28
f 14//14 27//27 29//29
f 14//14 29//29 15//15
f 15//15 29//29 30//30
f 15//15 30//30 17//17
f 15//15 17//17 16//16
f 17//17 31//31 32//32
f 17//17 32//32 33//33
f 17//17 33//33 18//18
f 17//17 30//30 34//34
f 17//17 34//34 35//35
f 17//17 35//35 31//31
f 20//20 36//36 22//22
f 21//21 37//37 38//38
f 22//22 36//36 39//39
f 22//22 39//39 23//23
f 23//23 39//39 40//40
f 23//23 40//40 41//41
f 23//23 41//41 24//24
f 24//24 41//41 42//42
f 24//24 42//42 43//43
f 24//24 43//43 25//25
f 26//26 44//44 27//27
f 27//27 44//44 45//45
f 27//27 45//45 29//29
f 29//29 45//45 34//34
f 29//29 34//34 30//30
f 31//31 35//35 46//46
f 31//31 46//46 47//47
f 31//31 47//47 48//48
f 31//31 48//48 32//32
f 32//32 48//48 50//50
f 32//32 50//50 51//51
f 32//32 51//51 49//49
f 34//34 52//52 53//53
f 34//34 53//53 54//54
f 34//34 54//54 55//55
f 34//34 55//55 56//56
f 34//34 56//56 46//46
f 34//34 46//46 35//35
f 34//34 45//45 52//52
f 37//37 57//57 38//38
f 38//38 57//57 58//58
f 39//39 59//59 41//41
f 39//39 41//41 40//40
f 39//39 60//60 59//59
f 41//41 59//59 61//61
f 41//41 61//61 62//62
f 41//41 62//62 42//42
f 42//42 62//62 63//63
f 42//42 63//63 64//64
f 42//42 64//64 65//65
f 42//42 65//65 66//66
f 42//42 66//66 43//43
f 44//44 67//67 45//45
f 45//45 67//67 68//68
f 45//45 68//68 52//52
f 46//46 56//56 69//69
f 46//46 69//69 48//48
f 46//46 48//48 47//47
f 48//48 69//69 50//50
f 49//49 51//51 70//70
f 49//49 70//70 71//71
f 49//49 71//71 57//57
f 50//50 69//69 72//72
f 50//50 72//72 71//71
f 50//50 71//71 70//70
f 50//50 70//70 51//51
f 52//52 73//73 74//74
f 52//52 74//74 75//75
f 52//52 75//75 76//76
f 52//52 76//76 77//77
f 52//52 77//77 78//78
f 52//52 78//78 79//79
f 52//52 79//79 80//80
f 52//52 80//80 81//81
f 52//52 81//81 53//53
f 52//52 68//68 82//82
f 52//52 82//82 83//83
f 52//52 83//83 84//84
f 52//52 84//84 85//85
f 52//52 85//85 86//86
f 52//52 86//86 87//87
f 52//52 87//87 88//88
f 52//52 88//88 89//89
f 52//52 89//89 90//90
f 52//52 90//90 91//91
f 52//52 91//91 73//73
f 53//53 81//81 80//80
f 53//53 80//80 54//54
f 54//54 80//80 55//55
f 55//55 92//92 69//69
f 55//55 69//69 56//56
f 55//55 80//80 93//93
f 55//55 93//93 94//94
f 55//55 94//94 92//92
f 57//57 71//71 58//58
f 59//59 60//60 61//61
f 60//60 95//95 61//61
f 61//61 95//95 62//62
f 62//62 95//95 63//63
f 63//63 96//96 64//64
f 64//64 96//96 97//97
f 64//64 97//97 65//65
f 65//65 97//97 66//66
f 66//66 97//97 98//98
f 69//69 92//92 72//72
f 71//71 72//72 99//99
f 71//71 99//99 100//100
f 72//72 100//100 99//99
f 72//72 92//92 94//94
f 72//72 94//94 100//100
f 73//73 101//101 74//74
f 73//73 91//91 102//102
f 73//73 102//102 101//101
f 74//74 101//101 103//103
f 74//74 103//103 104//104
f 74//74 104//104 75//75
f 75//75 105//105 76//76
f 75//75 104//104 105//105
f 76//76 106//106 77//77
f 76//76 105//105 107//107
f 76//76 107//107 108//108
f 76//76 108//108 106//106
f 77//77 106//106 78//78
f 78//78 106//106 109//109
f 78//78 109//109 110//110
f 78//78 110//110 79//79
f 79//79 93//93 80//80
f 79//79 110//110 111//111
f 79//79 111//111 112//112
f 79//79 112//112 113//113
f 79//79 113//113 114//114
f 79//79 114//114 93//93
f 93//93 114//114 94//94
f 94//94 114//114 115//115
f 96//96 116//116 117//117
f 96//96 117//117 97//97
f 97//97 117//117 118//118
f 97//97 118//118 98//98
f 98//98 118//118 119//119
f 101//101 102//102 120//120
f 101//101 120//120 103//103
f 103//103 120//120 121//121
f 103//103 121//121 122//122
f 103//103 122//122 123//123
f 103//103 123//123 105//105
f 103//103 105//105 104//104
f 105//105 123//123 122//122
f 105//105 122//122 124//124
f 105//105 124//124 125//125
f 105//105 125//125 126//126
f 105//105 126//126 127//127
f 105//105 127//127 107//107
f 106//106 108//108 109//109
f 107//107 127//127 108//108
f 108//108 127//127 109//109
f 109//109 127//127 128//128
f 109//109 128//128 129//129
f 109//109 129//129 110//110
f 110//110 129//129 111//111
f 111//111 129//129 112//112
f 112//112 129//129 130//130
f 112//112 130//130 113//113
f 113//113 130//130 131//131
f 113//113 131//131 114//114
f 114//114 131//131 132//132
f 114//114 132//132 133//133
f 114//114 133//133 115//115
f 116//116 134//134 135//135
f 116//116 135//135 117//117
f 117//117 135//135 118//118
f 118//118 135//135 136//136
f 118//118 136//136 119//119
f 121//121 137//137 138//138
f 121//121 138//138 139//139
f 121//121 139//139 122//122
f 122//122 139//139 140//140
f 122//122 140//140 124//124
f 124//124 140//140 125//125
f 125//125 140//140 138//138
f 125//125 138//138 141//141
f 125//125 141//141 142//142
f 125//125 142//142 143//143
f 125//125 143//143 144//144
f 125//125 144//144 145//145
f 125//125 145//145 126//126
f 126//126 145//145 146//146
f 126//126 146//146 147//147
f 126//126 147//147 148//148
f 126//126 148//148 149//149
f 126//126 149//149 150//150
f 126//126 150//150 151//151
f 126//126 151//151 152//152
f 126//126 152//152 127//127
f 127//127 152//152 128//128
f 128//128 153//153 129//129
f 128//128 152//152 151//151
f 128//128 151//151 154//154
f 128//128 154//154 153//153
f 129//129 132//132 130//130
f 129//129 153//153 154//154
f 129//129 154//154 155//155
f 129//129 155//155 156//156
f 129//129 156//156 132//132
f 130//130 132//132 131//131
f 132//132 156//156 157//157
f 132//132 157//157 158//158
f 132//132 158//158 133//133
f 133//133 158//158 159//159
f 134//134 160//160 135//135
f 134//134 161//161 160//160
f 135//135 160//160 162//162
f 135//135 162//162 136//136
f 137//137 141//141 138//138
f 138//138 140//140 139//139
f 144//144 163//163 145//145
f 145//145 163//163 164//164
f 145//145 164//164 146//146
f 146//146 164//164 147//147
f 147//147 165//165 166//166
f 147//147 166//166 148//148
f 147//147 164//164 165//165
f 148//148 166//166 167//167
f 148//148 167//167 149//149
f 149//149 168//168 169//169
f 149//149 169//169 150//150
f 149//149 167//167 168//168
f 150//150 169//169 151//151
f 151//151 169//169 154//154
f 154//154 170//170 171//171
f 154//154 171//171 172//172
f 154//154 172//172 173//173
f 154//154 173//173 156//156
f 154//154 156//156 155//155
f 154//154 169//169 170//170
f 156//156 173//173 172//172
f 156//156 172//172 174//174
f 156//156 174//174 175//175
f 156//156 175//175 176//176
f 156//156 176//176 177//177
f 156//156 177//177 157//157
f 157//157 177//177 178//178
f 157//157 178//178 179//179
f 157//157 179//179 158//158
f 158//158 179//179 180//180
f 158//158 180//180 159//159
f 160//160 181//181 182//182
f 160//160 182//182 183//183
f 160//160 161//161 181//181
f 161//161 184//184 185//185
f 161//161 185//185 186//186
f 161//161 186//186 187//187
f 161//161 187//187 181//181
f 163//163 188//188 164//164
f 164//164 188//188 189//189
f 164//164 189//189 165//165
f 165//165 189//189 190//190
f 165//165 190//190 166//166
f 166//166 190//190 191//191
f 166//166 191//191 192//192
f 166//166 192//192 193//193
f 166//166 193//193 167//167
f 167//167 193//193 168//168
f 168//168 194//194 195//195
f 168//168 195//195 196//196
f 168//168 196//196 197//197
f 168//168 197//197 169//169
f 168//168 193//193 194//194
f 169//169 197//197 170//170
f 170//170 172//172 171//171
f 170//170 197//197 172//172
f 172//172 196//196 198//198
f 172//172 198//198 199//199
f 172//172 199//199 200//200
f 172//172 200//200 174//174
f 172//172 197//197 196//196
f 174//174 200//200 175//175
f 175//175 200//200 176//176
f 176//176 200//200 177//177
f 177//177 200//200 201//201
f 177//177 201//201 178//178
f 178//178 201//201 202//202
f 178//178 202//202 179//179
f 179//179 202//202 180//180
f 180//180 202//202 203//203
f 181//181 187//187 186//186
f 181//181 186//186 204//204
f 181//181 204//204 205//205
f 181//181 205//205 206//206
f 181//181 206//206 207//207
f 181//181 207//207 208//208
f 181//181 208//208 182//182
f 182//182 208//208 183//183
f 184//184 209//209 210//210
f 184//184 210//210 185//185
f 185//185 210//210 186//186
f 186//186 211//211 204//204
f 186//186 210//210 212//212
f 186//186 212//212 211//211
f 192//192 213//213 193//193
f 193//193 214//214 194//194
f 193//193 213//213 214//214
f 194//194 214//214 215//215
f 194//194 215//215 216//216
f 194//194 216//216 217//217
f 194//194 217//217 218//218
f 194//194 218//218 195//195
f 195//195 218//218 196//196
f 196//196 218//218 219//219
f 196//196 219//219 220//220
f 196//196 220//220 221//221
f 196//196 221//221 198//198
f 198//198 221//221 199//199
f 199//199 221//221 200//200
f 200//200 221//221 222//222
f 200//200 222//222 223//223
f 200//200 223//223 201//201
f 201//201 223//223 224//224
f 201//201 224//224 225//225
f 201//201 225//225 202//202
f 202//202 225//225 226//226
f 202//202 226//226 227//227
f 202//202 227//227 203//203
f 204//204 228//228 205//205
f 204//204 211//211 229//229
f 204//204 229//229 228//228
f 205//205 228//228 230//230
f 205//205 230//230 231//231
f 205//205 231//231 232//232
f 205//205 232//232 207//207
f 205//205 207//207 206//206
f 207//207 232//232 231//231
f 207//207 231//231 233//233
f 207//207 233//233 234//234
f 207//207 234//234 208//208
f 209//209 235//235 236//236
f 209//209 236//236 210//210
f 210//210 236//236 212//212
f 211//211 228//228 229//229
f 211//211 212//212 228//228
f 212//212 236//236 228//228
f 216//216 237//237 238//238
f 216//216 238//238 217//217
f 217//217 238//238 239//239
f 217//217 239//239 219//219
f 217//217 219//219 218//218
f 219//219 239//239 240//240
f 219//219 240//240 241//241
f 219//219 241//241 242//242
f 219//219 242//242 243//243
f 219//219 243//243 221//221
f 219//219 221//221 220//220
f 221//221 243//243 244//244
f 221//221 244//244 245//245
f 221//221 245//245 246//246
f 221//221 246//246 222//222
f 222//222 246//246 223//223
f 223//223 246//246 224//224
f 224//224 246//246 247//247
f 224//224 247//247 248//248
f 224//224 248//248 225//225
f 225//225 248//248 226//226
f 226//226 248//248 227//227
f 227//227 248//248 249//249
f 228//228 236//236 250//250
f 228//228 250//250 251//251
f 228//228 251//251 252//252
f 228//228 252//252 253//253
f 228//228 253//253 254//254
f 228//228 254//254 255//255
f 228//228 255//255 231//231
f 228//228 231//231 230//230
f 231//231 255//255 256//256
f 231//231 256//256 233//233
f 233//233 256//256 257//257
f 233//233 257//257 234//234
f 235//235 258//258 259//259
f 235//235 259//259 236//236
f 236//236 259//259 260//260
f 236//236 260//260 250//250
f 237//237 261//261 238//238
f 238//238 261//261 240//240
f 238//238 240//240 239//239
f 240//240 261//261 262//262
f 240//240 262//262 263//263
f 240//240 263//263 264//264
f 240//240 264//264 241//241
f 241//241 264//264 265//265
f 241//241 265//265 266//266
f 241//241 266//266 243//243
f 241//241 243//243 242//242
f 243//243 266//266 244//244
f 244//244 266//266 245//245
f 245//245 266//266 267//267
f 245//245 267//267 246//246
f 246//246 267//267 268//268
f 246//246 268//268 247//247
f 247//247 268//268 269//269
f 247//247 269//269 270//270
f 247//247 270//270 248//248
f 248//248 270//270 271//271
f 248//248 271//271 272//272
f 248//248 272//272 273//273
f 248//248 273//273 249//249
f 250//250 259//259 251//251
f 250//250 260//260 259//259
f 251//251 274//274 268//268
f 251//251 268//268 275//275
f 251//251 275//275 276//276
f 251//251 276//276 252//252
f 251//251 259//259 274//274
f 252//252 276//276 275//275
f 252//252 275//275 277//277
f 252//252 277//277 253//253
f 253//253 277//277 278//278
f 253//253 278//278 279//279
f 253//253 279//279 256//256
f 253//253 256//256 254//254
f 254//254 256//256 255//255
f 256//256 280//280 257//257
f 256//256 279//279 281//281
f 256//256 281//281 280//280
f 258//258 271//271 269//269
f 258//258 269//269 259//259
f 259//259 269//269 274//274
f 262//262 282//282 263//263
f 263//263 282//282 281//281
f 263//263 281//281 264//264
f 264//264 281//281 265//265
f 265//265 281//281 278//278
f 265//265 278//278 266//266
f 266//266 278//278 283//283
f 266//266 283//283 267//267
f 267//267 283//283 268//268
f 268//268 274//274 269//269
f 268//268 283//283 284//284
f 268//268 284//284 275//275
f 269//269 271//271 270//270
f 275//275 284//284 277//277
f 277//277 284//284 278//278
f 278//278 284//284 283//283
f 278//278 281//281 279//279
f 280//280 281//281 286//286
f 280//280 286//286 285//285
f 281//281 282//282 286//286
f 282//282 285//285 286//286
