# Created by Open3D 
# object name: part_015
# number of vertices: 283
# number of triangles: 562
v -0.00819733 -0.000152954 0.0820484
vn -0.000208741 -0.999982 0.00607807
v -0.00976921 -0.000152954 0.0818973
vn -0.116802 0.0751232 0.99031
v -0.0066286 -0.000152954 0.0820379
vn 0.0174836 0.103206 0.994506
v -0.0066727 0.00124768 0.0818763
vn 0.0711477 0.14557 0.986786
v -0.00818158 0.0012807 0.0818798
vn -0.03505 0.12491 0.991549
v -0.00936286 0.000813815 0.0818376
vn -0.13873 0.150961 0.978757
v -0.0112655 -0.000152954 0.0816865
vn -0.149638 0.0350584 0.988119
v -0.00639864 -0.000152954 0.0820168
vn 0.10732 0.00756907 0.994196
v -0.00723341 0.00203525 0.0817849
vn 0.0526248 0.176989 0.982805
v -0.00556702 0.000761941 0.0818306
vn 0.125014 0.108156 0.986242
v -0.00131128 0.00593062 0.0806782
vn 0.999967 0.00112114 0.00810073
v -0.00131128 0.00650597 0.0805904
vn 0.0810865 0.158895 0.98396
v -0.00131128 0.00756234 0.0804147
vn 0.0741583 0.16684 0.983191
v -0.00763977 0.00203525 0.0817849
vn -0.0224693 0.226075 0.973851
v -0.00869189 0.00187019 0.0817533
vn -0.139825 0.225315 0.9642
v -0.0129476 0.00118638 0.0811876
vn -0.161565 0.175415 0.971147
v -0.0129476 -0.000152954 0.081416
vn -0.171263 0.0879653 0.981291
v -0.00519532 -0.000152954 0.0818587
vn 0.137921 -0.104551 0.98491
v -0.00187514 0.00751518 0.0804604
vn 0.0553004 0.186788 0.980843
v -0.00345648 0.00751518 0.0805447
vn 0.0250465 0.211376 0.977084
v -0.00131128 0.000167731 0.081279
vn 0.153289 0.0893504 0.984134
v -0.00131128 0.00276622 0.0810401
vn 0.154939 0.0917382 0.983655
v -0.00131128 0.00333214 0.0809839
vn 0.144617 0.100399 0.984381
v -0.00131128 0.00435078 0.0808785
vn 0.13369 0.109523 0.984953
v -0.00131128 0.00491198 0.0808082
vn 0.115132 0.124918 0.985464
v -0.00131128 0.00790661 0.0803444
vn 0.183272 0.197599 0.962998
v -0.00818158 0.0026436 0.0816022
vn -0.0617458 0.243416 0.967954
v -0.00503781 0.00751518 0.0805412
vn -0.0224567 0.236197 0.971446
v -0.00661915 0.00593062 0.0808644
vn -0.0520235 0.243685 0.968458
v -0.014529 0.00276622 0.080629
vn -0.162473 0.187325 0.968768
v -0.00820048 0.00593062 0.0807696
vn -0.0860732 0.246973 0.965192
v -0.00978181 0.00703887 0.0802952
vn -0.145177 0.31505 0.937906
v -0.0106985 0.00680308 0.080218
vn -0.149303 0.25493 0.955364
v -0.0155559 0.00377543 0.0802496
vn -0.167044 0.231817 0.95831
v -0.014529 0.00118638 0.0809066
vn -0.194913 0.156037 0.968329
v -0.014529 -0.000152954 0.0810893
vn -0.238714 -0.0574766 0.969387
v -0.00131128 -0.000152954 0.0813071
vn 0.660335 -0.750933 0.00757094
v -0.00131128 0.00867531 0.0801863
vn 0.0898882 0.211796 0.973171
v -0.00345648 0.00862815 0.0802777
vn 0.00618814 0.246131 0.969217
v -0.00131128 0.00979771 0.0799334
vn 0.0872559 0.231365 0.968946
v -0.00503781 0.00855269 0.0802636
vn -0.0479926 0.285693 0.957119
v -0.00674515 0.00766138 0.0804182
vn -0.0577916 0.256894 0.96471
v -0.00820048 0.00735956 0.0803971
vn -0.0949139 0.27158 0.957724
v -0.0161103 0.00751518 0.0790761
vn -0.157613 0.319551 0.934369
v -0.00820048 0.00815184 0.0801372
vn -0.116848 0.316757 0.941282
v -0.00503781 0.0217479 0.0759457
vn -0.123772 0.327033 0.936873
v -0.00657189 0.0218281 0.0757033
vn -0.135819 0.323636 0.936383
v -0.00820048 0.0213754 0.0756155
vn -0.157029 0.32616 0.932181
v -0.0161103 0.00593062 0.079568
vn -0.167857 0.272729 0.947335
v -0.0176885 0.00593062 0.0792377
vn -0.239466 0.226518 0.944111
v -0.0176885 0.00435078 0.0795469
vn -0.282241 0.175574 0.94314
v -0.0166805 0.00276622 0.0801336
vn -0.289141 0.161879 0.9435
v -0.0158898 0.00276622 0.0803515
vn -0.239026 0.143009 0.960424
v -0.0161324 -0.000152954 0.0806536
vn -0.274732 -0.331312 0.902638
v -0.0162647 0.001342 0.0804498
vn -0.256151 0.120554 0.95909
v -0.00131128 -0.000152954 0.0634839
vn 0.467797 -0.755512 -0.458657
v -0.00131128 0.0112408 0.079575
vn 0.112018 0.255858 0.960202
v -0.00345648 0.00941571 0.0800634
vn -0.0197706 0.272855 0.961852
v -0.00503781 0.00934026 0.0800212
vn -0.0610059 0.293939 0.953875
v -0.00630099 0.00841593 0.080225
vn -0.0661004 0.295008 0.953206
v -0.00131128 0.0145372 0.078644
vn 0.0453137 0.27726 0.959726
v -0.00131128 0.014641 0.0786124
vn 0.0988642 0.290968 0.951611
v -0.00131128 0.0203284 0.0768732
vn -0.0432389 0.309386 0.949953
v -0.00735311 0.0082886 0.0801863
vn -0.0855777 0.302934 0.949161
v -0.0169923 0.00835463 0.0786299
vn -0.184943 0.336603 0.923306
v -0.0175845 0.00751047 0.0787986
vn -0.196549 0.290741 0.936396
v -0.00503781 0.0201634 0.0764797
vn -0.113721 0.316752 0.941666
v -0.00131128 0.0217479 0.0763498
vn 0.221469 0.37099 0.901841
v -0.00503781 0.0227524 0.0755311
vn -0.101934 0.383334 0.917968
v -0.00601118 0.0226015 0.0754714
vn -0.126239 0.382024 0.91549
v -0.00706646 0.0224129 0.0753906
vn -0.152773 0.382189 0.911368
v -0.00820048 0.0221677 0.0752922
vn -0.161577 0.375564 0.912603
v -0.00978181 0.0233278 0.0745333
vn -0.165189 0.372553 0.913191
v -0.0108938 0.0242804 0.0739431
vn -0.187912 0.420178 0.887772
v -0.0113978 0.0234174 0.074189
vn -0.183542 0.356901 0.915933
v -0.0092274 0.021116 0.0755101
vn -0.185967 0.340773 0.921569
v -0.0192478 0.00580801 0.0787845
vn -0.295741 0.188562 0.936473
v -0.018706 0.00697757 0.0786967
vn -0.324714 0.276943 0.904358
v -0.0201014 0.00519965 0.0786229
vn -0.343541 0.183663 0.921004
v -0.0168978 0.00196922 0.0801899
vn -0.324481 0.114983 0.938877
v -0.0171624 -0.000152954 0.0803023
vn -0.329907 -0.222619 0.917389
v -0.0334924 -0.000152954 0.0564009
vn -0.468268 -0.720162 -0.511948
v -0.00131128 0.0248699 0.0461595
vn 0.437339 -0.248539 -0.86427
v -0.00131128 0.0128206 0.0791323
vn 0.163521 0.268145 0.949399
v -0.0180444 0.00803394 0.0785105
vn -0.244149 0.343838 0.906734
v -0.0145353 0.0218234 0.0741715
vn -0.195534 0.343113 0.918717
v -0.00131128 0.023191 0.0757068
vn 0.526206 0.352013 0.774076
v -0.00503781 0.02354 0.0751974
vn -0.10892 0.423409 0.899367
v -0.00657189 0.0232099 0.0751271
vn -0.141799 0.407526 0.902117
v -0.00978181 0.0244643 0.074038
vn -0.136447 0.437175 0.888966
v -0.00978181 0.0252566 0.0736234
vn -0.164498 0.548577 0.819759
v -0.0150487 0.0256197 0.0722391
vn -0.18533 0.533919 0.824975
v -0.0161103 0.0253839 0.0721162
vn -0.225519 0.465304 0.85594
v -0.0161103 0.0245917 0.0725272
vn -0.22226 0.42812 0.875964
v -0.0145353 0.023257 0.0735531
vn -0.215312 0.41424 0.884334
v -0.0150676 0.0224034 0.0738061
vn -0.226759 0.390244 0.892351
v -0.0140124 0.0226817 0.0739255
vn -0.201724 0.382766 0.901553
v -0.0288523 0.00915162 0.0742136
vn -0.353335 0.23459 0.905606
v -0.0197612 0.00625603 0.0784824
vn -0.349727 0.236887 0.906408
v -0.0192698 0.00909503 0.077734
vn -0.291238 0.337184 0.895258
v -0.024354 0.0110239 0.0753133
vn -0.305341 0.324558 0.895226
v -0.0279924 0.0114907 0.0738728
vn -0.331354 0.304704 0.89295
v -0.0283011 0.0106749 0.0739993
vn -0.344604 0.258073 0.902578
v -0.0287578 0.00751518 0.0746317
vn -0.388041 0.182745 0.903343
v -0.0235256 0.00561937 0.0771578
vn -0.363162 0.207854 0.908246
v -0.0224325 0.00435078 0.0778851
vn -0.36214 0.181852 0.914212
v -0.0224325 0.00276622 0.0781345
vn -0.339184 0.108042 0.934495
v -0.0224545 -0.000152954 0.0783524
vn -0.254002 -0.700287 0.667144
v -0.022275 0.00103075 0.0783489
vn -0.346499 0.0724056 0.935252
v -0.0334924 -0.000152954 0.0736164
vn -0.342075 -0.939672 0.000687652
v -0.0334924 0.0185222 0.0461595
vn -0.303234 -3.26979e-05 -0.952916
v -0.0334892 0.0183147 0.0461595
vn 0.0944212 -0.478692 -0.872891
v -0.00131128 0.0474923 0.0461595
vn 0.791592 0.609296 0.0462699
v -0.0176916 0.016966 0.0751798
vn -0.25924 0.346633 0.901466
v -0.0192698 0.0170037 0.074709
vn -0.276863 0.353054 0.8937
v -0.0158079 0.0213471 0.0740345
vn -0.260228 0.35478 0.898005
v -0.00131128 0.0239314 0.0753555
vn 0.47104 0.437499 0.765974
v -0.00345648 0.0237098 0.0752641
vn -0.0847813 0.447586 0.890213
v -0.00503781 0.0249029 0.0744912
vn -0.083319 0.481545 0.872452
v -0.0066286 0.0250302 0.0742312
vn -0.12614 0.453109 0.882486
v -0.00716096 0.0256386 0.0738272
vn -0.127997 0.608129 0.783451
v -0.00978181 0.026313 0.0728329
vn -0.148165 0.595257 0.789757
v -0.0187123 0.0289303 0.069179
vn -0.130938 0.649686 0.748841
v -0.0176885 0.0271336 0.0706124
vn -0.205437 0.533305 0.820598
v -0.0176885 0.026346 0.0711149
vn -0.233394 0.506676 0.829944
v -0.0176948 0.0248557 0.0719335
vn -0.269026 0.44059 0.85645
v -0.0189737 0.0260347 0.0709076
vn -0.284851 0.46327 0.83919
v -0.0171782 0.0242993 0.0723691
vn -0.269918 0.387079 0.881654
v -0.0161103 0.0233278 0.0731069
vn -0.254817 0.387757 0.88584
v -0.0297217 0.00866116 0.0739607
vn -0.459283 0.179484 0.869968
v -0.0294414 0.00971282 0.0738166
vn -0.382476 0.248239 0.889994
v -0.0208512 0.0154191 0.0748144
vn -0.289744 0.342004 0.893913
v -0.0255952 0.0154191 0.073265
vn -0.298862 0.339033 0.892041
v -0.0257464 0.0124103 0.0743296
vn -0.308865 0.328707 0.892499
v -0.0271765 0.0118727 0.0740239
vn -0.314888 0.326417 0.891234
v -0.0271765 0.0138393 0.0732861
vn -0.325623 0.335767 0.883872
v -0.0272111 0.0154427 0.0726607
vn -0.344719 0.338911 0.87539
v -0.0286129 0.0121132 0.0733915
vn -0.34596 0.33696 0.875654
v -0.0309345 0.0128159 0.0722005
vn -0.368674 0.347309 0.862239
v -0.0303801 0.0122783 0.0726186
vn -0.373011 0.288222 0.881925
v -0.0290917 0.0106749 0.0736796
vn -0.373916 0.277722 0.884905
v -0.0299107 0.00751518 0.0740801
vn -0.433117 0.155565 0.887811
v -0.0328876 -0.000152954 0.0739607
vn -0.465583 0.108074 0.878381
v -0.0287578 0.00593062 0.0748952
vn -0.413016 0.146067 0.898934
v -0.0248391 0.00363867 0.0770419
vn -0.400376 0.140282 0.90555
v -0.024039 0.0042376 0.0772597
vn -0.373668 0.187109 0.908495
v -0.0240138 0.00276622 0.0775162
vn -0.383624 0.107969 0.917156
v -0.0240138 0.00118638 0.0776602
vn -0.377832 0.0641947 0.923646
v -0.0240138 -0.000152954 0.0777164
vn -0.214757 -0.825379 0.52214
v -0.0334577 -0.000152954 0.0736374
vn -0.460433 -0.365879 0.808786
v -0.0334924 0.00904787 0.0718105
vn -0.997008 0.0151722 0.0757942
v -0.0334924 0.0475348 0.0461595
vn -0.334175 0.00120417 -0.94251
v -0.0293059 0.0480252 0.0461595
vn 0.00405546 0.224891 -0.974376
v -0.0319205 0.0448703 0.0504001
vn 0.0151693 0.795354 0.605956
v -0.00131128 0.0274401 0.072478
vn 0.361273 0.740308 0.566944
v -0.0208543 0.0170367 0.074182
vn -0.290802 0.361542 0.885845
v -0.0182271 0.0239126 0.0722005
vn -0.299328 0.378136 0.876023
v -0.00131128 0.0248557 0.0747793
vn 0.826128 0.313571 0.468172
v -0.00503781 0.0257989 0.0739466
vn -0.0505034 0.593385 0.803333
v -0.00610883 0.0257423 0.0739009
vn -0.0931504 0.615102 0.782926
v -0.00816898 0.0266101 0.0728434
vn -0.119606 0.645036 0.754733
v -0.0197675 0.0287323 0.0690349
vn -0.256887 0.552582 0.792882
v -0.00762087 0.0273128 0.0723234
vn -0.100567 0.689921 0.716864
v -0.0255952 0.0348347 0.062458
vn -0.1027 0.698498 0.708205
v -0.0255952 0.0340424 0.0631712
vn -0.203749 0.627775 0.751256
v -0.0208512 0.0276193 0.0693195
vn -0.303519 0.492935 0.815409
v -0.0217237 0.0273363 0.0691544
vn -0.347581 0.455189 0.81975
v -0.0208512 0.0264875 0.0699414
vn -0.33203 0.433232 0.837894
v -0.020029 0.0256669 0.0706862
vn -0.32612 0.424602 0.844606
v -0.0194084 0.0250444 0.0712308
vn -0.318753 0.410171 0.854492
v -0.0320055 0.00904787 0.0726397
vn -0.473471 0.171686 0.863915
v -0.0303392 0.0106749 0.0731421
vn -0.41276 0.24092 0.8784
v -0.0315645 0.0106749 0.0725342
vn -0.465549 0.206222 0.860661
v -0.025592 0.0170367 0.0726186
vn -0.29585 0.367319 0.881787
v -0.026704 0.0165321 0.0724324
vn -0.356462 0.366268 0.859525
v -0.0334924 0.0140326 0.0705176
vn -0.975224 0.0746505 0.208246
v -0.0313031 0.0117643 0.0723832
vn -0.428796 0.264126 0.863928
v -0.0334451 0.0169424 0.0693898
vn -0.365129 0.364626 0.85658
v -0.0334924 0.0157304 0.0698746
vn -0.990446 0.0530104 0.127305
v -0.0334924 0.0154333 0.0699976
vn -0.991551 0.0494788 0.119912
v -0.0334924 0.0154238 0.0700011
vn -0.991354 0.0456664 0.12301
v -0.0327742 -0.000152954 0.0740134
vn -0.41714 -0.0635076 0.906621
v -0.0327773 0.00848667 0.0723199
vn -0.479994 0.169593 0.860723
v -0.0281058 0.00393106 0.0755136
vn -0.411177 0.141196 0.900554
v -0.0316779 -0.000152954 0.0745158
vn -0.40604 -0.158205 0.900057
v -0.029517 0.00012057 0.0754328
vn -0.394657 0.0991094 0.913468
v -0.0295359 -0.000152954 0.0754398
vn -0.23368 -0.790666 0.565898
v -0.0325915 0.00954305 0.072211
vn -0.481533 0.189972 0.855591
v -0.0334924 0.0106749 0.0714416
vn -0.993542 0.026144 0.11041
v -0.0334924 0.0469736 0.0470273
vn -0.99975 0.0186959 0.0122653
v -0.0327206 0.0462567 0.0485662
vn -0.136776 0.815218 0.562772
v -0.0332719 0.0475866 0.0461595
vn -0.0191502 0.0839864 -0.996283
v -0.0303392 0.0480158 0.0461595
vn -0.00310188 0.107323 -0.994219
v -0.0326387 0.0462567 0.0485662
vn 0.00912535 0.799573 0.600499
v -0.0319205 0.044243 0.0511906
vn -0.0172866 0.774578 0.632243
v -0.00345648 0.0274259 0.0724499
vn -0.0152239 0.772199 0.635199
v -0.00131128 0.0266855 0.0732685
vn 0.930293 0.260339 0.258416
v -0.0217615 0.0242049 0.070746
vn -0.323662 0.402454 0.856314
v -0.0261149 0.0175885 0.0721864
vn -0.334735 0.399989 0.853206
v -0.00131128 0.0258933 0.0740415
vn 0.715156 0.462024 0.524485
v -0.00503781 0.0265865 0.0732194
vn -0.0363065 0.685925 0.726766
v -0.00661915 0.0273693 0.0723832
vn -0.0541619 0.739203 0.671301
v -0.0264142 0.0320381 0.0643868
vn -0.290373 0.538115 0.791275
v -0.0248769 0.0304866 0.0659854
vn -0.315954 0.502261 0.804927
v -0.0208512 0.0284116 0.0688241
vn -0.307549 0.505562 0.806115
v -0.0268426 0.0338302 0.0629814
vn -0.262899 0.596127 0.758629
v -0.0255952 0.0355893 0.0616674
vn -0.0562139 0.742476 0.66751
v -0.0271765 0.0370323 0.0599037
vn -0.108002 0.728439 0.676544
v -0.028383 0.036905 0.0597597
vn -0.199026 0.669326 0.715815
v -0.0271765 0.0354242 0.0614531
vn -0.221173 0.650506 0.726584
v -0.0223222 0.0264262 0.0693793
vn -0.356038 0.431076 0.829102
v -0.0223443 0.0248039 0.0702084
vn -0.338898 0.429473 0.837079
v -0.0259291 0.0300999 0.0657746
vn -0.344915 0.471719 0.81149
v -0.0282066 0.0306328 0.0644852
vn -0.368758 0.44193 0.81775
v -0.0234027 0.0258555 0.0692071
vn -0.366164 0.437401 0.821343
v -0.0208512 0.0253462 0.0705281
vn -0.333146 0.428856 0.8397
v -0.0334924 0.0122359 0.0710551
vn -0.987572 0.0403814 0.151891
v -0.0328781 0.0179374 0.0691895
vn -0.364304 0.428555 0.826815
v -0.0334924 0.0139147 0.0705562
vn -0.993307 0.0347554 0.110151
v -0.0334924 0.0132309 0.0707705
vn -0.993227 0.0330968 0.111377
v -0.0334924 0.0169895 0.0693476
vn -0.999408 0.0141979 0.0313381
v -0.0334924 0.0169141 0.0693793
vn -0.999997 0.000981777 0.00234576
v -0.0298729 -0.000152954 0.0752957
vn -0.0454137 -0.993405 0.105278
v -0.0334924 0.0461011 0.0483448
vn -0.999141 0.0335924 0.0242823
v -0.0330073 0.0448089 0.0503193
vn -0.205677 0.75734 0.619785
v -0.0309377 0.0479781 0.0461595
vn -0.00779348 0.10051 -0.994906
v -0.0319205 0.0478932 0.0461595
vn -0.0150781 0.0899164 -0.995835
v -0.0319205 0.0434507 0.0521392
vn -0.0393728 0.760804 0.647787
v -0.00503781 0.0274071 0.0724289
vn -0.030503 0.760611 0.648491
v -0.0228136 0.0237805 0.0705352
vn -0.352956 0.420056 0.836047
v -0.0278569 0.0192768 0.0706546
vn -0.351383 0.41159 0.840907
v -0.0271765 0.0378199 0.0590043
vn -0.0386512 0.7582 0.650876
v -0.0271576 0.0327974 0.0635787
vn -0.316274 0.530211 0.786668
v -0.0274694 0.0316892 0.0641725
vn -0.341657 0.501367 0.794922
v -0.0270347 0.0311893 0.0646573
vn -0.342381 0.481476 0.806818
v -0.0294382 0.0367211 0.0596016
vn -0.253298 0.632644 0.731848
v -0.0319205 0.0378906 0.0576833
vn -0.286879 0.613842 0.735458
v -0.0319205 0.0370984 0.0583262
vn -0.324978 0.579316 0.747517
v -0.0278979 0.0335614 0.0627636
vn -0.34699 0.544959 0.763294
v -0.0295485 0.0383481 0.0580522
vn -0.160028 0.703626 0.692316
v -0.0319205 0.0427434 0.0529297
vn -0.106302 0.73783 0.666563
v -0.0319205 0.0419558 0.053794
vn -0.132818 0.723131 0.677821
v -0.0306038 0.0381972 0.0579046
vn -0.226583 0.664649 0.711971
v -0.0287421 0.0311893 0.0639055
vn -0.375144 0.479171 0.793512
v -0.0292587 0.0301801 0.0642322
vn -0.399315 0.447271 0.80031
v -0.0334451 0.0185128 0.0686239
vn -0.385572 0.442526 0.809633
v -0.0334924 0.018409 0.0686555
vn -0.999465 0.0150241 0.0290544
v -0.0334924 0.0176403 0.0690525
vn -0.9995 0.0138532 0.0284117
v -0.0334924 0.0455871 0.0490194
vn -0.999884 0.0120429 0.00927711
v -0.0334924 0.044691 0.0501753
vn -0.999592 0.022017 0.0182179
v -0.0331238 0.0433329 0.0519811
vn -0.238604 0.714924 0.65723
v -0.0287578 0.032472 0.0631009
vn -0.368706 0.5216 0.769409
v -0.0319205 0.0387867 0.0568928
vn -0.27727 0.64859 0.708839
v -0.0329884 0.0385603 0.0566539
vn -0.371127 0.599977 0.708726
v -0.0327931 0.0368343 0.0580979
vn -0.417649 0.502527 0.756992
v -0.0319205 0.0412012 0.0545845
vn -0.217022 0.689631 0.690877
v -0.0319205 0.040409 0.055354
vn -0.247018 0.671638 0.698488
v -0.0319205 0.039579 0.0561445
vn -0.255371 0.665384 0.701462
v -0.0296839 0.0321372 0.062876
vn -0.415005 0.490438 0.766317
v -0.0302604 0.0311751 0.0631431
vn -0.413899 0.456807 0.787411
v -0.0303518 0.0296519 0.0639687
vn -0.414446 0.447736 0.792318
v -0.0334924 0.0200077 0.0677631
vn -0.980957 0.0955199 0.169114
v -0.0334924 0.0185128 0.0685993
vn -0.999997 0.00116492 0.00208693
v -0.0334924 0.0440968 0.0508674
vn -0.999925 0.0092861 0.00798254
v -0.0334924 0.0438092 0.0512012
vn -0.999923 0.00930629 0.00818126
v -0.0334924 0.0432197 0.0518652
vn -0.999668 0.0184611 0.0179834
v -0.0331049 0.0417672 0.0535692
vn -0.324494 0.665173 0.672494
v -0.0330766 0.0401779 0.0551256
vn -0.309796 0.654593 0.68959
v -0.0334924 0.0400317 0.0549886
vn -0.999422 0.0229701 0.0250769
v -0.0334924 0.0391074 0.0558247
vn -0.999811 0.0129217 0.0145287
v -0.0334924 0.0383528 0.0564817
vn -0.999794 0.012914 0.0156676
v -0.0334924 0.0375558 0.0571036
vn -0.999729 0.0143044 0.0183831
v -0.0334199 0.0374804 0.057209
vn -0.456782 0.535627 0.71025
v -0.0334924 0.0365089 0.0578765
vn -0.999439 0.0191777 0.027442
v -0.0334924 0.0358251 0.0583157
vn -0.998268 0.0313866 0.0497558
v -0.0329254 0.0290671 0.0629287
vn -0.450251 0.46294 0.763519
v -0.0313157 0.0306092 0.0629041
vn -0.441017 0.478596 0.759242
v -0.0318732 0.0296189 0.0631817
vn -0.420576 0.448168 0.788835
v -0.0334924 0.0287606 0.0627496
vn -0.999621 0.0141173 0.0236358
v -0.0334924 0.0422152 0.05287
vn -0.999901 0.00991627 0.0099829
v -0.0334924 0.0416351 0.0534392
vn -0.999899 0.00992849 0.0101641
v -0.0334924 0.0406542 0.0543948
vn -0.999568 0.0204268 0.021127
v -0.0334924 0.0374143 0.057209
vn -0.999995 0.00187079 0.00253399
f 1//1 2//2 7//7
f 1//1 7//7 17//17
f 1//1 17//17 36//36
f 1//1 36//36 54//54
f 1//1 54//54 81//81
f 1//1 81//81 108//108
f 1//1 108//108 149//149
f 1//1 149//149 187//187
f 1//1 187//187 223//223
f 1//1 223//223 185//185
f 1//1 185//185 182//182
f 1//1 182//182 143//143
f 1//1 143//143 150//150
f 1//1 150//150 110//110
f 1//1 110//110 82//82
f 1//1 82//82 56//56
f 1//1 56//56 37//37
f 1//1 37//37 18//18
f 1//1 18//18 8//8
f 1//1 8//8 3//3
f 1//1 3//3 4//4
f 1//1 4//4 5//5
f 1//1 5//5 6//6
f 1//1 6//6 2//2
f 2//2 6//6 7//7
f 3//3 8//8 4//4
f 4//4 9//9 5//5
f 4//4 8//8 10//10
f 4//4 10//10 11//11
f 4//4 11//11 12//12
f 4//4 12//12 13//13
f 4//4 13//13 9//9
f 5//5 9//9 14//14
f 5//5 14//14 15//15
f 5//5 15//15 6//6
f 6//6 15//15 16//16
f 6//6 16//16 17//17
f 6//6 17//17 7//7
f 8//8 18//18 10//10
f 9//9 13//13 19//19
f 9//9 19//19 20//20
f 9//9 20//20 14//14
f 10//10 18//18 21//21
f 10//10 21//21 22//22
f 10//10 22//22 23//23
f 10//10 23//23 24//24
f 10//10 24//24 25//25
f 10//10 25//25 11//11
f 11//11 25//25 24//24
f 11//11 24//24 23//23
f 11//11 23//23 22//22
f 11//11 22//22 21//21
f 11//11 21//21 37//37
f 11//11 37//37 56//56
f 11//11 56//56 83//83
f 11//11 83//83 113//113
f 11//11 113//113 155//155
f 11//11 155//155 197//197
f 11//11 197//197 200//200
f 11//11 200//200 158//158
f 11//11 158//158 117//117
f 11//11 117//117 87//87
f 11//11 87//87 68//68
f 11//11 68//68 63//63
f 11//11 63//63 62//62
f 11//11 62//62 61//61
f 11//11 61//61 84//84
f 11//11 84//84 57//57
f 11//11 57//57 40//40
f 11//11 40//40 38//38
f 11//11 38//38 26//26
f 11//11 26//26 13//13
f 11//11 13//13 12//12
f 13//13 26//26 19//19
f 14//14 27//27 15//15
f 14//14 20//20 28//28
f 14//14 28//28 29//29
f 14//14 29//29 27//27
f 15//15 30//30 16//16
f 15//15 27//27 31//31
f 15//15 31//31 32//32
f 15//15 32//32 33//33
f 15//15 33//33 34//34
f 15//15 34//34 30//30
f 16//16 35//35 17//17
f 16//16 30//30 35//35
f 17//17 35//35 36//36
f 18//18 37//37 21//21
f 19//19 26//26 38//38
f 19//19 38//38 20//20
f 20//20 39//39 28//28
f 20//20 38//38 40//40
f 20//20 40//40 39//39
f 27//27 29//29 31//31
f 28//28 39//39 41//41
f 28//28 41//41 42//42
f 28//28 42//42 29//29
f 29//29 42//42 31//31
f 30//30 34//34 35//35
f 31//31 42//42 43//43
f 31//31 43//43 32//32
f 32//32 44//44 33//33
f 32//32 43//43 45//45
f 32//32 45//45 46//46
f 32//32 46//46 47//47
f 32//32 47//47 48//48
f 32//32 48//48 44//44
f 33//33 44//44 49//49
f 33//33 49//49 34//34
f 34//34 49//49 50//50
f 34//34 50//50 51//51
f 34//34 51//51 52//52
f 34//34 52//52 53//53
f 34//34 53//53 35//35
f 35//35 53//53 36//36
f 36//36 53//53 55//55
f 36//36 55//55 54//54
f 39//39 40//40 57//57
f 39//39 57//57 58//58
f 39//39 58//58 41//41
f 41//41 59//59 60//60
f 41//41 60//60 42//42
f 41//41 58//58 61//61
f 41//41 61//61 62//62
f 41//41 62//62 63//63
f 41//41 63//63 59//59
f 42//42 60//60 64//64
f 42//42 64//64 43//43
f 43//43 64//64 45//45
f 44//44 65//65 66//66
f 44//44 66//66 49//49
f 44//44 48//48 65//65
f 45//45 64//64 63//63
f 45//45 63//63 67//67
f 45//45 67//67 46//46
f 46//46 63//63 68//68
f 46//46 68//68 69//69
f 46//46 69//69 70//70
f 46//46 70//70 47//47
f 46//46 67//67 63//63
f 47//47 70//70 71//71
f 47//47 71//71 48//48
f 48//48 71//71 72//72
f 48//48 72//72 73//73
f 48//48 73//73 74//74
f 48//48 74//74 75//75
f 48//48 75//75 76//76
f 48//48 76//76 65//65
f 49//49 66//66 50//50
f 50//50 77//77 51//51
f 50//50 66//66 78//78
f 50//50 78//78 77//77
f 51//51 77//77 79//79
f 51//51 79//79 52//52
f 52//52 80//80 53//53
f 52//52 79//79 80//80
f 53//53 80//80 55//55
f 54//54 55//55 80//80
f 54//54 80//80 81//81
f 56//56 82//82 83//83
f 57//57 84//84 58//58
f 58//58 84//84 61//61
f 59//59 63//63 60//60
f 60//60 63//63 64//64
f 65//65 85//85 66//66
f 65//65 76//76 86//86
f 65//65 86//86 85//85
f 66//66 85//85 78//78
f 68//68 87//87 88//88
f 68//68 88//88 69//69
f 69//69 88//88 70//70
f 70//70 88//88 89//89
f 70//70 89//89 71//71
f 71//71 89//89 74//74
f 71//71 74//74 72//72
f 72//72 74//74 73//73
f 74//74 90//90 91//91
f 74//74 91//91 92//92
f 74//74 92//92 93//93
f 74//74 93//93 94//94
f 74//74 94//94 95//95
f 74//74 95//95 96//96
f 74//74 96//96 97//97
f 74//74 97//97 86//86
f 74//74 86//86 75//75
f 74//74 89//89 90//90
f 75//75 86//86 76//76
f 77//77 78//78 79//79
f 78//78 98//98 99//99
f 78//78 99//99 79//79
f 78//78 85//85 100//100
f 78//78 100//100 101//101
f 78//78 101//101 102//102
f 78//78 102//102 103//103
f 78//78 103//103 98//98
f 79//79 99//99 98//98
f 79//79 98//98 104//104
f 79//79 104//104 105//105
f 79//79 105//105 106//106
f 79//79 106//106 107//107
f 79//79 107//107 80//80
f 80//80 107//107 81//81
f 81//81 107//107 109//109
f 81//81 109//109 108//108
f 82//82 110//110 151//151
f 82//82 151//151 189//189
f 82//82 189//189 217//217
f 82//82 217//217 220//220
f 82//82 220//220 219//219
f 82//82 219//219 176//176
f 82//82 176//176 181//181
f 82//82 181//181 180//180
f 82//82 180//180 179//179
f 82//82 179//179 222//222
f 82//82 222//222 221//221
f 82//82 221//221 248//248
f 82//82 248//248 247//247
f 82//82 247//247 263//263
f 82//82 263//263 262//262
f 82//82 262//262 279//279
f 82//82 279//279 275//275
f 82//82 275//275 274//274
f 82//82 274//274 283//283
f 82//82 283//283 272//272
f 82//82 272//272 271//271
f 82//82 271//271 270//270
f 82//82 270//270 269//269
f 82//82 269//269 282//282
f 82//82 282//282 281//281
f 82//82 281//281 280//280
f 82//82 280//280 266//266
f 82//82 266//266 265//265
f 82//82 265//265 264//264
f 82//82 264//264 250//250
f 82//82 250//250 249//249
f 82//82 249//249 224//224
f 82//82 224//224 190//190
f 82//82 190//190 152//152
f 82//82 152//152 111//111
f 82//82 111//111 112//112
f 82//82 112//112 83//83
f 83//83 112//112 111//111
f 83//83 111//111 152//152
f 83//83 152//152 192//192
f 83//83 192//192 227//227
f 83//83 227//227 226//226
f 83//83 226//226 193//193
f 83//83 193//193 153//153
f 83//83 153//153 113//113
f 85//85 114//114 115//115
f 85//85 115//115 100//100
f 85//85 86//86 116//116
f 85//85 116//116 114//114
f 86//86 97//97 96//96
f 86//86 96//96 116//116
f 87//87 117//117 118//118
f 87//87 118//118 88//88
f 88//88 118//118 119//119
f 88//88 119//119 120//120
f 88//88 120//120 90//90
f 88//88 90//90 89//89
f 90//90 120//120 91//91
f 91//91 120//120 121//121
f 91//91 121//121 122//122
f 91//91 122//122 123//123
f 91//91 123//123 92//92
f 92//92 123//123 124//124
f 92//92 124//124 125//125
f 92//92 125//125 93//93
f 93//93 126//126 94//94
f 93//93 125//125 127//127
f 93//93 127//127 126//126
f 94//94 126//126 128//128
f 94//94 128//128 129//129
f 94//94 129//129 96//96
f 94//94 96//96 95//95
f 96//96 129//129 116//116
f 98//98 130//130 104//104
f 98//98 103//103 131//131
f 98//98 131//131 130//130
f 100//100 115//115 132//132
f 100//100 132//132 133//133
f 100//100 133//133 101//101
f 101//101 133//133 134//134
f 101//101 134//134 135//135
f 101//101 135//135 102//102
f 102//102 135//135 133//133
f 102//102 133//133 136//136
f 102//102 136//136 137//137
f 102//102 137//137 138//138
f 102//102 138//138 139//139
f 102//102 139//139 140//140
f 102//102 140//140 141//141
f 102//102 141//141 103//103
f 103//103 141//141 131//131
f 104//104 130//130 142//142
f 104//104 142//142 143//143
f 104//104 143//143 144//144
f 104//104 144//144 145//145
f 104//104 145//145 146//146
f 104//104 146//146 106//106
f 104//104 106//106 105//105
f 106//106 146//146 145//145
f 106//106 145//145 147//147
f 106//106 147//147 107//107
f 107//107 147//147 148//148
f 107//107 148//148 109//109
f 108//108 109//109 148//148
f 108//108 148//148 149//149
f 110//110 150//150 151//151
f 113//113 153//153 154//154
f 113//113 154//154 155//155
f 114//114 116//116 115//115
f 115//115 156//156 132//132
f 115//115 116//116 157//157
f 115//115 157//157 156//156
f 116//116 129//129 128//128
f 116//116 128//128 157//157
f 117//117 158//158 159//159
f 117//117 159//159 119//119
f 117//117 119//119 118//118
f 119//119 159//159 160//160
f 119//119 160//160 120//120
f 120//120 160//160 121//121
f 121//121 160//160 161//161
f 121//121 161//161 123//123
f 121//121 123//123 122//122
f 123//123 162//162 124//124
f 123//123 161//161 163//163
f 123//123 163//163 164//164
f 123//123 164//164 165//165
f 123//123 165//165 162//162
f 124//124 162//162 125//125
f 125//125 162//162 127//127
f 126//126 157//157 128//128
f 126//126 127//127 157//157
f 127//127 162//162 166//166
f 127//127 166//166 167//167
f 127//127 167//167 168//168
f 127//127 168//168 169//169
f 127//127 169//169 170//170
f 127//127 170//170 157//157
f 130//130 171//171 143//143
f 130//130 143//143 142//142
f 130//130 131//131 172//172
f 130//130 172//172 173//173
f 130//130 173//173 171//171
f 131//131 141//141 172//172
f 132//132 156//156 133//133
f 133//133 156//156 174//174
f 133//133 174//174 175//175
f 133//133 175//175 136//136
f 133//133 135//135 134//134
f 136//136 175//175 137//137
f 137//137 175//175 139//139
f 137//137 139//139 138//138
f 139//139 176//176 177//177
f 139//139 177//177 140//140
f 139//139 175//175 178//178
f 139//139 178//178 179//179
f 139//139 179//179 180//180
f 139//139 180//180 181//181
f 139//139 181//181 176//176
f 140//140 177//177 141//141
f 141//141 177//177 172//172
f 143//143 182//182 144//144
f 143//143 171//171 183//183
f 143//143 183//183 151//151
f 143//143 151//151 150//150
f 144//144 184//184 145//145
f 144//144 182//182 184//184
f 145//145 184//184 185//185
f 145//145 185//185 186//186
f 145//145 186//186 147//147
f 147//147 186//186 148//148
f 148//148 186//186 187//187
f 148//148 187//187 149//149
f 151//151 183//183 171//171
f 151//151 171//171 188//188
f 151//151 188//188 189//189
f 152//152 190//190 191//191
f 152//152 191//191 192//192
f 153//153 193//193 191//191
f 153//153 191//191 194//194
f 153//153 194//194 154//154
f 154//154 194//194 191//191
f 154//154 191//191 195//195
f 154//154 195//195 155//155
f 155//155 196//196 197//197
f 155//155 195//195 196//196
f 156//156 157//157 174//174
f 157//157 170//170 198//198
f 157//157 198//198 199//199
f 157//157 199//199 174//174
f 158//158 200//200 159//159
f 159//159 200//200 201//201
f 159//159 201//201 202//202
f 159//159 202//202 160//160
f 160//160 202//202 163//163
f 160//160 163//163 161//161
f 162//162 203//203 204//204
f 162//162 204//204 205//205
f 162//162 205//205 166//166
f 162//162 165//165 206//206
f 162//162 206//206 203//203
f 163//163 202//202 164//164
f 164//164 207//207 208//208
f 164//164 208//208 209//209
f 164//164 209//209 165//165
f 164//164 202//202 207//207
f 165//165 209//209 210//210
f 165//165 210//210 206//206
f 166//166 205//205 204//204
f 166//166 204//204 167//167
f 167//167 211//211 212//212
f 167//167 212//212 168//168
f 167//167 204//204 213//213
f 167//167 213//213 214//214
f 167//167 214//214 215//215
f 167//167 215//215 211//211
f 168//168 212//212 216//216
f 168//168 216//216 169//169
f 169//169 216//216 198//198
f 169//169 198//198 170//170
f 171//171 173//173 188//188
f 172//172 177//177 173//173
f 173//173 177//177 217//217
f 173//173 217//217 189//189
f 173//173 189//189 188//188
f 174//174 199//199 175//175
f 175//175 199//199 218//218
f 175//175 218//218 178//178
f 176//176 219//219 177//177
f 177//177 219//219 220//220
f 177//177 220//220 217//217
f 178//178 221//221 222//222
f 178//178 222//222 179//179
f 178//178 218//218 221//221
f 182//182 185//185 184//184
f 185//185 223//223 186//186
f 186//186 223//223 187//187
f 190//190 224//224 191//191
f 191//191 224//224 225//225
f 191//191 225//225 195//195
f 191//191 193//193 226//226
f 191//191 226//226 227//227
f 191//191 227//227 192//192
f 195//195 225//225 228//228
f 195//195 228//228 229//229
f 195//195 229//229 196//196
f 196//196 229//229 197//197
f 197//197 229//229 200//200
f 198//198 216//216 212//212
f 198//198 212//212 230//230
f 198//198 230//230 199//199
f 199//199 231//231 218//218
f 199//199 230//230 231//231
f 200//200 229//229 201//201
f 201//201 229//229 202//202
f 202//202 229//229 232//232
f 202//202 232//232 207//207
f 203//203 233//233 234//234
f 203//203 234//234 204//204
f 203//203 206//206 233//233
f 204//204 234//234 235//235
f 204//204 235//235 213//213
f 206//206 210//210 209//209
f 206//206 209//209 236//236
f 206//206 236//236 237//237
f 206//206 237//237 238//238
f 206//206 238//238 239//239
f 206//206 239//239 233//233
f 207//207 232//232 208//208
f 208//208 240//240 209//209
f 208//208 232//232 228//228
f 208//208 228//228 241//241
f 208//208 241//241 242//242
f 208//208 242//242 240//240
f 209//209 240//240 243//243
f 209//209 243//243 236//236
f 211//211 215//215 230//230
f 211//211 230//230 212//212
f 213//213 235//235 214//214
f 214//214 235//235 234//234
f 214//214 234//234 244//244
f 214//214 244//244 245//245
f 214//214 245//245 246//246
f 214//214 246//246 218//218
f 214//214 218//218 215//215
f 215//215 218//218 230//230
f 218//218 246//246 247//247
f 218//218 247//247 248//248
f 218//218 248//248 221//221
f 218//218 231//231 230//230
f 224//224 249//249 225//225
f 225//225 249//249 250//250
f 225//225 250//250 251//251
f 225//225 251//251 228//228
f 228//228 251//251 241//241
f 228//228 232//232 229//229
f 233//233 239//239 234//234
f 234//234 239//239 252//252
f 234//234 252//252 244//244
f 236//236 243//243 237//237
f 237//237 243//243 253//253
f 237//237 253//253 254//254
f 237//237 254//254 238//238
f 238//238 255//255 239//239
f 238//238 254//254 255//255
f 239//239 255//255 252//252
f 240//240 242//242 256//256
f 240//240 256//256 243//243
f 241//241 251//251 242//242
f 242//242 251//251 256//256
f 243//243 256//256 257//257
f 243//243 257//257 258//258
f 243//243 258//258 253//253
f 244//244 252//252 259//259
f 244//244 259//259 245//245
f 245//245 259//259 260//260
f 245//245 260//260 261//261
f 245//245 261//261 262//262
f 245//245 262//262 246//246
f 246//246 262//262 263//263
f 246//246 263//263 247//247
f 250//250 264//264 251//251
f 251//251 264//264 265//265
f 251//251 265//265 266//266
f 251//251 266//266 267//267
f 251//251 267//267 256//256
f 252//252 255//255 259//259
f 253//253 258//258 268//268
f 253//253 268//268 254//254
f 254//254 268//268 269//269
f 254//254 269//269 270//270
f 254//254 270//270 271//271
f 254//254 271//271 272//272
f 254//254 272//272 273//273
f 254//254 273//273 255//255
f 255//255 273//273 274//274
f 255//255 274//274 275//275
f 255//255 275//275 276//276
f 255//255 276//276 277//277
f 255//255 277//277 259//259
f 256//256 267//267 268//268
f 256//256 268//268 257//257
f 257//257 268//268 258//258
f 259//259 277//277 260//260
f 260//260 277//277 278//278
f 260//260 278//278 261//261
f 261//261 278//278 262//262
f 262//262 278//278 276//276
f 262//262 276//276 279//279
f 266//266 280//280 267//267
f 267//267 280//280 281//281
f 267//267 281//281 282//282
f 267//267 282//282 268//268
f 268//268 282//282 269//269
f 272//272 283//283 273//273
f 273//273 283//283 274//274
f 275//275 279//279 276//276
f 276//276 278//278 277//277
