# Created by Open3D 
# object name: part_030
# number of vertices: 91
# number of triangles: 178
v -0.0538229 -0.000152954 0.0574865
vn 0.665489 -0.746358 0.00855655
v -0.0538229 0.0115168 0.0562209
vn -0.734134 0.073241 0.675043
v -0.054686 -0.000152954 0.0565479
vn -0.737668 0.0733181 0.671171
v -0.0538229 -0.000152954 0.039967
vn 0.866958 -0.395541 -0.303202
v -0.0538229 0.0122168 0.0561444
vn -0.737063 0.075431 0.671601
v -0.0626952 0.00751226 0.0468984
vn -0.741261 0.0807895 0.666337
v -0.054809 -0.000152954 0.056412
vn -0.75068 0.0393244 0.659495
v -0.0673246 -0.000152954 0.0140976
vn 0.426662 -0.720941 -0.54608
v -0.0606945 0.0180455 0.0140976
vn 0.69662 0.487148 -0.526694
v -0.0538229 0.0180455 0.0289626
vn 0.98878 0.0910942 -0.118388
v -0.0538229 0.0127352 0.056051
vn -0.718571 0.161712 0.676391
v -0.0625612 0.00909055 0.0466987
vn -0.759103 0.18259 0.624839
v -0.0633035 0.00751226 0.0461084
vn -0.806912 0.102197 0.581763
v -0.0627545 0.00593041 0.0469663
vn -0.755308 0.040454 0.654121
v -0.0599413 -0.000152954 0.0505339
vn -0.753525 0.0271192 0.656859
v -0.0762539 -0.000152954 0.0140976
vn -0.242752 -0.969173 -0.0421323
v -0.0711194 0.0180455 0.0140976
vn -0.0635264 0.446118 -0.892716
v -0.0538229 0.0180455 0.0539699
vn 0.93598 0.352053 8.96845e-05
v -0.0538229 0.0138147 0.0557409
vn -0.698394 0.244734 0.67257
v -0.0615708 0.0106724 0.047357
vn -0.7569 0.227145 0.612787
v -0.06136 0.0118445 0.0471617
vn -0.766026 0.261165 0.587365
v -0.0624141 0.0107561 0.0461806
vn -0.800899 0.288253 0.524853
v -0.0631081 0.00909055 0.0459088
vn -0.822561 0.216272 0.525946
v -0.0633562 0.00593041 0.0461763
vn -0.805123 0.0296919 0.592365
v -0.0640941 0.00751226 0.0449532
vn -0.864775 0.0980905 0.492486
v -0.0641468 0.00593041 0.0450763
vn -0.856196 -0.000292778 0.516651
v -0.0627852 0.00399941 0.0470045
vn -0.772847 0.0237213 0.634149
v -0.0607341 -0.000152954 0.0495995
vn -0.767511 -0.00524782 0.641014
v -0.0607055 0.00118485 0.0495783
vn -0.762239 0.0267915 0.646741
v -0.0722834 0.000493681 0.0312858
vn -0.895677 0.194367 0.399981
v -0.0724283 0.00108688 0.0303599
vn -0.966161 0.137876 0.218
v -0.0723712 0.00219488 0.0298206
vn -0.922434 0.264531 0.281315
v -0.0724832 0.00273998 0.028729
vn -0.942753 0.263467 0.204456
v -0.0746903 0.00593041 0.0140976
vn -0.901882 0.232654 -0.363979
v -0.0723668 -0.000152954 0.030602
vn -0.0349302 -0.999354 0.00850802
v -0.0722834 0.000269229 0.0312858
vn -0.87222 -0.0357453 0.487806
v -0.0716531 0.016485 0.0140976
vn -0.735247 0.246053 -0.631561
v -0.0691583 0.0180455 0.0233224
vn -0.428892 0.89857 0.0928647
v -0.0538603 0.0180455 0.0539316
vn -0.0421738 0.998448 0.036378
v -0.0538229 0.0168644 0.0544795
vn 0.966834 0.0998615 0.235074
v -0.0538229 0.015418 0.0550911
vn 0.913468 0.155755 0.375921
v -0.0547365 0.0174362 0.0531629
vn -0.748714 0.250574 0.61371
v -0.0549122 0.0163817 0.053371
vn -0.752085 0.245637 0.61158
v -0.0553668 0.0169446 0.0525853
vn -0.75604 0.244512 0.607138
v -0.0550659 0.015418 0.0535664
vn -0.755902 0.240902 0.608751
v -0.0566383 0.0180455 0.0504362
vn -0.222836 0.962155 0.15685
v -0.0598556 0.015418 0.0473146
vn -0.780566 0.305978 0.545063
v -0.0606923 0.0154055 0.0461126
vn -0.791923 0.307055 0.527802
v -0.056243 0.016998 0.051464
vn -0.757882 0.249605 0.602754
v -0.0555447 0.0180455 0.0519057
vn -0.267308 0.941331 0.206015
v -0.0561266 0.0180455 0.0511328
vn -0.234631 0.956272 0.17462
v -0.0610811 0.0159239 0.045208
vn -0.808305 0.306043 0.502971
v -0.0629104 0.0102841 0.0456497
vn -0.842717 0.296585 0.449294
v -0.0639184 0.00904601 0.0445284
vn -0.848423 0.280747 0.44873
v -0.0628028 0.0027667 0.0470258
vn -0.792261 0.0136249 0.61003
v -0.0644059 0.00849201 0.0439466
vn -0.879881 0.224486 0.418827
v -0.0645158 0.00751226 0.0441632
vn -0.881436 0.171543 0.44005
v -0.0640897 -0.000152954 0.0449447
vn -0.800017 -0.360545 0.479563
v -0.0633386 -0.000152954 0.0461848
vn -0.797047 -0.352959 0.490036
v -0.062805 -0.000152954 0.0470343
vn -0.809497 -0.24204 0.534913
v -0.0628094 0.00118485 0.0470385
vn -0.796742 0.00364099 0.604308
v -0.0613819 -0.000152954 0.0488053
vn -0.743677 -0.289585 0.602566
v -0.0668656 0.0122543 0.0366967
vn -0.884784 0.229863 0.405365
v -0.067061 0.0138361 0.035121
vn -0.903961 0.270523 0.331166
v -0.0690771 0.0161768 0.0263761
vn -0.930772 0.28389 0.230369
v -0.0668063 0.0180455 0.0319569
vn -0.692121 0.689145 0.214588
v -0.0721406 0.014994 0.0140976
vn -0.953474 0.283196 0.103384
v -0.0724788 0.0138361 0.0140976
vn -0.894893 0.255358 -0.366004
v -0.0742862 0.00747485 0.0140976
vn -0.896359 0.25074 -0.365608
v -0.0719649 -0.000152954 0.0317063
vn -0.125075 -0.989518 0.0721806
v -0.0691363 0.0180455 0.0234116
vn -0.157214 0.986636 0.0428251
v -0.0546289 0.0180455 0.0530355
vn -0.0834449 0.993999 0.0707266
v -0.055246 0.0180455 0.0522795
vn -0.0563135 0.997377 0.0454798
v -0.0595657 0.0180455 0.0462103
vn -0.0516283 0.998027 0.035741
v -0.0600203 0.0169303 0.0462103
vn -0.780884 0.315677 0.539045
v -0.0596624 0.0163567 0.0470597
vn -0.780655 0.310849 0.542173
v -0.059849 0.0180455 0.0457983
vn -0.127453 0.988193 0.0850345
v -0.0600225 0.0180455 0.045535
vn -0.195935 0.9722 0.128208
v -0.060868 0.016998 0.044881
vn -0.79829 0.318992 0.510859
v -0.0611953 0.0178246 0.0438404
vn -0.842718 0.303306 0.444783
v -0.0663385 0.0137969 0.0367179
vn -0.848768 0.299775 0.435578
v -0.0621725 -0.000152954 0.0478242
vn -0.737006 -0.325772 0.592195
v -0.0659366 0.0180455 0.0343523
vn -0.452901 0.867898 0.204045
v -0.066288 0.0180455 0.0335198
vn -0.286391 0.952454 0.103975
v -0.060554 0.0180455 0.0447068
vn -0.0662702 0.996903 0.0423388
v -0.0609647 0.0180455 0.0440613
vn -0.0116013 0.999907 0.00723064
v -0.0611469 0.0180455 0.0437555
vn -0.0138317 0.999878 0.00719288
v -0.0644455 0.0180455 0.0373677
vn -0.249137 0.959962 0.128077
v -0.0647859 0.0180455 0.0366967
vn -0.240633 0.963064 0.120843
v -0.0655567 0.0180455 0.035155
vn -0.241361 0.962909 0.120632
v -0.0656753 0.0180455 0.0349171
vn -0.249732 0.961074 0.118199
f 1//1 2//2 3//3
f 1//1 3//3 7//7
f 1//1 7//7 15//15
f 1//1 15//15 28//28
f 1//1 28//28 62//62
f 1//1 62//62 82//82
f 1//1 82//82 60//60
f 1//1 60//60 59//59
f 1//1 59//59 58//58
f 1//1 58//58 70//70
f 1//1 70//70 35//35
f 1//1 35//35 16//16
f 1//1 16//16 8//8
f 1//1 8//8 4//4
f 1//1 4//4 10//10
f 1//1 10//10 18//18
f 1//1 18//18 40//40
f 1//1 40//40 41//41
f 1//1 41//41 19//19
f 1//1 19//19 11//11
f 1//1 11//11 5//5
f 1//1 5//5 2//2
f 2//2 5//5 3//3
f 3//3 5//5 6//6
f 3//3 6//6 7//7
f 4//4 8//8 9//9
f 4//4 9//9 10//10
f 5//5 11//11 6//6
f 6//6 12//12 13//13
f 6//6 13//13 14//14
f 6//6 14//14 7//7
f 6//6 11//11 12//12
f 7//7 14//14 15//15
f 8//8 16//16 34//34
f 8//8 34//34 69//69
f 8//8 69//69 68//68
f 8//8 68//68 67//67
f 8//8 67//67 37//37
f 8//8 37//37 17//17
f 8//8 17//17 9//9
f 9//9 17//17 38//38
f 9//9 38//38 71//71
f 9//9 71//71 66//66
f 9//9 66//66 84//84
f 9//9 84//84 83//83
f 9//9 83//83 91//91
f 9//9 91//91 90//90
f 9//9 90//90 89//89
f 9//9 89//89 88//88
f 9//9 88//88 87//87
f 9//9 87//87 86//86
f 9//9 86//86 85//85
f 9//9 85//85 78//78
f 9//9 78//78 77//77
f 9//9 77//77 74//74
f 9//9 74//74 46//46
f 9//9 46//46 51//51
f 9//9 51//51 50//50
f 9//9 50//50 73//73
f 9//9 73//73 72//72
f 9//9 72//72 39//39
f 9//9 39//39 18//18
f 9//9 18//18 10//10
f 11//11 19//19 12//12
f 12//12 20//20 21//21
f 12//12 21//21 22//22
f 12//12 22//22 23//23
f 12//12 23//23 13//13
f 12//12 19//19 20//20
f 13//13 24//24 14//14
f 13//13 23//23 25//25
f 13//13 25//25 26//26
f 13//13 26//26 24//24
f 14//14 24//24 27//27
f 14//14 27//27 28//28
f 14//14 28//28 29//29
f 14//14 29//29 15//15
f 15//15 29//29 28//28
f 16//16 30//30 31//31
f 16//16 31//31 32//32
f 16//16 32//32 33//33
f 16//16 33//33 34//34
f 16//16 35//35 36//36
f 16//16 36//36 30//30
f 17//17 37//37 38//38
f 18//18 39//39 40//40
f 19//19 41//41 42//42
f 19//19 42//42 43//43
f 19//19 43//43 44//44
f 19//19 44//44 45//45
f 19//19 45//45 21//21
f 19//19 21//21 20//20
f 21//21 46//46 47//47
f 21//21 47//47 48//48
f 21//21 48//48 22//22
f 21//21 45//45 44//44
f 21//21 44//44 49//49
f 21//21 49//49 50//50
f 21//21 50//50 51//51
f 21//21 51//51 46//46
f 22//22 48//48 52//52
f 22//22 52//52 53//53
f 22//22 53//53 23//23
f 23//23 53//53 54//54
f 23//23 54//54 25//25
f 24//24 55//55 27//27
f 24//24 26//26 55//55
f 25//25 54//54 56//56
f 25//25 56//56 57//57
f 25//25 57//57 30//30
f 25//25 30//30 26//26
f 26//26 58//58 59//59
f 26//26 59//59 60//60
f 26//26 60//60 61//61
f 26//26 61//61 55//55
f 26//26 30//30 36//36
f 26//26 36//36 58//58
f 27//27 55//55 28//28
f 28//28 55//55 61//61
f 28//28 61//61 62//62
f 30//30 57//57 56//56
f 30//30 56//56 63//63
f 30//30 63//63 64//64
f 30//30 64//64 32//32
f 30//30 32//32 31//31
f 32//32 65//65 33//33
f 32//32 64//64 66//66
f 32//32 66//66 65//65
f 33//33 65//65 67//67
f 33//33 67//67 68//68
f 33//33 68//68 69//69
f 33//33 69//69 34//34
f 35//35 70//70 36//36
f 36//36 70//70 58//58
f 37//37 67//67 38//38
f 38//38 65//65 71//71
f 38//38 67//67 65//65
f 39//39 72//72 40//40
f 40//40 72//72 41//41
f 41//41 72//72 42//42
f 42//42 72//72 73//73
f 42//42 73//73 44//44
f 42//42 44//44 43//43
f 44//44 73//73 50//50
f 44//44 50//50 49//49
f 46//46 74//74 75//75
f 46//46 75//75 76//76
f 46//46 76//76 47//47
f 47//47 76//76 48//48
f 48//48 75//75 77//77
f 48//48 77//77 78//78
f 48//48 78//78 52//52
f 48//48 76//76 75//75
f 52//52 78//78 79//79
f 52//52 79//79 80//80
f 52//52 80//80 53//53
f 53//53 80//80 81//81
f 53//53 81//81 54//54
f 54//54 81//81 56//56
f 56//56 81//81 63//63
f 60//60 82//82 61//61
f 61//61 82//82 62//62
f 63//63 81//81 64//64
f 64//64 81//81 83//83
f 64//64 83//83 84//84
f 64//64 84//84 66//66
f 65//65 66//66 71//71
f 74//74 77//77 75//75
f 78//78 85//85 79//79
f 79//79 85//85 80//80
f 80//80 85//85 86//86
f 80//80 86//86 87//87
f 80//80 87//87 88//88
f 80//80 88//88 81//81
f 81//81 88//88 89//89
f 81//81 89//89 90//90
f 81//81 90//90 91//91
f 81//81 91//91 83//83
