# Created by Open3D 
# object name: part_032
# number of vertices: 247
# number of triangles: 490
v -0.00503896 0.0472595 -0.0550148
vn -5.00445e-05 -0.999994 -0.00333787
v -0.00345617 0.0472595 -0.0549989
vn 0.0354553 0.698942 -0.714299
v -0.00661982 0.0472595 -0.0549195
vn -0.045409 0.721662 -0.690754
v -0.00503896 0.0479145 -0.0543276
vn -0.017392 0.762588 -0.646651
v -0.00345617 0.0479101 -0.0543237
vn 0.0220046 0.746309 -0.665236
v -0.00149947 0.0476468 -0.0544667
vn 0.999998 0.00158319 -0.00154991
v -0.00158471 0.0472595 -0.0548678
vn 0.0563152 0.607073 -0.792648
v -0.00187531 0.0478666 -0.0542681
vn 0.045541 0.730828 -0.681041
v -0.00801663 0.0472595 -0.0548162
vn -0.0536847 0.72119 -0.690654
v -0.00661982 0.0478709 -0.054272
vn -0.0471398 0.744325 -0.666152
v -0.00661982 0.0485607 -0.0534459
vn -0.0494431 0.77002 -0.636101
v -0.00661982 0.0493201 -0.0525204
vn -0.0381255 0.796738 -0.603121
v -0.00503896 0.048626 -0.0534459
vn -0.0166871 0.779918 -0.62566
v -0.00345617 0.0493528 -0.0525641
vn -0.00791206 0.793776 -0.608159
v -0.00187531 0.049355 -0.0525721
vn 0.00228714 0.777954 -0.628317
v -0.00149947 0.0485433 -0.0534816
vn 0.0522074 0.748127 -0.661499
v -0.00149947 0.0493506 -0.0525641
vn 0.0985126 0.754427 -0.64895
v -0.00149947 0.0472595 -0.0548599
vn 0.108846 -0.994059 -0.000421206
v -0.00149947 0.0478557 -0.0542522
vn 0.0765691 0.737383 -0.671121
v -0.00810575 0.0472595 -0.0548083
vn -0.0673854 0.677559 -0.732375
v -0.00850484 0.0478035 -0.0541926
vn -0.06149 0.755908 -0.651784
v -0.00745093 0.0478426 -0.0542403
vn -0.0546024 0.751258 -0.657746
v -0.00503896 0.0493419 -0.0525482
vn -0.0165471 0.798721 -0.601474
v -0.008067 0.0483409 -0.053577
vn -0.0661607 0.775063 -0.628411
v -0.00978347 0.0477491 -0.0541251
vn -0.0843288 0.766422 -0.636778
v -0.00820068 0.0492549 -0.0524251
vn -0.0775333 0.807331 -0.584983
v -0.00661982 0.0498837 -0.05173
vn -0.0684476 0.816494 -0.573283
v -0.00345617 0.0533784 -0.0471187
vn -0.0470959 0.814248 -0.578604
v -0.00345617 0.0526995 -0.048064
vn -0.0279654 0.807629 -0.589028
v -0.00187531 0.0527234 -0.0480918
vn -0.0126059 0.802582 -0.596409
v -0.00187531 0.0499512 -0.0517817
vn -0.001694 0.799292 -0.60094
v -0.00149947 0.0499512 -0.0517737
vn 0.292202 0.76433 -0.57482
v -0.00149947 0.0472595 -0.0328398
vn 0.232969 -0.951011 0.203232
v -0.00970017 0.0472595 -0.0546613
vn -0.0986808 0.571914 -0.814357
v -0.0113643 0.0476272 -0.0539742
vn -0.158721 0.766512 -0.622308
v -0.00978347 0.0483779 -0.0533347
vn -0.107399 0.785089 -0.610001
v -0.0113643 0.0472595 -0.0543793
vn -0.198371 -0.22355 -0.954293
v -0.00978347 0.0491678 -0.052298
vn -0.129506 0.809679 -0.572406
v -0.00820068 0.049801 -0.0516347
vn -0.086994 0.821384 -0.563702
v -0.00345617 0.054053 -0.0461575
vn -0.0757108 0.823049 -0.562902
v -0.00187531 0.0534241 -0.0471187
vn -0.0159425 0.815401 -0.578676
v -0.00149947 0.0527191 -0.0480839
vn 0.695751 0.581312 -0.421908
v -0.00149947 0.0525776 -0.0482745
vn 0.531305 0.677702 -0.508364
v -0.00149947 0.0532522 -0.0473451
vn 0.475635 0.713989 -0.5138
v -0.00149947 0.0553847 -0.0144421
vn 0.689647 -0.307634 0.655552
v -0.0212892 0.0516398 -0.0144421
vn -0.650197 -0.561791 0.511501
v -0.0212892 0.0472595 -0.0274937
vn -0.0712578 -0.99434 0.0788103
v -0.0129432 0.0472595 -0.0539225
vn -0.0949352 -0.947943 -0.303958
v -0.0129432 0.0474292 -0.0537239
vn -0.212281 0.761909 -0.611908
v -0.0129432 0.0480494 -0.0529335
vn -0.208126 0.785246 -0.583157
v -0.0113643 0.048243 -0.0531838
vn -0.180517 0.792536 -0.582495
v -0.0113643 0.0490351 -0.0520955
vn -0.152583 0.806924 -0.570607
v -0.0129432 0.0540421 -0.0445608
vn -0.141911 0.812327 -0.565673
v -0.0118293 0.0541335 -0.0446959
vn -0.118131 0.818621 -0.562055
v -0.00978347 0.0497118 -0.0515076
vn -0.0981885 0.820263 -0.563495
v -0.00978347 0.0555936 -0.0429443
vn -0.0915653 0.821128 -0.563351
v -0.00503896 0.0558416 -0.0432978
vn -0.0831923 0.824443 -0.559797
v -0.00503896 0.0564662 -0.0423723
vn -0.073843 0.827904 -0.555988
v -0.00503896 0.0571646 -0.0413277
vn -0.0571985 0.83329 -0.549869
v -0.00345617 0.0565641 -0.0423723
vn -0.0276144 0.833902 -0.551221
v -0.00187531 0.0540747 -0.0461893
vn -0.0114806 0.832824 -0.553419
v -0.00978347 0.0561354 -0.0421539
vn -0.0857176 0.82315 -0.561317
v -0.00149947 0.0534132 -0.0471187
vn 0.799407 0.491481 -0.345535
v -0.00149947 0.0540704 -0.0461813
vn 0.864883 0.41668 -0.279919
v -0.00149947 0.0694874 -0.0144421
vn 0.993953 0.00830497 0.109491
v -0.0212892 0.0677683 -0.0144421
vn -0.0310164 0.00670555 0.999496
v -0.0212892 0.0472595 -0.0507331
vn -0.272808 -0.962002 -0.0112968
v -0.0145086 0.0472595 -0.0533426
vn -0.000855916 -0.999997 -0.00223975
v -0.0145028 0.0472638 -0.0533426
vn -0.234661 0.754816 -0.612525
v -0.0139603 0.0479101 -0.0527468
vn -0.225659 0.772833 -0.593133
v -0.0200804 0.0510087 -0.0463362
vn -0.218794 0.781199 -0.584686
v -0.0184898 0.0573322 -0.0384243
vn -0.190965 0.800041 -0.568741
v -0.014526 0.0576651 -0.0388969
vn -0.131745 0.819455 -0.557797
v -0.0109924 0.0573931 -0.0401004
vn -0.114354 0.823208 -0.556104
v -0.00978347 0.0569275 -0.0409861
vn -0.0842311 0.825568 -0.557981
v -0.00661982 0.0570863 -0.0412205
vn -0.0815102 0.8278 -0.55507
v -0.00661982 0.0576085 -0.0404301
vn -0.076678 0.837902 -0.540408
v -0.00503896 0.0576717 -0.0405373
vn -0.0601976 0.845484 -0.530597
v -0.00345617 0.0572082 -0.0413913
vn -0.0294501 0.840601 -0.540853
v -0.00187531 0.0572212 -0.0414151
vn -0.0106138 0.836416 -0.547992
v -0.00149947 0.0572212 -0.0414111
vn 0.761725 0.541161 -0.356259
v -0.00609093 0.0694852 -0.0144421
vn -0.000214377 0.192833 0.981232
v -0.00149947 0.0692088 -0.0154907
vn 0.920003 0.378655 -0.101064
v -0.0203225 0.0679968 -0.0144421
vn -0.0145815 0.0624015 0.997945
v -0.0192706 0.0680012 -0.0154907
vn -0.217087 0.95007 -0.224142
v -0.0212892 0.0676225 -0.0150538
vn -0.939734 0.332428 -0.0799479
v -0.0212892 0.0474466 -0.0504988
vn -0.990115 0.110219 -0.0867424
v -0.0185014 0.047847 -0.0510826
vn -0.231272 0.76932 -0.595533
v -0.0211343 0.0508564 -0.0461218
vn -0.233909 0.775574 -0.58632
v -0.0208514 0.0555609 -0.039739
vn -0.2725 0.780536 -0.56259
v -0.0212892 0.055685 -0.0393537
vn -0.998757 0.040465 -0.0291182
v -0.0195437 0.0571494 -0.0381661
vn -0.276352 0.789283 -0.548326
v -0.0208514 0.0606832 -0.032383
vn -0.249749 0.811436 -0.528391
v -0.0192706 0.0609161 -0.0327167
vn -0.197824 0.825771 -0.528174
v -0.0177904 0.0610031 -0.0330305
vn -0.14791 0.829764 -0.538159
v -0.0161069 0.0606767 -0.0339559
vn -0.135184 0.828162 -0.543942
v -0.0146733 0.0585421 -0.0375465
vn -0.134682 0.826157 -0.547106
v -0.0212892 0.0508325 -0.046086
vn -0.995174 0.0795275 -0.0574887
v -0.0129432 0.0590948 -0.0371175
vn -0.120217 0.829257 -0.545785
v -0.0129432 0.0585682 -0.0379079
vn -0.124309 0.824901 -0.551439
v -0.0129432 0.0577805 -0.0390836
vn -0.124796 0.824006 -0.552666
v -0.0113643 0.0591949 -0.0372804
vn -0.0797124 0.841275 -0.534699
v -0.00978347 0.0574584 -0.0401957
vn -0.0822484 0.833753 -0.545978
v -0.00503896 0.0584594 -0.0392742
vn -0.0633221 0.847816 -0.526497
v -0.00345617 0.0584985 -0.0393378
vn -0.0306599 0.848586 -0.528169
v -0.00345617 0.0577086 -0.0406009
vn -0.0280794 0.846373 -0.531851
v -0.00187531 0.0577217 -0.0406247
vn -0.00990873 0.848472 -0.529148
v -0.00149947 0.057602 -0.0408114
vn 0.912565 0.346446 -0.217254
v -0.00661982 0.069483 -0.0144421
vn -0.00378947 0.362253 0.932072
v -0.00149947 0.0687845 -0.0170754
vn 0.802719 0.574789 -0.158934
v -0.0193616 0.0682188 -0.0144421
vn -0.0140506 0.0631461 0.997905
v -0.018484 0.0684059 -0.0144421
vn -0.0137439 0.0649618 0.997793
v -0.0183755 0.0683841 -0.0146407
vn -0.163203 0.957636 -0.237274
v -0.0192706 0.0676203 -0.0170754
vn -0.198927 0.943042 -0.266645
v -0.0212892 0.0675855 -0.0152007
vn -0.992266 0.120309 -0.0305597
v -0.0212892 0.0476533 -0.0502327
vn -0.989812 0.112728 -0.0869791
v -0.0212892 0.048032 -0.0497401
vn -0.988536 0.119766 -0.091941
v -0.0212892 0.0560505 -0.0388413
vn -0.995386 0.0785908 -0.0550504
v -0.0208514 0.0561289 -0.0389485
vn -0.276575 0.782289 -0.558149
v -0.0209967 0.0569971 -0.0376339
vn -0.284981 0.78729 -0.546773
v -0.0205666 0.0575128 -0.0371135
vn -0.282806 0.788288 -0.546464
v -0.0212892 0.0606093 -0.0322718
vn -0.994852 0.0838534 -0.0569048
v -0.0208514 0.0612534 -0.0313067
vn -0.26863 0.862419 -0.429036
v -0.0192977 0.061743 -0.031255
vn -0.235848 0.862851 -0.447062
v -0.0176878 0.0618605 -0.0316721
vn -0.135949 0.876406 -0.461986
v -0.0161069 0.0613578 -0.0328875
vn -0.116512 0.847928 -0.517148
v -0.014526 0.060792 -0.0341505
vn -0.118842 0.837521 -0.533325
v -0.014526 0.0602785 -0.034937
vn -0.127743 0.829906 -0.543081
v -0.0142451 0.0589925 -0.0369666
vn -0.129432 0.828875 -0.544255
v -0.0129432 0.0597911 -0.0360491
vn -0.113235 0.834016 -0.539996
v -0.0129432 0.060396 -0.0351077
vn -0.0970006 0.841795 -0.53101
v -0.0116724 0.0604591 -0.035207
vn -0.0670685 0.85094 -0.520963
v -0.0112345 0.0600674 -0.0358942
vn -0.0675072 0.847351 -0.526724
v -0.00503896 0.0589468 -0.0384838
vn -0.0549837 0.856649 -0.512962
v -0.00345617 0.058986 -0.0385474
vn -0.0269467 0.863335 -0.503911
v -0.00187531 0.0585094 -0.0393457
vn -0.00434528 0.852588 -0.522565
v -0.00149947 0.0583223 -0.0396476
vn 0.879404 0.405192 -0.249935
v -0.00661982 0.0691871 -0.0154907
vn -0.0222373 0.958811 -0.283171
v -0.00767179 0.0694547 -0.0144421
vn -0.00229065 0.0749069 0.997188
v -0.00149947 0.0684864 -0.01812
vn 0.998586 0.0502083 -0.0174666
v -0.00187531 0.0684864 -0.01812
vn -0.0138086 0.956921 -0.290021
v -0.0181798 0.0684603 -0.0144421
vn -0.00200994 0.0126664 0.999918
v -0.0177846 0.0682644 -0.0154629
vn -0.137258 0.959094 -0.247587
v -0.0177846 0.0685169 -0.0144421
vn -0.0107502 0.0759891 0.997051
v -0.0176878 0.0678532 -0.0170754
vn -0.108111 0.952169 -0.285807
v -0.0187397 0.066887 -0.0196333
vn -0.135935 0.938913 -0.316172
v -0.0192686 0.0670959 -0.018696
vn -0.233794 0.91824 -0.31965
v -0.0204465 0.0669414 -0.0181995
vn -0.264946 0.911702 -0.314011
v -0.0212892 0.0670829 -0.0170119
vn -0.985341 0.162536 -0.0518151
v -0.0212892 0.0671569 -0.0167497
vn -0.992227 0.119778 -0.0337525
v -0.0212892 0.0675115 -0.0154907
vn -0.992235 0.119874 -0.0331737
v -0.0212892 0.0568731 -0.0376577
vn -0.999862 0.0136358 -0.00946223
v -0.0212892 0.0611032 -0.0312948
vn -0.999631 0.0243327 -0.0120815
v -0.0212892 0.0637449 -0.0259565
vn -0.998543 0.0485544 -0.0235413
v -0.0208514 0.0638167 -0.0260995
vn -0.26137 0.870415 -0.417209
v -0.019813 0.0635817 -0.0272156
vn -0.256173 0.867606 -0.426187
v -0.0192783 0.0640104 -0.0266397
vn -0.239605 0.874844 -0.420995
v -0.0187901 0.0621564 -0.030695
vn -0.194778 0.878239 -0.436757
v -0.0161069 0.0619627 -0.0318667
vn -0.104396 0.888162 -0.447515
v -0.0187572 0.0637275 -0.0275056
vn -0.15162 0.891006 -0.427925
v -0.0176878 0.0637971 -0.0276486
vn -0.112454 0.895466 -0.430692
v -0.0129432 0.0608856 -0.0343213
vn -0.0804748 0.85992 -0.504046
v -0.0143866 0.0616559 -0.0327326
vn -0.101693 0.856086 -0.50673
v -0.0112345 0.060853 -0.0345994
vn -0.0587975 0.857526 -0.51107
v -0.00820068 0.0618452 -0.0332807
vn -0.0519475 0.862269 -0.50378
v -0.00149947 0.0613817 -0.0344683
vn 0.399367 0.793088 -0.45991
v -0.00149947 0.060248 -0.0364185
vn 0.672663 0.639257 -0.372658
v -0.00149947 0.0595387 -0.0376299
vn 0.655099 0.65136 -0.382851
v -0.00187531 0.0589903 -0.0385553
vn -0.00399596 0.857929 -0.513753
v -0.00661982 0.0618779 -0.0333363
vn -0.0350432 0.864724 -0.501024
v -0.00503896 0.0636165 -0.0304448
vn -0.0371746 0.868738 -0.493874
v -0.00373127 0.0636404 -0.0304924
vn -0.0285971 0.867542 -0.496541
v -0.00267542 0.0636535 -0.0305163
vn -0.0164906 0.867229 -0.497637
v -0.00149947 0.0585072 -0.0393457
vn 0.964731 0.224568 -0.137347
v -0.00149947 0.0589903 -0.0385553
vn 0.94082 0.290172 -0.175096
v -0.00978347 0.0693829 -0.0144421
vn -0.0227912 0.502856 0.86407
v -0.00925264 0.0694025 -0.0144421
vn -0.00254415 0.0748133 0.997194
v -0.00503896 0.068741 -0.0170754
vn -0.018261 0.957431 -0.288085
v -0.00503896 0.0684559 -0.0180207
vn -0.0232364 0.943339 -0.331015
v -0.00629047 0.0684342 -0.0179651
vn -0.0547207 0.942058 -0.330955
v -0.00187531 0.0682057 -0.0189104
vn -0.015844 0.941796 -0.335811
v -0.00149947 0.0660406 -0.0249795
vn 0.995344 0.0907612 -0.0324577
v -0.0161069 0.068754 -0.0144421
vn -0.0232731 0.1793 0.983519
v -0.0176878 0.0673375 -0.0186562
vn -0.0826466 0.941607 -0.326414
v -0.0145067 0.0689521 -0.0144421
vn -0.0218141 0.179401 0.983534
v -0.0139952 0.0690108 -0.0144421
vn -0.0196705 0.182089 0.983085
v -0.0113643 0.0692915 -0.0144421
vn -0.0249641 0.255036 0.966609
v -0.0113643 0.0689673 -0.0154907
vn -0.0762386 0.94531 -0.317138
v -0.0186312 0.0652724 -0.0242725
vn -0.140263 0.922546 -0.359492
v -0.0192027 0.0654443 -0.0233987
vn -0.222177 0.918934 -0.325881
v -0.0196871 0.0651397 -0.0239269
vn -0.255698 0.906043 -0.337202
v -0.0212892 0.0666042 -0.0183782
vn -0.993144 0.110222 -0.0389424
v -0.0212892 0.0667064 -0.0180883
vn -0.998559 0.0506388 -0.0177424
v -0.0203438 0.0653268 -0.0228704
vn -0.286107 0.902825 -0.321012
v -0.0212892 0.0641779 -0.0249477
vn -0.999616 0.0255298 -0.0108043
v -0.0208514 0.0643237 -0.0249795
vn -0.280485 0.881073 -0.38084
v -0.0192027 0.0648568 -0.0248722
vn -0.24038 0.882045 -0.405234
v -0.0148205 0.0620302 -0.0320097
vn -0.0871928 0.897468 -0.432375
v -0.0176878 0.0643172 -0.0265642
vn -0.0898375 0.901532 -0.423285
v -0.0129432 0.0616755 -0.0329431
vn -0.0691372 0.869845 -0.488456
v -0.00820068 0.0622891 -0.0324903
vn -0.0587716 0.871764 -0.486389
v -0.00149947 0.0630246 -0.0316324
vn 0.861396 0.440821 -0.252337
v -0.00661982 0.0635752 -0.0303534
vn -0.0637765 0.884845 -0.461499
v -0.00503896 0.0639973 -0.0296544
vn -0.0437353 0.904932 -0.423304
v -0.00330505 0.0639581 -0.0298688
vn -0.0230738 0.902403 -0.430276
v -0.00201673 0.063969 -0.0298768
vn -0.00623993 0.900853 -0.43408
v -0.00264055 0.0636535 -0.0305163
vn 0.0067975 0.882433 -0.470389
v -0.00978347 0.0690522 -0.0154907
vn -0.0483742 0.95139 -0.304165
v -0.00187531 0.0660406 -0.0249795
vn -0.0206327 0.941313 -0.336902
v -0.00503896 0.0659622 -0.0249795
vn -0.0311865 0.940413 -0.3386
v -0.0113643 0.0685495 -0.0166743
vn -0.0654646 0.940043 -0.334715
v -0.00661982 0.0658839 -0.0249795
vn -0.0574062 0.937897 -0.342132
v -0.0113643 0.0661515 -0.0233987
vn -0.0661483 0.937613 -0.341331
v -0.00149947 0.0655031 -0.0264649
vn 0.997388 0.0676237 -0.0253863
v -0.0129432 0.0677248 -0.0186562
vn -0.0739672 0.939942 -0.333222
v -0.0176878 0.0656685 -0.0233987
vn -0.0747262 0.939516 -0.334254
v -0.0176878 0.0653138 -0.0243718
vn -0.0718255 0.923068 -0.37787
v -0.0176878 0.0649634 -0.0251622
vn -0.0795794 0.909052 -0.409013
v -0.020863 0.0649591 -0.0233987
vn -0.302359 0.887182 -0.348552
v -0.0212892 0.0652267 -0.0222706
vn -0.998195 0.0566026 -0.0200498
v -0.0212892 0.0651114 -0.0225924
vn -0.995259 0.0913469 -0.0334031
v -0.0212892 0.0643433 -0.0245426
vn -0.998488 0.0509492 -0.0206135
v -0.0137666 0.0620737 -0.032101
vn -0.071993 0.880974 -0.467655
v -0.00820068 0.0635142 -0.0302104
vn -0.0836281 0.902396 -0.422715
v -0.00820068 0.0629419 -0.0313067
vn -0.0673942 0.876076 -0.477439
v -0.00978347 0.0622282 -0.032383
vn -0.0670386 0.87368 -0.481861
v -0.00149947 0.0636187 -0.03056
vn 0.9033 0.375324 -0.207802
v -0.00661982 0.0639429 -0.029563
vn -0.074762 0.909881 -0.408077
v -0.00503896 0.0646893 -0.0281451
vn -0.0541823 0.911497 -0.407723
v -0.00345617 0.0647654 -0.0281451
vn -0.0307433 0.908774 -0.416154
v -0.00187531 0.0648002 -0.0281451
vn -0.011625 0.905567 -0.424043
v -0.00149947 0.0638733 -0.0300674
vn 0.909641 0.370998 -0.186851
v -0.00149947 0.0639908 -0.0298291
vn 0.972192 0.211032 -0.101529
v -0.00149947 0.063647 -0.0305083
vn 0.942602 0.296629 -0.153336
v -0.00187531 0.0655031 -0.0264649
vn -0.0149427 0.937772 -0.34693
v -0.00345617 0.0654857 -0.0264173
vn -0.0252733 0.937426 -0.347266
v -0.00503896 0.0654618 -0.0263299
vn -0.0459436 0.931854 -0.359913
v -0.00661982 0.0654139 -0.0261949
vn -0.069681 0.923834 -0.376397
v -0.00149947 0.0651963 -0.0272554
vn 0.994839 0.0932675 -0.0399617
v -0.00661982 0.0645718 -0.0281451
vn -0.0743923 0.913509 -0.39996
v -0.0212892 0.0648046 -0.0233987
vn -0.999631 0.02523 -0.0100494
v -0.0212892 0.0649634 -0.0229856
vn -0.999629 0.0254703 -0.00969206
v -0.00503896 0.0651375 -0.0271203
vn -0.060419 0.917738 -0.392565
v -0.00345617 0.0651767 -0.0272077
vn -0.035809 0.921433 -0.386884
v -0.00187531 0.0651963 -0.0272554
vn -0.0186383 0.923041 -0.384249
v -0.00149947 0.0647981 -0.0281451
vn 0.996781 0.0729364 -0.0332988
v -0.00149947 0.0646196 -0.0285184
vn 0.995804 0.0825164 -0.039556
f 1//1 2//2 7//7
f 1//1 7//7 18//18
f 1//1 18//18 33//33
f 1//1 33//33 47//47
f 1//1 47//47 67//67
f 1//1 67//67 68//68
f 1//1 68//68 48//48
f 1//1 48//48 37//37
f 1//1 37//37 34//34
f 1//1 34//34 20//20
f 1//1 20//20 9//9
f 1//1 9//9 3//3
f 1//1 3//3 4//4
f 1//1 4//4 5//5
f 1//1 5//5 2//2
f 2//2 6//6 7//7
f 2//2 5//5 8//8
f 2//2 8//8 6//6
f 3//3 9//9 10//10
f 3//3 10//10 4//4
f 4//4 10//10 11//11
f 4//4 11//11 12//12
f 4//4 12//12 13//13
f 4//4 13//13 14//14
f 4//4 14//14 15//15
f 4//4 15//15 5//5
f 5//5 16//16 8//8
f 5//5 15//15 17//17
f 5//5 17//17 16//16
f 6//6 18//18 7//7
f 6//6 8//8 19//19
f 6//6 19//19 16//16
f 6//6 16//16 17//17
f 6//6 17//17 32//32
f 6//6 32//32 43//43
f 6//6 43//43 42//42
f 6//6 42//42 44//44
f 6//6 44//44 63//63
f 6//6 63//63 64//64
f 6//6 64//64 81//81
f 6//6 81//81 108//108
f 6//6 108//108 137//137
f 6//6 137//137 174//174
f 6//6 174//174 175//175
f 6//6 175//175 168//168
f 6//6 168//168 167//167
f 6//6 167//167 166//166
f 6//6 166//166 202//202
f 6//6 202//202 227//227
f 6//6 227//227 234//234
f 6//6 234//234 232//232
f 6//6 232//232 233//233
f 6//6 233//233 247//247
f 6//6 247//247 246//246
f 6//6 246//246 239//239
f 6//6 239//239 214//214
f 6//6 214//214 182//182
f 6//6 182//182 140//140
f 6//6 140//140 110//110
f 6//6 110//110 83//83
f 6//6 83//83 65//65
f 6//6 65//65 45//45
f 6//6 45//45 33//33
f 6//6 33//33 18//18
f 8//8 16//16 19//19
f 9//9 20//20 21//21
f 9//9 21//21 22//22
f 9//9 22//22 10//10
f 10//10 22//22 11//11
f 11//11 22//22 21//21
f 11//11 21//21 12//12
f 12//12 23//23 13//13
f 12//12 21//21 24//24
f 12//12 24//24 25//25
f 12//12 25//25 26//26
f 12//12 26//26 27//27
f 12//12 27//27 28//28
f 12//12 28//28 29//29
f 12//12 29//29 30//30
f 12//12 30//30 23//23
f 13//13 23//23 14//14
f 14//14 31//31 15//15
f 14//14 23//23 30//30
f 14//14 30//30 31//31
f 15//15 31//31 32//32
f 15//15 32//32 17//17
f 20//20 34//34 21//21
f 21//21 25//25 24//24
f 21//21 34//34 25//25
f 25//25 35//35 36//36
f 25//25 36//36 26//26
f 25//25 34//34 37//37
f 25//25 37//37 35//35
f 26//26 36//36 38//38
f 26//26 38//38 39//39
f 26//26 39//39 40//40
f 26//26 40//40 27//27
f 27//27 40//40 28//28
f 28//28 40//40 41//41
f 28//28 41//41 29//29
f 29//29 41//41 30//30
f 30//30 42//42 43//43
f 30//30 43//43 32//32
f 30//30 32//32 31//31
f 30//30 41//41 44//44
f 30//30 44//44 42//42
f 33//33 45//45 46//46
f 33//33 46//46 47//47
f 35//35 37//37 48//48
f 35//35 48//48 49//49
f 35//35 49//49 50//50
f 35//35 50//50 51//51
f 35//35 51//51 36//36
f 36//36 51//51 38//38
f 38//38 52//52 53//53
f 38//38 53//53 54//54
f 38//38 54//54 55//55
f 38//38 55//55 39//39
f 38//38 51//51 52//52
f 39//39 55//55 56//56
f 39//39 56//56 40//40
f 40//40 57//57 58//58
f 40//40 58//58 59//59
f 40//40 59//59 60//60
f 40//40 60//60 61//61
f 40//40 61//61 41//41
f 40//40 56//56 62//62
f 40//40 62//62 57//57
f 41//41 63//63 44//44
f 41//41 61//61 64//64
f 41//41 64//64 63//63
f 45//45 65//65 82//82
f 45//45 82//82 109//109
f 45//45 109//109 139//139
f 45//45 139//139 177//177
f 45//45 177//177 176//176
f 45//45 176//176 187//187
f 45//45 187//187 186//186
f 45//45 186//186 185//185
f 45//45 185//185 183//183
f 45//45 183//183 144//144
f 45//45 144//144 142//142
f 45//45 142//142 112//112
f 45//45 112//112 111//111
f 45//45 111//111 84//84
f 45//45 84//84 66//66
f 45//45 66//66 46//46
f 46//46 66//66 86//86
f 46//46 86//86 115//115
f 46//46 115//115 151//151
f 46//46 151//151 150//150
f 46//46 150//150 149//149
f 46//46 149//149 193//193
f 46//46 193//193 192//192
f 46//46 192//192 220//220
f 46//46 220//220 221//221
f 46//46 221//221 242//242
f 46//46 242//242 241//241
f 46//46 241//241 222//222
f 46//46 222//222 195//195
f 46//46 195//195 154//154
f 46//46 154//154 153//153
f 46//46 153//153 122//122
f 46//46 122//122 152//152
f 46//46 152//152 118//118
f 46//46 118//118 91//91
f 46//46 91//91 98//98
f 46//46 98//98 117//117
f 46//46 117//117 116//116
f 46//46 116//116 87//87
f 46//46 87//87 67//67
f 46//46 67//67 47//47
f 48//48 68//68 69//69
f 48//48 69//69 49//49
f 49//49 69//69 70//70
f 49//49 70//70 50//50
f 50//50 70//70 71//71
f 50//50 71//71 72//72
f 50//50 72//72 51//51
f 51//51 72//72 52//52
f 52//52 72//72 53//53
f 53//53 72//72 73//73
f 53//53 73//73 54//54
f 54//54 56//56 55//55
f 54//54 73//73 74//74
f 54//54 74//74 56//56
f 56//56 74//74 62//62
f 57//57 62//62 75//75
f 57//57 75//75 76//76
f 57//57 76//76 58//58
f 58//58 76//76 59//59
f 59//59 76//76 77//77
f 59//59 77//77 78//78
f 59//59 78//78 79//79
f 59//59 79//79 60//60
f 60//60 79//79 80//80
f 60//60 80//80 61//61
f 61//61 80//80 81//81
f 61//61 81//81 64//64
f 62//62 74//74 75//75
f 65//65 83//83 82//82
f 66//66 84//84 85//85
f 66//66 85//85 86//86
f 67//67 87//87 88//88
f 67//67 88//88 69//69
f 67//67 69//69 68//68
f 69//69 88//88 70//70
f 70//70 88//88 71//71
f 71//71 88//88 89//89
f 71//71 89//89 72//72
f 72//72 90//90 91//91
f 72//72 91//91 92//92
f 72//72 92//92 93//93
f 72//72 93//93 94//94
f 72//72 94//94 95//95
f 72//72 95//95 96//96
f 72//72 96//96 97//97
f 72//72 97//97 73//73
f 72//72 89//89 98//98
f 72//72 98//98 90//90
f 73//73 97//97 99//99
f 73//73 99//99 100//100
f 73//73 100//100 101//101
f 73//73 101//101 74//74
f 74//74 101//101 100//100
f 74//74 100//100 99//99
f 74//74 99//99 102//102
f 74//74 102//102 103//103
f 74//74 103//103 75//75
f 75//75 103//103 76//76
f 76//76 103//103 77//77
f 77//77 103//103 102//102
f 77//77 102//102 78//78
f 78//78 102//102 104//104
f 78//78 104//104 105//105
f 78//78 105//105 106//106
f 78//78 106//106 79//79
f 79//79 106//106 107//107
f 79//79 107//107 80//80
f 80//80 107//107 108//108
f 80//80 108//108 81//81
f 82//82 83//83 110//110
f 82//82 110//110 109//109
f 84//84 111//111 85//85
f 85//85 111//111 112//112
f 85//85 112//112 113//113
f 85//85 113//113 114//114
f 85//85 114//114 86//86
f 86//86 114//114 115//115
f 87//87 116//116 88//88
f 88//88 116//116 117//117
f 88//88 117//117 89//89
f 89//89 117//117 98//98
f 90//90 98//98 91//91
f 91//91 118//118 119//119
f 91//91 119//119 92//92
f 92//92 119//119 118//118
f 92//92 118//118 120//120
f 92//92 120//120 121//121
f 92//92 121//121 122//122
f 92//92 122//122 93//93
f 93//93 122//122 123//123
f 93//93 123//123 124//124
f 93//93 124//124 94//94
f 94//94 124//124 125//125
f 94//94 125//125 95//95
f 95//95 125//125 126//126
f 95//95 126//126 96//96
f 96//96 126//126 127//127
f 96//96 127//127 128//128
f 96//96 128//128 129//129
f 96//96 129//129 97//97
f 97//97 129//129 99//99
f 99//99 129//129 128//128
f 99//99 128//128 127//127
f 99//99 127//127 130//130
f 99//99 130//130 102//102
f 102//102 130//130 131//131
f 102//102 131//131 132//132
f 102//102 132//132 133//133
f 102//102 133//133 104//104
f 104//104 133//133 132//132
f 104//104 132//132 134//134
f 104//104 134//134 135//135
f 104//104 135//135 105//105
f 105//105 107//107 106//106
f 105//105 135//135 107//107
f 107//107 135//135 136//136
f 107//107 136//136 137//137
f 107//107 137//137 108//108
f 109//109 138//138 139//139
f 109//109 110//110 138//138
f 110//110 140//140 141//141
f 110//110 141//141 138//138
f 112//112 142//142 113//113
f 113//113 143//143 114//114
f 113//113 142//142 144//144
f 113//113 144//144 143//143
f 114//114 145//145 146//146
f 114//114 146//146 147//147
f 114//114 147//147 148//148
f 114//114 148//148 149//149
f 114//114 149//149 150//150
f 114//114 150//150 151//151
f 114//114 151//151 115//115
f 114//114 143//143 145//145
f 118//118 152//152 120//120
f 120//120 152//152 122//122
f 120//120 122//122 121//121
f 122//122 153//153 123//123
f 123//123 153//153 154//154
f 123//123 154//154 155//155
f 123//123 155//155 156//156
f 123//123 156//156 124//124
f 124//124 156//156 157//157
f 124//124 157//157 158//158
f 124//124 158//158 125//125
f 125//125 159//159 126//126
f 125//125 158//158 160//160
f 125//125 160//160 161//161
f 125//125 161//161 159//159
f 126//126 162//162 127//127
f 126//126 159//159 163//163
f 126//126 163//163 162//162
f 127//127 162//162 131//131
f 127//127 131//131 130//130
f 131//131 162//162 132//132
f 132//132 162//162 164//164
f 132//132 164//164 134//134
f 134//134 164//164 165//165
f 134//134 165//165 135//135
f 135//135 166//166 167//167
f 135//135 167//167 168//168
f 135//135 168//168 169//169
f 135//135 169//169 136//136
f 135//135 165//165 170//170
f 135//135 170//170 171//171
f 135//135 171//171 172//172
f 135//135 172//172 173//173
f 135//135 173//173 166//166
f 136//136 174//174 137//137
f 136//136 169//169 175//175
f 136//136 175//175 174//174
f 138//138 176//176 177//177
f 138//138 177//177 139//139
f 138//138 141//141 178//178
f 138//138 178//178 179//179
f 138//138 179//179 180//180
f 138//138 180//180 176//176
f 140//140 181//181 141//141
f 140//140 182//182 181//181
f 141//141 181//181 179//179
f 141//141 179//179 178//178
f 143//143 144//144 183//183
f 143//143 183//183 145//145
f 145//145 184//184 146//146
f 145//145 183//183 185//185
f 145//145 185//185 186//186
f 145//145 186//186 187//187
f 145//145 187//187 188//188
f 145//145 188//188 184//184
f 146//146 184//184 189//189
f 146//146 189//189 147//147
f 147//147 189//189 190//190
f 147//147 190//190 191//191
f 147//147 191//191 148//148
f 148//148 192//192 193//193
f 148//148 193//193 149//149
f 148//148 191//191 194//194
f 148//148 194//194 192//192
f 154//154 195//195 196//196
f 154//154 196//196 155//155
f 155//155 196//196 197//197
f 155//155 197//197 157//157
f 155//155 157//157 156//156
f 157//157 197//197 160//160
f 157//157 160//160 158//158
f 159//159 198//198 163//163
f 159//159 161//161 199//199
f 159//159 199//199 198//198
f 160//160 197//197 189//189
f 160//160 189//189 199//199
f 160//160 199//199 161//161
f 162//162 163//163 198//198
f 162//162 198//198 200//200
f 162//162 200//200 165//165
f 162//162 165//165 164//164
f 165//165 200//200 201//201
f 165//165 201//201 171//171
f 165//165 171//171 170//170
f 166//166 173//173 202//202
f 168//168 175//175 169//169
f 171//171 203//203 204//204
f 171//171 204//204 205//205
f 171//171 205//205 172//172
f 171//171 201//201 203//203
f 172//172 205//205 173//173
f 173//173 205//205 206//206
f 173//173 206//206 207//207
f 173//173 207//207 202//202
f 176//176 180//180 208//208
f 176//176 208//208 188//188
f 176//176 188//188 187//187
f 179//179 181//181 209//209
f 179//179 209//209 210//210
f 179//179 210//210 180//180
f 180//180 211//211 188//188
f 180//180 188//188 208//208
f 180//180 210//210 212//212
f 180//180 212//212 213//213
f 180//180 213//213 211//211
f 181//181 182//182 209//209
f 182//182 214//214 235//235
f 182//182 235//235 209//209
f 184//184 188//188 215//215
f 184//184 215//215 216//216
f 184//184 216//216 189//189
f 188//188 211//211 215//215
f 189//189 197//197 191//191
f 189//189 191//191 190//190
f 189//189 216//216 217//217
f 189//189 217//217 218//218
f 189//189 218//218 199//199
f 191//191 219//219 194//194
f 191//191 197//197 196//196
f 191//191 196//196 219//219
f 192//192 194//194 220//220
f 194//194 219//219 221//221
f 194//194 221//221 220//220
f 195//195 222//222 196//196
f 196//196 222//222 219//219
f 198//198 223//223 200//200
f 198//198 199//199 224//224
f 198//198 224//224 223//223
f 199//199 218//218 224//224
f 200//200 223//223 225//225
f 200//200 225//225 226//226
f 200//200 226//226 201//201
f 201//201 226//226 225//225
f 201//201 225//225 203//203
f 202//202 207//207 227//227
f 203//203 224//224 228//228
f 203//203 228//228 204//204
f 203//203 225//225 223//223
f 203//203 223//223 224//224
f 204//204 228//228 229//229
f 204//204 229//229 230//230
f 204//204 230//230 205//205
f 205//205 230//230 231//231
f 205//205 231//231 206//206
f 206//206 232//232 207//207
f 206//206 231//231 233//233
f 206//206 233//233 232//232
f 207//207 232//232 234//234
f 207//207 234//234 227//227
f 209//209 235//235 236//236
f 209//209 236//236 210//210
f 210//210 236//236 237//237
f 210//210 237//237 212//212
f 211//211 213//213 215//215
f 212//212 237//237 238//238
f 212//212 238//238 213//213
f 213//213 238//238 217//217
f 213//213 217//217 216//216
f 213//213 216//216 215//215
f 214//214 239//239 245//245
f 214//214 245//245 235//235
f 217//217 238//238 240//240
f 217//217 240//240 218//218
f 218//218 240//240 228//228
f 218//218 228//228 224//224
f 219//219 222//222 241//241
f 219//219 241//241 242//242
f 219//219 242//242 221//221
f 228//228 240//240 229//229
f 229//229 240//240 243//243
f 229//229 243//243 244//244
f 229//229 244//244 230//230
f 230//230 244//244 245//245
f 230//230 245//245 231//231
f 231//231 246//246 247//247
f 231//231 247//247 233//233
f 231//231 245//245 239//239
f 231//231 239//239 246//246
f 235//235 245//245 236//236
f 236//236 245//245 244//244
f 236//236 244//244 237//237
f 237//237 244//244 243//243
f 237//237 243//243 238//238
f 238//238 243//243 240//240
