# Created by Open3D 
# object name: part_010
# number of vertices: 150
# number of triangles: 296
v -0.0748577 0.01358 -0.00441869
vn -0.0978139 -0.995203 -0.00177269
v -0.0748357 0.01358 -0.00451761
vn -0.916225 0.3414 -0.209708
v -0.0748577 0.01358 -0.00316075
vn -0.949721 0.313092 0.00189152
v -0.0723437 0.021139 0.00665077
vn -0.944048 0.329805 0.00166718
v -0.0739 0.0164036 -0.00389984
vn -0.944857 0.32687 -0.0200156
v -0.0729927 0.0185852 -0.00441869
vn -0.915549 0.373354 -0.149589
v -0.0747317 0.01358 -0.00496927
vn -0.00405339 -0.00317346 -0.999987
v -0.0748546 0.01358 -0.00283787
vn -0.956184 0.292385 0.0149317
v -0.0731597 0.0185852 -0.00283787
vn -0.932823 0.359637 -0.0224252
v -0.0745994 0.0138405 0.00823159
vn -0.954998 0.295832 0.0215187
v -0.0723248 0.0211018 0.00782845
vn -0.920657 0.376841 0.101886
v -0.0705417 0.0253861 0.00506809
vn -0.913394 0.405838 0.0317329
v -0.0705637 0.0254047 0.00348914
vn -0.910545 0.413379 0.00503258
v -0.0705606 0.0253768 0.00190832
vn -0.926599 0.375382 -0.022419
v -0.0728509 0.0186178 -0.00496927
vn -0.846837 0.339278 -0.409582
v -0.0725705 0.0200552 -0.00283787
vn -0.919924 0.386187 -0.0678166
v -0.0706929 0.024172 -0.00376359
vn -0.909394 0.396945 -0.12425
v -0.0702235 0.0248325 -0.00496927
vn -0.861222 0.37411 -0.344003
v -0.0641621 0.01358 -0.00496927
vn 0.673564 -0.672325 -0.307068
v -0.074653 0.01358 0.00823159
vn -0.992938 -0.115178 0.0284269
v -0.0744923 0.0138405 0.00981241
vn -0.949912 0.292237 0.110746
v -0.0740701 0.0150732 0.00981241
vn -0.925184 0.328083 0.190776
v -0.0722145 0.0208041 0.00888296
vn -0.911299 0.342393 0.228692
v -0.0663044 0.03288 0.0140976
vn -0.0659767 0.0251787 0.997503
v -0.0665438 0.0328149 0.0129759
vn -0.910994 0.379817 0.160715
v -0.0659389 0.0352152 0.0106504
vn -0.884367 0.447637 0.132351
v -0.065961 0.035257 0.00981241
vn -0.909386 0.414846 0.0303407
v -0.0700471 0.0264932 0.00190832
vn -0.903623 0.428075 -0.014757
v -0.0659641 0.0352756 0.00823159
vn -0.905403 0.424546 -0.00267125
v -0.0699872 0.0264932 0.000325631
vn -0.894966 0.44228 -0.0585149
v -0.0705259 0.0252698 0.000325631
vn -0.917569 0.394161 -0.0520048
v -0.0711718 0.02333 -0.00283787
vn -0.916882 0.393299 -0.0681485
v -0.0707528 0.0242929 -0.00283787
vn -0.899022 0.429247 -0.0866401
v -0.069417 0.026549 -0.00496927
vn -0.839307 0.396111 -0.372372
v -0.0628232 0.01358 0.0140976
vn 0.413297 -0.705649 0.575539
v -0.0426763 0.0427324 -0.00496927
vn 0.78639 -0.239619 -0.569363
v -0.0426763 0.0371968 0.0140976
vn 0.776154 -0.425306 0.46551
v -0.0745616 0.01358 0.00955672
vn -0.369151 -0.928992 0.0264846
v -0.0745395 0.01358 0.00981241
vn -0.0759997 -0.996903 0.0201997
v -0.0742025 0.01358 0.010908
vn -0.126591 -0.991188 0.0389999
v -0.074089 0.0138405 0.0111207
vn -0.852746 0.273918 0.444739
v -0.073941 0.014822 0.0107904
vn -0.903978 0.328239 0.274013
v -0.0668777 0.0312333 0.0140976
vn -0.849803 0.277378 0.448215
v -0.0659988 0.0336196 0.0140976
vn -0.899983 0.375337 0.221704
v -0.0659767 0.0336987 0.0140416
vn -0.907591 0.386099 0.164941
v -0.0649938 0.0355408 0.0140976
vn -0.857116 0.464102 0.223522
v -0.0639006 0.0375224 0.0140976
vn -0.849381 0.474391 0.231313
v -0.0633934 0.0384063 0.0140976
vn -0.842177 0.483658 0.238354
v -0.0631099 0.0388993 0.0140976
vn -0.82079 0.509561 0.258168
v -0.0625963 0.0396901 0.0140976
vn -0.797517 0.529101 0.28986
v -0.0626625 0.0397878 0.0129759
vn -0.826672 0.555478 0.0897684
v -0.064767 0.0373968 0.00823159
vn -0.834839 0.546174 0.0688351
v -0.0659358 0.0337638 0.0140976
vn -0.863782 0.454964 0.216538
v -0.0655577 0.0360664 0.00823159
vn -0.869094 0.494002 0.0252377
v -0.0655955 0.0360199 0.00665077
vn -0.897012 0.441114 -0.0280611
v -0.0688909 0.028405 -0.00125519
vn -0.889798 0.448904 -0.0821332
v -0.0647859 0.0374806 0.00506809
vn -0.887219 0.458945 -0.047018
v -0.0647008 0.0374247 0.00348914
vn -0.888362 0.453331 -0.0728319
v -0.0692752 0.0268467 -0.00496927
vn -0.851321 0.427783 -0.303734
v -0.0725453 0.01358 0.0140976
vn -0.00202036 -0.722068 0.691819
v -0.0426763 0.0597763 -0.00496927
vn 0.0166475 0.000364202 -0.999861
v -0.0426763 0.0604043 0.0140976
vn 0.630583 0.00107382 0.776121
v -0.0741142 0.01358 0.0111935
vn -0.0409419 -0.998985 0.0187719
v -0.0737078 0.01358 0.0119867
vn -0.229604 -0.965334 0.124149
v -0.0721389 0.0149987 0.0140976
vn -0.841585 0.27119 0.467109
v -0.0613267 0.041509 0.0140976
vn -0.6989 0.490347 0.520671
v -0.0620041 0.0407182 0.0129759
vn -0.811867 0.579126 0.0740668
v -0.0642314 0.0381876 0.00823159
vn -0.814401 0.575982 0.0706823
v -0.0629996 0.0402809 0.00506809
vn -0.821801 0.567203 0.0540698
v -0.0630342 0.0403553 0.00348914
vn -0.843482 0.537099 -0.00794519
v -0.0648048 0.0374527 0.00665077
vn -0.855413 0.517666 0.0170456
v -0.0643795 0.0368386 -0.00380652
vn -0.882597 0.461217 -0.0911089
v -0.0637494 0.0391366 0.00348914
vn -0.864743 0.499078 -0.0560339
v -0.0642692 0.0382155 0.00348914
vn -0.870689 0.485846 -0.0765192
v -0.0642692 0.036606 -0.00486102
vn -0.871854 0.450154 -0.192955
v -0.0642566 0.0365781 -0.00496927
vn -0.0758157 0.0391329 -0.996354
v -0.0724792 0.0138405 0.0140976
vn -0.731064 0.209411 0.649378
v -0.0430449 0.059581 -0.00496927
vn -0.0479447 0.0840717 -0.995306
v -0.0426763 0.059874 -0.00441869
vn 0.999754 0.0218719 -0.00355243
v -0.0426763 0.0605253 0.0137617
vn 0.999348 0.0341976 0.0116159
v -0.043486 0.0602973 0.0129759
vn -0.647509 0.754841 0.104628
v -0.0431174 0.0601252 0.0140976
vn -0.0573547 0.0884181 0.994431
v -0.0612574 0.0416067 0.0140976
vn -0.768858 0.610669 0.189581
v -0.0567933 0.0498356 -0.00125519
vn -0.800808 0.594436 0.0731565
v -0.0625018 0.0411461 0.00348914
vn -0.824 0.564823 0.0447077
v -0.0624955 0.0410717 0.00190832
vn -0.85131 0.518677 -0.0790271
v -0.0629649 0.0402809 0.00190832
vn -0.864501 0.495966 -0.0815835
v -0.0631067 0.0389319 -0.00441869
vn -0.859685 0.501797 -0.0956104
v -0.0639416 0.0374387 -0.0043683
vn -0.864974 0.467937 -0.181258
v -0.063784 0.0374852 -0.00496927
vn -0.300516 0.160979 -0.940094
v -0.0441917 0.0589204 -0.00496927
vn -0.0488152 0.0837333 -0.995292
v -0.0426763 0.0601671 -0.00256351
vn 0.920195 0.388206 -0.0503673
v -0.0426763 0.0607625 0.0130431
vn 0.999338 0.0345659 0.0113426
v -0.0443586 0.0595065 0.0129759
vn -0.683848 0.719958 0.118373
v -0.0456503 0.0580505 0.0140976
vn -0.196483 0.209995 0.957756
v -0.0442295 0.0593344 0.0140976
vn -0.144554 0.160254 0.976434
v -0.0439743 0.0595623 0.0140976
vn -0.0707369 0.0994775 0.992522
v -0.0426952 0.0607718 0.0129759
vn -0.509707 0.850351 0.130774
v -0.0428275 0.0609253 0.0113951
vn -0.565414 0.821502 0.0737616
v -0.0436183 0.0603392 0.0113951
vn -0.637108 0.768957 0.0529008
v -0.0553 0.0513939 -0.00125519
vn -0.657973 0.749405 0.0739167
v -0.0568752 0.0468445 0.0140976
vn -0.438999 0.368507 0.81944
v -0.0569256 0.0471329 0.0128639
vn -0.75514 0.631783 0.174968
v -0.0564562 0.0478539 0.0122611
vn -0.73318 0.668605 0.124155
v -0.0560908 0.0506264 -0.00125519
vn -0.715979 0.689251 0.110937
v -0.0561286 0.0505892 -0.00283787
vn -0.760099 0.646403 -0.066424
v -0.0567271 0.0497984 -0.00283787
vn -0.84592 0.522742 -0.105641
v -0.0626342 0.0397227 -0.00441869
vn -0.852145 0.514327 -0.0965201
v -0.0628925 0.0391133 -0.00496927
vn -0.172858 0.100542 -0.979802
v -0.0630469 0.0388389 -0.00496927
vn -0.409102 0.224864 -0.884348
v -0.0625869 0.0396297 -0.00496927
vn -0.760985 0.473996 -0.442978
v -0.0428496 0.0600415 -0.00272589
vn -0.50188 0.855531 -0.127209
v -0.046523 0.0575528 -0.00496927
vn -0.160296 0.266156 -0.950508
v -0.0426763 0.0602973 -0.00125519
vn 0.987194 0.15895 -0.0134933
v -0.0452155 0.0588181 -0.00125519
vn -0.507503 0.857767 -0.081716
v -0.0426763 0.0607811 0.0129759
vn 1 0.000829274 0.000219849
v -0.0501018 0.0541524 0.0121155
vn -0.691416 0.71156 0.125004
v -0.0491189 0.0547339 0.0140976
vn -0.464693 0.48453 0.741141
v -0.0551614 0.051273 0.000325631
vn -0.687572 0.716211 0.119525
v -0.0426763 0.0607858 0.0129554
vn 0.999966 0.00816463 0.00118019
v -0.0426763 0.0610416 0.0111823
vn 0.99997 0.0076581 0.000726723
v -0.0426763 0.0611021 0.00962204
vn 0.740178 0.672333 0.0102565
v -0.0474177 0.057683 0.00348914
vn -0.613868 0.789091 0.0223811
v -0.0482084 0.0570411 0.00348914
vn -0.640863 0.766075 0.0492249
v -0.0553378 0.0514497 -0.00283787
vn -0.644573 0.764462 0.0110615
v -0.0566515 0.047105 0.0140976
vn -0.400545 0.359396 0.842852
v -0.056305 0.047719 0.0133156
vn -0.697657 0.687962 0.19996
v -0.0493489 0.0545106 0.0140976
vn -0.48806 0.48938 0.722706
v -0.054818 0.0509613 0.00403412
vn -0.697477 0.705372 0.126395
v -0.0551929 0.0513427 -0.00441869
vn -0.741881 0.650044 -0.164487
v -0.0560498 0.0501658 -0.00449148
vn -0.79093 0.572987 -0.214745
v -0.0565602 0.0496123 -0.00401369
vn -0.823013 0.520922 -0.22647
v -0.0618655 0.0407693 -0.00496927
vn -0.198694 0.12598 -0.971931
v -0.0469136 0.0573016 -0.00496927
vn -0.131296 0.189246 -0.973112
v -0.0461575 0.058232 -0.00125519
vn -0.534256 0.839952 -0.0951398
v -0.0426763 0.0610835 0.00823159
vn 0.932061 0.361421 -0.0252537
v -0.0461575 0.0583855 0.000325631
vn -0.522272 0.850432 -0.0632222
v -0.0474366 0.0576877 0.00190832
vn -0.570782 0.820383 -0.034334
v -0.0482273 0.057069 0.00190832
vn -0.623212 0.781993 0.00971106
v -0.0543454 0.0522405 -0.00283787
vn -0.60092 0.797933 -0.0468812
v -0.054295 0.0521335 -0.00441869
vn -0.631725 0.765212 -0.123991
v -0.0561821 0.0475981 0.0140976
vn -0.164225 0.161943 0.973039
v -0.0550984 0.0512544 -0.00496927
vn -0.074023 0.0674309 -0.994974
v -0.0558608 0.0502124 -0.00496927
vn -0.0630226 0.0452014 -0.996988
v -0.056116 0.0498356 -0.00496927
vn -0.200673 0.127594 -0.971314
v -0.0472413 0.0575295 -0.00125519
vn -0.568491 0.816805 -0.0982202
v -0.0534381 0.052701 -0.00496927
vn -0.0185825 0.025578 -0.9995
v -0.0535043 0.0527383 -0.00441869
vn -0.578827 0.810434 -0.0903127
v -0.0473673 0.0576226 0.000325631
vn -0.580543 0.811122 -0.0710717
v -0.0542226 0.0520219 -0.00496927
vn -0.0231111 0.0265229 -0.999381
f 1//1 2//2 7//7
f 1//1 7//7 19//19
f 1//1 19//19 35//35
f 1//1 35//35 60//60
f 1//1 60//60 64//64
f 1//1 64//64 63//63
f 1//1 63//63 40//40
f 1//1 40//40 39//39
f 1//1 39//39 38//38
f 1//1 38//38 20//20
f 1//1 20//20 8//8
f 1//1 8//8 3//3
f 1//1 3//3 4//4
f 1//1 4//4 5//5
f 1//1 5//5 6//6
f 1//1 6//6 2//2
f 2//2 6//6 7//7
f 3//3 8//8 4//4
f 4//4 9//9 5//5
f 4//4 8//8 10//10
f 4//4 10//10 11//11
f 4//4 11//11 12//12
f 4//4 12//12 13//13
f 4//4 13//13 14//14
f 4//4 14//14 9//9
f 5//5 9//9 6//6
f 6//6 15//15 7//7
f 6//6 9//9 16//16
f 6//6 16//16 17//17
f 6//6 17//17 18//18
f 6//6 18//18 15//15
f 7//7 15//15 18//18
f 7//7 18//18 34//34
f 7//7 34//34 59//59
f 7//7 59//59 76//76
f 7//7 76//76 90//90
f 7//7 90//90 110//110
f 7//7 110//110 109//109
f 7//7 109//109 111//111
f 7//7 111//111 133//133
f 7//7 133//133 145//145
f 7//7 145//145 144//144
f 7//7 144//144 143//143
f 7//7 143//143 150//150
f 7//7 150//150 147//147
f 7//7 147//147 134//134
f 7//7 134//134 113//113
f 7//7 113//113 91//91
f 7//7 91//91 78//78
f 7//7 78//78 61//61
f 7//7 61//61 36//36
f 7//7 36//36 19//19
f 8//8 20//20 10//10
f 9//9 14//14 16//16
f 10//10 20//20 21//21
f 10//10 21//21 11//11
f 11//11 21//21 22//22
f 11//11 22//22 23//23
f 11//11 23//23 24//24
f 11//11 24//24 25//25
f 11//11 25//25 26//26
f 11//11 26//26 27//27
f 11//11 27//27 12//12
f 12//12 27//27 13//13
f 13//13 28//28 14//14
f 13//13 27//27 29//29
f 13//13 29//29 28//28
f 14//14 28//28 30//30
f 14//14 30//30 31//31
f 14//14 31//31 16//16
f 16//16 32//32 17//17
f 16//16 31//31 32//32
f 17//17 33//33 34//34
f 17//17 34//34 18//18
f 17//17 32//32 33//33
f 19//19 36//36 37//37
f 19//19 37//37 35//35
f 20//20 38//38 21//21
f 21//21 38//38 39//39
f 21//21 39//39 40//40
f 21//21 40//40 41//41
f 21//21 41//41 42//42
f 21//21 42//42 22//22
f 22//22 42//42 23//23
f 23//23 42//42 24//24
f 24//24 43//43 65//65
f 24//24 65//65 77//77
f 24//24 77//77 60//60
f 24//24 60//60 35//35
f 24//24 35//35 37//37
f 24//24 37//37 62//62
f 24//24 62//62 82//82
f 24//24 82//82 97//97
f 24//24 97//97 96//96
f 24//24 96//96 95//95
f 24//24 95//95 118//118
f 24//24 118//118 128//128
f 24//24 128//128 142//142
f 24//24 142//142 126//126
f 24//24 126//126 102//102
f 24//24 102//102 83//83
f 24//24 83//83 66//66
f 24//24 66//66 50//50
f 24//24 50//50 49//49
f 24//24 49//49 48//48
f 24//24 48//48 47//47
f 24//24 47//47 46//46
f 24//24 46//46 53//53
f 24//24 53//53 44//44
f 24//24 44//44 45//45
f 24//24 45//45 25//25
f 24//24 42//42 43//43
f 25//25 45//45 26//26
f 26//26 46//46 47//47
f 26//26 47//47 48//48
f 26//26 48//48 49//49
f 26//26 49//49 50//50
f 26//26 50//50 51//51
f 26//26 51//51 52//52
f 26//26 52//52 27//27
f 26//26 45//45 53//53
f 26//26 53//53 46//46
f 27//27 52//52 54//54
f 27//27 54//54 55//55
f 27//27 55//55 29//29
f 28//28 29//29 55//55
f 28//28 55//55 30//30
f 30//30 56//56 33//33
f 30//30 33//33 31//31
f 30//30 55//55 57//57
f 30//30 57//57 58//58
f 30//30 58//58 56//56
f 31//31 33//33 32//32
f 33//33 56//56 59//59
f 33//33 59//59 34//34
f 36//36 61//61 79//79
f 36//36 79//79 92//92
f 36//36 92//92 114//114
f 36//36 114//114 136//136
f 36//36 136//136 122//122
f 36//36 122//122 121//121
f 36//36 121//121 120//120
f 36//36 120//120 116//116
f 36//36 116//116 93//93
f 36//36 93//93 80//80
f 36//36 80//80 62//62
f 36//36 62//62 37//37
f 40//40 63//63 41//41
f 41//41 63//63 64//64
f 41//41 64//64 65//65
f 41//41 65//65 43//43
f 41//41 43//43 42//42
f 44//44 53//53 45//45
f 50//50 66//66 51//51
f 51//51 66//66 67//67
f 51//51 67//67 68//68
f 51//51 68//68 52//52
f 52//52 68//68 69//69
f 52//52 69//69 70//70
f 52//52 70//70 71//71
f 52//52 71//71 54//54
f 54//54 71//71 55//55
f 55//55 71//71 57//57
f 56//56 58//58 72//72
f 56//56 72//72 59//59
f 57//57 71//71 70//70
f 57//57 70//70 73//73
f 57//57 73//73 74//74
f 57//57 74//74 58//58
f 58//58 74//74 72//72
f 59//59 72//72 75//75
f 59//59 75//75 76//76
f 60//60 77//77 64//64
f 61//61 78//78 79//79
f 62//62 80//80 81//81
f 62//62 81//81 82//82
f 64//64 77//77 65//65
f 66//66 83//83 67//67
f 67//67 83//83 84//84
f 67//67 84//84 68//68
f 68//68 84//84 69//69
f 69//69 85//85 70//70
f 69//69 84//84 85//85
f 70//70 86//86 87//87
f 70//70 87//87 73//73
f 70//70 85//85 84//84
f 70//70 84//84 86//86
f 72//72 74//74 87//87
f 72//72 87//87 88//88
f 72//72 88//88 89//89
f 72//72 89//89 75//75
f 73//73 87//87 74//74
f 75//75 89//89 90//90
f 75//75 90//90 76//76
f 78//78 91//91 92//92
f 78//78 92//92 79//79
f 80//80 93//93 81//81
f 81//81 94//94 95//95
f 81//81 95//95 96//96
f 81//81 96//96 97//97
f 81//81 97//97 82//82
f 81//81 93//93 98//98
f 81//81 98//98 99//99
f 81//81 99//99 100//100
f 81//81 100//100 101//101
f 81//81 101//101 94//94
f 83//83 102//102 103//103
f 83//83 103//103 104//104
f 83//83 104//104 84//84
f 84//84 104//104 105//105
f 84//84 105//105 106//106
f 84//84 106//106 107//107
f 84//84 107//107 86//86
f 86//86 108//108 88//88
f 86//86 88//88 87//87
f 86//86 107//107 108//108
f 88//88 109//109 110//110
f 88//88 110//110 89//89
f 88//88 108//108 111//111
f 88//88 111//111 109//109
f 89//89 110//110 90//90
f 91//91 112//112 92//92
f 91//91 113//113 112//112
f 92//92 112//112 113//113
f 92//92 113//113 115//115
f 92//92 115//115 114//114
f 93//93 116//116 98//98
f 94//94 117//117 118//118
f 94//94 118//118 95//95
f 94//94 101//101 119//119
f 94//94 119//119 117//117
f 98//98 116//116 120//120
f 98//98 120//120 99//99
f 99//99 120//120 121//121
f 99//99 121//121 122//122
f 99//99 122//122 100//100
f 100//100 122//122 123//123
f 100//100 123//123 124//124
f 100//100 124//124 101//101
f 101//101 125//125 105//105
f 101//101 105//105 119//119
f 101//101 124//124 125//125
f 102//102 126//126 104//104
f 102//102 104//104 103//103
f 104//104 126//126 127//127
f 104//104 127//127 128//128
f 104//104 128//128 117//117
f 104//104 117//117 129//129
f 104//104 129//129 105//105
f 105//105 129//129 119//119
f 105//105 125//125 106//106
f 106//106 125//125 130//130
f 106//106 130//130 107//107
f 107//107 130//130 131//131
f 107//107 131//131 132//132
f 107//107 132//132 111//111
f 107//107 111//111 108//108
f 111//111 132//132 133//133
f 113//113 134//134 135//135
f 113//113 135//135 115//115
f 114//114 115//115 136//136
f 115//115 135//135 137//137
f 115//115 137//137 136//136
f 117//117 128//128 118//118
f 117//117 119//119 129//129
f 122//122 136//136 138//138
f 122//122 138//138 123//123
f 123//123 138//138 139//139
f 123//123 139//139 125//125
f 123//123 125//125 124//124
f 125//125 139//139 140//140
f 125//125 140//140 141//141
f 125//125 141//141 130//130
f 126//126 142//142 127//127
f 127//127 142//142 128//128
f 130//130 143//143 131//131
f 130//130 141//141 143//143
f 131//131 144//144 145//145
f 131//131 145//145 132//132
f 131//131 143//143 144//144
f 132//132 145//145 133//133
f 134//134 146//146 135//135
f 134//134 147//147 148//148
f 134//134 148//148 146//146
f 135//135 146//146 149//149
f 135//135 149//149 137//137
f 136//136 137//137 138//138
f 137//137 149//149 138//138
f 138//138 149//149 140//140
f 138//138 140//140 139//139
f 140//140 148//148 141//141
f 140//140 149//149 148//148
f 141//141 148//148 147//147
f 141//141 147//147 150//150
f 141//141 150//150 143//143
f 146//146 148//148 149//149
