# Created by Open3D 
# object name: part_031
# number of vertices: 231
# number of triangles: 458
v -0.0711199 0.0180488 0.0140976
vn -0.106081 -0.771571 -0.627236
v -0.0667934 0.0312356 0.0145626
vn -0.932898 0.3043 0.192619
v -0.0668804 0.0312356 0.0140976
vn -0.947125 0.307517 0.0915815
v -0.060695 0.0180488 0.0140976
vn 0.461528 -0.724634 -0.511759
v -0.0691586 0.0180488 0.0233221
vn -0.946656 0.251177 0.201874
v -0.0692301 0.0185367 0.0223714
vn -0.945981 0.254292 0.201135
v -0.0691142 0.0194357 0.0217778
vn -0.933826 0.298835 0.196636
v -0.0650466 0.034397 0.0177218
vn -0.921106 0.343781 0.182697
v -0.066206 0.0329065 0.0145667
vn -0.926609 0.327679 0.184449
v -0.0663046 0.0328798 0.0140976
vn -0.911202 0.343419 -0.227539
v -0.0644399 0.0306809 0.0266765
vn -0.92435 0.30379 0.230843
v -0.0649249 0.0328163 0.0208852
vn -0.927753 0.31824 0.194929
v -0.0513811 0.0306207 0.0140976
vn 0.939913 -0.0815754 -0.331526
v -0.0513811 0.0180488 0.031899
vn 0.533505 -0.837643 -0.117163
v -0.0691374 0.0180488 0.0234134
vn -0.935689 0.249655 0.249317
v -0.0645326 0.0355098 0.0177218
vn -0.866763 0.477374 0.144346
v -0.0659355 0.033762 0.0140976
vn -0.853073 0.423903 -0.304257
v -0.0660012 0.0336183 0.0140976
vn -0.882261 0.374457 -0.2853
v -0.0658794 0.0334947 0.0150981
vn -0.913094 0.375081 0.159914
v -0.0646833 0.0344705 0.0193243
vn -0.921364 0.334661 0.197713
v -0.0644302 0.0353293 0.0188095
vn -0.84615 0.489507 0.210742
v -0.066662 0.0185835 0.0319571
vn -0.923969 0.281074 0.259381
v -0.0646099 0.0296382 0.0272079
vn -0.914722 0.290592 0.280784
v -0.0651722 0.0217449 0.0335388
vn -0.906277 0.295387 0.302339
v -0.0644495 0.0227875 0.0345144
vn -0.844087 0.331946 0.421105
v -0.0640399 0.0296382 0.0287896
vn -0.882509 0.331919 0.333179
v -0.0634292 0.0296549 0.0303754
vn -0.871489 0.346749 0.346803
v -0.0629384 0.0307911 0.0303754
vn -0.854392 0.392063 0.34103
v -0.0639916 0.0312189 0.0272079
vn -0.853252 0.41206 0.319637
v -0.063037 0.0343669 0.0255224
vn -0.85621 0.424121 0.295002
v -0.06375 0.0328163 0.0256303
vn -0.864973 0.416734 0.279559
v -0.0634988 0.034397 0.0240486
vn -0.869772 0.425917 0.249182
v -0.0642659 0.0333744 0.0229485
vn -0.884887 0.396714 0.244118
v -0.0643973 0.0337186 0.021894
vn -0.899107 0.378456 0.219948
v -0.0513811 0.0521854 0.0140976
vn 0.227581 0.0643338 -0.971632
v -0.0513811 0.0180488 0.0565087
vn 0.557365 -0.830268 0.000210024
v -0.066807 0.0180488 0.0319571
vn -0.667171 -0.720761 0.188111
v -0.0629384 0.0386143 0.0161401
vn -0.823906 0.535485 0.185564
v -0.0630872 0.0388583 0.0145626
vn -0.848629 0.510614 0.138209
v -0.063835 0.0375583 0.0145626
vn -0.865369 0.487397 0.116534
v -0.0646466 0.035727 0.0161401
vn -0.875094 0.470096 0.11498
v -0.0649944 0.0355365 0.0140976
vn -0.568908 0.307106 -0.762908
v -0.0639742 0.0343067 0.022442
vn -0.875214 0.424904 0.231208
v -0.0629326 0.0354463 0.0240486
vn -0.829095 0.504775 0.240424
v -0.0630718 0.0359977 0.0223133
vn -0.828976 0.511795 0.225531
v -0.0627626 0.0367663 0.0216781
vn -0.815271 0.53209 0.228503
v -0.0628727 0.0369267 0.0208852
vn -0.805887 0.552658 0.212406
v -0.0662872 0.0180488 0.0335222
vn -0.926439 -0.109137 0.360278
v -0.0660166 0.0196195 0.0329701
vn -0.910191 0.273172 0.311335
v -0.0646408 0.0217449 0.0348341
vn -0.863821 0.264129 0.429009
v -0.0611472 0.0180488 0.0437555
vn -0.876592 -0.0632809 0.477055
v -0.059611 0.024151 0.0422527
vn -0.823632 0.32466 0.465001
v -0.0593945 0.0252036 0.0418707
vn -0.82034 0.341402 0.458789
v -0.0612554 0.030614 0.0344729
vn -0.81571 0.364941 0.448814
v -0.0629326 0.0296549 0.0315461
vn -0.858675 0.351086 0.373383
v -0.0627665 0.0304536 0.0311766
vn -0.852559 0.374114 0.364942
v -0.0612496 0.0321513 0.0328995
vn -0.813556 0.446202 0.372867
v -0.0632611 0.0313492 0.0288933
vn -0.843639 0.417477 0.337619
v -0.0631819 0.0328497 0.0272162
vn -0.842661 0.427162 0.327803
v -0.0627935 0.0352358 0.0249204
vn -0.810916 0.499525 0.30478
v -0.0628824 0.0338155 0.0266931
vn -0.829604 0.451327 0.328726
v -0.0561811 0.0476005 0.0140976
vn -0.389437 0.403733 -0.827852
v -0.0513811 0.0510492 0.020906
vn 0.950861 0.304005 0.0586865
v -0.0513811 0.0185835 0.0562762
vn 0.999999 0.000615359 0.00141416
v -0.0514333 0.0185835 0.0562306
vn -0.661265 0.316618 0.68006
v -0.0515608 0.0180488 0.0563468
vn -0.0423983 -0.998168 0.043164
v -0.0623993 0.0394063 0.0161401
vn -0.805919 0.554694 0.206904
v -0.0611684 0.041495 0.0152766
vn -0.762259 0.618966 0.18932
v -0.0625674 0.0396503 0.0145626
vn -0.818253 0.55533 0.148564
v -0.0625964 0.0396904 0.0140976
vn -0.116161 0.0792125 -0.990067
v -0.0629636 0.039129 0.0140976
vn -0.0845335 0.0548611 -0.994909
v -0.0631104 0.0388984 0.0140976
vn -0.111764 0.0652983 -0.991587
v -0.0639007 0.0375249 0.0140976
vn -0.174009 0.098237 -0.979832
v -0.0611916 0.0383603 0.0232847
vn -0.780844 0.576062 0.241735
v -0.0626003 0.0365391 0.0227326
vn -0.802583 0.543797 0.245245
v -0.061609 0.0405459 0.0161401
vn -0.796722 0.563951 0.21724
v -0.0659374 0.0180488 0.0343483
vn -0.767398 -0.545465 0.336998
v -0.0656746 0.0180488 0.0349171
vn -0.701642 -0.630648 0.331635
v -0.0655568 0.0180488 0.0351537
vn -0.651013 -0.685676 0.325624
v -0.0647838 0.0180488 0.036698
vn -0.646026 -0.690689 0.324959
v -0.0644437 0.0180488 0.0373664
vn -0.634458 -0.702064 0.323372
v -0.0643606 0.0180488 0.0375283
vn -0.623782 -0.712254 0.321853
v -0.0609636 0.0180488 0.0440627
vn -0.841492 -0.147095 0.519859
v -0.0595066 0.0222963 0.0436559
vn -0.79542 0.327484 0.509962
v -0.059294 0.0233289 0.0433154
vn -0.792236 0.338408 0.507782
v -0.0588129 0.0248862 0.0430082
vn -0.787016 0.35508 0.504504
v -0.0582989 0.0264902 0.0426429
vn -0.777506 0.377035 0.503318
v -0.0591124 0.0264602 0.041385
vn -0.790292 0.381657 0.47935
v -0.059468 0.0269681 0.0403804
vn -0.806568 0.361806 0.467487
v -0.0609868 0.03167 0.0339539
vn -0.789424 0.444125 0.423748
v -0.0614428 0.0311788 0.0334724
vn -0.847116 0.381662 0.369768
v -0.0565849 0.0323217 0.0408702
vn -0.781756 0.385047 0.490506
v -0.0566332 0.0340093 0.0393965
vn -0.789003 0.39386 0.471538
v -0.0563608 0.035062 0.0389564
vn -0.736861 0.473308 0.482718
v -0.0566641 0.0355031 0.037902
vn -0.779326 0.481579 0.400916
v -0.0611935 0.033625 0.0311932
vn -0.790489 0.496276 0.358939
v -0.0629462 0.0323484 0.0284325
vn -0.840983 0.422602 0.33787
v -0.0612032 0.0367997 0.0264731
vn -0.790487 0.527046 0.312014
v -0.0566506 0.0471025 0.0140976
vn -0.724622 0.657259 -0.207203
v -0.0513811 0.0506148 0.0224669
vn -0.451045 0.830677 0.326396
v -0.0513811 0.0186403 0.0562513
vn 0.99982 0.00854677 0.0169471
v -0.0519415 0.0198367 0.0551387
vn -0.665796 0.336966 0.66571
v -0.052241 0.0185835 0.0554377
vn -0.673798 0.308967 0.671219
v -0.052357 0.0180488 0.0555497
vn -0.0240115 -0.999426 0.0238919
v -0.0568535 0.0467416 0.0145626
vn -0.741262 0.642434 0.194443
v -0.0568728 0.0468486 0.0140976
vn -0.16029 0.135104 -0.97778
v -0.0612515 0.0415986 0.0142221
vn -0.776354 0.619772 0.114702
v -0.0617017 0.0408667 0.0146747
vn -0.812836 0.569988 0.120049
v -0.0610409 0.0413346 0.0161401
vn -0.762562 0.604701 0.229861
v -0.0577076 0.0442754 0.0193035
vn -0.754338 0.616323 0.226097
v -0.0569173 0.0452211 0.0193035
vn -0.743061 0.634997 0.21128
v -0.0613269 0.0415117 0.0140976
vn -0.0188638 0.0131919 -0.999735
v -0.0597713 0.0385876 0.0268342
vn -0.769404 0.574079 0.28009
v -0.0581057 0.0416253 0.0250616
vn -0.75217 0.602028 0.267959
v -0.0582641 0.0418225 0.0240486
vn -0.765444 0.600118 0.232279
v -0.0605539 0.0180488 0.0447062
vn -0.152761 -0.983437 0.0975433
v -0.0595955 0.0193621 0.045387
vn -0.793321 0.324817 0.514913
v -0.056583 0.021277 0.0487746
vn -0.780887 0.329046 0.530984
v -0.0584535 0.0232821 0.0446356
vn -0.788165 0.334004 0.51695
v -0.0582332 0.0245687 0.0441291
vn -0.780213 0.349284 0.518911
v -0.057982 0.0256214 0.0437597
vn -0.764376 0.381097 0.520091
v -0.054813 0.0319441 0.0437513
vn -0.754127 0.387985 0.529868
v -0.0563047 0.0333744 0.040451
vn -0.747413 0.421429 0.513587
v -0.0545618 0.0328163 0.0433902
vn -0.736765 0.432951 0.519357
v -0.0537347 0.0327728 0.0445982
vn -0.724408 0.447344 0.524515
v -0.0534507 0.0338121 0.0440669
vn -0.648513 0.5561 0.519793
v -0.0548361 0.0367463 0.0390436
vn -0.638625 0.587907 0.496511
v -0.0557869 0.0361247 0.0384749
vn -0.667779 0.58035 0.466117
v -0.056268 0.0365558 0.0372294
vn -0.675846 0.586846 0.445919
v -0.0565849 0.0369601 0.036175
vn -0.74441 0.556453 0.369071
v -0.0569443 0.0360077 0.036698
vn -0.776782 0.498457 0.384902
v -0.059553 0.0382735 0.0278887
vn -0.765571 0.535679 0.3563
v -0.0610834 0.0350286 0.0293666
vn -0.773454 0.525222 0.354839
v -0.0576245 0.0426145 0.0240486
vn -0.747951 0.621153 0.233961
v -0.0566216 0.0432929 0.0252318
vn -0.720349 0.624526 0.301769
v -0.054869 0.0446897 0.0264523
vn -0.711138 0.626528 0.318976
v -0.0548516 0.043089 0.0295783
vn -0.702293 0.628173 0.334937
v -0.051814 0.0479781 0.0266225
vn -0.673884 0.64324 0.363485
v -0.0513811 0.0499097 0.023812
vn 0.999792 0.0180515 0.00953541
v -0.0513811 0.0201174 0.0555041
vn 0.999844 0.00802776 0.0157613
v -0.0513811 0.0206454 0.0552301
vn 0.999674 0.0119579 0.0225631
v -0.0516555 0.0208927 0.0548481
vn -0.654372 0.383681 0.651603
v -0.052583 0.020348 0.0541964
vn -0.672549 0.354717 0.649503
v -0.0534912 0.0198066 0.0535404
vn -0.702397 0.323679 0.633932
v -0.0530313 0.0185835 0.0546281
vn -0.688646 0.315085 0.65306
v -0.0531473 0.0180488 0.0547485
vn -0.0699475 -0.995455 0.0646241
v -0.0528207 0.0180488 0.0550806
vn -0.0244025 -0.999412 0.0240704
v -0.0612573 0.0416053 0.0140976
vn -0.0127254 0.0106203 -0.999863
v -0.059182 0.0391256 0.0273033
vn -0.756989 0.568615 0.321939
v -0.0583221 0.0402953 0.027212
vn -0.749424 0.591403 0.297667
v -0.0578912 0.0413613 0.026116
vn -0.725268 0.615367 0.308722
v -0.0600225 0.0180488 0.0455365
vn -0.147741 -0.98445 0.0950281
v -0.05981 0.0183095 0.0457025
vn -0.790712 0.317386 0.523488
v -0.0595646 0.0180488 0.0462132
vn -0.334742 -0.913481 0.2313
v -0.0564091 0.019302 0.0500989
vn -0.785426 0.295139 0.544058
v -0.056239 0.0201642 0.0498747
vn -0.77109 0.306812 0.55793
v -0.0549791 0.0196495 0.051884
vn -0.74946 0.317164 0.581134
v -0.0551144 0.0217449 0.0504767
vn -0.752933 0.335199 0.566333
v -0.0559511 0.0217816 0.0493226
vn -0.757249 0.353886 0.548943
v -0.0552516 0.0232286 0.0493309
vn -0.758004 0.366224 0.539731
v -0.0563356 0.022333 0.0484093
vn -0.762079 0.364552 0.535105
v -0.056755 0.0247659 0.0461426
vn -0.764788 0.365843 0.530338
v -0.0576728 0.0250198 0.0446356
vn -0.76685 0.364843 0.528045
v -0.0598506 0.0180488 0.045798
vn -0.374938 -0.891562 0.254044
v -0.0565694 0.0259321 0.0455821
vn -0.7596 0.380935 0.527159
v -0.0533792 0.0322181 0.0455199
vn -0.681359 0.416872 0.601638
v -0.0561965 0.0252003 0.0466366
vn -0.75389 0.380535 0.535577
v -0.0550352 0.0244584 0.0487912
vn -0.745056 0.38512 0.544587
v -0.0530178 0.0332708 0.0451213
vn -0.621003 0.516589 0.589484
v -0.0524439 0.0343502 0.0445567
vn -0.567552 0.618166 0.543833
v -0.0533521 0.0368499 0.0407457
vn -0.586789 0.615026 0.526709
v -0.0537135 0.0371941 0.0398614
vn -0.602204 0.632959 0.486532
v -0.0532226 0.0383069 0.0390104
vn -0.570951 0.673115 0.470033
v -0.0542294 0.0377221 0.0384998
vn -0.60985 0.646846 0.4579
v -0.0546777 0.0381899 0.0372377
vn -0.618941 0.64116 0.45368
v -0.0552129 0.0371339 0.0379891
vn -0.638759 0.627054 0.445859
v -0.0556593 0.037575 0.0367064
vn -0.652725 0.62086 0.434147
v -0.0547492 0.0413981 0.0325881
vn -0.627222 0.645652 0.435575
v -0.0550448 0.0417322 0.0315337
vn -0.704321 0.605549 0.370462
v -0.0581134 0.0400379 0.028171
vn -0.730869 0.583073 0.354763
v -0.0576496 0.0410839 0.027212
vn -0.717042 0.618715 0.321002
v -0.0553308 0.0420698 0.0303754
vn -0.71607 0.604641 0.348787
v -0.0513811 0.0482388 0.026855
vn 0.625652 0.645712 0.43774
v -0.0513811 0.048867 0.0257756
vn 0.999792 0.0178569 0.00980515
v -0.0513811 0.0211099 0.0549644
vn 0.999959 0.00462982 0.00783852
v -0.0513811 0.0217348 0.0545866
vn 0.999717 0.0126442 0.0201504
v -0.0518565 0.0227942 0.0534699
vn -0.646306 0.407843 0.644944
v -0.0521753 0.0217449 0.0537978
vn -0.656109 0.396216 0.642288
v -0.0529656 0.0217449 0.0529842
vn -0.660895 0.393342 0.63914
v -0.0532246 0.0208626 0.0532498
vn -0.691582 0.364367 0.62366
v -0.0537424 0.0185835 0.0538394
vn -0.718299 0.291275 0.631827
v -0.0541115 0.0202544 0.0525649
vn -0.713569 0.346546 0.608872
v -0.0545347 0.0185835 0.0529219
vn -0.728267 0.289532 0.621126
v -0.0538584 0.0180488 0.0539307
vn -0.0485434 -0.99794 0.041947
v -0.056639 0.0180488 0.0504352
vn -0.0264719 -0.999472 0.0188191
v -0.0566042 0.018246 0.0503895
vn -0.785977 0.290644 0.545679
v -0.0560535 0.0186971 0.050925
vn -0.771793 0.291285 0.565233
v -0.0551878 0.0185835 0.0521331
vn -0.757596 0.274073 0.592396
v -0.0547337 0.0207055 0.0515727
vn -0.719379 0.351625 0.599045
v -0.0549076 0.0226338 0.050211
vn -0.710536 0.391313 0.584819
v -0.0560999 0.0233289 0.0480647
vn -0.7597 0.368328 0.535902
v -0.0534139 0.0227775 0.0518757
vn -0.690655 0.3992 0.603022
v -0.0530912 0.0238301 0.0515187
vn -0.654476 0.424239 0.625845
v -0.0520381 0.0246121 0.0520708
vn -0.645092 0.429822 0.631751
v -0.0515067 0.0238469 0.0531253
vn -0.62282 0.444349 0.643933
v -0.0517966 0.0321646 0.0470725
vn -0.610197 0.453794 0.649407
v -0.0524072 0.032716 0.0461011
vn -0.602953 0.470614 0.644182
v -0.0513811 0.0332039 0.0466698
vn 0.996791 0.0495185 0.0628935
v -0.0519628 0.0338322 0.045632
vn -0.553787 0.605961 0.571079
v -0.0513811 0.0376084 0.0418998
vn 0.998282 0.0440844 0.0386083
v -0.0513811 0.037829 0.0416466
vn 0.901882 0.327015 0.282258
v -0.0513811 0.0384639 0.0408869
vn 0.999781 0.016818 0.0124234
v -0.0517077 0.0383603 0.0406668
vn -0.548436 0.683599 0.48157
v -0.0528536 0.0379827 0.0398614
vn -0.571855 0.648772 0.502073
v -0.0513811 0.0477107 0.0276147
vn 0.995941 0.0738644 0.0514404
v -0.0534874 0.0432795 0.0314548
vn -0.578495 0.672716 0.461298
v -0.0536961 0.0418726 0.0332357
vn -0.583531 0.668821 0.46062
v -0.0513811 0.0237366 0.0533163
vn 0.999837 0.00969187 0.015211
v -0.0524748 0.0233122 0.0525026
vn -0.649334 0.420262 0.633834
v -0.0536825 0.0217449 0.0521912
vn -0.706005 0.365491 0.606608
v -0.0544729 0.0217449 0.0512655
vn -0.710162 0.36247 0.603561
v -0.0546294 0.0180488 0.053034
vn -0.0492766 -0.997932 0.041262
v -0.056125 0.0180488 0.0511326
vn -0.0901745 -0.993649 0.0673016
v -0.0555453 0.0180488 0.0519048
vn -0.0406124 -0.998692 0.0310508
v -0.0552458 0.0180488 0.0522826
vn -0.0357992 -0.998937 0.0290381
v -0.0513811 0.0239304 0.0531834
vn 0.999744 0.0129255 0.0185849
v -0.0513811 0.0284719 0.0500242
vn 0.999889 0.00853285 0.0121982
v -0.0513811 0.0323518 0.0472925
vn 0.999888 0.00864324 0.012193
v -0.0513811 0.0340828 0.045881
vn 0.999723 0.0165229 0.0167567
v -0.0513811 0.034808 0.0450881
vn 0.999698 0.0181444 0.0165911
v -0.0513811 0.0348648 0.0450258
vn 0.999687 0.0188114 0.0165229
f 1//1 2//2 3//3
f 1//1 3//3 10//10
f 1//1 10//10 18//18
f 1//1 18//18 17//17
f 1//1 17//17 42//42
f 1//1 42//42 73//73
f 1//1 73//73 72//72
f 1//1 72//72 71//71
f 1//1 71//71 70//70
f 1//1 70//70 112//112
f 1//1 112//112 148//148
f 1//1 148//148 106//106
f 1//1 106//106 99//99
f 1//1 99//99 62//62
f 1//1 62//62 35//35
f 1//1 35//35 13//13
f 1//1 13//13 4//4
f 1//1 4//4 14//14
f 1//1 14//14 36//36
f 1//1 36//36 66//66
f 1//1 66//66 104//104
f 1//1 104//104 147//147
f 1//1 147//147 146//146
f 1//1 146//146 194//194
f 1//1 194//194 222//222
f 1//1 222//222 225//225
f 1//1 225//225 224//224
f 1//1 224//224 223//223
f 1//1 223//223 195//195
f 1//1 195//195 154//154
f 1//1 154//154 164//164
f 1//1 164//164 152//152
f 1//1 152//152 116//116
f 1//1 116//116 83//83
f 1//1 83//83 51//51
f 1//1 51//51 82//82
f 1//1 82//82 81//81
f 1//1 81//81 80//80
f 1//1 80//80 79//79
f 1//1 79//79 78//78
f 1//1 78//78 77//77
f 1//1 77//77 48//48
f 1//1 48//48 37//37
f 1//1 37//37 15//15
f 1//1 15//15 5//5
f 1//1 5//5 6//6
f 1//1 6//6 7//7
f 1//1 7//7 2//2
f 2//2 8//8 9//9
f 2//2 9//9 10//10
f 2//2 10//10 3//3
f 2//2 7//7 11//11
f 2//2 11//11 12//12
f 2//2 12//12 8//8
f 4//4 13//13 14//14
f 5//5 15//15 7//7
f 5//5 7//7 6//6
f 7//7 15//15 11//11
f 8//8 16//16 17//17
f 8//8 17//17 18//18
f 8//8 18//18 19//19
f 8//8 19//19 10//10
f 8//8 10//10 9//9
f 8//8 12//12 20//20
f 8//8 20//20 21//21
f 8//8 21//21 16//16
f 10//10 19//19 18//18
f 11//11 15//15 22//22
f 11//11 22//22 23//23
f 11//11 23//23 24//24
f 11//11 24//24 25//25
f 11//11 25//25 26//26
f 11//11 26//26 27//27
f 11//11 27//27 28//28
f 11//11 28//28 29//29
f 11//11 29//29 30//30
f 11//11 30//30 31//31
f 11//11 31//31 32//32
f 11//11 32//32 33//33
f 11//11 33//33 34//34
f 11//11 34//34 20//20
f 11//11 20//20 12//12
f 13//13 35//35 63//63
f 13//13 63//63 100//100
f 13//13 100//100 139//139
f 13//13 139//139 184//184
f 13//13 184//184 183//183
f 13//13 183//183 215//215
f 13//13 215//215 212//212
f 13//13 212//212 211//211
f 13//13 211//211 210//210
f 13//13 210//210 231//231
f 13//13 231//231 230//230
f 13//13 230//230 229//229
f 13//13 229//229 208//208
f 13//13 208//208 228//228
f 13//13 228//228 227//227
f 13//13 227//227 226//226
f 13//13 226//226 218//218
f 13//13 218//218 186//186
f 13//13 186//186 185//185
f 13//13 185//185 141//141
f 13//13 141//141 140//140
f 13//13 140//140 101//101
f 13//13 101//101 64//64
f 13//13 64//64 36//36
f 13//13 36//36 14//14
f 15//15 37//37 22//22
f 16//16 38//38 39//39
f 16//16 39//39 40//40
f 16//16 40//40 41//41
f 16//16 41//41 17//17
f 16//16 21//21 38//38
f 17//17 41//41 42//42
f 20//20 34//34 21//21
f 21//21 34//34 43//43
f 21//21 43//43 32//32
f 21//21 32//32 44//44
f 21//21 44//44 45//45
f 21//21 45//45 46//46
f 21//21 46//46 47//47
f 21//21 47//47 38//38
f 22//22 37//37 48//48
f 22//22 48//48 49//49
f 22//22 49//49 24//24
f 22//22 24//24 23//23
f 24//24 49//49 48//48
f 24//24 48//48 50//50
f 24//24 50//50 25//25
f 25//25 50//50 51//51
f 25//25 51//51 52//52
f 25//25 52//52 53//53
f 25//25 53//53 54//54
f 25//25 54//54 55//55
f 25//25 55//55 27//27
f 25//25 27//27 26//26
f 27//27 55//55 56//56
f 27//27 56//56 28//28
f 28//28 56//56 57//57
f 28//28 57//57 58//58
f 28//28 58//58 29//29
f 29//29 58//58 59//59
f 29//29 59//59 30//30
f 30//30 60//60 32//32
f 30//30 32//32 31//31
f 30//30 59//59 61//61
f 30//30 61//61 60//60
f 32//32 43//43 34//34
f 32//32 34//34 33//33
f 32//32 60//60 44//44
f 35//35 62//62 63//63
f 36//36 64//64 65//65
f 36//36 65//65 66//66
f 38//38 67//67 68//68
f 38//38 68//68 69//69
f 38//38 69//69 39//39
f 38//38 47//47 67//67
f 39//39 69//69 70//70
f 39//39 70//70 71//71
f 39//39 71//71 72//72
f 39//39 72//72 73//73
f 39//39 73//73 40//40
f 40//40 73//73 42//42
f 40//40 42//42 41//41
f 44//44 60//60 74//74
f 44//44 74//74 75//75
f 44//44 75//75 46//46
f 44//44 46//46 45//45
f 46//46 75//75 74//74
f 46//46 74//74 47//47
f 47//47 74//74 76//76
f 47//47 76//76 67//67
f 48//48 77//77 50//50
f 50//50 77//77 78//78
f 50//50 78//78 79//79
f 50//50 79//79 80//80
f 50//50 80//80 81//81
f 50//50 81//81 82//82
f 50//50 82//82 51//51
f 51//51 83//83 52//52
f 52//52 83//83 84//84
f 52//52 84//84 85//85
f 52//52 85//85 86//86
f 52//52 86//86 53//53
f 53//53 86//86 87//87
f 53//53 87//87 88//88
f 53//53 88//88 89//89
f 53//53 89//89 54//54
f 54//54 90//90 57//57
f 54//54 57//57 91//91
f 54//54 91//91 56//56
f 54//54 56//56 55//55
f 54//54 89//89 88//88
f 54//54 88//88 92//92
f 54//54 92//92 93//93
f 54//54 93//93 94//94
f 54//54 94//94 90//90
f 56//56 91//91 57//57
f 57//57 90//90 95//95
f 57//57 95//95 96//96
f 57//57 96//96 97//97
f 57//57 97//97 58//58
f 58//58 97//97 59//59
f 59//59 97//97 96//96
f 59//59 96//96 61//61
f 60//60 98//98 74//74
f 60//60 61//61 96//96
f 60//60 96//96 98//98
f 62//62 99//99 63//63
f 63//63 99//99 100//100
f 64//64 101//101 65//65
f 65//65 101//101 102//102
f 65//65 102//102 103//103
f 65//65 103//103 66//66
f 66//66 103//103 104//104
f 67//67 76//76 68//68
f 68//68 105//105 106//106
f 68//68 106//106 107//107
f 68//68 107//107 108//108
f 68//68 108//108 69//69
f 68//68 76//76 74//74
f 68//68 74//74 109//109
f 68//68 109//109 110//110
f 68//68 110//110 111//111
f 68//68 111//111 105//105
f 69//69 108//108 107//107
f 69//69 107//107 70//70
f 70//70 107//107 112//112
f 74//74 98//98 113//113
f 74//74 113//113 114//114
f 74//74 114//114 115//115
f 74//74 115//115 109//109
f 83//83 116//116 117//117
f 83//83 117//117 84//84
f 84//84 117//117 118//118
f 84//84 118//118 119//119
f 84//84 119//119 85//85
f 85//85 119//119 120//120
f 85//85 120//120 86//86
f 86//86 120//120 121//121
f 86//86 121//121 87//87
f 87//87 121//121 92//92
f 87//87 92//92 88//88
f 90//90 94//94 95//95
f 92//92 121//121 122//122
f 92//92 122//122 123//123
f 92//92 123//123 93//93
f 93//93 123//123 94//94
f 94//94 123//123 124//124
f 94//94 124//124 125//125
f 94//94 125//125 126//126
f 94//94 126//126 127//127
f 94//94 127//127 128//128
f 94//94 128//128 129//129
f 94//94 129//129 95//95
f 95//95 129//129 130//130
f 95//95 130//130 131//131
f 95//95 131//131 96//96
f 96//96 131//131 130//130
f 96//96 130//130 132//132
f 96//96 132//132 133//133
f 96//96 133//133 98//98
f 98//98 133//133 132//132
f 98//98 132//132 113//113
f 99//99 106//106 105//105
f 99//99 105//105 100//100
f 100//100 111//111 134//134
f 100//100 134//134 114//114
f 100//100 114//114 135//135
f 100//100 135//135 136//136
f 100//100 136//136 137//137
f 100//100 137//137 138//138
f 100//100 138//138 139//139
f 100//100 105//105 111//111
f 101//101 140//140 102//102
f 102//102 140//140 141//141
f 102//102 141//141 142//142
f 102//102 142//142 143//143
f 102//102 143//143 144//144
f 102//102 144//144 145//145
f 102//102 145//145 103//103
f 103//103 145//145 146//146
f 103//103 146//146 147//147
f 103//103 147//147 104//104
f 106//106 148//148 107//107
f 107//107 148//148 112//112
f 109//109 115//115 134//134
f 109//109 134//134 110//110
f 110//110 134//134 111//111
f 113//113 132//132 149//149
f 113//113 149//149 150//150
f 113//113 150//150 114//114
f 114//114 150//150 151//151
f 114//114 151//151 135//135
f 114//114 134//134 115//115
f 116//116 152//152 117//117
f 117//117 152//152 153//153
f 117//117 153//153 118//118
f 118//118 154//154 155//155
f 118//118 155//155 156//156
f 118//118 156//156 157//157
f 118//118 157//157 158//158
f 118//118 158//158 159//159
f 118//118 159//159 160//160
f 118//118 160//160 161//161
f 118//118 161//161 162//162
f 118//118 162//162 163//163
f 118//118 163//163 120//120
f 118//118 120//120 119//119
f 118//118 153//153 164//164
f 118//118 164//164 154//154
f 120//120 163//163 121//121
f 121//121 163//163 165//165
f 121//121 165//165 122//122
f 122//122 166//166 125//125
f 122//122 125//125 124//124
f 122//122 124//124 123//123
f 122//122 165//165 167//167
f 122//122 167//167 168//168
f 122//122 168//168 166//166
f 125//125 166//166 169//169
f 125//125 169//169 126//126
f 126//126 169//169 170//170
f 126//126 170//170 171//171
f 126//126 171//171 127//127
f 127//127 171//171 172//172
f 127//127 172//172 173//173
f 127//127 173//173 174//174
f 127//127 174//174 175//175
f 127//127 175//175 176//176
f 127//127 176//176 129//129
f 127//127 129//129 128//128
f 129//129 176//176 177//177
f 129//129 177//177 130//130
f 130//130 177//177 178//178
f 130//130 178//178 179//179
f 130//130 179//179 180//180
f 130//130 180//180 132//132
f 132//132 180//180 149//149
f 135//135 151//151 181//181
f 135//135 181//181 136//136
f 136//136 181//181 137//137
f 137//137 181//181 180//180
f 137//137 180//180 182//182
f 137//137 182//182 179//179
f 137//137 179//179 138//138
f 138//138 183//183 184//184
f 138//138 184//184 139//139
f 138//138 179//179 178//178
f 138//138 178//178 183//183
f 141//141 185//185 142//142
f 142//142 185//185 186//186
f 142//142 186//186 187//187
f 142//142 187//187 188//188
f 142//142 188//188 189//189
f 142//142 189//189 190//190
f 142//142 190//190 143//143
f 143//143 190//190 144//144
f 144//144 191//191 145//145
f 144//144 190//190 192//192
f 144//144 192//192 157//157
f 144//144 157//157 193//193
f 144//144 193//193 191//191
f 145//145 191//191 146//146
f 146//146 191//191 194//194
f 149//149 180//180 150//150
f 150//150 180//180 181//181
f 150//150 181//181 151//151
f 152//152 164//164 153//153
f 154//154 195//195 196//196
f 154//154 196//196 155//155
f 155//155 196//196 197//197
f 155//155 197//197 156//156
f 156//156 197//197 157//157
f 157//157 197//197 198//198
f 157//157 198//198 193//193
f 157//157 192//192 199//199
f 157//157 199//199 158//158
f 158//158 199//199 200//200
f 158//158 200//200 159//159
f 159//159 200//200 160//160
f 160//160 200//200 168//168
f 160//160 168//168 201//201
f 160//160 201//201 161//161
f 161//161 201//201 162//162
f 162//162 201//201 167//167
f 162//162 167//167 165//165
f 162//162 165//165 163//163
f 166//166 168//168 200//200
f 166//166 200//200 202//202
f 166//166 202//202 203//203
f 166//166 203//203 204//204
f 166//166 204//204 205//205
f 166//166 205//205 206//206
f 166//166 206//206 207//207
f 166//166 207//207 169//169
f 167//167 201//201 168//168
f 169//169 207//207 208//208
f 169//169 208//208 209//209
f 169//169 209//209 170//170
f 170//170 209//209 210//210
f 170//170 210//210 211//211
f 170//170 211//211 171//171
f 171//171 211//211 212//212
f 171//171 212//212 213//213
f 171//171 213//213 214//214
f 171//171 214//214 173//173
f 171//171 173//173 172//172
f 173//173 214//214 213//213
f 173//173 213//213 215//215
f 173//173 215//215 183//183
f 173//173 183//183 216//216
f 173//173 216//216 217//217
f 173//173 217//217 178//178
f 173//173 178//178 174//174
f 174//174 178//178 175//175
f 175//175 178//178 176//176
f 176//176 178//178 177//177
f 178//178 217//217 216//216
f 178//178 216//216 183//183
f 179//179 182//182 180//180
f 186//186 218//218 187//187
f 187//187 218//218 205//205
f 187//187 205//205 219//219
f 187//187 219//219 202//202
f 187//187 202//202 189//189
f 187//187 189//189 188//188
f 189//189 202//202 190//190
f 190//190 202//202 220//220
f 190//190 220//220 221//221
f 190//190 221//221 199//199
f 190//190 199//199 192//192
f 191//191 193//193 194//194
f 193//193 198//198 222//222
f 193//193 222//222 194//194
f 195//195 223//223 197//197
f 195//195 197//197 196//196
f 197//197 223//223 198//198
f 198//198 223//223 224//224
f 198//198 224//224 225//225
f 198//198 225//225 222//222
f 199//199 221//221 200//200
f 200//200 221//221 202//202
f 202//202 221//221 220//220
f 202//202 219//219 203//203
f 203//203 219//219 204//204
f 204//204 219//219 205//205
f 205//205 218//218 226//226
f 205//205 226//226 206//206
f 206//206 227//227 228//228
f 206//206 228//228 208//208
f 206//206 208//208 207//207
f 206//206 226//226 227//227
f 208//208 229//229 209//209
f 209//209 229//229 230//230
f 209//209 230//230 231//231
f 209//209 231//231 210//210
f 212//212 215//215 213//213
