# Created by Open3D 
# object name: part_035
# number of vertices: 57
# number of triangles: 110
v 0.0612192 0.0375919 0.0140976
vn -0.769495 0.0539129 0.636374
v 0.0635966 0.0345248 0.0140976
vn 0.793934 0.606006 0.0492543
v 0.0612192 0.0391206 -0.00439983
vn 0.805996 0.591509 0.0220521
v 0.0612192 0.0177088 0.0140976
vn -0.986103 -0.127732 0.106228
v 0.0640077 0.033964 0.0140976
vn 0.816708 0.574128 0.0580107
v 0.0651825 0.0333903 0.00190772
vn 0.806984 0.588856 0.0450013
v 0.0612192 0.0391174 -0.004418
vn 0.838387 0.525512 -0.14472
v 0.0670903 0.0306725 0.00190772
vn 0.820623 0.571385 0.00985982
v 0.0677867 0.0296502 0.00190772
vn 0.831588 0.554964 -0.0218208
v 0.0684099 0.0286951 0.00190772
vn 0.84416 0.531481 -0.0701534
v 0.0673916 0.0298008 -0.00135781
vn 0.847006 0.52243 -0.0982224
v 0.0652542 0.00637949 0.0140976
vn -0.608719 -0.665203 0.432397
v 0.0612192 0.0221315 -0.004418
vn -1 -0.000218613 -5.41568e-05
v 0.0612236 0.0221187 -0.00446707
vn -0.673957 -0.270326 -0.687535
v 0.0651752 0.032275 0.0140976
vn 0.823243 0.561246 0.0852835
v 0.068388 0.0286887 0.0034887
vn 0.82814 0.557319 0.0598254
v 0.0612192 0.0390854 -0.00446707
vn -0.950645 0.000895321 -0.31028
v 0.0673595 0.029506 -0.00283702
vn 0.862282 0.488094 -0.13503
v 0.0672015 0.029272 -0.00446707
vn 0.155689 0.0934968 -0.983371
v 0.0688868 0.0278971 0.0034887
vn 0.878434 0.47441 0.0573483
v 0.0688693 0.0279035 0.00190772
vn 0.87175 0.481335 -0.0914778
v 0.0680515 0.00637949 -0.00446707
vn -0.673953 -0.629219 -0.387132
v 0.0761024 0.00637949 0.0140976
vn 0.0534813 -0.490713 0.869678
v 0.0612192 0.0223078 -0.00446707
vn -1 -6.82402e-07 -0.000235796
v 0.0655087 0.0317622 0.0140976
vn 0.835072 0.538553 0.112322
v 0.0657911 0.0313199 0.0140976
vn 0.837249 0.534029 0.117589
v 0.0683338 0.0273331 0.0140976
vn 0.83877 0.532921 0.11162
v 0.0696345 0.026487 0.00190772
vn 0.881229 0.460806 -0.105327
v 0.0699578 0.0253941 0.000326748
vn 0.897729 0.418069 -0.138927
v 0.0678437 0.028067 -0.00446707
vn 0.534582 0.270439 -0.800678
v 0.0685299 0.0270158 0.0140976
vn 0.862346 0.466401 0.197053
v 0.0688122 0.0264485 0.0140976
vn 0.884656 0.400843 0.238138
v 0.0695774 0.026487 0.0034887
vn 0.899703 0.431943 0.0629332
v 0.0700573 0.0256313 0.00190772
vn 0.906477 0.421028 -0.0321759
v 0.0759181 0.00637949 -0.00446707
vn 0.0365864 -0.723807 -0.689032
v 0.0761639 0.0075685 0.0140976
vn 0.976511 0.0750972 0.201955
v 0.075921 0.00637949 -0.004418
vn 0.621673 -0.783198 -0.0111063
v 0.0687625 0.0261985 -0.00446707
vn 0.54204 0.245144 -0.803802
v 0.0749291 0.0148244 0.00190772
vn 0.907033 0.404845 -0.115721
v 0.0742239 0.0154205 -0.00125605
vn 0.905305 0.39594 -0.153801
v 0.0753446 0.0110458 0.0140976
vn 0.846956 0.358627 0.392495
v 0.0749818 0.0149718 0.00506786
vn 0.913352 0.396926 0.0907652
v 0.0750154 0.0150038 0.0034887
vn 0.914208 0.403748 -0.0348157
v 0.0759196 0.00637949 -0.00445435
vn 0.995067 0.0834843 -0.0535827
v 0.0756621 0.00751082 -0.00446707
vn 0.523792 0.125207 -0.842594
v 0.0752817 0.0138373 0.00190772
vn 0.9637 0.226007 -0.142134
v 0.0753665 0.0138373 0.0034887
vn 0.992725 0.119786 -0.0121955
v 0.0759956 0.00909403 0.0140976
vn 0.861609 0.173915 0.476847
v 0.0738889 0.0154205 -0.00283702
vn 0.897551 0.381131 -0.22168
v 0.0734646 0.0153275 -0.00446707
vn 0.163883 0.0704257 -0.983963
v 0.0748501 0.0146802 0.000962773
vn 0.931777 0.332827 -0.144974
v 0.0744288 0.0138373 -0.00283702
vn 0.952108 0.249638 -0.176555
v 0.0754821 0.0106965 0.0140976
vn 0.804416 0.280345 0.523758
v 0.075864 0.00955553 0.0140976
vn 0.784932 0.251539 0.566224
v 0.0745121 0.0122573 -0.00446707
vn 0.144735 0.036326 -0.988803
v 0.0740849 0.0138373 -0.004418
vn 0.935328 0.289254 -0.203699
v 0.0740718 0.0138437 -0.00446707
vn 0.0817179 0.032939 -0.996111
f 1//1 2//2 3//3
f 1//1 3//3 7//7
f 1//1 7//7 17//17
f 1//1 17//17 24//24
f 1//1 24//24 13//13
f 1//1 13//13 4//4
f 1//1 4//4 12//12
f 1//1 12//12 23//23
f 1//1 23//23 36//36
f 1//1 36//36 48//48
f 1//1 48//48 54//54
f 1//1 54//54 53//53
f 1//1 53//53 41//41
f 1//1 41//41 32//32
f 1//1 32//32 31//31
f 1//1 31//31 27//27
f 1//1 27//27 26//26
f 1//1 26//26 25//25
f 1//1 25//25 15//15
f 1//1 15//15 5//5
f 1//1 5//5 2//2
f 2//2 5//5 6//6
f 2//2 6//6 3//3
f 3//3 6//6 8//8
f 3//3 8//8 9//9
f 3//3 9//9 10//10
f 3//3 10//10 11//11
f 3//3 11//11 7//7
f 4//4 13//13 14//14
f 4//4 14//14 12//12
f 5//5 15//15 16//16
f 5//5 16//16 6//6
f 6//6 16//16 8//8
f 7//7 11//11 18//18
f 7//7 18//18 19//19
f 7//7 19//19 17//17
f 8//8 16//16 9//9
f 9//9 16//16 10//10
f 10//10 16//16 20//20
f 10//10 20//20 21//21
f 10//10 21//21 11//11
f 11//11 21//21 18//18
f 12//12 22//22 35//35
f 12//12 35//35 44//44
f 12//12 44//44 37//37
f 12//12 37//37 23//23
f 12//12 14//14 22//22
f 13//13 24//24 14//14
f 14//14 24//24 17//17
f 14//14 17//17 19//19
f 14//14 19//19 30//30
f 14//14 30//30 38//38
f 14//14 38//38 50//50
f 14//14 50//50 57//57
f 14//14 57//57 55//55
f 14//14 55//55 45//45
f 14//14 45//45 35//35
f 14//14 35//35 22//22
f 15//15 25//25 16//16
f 16//16 25//25 26//26
f 16//16 26//26 27//27
f 16//16 27//27 20//20
f 18//18 21//21 28//28
f 18//18 28//28 29//29
f 18//18 29//29 30//30
f 18//18 30//30 19//19
f 20//20 27//27 31//31
f 20//20 31//31 32//32
f 20//20 32//32 33//33
f 20//20 33//33 34//34
f 20//20 34//34 28//28
f 20//20 28//28 21//21
f 23//23 37//37 36//36
f 28//28 34//34 29//29
f 29//29 38//38 30//30
f 29//29 34//34 39//39
f 29//29 39//39 40//40
f 29//29 40//40 38//38
f 32//32 41//41 42//42
f 32//32 42//42 33//33
f 33//33 42//42 34//34
f 34//34 42//42 43//43
f 34//34 43//43 39//39
f 35//35 45//45 46//46
f 35//35 46//46 44//44
f 36//36 37//37 47//47
f 36//36 47//47 48//48
f 37//37 44//44 47//47
f 38//38 40//40 49//49
f 38//38 49//49 50//50
f 39//39 43//43 46//46
f 39//39 46//46 51//51
f 39//39 51//51 40//40
f 40//40 51//51 46//46
f 40//40 46//46 52//52
f 40//40 52//52 49//49
f 41//41 53//53 42//42
f 42//42 53//53 54//54
f 42//42 54//54 48//48
f 42//42 48//48 47//47
f 42//42 47//47 43//43
f 43//43 47//47 46//46
f 44//44 46//46 47//47
f 45//45 55//55 52//52
f 45//45 52//52 46//46
f 49//49 52//52 56//56
f 49//49 56//56 57//57
f 49//49 57//57 50//50
f 52//52 55//55 56//56
f 55//55 57//57 56//56
