# Created by Open3D 
# object name: part_042
# number of vertices: 281
# number of triangles: 558
v 0.0153092 -7.92906e-05 0.0802402
vn -0.915852 -0.401515 0.000326434
v 0.0158987 -7.92906e-05 0.0801523
vn 0.15607 0.0224252 0.987491
v 0.015967 -1.24024e-05 0.0801347
vn 0.187475 0.178573 0.965901
v 0.0153092 0.000939463 0.0800679
vn 0.155893 0.187885 0.969741
v 0.0153092 -7.92906e-05 0.061668
vn -0.589751 -0.653051 -0.475098
v 0.0161101 -7.92906e-05 0.0801136
vn 0.18474 -0.403821 0.895991
v 0.0170242 -7.92906e-05 0.0799202
vn 0.222399 0.127403 0.966596
v 0.0202513 0.00436103 0.078461
vn 0.211825 0.171613 0.962122
v 0.0192795 0.00490128 0.07857
vn 0.197524 0.182311 0.963196
v 0.0182245 0.00544667 0.0786685
vn 0.181952 0.185898 0.965575
v 0.0171203 0.00595605 0.078774
vn 0.172598 0.188496 0.966788
v 0.0155228 0.00593032 0.0790553
vn 0.161609 0.192275 0.967943
v 0.0153092 0.00593032 0.0790834
vn -0.0590709 0.195131 0.978997
v 0.0371256 -7.92906e-05 0.053159
vn 0.612986 -0.658801 -0.436153
v 0.0153092 0.0260533 0.0443195
vn -0.576888 -0.202941 -0.791211
v 0.0228141 -7.92906e-05 0.0785173
vn 0.222469 -0.32895 0.917769
v 0.0224745 0.000126518 0.0785771
vn 0.233976 0.116503 0.965237
v 0.0234313 0.00118643 0.0782149
vn 0.246952 0.131192 0.960106
v 0.0221649 0.00118643 0.0785173
vn 0.229952 0.13458 0.963852
v 0.021727 0.00266311 0.0784153
vn 0.228106 0.149997 0.962013
v 0.020766 0.00312618 0.0785524
vn 0.214627 0.160612 0.9634
v 0.0218488 0.00435074 0.0780918
vn 0.265296 0.229657 0.936416
v 0.0202683 0.00593032 0.078127
vn 0.248875 0.242714 0.93763
v 0.0187264 0.00595605 0.0784681
vn 0.205826 0.217955 0.954008
v 0.0176585 0.00650144 0.078563
vn 0.193116 0.218021 0.956647
v 0.0166056 0.00696451 0.0786614
vn 0.170722 0.207229 0.963281
v 0.0153092 0.00773115 0.0787142
vn 0.0452288 0.210734 0.976497
v 0.0371256 0.0171623 0.0443195
vn 0.179295 -0.177625 -0.967627
v 0.0371256 -7.92906e-05 0.0739147
vn 0.00684512 -0.999977 2.03877e-05
v 0.0153092 0.0493765 0.0443195
vn -0.984416 0.0366123 -0.172001
v 0.023363 -7.92906e-05 0.0783837
vn 0.266737 -0.0513962 0.962398
v 0.0281748 0.00134593 0.0769104
vn 0.263453 0.132578 0.955519
v 0.0234313 0.00277116 0.0779688
vn 0.256562 0.167746 0.95186
v 0.0281726 0.00277116 0.0766502
vn 0.279488 0.225721 0.93324
v 0.0281726 0.0106742 0.0746566
vn 0.278213 0.238204 0.930514
v 0.0264876 0.0105867 0.0751629
vn 0.266331 0.240708 0.933342
v 0.0254304 0.0110498 0.0753422
vn 0.262442 0.243545 0.933708
v 0.0186858 0.00751505 0.0780953
vn 0.213759 0.245043 0.945654
v 0.0243775 0.0116106 0.0754864
vn 0.258875 0.247138 0.933759
v 0.0202683 0.0122589 0.0764533
vn 0.253567 0.249428 0.934607
v 0.0186858 0.0138385 0.0764322
vn 0.220877 0.254952 0.941389
v 0.0171203 0.00749961 0.0784329
vn 0.197734 0.239931 0.950439
v 0.0159307 0.00801928 0.0785419
vn 0.177632 0.225763 0.957851
v 0.0153092 0.00905862 0.0784083
vn 0.0313805 0.24839 0.968152
v 0.0371256 0.0480748 0.0443195
vn 0.310951 0.000530019 -0.950426
v 0.0370636 -7.92906e-05 0.0739534
vn 0.142372 -0.937645 0.317099
v 0.0371256 6.99194e-05 0.0738936
vn 0.999995 0.000422434 0.00297842
v 0.0153092 0.0463048 0.0486302
vn -0.922418 0.309782 0.230609
v 0.0235189 0.051908 0.0443195
vn -0.0639343 0.207771 -0.976086
v 0.0288069 -7.92906e-05 0.0768295
vn 0.265047 -0.278708 0.923078
v 0.0297552 0.00118643 0.0764744
vn 0.293258 0.106897 0.950038
v 0.0273803 0.00197365 0.0770264
vn 0.263862 0.173614 0.948807
v 0.0297552 0.00277116 0.0761298
vn 0.320409 0.225144 0.920135
v 0.0297552 0.00909463 0.0745405
vn 0.305861 0.232948 0.923138
v 0.0297702 0.0106639 0.0741327
vn 0.30853 0.251724 0.917303
v 0.0292533 0.0117599 0.073978
vn 0.341097 0.325877 0.881735
v 0.0265922 0.0122589 0.0746988
vn 0.269672 0.26701 0.925194
v 0.0171053 0.00909463 0.0780215
vn 0.20129 0.249495 0.947225
v 0.0202683 0.0138385 0.0760208
vn 0.256469 0.261743 0.930438
v 0.0186858 0.0201671 0.0746636
vn 0.241412 0.261596 0.934498
v 0.0183035 0.0228993 0.073992
vn 0.225048 0.272649 0.935423
v 0.0171053 0.0217467 0.0745863
vn 0.202476 0.265195 0.942696
v 0.0171053 0.0154233 0.0763478
vn 0.194874 0.256936 0.946577
v 0.0153092 0.0106742 0.0779828
vn -0.0202693 0.259502 0.96553
v 0.0321429 0.0510282 0.0443195
vn 0.0293743 0.0502041 -0.998307
v 0.0371256 0.0480079 0.0444144
vn 0.981204 0.156249 0.113246
v 0.0371256 0.000738799 0.0737986
vn 0.999967 0.00185954 0.00788211
v 0.0369697 0.000594733 0.0739147
vn 0.397297 0.179821 0.8999
v 0.0363674 -7.92906e-05 0.0742241
vn 0.334076 -0.294672 0.8953
v 0.02382 0.0519955 0.0443195
vn -0.237567 0.842035 0.484292
v 0.0153092 0.0313734 0.0685104
vn -0.89768 0.351732 0.265433
v 0.0297552 -7.92906e-05 0.0765483
vn 0.25476 -0.558063 0.789723
v 0.0313356 0.00118643 0.0759259
vn 0.330246 0.119849 0.936255
v 0.0313356 -7.92906e-05 0.0760138
vn 0.261551 -0.611923 0.746419
v 0.0321622 0.00201481 0.0754547
vn 0.329487 0.210655 0.92036
v 0.0344986 0.00277116 0.0744315
vn 0.344194 0.228752 0.910606
v 0.0312951 0.00897115 0.0740483
vn 0.325294 0.228361 0.917625
v 0.0307398 0.0101288 0.0739428
vn 0.351018 0.272936 0.895708
v 0.0281876 0.0122744 0.0741714
vn 0.300729 0.292433 0.907769
v 0.0303062 0.0111836 0.0737635
vn 0.352501 0.30216 0.885687
v 0.0337276 0.0114872 0.0722902
vn 0.358788 0.345444 0.867144
v 0.0193585 0.0224156 0.0738233
vn 0.333275 0.32458 0.885198
v 0.0187733 0.0218342 0.0741714
vn 0.261782 0.265488 0.927893
v 0.0187733 0.023388 0.0736545
vn 0.330993 0.362945 0.871042
v 0.0176329 0.023954 0.0737986
vn 0.256695 0.364922 0.894952
v 0.0171053 0.023388 0.0741116
vn 0.192474 0.28704 0.938383
v 0.0153092 0.0231102 0.074537
vn -0.0697881 0.276403 0.958505
v 0.0153092 0.0217364 0.0749308
vn -0.209524 0.267489 0.940505
v 0.0162617 0.0193388 0.0754336
vn 0.183502 0.264697 0.946711
v 0.0153092 0.0183766 0.0758767
vn -0.177354 0.260747 0.948976
v 0.0317265 0.0512391 0.0443195
vn 0.00387631 0.00771601 -0.999963
v 0.0312054 0.0513317 0.0445761
vn 0.344763 0.778409 0.524612
v 0.0316453 0.0507606 0.0450789
vn 0.414511 0.726846 0.547609
v 0.0366429 0.0477043 0.0452266
vn 0.427495 0.718358 0.548825
v 0.0371256 0.047586 0.0449805
vn 0.999893 0.0115807 0.00891911
v 0.0371256 0.00624933 0.0724027
vn 0.999876 0.00387743 0.0152319
v 0.0366942 0.0016495 0.0737776
vn 0.397643 0.225533 0.88939
v 0.0361325 0.00114527 0.0741467
vn 0.373859 0.208972 0.903637
v 0.0344986 0.00118643 0.0747937
vn 0.347671 0.170342 0.922013
v 0.0369611 0.00686675 0.0723254
vn 0.39722 0.233125 0.88762
v 0.0360919 -7.92906e-05 0.0743225
vn 0.270237 -0.592337 0.759018
v 0.0331873 0.00118643 0.0752649
vn 0.334549 0.120001 0.934707
v 0.0250118 0.0522887 0.0443195
vn -0.173591 0.980727 -0.0896667
v 0.0153092 0.0306891 0.0693789
vn -0.203305 0.752276 0.626696
v 0.0355622 0.00277116 0.073992
vn 0.382807 0.229841 0.89478
v 0.0360898 0.00744302 0.0725469
vn 0.372226 0.238167 0.897064
v 0.0344986 0.00751505 0.0731763
vn 0.362749 0.241445 0.900065
v 0.0321707 0.00836401 0.0738795
vn 0.356114 0.24396 0.902035
v 0.0352056 0.00976866 0.0722445
vn 0.375012 0.28407 0.882423
v 0.0340544 0.0106742 0.0724238
vn 0.360651 0.286552 0.887592
v 0.0346054 0.0091821 0.07267
vn 0.361322 0.259121 0.895713
v 0.0348446 0.0106742 0.0720933
vn 0.393011 0.32194 0.861335
v 0.0343513 0.0121097 0.0717593
vn 0.380318 0.360908 0.851531
v 0.0224681 0.027108 0.0706201
vn 0.38453 0.376704 0.842752
v 0.0219043 0.0265421 0.0710912
vn 0.357707 0.355145 0.863665
v 0.0202683 0.0233263 0.0730849
vn 0.358545 0.351395 0.864851
v 0.0186858 0.024911 0.0730392
vn 0.308682 0.389208 0.86789
v 0.0171053 0.024839 0.073542
vn 0.230217 0.428535 0.873704
v 0.01658 0.0242679 0.0739252
vn 0.185786 0.353324 0.916867
v 0.0153092 0.0233263 0.0744737
vn -0.502599 0.270951 0.820962
v 0.0312417 0.0514809 0.0443195
vn 0.00340707 0.00801108 -0.999962
v 0.0297787 0.0520675 0.0443195
vn 0.0148846 0.0380681 -0.999164
v 0.0305903 0.0510179 0.0454235
vn 0.285128 0.749061 0.598005
v 0.0318546 0.0493045 0.0468265
vn 0.412876 0.711881 0.568118
v 0.0368287 0.0462277 0.0469495
vn 0.425623 0.697301 0.57673
v 0.0371256 0.0463614 0.0465522
vn 0.999724 0.0184531 0.014518
v 0.0371256 0.00702626 0.0721953
vn 0.999967 0.00220429 0.007781
v 0.0371256 0.00766426 0.0720019
vn 0.999566 0.00889946 0.0280778
v 0.0366237 0.00792152 0.0721672
vn 0.415611 0.273429 0.86747
v 0.0355686 0.00871389 0.0724098
vn 0.380902 0.25802 0.887885
v 0.0265922 0.0524843 0.0443195
vn -0.0343752 0.929324 0.367663
v 0.0153092 0.0305914 0.0694879
vn -0.999892 0.0105385 0.0102008
v 0.0155228 0.0306943 0.0693824
vn 0.00114385 0.724721 0.689041
v 0.0186858 0.0322121 0.0677615
vn -0.0257477 0.759212 0.650334
v 0.0360812 0.0106742 0.0715202
vn 0.410294 0.314949 0.855842
v 0.0360898 0.0091821 0.0720195
vn 0.416615 0.283925 0.863608
v 0.0360171 0.0121612 0.0709647
vn 0.411262 0.356484 0.838917
v 0.0354469 0.0132211 0.0707853
vn 0.388366 0.370382 0.843794
v 0.034142 0.021438 0.0677615
vn 0.389359 0.372742 0.842296
v 0.0336486 0.0224928 0.0675153
vn 0.413492 0.409266 0.813342
v 0.025723 0.0303804 0.0675118
vn 0.402279 0.434883 0.805635
v 0.0214131 0.0275351 0.0708486
vn 0.308487 0.455765 0.834934
v 0.0186858 0.0260636 0.0724801
vn 0.261052 0.438992 0.859731
v 0.017084 0.0265729 0.0726629
vn 0.206734 0.45871 0.864203
v 0.0155228 0.0252918 0.0736791
vn 0.18711 0.442517 0.877023
v 0.0155228 0.0244994 0.0740237
vn 0.166325 0.385833 0.907452
v 0.0153092 0.0243399 0.0741221
vn -0.869968 0.164219 0.46496
v 0.0295267 0.052155 0.0443195
vn 0.0180715 0.0760959 -0.996937
v 0.0297552 0.0511259 0.0455431
vn 0.14191 0.758605 0.635909
v 0.0297552 0.0504416 0.0463342
vn 0.155354 0.746151 0.647398
v 0.0308017 0.0495155 0.0470937
vn 0.223688 0.730007 0.645796
v 0.0320297 0.0478021 0.0485212
vn 0.32429 0.702776 0.633199
v 0.0339818 0.0464386 0.0487638
vn 0.429331 0.665633 0.610416
v 0.0371256 0.0453427 0.0476633
vn 0.994246 0.0772613 0.0741945
v 0.0371256 0.0461299 0.0468335
vn 0.999951 0.00730913 0.00670168
v 0.0371256 0.00918725 0.0715061
vn 0.996717 0.0257324 0.0767618
v 0.0281726 0.0512545 0.0456767
vn 0.0462619 0.750067 0.659741
v 0.0281726 0.0520418 0.044759
vn 0.0754645 0.758653 0.64711
v 0.0281726 0.0524122 0.0443195
vn 0.00438223 0.03616 -0.999336
v 0.0202683 0.0336939 0.0660667
vn -0.00646685 0.757458 0.652852
v 0.0202683 0.0330045 0.0668578
vn 0.0285847 0.751657 0.658934
v 0.0153092 0.0298144 0.0702825
vn -0.99115 0.0943978 0.0933261
v 0.0171053 0.0306943 0.0693683
vn 0.0151412 0.707806 0.706245
v 0.0186858 0.0314712 0.0685526
vn 0.0118612 0.718746 0.695172
v 0.0202683 0.0322121 0.0677439
vn 0.0732956 0.716795 0.693421
v 0.0371256 0.0106742 0.0709928
vn 0.997959 0.0213112 0.0601932
v 0.0369547 0.0115695 0.0707502
vn 0.431349 0.351469 0.830907
v 0.0371256 0.0180473 0.0678353
vn 0.98018 0.0800043 0.181238
v 0.0350753 0.0175842 0.0690273
vn 0.401796 0.371779 0.836863
v 0.0371256 0.0182274 0.0677544
vn 0.970531 0.103267 0.217729
v 0.0356114 0.0228684 0.0661546
vn 0.46077 0.437741 0.772058
v 0.0345456 0.0233675 0.0664992
vn 0.452074 0.44282 0.7743
v 0.034048 0.0244583 0.0661581
vn 0.456038 0.461469 0.76097
v 0.0371256 0.0186544 0.067547
vn 0.988567 0.0660715 0.135538
v 0.0371256 0.0189992 0.0673782
vn 0.988919 0.0685928 0.131659
v 0.0371256 0.0202134 0.0667348
vn 0.97854 0.098685 0.180891
v 0.0271518 0.0317799 0.0658206
vn 0.4605 0.471678 0.751971
v 0.026101 0.032243 0.0661335
vn 0.361552 0.531783 0.765825
v 0.0251228 0.0312191 0.0672024
vn 0.287427 0.529471 0.798152
v 0.0217142 0.0296343 0.0694351
vn 0.292267 0.507626 0.810491
v 0.0202683 0.0286413 0.0705673
vn 0.259681 0.507981 0.821292
v 0.0202683 0.027849 0.0710385
vn 0.255114 0.472135 0.843804
v 0.0186858 0.0268456 0.0720617
vn 0.252149 0.462731 0.849883
v 0.0175966 0.0271543 0.0722094
vn 0.227321 0.493923 0.839265
v 0.0165415 0.0273447 0.0723359
vn 0.158362 0.550074 0.819963
v 0.0155228 0.0264855 0.0730216
vn 0.167759 0.480322 0.860899
v 0.0153092 0.0253329 0.0736967
vn -0.997472 0.0341632 0.0623126
v 0.0153092 0.0252506 0.0737354
vn -0.994532 0.0417469 0.095727
v 0.0153092 0.0245612 0.0740342
vn -0.998493 0.021451 0.0505087
v 0.0286425 0.052335 0.0443195
vn 0.00834909 0.0439434 -0.998999
v 0.0297552 0.0496492 0.0472449
vn 0.113425 0.7403 0.662639
v 0.0297552 0.0489341 0.048036
vn 0.182279 0.726043 0.66305
v 0.0309747 0.0479822 0.0487216
vn 0.221532 0.71755 0.660338
v 0.0329182 0.0467628 0.0491014
vn 0.390936 0.671668 0.62931
v 0.0313356 0.0441439 0.05273
vn 0.246469 0.710908 0.658683
v 0.0313356 0.0433515 0.0535844
vn 0.260341 0.704816 0.659891
v 0.032207 0.043156 0.05337
vn 0.409394 0.655816 0.634273
v 0.0371256 0.0445709 0.0484579
vn 0.761517 0.462222 0.454359
v 0.0371256 0.0448282 0.0481942
vn 0.994663 0.0740132 0.0718837
v 0.0234313 0.0351089 0.064291
vn 0.0398855 0.748747 0.661655
v 0.0250118 0.0372441 0.0617735
vn 0.0479319 0.748702 0.661172
v 0.0265922 0.0394771 0.0591153
vn 0.08093 0.744746 0.662423
v 0.0153092 0.0291353 0.0709611
vn -0.93768 0.243872 0.247554
v 0.0186858 0.030684 0.0693297
vn 0.0557207 0.677627 0.733292
v 0.0214409 0.0321195 0.0676384
vn 0.156853 0.663148 0.731869
v 0.0250118 0.035006 0.0642031
vn 0.139703 0.695346 0.704966
v 0.0250118 0.0357572 0.0634155
vn 0.101918 0.723708 0.682539
v 0.0202683 0.0313631 0.068535
vn 0.104136 0.668119 0.736731
v 0.0371256 0.011091 0.0708381
vn 0.999966 0.00307986 0.00767277
v 0.0371256 0.0117341 0.0705673
vn 0.999966 0.00326042 0.00755321
v 0.0371256 0.0212785 0.0661405
vn 0.997765 0.032901 0.0581611
v 0.0371256 0.0220657 0.0656869
vn 0.994134 0.0556828 0.0927153
v 0.0351031 0.0239232 0.0658346
vn 0.474119 0.462699 0.74908
v 0.0371256 0.0265472 0.0629233
vn 0.978108 0.110312 0.176452
v 0.033828 0.027391 0.0644493
vn 0.465448 0.472945 0.748118
v 0.0274614 0.033663 0.0644211
vn 0.456516 0.489046 0.743255
v 0.0371256 0.0269691 0.062656
vn 0.796363 0.326138 0.509353
v 0.0265922 0.03391 0.0646321
vn 0.305427 0.590828 0.746751
v 0.0250118 0.0325002 0.0663445
vn 0.257798 0.583314 0.77025
v 0.021097 0.0304576 0.0691327
vn 0.243986 0.566898 0.786827
v 0.0194141 0.0288368 0.0706869
vn 0.191377 0.553998 0.810223
v 0.0153092 0.0264649 0.0730673
vn -0.984198 0.0945532 0.149714
v 0.018359 0.0289758 0.0707959
vn 0.129591 0.605851 0.784953
v 0.0155228 0.0274425 0.0724168
vn 0.103782 0.60881 0.786498
v 0.0153092 0.0263208 0.0731517
vn -0.999477 0.0157163 0.0282657
v 0.0265922 0.0386848 0.0600014
vn 0.124041 0.734822 0.666821
v 0.0281726 0.0400431 0.0581871
vn 0.150856 0.729687 0.666933
v 0.0290056 0.0399454 0.058071
vn 0.227055 0.703211 0.673751
v 0.0297552 0.0428781 0.0546604
vn 0.212488 0.718443 0.662335
v 0.0313356 0.04259 0.0543756
vn 0.288032 0.688046 0.666056
v 0.0313356 0.0418028 0.0551843
vn 0.316485 0.668019 0.67349
v 0.0322198 0.0415815 0.0549592
vn 0.451146 0.61917 0.642725
v 0.0371256 0.0442519 0.0487709
vn 0.987274 0.111349 0.113542
v 0.0250118 0.0365495 0.0625576
vn 0.0712649 0.740239 0.668557
v 0.0153092 0.0290221 0.0710666
vn -0.940535 0.226561 0.25311
v 0.0155228 0.0291301 0.0709541
vn 0.0407586 0.681183 0.730978
v 0.0202683 0.0305759 0.0692277
vn 0.130738 0.626604 0.768293
v 0.0171053 0.0290787 0.0708873
vn 0.0818542 0.645386 0.759458
v 0.0224938 0.0319754 0.0675013
vn 0.202819 0.628885 0.750579
v 0.0250118 0.0342136 0.0649169
vn 0.199577 0.646476 0.736368
v 0.0265922 0.0355977 0.0631975
vn 0.245956 0.668186 0.702163
v 0.0265922 0.03639 0.0624099
vn 0.194023 0.69839 0.688917
v 0.0265922 0.0371515 0.0616223
vn 0.165123 0.712317 0.682157
v 0.0265922 0.0379387 0.0607925
vn 0.14992 0.718268 0.679423
v 0.0371256 0.0227861 0.0652439
vn 0.996282 0.0452232 0.0733325
v 0.0371256 0.0280908 0.0619352
vn 0.931812 0.204488 0.299853
v 0.0293131 0.0339718 0.0630428
vn 0.470145 0.487099 0.736002
v 0.0287728 0.0350265 0.0626807
vn 0.417639 0.56671 0.710223
v 0.0277177 0.0353764 0.062969
vn 0.354228 0.61607 0.703549
v 0.0265922 0.0347024 0.0639887
vn 0.258976 0.626007 0.735559
v 0.0250118 0.0332874 0.065708
vn 0.232895 0.621102 0.748326
v 0.0153092 0.0272984 0.0725364
vn -0.999677 0.0138237 0.0213399
v 0.0153092 0.0281371 0.0718507
vn -0.986077 0.108776 0.125773
v 0.0153092 0.0274528 0.0724274
vn -0.999823 0.0118945 0.0145493
v 0.0281726 0.0392868 0.0589782
vn 0.178212 0.710875 0.680365
v 0.0289693 0.0383503 0.0596357
vn 0.326065 0.643852 0.692197
v 0.0300606 0.039683 0.0578354
vn 0.328823 0.653291 0.681973
v 0.0313356 0.0409744 0.0559754
vn 0.336111 0.650106 0.681463
v 0.0313356 0.0401872 0.0567173
vn 0.359415 0.632047 0.68654
v 0.0321558 0.0399505 0.0564923
vn 0.433421 0.584987 0.685519
v 0.0349963 0.0397087 0.0546885
vn 0.470817 0.591755 0.654338
v 0.0367839 0.0398579 0.0532434
vn 0.472381 0.599826 0.645806
v 0.0371256 0.0400483 0.0528144
vn 0.987023 0.111078 0.115958
v 0.0371256 0.0437785 0.049235
vn 0.987044 0.111232 0.115636
v 0.0371256 0.0338586 0.0578284
vn 0.999789 0.0120122 0.0166631
v 0.0369398 0.033663 0.0580991
vn 0.495984 0.50365 0.707344
v 0.0359552 0.0342753 0.0583523
vn 0.492431 0.504624 0.70913
v 0.030665 0.0352941 0.0612953
vn 0.477859 0.523642 0.705302
v 0.0297552 0.0356182 0.0615871
vn 0.426385 0.579711 0.694356
v 0.0356455 0.0386539 0.0551386
vn 0.476376 0.554778 0.682119
v 0.0362158 0.0392559 0.0541962
vn 0.483204 0.577729 0.657832
v 0.0371256 0.0397138 0.0531203
vn 0.999246 0.0258344 0.0289717
v 0.0371256 0.0342959 0.0575084
vn 0.997446 0.0423368 0.0575272
v 0.0353423 0.0352323 0.0580921
vn 0.486036 0.538893 0.688014
v 0.0367006 0.0381806 0.0547588
vn 0.495495 0.541911 0.678835
v 0.0371256 0.0384069 0.0542525
vn 0.998499 0.0353562 0.041826
v 0.0371256 0.038906 0.0538271
vn 0.997408 0.0469557 0.0545197
v 0.0371256 0.0394 0.0533981
vn 0.999419 0.02244 0.0256487
v 0.0371256 0.0344606 0.0573854
vn 0.99757 0.0426863 0.0550701
v 0.0371256 0.0354073 0.056647
vn 0.996347 0.0529603 0.0669897
v 0.0371256 0.037949 0.0546252
vn 0.999857 0.010554 0.0132214
f 1//1 2//2 3//3
f 1//1 3//3 4//4
f 1//1 4//4 13//13
f 1//1 13//13 27//27
f 1//1 27//27 44//44
f 1//1 44//44 64//64
f 1//1 64//64 90//90
f 1//1 90//90 88//88
f 1//1 88//88 87//87
f 1//1 87//87 120//120
f 1//1 120//120 147//147
f 1//1 147//147 189//189
f 1//1 189//189 188//188
f 1//1 188//188 187//187
f 1//1 187//187 225//225
f 1//1 225//225 222//222
f 1//1 222//222 252//252
f 1//1 252//252 254//254
f 1//1 254//254 253//253
f 1//1 253//253 235//235
f 1//1 235//235 203//203
f 1//1 203//203 162//162
f 1//1 162//162 132//132
f 1//1 132//132 104//104
f 1//1 104//104 71//71
f 1//1 71//71 48//48
f 1//1 48//48 30//30
f 1//1 30//30 15//15
f 1//1 15//15 5//5
f 1//1 5//5 14//14
f 1//1 14//14 29//29
f 1//1 29//29 46//46
f 1//1 46//46 69//69
f 1//1 69//69 101//101
f 1//1 101//101 74//74
f 1//1 74//74 72//72
f 1//1 72//72 50//50
f 1//1 50//50 31//31
f 1//1 31//31 16//16
f 1//1 16//16 7//7
f 1//1 7//7 6//6
f 1//1 6//6 2//2
f 2//2 6//6 3//3
f 3//3 6//6 7//7
f 3//3 7//7 8//8
f 3//3 8//8 9//9
f 3//3 9//9 10//10
f 3//3 10//10 11//11
f 3//3 11//11 4//4
f 4//4 11//11 12//12
f 4//4 12//12 13//13
f 5//5 15//15 14//14
f 7//7 16//16 17//17
f 7//7 17//17 18//18
f 7//7 18//18 19//19
f 7//7 19//19 20//20
f 7//7 20//20 21//21
f 7//7 21//21 8//8
f 8//8 21//21 20//20
f 8//8 20//20 22//22
f 8//8 22//22 23//23
f 8//8 23//23 9//9
f 9//9 23//23 24//24
f 9//9 24//24 10//10
f 10//10 24//24 25//25
f 10//10 25//25 11//11
f 11//11 25//25 26//26
f 11//11 26//26 12//12
f 12//12 26//26 27//27
f 12//12 27//27 13//13
f 14//14 28//28 45//45
f 14//14 45//45 66//66
f 14//14 66//66 95//95
f 14//14 95//95 126//126
f 14//14 126//126 155//155
f 14//14 155//155 154//154
f 14//14 154//154 199//199
f 14//14 199//199 198//198
f 14//14 198//198 233//233
f 14//14 233//233 264//264
f 14//14 264//264 263//263
f 14//14 263//263 272//272
f 14//14 272//272 278//278
f 14//14 278//278 277//277
f 14//14 277//277 276//276
f 14//14 276//276 281//281
f 14//14 281//281 280//280
f 14//14 280//280 279//279
f 14//14 279//279 273//273
f 14//14 273//273 265//265
f 14//14 265//265 246//246
f 14//14 246//246 217//217
f 14//14 217//217 214//214
f 14//14 214//214 245//245
f 14//14 245//245 212//212
f 14//14 212//212 211//211
f 14//14 211//211 176//176
f 14//14 176//176 175//175
f 14//14 175//175 174//174
f 14//14 174//174 170//170
f 14//14 170//170 168//168
f 14//14 168//168 210//210
f 14//14 210//210 209//209
f 14//14 209//209 166//166
f 14//14 166//166 156//156
f 14//14 156//156 128//128
f 14//14 128//128 127//127
f 14//14 127//127 96//96
f 14//14 96//96 67//67
f 14//14 67//67 47//47
f 14//14 47//47 29//29
f 14//14 15//15 28//28
f 15//15 30//30 49//49
f 15//15 49//49 70//70
f 15//15 70//70 103//103
f 15//15 103//103 131//131
f 15//15 131//131 159//159
f 15//15 159//159 190//190
f 15//15 190//190 148//148
f 15//15 148//148 122//122
f 15//15 122//122 121//121
f 15//15 121//121 91//91
f 15//15 91//91 65//65
f 15//15 65//65 45//45
f 15//15 45//45 28//28
f 16//16 31//31 17//17
f 17//17 31//31 18//18
f 18//18 31//31 32//32
f 18//18 32//32 33//33
f 18//18 33//33 20//20
f 18//18 20//20 19//19
f 20//20 33//33 22//22
f 22//22 33//33 34//34
f 22//22 34//34 35//35
f 22//22 35//35 36//36
f 22//22 36//36 37//37
f 22//22 37//37 23//23
f 23//23 38//38 24//24
f 23//23 37//37 39//39
f 23//23 39//39 40//40
f 23//23 40//40 41//41
f 23//23 41//41 38//38
f 24//24 38//38 25//25
f 25//25 38//38 42//42
f 25//25 42//42 26//26
f 26//26 42//42 43//43
f 26//26 43//43 27//27
f 27//27 43//43 44//44
f 29//29 47//47 46//46
f 30//30 48//48 49//49
f 31//31 50//50 51//51
f 31//31 51//51 32//32
f 32//32 51//51 34//34
f 32//32 34//34 52//52
f 32//32 52//52 33//33
f 33//33 52//52 34//34
f 34//34 51//51 53//53
f 34//34 53//53 54//54
f 34//34 54//54 35//35
f 35//35 55//55 56//56
f 35//35 56//56 57//57
f 35//35 57//57 36//36
f 35//35 54//54 55//55
f 36//36 57//57 37//37
f 37//37 57//57 39//39
f 38//38 58//58 42//42
f 38//38 41//41 58//58
f 39//39 57//57 40//40
f 40//40 57//57 59//59
f 40//40 59//59 41//41
f 41//41 59//59 60//60
f 41//41 60//60 61//61
f 41//41 61//61 62//62
f 41//41 62//62 63//63
f 41//41 63//63 58//58
f 42//42 58//58 44//44
f 42//42 44//44 43//43
f 44//44 58//58 64//64
f 45//45 65//65 66//66
f 46//46 47//47 67//67
f 46//46 67//67 68//68
f 46//46 68//68 69//69
f 48//48 70//70 49//49
f 48//48 71//71 70//70
f 50//50 72//72 51//51
f 51//51 73//73 53//53
f 51//51 72//72 74//74
f 51//51 74//74 73//73
f 53//53 73//73 75//75
f 53//53 75//75 76//76
f 53//53 76//76 77//77
f 53//53 77//77 54//54
f 54//54 77//77 78//78
f 54//54 78//78 55//55
f 55//55 78//78 56//56
f 56//56 79//79 57//57
f 56//56 78//78 80//80
f 56//56 80//80 81//81
f 56//56 81//81 82//82
f 56//56 82//82 79//79
f 57//57 79//79 82//82
f 57//57 82//82 83//83
f 57//57 83//83 59//59
f 58//58 63//63 64//64
f 59//59 83//83 60//60
f 60//60 83//83 61//61
f 61//61 82//82 84//84
f 61//61 84//84 85//85
f 61//61 85//85 86//86
f 61//61 86//86 62//62
f 61//61 83//83 82//82
f 62//62 86//86 87//87
f 62//62 87//87 88//88
f 62//62 88//88 89//89
f 62//62 89//89 63//63
f 63//63 89//89 90//90
f 63//63 90//90 64//64
f 65//65 91//91 92//92
f 65//65 92//92 93//93
f 65//65 93//93 94//94
f 65//65 94//94 66//66
f 66//66 94//94 95//95
f 67//67 96//96 68//68
f 68//68 97//97 98//98
f 68//68 98//98 99//99
f 68//68 99//99 69//69
f 68//68 96//96 100//100
f 68//68 100//100 97//97
f 69//69 99//99 102//102
f 69//69 102//102 101//101
f 70//70 71//71 103//103
f 71//71 104//104 103//103
f 73//73 102//102 75//75
f 73//73 74//74 101//101
f 73//73 101//101 102//102
f 75//75 102//102 99//99
f 75//75 99//99 76//76
f 76//76 99//99 98//98
f 76//76 98//98 105//105
f 76//76 105//105 106//106
f 76//76 106//106 107//107
f 76//76 107//107 108//108
f 76//76 108//108 77//77
f 77//77 108//108 78//78
f 78//78 109//109 110//110
f 78//78 110//110 81//81
f 78//78 81//81 80//80
f 78//78 108//108 111//111
f 78//78 111//111 109//109
f 81//81 110//110 109//109
f 81//81 109//109 112//112
f 81//81 112//112 113//113
f 81//81 113//113 114//114
f 81//81 114//114 115//115
f 81//81 115//115 116//116
f 81//81 116//116 82//82
f 82//82 116//116 84//84
f 84//84 116//116 115//115
f 84//84 115//115 117//117
f 84//84 117//117 85//85
f 85//85 117//117 118//118
f 85//85 118//118 119//119
f 85//85 119//119 86//86
f 86//86 120//120 87//87
f 86//86 119//119 120//120
f 88//88 90//90 89//89
f 91//91 121//121 92//92
f 92//92 121//121 122//122
f 92//92 122//122 123//123
f 92//92 123//123 93//93
f 93//93 123//123 124//124
f 93//93 124//124 94//94
f 94//94 125//125 126//126
f 94//94 126//126 95//95
f 94//94 124//124 125//125
f 96//96 127//127 100//100
f 97//97 105//105 98//98
f 97//97 100//100 105//105
f 100//100 127//127 128//128
f 100//100 128//128 129//129
f 100//100 129//129 130//130
f 100//100 130//130 106//106
f 100//100 106//106 105//105
f 103//103 104//104 131//131
f 104//104 132//132 133//133
f 104//104 133//133 134//134
f 104//104 134//134 131//131
f 106//106 130//130 107//107
f 107//107 130//130 111//111
f 107//107 111//111 108//108
f 109//109 135//135 112//112
f 109//109 111//111 130//130
f 109//109 130//130 136//136
f 109//109 136//136 135//135
f 112//112 135//135 113//113
f 113//113 135//135 137//137
f 113//113 137//137 138//138
f 113//113 138//138 114//114
f 114//114 139//139 140//140
f 114//114 140//140 141//141
f 114//114 141//141 142//142
f 114//114 142//142 115//115
f 114//114 138//138 139//139
f 115//115 142//142 117//117
f 117//117 143//143 118//118
f 117//117 142//142 143//143
f 118//118 143//143 144//144
f 118//118 144//144 145//145
f 118//118 145//145 119//119
f 119//119 146//146 147//147
f 119//119 147//147 120//120
f 119//119 145//145 146//146
f 122//122 148//148 123//123
f 123//123 148//148 149//149
f 123//123 149//149 150//150
f 123//123 150//150 151//151
f 123//123 151//151 152//152
f 123//123 152//152 124//124
f 124//124 152//152 153//153
f 124//124 153//153 125//125
f 125//125 153//153 154//154
f 125//125 154//154 155//155
f 125//125 155//155 126//126
f 128//128 156//156 129//129
f 129//129 156//156 136//136
f 129//129 136//136 130//130
f 131//131 157//157 158//158
f 131//131 158//158 159//159
f 131//131 134//134 160//160
f 131//131 160//160 161//161
f 131//131 161//161 157//157
f 132//132 162//162 133//133
f 133//133 162//162 163//163
f 133//133 163//163 164//164
f 133//133 164//164 134//134
f 134//134 164//164 165//165
f 134//134 165//165 161//161
f 134//134 161//161 160//160
f 135//135 166//166 167//167
f 135//135 167//167 137//137
f 135//135 136//136 156//156
f 135//135 156//156 166//166
f 137//137 167//167 168//168
f 137//137 168//168 138//138
f 138//138 168//168 169//169
f 138//138 169//169 139//139
f 139//139 169//169 168//168
f 139//139 168//168 170//170
f 139//139 170//170 140//140
f 140//140 171//171 172//172
f 140//140 172//172 173//173
f 140//140 173//173 141//141
f 140//140 170//170 174//174
f 140//140 174//174 175//175
f 140//140 175//175 176//176
f 140//140 176//176 171//171
f 141//141 177//177 178//178
f 141//141 178//178 179//179
f 141//141 179//179 180//180
f 141//141 180//180 142//142
f 141//141 173//173 177//177
f 142//142 180//180 181//181
f 142//142 181//181 182//182
f 142//142 182//182 143//143
f 143//143 183//183 184//184
f 143//143 184//184 144//144
f 143//143 182//182 183//183
f 144//144 184//184 185//185
f 144//144 185//185 186//186
f 144//144 186//186 145//145
f 145//145 186//186 187//187
f 145//145 187//187 188//188
f 145//145 188//188 146//146
f 146//146 188//188 189//189
f 146//146 189//189 147//147
f 148//148 190//190 149//149
f 149//149 190//190 159//159
f 149//149 159//159 158//158
f 149//149 158//158 157//157
f 149//149 157//157 150//150
f 150//150 157//157 191//191
f 150//150 191//191 151//151
f 151//151 191//191 192//192
f 151//151 192//192 193//193
f 151//151 193//193 152//152
f 152//152 194//194 153//153
f 152//152 193//193 195//195
f 152//152 195//195 196//196
f 152//152 196//196 197//197
f 152//152 197//197 194//194
f 153//153 198//198 199//199
f 153//153 199//199 154//154
f 153//153 194//194 197//197
f 153//153 197//197 198//198
f 157//157 161//161 200//200
f 157//157 200//200 201//201
f 157//157 201//201 202//202
f 157//157 202//202 191//191
f 161//161 165//165 200//200
f 162//162 203//203 163//163
f 163//163 203//203 204//204
f 163//163 204//204 164//164
f 164//164 204//204 165//165
f 165//165 205//205 206//206
f 165//165 206//206 207//207
f 165//165 207//207 200//200
f 165//165 204//204 208//208
f 165//165 208//208 205//205
f 166//166 209//209 167//167
f 167//167 209//209 210//210
f 167//167 210//210 168//168
f 171//171 176//176 211//211
f 171//171 211//211 212//212
f 171//171 212//212 213//213
f 171//171 213//213 173//173
f 171//171 173//173 172//172
f 173//173 213//213 214//214
f 173//173 214//214 215//215
f 173//173 215//215 177//177
f 177//177 216//216 178//178
f 177//177 215//215 217//217
f 177//177 217//217 216//216
f 178//178 216//216 218//218
f 178//178 218//218 219//219
f 178//178 219//219 179//179
f 179//179 220//220 180//180
f 179//179 219//219 220//220
f 180//180 220//220 181//181
f 181//181 221//221 184//184
f 181//181 184//184 182//182
f 181//181 220//220 221//221
f 182//182 184//184 183//183
f 184//184 221//221 185//185
f 185//185 222//222 186//186
f 185//185 221//221 223//223
f 185//185 223//223 224//224
f 185//185 224//224 222//222
f 186//186 222//222 225//225
f 186//186 225//225 187//187
f 191//191 202//202 226//226
f 191//191 226//226 227//227
f 191//191 227//227 192//192
f 192//192 227//227 228//228
f 192//192 228//228 229//229
f 192//192 229//229 193//193
f 193//193 229//229 196//196
f 193//193 196//196 195//195
f 196//196 229//229 228//228
f 196//196 228//228 230//230
f 196//196 230//230 197//197
f 197//197 230//230 231//231
f 197//197 231//231 232//232
f 197//197 232//232 198//198
f 198//198 232//232 233//233
f 200//200 207//207 234//234
f 200//200 234//234 201//201
f 201//201 234//234 202//202
f 202//202 234//234 226//226
f 203//203 235//235 236//236
f 203//203 236//236 204//204
f 204//204 237//237 208//208
f 204//204 236//236 235//235
f 204//204 235//235 238//238
f 204//204 238//238 237//237
f 205//205 239//239 240//240
f 205//205 240//240 206//206
f 205//205 208//208 237//237
f 205//205 237//237 220//220
f 205//205 220//220 239//239
f 206//206 240//240 241//241
f 206//206 241//241 242//242
f 206//206 242//242 243//243
f 206//206 243//243 207//207
f 207//207 243//243 244//244
f 207//207 244//244 226//226
f 207//207 226//226 234//234
f 212//212 245//245 213//213
f 213//213 245//245 214//214
f 214//214 217//217 215//215
f 216//216 246//246 247//247
f 216//216 247//247 248//248
f 216//216 248//248 249//249
f 216//216 249//249 218//218
f 216//216 217//217 246//246
f 218//218 249//249 250//250
f 218//218 250//250 251//251
f 218//218 251//251 219//219
f 219//219 251//251 239//239
f 219//219 239//239 220//220
f 220//220 237//237 221//221
f 221//221 237//237 223//223
f 222//222 224//224 252//252
f 223//223 238//238 224//224
f 223//223 237//237 238//238
f 224//224 238//238 253//253
f 224//224 253//253 254//254
f 224//224 254//254 252//252
f 226//226 244//244 227//227
f 227//227 244//244 243//243
f 227//227 243//243 255//255
f 227//227 255//255 228//228
f 228//228 231//231 230//230
f 228//228 255//255 243//243
f 228//228 243//243 242//242
f 228//228 242//242 241//241
f 228//228 241//241 256//256
f 228//228 256//256 257//257
f 228//228 257//257 231//231
f 231//231 257//257 258//258
f 231//231 258//258 232//232
f 232//232 258//258 257//257
f 232//232 257//257 259//259
f 232//232 259//259 260//260
f 232//232 260//260 261//261
f 232//232 261//261 262//262
f 232//232 262//262 263//263
f 232//232 263//263 264//264
f 232//232 264//264 233//233
f 235//235 253//253 238//238
f 239//239 251//251 240//240
f 240//240 250//250 241//241
f 240//240 251//251 250//250
f 241//241 250//250 249//249
f 241//241 249//249 256//256
f 246//246 265//265 266//266
f 246//246 266//266 267//267
f 246//246 267//267 268//268
f 246//246 268//268 247//247
f 247//247 268//268 248//248
f 248//248 268//268 269//269
f 248//248 269//269 260//260
f 248//248 260//260 249//249
f 249//249 260//260 256//256
f 256//256 260//260 259//259
f 256//256 259//259 257//257
f 260//260 270//270 261//261
f 260//260 269//269 268//268
f 260//260 268//268 270//270
f 261//261 270//270 271//271
f 261//261 271//271 262//262
f 262//262 271//271 272//272
f 262//262 272//272 263//263
f 265//265 273//273 274//274
f 265//265 274//274 267//267
f 265//265 267//267 266//266
f 267//267 274//274 268//268
f 268//268 274//274 270//270
f 270//270 275//275 276//276
f 270//270 276//276 277//277
f 270//270 277//277 271//271
f 270//270 274//274 275//275
f 271//271 278//278 272//272
f 271//271 277//277 278//278
f 273//273 279//279 274//274
f 274//274 279//279 280//280
f 274//274 280//280 275//275
f 275//275 281//281 276//276
f 275//275 280//280 281//281
