# Created by Open3D 
# object name: part_016
# number of vertices: 232
# number of triangles: 460
v -0.0586712 -0.00198183 0.0520357
vn -0.679798 -0.000498437 0.733399
v -0.0586712 -0.000805111 0.0520023
vn 0.316446 0.030867 0.948108
v -0.0592775 -0.00198183 0.0513597
vn -0.75285 0.00861378 0.658136
v -0.0645123 -0.0189616 0.0455474
vn -0.717506 -0.125766 0.685104
v -0.0586712 -0.00235989 0.0520283
vn -0.665679 -0.0193064 0.745988
v -0.0586693 -0.0177943 0.0507915
vn 1 -1.87784e-21 7.51135e-21
v -0.0586712 -0.000398694 0.0519874
vn 0.926293 0.0192851 0.376309
v -0.0592518 -0.000398694 0.0513337
vn -0.749288 0.028717 0.661621
v -0.0599463 -0.000398694 0.0505427
vn -0.76361 0.015885 0.645483
v -0.0599555 -0.00198183 0.0505687
vn -0.761246 0.0130145 0.648332
v -0.0645012 -0.0177943 0.0455437
vn -0.768278 0.0163115 0.639908
v -0.0611902 -0.0186355 0.0485668
vn -0.657801 -0.0728952 0.749656
v -0.0629009 -0.0177943 0.0470998
vn -0.668362 -0.0581884 0.741557
v -0.0586712 -0.00568212 0.0518537
vn -0.667171 -0.0555684 0.742829
v -0.0586712 -0.00514338 0.0518908
vn -0.66159 -0.0497664 0.748212
v -0.0586712 -0.00356024 0.0519948
vn -0.663396 -0.0368956 0.747359
v -0.065927 -0.0185835 0.0438167
vn -0.847007 0.0448572 0.529685
v -0.065927 -0.0185882 0.0438167
vn -0.867429 -0.0966845 0.488077
v -0.0645821 -0.0380065 0.0409012
vn -0.768212 -0.186672 0.612376
v -0.0612693 -0.0410215 0.0439318
vn -0.733473 -0.160729 0.660441
v -0.059735 -0.0411302 0.0455214
vn -0.692318 -0.15556 0.704625
v -0.0586712 -0.0257005 0.0498853
vn -0.629024 -0.16158 0.760408
v -0.0586712 -0.0241221 0.0501304
vn -0.654604 -0.0934821 0.75017
v -0.0586712 -0.000152954 0.034023
vn 0.906289 0.391002 -0.160492
v -0.0586712 -0.000152954 0.0519688
vn 0.999467 0.0326212 0.000895766
v -0.0586712 -0.00672652 0.051772
vn -0.657007 -0.0619566 0.751334
v -0.0586712 -0.0161308 0.0509624
vn -0.647916 -0.0653445 0.758904
v -0.0586712 -0.0162159 0.0509549
vn -0.644882 -0.0780822 0.760283
v -0.0586712 -0.0177943 0.0507915
vn -0.644587 -0.0792989 0.760408
v -0.0586712 -0.0415792 0.0462048
vn 0.949359 -0.0724387 0.305728
v -0.0586712 -0.0425196 0.0459002
vn 0.949158 -0.105083 0.296742
v -0.0586712 -0.0430961 0.0456662
vn 0.992216 -0.0605152 0.108832
v -0.0586712 -0.0447171 0.0446783
vn 0.871072 -0.262325 0.415234
v -0.0586712 -0.0463049 0.0436199
vn 0.917491 -0.238565 0.318271
v -0.0586712 -0.0471225 0.0429439
vn 0.983019 -0.122815 0.136349
v -0.0586712 -0.0477841 0.0422383
vn 0.986012 -0.132542 0.101063
v -0.0586712 -0.0482236 0.0414992
vn 0.99691 -0.0762627 0.0188306
v -0.0586712 -0.0484315 0.0398613
vn 0.999949 -0.0100825 1.49752e-05
v -0.0586712 -0.0482283 0.0383163
vn 0.994489 -0.103753 -0.015049
v -0.0586712 -0.0480062 0.036879
vn 0.999561 -0.0292774 -0.00452856
v -0.0586712 -0.0479779 0.036697
vn 0.999562 -0.0292169 -0.00463602
v -0.0586712 -0.0477605 0.0353303
vn 0.999632 -0.0267727 -0.00434991
v -0.0586712 -0.0477085 0.0351075
vn 0.991498 -0.125519 -0.034303
v -0.0586712 -0.0473352 0.0337519
vn 0.969792 -0.23266 -0.0733009
v -0.0586712 -0.0472595 0.0335662
vn 0.983831 -0.165229 -0.0691081
v -0.0586712 -0.0469996 0.0329497
vn 0.975636 -0.195722 -0.0991353
v -0.0586712 -0.0464892 0.0321326
vn 0.992668 -0.0985133 -0.070038
v -0.0586712 -0.0456291 0.0310852
vn 0.997929 -0.0473035 -0.0435942
v -0.0586712 -0.044788 0.0303016
vn 0.99983 -0.0111656 -0.0146783
v -0.0586712 -0.0431245 0.02918
vn 0.99912 -0.021807 -0.0358334
v -0.0586712 -0.0429355 0.0290834
vn 0.804177 -0.204011 -0.558282
v -0.0586712 -0.0428031 0.0290389
vn 0.966658 -0.0743715 -0.245032
v -0.0586712 -0.041565 0.0286675
vn 0.916438 -0.10276 -0.386757
v -0.0586712 -0.041513 0.0286563
vn 0.967521 -0.0392513 -0.249725
v -0.0586712 -0.0399346 0.0284112
vn 0.923786 -0.0446461 -0.380298
v -0.0586712 -0.0396936 0.0283963
vn 0.836576 -0.0307721 -0.546985
v -0.0586712 -0.0383514 0.0283666
vn 0.97299 -0.00262161 -0.230834
v -0.0586712 -0.0380584 0.0283778
vn 0.974644 0.0137842 -0.223337
v -0.0586712 -0.0365462 0.028478
vn 0.974913 0.0167932 -0.221954
v -0.0586712 -0.035015 0.028608
vn 0.975443 0.0231231 -0.219036
v -0.0586712 -0.0336965 0.0287789
vn 0.976195 0.03329 -0.214325
v -0.0592444 -0.000152954 0.0513226
vn -0.0154577 0.999787 0.0136743
v -0.0599427 -0.000152954 0.0505315
vn -0.0230468 0.999534 0.020008
v -0.0607382 -0.000398694 0.049603
vn -0.768759 0.0172471 0.639307
v -0.0607327 -0.000152954 0.0495993
vn -0.0251378 0.999462 0.0210742
v -0.0613832 -0.000152954 0.0488083
vn -0.732123 0.332812 0.594334
v -0.0687364 -0.0130496 0.0382792
vn -0.905255 -0.0109592 0.424727
v -0.0621733 -0.000152954 0.0478241
vn -0.657874 0.538681 0.526331
v -0.0628035 -0.000152954 0.047033
vn -0.686825 0.532986 0.494164
v -0.0632555 -0.000152954 0.0463199
vn -0.71973 0.52484 0.454457
v -0.0633382 -0.000152954 0.0461862
vn -0.729279 0.5221 0.442225
v -0.0639739 -0.000152954 0.0451352
vn -0.730064 0.521866 0.441205
v -0.0640878 -0.000152954 0.0449457
vn -0.733639 0.520787 0.436525
v -0.0719647 -0.000152954 0.0317055
vn -0.857164 0.264163 0.44214
v -0.0687052 -0.0146327 0.0382792
vn -0.904879 -0.0212872 0.425137
v -0.0686225 -0.0177943 0.0382792
vn -0.903692 -0.0339458 0.426836
v -0.068527 -0.0193774 0.0382792
vn -0.901488 -0.0575046 0.428968
v -0.0724829 -0.0304452 0.0284706
vn -0.898118 -0.0696956 0.434196
v -0.06917 -0.0331814 0.0345132
vn -0.888834 -0.0909813 0.449107
v -0.0679261 -0.0336682 0.0368345
vn -0.878828 -0.10466 0.465518
v -0.0674888 -0.0342353 0.0374547
vn -0.858643 -0.117214 0.498992
v -0.0668788 -0.0351899 0.0382792
vn -0.847146 -0.127621 0.515806
v -0.0660373 -0.0367683 0.0392114
vn -0.829528 -0.135471 0.541785
v -0.0654934 -0.0367683 0.0400025
vn -0.799675 -0.14446 0.582796
v -0.0659381 -0.0375859 0.0390925
vn -0.827948 -0.266977 0.493178
v -0.0643083 -0.0421841 0.0390071
vn -0.797645 -0.309476 0.517675
v -0.0616716 -0.0446226 0.041514
vn -0.783653 -0.30196 0.54287
v -0.0610965 -0.0420754 0.0437053
vn -0.759425 -0.299764 0.577421
v -0.0604149 -0.0416028 0.0446449
vn -0.712417 -0.240515 0.659253
v -0.0595605 -0.0421841 0.0453543
vn -0.663412 -0.354643 0.658873
v -0.0589431 -0.0416028 0.0460005
vn -0.584815 -0.188441 0.788975
v -0.0673271 -0.000152954 0.0140976
vn 0.692884 0.130416 -0.709156
v -0.061023 -0.045114 0.0420934
vn -0.672691 -0.39362 0.626538
v -0.0614806 -0.0458182 0.0410387
vn -0.737227 -0.496292 0.458466
v -0.0595292 -0.0469429 0.042138
vn -0.625905 -0.568941 0.533431
v -0.0599445 -0.0473399 0.0410832
vn -0.641079 -0.705114 0.303038
v -0.0589762 -0.0482425 0.0398613
vn -0.551168 -0.834083 -0.022797
v -0.060119 -0.0474533 0.0398613
vn -0.59908 -0.800684 -0.00294222
v -0.0600474 -0.0473588 0.0382792
vn -0.547787 -0.828976 -0.112815
v -0.0596009 -0.0470516 0.0343238
vn -0.514926 -0.844841 -0.145238
v -0.058809 -0.0476423 0.0351149
vn -0.444777 -0.872227 -0.203452
v -0.061973 -0.0448494 0.0303759
vn -0.415819 -0.876877 -0.241207
v -0.062978 -0.0440224 0.0291317
vn -0.404198 -0.877168 -0.259231
v -0.0645306 -0.0424251 0.0262385
vn -0.158503 -0.839891 -0.519095
v -0.061973 -0.0442776 0.0288569
vn -0.169862 -0.87699 -0.449484
v -0.061973 -0.043857 0.0280658
vn 0.0503417 -0.778652 -0.625433
v -0.060391 -0.0443721 0.0289794
vn 0.204603 -0.700513 -0.68368
v -0.0592794 -0.0441547 0.0292914
vn 0.488306 -0.479353 -0.729231
v -0.0595917 -0.0423258 0.0279952
vn 0.607434 -0.337163 -0.719267
v -0.0691406 -0.0295142 0.0140976
vn 0.507211 -0.208957 -0.836107
v -0.0687989 -0.0285596 0.0140976
vn 0.61661 -0.172889 -0.76805
v -0.0685251 -0.0272789 0.0140976
vn 0.713768 -0.109964 -0.691696
v -0.0684663 -0.0266504 0.0140976
vn 0.766261 -0.0633305 -0.6394
v -0.0683947 -0.0257005 0.0140976
vn 0.784986 -0.0513342 -0.617383
v -0.0683653 -0.0251051 0.0140976
vn 0.810706 -0.0338962 -0.584471
v -0.0770102 -0.0209606 0.0201328
vn -0.933397 -0.0108308 0.358683
v -0.0723653 -0.000152954 0.0306024
vn -0.784566 0.582796 0.211673
v -0.0770084 -0.0200107 0.0201291
vn -0.96076 0.0776116 0.2663
v -0.0770029 -0.0217687 0.0201142
vn -0.932262 -0.0939486 0.349373
v -0.0724075 -0.0316125 0.0283443
vn -0.911919 -0.195881 0.360603
v -0.0688191 -0.0336682 0.0350703
vn -0.887881 -0.170122 0.427466
v -0.0678232 -0.0351899 0.0365113
vn -0.887529 -0.185414 0.421799
v -0.0674227 -0.0351899 0.0373024
vn -0.870764 -0.167862 0.46216
v -0.0665738 -0.0367683 0.0382792
vn -0.862683 -0.182181 0.471792
v -0.0672536 -0.0367683 0.0369756
vn -0.871578 -0.209492 0.443243
v -0.0675366 -0.0376237 0.0359654
vn -0.87656 -0.267134 0.400352
v -0.0658921 -0.0405773 0.0374213
vn -0.841816 -0.304334 0.445787
v -0.064187 -0.0432474 0.038398
vn -0.816225 -0.389134 0.427027
v -0.076255 -0.000152954 0.0140976
vn -0.0103541 0.999941 -0.0031606
v -0.0643377 -0.0438712 0.037425
vn -0.789814 -0.564206 0.240553
v -0.0616955 -0.0460261 0.0398613
vn -0.719705 -0.660798 0.213001
v -0.0609091 -0.04682 0.0398613
vn -0.661596 -0.745744 0.0784661
v -0.06438 -0.0439231 0.0351149
vn -0.672679 -0.739377 -0.0287266
v -0.0643469 -0.0438901 0.0343127
vn -0.643495 -0.761934 -0.0732818
v -0.0608375 -0.0468011 0.0382792
vn -0.583476 -0.808684 -0.074737
v -0.0636468 -0.0443012 0.033685
vn -0.566973 -0.817218 -0.103423
v -0.0633179 -0.0443059 0.031958
vn -0.553834 -0.824805 -0.113859
v -0.0631636 -0.0441689 0.0303759
vn -0.533442 -0.835611 -0.131125
v -0.0647658 -0.0426141 0.0272116
vn -0.516698 -0.833977 -0.193664
v -0.0698774 -0.0346039 0.0165488
vn 0.0795849 -0.745369 -0.661885
v -0.0661457 -0.0408703 0.0246527
vn -0.495375 -0.806867 -0.321823
v -0.0709119 -0.0345755 0.0165525
vn -0.345265 -0.817261 -0.461386
v -0.060391 -0.0434978 0.0281884
vn 0.322264 -0.614492 -0.720101
v -0.0702137 -0.0332287 0.0150744
vn 0.341201 -0.585211 -0.735602
v -0.069159 -0.0326616 0.0154123
vn 0.55453 -0.397751 -0.730952
v -0.069532 -0.0303554 0.0140976
vn 0.451442 -0.215394 -0.865913
v -0.0774181 -0.00720855 0.0140976
vn -0.646934 0.0136297 -0.762424
v -0.0774383 -0.0193774 0.0140976
vn -0.547511 -0.00287207 -0.836794
v -0.0763212 -0.000398694 0.0140976
vn -0.932168 0.223824 -0.284546
v -0.0766942 -0.00198183 0.0140976
vn -0.977047 0.189805 -0.0967103
v -0.0769385 -0.00475114 0.0150521
vn -0.959363 0.15949 0.232777
v -0.077012 -0.00580499 0.0154123
vn -0.962441 0.0896965 0.256245
v -0.0773501 -0.0209606 0.0140976
vn -0.474781 -0.0322838 -0.879512
v -0.0772233 -0.022539 0.0140976
vn -0.452243 -0.0454956 -0.890734
v -0.0770782 -0.0236637 0.0140976
vn -0.418639 -0.0647428 -0.905842
v -0.0769624 -0.0242261 0.0140976
vn -0.847465 -0.184161 -0.497884
v -0.0764719 -0.0257005 0.0161403
vn -0.969857 -0.232108 0.0741902
v -0.076323 -0.0257005 0.0177224
vn -0.967935 -0.230844 0.0990607
v -0.0759335 -0.0272789 0.0177224
vn -0.958565 -0.260427 0.115462
v -0.0754888 -0.0282666 0.0188143
vn -0.936285 -0.307709 0.16937
v -0.0738536 -0.0296985 0.0248941
vn -0.943225 -0.250295 0.218355
v -0.0725362 -0.0320945 0.0271967
vn -0.922409 -0.331049 0.19892
v -0.0721797 -0.0326663 0.027713
vn -0.90084 -0.366778 0.232298
v -0.0704379 -0.0351993 0.0304316
vn -0.894915 -0.360815 0.262563
v -0.0706197 -0.034136 0.0309998
vn -0.89375 -0.266858 0.360553
v -0.067634 -0.0367683 0.0361845
vn -0.888973 -0.196162 0.413821
v -0.0677442 -0.0379876 0.0351149
vn -0.889185 -0.322119 0.324946
v -0.0661181 -0.0411491 0.0363665
vn -0.878332 -0.381287 0.288364
v -0.065701 -0.0416122 0.0368159
vn -0.834139 -0.393209 0.38678
v -0.064391 -0.0439326 0.0363702
vn -0.723186 -0.690505 0.0143131
v -0.0658646 -0.0422077 0.0351149
vn -0.833045 -0.544779 0.0961852
v -0.0687952 -0.0388429 0.0256294
vn -0.729782 -0.682936 -0.0318904
v -0.068007 -0.0396085 0.0256294
vn -0.687826 -0.722151 -0.0734331
v -0.0657213 -0.0420895 0.0287937
vn -0.671068 -0.736681 -0.0834799
v -0.0649312 -0.04277 0.0287937
vn -0.587896 -0.801293 -0.110938
v -0.0655577 -0.0419903 0.0272116
vn -0.632543 -0.762453 -0.136216
v -0.0663276 -0.041031 0.0256294
vn -0.590866 -0.77839 -0.212098
v -0.0714594 -0.0331909 0.0150484
vn -0.145951 -0.733942 -0.663346
v -0.0691976 -0.0376662 0.0214958
vn -0.56954 -0.776739 -0.268888
v -0.0711342 -0.034774 0.0177224
vn -0.666059 -0.715331 -0.211347
v -0.0723304 -0.0329026 0.0152266
vn -0.650536 -0.700751 -0.292833
v -0.0715954 -0.0321843 0.0140976
vn -0.00777823 -0.053881 -0.998517
v -0.0714797 -0.0321796 0.0140976
vn 0.00982829 -0.030374 -0.99949
v -0.0704562 -0.0318157 0.0140976
vn 0.0141618 -0.0307503 -0.999427
v -0.0702688 -0.0316219 0.0140976
vn 0.112478 -0.103692 -0.988229
v -0.0700446 -0.0313715 0.0140976
vn 0.0766715 -0.0446039 -0.996058
v -0.0772674 -0.00564904 0.0140976
vn -0.157824 0.0202479 -0.98726
v -0.0769073 -0.00322471 0.0140976
vn -0.106707 0.0166808 -0.994151
v -0.0769018 -0.0244529 0.0140976
vn -0.243029 -0.0725498 -0.967302
v -0.076007 -0.0272789 0.0161403
vn -0.952861 -0.30273 0.0202535
v -0.0755623 -0.0284462 0.0177224
vn -0.938985 -0.3394 0.0558082
v -0.0739546 -0.0299017 0.024051
vn -0.921558 -0.351948 0.163898
v -0.0752206 -0.0292354 0.0177224
vn -0.880553 -0.469271 0.0664132
v -0.0723892 -0.0330964 0.0256294
vn -0.898301 -0.42194 0.122568
v -0.0723065 -0.0329262 0.0266619
vn -0.907678 -0.385502 0.165859
v -0.0705701 -0.0357428 0.0287937
vn -0.877231 -0.450255 0.166543
v -0.0690231 -0.037222 0.0322997
vn -0.885074 -0.391788 0.251288
v -0.066289 -0.0414185 0.0351149
vn -0.874099 -0.443739 0.197603
v -0.0658646 -0.0422266 0.0335365
vn -0.762308 -0.647187 0.00594912
v -0.0694659 -0.0380537 0.0256294
vn -0.803434 -0.595144 0.0172367
v -0.0706363 -0.0359082 0.0277167
vn -0.860639 -0.496515 0.113022
v -0.0706932 -0.0360216 0.0266656
vn -0.84685 -0.524393 0.0886388
v -0.0702578 -0.0368723 0.0256294
vn -0.83913 -0.539609 0.0684317
v -0.0694438 -0.0379923 0.024051
vn -0.771394 -0.632253 -0.0721715
v -0.0686299 -0.0387862 0.024051
vn -0.664736 -0.734451 -0.136776
v -0.0671177 -0.0403977 0.0256294
vn -0.642809 -0.753655 -0.137112
v -0.0678416 -0.0394242 0.024051
vn -0.609421 -0.767227 -0.199923
v -0.0727272 -0.0318299 0.0140976
vn -0.0245594 -0.0430946 -0.998769
v -0.0693299 -0.0378222 0.0224689
vn -0.706542 -0.69043 -0.155258
v -0.0719261 -0.0339848 0.0177224
vn -0.747103 -0.648714 -0.14494
v -0.0736864 -0.0310926 0.0145618
vn -0.769048 -0.621728 -0.14839
v -0.073815 -0.0307902 0.0140976
vn -0.0443426 -0.038582 -0.998271
v -0.0735853 -0.0310218 0.0140976
vn -0.0287282 -0.0300563 -0.999135
v -0.0765159 -0.0257005 0.0140976
vn -0.155008 -0.05514 -0.986373
v -0.0755862 -0.0284698 0.0161403
vn -0.92812 -0.37063 -0.0350134
v -0.0752169 -0.0292638 0.0161403
vn -0.842629 -0.536752 -0.0432829
v -0.0721191 -0.0341786 0.0208867
vn -0.828768 -0.559367 -0.0158963
v -0.0721172 -0.0341549 0.0224689
vn -0.849335 -0.527062 0.0289083
v -0.0720676 -0.0340604 0.024051
vn -0.869739 -0.487657 0.0757921
v -0.0724737 -0.0332665 0.024051
vn -0.886291 -0.453038 0.0961552
v -0.0719813 -0.0338856 0.0256294
vn -0.878634 -0.463972 0.112838
v -0.0690984 -0.0375764 0.0312449
vn -0.877161 -0.434907 0.203579
v -0.0720658 -0.0341266 0.0193046
vn -0.788456 -0.608679 -0.0885794
v -0.0743092 -0.0302987 0.0145618
vn -0.797841 -0.591202 -0.118025
v -0.0742578 -0.0302326 0.0140976
vn -0.0237657 -0.0172663 -0.999568
v -0.0758802 -0.0273167 0.0140976
vn -0.10355 -0.0413781 -0.993763
v -0.0755201 -0.0282997 0.0145618
vn -0.901333 -0.422158 -0.0968519
v -0.0751012 -0.0290889 0.0145618
vn -0.848786 -0.513607 -0.125581
v -0.0744268 -0.0304074 0.0161403
vn -0.809924 -0.580307 -0.0852497
v -0.0750736 -0.0289944 0.0140976
vn -0.0313597 -0.0203633 -0.999301
v -0.0754925 -0.0282335 0.0140976
vn -0.021986 -0.0100892 -0.999707
v -0.0752426 -0.0287061 0.0140976
vn -0.0397464 -0.0214841 -0.998979
f 1//1 2//2 3//3
f 1//1 3//3 4//4
f 1//1 4//4 5//5
f 1//1 5//5 6//6
f 1//1 6//6 2//2
f 2//2 6//6 7//7
f 2//2 7//7 8//8
f 2//2 8//8 3//3
f 3//3 8//8 9//9
f 3//3 9//9 10//10
f 3//3 10//10 11//11
f 3//3 11//11 4//4
f 4//4 12//12 13//13
f 4//4 13//13 14//14
f 4//4 14//14 15//15
f 4//4 15//15 16//16
f 4//4 16//16 5//5
f 4//4 11//11 17//17
f 4//4 17//17 18//18
f 4//4 18//18 19//19
f 4//4 19//19 20//20
f 4//4 20//20 21//21
f 4//4 21//21 22//22
f 4//4 22//22 23//23
f 4//4 23//23 12//12
f 5//5 16//16 6//6
f 6//6 24//24 25//25
f 6//6 25//25 7//7
f 6//6 16//16 15//15
f 6//6 15//15 14//14
f 6//6 14//14 26//26
f 6//6 26//26 27//27
f 6//6 27//27 28//28
f 6//6 28//28 29//29
f 6//6 29//29 23//23
f 6//6 23//23 22//22
f 6//6 22//22 30//30
f 6//6 30//30 31//31
f 6//6 31//31 32//32
f 6//6 32//32 33//33
f 6//6 33//33 34//34
f 6//6 34//34 35//35
f 6//6 35//35 36//36
f 6//6 36//36 37//37
f 6//6 37//37 38//38
f 6//6 38//38 39//39
f 6//6 39//39 40//40
f 6//6 40//40 41//41
f 6//6 41//41 42//42
f 6//6 42//42 43//43
f 6//6 43//43 44//44
f 6//6 44//44 45//45
f 6//6 45//45 46//46
f 6//6 46//46 47//47
f 6//6 47//47 48//48
f 6//6 48//48 49//49
f 6//6 49//49 50//50
f 6//6 50//50 51//51
f 6//6 51//51 52//52
f 6//6 52//52 53//53
f 6//6 53//53 54//54
f 6//6 54//54 55//55
f 6//6 55//55 56//56
f 6//6 56//56 57//57
f 6//6 57//57 58//58
f 6//6 58//58 59//59
f 6//6 59//59 60//60
f 6//6 60//60 61//61
f 6//6 61//61 24//24
f 7//7 25//25 8//8
f 8//8 25//25 62//62
f 8//8 62//62 63//63
f 8//8 63//63 9//9
f 9//9 64//64 11//11
f 9//9 11//11 10//10
f 9//9 63//63 65//65
f 9//9 65//65 64//64
f 11//11 64//64 66//66
f 11//11 66//66 17//17
f 12//12 29//29 28//28
f 12//12 28//28 27//27
f 12//12 27//27 26//26
f 12//12 26//26 13//13
f 12//12 23//23 29//29
f 13//13 26//26 14//14
f 17//17 67//67 18//18
f 17//17 66//66 68//68
f 17//17 68//68 69//69
f 17//17 69//69 70//70
f 17//17 70//70 71//71
f 17//17 71//71 72//72
f 17//17 72//72 73//73
f 17//17 73//73 74//74
f 17//17 74//74 67//67
f 18//18 67//67 75//75
f 18//18 75//75 76//76
f 18//18 76//76 77//77
f 18//18 77//77 78//78
f 18//18 78//78 79//79
f 18//18 79//79 80//80
f 18//18 80//80 81//81
f 18//18 81//81 82//82
f 18//18 82//82 83//83
f 18//18 83//83 84//84
f 18//18 84//84 19//19
f 19//19 84//84 85//85
f 19//19 85//85 86//86
f 19//19 86//86 87//87
f 19//19 87//87 88//88
f 19//19 88//88 20//20
f 20//20 88//88 89//89
f 20//20 89//89 21//21
f 21//21 89//89 90//90
f 21//21 90//90 91//91
f 21//21 91//91 22//22
f 22//22 91//91 30//30
f 24//24 92//92 129//129
f 24//24 129//129 117//117
f 24//24 117//117 74//74
f 24//24 74//74 73//73
f 24//24 73//73 72//72
f 24//24 72//72 71//71
f 24//24 71//71 70//70
f 24//24 70//70 69//69
f 24//24 69//69 68//68
f 24//24 68//68 66//66
f 24//24 66//66 65//65
f 24//24 65//65 63//63
f 24//24 63//63 62//62
f 24//24 62//62 25//25
f 24//24 61//61 92//92
f 30//30 91//91 31//31
f 31//31 91//91 90//90
f 31//31 90//90 32//32
f 32//32 90//90 33//33
f 33//33 93//93 34//34
f 33//33 90//90 93//93
f 34//34 93//93 94//94
f 34//34 94//94 35//35
f 35//35 95//95 36//36
f 35//35 94//94 95//95
f 36//36 95//95 94//94
f 36//36 94//94 96//96
f 36//36 96//96 37//37
f 37//37 97//97 38//38
f 37//37 96//96 98//98
f 37//37 98//98 97//97
f 38//38 97//97 39//39
f 39//39 97//97 99//99
f 39//39 99//99 100//100
f 39//39 100//100 40//40
f 40//40 100//100 41//41
f 41//41 100//100 42//42
f 42//42 101//101 43//43
f 42//42 100//100 101//101
f 43//43 101//101 100//100
f 43//43 100//100 102//102
f 43//43 102//102 44//44
f 44//44 102//102 103//103
f 44//44 103//103 104//104
f 44//44 104//104 45//45
f 45//45 104//104 46//46
f 46//46 104//104 105//105
f 46//46 105//105 106//106
f 46//46 106//106 47//47
f 47//47 106//106 107//107
f 47//47 107//107 48//48
f 48//48 107//107 108//108
f 48//48 108//108 49//49
f 49//49 108//108 50//50
f 50//50 108//108 109//109
f 50//50 109//109 51//51
f 51//51 109//109 110//110
f 51//51 110//110 111//111
f 51//51 111//111 52//52
f 52//52 111//111 53//53
f 53//53 111//111 112//112
f 53//53 112//112 54//54
f 54//54 112//112 55//55
f 55//55 112//112 113//113
f 55//55 113//113 114//114
f 55//55 114//114 115//115
f 55//55 115//115 56//56
f 56//56 115//115 92//92
f 56//56 92//92 57//57
f 57//57 92//92 58//58
f 58//58 92//92 59//59
f 59//59 92//92 60//60
f 60//60 92//92 61//61
f 64//64 65//65 66//66
f 67//67 74//74 116//116
f 67//67 116//116 75//75
f 74//74 117//117 118//118
f 74//74 118//118 116//116
f 75//75 116//116 119//119
f 75//75 119//119 76//76
f 76//76 119//119 77//77
f 77//77 119//119 78//78
f 78//78 119//119 120//120
f 78//78 120//120 79//79
f 79//79 120//120 121//121
f 79//79 121//121 80//80
f 80//80 121//121 122//122
f 80//80 122//122 123//123
f 80//80 123//123 82//82
f 80//80 82//82 81//81
f 82//82 123//123 124//124
f 82//82 124//124 83//83
f 83//83 124//124 85//85
f 83//83 85//85 84//84
f 85//85 124//124 125//125
f 85//85 125//125 126//126
f 85//85 126//126 127//127
f 85//85 127//127 86//86
f 86//86 127//127 128//128
f 86//86 128//128 94//94
f 86//86 94//94 87//87
f 87//87 94//94 93//93
f 87//87 93//93 88//88
f 88//88 93//93 90//90
f 88//88 90//90 89//89
f 92//92 115//115 114//114
f 92//92 114//114 113//113
f 92//92 113//113 112//112
f 92//92 112//112 111//111
f 92//92 111//111 110//110
f 92//92 110//110 146//146
f 92//92 146//146 186//186
f 92//92 186//186 185//185
f 92//92 185//185 184//184
f 92//92 184//184 183//183
f 92//92 183//183 182//182
f 92//92 182//182 208//208
f 92//92 208//208 213//213
f 92//92 213//213 212//212
f 92//92 212//212 225//225
f 92//92 225//225 230//230
f 92//92 230//230 232//232
f 92//92 232//232 231//231
f 92//92 231//231 226//226
f 92//92 226//226 214//214
f 92//92 214//214 189//189
f 92//92 189//189 156//156
f 92//92 156//156 155//155
f 92//92 155//155 154//154
f 92//92 154//154 153//153
f 92//92 153//153 148//148
f 92//92 148//148 147//147
f 92//92 147//147 187//187
f 92//92 187//187 188//188
f 92//92 188//188 150//150
f 92//92 150//150 149//149
f 92//92 149//149 129//129
f 94//94 128//128 130//130
f 94//94 130//130 131//131
f 94//94 131//131 132//132
f 94//94 132//132 96//96
f 96//96 132//132 98//98
f 97//97 98//98 99//99
f 98//98 132//132 133//133
f 98//98 133//133 134//134
f 98//98 134//134 135//135
f 98//98 135//135 99//99
f 99//99 135//135 134//134
f 99//99 134//134 136//136
f 99//99 136//136 137//137
f 99//99 137//137 138//138
f 99//99 138//138 100//100
f 100//100 138//138 139//139
f 100//100 139//139 103//103
f 100//100 103//103 102//102
f 103//103 139//139 104//104
f 104//104 140//140 106//106
f 104//104 106//106 105//105
f 104//104 139//139 141//141
f 104//104 141//141 142//142
f 104//104 142//142 140//140
f 106//106 140//140 107//107
f 107//107 143//143 108//108
f 107//107 140//140 144//144
f 107//107 144//144 143//143
f 108//108 143//143 144//144
f 108//108 144//144 145//145
f 108//108 145//145 109//109
f 109//109 145//145 146//146
f 109//109 146//146 110//110
f 116//116 118//118 147//147
f 116//116 147//147 148//148
f 116//116 148//148 119//119
f 117//117 129//129 149//149
f 117//117 149//149 150//150
f 117//117 150//150 151//151
f 117//117 151//151 152//152
f 117//117 152//152 118//118
f 118//118 152//152 147//147
f 119//119 148//148 153//153
f 119//119 153//153 154//154
f 119//119 154//154 155//155
f 119//119 155//155 156//156
f 119//119 156//156 157//157
f 119//119 157//157 158//158
f 119//119 158//158 159//159
f 119//119 159//159 160//160
f 119//119 160//160 161//161
f 119//119 161//161 120//120
f 120//120 162//162 163//163
f 120//120 163//163 164//164
f 120//120 164//164 165//165
f 120//120 165//165 166//166
f 120//120 166//166 122//122
f 120//120 122//122 121//121
f 120//120 161//161 162//162
f 122//122 166//166 125//125
f 122//122 125//125 123//123
f 123//123 125//125 124//124
f 125//125 166//166 126//126
f 126//126 167//167 168//168
f 126//126 168//168 127//127
f 126//126 166//166 165//165
f 126//126 165//165 167//167
f 127//127 168//168 169//169
f 127//127 169//169 128//128
f 128//128 169//169 130//130
f 130//130 170//170 132//132
f 130//130 132//132 131//131
f 130//130 169//169 168//168
f 130//130 168//168 171//171
f 130//130 171//171 170//170
f 132//132 170//170 133//133
f 133//133 170//170 172//172
f 133//133 172//172 134//134
f 134//134 172//172 173//173
f 134//134 173//173 174//174
f 134//134 174//174 175//175
f 134//134 175//175 136//136
f 136//136 175//175 137//137
f 137//137 175//175 138//138
f 138//138 175//175 139//139
f 139//139 175//175 176//176
f 139//139 176//176 177//177
f 139//139 177//177 141//141
f 140//140 142//142 178//178
f 140//140 178//178 144//144
f 141//141 177//177 179//179
f 141//141 179//179 142//142
f 142//142 179//179 180//180
f 142//142 180//180 181//181
f 142//142 181//181 178//178
f 144//144 178//178 182//182
f 144//144 182//182 183//183
f 144//144 183//183 184//184
f 144//144 184//184 185//185
f 144//144 185//185 145//145
f 145//145 185//185 186//186
f 145//145 186//186 146//146
f 147//147 152//152 187//187
f 150//150 188//188 151//151
f 151//151 188//188 187//187
f 151//151 187//187 152//152
f 156//156 189//189 157//157
f 157//157 190//190 159//159
f 157//157 159//159 158//158
f 157//157 189//189 190//190
f 159//159 190//190 191//191
f 159//159 191//191 160//160
f 160//160 192//192 161//161
f 160//160 191//191 193//193
f 160//160 193//193 194//194
f 160//160 194//194 195//195
f 160//160 195//195 192//192
f 161//161 192//192 162//162
f 162//162 195//195 163//163
f 162//162 192//192 195//195
f 163//163 195//195 164//164
f 164//164 196//196 197//197
f 164//164 197//197 167//167
f 164//164 167//167 165//165
f 164//164 195//195 196//196
f 167//167 197//197 168//168
f 168//168 198//198 171//171
f 168//168 197//197 198//198
f 170//170 171//171 199//199
f 170//170 199//199 172//172
f 171//171 200//200 199//199
f 171//171 198//198 196//196
f 171//171 196//196 201//201
f 171//171 201//201 202//202
f 171//171 202//202 203//203
f 171//171 203//203 200//200
f 172//172 199//199 200//200
f 172//172 200//200 204//204
f 172//172 204//204 205//205
f 172//172 205//205 173//173
f 173//173 205//205 206//206
f 173//173 206//206 174//174
f 174//174 206//206 176//176
f 174//174 176//176 175//175
f 176//176 206//206 177//177
f 177//177 206//206 207//207
f 177//177 207//207 179//179
f 178//178 181//181 208//208
f 178//178 208//208 182//182
f 179//179 209//209 180//180
f 179//179 207//207 209//209
f 180//180 209//209 210//210
f 180//180 210//210 181//181
f 181//181 210//210 211//211
f 181//181 211//211 212//212
f 181//181 212//212 213//213
f 181//181 213//213 208//208
f 189//189 214//214 190//190
f 190//190 214//214 215//215
f 190//190 215//215 191//191
f 191//191 215//215 193//193
f 193//193 215//215 216//216
f 193//193 216//216 217//217
f 193//193 217//217 218//218
f 193//193 218//218 219//219
f 193//193 219//219 220//220
f 193//193 220//220 194//194
f 194//194 220//220 219//219
f 194//194 219//219 221//221
f 194//194 221//221 196//196
f 194//194 196//196 195//195
f 196//196 198//198 222//222
f 196//196 222//222 197//197
f 196//196 221//221 201//201
f 197//197 222//222 198//198
f 200//200 203//203 218//218
f 200//200 218//218 217//217
f 200//200 217//217 204//204
f 201//201 221//221 219//219
f 201//201 219//219 202//202
f 202//202 219//219 203//203
f 203//203 219//219 218//218
f 204//204 217//217 223//223
f 204//204 223//223 209//209
f 204//204 209//209 205//205
f 205//205 207//207 206//206
f 205//205 209//209 207//207
f 209//209 223//223 210//210
f 210//210 223//223 224//224
f 210//210 224//224 211//211
f 211//211 224//224 225//225
f 211//211 225//225 212//212
f 214//214 226//226 215//215
f 215//215 226//226 227//227
f 215//215 227//227 216//216
f 216//216 227//227 228//228
f 216//216 228//228 224//224
f 216//216 224//224 229//229
f 216//216 229//229 223//223
f 216//216 223//223 217//217
f 223//223 229//229 224//224
f 224//224 228//228 230//230
f 224//224 230//230 225//225
f 226//226 231//231 227//227
f 227//227 231//231 232//232
f 227//227 232//232 228//228
f 228//228 232//232 230//230
