# Created by Open3D 
# object name: part_023
# number of vertices: 148
# number of triangles: 292
v -0.00131128 -7.92882e-05 0.081303
vn -0.956496 -0.290989 0.0209981
v -0.00131128 -7.92882e-05 0.0634665
vn -0.568101 -0.667901 -0.480801
v 0.0139406 -7.92882e-05 0.0804016
vn 0.0649697 0.111755 0.99161
v -0.00131128 0.00277026 0.0810388
vn 0.058744 0.0928911 0.993942
v 0.0153071 -7.92882e-05 0.0616673
vn 0.79117 -0.495491 -0.358525
v -0.00131128 0.0265441 0.0443195
vn -0.61601 -0.272171 -0.739226
v -0.00131128 0.00332947 0.0809845
vn 0.0586892 0.102359 0.993015
v 0.0142741 -7.92882e-05 0.080369
vn 0.0985786 0.0735279 0.992409
v 0.00603489 0.010677 0.0796016
vn 0.0941716 0.157516 0.983016
v 0.00603489 0.00909665 0.0798115
vn 0.066354 0.122427 0.990257
v -0.00131128 0.00435064 0.0808759
vn 0.0643603 0.118532 0.990862
v 0.0153071 0.0260481 0.0443195
vn 0.413957 -0.30132 -0.85898
v 0.0153071 -7.92882e-05 0.0802387
vn 0.0613163 -0.998117 0.0014227
v -0.00131128 0.0492918 0.0443195
vn -0.999797 0.0201374 -0.000639888
v 0.0152469 -7.92882e-05 0.0802496
vn 0.0673117 -0.843114 0.533505
v 0.0149101 0.00052855 0.080217
vn 0.14637 0.184817 0.971812
v 0.00445211 0.010677 0.0796885
vn 0.0314836 0.179306 0.983289
v -0.00131128 0.00593102 0.0806804
vn 0.0472431 0.134559 0.989779
v 0.00761441 0.010677 0.0793663
vn 0.146664 0.187166 0.971318
v 0.00761441 0.0122574 0.0790585
vn 0.151326 0.197498 0.968553
v 0.00603489 0.0122574 0.079254
vn 0.0747865 0.255488 0.963915
v 0.00445211 0.0122574 0.0793554
vn 0.0263351 0.239073 0.970644
v -0.00131128 0.00491472 0.0808071
vn 0.0480991 0.122621 0.991287
v 0.0153071 0.0493745 0.0443195
vn 0.516469 0.000971308 -0.856305
v 0.0153071 0.000937017 0.0800686
vn 0.999766 0.00408465 0.0212585
v -0.00029134 0.0493842 0.0443195
vn -0.0893316 0.995499 -0.0316331
v -0.00131128 0.0274388 0.0724771
vn -0.888696 0.360791 0.282931
v 0.0153071 0.00593102 0.0790839
vn 0.971165 0.0466075 0.233806
v 0.0115136 0.011421 0.0786024
vn 0.158221 0.196802 0.967592
v -0.00131128 0.00867846 0.0801844
vn -0.0631384 0.209585 0.97575
v -0.00131128 0.00790528 0.0803437
vn -0.0979363 0.198848 0.975125
v -0.00131128 0.00756003 0.0804125
vn -0.0471336 0.17293 0.983806
v -0.00131128 0.00650482 0.0805899
vn -0.0264076 0.162215 0.986402
v 0.0107767 0.0138378 0.0781897
vn 0.176896 0.222018 0.958862
v 0.00870105 0.0132445 0.0786603
vn 0.145532 0.235225 0.960984
v 0.00761441 0.0135314 0.0787436
vn 0.121102 0.252673 0.959943
v 0.00649524 0.0145477 0.0785843
vn 0.0906263 0.276191 0.95682
v 0.00599422 0.0139496 0.078787
vn 0.066375 0.26773 0.961205
v 0.00240084 0.0210346 0.0770602
vn 0.0735067 0.302675 0.950255
v 0.00287096 0.0138378 0.0789536
vn -0.00317246 0.250226 0.968182
v 0.00287096 0.0122574 0.0793482
vn -0.00561465 0.240589 0.970611
v -0.00131128 0.00979688 0.079931
vn -0.132444 0.228493 0.964494
v 0.00287096 0.0495982 0.0443195
vn 0.000140159 0.99612 -0.088001
v 0.0153071 0.0493307 0.044381
vn 0.92562 0.308345 0.219435
v 0.00128981 0.0495252 0.0443195
vn -0.0464148 0.837749 0.54408
v -0.00131128 0.0266851 0.0732663
vn -0.982122 0.134158 0.132055
v 0.00128981 0.026014 0.0741858
vn -0.0535836 0.685327 0.726262
v 0.00128981 0.0268066 0.0733459
vn -0.0493782 0.728844 0.682897
v 0.00287096 0.0268504 0.0734075
vn -0.0423003 0.730862 0.681213
v 0.00445211 0.0276187 0.0726726
vn -0.0387432 0.768357 0.638847
v 0.00445211 0.0284065 0.0716626
vn -0.0449738 0.788088 0.613918
v 0.0153071 0.00750168 0.0787617
vn 0.980449 0.0395598 0.192756
v 0.0153071 0.00773023 0.0787146
vn 0.919153 0.0878718 0.383973
v 0.0107767 0.0154182 0.077806
vn 0.17091 0.247413 0.953717
v 0.0153071 0.00906261 0.0784069
vn 0.904999 0.102436 0.412896
v 0.00761441 0.0143241 0.0785228
vn 0.119648 0.271062 0.955097
v 0.00761441 0.0154182 0.0782078
vn 0.104754 0.28675 0.952261
v 0.00163792 0.0210346 0.0770602
vn -0.0251461 0.283846 0.95854
v 0.0104481 0.0180246 0.0771037
vn 0.114182 0.294443 0.948823
v 0.00345657 0.020845 0.0770023
vn 0.105671 0.297494 0.948858
v 0.00761441 0.0217446 0.0762529
vn 0.108264 0.33507 0.935952
v 0.00761441 0.0231402 0.0756918
vn 0.0978534 0.372806 0.922735
v 0.00761441 0.0239328 0.0753696
vn 0.0885519 0.386959 0.917835
v 0.00635372 0.0240641 0.0754239
vn 0.0727122 0.422462 0.903459
v 0.00445211 0.0233298 0.0758873
vn 0.0632397 0.409139 0.910278
v 0.00287096 0.0233298 0.0759959
vn 0.0163388 0.424284 0.905382
v 0.00128981 0.0148541 0.0786748
vn -0.0134017 0.252253 0.967569
v -0.00131128 0.0112411 0.0795726
vn -0.102296 0.254865 0.96155
v -0.00131128 0.010677 0.0797138
vn -0.125157 0.239683 0.96275
v 0.0153071 0.0463061 0.0486311
vn 0.921438 0.311676 0.231971
v 0.00254399 0.0495836 0.0443195
vn -0.0456618 0.989797 -0.134971
v 0.0139406 0.0306628 0.0693637
vn -0.0337458 0.788457 0.614164
v 0.0153071 0.0313727 0.0685094
vn 0.900756 0.346704 0.261603
v 0.00603489 0.0284502 0.0717169
vn -0.0390194 0.788573 0.613702
v 0.0123579 0.0306093 0.0693348
vn -0.0381875 0.788838 0.613414
v -0.00131128 0.0258925 0.074041
vn -0.977171 0.129545 0.16839
v -0.00029134 0.0259459 0.0740989
vn -0.0724895 0.652297 0.754489
v 0.00287096 0.0260578 0.0742329
vn -0.0241792 0.678692 0.734025
v 0.00128981 0.0249977 0.074975
vn -0.0749836 0.583865 0.808381
v 0.00287096 0.0250658 0.0750221
vn -0.00901064 0.58793 0.808862
v 0.00445211 0.0268699 0.0734618
vn -0.0260615 0.717212 0.696368
v 0.00603489 0.0276576 0.0727052
vn -0.0207939 0.75453 0.655936
v 0.0120634 0.0167068 0.0771869
vn 0.234367 0.257041 0.937551
v 0.0115022 0.017762 0.0770132
vn 0.187648 0.292057 0.937812
v 0.0108955 0.0171396 0.0773028
vn 0.12662 0.27344 0.953519
v 0.0123579 0.0138378 0.0778567
vn 0.213423 0.241638 0.946605
v 0.0153071 0.010677 0.0779834
vn 0.986262 0.043158 0.159451
v 0.00118245 0.0216376 0.0767453
vn -0.0754552 0.427594 0.900816
v 0.000583823 0.0209325 0.0770204
vn -0.115069 0.327455 0.937834
v 0.00128981 0.0233298 0.0759416
vn -0.0572881 0.436953 0.897658
v 0.0115982 0.0225566 0.0754492
vn 0.153715 0.312441 0.937418
v 0.00919556 0.0201642 0.0765751
vn 0.122806 0.309214 0.94303
v 0.00761441 0.0201642 0.0767525
vn 0.105932 0.297673 0.948772
v 0.0107767 0.0234319 0.0752175
vn 0.111589 0.366911 0.923539
v 0.0107767 0.0249053 0.0746202
vn 0.0942967 0.418071 0.903507
v 0.00445211 0.0242051 0.0754927
vn 0.0547293 0.477018 0.877188
v 0.00761441 0.0249053 0.0748809
vn 0.0697477 0.467807 0.881074
v 0.00287096 0.0242829 0.0755325
vn 7.28402e-05 0.487158 0.873314
v -0.00131128 0.0128215 0.0791346
vn -0.639833 0.208474 0.739697
v 0.0153071 0.0306871 0.0693782
vn 0.963448 0.203887 0.173774
v 0.0107767 0.0291699 0.071058
vn -0.0147897 0.759483 0.650359
v -0.00131128 0.0248567 0.0747759
vn -0.954383 0.167646 0.247081
v 0.00445211 0.0260821 0.0742256
vn 0.00329343 0.646483 0.762921
v 0.00603489 0.0268747 0.0734944
vn -0.00420271 0.69843 0.715666
v -0.000187231 0.0247594 0.0749714
vn -0.0933703 0.556957 0.825276
v 0.000411393 0.024137 0.0754565
vn -0.0978725 0.478474 0.87263
v 0.00128981 0.02421 0.0754963
vn -0.0545063 0.511408 0.857608
v 0.00445211 0.0249929 0.0750184
vn 0.0423571 0.53313 0.844972
v 0.00761441 0.0260675 0.0741641
vn 0.0316909 0.58963 0.807052
v 0.00603489 0.0260821 0.0742003
vn 0.0183558 0.623554 0.781565
v 0.00761441 0.0276576 0.0727124
vn -0.00221714 0.720521 0.69343
v 0.0107767 0.0284746 0.0718472
vn 0.000250084 0.739423 0.673241
v 0.0153071 0.0154425 0.0766801
vn 0.98631 0.0435346 0.159054
v 0.0153071 0.0183747 0.0758764
vn 0.986383 0.0441183 0.158438
v 0.0153071 0.0217348 0.0749279
vn 0.986448 0.0446406 0.157886
v 0.0153071 0.0233298 0.0744754
vn 0.852365 0.156369 0.499021
v -0.000187231 0.0234222 0.0757352
vn -0.103902 0.431694 0.896016
v -0.00131128 0.0239328 0.0753551
vn -0.874853 0.221785 0.430631
v -0.00131128 0.0231888 0.0757063
vn -0.929457 0.152318 0.336019
v -0.00131128 0.0217446 0.076347
vn -0.90231 0.162744 0.399187
v -0.00131128 0.0203295 0.076872
vn -0.773067 0.192891 0.604285
v -0.00131128 0.014645 0.0786133
vn -0.719304 0.200447 0.665149
v 0.0122196 0.0231791 0.0751234
vn 0.158694 0.346821 0.924409
v 0.0123579 0.0249053 0.0744211
vn 0.14511 0.388022 0.910155
v 0.0123579 0.0258292 0.0739577
vn 0.121329 0.511556 0.850641
v 0.0107767 0.0259751 0.0740591
vn 0.0714544 0.525697 0.847666
v 0.0153071 0.0305898 0.0694868
vn 0.954369 0.216263 0.20594
v 0.00761441 0.0268553 0.0735016
vn 0.0122521 0.666964 0.744989
v 0.0107767 0.0276868 0.0726834
vn 0.0302878 0.699091 0.714391
v 0.00919556 0.0276673 0.0727052
vn -0.000245085 0.717692 0.69636
v 0.00919556 0.0260286 0.0741098
vn 0.043846 0.562619 0.825553
v 0.0107767 0.0267629 0.0734763
vn 0.0638559 0.619603 0.782313
v 0.00919556 0.0268164 0.0734944
vn 0.0247353 0.646784 0.762272
v 0.0153071 0.0243413 0.0741206
vn 0.945471 0.115255 0.304632
v 0.0153071 0.0245601 0.0740338
vn 0.990784 0.0534112 0.124477
v 0.0153071 0.0253284 0.0736971
vn 0.994213 0.045922 0.0971152
v 0.0142644 0.0255278 0.0737876
vn 0.157524 0.456007 0.875924
v 0.0132086 0.0257125 0.0738745
vn 0.151416 0.465313 0.872099
v 0.0153071 0.0263204 0.0731541
vn 0.992467 0.0602453 0.106677
v 0.0153071 0.0264663 0.0730672
vn 0.992663 0.0644693 0.102296
v 0.0153071 0.0273026 0.072535
vn 0.965551 0.146556 0.215017
v 0.0123579 0.0266219 0.0733966
vn 0.0961503 0.590406 0.801359
v 0.0153071 0.0298167 0.0702833
vn 0.986702 0.115696 0.114168
v 0.0123579 0.0276284 0.0726074
vn 0.0750519 0.651078 0.755291
v 0.0153071 0.029024 0.0710688
vn 0.979105 0.136757 0.150501
v 0.0153071 0.0291359 0.0709602
vn 0.986576 0.114954 0.115986
v 0.0153071 0.0274534 0.0724264
vn 0.954101 0.186745 0.234132
v 0.0153071 0.0281342 0.0718508
vn 0.993816 0.0726113 0.084009
f 1//1 2//2 5//5
f 1//1 5//5 13//13
f 1//1 13//13 15//15
f 1//1 15//15 8//8
f 1//1 8//8 3//3
f 1//1 3//3 4//4
f 1//1 4//4 7//7
f 1//1 7//7 11//11
f 1//1 11//11 23//23
f 1//1 23//23 18//18
f 1//1 18//18 33//33
f 1//1 33//33 32//32
f 1//1 32//32 31//31
f 1//1 31//31 30//30
f 1//1 30//30 42//42
f 1//1 42//42 69//69
f 1//1 69//69 68//68
f 1//1 68//68 99//99
f 1//1 99//99 122//122
f 1//1 122//122 121//121
f 1//1 121//121 120//120
f 1//1 120//120 119//119
f 1//1 119//119 118//118
f 1//1 118//118 102//102
f 1//1 102//102 76//76
f 1//1 76//76 46//46
f 1//1 46//46 27//27
f 1//1 27//27 14//14
f 1//1 14//14 6//6
f 1//1 6//6 2//2
f 2//2 6//6 5//5
f 3//3 7//7 4//4
f 3//3 8//8 9//9
f 3//3 9//9 10//10
f 3//3 10//10 11//11
f 3//3 11//11 7//7
f 5//5 12//12 24//24
f 5//5 24//24 44//44
f 5//5 44//44 70//70
f 5//5 70//70 73//73
f 5//5 73//73 100//100
f 5//5 100//100 127//127
f 5//5 127//127 143//143
f 5//5 143//143 146//146
f 5//5 146//146 145//145
f 5//5 145//145 148//148
f 5//5 148//148 147//147
f 5//5 147//147 141//141
f 5//5 141//141 140//140
f 5//5 140//140 139//139
f 5//5 139//139 136//136
f 5//5 136//136 135//135
f 5//5 135//135 134//134
f 5//5 134//134 116//116
f 5//5 116//116 115//115
f 5//5 115//115 114//114
f 5//5 114//114 113//113
f 5//5 113//113 87//87
f 5//5 87//87 55//55
f 5//5 55//55 53//53
f 5//5 53//53 52//52
f 5//5 52//52 28//28
f 5//5 28//28 25//25
f 5//5 25//25 13//13
f 5//5 6//6 12//12
f 6//6 14//14 26//26
f 6//6 26//26 45//45
f 6//6 45//45 71//71
f 6//6 71//71 43//43
f 6//6 43//43 24//24
f 6//6 24//24 12//12
f 8//8 15//15 16//16
f 8//8 16//16 9//9
f 9//9 17//17 18//18
f 9//9 18//18 10//10
f 9//9 16//16 19//19
f 9//9 19//19 20//20
f 9//9 20//20 21//21
f 9//9 21//21 22//22
f 9//9 22//22 17//17
f 10//10 18//18 23//23
f 10//10 23//23 11//11
f 13//13 25//25 16//16
f 13//13 16//16 15//15
f 14//14 27//27 26//26
f 16//16 25//25 28//28
f 16//16 28//28 29//29
f 16//16 29//29 20//20
f 16//16 20//20 19//19
f 17//17 30//30 31//31
f 17//17 31//31 32//32
f 17//17 32//32 33//33
f 17//17 33//33 18//18
f 17//17 22//22 30//30
f 20//20 34//34 35//35
f 20//20 35//35 36//36
f 20//20 36//36 21//21
f 20//20 29//29 34//34
f 21//21 36//36 37//37
f 21//21 37//37 38//38
f 21//21 38//38 39//39
f 21//21 39//39 22//22
f 22//22 39//39 40//40
f 22//22 40//40 41//41
f 22//22 41//41 42//42
f 22//22 42//42 30//30
f 24//24 43//43 44//44
f 26//26 27//27 45//45
f 27//27 46//46 47//47
f 27//27 47//47 48//48
f 27//27 48//48 49//49
f 27//27 49//49 50//50
f 27//27 50//50 51//51
f 27//27 51//51 45//45
f 28//28 52//52 29//29
f 29//29 52//52 53//53
f 29//29 53//53 34//34
f 34//34 54//54 35//35
f 34//34 53//53 55//55
f 34//34 55//55 54//54
f 35//35 54//54 36//36
f 36//36 56//56 37//37
f 36//36 54//54 56//56
f 37//37 56//56 57//57
f 37//37 57//57 39//39
f 37//37 39//39 38//38
f 39//39 58//58 40//40
f 39//39 57//57 59//59
f 39//39 59//59 60//60
f 39//39 60//60 61//61
f 39//39 61//61 62//62
f 39//39 62//62 63//63
f 39//39 63//63 64//64
f 39//39 64//64 65//65
f 39//39 65//65 66//66
f 39//39 66//66 58//58
f 40//40 58//58 67//67
f 40//40 67//67 68//68
f 40//40 68//68 69//69
f 40//40 69//69 41//41
f 41//41 69//69 42//42
f 43//43 70//70 44//44
f 43//43 71//71 72//72
f 43//43 72//72 73//73
f 43//43 73//73 70//70
f 45//45 51//51 74//74
f 45//45 74//74 75//75
f 45//45 75//75 72//72
f 45//45 72//72 71//71
f 46//46 76//76 77//77
f 46//46 77//77 47//47
f 47//47 78//78 49//49
f 47//47 49//49 48//48
f 47//47 77//77 79//79
f 47//47 79//79 80//80
f 47//47 80//80 78//78
f 49//49 81//81 50//50
f 49//49 78//78 81//81
f 50//50 81//81 82//82
f 50//50 82//82 72//72
f 50//50 72//72 74//74
f 50//50 74//74 51//51
f 54//54 83//83 84//84
f 54//54 84//84 85//85
f 54//54 85//85 56//56
f 54//54 55//55 86//86
f 54//54 86//86 83//83
f 55//55 87//87 83//83
f 55//55 83//83 86//86
f 56//56 85//85 57//57
f 57//57 85//85 59//59
f 58//58 88//88 89//89
f 58//58 89//89 68//68
f 58//58 68//68 67//67
f 58//58 66//66 90//90
f 58//58 90//90 88//88
f 59//59 84//84 91//91
f 59//59 91//91 92//92
f 59//59 92//92 93//93
f 59//59 93//93 60//60
f 59//59 85//85 84//84
f 60//60 93//93 61//61
f 61//61 91//91 94//94
f 61//61 94//94 62//62
f 61//61 93//93 92//92
f 61//61 92//92 91//91
f 62//62 94//94 95//95
f 62//62 95//95 63//63
f 63//63 95//95 64//64
f 64//64 96//96 65//65
f 64//64 95//95 97//97
f 64//64 97//97 96//96
f 65//65 96//96 66//66
f 66//66 96//96 98//98
f 66//66 98//98 90//90
f 68//68 89//89 99//99
f 72//72 100//100 73//73
f 72//72 75//75 74//74
f 72//72 82//82 101//101
f 72//72 101//101 100//100
f 76//76 102//102 79//79
f 76//76 79//79 77//77
f 78//78 103//103 104//104
f 78//78 104//104 81//81
f 78//78 80//80 103//103
f 79//79 102//102 105//105
f 79//79 105//105 106//106
f 79//79 106//106 107//107
f 79//79 107//107 80//80
f 80//80 107//107 98//98
f 80//80 98//98 108//108
f 80//80 108//108 109//109
f 80//80 109//109 110//110
f 80//80 110//110 103//103
f 81//81 104//104 82//82
f 82//82 104//104 111//111
f 82//82 111//111 112//112
f 82//82 112//112 101//101
f 83//83 87//87 113//113
f 83//83 113//113 114//114
f 83//83 114//114 115//115
f 83//83 115//115 116//116
f 83//83 116//116 84//84
f 84//84 116//116 91//91
f 88//88 90//90 89//89
f 89//89 90//90 106//106
f 89//89 106//106 117//117
f 89//89 117//117 118//118
f 89//89 118//118 119//119
f 89//89 119//119 120//120
f 89//89 120//120 121//121
f 89//89 121//121 122//122
f 89//89 122//122 99//99
f 90//90 98//98 107//107
f 90//90 107//107 106//106
f 91//91 116//116 123//123
f 91//91 123//123 94//94
f 94//94 124//124 95//95
f 94//94 123//123 124//124
f 95//95 124//124 125//125
f 95//95 125//125 126//126
f 95//95 126//126 97//97
f 96//96 97//97 126//126
f 96//96 126//126 108//108
f 96//96 108//108 98//98
f 100//100 101//101 112//112
f 100//100 112//112 127//127
f 102//102 118//118 106//106
f 102//102 106//106 105//105
f 103//103 110//110 128//128
f 103//103 128//128 104//104
f 104//104 128//128 129//129
f 104//104 129//129 130//130
f 104//104 130//130 111//111
f 106//106 118//118 117//117
f 108//108 126//126 131//131
f 108//108 131//131 109//109
f 109//109 131//131 132//132
f 109//109 132//132 133//133
f 109//109 133//133 110//110
f 110//110 133//133 128//128
f 111//111 130//130 112//112
f 112//112 130//130 129//129
f 112//112 129//129 127//127
f 116//116 134//134 123//123
f 123//123 134//134 124//124
f 124//124 134//134 135//135
f 124//124 135//135 136//136
f 124//124 136//136 137//137
f 124//124 137//137 138//138
f 124//124 138//138 125//125
f 125//125 139//139 140//140
f 125//125 140//140 141//141
f 125//125 141//141 126//126
f 125//125 138//138 139//139
f 126//126 141//141 142//142
f 126//126 142//142 132//132
f 126//126 132//132 131//131
f 127//127 129//129 143//143
f 128//128 133//133 129//129
f 129//129 133//133 132//132
f 129//129 132//132 144//144
f 129//129 144//144 145//145
f 129//129 145//145 146//146
f 129//129 146//146 143//143
f 132//132 147//147 144//144
f 132//132 142//142 147//147
f 136//136 139//139 137//137
f 137//137 139//139 138//138
f 141//141 147//147 142//142
f 144//144 147//147 148//148
f 144//144 148//148 145//145
