# Created by Open3D 
# object name: part_014
# number of vertices: 383
# number of triangles: 762
v 0.00287109 -0.025696 0.0795269
vn 3.62032e-07 1 1.80049e-05
v 0.00129132 -0.025696 0.0795269
vn -0.0215348 -0.275299 0.961118
v 0.00287109 -0.0257035 0.0795269
vn 0.0240665 -0.288645 0.957134
v 0.00445437 -0.025696 0.0794633
vn 0.0481512 -0.275562 0.960076
v -0.000291958 -0.025696 0.079428
vn -0.00398125 0.998668 0.0514498
v -0.000291958 -0.0257035 0.079428
vn -0.0738006 -0.297763 0.951783
v 0.00129132 -0.0272848 0.0790358
vn -0.0393384 -0.302022 0.952489
v 0.00287109 -0.0272848 0.0790429
vn 0.00839419 -0.296649 0.95495
v 0.00445437 -0.0283177 0.0786825
vn 0.0317305 -0.292381 0.955775
v 0.00445437 -0.0272848 0.0789934
vn 0.0395797 -0.285217 0.957645
v 0.00603414 -0.025696 0.0793715
vn 0.0639618 -0.257813 0.964075
v 0.00574341 -0.0282351 0.0786543
vn 0.0598643 -0.285095 0.956628
v -0.00131128 -0.025696 0.0793256
vn -0.998448 0.0556849 0.000824776
v -0.00131128 -0.0266425 0.0790358
vn -0.097743 -0.293879 0.950832
v -0.00131128 -0.0272735 0.078838
vn -0.0976291 -0.298678 0.949347
v -0.00131128 -0.0277543 0.0786861
vn -0.0929537 -0.301059 0.949064
v -0.000435573 -0.0274388 0.0788662
vn -0.0734706 -0.303472 0.950004
v -4.7265e-06 -0.0282088 0.0786507
vn -0.0685622 -0.31529 0.946516
v 0.00129132 -0.028329 0.0786931
vn -0.0331641 -0.316174 0.948121
v 0.00287109 -0.0283515 0.0787037
vn -0.000637836 -0.3154 0.948959
v 0.00445437 -0.0291102 0.0784352
vn 0.0346356 -0.313339 0.949009
v 0.00761742 -0.0257035 0.0792514
vn 0.0852377 -0.285082 0.954706
v 0.00761742 -0.025696 0.0792514
vn 0.00431915 0.998878 0.0471557
v 0.00617426 -0.0288022 0.0784423
vn 0.0835573 -0.306508 0.948194
v -0.00131128 -0.025696 0.0636101
vn -0.38238 0.588932 -0.712
v -0.00131128 -0.028036 0.0785942
vn -0.0951911 -0.314654 0.944421
v -0.000435573 -0.0287872 0.0784175
vn -0.0750249 -0.332004 0.94029
v 0.00129132 -0.0291177 0.0784246
vn -0.039349 -0.331667 0.942575
v 0.00287109 -0.029144 0.0784317
vn -0.00361165 -0.325204 0.945637
v 0.00445437 -0.0304474 0.0779794
vn 0.0214221 -0.327441 0.944629
v 0.00603414 -0.0304474 0.0778982
vn 0.0757897 -0.322835 0.943416
v 0.0091972 -0.0257035 0.0790818
vn 0.104956 -0.289933 0.951275
v 0.00761742 -0.0271496 0.0788097
vn 0.0986944 -0.29175 0.951389
v 0.0091972 -0.025696 0.0790818
vn 0.00435346 0.999205 0.0396177
v 0.00761742 -0.0288661 0.0782585
vn 0.112504 -0.321143 0.940324
v 0.00761742 -0.0279384 0.0785659
vn 0.103789 -0.302569 0.94746
v 0.0344736 -0.025696 0.0535018
vn 0.466989 0.791415 -0.39444
v 0.0344736 -0.0464742 0.0442803
vn -0.250377 0.390992 -0.885684
v -0.00131128 -0.0541177 0.051071
vn -0.541132 0.3378 -0.770109
v -0.00131128 -0.028314 0.0784988
vn -0.166914 -0.321118 0.932214
v -0.00131128 -0.028836 0.0783186
vn -0.150698 -0.336977 0.929374
v 0.000394596 -0.0328512 0.0770396
vn -0.0821367 -0.33974 0.936926
v 0.00287109 -0.0304474 0.077983
vn -0.00517628 -0.328538 0.944477
v 0.00129132 -0.0329263 0.0770679
vn -0.0373256 -0.339878 0.939729
v 0.00287109 -0.0329864 0.0770891
vn -0.0143929 -0.343897 0.938897
v 0.00287109 -0.0320286 0.0774283
vn -0.00436136 -0.332268 0.943175
v 0.00445437 -0.0320286 0.0774212
vn 0.0147399 -0.333431 0.942659
v 0.00568036 -0.0329151 0.0770643
vn 0.050746 -0.336503 0.940314
v 0.00673471 -0.0327949 0.0770184
vn 0.11399 -0.329181 0.937361
v 0.0121466 -0.025696 0.0787497
vn 0.113398 -0.161754 0.980294
v 0.0091972 -0.0268679 0.0787249
vn 0.106495 -0.29336 0.950052
v 0.0171031 -0.0272848 0.0776508
vn 0.122689 -0.317879 0.94016
v 0.0155233 -0.0272848 0.0778416
vn 0.113434 -0.309494 0.944111
v 0.0091972 -0.0276604 0.0784776
vn 0.112075 -0.30627 0.945324
v 0.0344736 -0.025696 0.0709061
vn 0.0249051 0.999678 0.00485439
v 0.0344736 -0.0479278 0.0436796
vn -0.237855 0.350119 -0.906003
v -0.00131128 -0.0547299 0.0508378
vn -0.584292 0.280513 -0.761521
v -0.00131128 -0.0331817 0.0767287
vn -0.180626 -0.338136 0.923601
v -0.00131128 -0.0335648 0.0765874
vn -0.251853 -0.34475 0.904277
v -0.000197382 -0.0334709 0.0767428
vn -0.0832959 -0.369842 0.925353
v 0.00129132 -0.0337188 0.0767605
vn -0.048207 -0.378955 0.924159
v 0.00445437 -0.0329751 0.0770855
vn 0.0170791 -0.347426 0.937552
v 0.00287109 -0.0337752 0.0767817
vn -0.0101611 -0.391416 0.920158
v 0.00445437 -0.0337639 0.0767782
vn 0.0210127 -0.379744 0.924853
v 0.00613923 -0.0335123 0.0768064
vn 0.0649687 -0.368187 0.927479
v 0.00761742 -0.0351912 0.0760079
vn 0.122856 -0.359229 0.925128
v 0.00761742 -0.0336099 0.0766086
vn 0.125746 -0.345779 0.929852
v 0.0171031 -0.0285018 0.0772127
vn 0.13545 -0.356008 0.924614
v 0.0139435 -0.025696 0.0785377
vn 0.115269 -0.248182 0.961831
v 0.018231 -0.0282989 0.0771173
vn 0.177155 -0.36994 0.912009
v 0.0187284 -0.0273487 0.0773011
vn 0.214655 -0.267259 0.939412
v 0.0171031 -0.025696 0.0780925
vn 0.183004 0.200862 0.962374
v 0.0154637 -0.025696 0.0783504
vn 0.139071 0.0802436 0.987026
v 0.0319375 -0.025696 0.0721921
vn 0.0371353 0.996244 0.0782279
v 0.0318395 -0.0260228 0.0721462
vn 0.431121 -0.268756 0.861339
v 0.0344736 -0.0264284 0.0706799
vn 0.988615 -0.0453647 0.143465
v 0.0344736 -0.0480405 0.0436443
vn -0.0436336 0.152033 -0.987412
v -0.00131128 -0.0558154 0.0504456
vn -0.473054 0.181997 -0.862031
v -0.00131128 -0.0346128 0.0761775
vn -0.379511 -0.340179 0.860378
v -0.00131128 -0.0351912 0.0759443
vn -0.271642 -0.363055 0.891292
v -0.000291958 -0.0351912 0.0760397
vn -0.0677547 -0.388467 0.918968
v 0.00129132 -0.0351912 0.0761281
vn -0.0274051 -0.422355 0.906016
v 0.00287109 -0.0351912 0.0761599
vn -0.00858024 -0.426074 0.904648
v 0.00445437 -0.0351912 0.0761599
vn 0.00445934 -0.427498 0.904005
v 0.00603414 -0.0351912 0.0761316
vn 0.0444816 -0.39398 0.918042
v 0.00761742 -0.0362354 0.0755628
vn 0.0894072 -0.411294 0.907107
v 0.0087068 -0.0361001 0.0754956
vn 0.13813 -0.366671 0.920039
v 0.0123602 -0.0381622 0.0741106
vn 0.14349 -0.366236 0.919392
v 0.0187284 -0.0288398 0.0767534
vn 0.256366 -0.371824 0.892201
v 0.0192853 -0.0279196 0.0769725
vn 0.276336 -0.362149 0.890217
v 0.0139435 -0.0386167 0.0736761
vn 0.158256 -0.371693 0.914768
v 0.0155233 -0.039935 0.0728422
vn 0.172679 -0.375891 0.910433
v 0.017012 -0.0399726 0.0725348
vn 0.194698 -0.37669 0.905648
v 0.0183536 -0.039473 0.0724253
vn 0.25353 -0.373912 0.892139
v 0.0197512 -0.0268679 0.0771491
vn 0.369604 -0.27934 0.886207
v 0.0186828 -0.0257035 0.0777604
vn 0.244246 -0.24393 0.938532
v 0.0186828 -0.025696 0.0777604
vn 0.000982105 0.999989 0.00453757
v 0.0314576 -0.025696 0.0724041
vn 0.0956686 0.971446 0.217118
v 0.0307851 -0.0268491 0.0723865
vn 0.385201 -0.255337 0.886805
v 0.031321 -0.0273412 0.0719801
vn 0.425328 -0.280104 0.860603
v 0.0330129 -0.0273449 0.0711322
vn 0.431559 -0.280796 0.857269
v 0.0339411 -0.0268566 0.0708177
vn 0.43694 -0.273564 0.856882
v 0.0336014 -0.0279121 0.0706446
vn 0.446906 -0.294474 0.844725
v 0.0344736 -0.0273374 0.0703761
vn 0.998673 -0.0170223 0.0486107
v 0.0344736 -0.0493964 0.0434535
vn -0.0325882 0.139145 -0.989736
v -0.00131128 -0.0564313 0.0503926
vn -0.686259 0.0609047 -0.724803
v 0.0344736 -0.0494227 0.04345
vn -0.0610556 0.0462739 -0.997061
v -0.00131128 -0.0357846 0.0756935
vn -0.584451 -0.32068 0.745373
v -0.00131128 -0.0361602 0.0755274
vn -0.395687 -0.37332 0.839085
v -0.000291958 -0.0362504 0.0755698
vn -0.0474449 -0.422597 0.905075
v -0.00131128 -0.0589103 0.0649068
vn -0.252223 -0.411255 0.875929
v -0.00131128 -0.0598193 0.0644757
vn -0.263601 -0.425908 0.865516
v 0.00603414 -0.0363105 0.0756122
vn 0.0256005 -0.432925 0.901066
v -0.000291958 -0.0598193 0.0644722
vn 0.0144095 -0.452721 0.891536
v 0.0123602 -0.0389547 0.0737891
vn 0.120545 -0.395821 0.910381
v 0.00761742 -0.0370279 0.0751918
vn 0.0771371 -0.426695 0.9011
v 0.0123602 -0.039935 0.0733439
vn 0.0985258 -0.426616 0.89905
v 0.0226761 -0.0328625 0.073881
vn 0.33423 -0.32915 0.883148
v 0.0218459 -0.0339555 0.0736831
vn 0.269466 -0.371742 0.888367
v 0.0139435 -0.039935 0.0731319
vn 0.144952 -0.405116 0.902702
v 0.0164305 -0.0407801 0.0723052
vn 0.169928 -0.452291 0.875532
v 0.0174814 -0.0405247 0.0721921
vn 0.229652 -0.414589 0.880554
v 0.0188019 -0.0399726 0.0720649
vn 0.260171 -0.406458 0.875844
v 0.0202661 -0.039935 0.0716374
vn 0.268223 -0.394119 0.879049
v 0.0219089 -0.0400252 0.0710933
vn 0.275556 -0.382183 0.882046
v 0.0194079 -0.0390974 0.0722628
vn 0.271967 -0.375263 0.886122
v 0.0209317 -0.025696 0.0769689
vn 0.190651 0.877243 0.440564
v 0.0202416 -0.025696 0.0772657
vn 0.113864 0.939552 0.322919
v 0.027573 -0.0314239 0.0723617
vn 0.367812 -0.311877 0.876041
v 0.0286274 -0.0307816 0.0721391
vn 0.377722 -0.293597 0.878138
v 0.0290127 -0.0297262 0.0723017
vn 0.382407 -0.265559 0.88501
v 0.0187844 -0.025696 0.0777286
vn 0.000733344 0.999997 0.002311
v 0.031272 -0.025696 0.0724854
vn 0.097637 0.969422 0.22514
v 0.030095 -0.0288661 0.0720826
vn 0.402281 -0.271481 0.874339
v 0.0296257 -0.0303309 0.0718388
vn 0.416879 -0.285872 0.862838
v 0.031328 -0.0303309 0.0709909
vn 0.429868 -0.283981 0.85707
v 0.0307956 -0.0315667 0.070846
vn 0.434705 -0.318181 0.842492
v 0.0344736 -0.0290013 0.069779
vn 0.978592 -0.0703051 0.19343
v -0.00131128 -0.057329 0.0503184
vn -0.575681 -0.0224866 -0.817365
v 0.0344736 -0.0510039 0.0434359
vn 0.0497464 -0.0929338 -0.994429
v -0.00131128 -0.036671 0.0752978
vn -0.681806 -0.302812 0.665917
v -0.00131128 -0.0369528 0.075167
vn -0.714278 -0.294848 0.634721
v -0.00131128 -0.037888 0.0747325
vn -0.722587 -0.292646 0.62628
v -0.00131128 -0.0606418 0.0635289
vn -0.996947 -0.0593088 0.0507891
v -0.000246421 -0.0607432 0.0634264
vn -0.000971169 -0.755016 0.655705
v 0.00761742 -0.0383537 0.0745558
vn 0.0559211 -0.439186 0.896654
v 0.00129132 -0.0597817 0.0644404
vn 0.0397436 -0.4542 0.890013
v 0.000594256 -0.0612841 0.062794
vn 0.0136576 -0.760515 0.649177
v 0.00164861 -0.0612728 0.0627798
vn 0.0227515 -0.758904 0.650805
v 0.00118974 -0.0607094 0.0634264
vn 0.0322148 -0.740207 0.671607
v 0.0091972 -0.0393115 0.0739516
vn 0.0793006 -0.443427 0.892795
v 0.0091972 -0.0383537 0.0744074
vn 0.0886385 -0.427295 0.899757
v 0.0123602 -0.0413811 0.0726302
vn 0.0998102 -0.452026 0.886403
v 0.0139435 -0.041182 0.0725278
vn 0.129764 -0.454844 0.881066
v 0.0232926 -0.0334785 0.073404
vn 0.357003 -0.330636 0.873629
v 0.0217583 -0.0382486 0.0718989
vn 0.279404 -0.374398 0.884172
v 0.0235833 -0.0385115 0.0711958
vn 0.295316 -0.372107 0.879957
v 0.0234397 -0.0352325 0.0726232
vn 0.310901 -0.366747 0.876834
v 0.0155233 -0.0409416 0.07239
vn 0.147216 -0.455462 0.877999
v 0.0155233 -0.0417304 0.0719766
vn 0.163565 -0.460817 0.872293
v 0.0107805 -0.0589103 0.0637868
vn 0.158838 -0.464346 0.871294
v 0.017012 -0.0413923 0.0718671
vn 0.196882 -0.466444 0.862361
v 0.0186828 -0.0415163 0.071376
vn 0.243253 -0.434971 0.866965
v 0.0214256 -0.0409679 0.0708177
vn 0.273336 -0.422014 0.864402
v 0.023163 -0.0395594 0.0708884
vn 0.2916 -0.379832 0.877894
v 0.0224799 -0.0406148 0.0706481
vn 0.307009 -0.413416 0.857224
v 0.0297973 -0.03207 0.071111
vn 0.394438 -0.346273 0.851184
v 0.0245045 -0.034733 0.0724253
vn 0.375158 -0.340165 0.86229
v 0.0339482 -0.0394843 0.0660939
vn 0.403734 -0.351873 0.844502
v 0.033766 -0.0360663 0.0675672
vn 0.42512 -0.334073 0.84123
v 0.0344736 -0.0355067 0.0674082
vn 0.977479 -0.0728188 0.198071
v -0.00131128 -0.0588314 0.0505163
vn -0.538819 -0.160729 -0.826946
v 0.0344736 -0.0525326 0.0436832
vn 0.225692 -0.157112 -0.961446
v -0.00131128 -0.0612691 0.0627798
vn -0.999421 -0.0260925 0.0218492
v -0.000743823 -0.0612803 0.0627869
vn -0.0119032 -0.767806 0.640572
v 0.000310528 -0.0612841 0.062794
vn -0.00554137 -0.767558 0.640956
v 0.00223358 -0.0597329 0.064398
vn 0.0921969 -0.472774 0.876347
v 0.00287109 -0.0612428 0.0627516
vn 0.0651616 -0.734481 0.675493
v -0.000246421 -0.0618024 0.062158
vn -0.000583065 -0.785668 0.618648
v 0.00118974 -0.0617912 0.0621545
vn 0.0128074 -0.788664 0.614691
v 0.00287109 -0.0619076 0.0619601
vn 0.0327461 -0.790989 0.610954
v 0.0239721 -0.0357846 0.0721992
vn 0.330895 -0.362891 0.871102
v 0.0242173 -0.0391425 0.0706976
vn 0.341386 -0.399118 0.850976
v 0.0107805 -0.0600333 0.0630837
vn 0.117407 -0.586794 0.801179
v 0.01208 -0.0598643 0.0629353
vn 0.186614 -0.643753 0.74213
v 0.0125109 -0.0590643 0.0633063
vn 0.200975 -0.484282 0.851516
v 0.0253557 -0.0547712 0.0626986
vn 0.208608 -0.466305 0.859676
v 0.0186828 -0.0425454 0.0708389
vn 0.220022 -0.45435 0.863224
v 0.0201365 -0.041505 0.0709485
vn 0.261066 -0.421861 0.868261
v 0.0195235 -0.0423351 0.0707153
vn 0.254785 -0.43659 0.862829
v 0.0205779 -0.0420233 0.0705598
vn 0.264954 -0.431837 0.862158
v 0.0262384 -0.0537158 0.062953
vn 0.29791 -0.419481 0.857488
v 0.0258181 -0.03758 0.0707082
vn 0.387099 -0.369215 0.844887
v 0.0250089 -0.0379706 0.0708813
vn 0.347156 -0.361638 0.865275
v 0.0334332 -0.040536 0.0658713
vn 0.390602 -0.377915 0.83941
v 0.0340602 -0.0426769 0.0645782
vn 0.420444 -0.379599 0.824095
v 0.0344736 -0.0417229 0.0648008
vn 0.99639 -0.0357446 0.0769994
v 0.0344736 -0.0399688 0.0655745
vn 0.999525 -0.0122742 0.0282663
v 0.0344736 -0.0382974 0.0662882
vn 0.999354 -0.01384 0.0331633
v 0.0343755 -0.0366635 0.0670125
vn 0.441128 -0.336801 0.831848
v 0.0344736 -0.0363781 0.0670726
vn 0.999013 -0.016046 0.0414121
v -0.00131128 -0.0594962 0.0507671
vn -0.768475 -0.228586 -0.597658
v 0.0344736 -0.0526904 0.0437114
vn 0.389747 -0.183464 -0.902462
v 0.0340918 -0.053111 0.0438598
vn -0.142999 -0.232688 -0.961981
v 0.0344736 -0.0532162 0.0438386
vn 0.0894814 -0.377833 -0.92154
v -0.00131128 -0.0616034 0.0623806
vn -0.999433 -0.0259296 0.0214982
v -0.00131128 -0.0618813 0.0620414
vn -0.991839 -0.100518 0.078429
v 0.0091972 -0.0609385 0.0624053
vn 0.0804409 -0.728916 0.679861
v 0.0091972 -0.0601498 0.0631791
vn 0.086306 -0.689719 0.718915
v 0.00445437 -0.0618588 0.0618753
vn 0.0707767 -0.771298 0.632527
v -0.000291958 -0.0627226 0.0609567
vn 0.00903681 -0.834502 0.550931
v 0.00287109 -0.0626964 0.0609073
vn 0.0307524 -0.847059 0.530608
v 0.0272928 -0.0532838 0.0627586
vn 0.335432 -0.406228 0.849979
v 0.030701 -0.0535054 0.0612924
vn 0.378113 -0.389739 0.839722
v 0.0107805 -0.0608221 0.0622711
vn 0.150042 -0.725331 0.67185
v 0.0125809 -0.0605667 0.0620626
vn 0.183096 -0.713387 0.676428
v 0.0155233 -0.0601798 0.0616634
vn 0.188873 -0.710786 0.677576
v 0.0171031 -0.0599545 0.0614443
vn 0.211175 -0.737232 0.64179
v 0.0131344 -0.0596916 0.0627869
vn 0.216104 -0.536929 0.815479
v 0.0249004 -0.0556088 0.0622923
vn 0.218044 -0.526839 0.821521
v 0.0250089 -0.0568595 0.0614514
vn 0.223032 -0.535727 0.814403
v 0.0259757 -0.0566379 0.0612994
vn 0.345605 -0.622055 0.70257
v 0.0265362 -0.0557628 0.0616422
vn 0.318406 -0.499102 0.805925
v 0.0266938 -0.0542116 0.0625184
vn 0.325771 -0.467224 0.821933
v 0.0322248 -0.0518979 0.0612606
vn 0.424318 -0.380987 0.821464
v 0.0332791 -0.0512969 0.060985
vn 0.441152 -0.382691 0.811747
v 0.0344736 -0.0497081 0.0610698
vn 0.997719 -0.0286909 0.0611004
v 0.0344736 -0.0366748 0.0669525
vn 0.999983 -0.00222764 0.00545101
v -0.00131128 -0.0605404 0.0511699
vn -0.46284 -0.364528 -0.808021
v 0.0344736 -0.0540313 0.0442379
vn 0.980744 -0.0930998 -0.171679
v 0.031335 -0.055436 0.0451883
vn -0.0975792 -0.422956 -0.900881
v -0.00131128 -0.0627189 0.0609461
vn -0.997736 -0.0575753 0.0347675
v 0.00761742 -0.0616897 0.0616987
vn 0.0767999 -0.783848 0.616186
v 0.0091972 -0.0615996 0.0616139
vn 0.0921506 -0.811026 0.577707
v 0.0107805 -0.0614944 0.0614832
vn 0.112548 -0.829845 0.546526
v 0.00445437 -0.0626475 0.0608225
vn 0.075281 -0.828852 0.554381
v -0.000291958 -0.0631133 0.0601653
vn 0.00525565 -0.926439 0.376408
v 0.00287109 -0.0630907 0.0601194
vn 0.0225832 -0.917287 0.397586
v 0.00445437 -0.0630532 0.060031
vn 0.060982 -0.910084 0.409912
v 0.0297553 -0.0538472 0.0614867
vn 0.332921 -0.473644 0.815368
v 0.0289181 -0.0549289 0.0611934
vn 0.351943 -0.537145 0.766558
v 0.0297553 -0.054636 0.0609744
vn 0.399164 -0.558509 0.727143
v 0.0313456 -0.0541815 0.0604303
vn 0.423505 -0.534569 0.731355
v 0.0325786 -0.0538059 0.0599462
vn 0.470673 -0.505579 0.723089
v 0.0317554 -0.0529533 0.0610027
vn 0.458165 -0.439987 0.772332
v 0.0120275 -0.0613893 0.0613383
vn 0.159411 -0.798397 0.580646
v 0.0130818 -0.0612653 0.0611864
vn 0.188034 -0.76787 0.612387
v 0.0218459 -0.0598681 0.0598438
vn 0.218034 -0.808787 0.54619
v 0.0181084 -0.0597892 0.0612924
vn 0.233474 -0.636986 0.734669
v 0.0139435 -0.0611639 0.0610309
vn 0.210123 -0.793752 0.570794
v 0.0226866 -0.0581403 0.0612288
vn 0.234944 -0.596673 0.767322
v 0.0289917 -0.0565515 0.0596495
vn 0.376301 -0.661927 0.648268
v 0.0309357 -0.0552031 0.0598614
vn 0.384208 -0.62911 0.675726
v 0.0237409 -0.0579187 0.0610274
vn 0.284786 -0.664596 0.690803
v 0.0250089 -0.0576483 0.0607447
vn 0.311859 -0.678633 0.664982
v 0.0259267 -0.0581892 0.0597201
vn 0.372324 -0.736279 0.565038
v 0.0344736 -0.0510114 0.0604374
vn 0.98072 -0.0921886 0.172309
v 0.0344736 -0.0509776 0.060455
vn 0.997783 -0.0290528 0.0598726
v 0.031335 -0.0562248 0.0455911
vn -0.0564408 -0.58236 -0.810969
v -0.00131128 -0.0608972 0.0513642
vn -0.805873 -0.293638 -0.514145
v 0.0344736 -0.0554135 0.0450717
vn 0.997637 -0.0355025 -0.0588139
v 0.0329183 -0.0562886 0.0455875
vn -0.0175563 -0.673626 -0.738863
v 0.0329183 -0.0554961 0.0451212
vn -0.0221639 -0.501749 -0.864729
v -0.00131128 -0.0631058 0.0601582
vn -0.998202 -0.0558718 0.0216988
v 0.00603414 -0.0625611 0.0606635
vn 0.105619 -0.8648 0.490882
v 0.0107805 -0.0620954 0.0604232
vn 0.132157 -0.889948 0.436494
v 0.00603414 -0.0629818 0.059872
vn 0.0904318 -0.906565 0.412264
v -0.000291958 -0.0635903 0.0588439
vn -0.00493579 -0.956991 0.290077
v 0.00129132 -0.0635828 0.0588439
vn 0.00454511 -0.956778 0.290785
v 0.00287109 -0.0635753 0.0588439
vn 0.0174796 -0.95219 0.305007
v 0.00445437 -0.0635189 0.0588439
vn 0.0670691 -0.9451 0.319825
v 0.0319901 -0.0548576 0.0595576
vn 0.436342 -0.588299 0.680816
v 0.0344736 -0.0527918 0.0593845
vn 0.996208 -0.0510006 0.0704825
v 0.0344736 -0.0525364 0.0595576
vn 0.995982 -0.0501326 0.0742022
v 0.0344736 -0.052112 0.0598438
vn 0.97789 -0.107394 0.179435
v 0.0344736 -0.0547712 0.0579253
vn 0.986236 -0.105004 0.127718
v 0.0344736 -0.0541965 0.0583563
vn 0.996266 -0.0512308 0.0694953
v 0.0124793 -0.0617235 0.0605645
vn 0.16762 -0.894928 0.413531
v 0.0139435 -0.0615883 0.0602395
vn 0.176089 -0.894668 0.410563
v 0.0227041 -0.0597329 0.0596707
vn 0.301751 -0.730996 0.612039
v 0.0155233 -0.0609686 0.0607059
vn 0.21194 -0.838978 0.501196
v 0.0175129 -0.0612015 0.0594587
vn 0.21176 -0.854133 0.474988
v 0.0218459 -0.0604428 0.0588439
vn 0.250934 -0.86624 0.432042
v 0.0218459 -0.0590831 0.0606352
vn 0.252807 -0.6752 0.69296
v 0.0155233 -0.0614231 0.0599144
vn 0.183847 -0.897418 0.401051
v 0.030046 -0.0562548 0.0593279
vn 0.387682 -0.68592 0.615806
v 0.0314366 -0.0558191 0.0589146
vn 0.409016 -0.664891 0.625
v 0.0250089 -0.0583957 0.0599533
vn 0.320041 -0.688943 0.650331
v 0.0344736 -0.0563562 0.0562117
vn 0.883263 -0.392252 0.256874
v 0.0319375 -0.0564389 0.0579076
vn 0.394707 -0.710249 0.582883
v 0.0250054 -0.0592145 0.0588015
vn 0.371142 -0.784132 0.497383
v 0.00761742 -0.0616635 0.0514561
vn -0.0329965 -0.664416 -0.746634
v -0.00131128 -0.0616034 0.0518341
vn -0.622601 -0.511642 -0.592106
v -0.00131128 -0.0613818 0.0516504
vn -0.809413 -0.325338 -0.488883
v 0.0344736 -0.055436 0.0450858
vn 0.998194 -0.0389011 -0.0457857
v 0.0344736 -0.0562285 0.0457642
vn 0.996304 -0.0620212 -0.0594327
v 0.0329183 -0.0570436 0.0463754
vn 0.0589994 -0.809595 -0.584016
v 0.031335 -0.0570736 0.0463825
vn -0.00155536 -0.722037 -0.691853
v 0.0139435 -0.0617423 0.0513218
vn -0.00640397 -0.723647 -0.69014
v 0.00761742 -0.062456 0.0521875
vn -0.0214741 -0.702981 -0.710884
v -0.00131128 -0.0635715 0.0588439
vn -0.99511 -0.0961693 0.0225419
v 0.00711652 -0.062918 0.0597449
vn 0.118769 -0.92045 0.372379
v 0.0107805 -0.0626738 0.0590382
vn 0.14044 -0.919666 0.36673
v 0.0122517 -0.0625424 0.0587202
vn 0.172735 -0.912966 0.36967
v 0.00287109 -0.0639809 0.0572611
vn -0.00689298 -0.989995 0.140934
v 0.00445437 -0.0639471 0.0572611
vn 0.0961971 -0.979513 0.176922
v 0.00603414 -0.0633499 0.0588439
vn 0.112223 -0.954779 0.275324
v 0.0329183 -0.0553308 0.0584376
vn 0.418871 -0.65893 0.624787
v 0.0344736 -0.0554698 0.0572469
vn 0.984212 -0.129655 0.120484
v 0.0233101 -0.0599733 0.0588015
vn 0.299312 -0.864938 0.402857
v 0.024473 -0.0598117 0.0582468
vn 0.361734 -0.827809 0.428813
v 0.0196706 -0.0613254 0.0581479
vn 0.18785 -0.929106 0.318549
v 0.0202241 -0.0609085 0.0587414
vn 0.2165 -0.875003 0.43301
v 0.020725 -0.0612127 0.0578299
vn 0.233968 -0.899577 0.368809
v 0.0219195 -0.061085 0.0572858
vn 0.27389 -0.896793 0.347486
v 0.0234292 -0.0606043 0.0572611
vn 0.311977 -0.887048 0.340317
v 0.0186828 -0.0614268 0.0583881
vn 0.177994 -0.915845 0.359925
v 0.0344736 -0.0568332 0.0554203
vn 0.852917 -0.468695 0.229906
v -0.00131128 -0.0630532 0.0531237
vn -0.877329 -0.353511 -0.324535
v -0.00131128 -0.062501 0.052615
vn -0.980652 -0.130105 -0.146268
v 0.0344736 -0.0568445 0.0465556
vn 0.986022 -0.140641 -0.0893365
v 0.0329183 -0.0578361 0.0475944
vn 0.117087 -0.865914 -0.486296
v 0.0218459 -0.0613818 0.0515833
vn 0.0708587 -0.839767 -0.538303
v 0.0155233 -0.0617123 0.0513254
vn 0.0529091 -0.826005 -0.561175
v 0.00761742 -0.0630795 0.0529789
vn 0.00915416 -0.837975 -0.545632
v -0.00131128 -0.0637818 0.0578228
vn -0.992111 -0.122828 0.0250659
v 0.0116492 -0.0628841 0.0581125
vn 0.155308 -0.955204 0.251923
v -0.00131128 -0.0639509 0.0562435
vn -0.975821 -0.218298 0.0108779
v 0.00287109 -0.0640673 0.0556782
vn -0.0112827 -0.990095 -0.139947
v 0.00445437 -0.0640448 0.0556782
vn 0.0681836 -0.994765 -0.0761127
v -0.00131128 -0.0638945 0.0572611
vn -0.993215 -0.115634 0.0123751
v 0.0107805 -0.0634363 0.0556782
vn 0.109944 -0.99304 0.0422462
v 0.0107805 -0.0631809 0.0572611
vn 0.131164 -0.975876 0.174533
v 0.0250054 -0.0599995 0.0572434
vn 0.343142 -0.875414 0.340446
v 0.0260528 -0.059793 0.0567028
vn 0.352695 -0.877134 0.325949
v 0.0214396 -0.061378 0.0567735
vn 0.184325 -0.953931 0.236727
v 0.0224939 -0.0612428 0.056293
vn 0.312614 -0.913353 0.26088
v 0.0344736 -0.0568445 0.055392
vn 0.968875 -0.2309 0.0892589
v 0.00603414 -0.0630832 0.0530177
vn -0.0102964 -0.875875 -0.482429
v -0.00131128 -0.0632372 0.0534559
vn -0.987185 -0.139777 -0.0769889
v 0.0344736 -0.0569835 0.0468171
vn 0.999756 -0.019588 -0.0101813
v 0.033738 -0.0581328 0.0485236
vn 0.233127 -0.943001 -0.237488
v 0.0227917 -0.0613179 0.0516751
vn 0.156925 -0.942231 -0.29593
v 0.0155233 -0.0624447 0.052516
vn 0.0763319 -0.892676 -0.444188
v 0.0140171 -0.0625949 0.0526468
vn 0.0403679 -0.86275 -0.504016
v 0.0091972 -0.0630381 0.0530389
vn 0.0406658 -0.924857 -0.378134
v 0.00445437 -0.0636391 0.0540989
vn 0.0113366 -0.944464 -0.328418
v -0.00131128 -0.0635903 0.0540989
vn -0.913671 -0.375836 -0.154763
v 0.01511 -0.0629067 0.0550705
vn 0.167332 -0.978286 0.1223
v 0.0155899 -0.0627076 0.0556287
vn 0.169835 -0.964889 0.200363
v 0.0171031 -0.0624297 0.0556782
vn 0.178382 -0.962276 0.205436
v -0.00131128 -0.0639659 0.0556782
vn -0.994886 -0.100097 -0.0135386
v -0.00131128 -0.0637368 0.0546607
vn -0.99526 -0.0946137 -0.0225014
v 0.00761742 -0.0635039 0.0540989
vn 0.0437212 -0.95525 -0.29255
v 0.0091972 -0.0634213 0.0540989
vn 0.0579251 -0.962251 -0.26593
v 0.0107805 -0.0633086 0.0540989
vn 0.0930475 -0.9906 -0.100268
v 0.01511 -0.0629067 0.0544239
vn 0.127528 -0.990538 -0.0507044
v 0.0271071 -0.0595977 0.0560209
vn 0.341083 -0.905029 0.254136
v 0.0344736 -0.0573441 0.0540989
vn 0.930361 -0.353252 0.0981899
v 0.0219195 -0.0614982 0.0557312
vn 0.192868 -0.970888 0.142051
v 0.0234082 -0.0610625 0.0557312
vn 0.337804 -0.917952 0.207971
v 0.0228652 -0.0613555 0.0552366
vn 0.311472 -0.938662 0.147983
v 0.0344736 -0.0575394 0.0478982
vn 0.999975 -0.00651411 -0.00276493
v 0.034358 -0.0575882 0.0479053
vn 0.312293 -0.844853 -0.434393
v 0.0344736 -0.0575619 0.0480007
vn 0.999748 -0.021959 -0.00464615
v 0.0344736 -0.0578474 0.0493539
vn 0.999609 -0.0278639 -0.00231481
v 0.0337695 -0.0581441 0.0493539
vn 0.296751 -0.954928 -0.00712522
v 0.0238145 -0.0611752 0.052516
vn 0.281477 -0.959198 -0.0266373
v 0.0230228 -0.0613855 0.052516
vn 0.232327 -0.966677 -0.107515
v 0.0218459 -0.0615996 0.052516
vn 0.170852 -0.981453 -0.0869461
v 0.0155899 -0.062809 0.0539788
vn 0.162617 -0.981319 -0.102803
v 0.0145915 -0.0628579 0.0533711
vn 0.105993 -0.966475 -0.233864
v 0.0123602 -0.0629292 0.0531803
vn 0.057207 -0.935043 -0.349889
v 0.0107805 -0.0629893 0.053099
vn 0.0485876 -0.931283 -0.361042
v 0.0218459 -0.0616973 0.0540989
vn 0.187198 -0.982121 0.0198829
v 0.0344736 -0.0576783 0.052516
vn 0.871067 -0.482799 0.0902655
v 0.0230789 -0.0614156 0.0540989
vn 0.284535 -0.958654 0.00473925
v 0.023867 -0.0611677 0.0540989
vn 0.322104 -0.941488 0.0992422
v 0.0344736 -0.0578398 0.0509049
vn 0.999799 -0.0200528 0.000327614
v 0.033759 -0.0581366 0.0503538
vn 0.310454 -0.949567 0.0440479
v 0.0344736 -0.0576821 0.0524842
vn 0.96797 -0.249725 0.0259198
v 0.0336084 -0.0580915 0.0514102
vn 0.323147 -0.941815 0.0925228
v 0.034372 -0.0578774 0.0509014
vn 0.326789 -0.9407 0.0910637
f 1//1 2//2 3//3
f 1//1 3//3 4//4
f 1//1 4//4 11//11
f 1//1 11//11 23//23
f 1//1 23//23 34//34
f 1//1 34//34 50//50
f 1//1 50//50 69//69
f 1//1 69//69 73//73
f 1//1 73//73 72//72
f 1//1 72//72 97//97
f 1//1 97//97 132//132
f 1//1 132//132 128//128
f 1//1 128//128 127//127
f 1//1 127//127 133//133
f 1//1 133//133 98//98
f 1//1 98//98 74//74
f 1//1 74//74 55//55
f 1//1 55//55 37//37
f 1//1 37//37 25//25
f 1//1 25//25 13//13
f 1//1 13//13 5//5
f 1//1 5//5 2//2
f 2//2 5//5 6//6
f 2//2 6//6 7//7
f 2//2 7//7 8//8
f 2//2 8//8 3//3
f 3//3 8//8 9//9
f 3//3 9//9 10//10
f 3//3 10//10 4//4
f 4//4 10//10 12//12
f 4//4 12//12 11//11
f 5//5 13//13 6//6
f 6//6 13//13 14//14
f 6//6 14//14 15//15
f 6//6 15//15 16//16
f 6//6 16//16 17//17
f 6//6 17//17 7//7
f 7//7 17//17 18//18
f 7//7 18//18 19//19
f 7//7 19//19 20//20
f 7//7 20//20 8//8
f 8//8 20//20 21//21
f 8//8 21//21 9//9
f 9//9 12//12 10//10
f 9//9 21//21 12//12
f 11//11 22//22 23//23
f 11//11 12//12 22//22
f 12//12 21//21 24//24
f 12//12 24//24 22//22
f 13//13 25//25 39//39
f 13//13 39//39 57//57
f 13//13 57//57 78//78
f 13//13 78//78 106//106
f 13//13 106//106 139//139
f 13//13 139//139 172//172
f 13//13 172//172 202//202
f 13//13 202//202 229//229
f 13//13 229//229 260//260
f 13//13 260//260 294//294
f 13//13 294//294 293//293
f 13//13 293//293 320//320
f 13//13 320//320 319//319
f 13//13 319//319 340//340
f 13//13 340//340 348//348
f 13//13 348//348 353//353
f 13//13 353//353 352//352
f 13//13 352//352 328//328
f 13//13 328//328 331//331
f 13//13 331//331 326//326
f 13//13 326//326 301//301
f 13//13 301//301 264//264
f 13//13 264//264 232//232
f 13//13 232//232 207//207
f 13//13 207//207 206//206
f 13//13 206//206 174//174
f 13//13 174//174 144//144
f 13//13 144//144 112//112
f 13//13 112//112 111//111
f 13//13 111//111 143//143
f 13//13 143//143 142//142
f 13//13 142//142 141//141
f 13//13 141//141 109//109
f 13//13 109//109 108//108
f 13//13 108//108 80//80
f 13//13 80//80 79//79
f 13//13 79//79 59//59
f 13//13 59//59 58//58
f 13//13 58//58 41//41
f 13//13 41//41 40//40
f 13//13 40//40 26//26
f 13//13 26//26 16//16
f 13//13 16//16 15//15
f 13//13 15//15 14//14
f 16//16 26//26 17//17
f 17//17 26//26 18//18
f 18//18 26//26 27//27
f 18//18 27//27 28//28
f 18//18 28//28 19//19
f 19//19 28//28 20//20
f 20//20 28//28 29//29
f 20//20 29//29 30//30
f 20//20 30//30 21//21
f 21//21 30//30 31//31
f 21//21 31//31 24//24
f 22//22 32//32 34//34
f 22//22 34//34 23//23
f 22//22 24//24 33//33
f 22//22 33//33 32//32
f 24//24 31//31 35//35
f 24//24 35//35 36//36
f 24//24 36//36 33//33
f 25//25 37//37 38//38
f 25//25 38//38 39//39
f 26//26 40//40 27//27
f 27//27 41//41 42//42
f 27//27 42//42 28//28
f 27//27 40//40 41//41
f 28//28 43//43 29//29
f 28//28 42//42 44//44
f 28//28 44//44 45//45
f 28//28 45//45 46//46
f 28//28 46//46 43//43
f 29//29 43//43 30//30
f 30//30 43//43 46//46
f 30//30 46//46 47//47
f 30//30 47//47 48//48
f 30//30 48//48 31//31
f 31//31 48//48 49//49
f 31//31 49//49 35//35
f 32//32 50//50 34//34
f 32//32 33//33 51//51
f 32//32 51//51 50//50
f 33//33 36//36 51//51
f 35//35 49//49 52//52
f 35//35 52//52 53//53
f 35//35 53//53 54//54
f 35//35 54//54 36//36
f 36//36 54//54 51//51
f 37//37 55//55 76//76
f 37//37 76//76 104//104
f 37//37 104//104 138//138
f 37//37 138//138 171//171
f 37//37 171//171 201//201
f 37//37 201//201 228//228
f 37//37 228//228 199//199
f 37//37 199//199 198//198
f 37//37 198//198 197//197
f 37//37 197//197 227//227
f 37//37 227//227 258//258
f 37//37 258//258 257//257
f 37//37 257//257 275//275
f 37//37 275//275 274//274
f 37//37 274//274 273//273
f 37//37 273//273 277//277
f 37//37 277//277 276//276
f 37//37 276//276 309//309
f 37//37 309//309 289//289
f 37//37 289//289 318//318
f 37//37 318//318 338//338
f 37//37 338//338 359//359
f 37//37 359//359 376//376
f 37//37 376//376 381//381
f 37//37 381//381 379//379
f 37//37 379//379 366//366
f 37//37 366//366 365//365
f 37//37 365//365 363//363
f 37//37 363//363 341//341
f 37//37 341//341 321//321
f 37//37 321//321 296//296
f 37//37 296//296 295//295
f 37//37 295//295 261//261
f 37//37 261//261 230//230
f 37//37 230//230 205//205
f 37//37 205//205 203//203
f 37//37 203//203 173//173
f 37//37 173//173 140//140
f 37//37 140//140 107//107
f 37//37 107//107 105//105
f 37//37 105//105 77//77
f 37//37 77//77 56//56
f 37//37 56//56 38//38
f 38//38 56//56 39//39
f 39//39 56//56 57//57
f 41//41 58//58 42//42
f 42//42 58//58 59//59
f 42//42 59//59 60//60
f 42//42 60//60 61//61
f 42//42 61//61 44//44
f 44//44 61//61 45//45
f 45//45 62//62 47//47
f 45//45 47//47 46//46
f 45//45 61//61 63//63
f 45//45 63//63 64//64
f 45//45 64//64 62//62
f 47//47 62//62 48//48
f 48//48 62//62 64//64
f 48//48 64//64 65//65
f 48//48 65//65 49//49
f 49//49 65//65 66//66
f 49//49 66//66 67//67
f 49//49 67//67 68//68
f 49//49 68//68 52//52
f 50//50 51//51 54//54
f 50//50 54//54 69//69
f 52//52 68//68 70//70
f 52//52 70//70 71//71
f 52//52 71//71 72//72
f 52//52 72//72 73//73
f 52//52 73//73 69//69
f 52//52 69//69 53//53
f 53//53 69//69 54//54
f 55//55 74//74 75//75
f 55//55 75//75 76//76
f 56//56 77//77 78//78
f 56//56 78//78 57//57
f 59//59 79//79 60//60
f 60//60 79//79 80//80
f 60//60 80//80 81//81
f 60//60 81//81 61//61
f 61//61 81//81 82//82
f 61//61 82//82 63//63
f 63//63 82//82 83//83
f 63//63 83//83 84//84
f 63//63 84//84 64//64
f 64//64 84//84 85//85
f 64//64 85//85 65//65
f 65//65 85//85 66//66
f 66//66 85//85 86//86
f 66//66 86//86 87//87
f 66//66 87//87 68//68
f 66//66 68//68 67//67
f 68//68 87//87 88//88
f 68//68 88//88 70//70
f 70//70 89//89 90//90
f 70//70 90//90 71//71
f 70//70 88//88 91//91
f 70//70 91//91 92//92
f 70//70 92//92 93//93
f 70//70 93//93 94//94
f 70//70 94//94 89//89
f 71//71 90//90 95//95
f 71//71 95//95 96//96
f 71//71 96//96 72//72
f 72//72 96//96 97//97
f 74//74 98//98 99//99
f 74//74 99//99 75//75
f 75//75 99//99 100//100
f 75//75 100//100 101//101
f 75//75 101//101 102//102
f 75//75 102//102 76//76
f 76//76 102//102 103//103
f 76//76 103//103 104//104
f 77//77 105//105 78//78
f 78//78 105//105 107//107
f 78//78 107//107 106//106
f 80//80 108//108 81//81
f 81//81 108//108 109//109
f 81//81 109//109 110//110
f 81//81 110//110 82//82
f 82//82 110//110 111//111
f 82//82 111//111 83//83
f 83//83 111//111 112//112
f 83//83 112//112 84//84
f 84//84 113//113 85//85
f 84//84 112//112 114//114
f 84//84 114//114 113//113
f 85//85 113//113 86//86
f 86//86 115//115 87//87
f 86//86 113//113 116//116
f 86//86 116//116 117//117
f 86//86 117//117 115//115
f 87//87 115//115 88//88
f 88//88 115//115 91//91
f 89//89 94//94 90//90
f 90//90 118//118 95//95
f 90//90 94//94 119//119
f 90//90 119//119 118//118
f 91//91 115//115 120//120
f 91//91 120//120 92//92
f 92//92 120//120 121//121
f 92//92 121//121 93//93
f 93//93 121//121 122//122
f 93//93 122//122 94//94
f 94//94 122//122 123//123
f 94//94 123//123 124//124
f 94//94 124//124 125//125
f 94//94 125//125 126//126
f 94//94 126//126 119//119
f 95//95 99//99 127//127
f 95//95 127//127 128//128
f 95//95 128//128 96//96
f 95//95 118//118 129//129
f 95//95 129//129 130//130
f 95//95 130//130 131//131
f 95//95 131//131 99//99
f 96//96 128//128 132//132
f 96//96 132//132 97//97
f 98//98 133//133 99//99
f 99//99 133//133 127//127
f 99//99 131//131 134//134
f 99//99 134//134 100//100
f 100//100 134//134 135//135
f 100//100 135//135 136//136
f 100//100 136//136 101//101
f 101//101 136//136 103//103
f 101//101 103//103 102//102
f 103//103 136//136 137//137
f 103//103 137//137 138//138
f 103//103 138//138 104//104
f 106//106 107//107 139//139
f 107//107 140//140 139//139
f 109//109 141//141 110//110
f 110//110 141//141 142//142
f 110//110 142//142 143//143
f 110//110 143//143 111//111
f 112//112 144//144 145//145
f 112//112 145//145 114//114
f 113//113 146//146 116//116
f 113//113 114//114 147//147
f 113//113 147//147 146//146
f 114//114 145//145 148//148
f 114//114 148//148 149//149
f 114//114 149//149 150//150
f 114//114 150//150 147//147
f 115//115 117//117 120//120
f 116//116 146//146 151//151
f 116//116 151//151 152//152
f 116//116 152//152 117//117
f 117//117 151//151 153//153
f 117//117 153//153 154//154
f 117//117 154//154 120//120
f 117//117 152//152 151//151
f 118//118 155//155 129//129
f 118//118 119//119 156//156
f 118//118 156//156 157//157
f 118//118 157//157 158//158
f 118//118 158//158 155//155
f 119//119 126//126 156//156
f 120//120 154//154 159//159
f 120//120 159//159 121//121
f 121//121 159//159 160//160
f 121//121 160//160 161//161
f 121//121 161//161 162//162
f 121//121 162//162 122//122
f 122//122 162//162 163//163
f 122//122 163//163 123//123
f 123//123 163//163 164//164
f 123//123 164//164 124//124
f 124//124 164//164 125//125
f 125//125 165//165 156//156
f 125//125 156//156 126//126
f 125//125 164//164 166//166
f 125//125 166//166 165//165
f 129//129 167//167 130//130
f 129//129 155//155 168//168
f 129//129 168//168 167//167
f 130//130 167//167 137//137
f 130//130 137//137 135//135
f 130//130 135//135 131//131
f 131//131 135//135 134//134
f 135//135 137//137 136//136
f 137//137 167//167 169//169
f 137//137 169//169 170//170
f 137//137 170//170 171//171
f 137//137 171//171 138//138
f 139//139 140//140 172//172
f 140//140 173//173 172//172
f 144//144 174//174 175//175
f 144//144 175//175 145//145
f 145//145 175//175 176//176
f 145//145 176//176 148//148
f 146//146 147//147 177//177
f 146//146 177//177 151//151
f 147//147 150//150 178//178
f 147//147 178//178 177//177
f 148//148 176//176 179//179
f 148//148 179//179 180//180
f 148//148 180//180 149//149
f 149//149 178//178 150//150
f 149//149 180//180 181//181
f 149//149 181//181 178//178
f 151//151 177//177 153//153
f 153//153 177//177 161//161
f 153//153 161//161 154//154
f 154//154 161//161 159//159
f 155//155 158//158 182//182
f 155//155 182//182 168//168
f 156//156 165//165 157//157
f 157//157 165//165 183//183
f 157//157 183//183 182//182
f 157//157 182//182 158//158
f 159//159 161//161 160//160
f 161//161 177//177 184//184
f 161//161 184//184 185//185
f 161//161 185//185 186//186
f 161//161 186//186 187//187
f 161//161 187//187 162//162
f 162//162 188//188 163//163
f 162//162 187//187 188//188
f 163//163 189//189 164//164
f 163//163 188//188 187//187
f 163//163 187//187 190//190
f 163//163 190//190 191//191
f 163//163 191//191 189//189
f 164//164 189//189 191//191
f 164//164 191//191 192//192
f 164//164 192//192 166//166
f 165//165 166//166 183//183
f 166//166 192//192 183//183
f 167//167 168//168 193//193
f 167//167 193//193 169//169
f 168//168 182//182 194//194
f 168//168 194//194 193//193
f 169//169 195//195 196//196
f 169//169 196//196 197//197
f 169//169 197//197 198//198
f 169//169 198//198 199//199
f 169//169 199//199 200//200
f 169//169 200//200 170//170
f 169//169 193//193 195//195
f 170//170 200//200 201//201
f 170//170 201//201 171//171
f 172//172 173//173 203//203
f 172//172 203//203 204//204
f 172//172 204//204 205//205
f 172//172 205//205 202//202
f 174//174 206//206 175//175
f 175//175 206//206 207//207
f 175//175 207//207 179//179
f 175//175 179//179 176//176
f 177//177 178//178 208//208
f 177//177 208//208 209//209
f 177//177 209//209 184//184
f 178//178 181//181 210//210
f 178//178 210//210 208//208
f 179//179 207//207 211//211
f 179//179 211//211 180//180
f 180//180 211//211 181//181
f 181//181 211//211 212//212
f 181//181 212//212 236//236
f 181//181 236//236 210//210
f 182//182 183//183 194//194
f 183//183 193//193 194//194
f 183//183 192//192 213//213
f 183//183 213//213 214//214
f 183//183 214//214 193//193
f 184//184 209//209 208//208
f 184//184 208//208 215//215
f 184//184 215//215 185//185
f 185//185 215//215 216//216
f 185//185 216//216 217//217
f 185//185 217//217 218//218
f 185//185 218//218 219//219
f 185//185 219//219 186//186
f 186//186 219//219 187//187
f 187//187 219//219 220//220
f 187//187 220//220 221//221
f 187//187 221//221 222//222
f 187//187 222//222 223//223
f 187//187 223//223 224//224
f 187//187 224//224 192//192
f 187//187 192//192 191//191
f 187//187 191//191 190//190
f 192//192 224//224 213//213
f 193//193 214//214 195//195
f 195//195 214//214 196//196
f 196//196 214//214 225//225
f 196//196 225//225 226//226
f 196//196 226//226 197//197
f 197//197 226//226 227//227
f 199//199 228//228 200//200
f 200//200 228//228 201//201
f 202//202 205//205 229//229
f 203//203 205//205 204//204
f 205//205 230//230 231//231
f 205//205 231//231 229//229
f 207//207 232//232 211//211
f 208//208 210//210 233//233
f 208//208 233//233 234//234
f 208//208 234//234 235//235
f 208//208 235//235 215//215
f 210//210 236//236 233//233
f 211//211 232//232 237//237
f 211//211 237//237 238//238
f 211//211 238//238 212//212
f 212//212 238//238 239//239
f 212//212 239//239 236//236
f 213//213 224//224 214//214
f 214//214 224//224 240//240
f 214//214 240//240 241//241
f 214//214 241//241 242//242
f 214//214 242//242 243//243
f 214//214 243//243 244//244
f 214//214 244//244 245//245
f 214//214 245//245 225//225
f 215//215 235//235 246//246
f 215//215 246//246 216//216
f 216//216 246//246 247//247
f 216//216 247//247 217//217
f 217//217 247//247 218//218
f 218//218 248//248 249//249
f 218//218 249//249 219//219
f 218//218 247//247 250//250
f 218//218 250//250 248//248
f 219//219 249//249 251//251
f 219//219 251//251 221//221
f 219//219 221//221 220//220
f 221//221 251//251 222//222
f 222//222 252//252 253//253
f 222//222 253//253 241//241
f 222//222 241//241 223//223
f 222//222 251//251 254//254
f 222//222 254//254 255//255
f 222//222 255//255 256//256
f 222//222 256//256 252//252
f 223//223 241//241 224//224
f 224//224 241//241 240//240
f 225//225 245//245 226//226
f 226//226 245//245 257//257
f 226//226 257//257 258//258
f 226//226 258//258 227//227
f 229//229 231//231 259//259
f 229//229 259//259 260//260
f 230//230 261//261 262//262
f 230//230 262//262 263//263
f 230//230 263//263 259//259
f 230//230 259//259 231//231
f 232//232 264//264 237//237
f 233//233 236//236 234//234
f 234//234 236//236 265//265
f 234//234 265//265 235//235
f 235//235 265//265 266//266
f 235//235 266//266 246//246
f 236//236 239//239 267//267
f 236//236 267//267 265//265
f 237//237 264//264 268//268
f 237//237 268//268 269//269
f 237//237 269//269 270//270
f 237//237 270//270 238//238
f 238//238 270//270 271//271
f 238//238 271//271 239//239
f 239//239 271//271 267//267
f 241//241 253//253 242//242
f 242//242 253//253 272//272
f 242//242 272//272 243//243
f 243//243 272//272 244//244
f 244//244 273//273 274//274
f 244//244 274//274 275//275
f 244//244 275//275 245//245
f 244//244 272//272 276//276
f 244//244 276//276 277//277
f 244//244 277//277 273//273
f 245//245 275//275 257//257
f 246//246 266//266 278//278
f 246//246 278//278 247//247
f 247//247 278//278 279//279
f 247//247 279//279 250//250
f 248//248 280//280 249//249
f 248//248 250//250 281//281
f 248//248 281//281 282//282
f 248//248 282//282 283//283
f 248//248 283//283 280//280
f 249//249 280//280 284//284
f 249//249 284//284 251//251
f 250//250 279//279 285//285
f 250//250 285//285 281//281
f 251//251 284//284 280//280
f 251//251 280//280 254//254
f 252//252 286//286 253//253
f 252//252 256//256 286//286
f 253//253 286//286 287//287
f 253//253 287//287 272//272
f 254//254 280//280 255//255
f 255//255 288//288 256//256
f 255//255 280//280 288//288
f 256//256 289//289 290//290
f 256//256 290//290 286//286
f 256//256 288//288 280//280
f 256//256 280//280 291//291
f 256//256 291//291 289//289
f 259//259 263//263 262//262
f 259//259 262//262 292//292
f 259//259 292//292 293//293
f 259//259 293//293 294//294
f 259//259 294//294 260//260
f 261//261 295//295 262//262
f 262//262 295//295 296//296
f 262//262 296//296 297//297
f 262//262 297//297 298//298
f 262//262 298//298 299//299
f 262//262 299//299 300//300
f 262//262 300//300 292//292
f 264//264 301//301 268//268
f 265//265 267//267 302//302
f 265//265 302//302 266//266
f 266//266 303//303 304//304
f 266//266 304//304 278//278
f 266//266 302//302 303//303
f 267//267 271//271 302//302
f 268//268 301//301 305//305
f 268//268 305//305 269//269
f 269//269 305//305 270//270
f 270//270 305//305 306//306
f 270//270 306//306 271//271
f 271//271 306//306 307//307
f 271//271 307//307 302//302
f 272//272 287//287 308//308
f 272//272 308//308 309//309
f 272//272 309//309 276//276
f 278//278 304//304 279//279
f 279//279 304//304 285//285
f 280//280 283//283 310//310
f 280//280 310//310 311//311
f 280//280 311//311 291//291
f 281//281 285//285 282//282
f 282//282 312//312 313//313
f 282//282 313//313 283//283
f 282//282 285//285 312//312
f 283//283 313//313 314//314
f 283//283 314//314 315//315
f 283//283 315//315 316//316
f 283//283 316//316 310//310
f 285//285 304//304 317//317
f 285//285 317//317 312//312
f 286//286 290//290 287//287
f 287//287 290//290 309//309
f 287//287 309//309 308//308
f 289//289 309//309 290//290
f 289//289 291//291 311//311
f 289//289 311//311 318//318
f 292//292 300//300 319//319
f 292//292 319//319 320//320
f 292//292 320//320 293//293
f 296//296 321//321 297//297
f 297//297 321//321 322//322
f 297//297 322//322 323//323
f 297//297 323//323 324//324
f 297//297 324//324 299//299
f 297//297 299//299 298//298
f 299//299 324//324 325//325
f 299//299 325//325 300//300
f 300//300 325//325 319//319
f 301//301 326//326 305//305
f 302//302 307//307 327//327
f 302//302 327//327 303//303
f 303//303 327//327 304//304
f 304//304 327//327 317//317
f 305//305 328//328 329//329
f 305//305 329//329 330//330
f 305//305 330//330 306//306
f 305//305 326//326 331//331
f 305//305 331//331 328//328
f 306//306 330//330 332//332
f 306//306 332//332 333//333
f 306//306 333//333 327//327
f 306//306 327//327 307//307
f 310//310 316//316 311//311
f 311//311 316//316 334//334
f 311//311 334//334 335//335
f 311//311 335//335 318//318
f 312//312 336//336 314//314
f 312//312 314//314 313//313
f 312//312 317//317 327//327
f 312//312 327//327 336//336
f 314//314 336//336 315//315
f 315//315 336//336 337//337
f 315//315 337//337 316//316
f 316//316 337//337 335//335
f 316//316 335//335 334//334
f 318//318 335//335 338//338
f 319//319 325//325 339//339
f 319//319 339//339 340//340
f 321//321 341//341 342//342
f 321//321 342//342 322//322
f 322//322 342//342 343//343
f 322//322 343//343 323//323
f 323//323 343//343 344//344
f 323//323 344//344 324//324
f 324//324 344//344 345//345
f 324//324 345//345 325//325
f 325//325 345//345 346//346
f 325//325 346//346 347//347
f 325//325 347//347 348//348
f 325//325 348//348 339//339
f 327//327 333//333 349//349
f 327//327 349//349 350//350
f 327//327 350//350 351//351
f 327//327 351//351 336//336
f 328//328 352//352 329//329
f 329//329 352//352 353//353
f 329//329 353//353 348//348
f 329//329 348//348 347//347
f 329//329 347//347 330//330
f 330//330 347//347 354//354
f 330//330 354//354 355//355
f 330//330 355//355 356//356
f 330//330 356//356 332//332
f 332//332 356//356 357//357
f 332//332 357//357 349//349
f 332//332 349//349 333//333
f 335//335 337//337 358//358
f 335//335 358//358 359//359
f 335//335 359//359 338//338
f 336//336 351//351 360//360
f 336//336 360//360 337//337
f 337//337 361//361 358//358
f 337//337 360//360 362//362
f 337//337 362//362 361//361
f 339//339 348//348 340//340
f 341//341 363//363 364//364
f 341//341 364//364 342//342
f 342//342 364//364 363//363
f 342//342 363//363 365//365
f 342//342 365//365 366//366
f 342//342 366//366 367//367
f 342//342 367//367 368//368
f 342//342 368//368 369//369
f 342//342 369//369 343//343
f 343//343 369//369 370//370
f 343//343 370//370 371//371
f 343//343 371//371 372//372
f 343//343 372//372 344//344
f 344//344 372//372 373//373
f 344//344 373//373 345//345
f 345//345 373//373 374//374
f 345//345 374//374 346//346
f 346//346 374//374 354//354
f 346//346 354//354 347//347
f 349//349 357//357 375//375
f 349//349 375//375 360//360
f 349//349 360//360 351//351
f 349//349 351//351 350//350
f 354//354 374//374 355//355
f 355//355 374//374 373//373
f 355//355 373//373 372//372
f 355//355 372//372 356//356
f 356//356 372//372 357//357
f 357//357 372//372 371//371
f 357//357 371//371 375//375
f 358//358 361//361 359//359
f 359//359 361//361 376//376
f 360//360 375//375 362//362
f 361//361 362//362 376//376
f 362//362 375//375 377//377
f 362//362 377//377 378//378
f 362//362 378//378 376//376
f 366//366 379//379 367//367
f 367//367 379//379 380//380
f 367//367 380//380 377//377
f 367//367 377//377 368//368
f 368//368 377//377 369//369
f 369//369 377//377 375//375
f 369//369 375//375 370//370
f 370//370 375//375 371//371
f 376//376 378//378 381//381
f 377//377 380//380 378//378
f 378//378 380//380 382//382
f 378//378 382//382 381//381
f 379//379 383//383 380//380
f 379//379 381//381 383//383
f 380//380 383//383 382//382
f 381//381 382//382 383//383
