# Created by Open3D 
# object name: part_005
# number of vertices: 154
# number of triangles: 304
v -0.0237831 0.0462046 0.0140976
vn -0.699641 -0.436072 0.565989
v -0.00149971 0.0492815 0.0140976
vn 0.700201 -0.703153 0.123673
v -0.0237831 0.066278 0.0140976
vn -0.70871 0.340387 0.617954
v -0.0237831 0.0507684 -0.0144381
vn -0.155293 -0.793879 -0.587911
v -0.00149971 0.0699879 0.0140976
vn 0.352905 0.143731 0.924554
v -0.00149971 0.0553862 -0.0144381
vn 0.565449 -0.67312 -0.47663
v -0.0129435 0.0687733 0.0140976
vn -0.110188 0.479538 0.870576
v -0.0237831 0.0683292 0.00191071
vn -0.80012 0.592188 0.0955025
v -0.0237831 0.0671809 -0.0144381
vn -0.999947 0.000187294 -0.0103343
v -0.00149971 0.0708958 0.00506707
vn 0.968106 0.249328 0.0246205
v -0.00661954 0.0710577 0.00190512
vn -0.0348768 0.994521 0.0985459
v -0.00661954 0.0707387 0.00506707
vn -0.0557471 0.992723 0.106736
v -0.00661954 0.0705498 0.00665083
vn -0.070465 0.990114 0.121281
v -0.00210615 0.0699486 0.0140976
vn -0.0198527 0.305219 0.952075
v -0.00149971 0.0694874 -0.0144381
vn 0.720539 0.00889882 -0.693358
v -0.0113642 0.0691316 0.0140976
vn -0.157782 0.921814 0.354069
v -0.0237831 0.0684176 0.00124312
vn -0.978344 0.205243 0.0267916
v -0.0192697 0.0695168 0.000324148
vn -0.199576 0.970195 0.137448
v -0.0237831 0.0672594 -0.0141392
vn -0.99772 0.0654177 -0.0166118
v -0.0234842 0.0672521 -0.0144381
vn -0.00430326 0.0181203 -0.999827
v -0.00149971 0.0710258 0.00348609
vn 0.994877 0.100986 0.00470383
v -0.00187492 0.0710233 0.00348609
vn -0.0133774 0.996871 0.0779
v -0.005038 0.0711019 0.00190512
vn -0.018524 0.99662 0.0800355
v -0.00661954 0.0711877 0.000324148
vn -0.0319482 0.997567 0.0619698
v -0.00820109 0.071097 0.000324148
vn -0.0647124 0.99429 0.0848469
v -0.00820109 0.0709448 0.00190512
vn -0.0857977 0.991021 0.102552
v -0.00820109 0.0706062 0.00506707
vn -0.0953737 0.989515 0.108461
v -0.00820109 0.0704247 0.00665083
vn -0.1025 0.987131 0.122742
v -0.0034281 0.0698579 0.0140976
vn -0.0307154 0.369233 0.928829
v -0.00304635 0.0698873 0.0140976
vn -0.0210108 0.305956 0.951814
v -0.00608946 0.0694849 -0.0144381
vn -2.69747e-05 0.0281475 -0.999604
v -0.00661954 0.0696321 -0.0139074
vn -0.00870642 0.966851 -0.255194
v -0.00149971 0.0696321 -0.0139074
vn 0.982236 0.181487 -0.0476884
v -0.00978263 0.0693205 0.0140976
vn -0.0284087 0.31042 0.950175
v -0.0113642 0.0709743 -0.00125403
vn -0.121025 0.985975 0.114916
v -0.0129435 0.0705719 0.000324148
vn -0.139889 0.983025 0.118718
v -0.0145251 0.0703339 0.000324148
vn -0.153969 0.981098 0.117216
v -0.0155809 0.0700272 0.00143586
vn -0.160933 0.979344 0.122421
v -0.0175922 0.0698407 0.000237557
vn -0.172216 0.977075 0.125162
v -0.0237831 0.0685378 0.000312975
vn -0.949719 0.311221 0.0342904
v -0.0180765 0.0699266 -0.00125403
vn -0.167387 0.982128 0.0860602
v -0.0192697 0.0696984 -0.00125403
vn -0.210535 0.974372 0.0792122
v -0.0237831 0.0673159 -0.0139074
vn -0.951494 0.29942 -0.0707555
v -0.0219027 0.0676275 -0.0144381
vn -0.0609957 0.261689 -0.963223
v -0.00149971 0.0710871 0.00190512
vn 0.998199 0.0599798 0.00139246
v -0.00187492 0.0710945 0.00190512
vn 0.0159349 0.999121 0.0387667
v -0.005038 0.0712049 0.000324148
vn 0.00983981 0.999381 0.033786
v -0.00345646 0.0711166 0.00190512
vn -0.0075076 0.997869 0.0648111
v -0.00661954 0.0712466 -0.00125403
vn -0.000893879 0.999768 0.0215071
v -0.00978263 0.0712515 -0.0028378
vn -0.0453643 0.998022 0.0435171
v -0.00978263 0.0711215 -0.00125403
vn -0.0830366 0.992164 0.0933611
v -0.00661954 0.0694824 -0.0144381
vn -0.00204891 0.0842959 -0.996439
v -0.00978263 0.0695487 -0.0139074
vn -0.0365124 0.962103 -0.270229
v -0.00978263 0.0698775 -0.01267
vn -0.034686 0.969245 -0.24364
v -0.00661954 0.0699094 -0.0128264
vn -0.00707677 0.970359 -0.241564
v -0.00149971 0.0699094 -0.012832
vn 0.953458 0.292147 -0.0746227
v -0.0113642 0.0711313 -0.0028378
vn -0.115465 0.991579 0.0586434
v -0.0129435 0.0707608 -0.00125403
vn -0.152023 0.983345 0.0996052
v -0.0237831 0.068685 -0.00125403
vn -0.97982 0.19918 0.0167518
v -0.0129435 0.0709007 -0.0028378
vn -0.164252 0.985135 0.0503023
v -0.0183339 0.0699585 -0.0028378
vn -0.176074 0.984035 0.0259348
v -0.0192697 0.0697744 -0.0028378
vn -0.207366 0.97777 0.031081
v -0.0237831 0.0688028 -0.0028378
vn -0.889921 0.455666 0.0202044
v -0.0237831 0.0676299 -0.0125583
vn -0.987189 0.155452 -0.0359477
v -0.0192697 0.0691218 -0.0107455
vn -0.224456 0.951386 -0.210913
v -0.0203212 0.0679955 -0.0144381
vn -0.048506 0.208464 -0.976826
v -0.00149971 0.071092 0.00152803
vn 0.989187 0.146655 0.00136165
v -0.00345646 0.0711607 0.000324148
vn 0.0298566 0.99953 0.00698644
v -0.005038 0.0712172 -0.00125403
vn 0.0280458 0.999606 0.000535536
v -0.00661954 0.0712491 -0.0028378
vn 0.0232472 0.999698 -0.00796373
v -0.00820109 0.0712712 -0.0028378
vn -6.4391e-07 0.999998 0.00217238
v -0.00978263 0.0712515 -0.00441877
vn -0.0305396 0.998472 -0.0460459
v -0.0113642 0.0711534 -0.00441877
vn -0.100869 0.994475 -0.0290628
v -0.007671 0.069453 -0.0144381
vn -0.000861511 0.0288896 -0.999582
v -0.0113642 0.0694555 -0.0139074
vn -0.0888789 0.961773 -0.259023
v -0.00925254 0.0694039 -0.0144381
vn -0.00097638 0.0289751 -0.99958
v -0.00978263 0.0693818 -0.0144381
vn -0.00157247 0.0294191 -0.999566
v -0.0113642 0.0692911 -0.0144381
vn -0.00333902 0.0448174 -0.99899
v -0.0110391 0.0700296 -0.0117538
vn -0.0619249 0.972558 -0.22427
v -0.00978263 0.0700566 -0.0118795
vn -0.0280819 0.976195 -0.215071
v -0.00661954 0.0700983 -0.0120359
vn -0.00997423 0.974394 -0.224626
v -0.00149971 0.0701057 -0.0120415
vn 0.950381 0.302535 -0.0724439
v -0.00149971 0.0700591 -0.0122315
vn 0.981855 0.184045 -0.0457017
v -0.0129435 0.0709277 -0.00441877
vn -0.166348 0.986003 -0.0112027
v -0.0183862 0.0699634 -0.00441877
vn -0.175671 0.984426 -0.00672518
v -0.0192697 0.069799 -0.00441877
vn -0.207859 0.978157 0.00214709
v -0.0237831 0.0688052 -0.00306964
vn -0.981977 0.188995 0.00146719
v -0.0237831 0.0676815 -0.0123264
vn -0.986665 0.159578 -0.0320467
v -0.0176882 0.0694653 -0.0107455
vn -0.18111 0.961036 -0.20883
v -0.0193613 0.0682188 -0.0144381
vn -0.0779434 0.353701 -0.932105
v -0.0237831 0.0679906 -0.0107622
vn -0.9702 0.238116 -0.0448585
v -0.0192697 0.0694236 -0.00916169
vn -0.233223 0.959575 -0.157554
v -0.00149971 0.0711019 -5.29385e-05
vn 0.985196 0.171428 0.00055534
v -0.00149971 0.0711068 -0.0028378
vn 0.942977 0.332844 -0.00300381
v -0.00661954 0.0712295 -0.00441877
vn 0.0274764 0.999055 -0.0336729
v -0.00820109 0.0712564 -0.00441877
vn 0.00749326 0.999289 -0.0369629
v -0.00820109 0.0711485 -0.00599974
vn -0.00772032 0.995224 -0.0973088
v -0.00978263 0.0711166 -0.00599974
vn -0.0356822 0.992749 -0.114785
v -0.0113642 0.0710356 -0.00599974
vn -0.0836538 0.991716 -0.0974774
v -0.0129435 0.0708418 -0.00599974
vn -0.154839 0.984887 -0.0776026
v -0.0145251 0.0691144 -0.0139074
vn -0.113319 0.958046 -0.263262
v -0.0145251 0.0695315 -0.0123264
vn -0.11149 0.964562 -0.239146
v -0.0129435 0.0696959 -0.0123264
vn -0.0998223 0.965337 -0.241162
v -0.0114842 0.069853 -0.0122985
vn -0.0970911 0.965908 -0.239991
v -0.0129435 0.0691218 -0.0144381
vn -0.00327829 0.0305654 -0.999527
v -0.013995 0.0690089 -0.0144381
vn -0.00975774 0.0903377 -0.995863
v -0.0129435 0.0701302 -0.0105527
vn -0.10056 0.9689 -0.226099
v -0.0114842 0.0701842 -0.0108879
vn -0.0817578 0.974003 -0.211269
v -0.0113642 0.0705645 -0.00916169
vn -0.0540785 0.980195 -0.190507
v -0.00978263 0.0702995 -0.0107455
vn -0.0324822 0.978462 -0.203853
v -0.00661954 0.0703854 -0.0107455
vn -0.0153141 0.978319 -0.206538
v -0.00149971 0.0704124 -0.0107455
vn 0.866843 0.488127 -0.101562
v -0.00149971 0.0703363 -0.0110751
vn 0.98154 0.186114 -0.0440436
v -0.0182684 0.0699511 -0.00599974
vn -0.169017 0.984046 -0.0555539
v -0.0192697 0.069772 -0.00599974
vn -0.207767 0.977385 -0.0393821
v -0.0237831 0.0688151 -0.00441877
vn -0.938857 0.344292 -0.00320652
v -0.0152973 0.0699756 -0.00993821
vn -0.141191 0.97461 -0.173781
v -0.0161066 0.0697033 -0.0107455
vn -0.129811 0.967003 -0.219214
v -0.0161066 0.0693279 -0.0123264
vn -0.139334 0.959894 -0.243288
v -0.0176882 0.0690727 -0.0123264
vn -0.158703 0.957777 -0.239742
v -0.0184844 0.0684053 -0.0144381
vn -0.0479732 0.23958 -0.969691
v -0.0176882 0.0697425 -0.00916169
vn -0.161776 0.977248 -0.137165
v -0.0237831 0.0682384 -0.00935163
vn -0.98601 0.164457 -0.0271608
v -0.0237831 0.0684985 -0.00768686
vn -0.98582 0.165815 -0.0257682
v -0.0237831 0.068528 -0.00748854
vn -0.944459 0.325949 -0.0418814
v -0.0192697 0.069637 -0.00758071
vn -0.21929 0.969633 -0.108276
v -0.00149971 0.0710749 -0.00441877
vn 0.975217 0.221121 -0.00754997
v -0.00149971 0.0709988 -0.00599974
vn 0.948633 0.315896 -0.0174863
v -0.00661954 0.0711436 -0.00599974
vn 0.0190871 0.996685 -0.0790846
v -0.00661954 0.0709645 -0.00758071
vn 0.0041551 0.991194 -0.132349
v -0.00820109 0.0709497 -0.00758071
vn -0.0212398 0.987947 -0.153329
v -0.00978263 0.0709031 -0.00758071
vn -0.0358279 0.986877 -0.15745
v -0.0113642 0.0708344 -0.00758071
vn -0.0681816 0.986892 -0.146269
v -0.0129435 0.0706823 -0.00758071
vn -0.140843 0.982492 -0.121958
v -0.0177034 0.0699045 -0.00765613
vn -0.162844 0.981982 -0.095884
v -0.0161066 0.0689083 -0.0139074
vn -0.133639 0.956477 -0.259408
v -0.0145076 0.0689525 -0.0144381
vn -0.00372106 0.0307919 -0.999519
v -0.0161066 0.0687537 -0.0144381
vn -0.0060238 0.0456961 -0.998937
v -0.0142437 0.0700468 -0.010251
vn -0.117837 0.969284 -0.215878
v -0.0129435 0.070432 -0.00916169
vn -0.103704 0.977712 -0.182553
v -0.00978263 0.0706209 -0.00916169
vn -0.0313918 0.982249 -0.184938
v -0.00820109 0.0706676 -0.00916169
vn -0.0261305 0.981119 -0.191634
v -0.00661954 0.0707044 -0.00916169
vn -0.00687561 0.98337 -0.181485
v -0.00149971 0.0706479 -0.00953878
vn 0.980281 0.194115 -0.0369902
v -0.0208512 0.0694064 -0.00599974
vn -0.230418 0.969897 -0.0787808
v -0.0237831 0.0688028 -0.00465061
vn -0.984064 0.177422 -0.0118048
v -0.0146712 0.0701646 -0.00930973
vn -0.142152 0.978215 -0.15129
v -0.0181812 0.0684593 -0.0144381
vn -0.0749112 0.477778 -0.875281
v -0.0237831 0.0686752 -0.00623158
vn -0.984998 0.171427 -0.0197768
v -0.0237831 0.0686997 -0.00599974
vn -0.972575 0.231682 -0.0205373
v -0.00149971 0.0708982 -0.00758071
vn 0.976624 0.214389 -0.0155818
v -0.00149971 0.0708565 -0.0079578
vn 0.920452 0.388303 -0.0445952
v -0.00149971 0.0707142 -0.00916169
vn 0.921366 0.384497 -0.0569883
v -0.0177841 0.0685182 -0.0144381
vn -0.00441559 0.0311109 -0.999506
f 1//1 2//2 5//5
f 1//1 5//5 14//14
f 1//1 14//14 30//30
f 1//1 30//30 29//29
f 1//1 29//29 34//34
f 1//1 34//34 16//16
f 1//1 16//16 7//7
f 1//1 7//7 3//3
f 1//1 3//3 8//8
f 1//1 8//8 17//17
f 1//1 17//17 40//40
f 1//1 40//40 59//59
f 1//1 59//59 63//63
f 1//1 63//63 87//87
f 1//1 87//87 116//116
f 1//1 116//116 146//146
f 1//1 146//146 150//150
f 1//1 150//150 149//149
f 1//1 149//149 125//125
f 1//1 125//125 124//124
f 1//1 124//124 123//123
f 1//1 123//123 91//91
f 1//1 91//91 88//88
f 1//1 88//88 64//64
f 1//1 64//64 43//43
f 1//1 43//43 19//19
f 1//1 19//19 9//9
f 1//1 9//9 4//4
f 1//1 4//4 2//2
f 2//2 4//4 6//6
f 2//2 6//6 15//15
f 2//2 15//15 33//33
f 2//2 33//33 56//56
f 2//2 56//56 83//83
f 2//2 83//83 82//82
f 2//2 82//82 113//113
f 2//2 113//113 112//112
f 2//2 112//112 144//144
f 2//2 144//144 153//153
f 2//2 153//153 152//152
f 2//2 152//152 151//151
f 2//2 151//151 128//128
f 2//2 128//128 127//127
f 2//2 127//127 94//94
f 2//2 94//94 93//93
f 2//2 93//93 67//67
f 2//2 67//67 45//45
f 2//2 45//45 21//21
f 2//2 21//21 10//10
f 2//2 10//10 5//5
f 3//3 7//7 8//8
f 4//4 9//9 20//20
f 4//4 20//20 44//44
f 4//4 44//44 66//66
f 4//4 66//66 90//90
f 4//4 90//90 121//121
f 4//4 121//121 148//148
f 4//4 148//148 154//154
f 4//4 154//154 138//138
f 4//4 138//138 137//137
f 4//4 137//137 106//106
f 4//4 106//106 105//105
f 4//4 105//105 78//78
f 4//4 78//78 77//77
f 4//4 77//77 76//76
f 4//4 76//76 74//74
f 4//4 74//74 52//52
f 4//4 52//52 31//31
f 4//4 31//31 15//15
f 4//4 15//15 6//6
f 5//5 10//10 11//11
f 5//5 11//11 12//12
f 5//5 12//12 13//13
f 5//5 13//13 14//14
f 7//7 16//16 8//8
f 8//8 16//16 18//18
f 8//8 18//18 17//17
f 9//9 19//19 20//20
f 10//10 21//21 22//22
f 10//10 22//22 23//23
f 10//10 23//23 11//11
f 11//11 23//23 24//24
f 11//11 24//24 25//25
f 11//11 25//25 26//26
f 11//11 26//26 12//12
f 12//12 26//26 27//27
f 12//12 27//27 28//28
f 12//12 28//28 13//13
f 13//13 28//28 29//29
f 13//13 29//29 30//30
f 13//13 30//30 14//14
f 15//15 31//31 32//32
f 15//15 32//32 33//33
f 16//16 34//34 28//28
f 16//16 28//28 35//35
f 16//16 35//35 36//36
f 16//16 36//36 37//37
f 16//16 37//37 38//38
f 16//16 38//38 39//39
f 16//16 39//39 18//18
f 17//17 18//18 40//40
f 18//18 39//39 41//41
f 18//18 41//41 42//42
f 18//18 42//42 40//40
f 19//19 43//43 44//44
f 19//19 44//44 20//20
f 21//21 45//45 46//46
f 21//21 46//46 47//47
f 21//21 47//47 48//48
f 21//21 48//48 22//22
f 22//22 48//48 23//23
f 23//23 48//48 47//47
f 23//23 47//47 24//24
f 24//24 47//47 49//49
f 24//24 49//49 50//50
f 24//24 50//50 25//25
f 25//25 50//50 51//51
f 25//25 51//51 26//26
f 26//26 51//51 35//35
f 26//26 35//35 27//27
f 27//27 35//35 28//28
f 28//28 34//34 29//29
f 31//31 52//52 32//32
f 32//32 52//52 53//53
f 32//32 53//53 54//54
f 32//32 54//54 55//55
f 32//32 55//55 56//56
f 32//32 56//56 33//33
f 35//35 51//51 57//57
f 35//35 57//57 58//58
f 35//35 58//58 36//36
f 36//36 58//58 37//37
f 37//37 58//58 41//41
f 37//37 41//41 39//39
f 37//37 39//39 38//38
f 40//40 42//42 59//59
f 41//41 58//58 60//60
f 41//41 60//60 61//61
f 41//41 61//61 42//42
f 42//42 61//61 62//62
f 42//42 62//62 63//63
f 42//42 63//63 59//59
f 43//43 64//64 65//65
f 43//43 65//65 44//44
f 44//44 65//65 66//66
f 45//45 67//67 47//47
f 45//45 47//47 46//46
f 47//47 68//68 69//69
f 47//47 69//69 49//49
f 47//47 67//67 68//68
f 49//49 69//69 70//70
f 49//49 70//70 71//71
f 49//49 71//71 50//50
f 50//50 71//71 72//72
f 50//50 72//72 73//73
f 50//50 73//73 57//57
f 50//50 57//57 51//51
f 52//52 74//74 53//53
f 53//53 75//75 54//54
f 53//53 74//74 76//76
f 53//53 76//76 77//77
f 53//53 77//77 78//78
f 53//53 78//78 75//75
f 54//54 79//79 80//80
f 54//54 80//80 81//81
f 54//54 81//81 55//55
f 54//54 75//75 79//79
f 55//55 81//81 82//82
f 55//55 82//82 83//83
f 55//55 83//83 56//56
f 57//57 73//73 84//84
f 57//57 84//84 60//60
f 57//57 60//60 58//58
f 60//60 84//84 61//61
f 61//61 84//84 85//85
f 61//61 85//85 86//86
f 61//61 86//86 62//62
f 62//62 86//86 63//63
f 63//63 86//86 87//87
f 64//64 88//88 65//65
f 65//65 89//89 90//90
f 65//65 90//90 66//66
f 65//65 88//88 91//91
f 65//65 91//91 92//92
f 65//65 92//92 89//89
f 67//67 93//93 68//68
f 68//68 93//93 69//69
f 69//69 93//93 94//94
f 69//69 94//94 70//70
f 70//70 94//94 95//95
f 70//70 95//95 96//96
f 70//70 96//96 71//71
f 71//71 96//96 72//72
f 72//72 96//96 97//97
f 72//72 97//97 98//98
f 72//72 98//98 99//99
f 72//72 99//99 73//73
f 73//73 99//99 100//100
f 73//73 100//100 84//84
f 75//75 101//101 102//102
f 75//75 102//102 103//103
f 75//75 103//103 104//104
f 75//75 104//104 79//79
f 75//75 78//78 105//105
f 75//75 105//105 106//106
f 75//75 106//106 101//101
f 79//79 104//104 107//107
f 79//79 107//107 108//108
f 79//79 108//108 109//109
f 79//79 109//109 110//110
f 79//79 110//110 80//80
f 80//80 110//110 111//111
f 80//80 111//111 81//81
f 81//81 111//111 112//112
f 81//81 112//112 113//113
f 81//81 113//113 82//82
f 84//84 100//100 114//114
f 84//84 114//114 85//85
f 85//85 114//114 115//115
f 85//85 115//115 86//86
f 86//86 115//115 116//116
f 86//86 116//116 87//87
f 89//89 117//117 118//118
f 89//89 118//118 119//119
f 89//89 119//119 120//120
f 89//89 120//120 121//121
f 89//89 121//121 90//90
f 89//89 92//92 122//122
f 89//89 122//122 117//117
f 91//91 123//123 92//92
f 92//92 124//124 125//125
f 92//92 125//125 126//126
f 92//92 126//126 122//122
f 92//92 123//123 124//124
f 94//94 127//127 95//95
f 95//95 127//127 128//128
f 95//95 128//128 129//129
f 95//95 129//129 96//96
f 96//96 129//129 97//97
f 97//97 129//129 130//130
f 97//97 130//130 131//131
f 97//97 131//131 98//98
f 98//98 131//131 132//132
f 98//98 132//132 133//133
f 98//98 133//133 99//99
f 99//99 133//133 134//134
f 99//99 134//134 100//100
f 100//100 134//134 135//135
f 100//100 135//135 114//114
f 101//101 136//136 119//119
f 101//101 119//119 102//102
f 101//101 106//106 137//137
f 101//101 137//137 138//138
f 101//101 138//138 136//136
f 102//102 119//119 118//118
f 102//102 118//118 139//139
f 102//102 139//139 107//107
f 102//102 107//107 103//103
f 103//103 107//107 104//104
f 107//107 139//139 140//140
f 107//107 140//140 108//108
f 108//108 140//140 109//109
f 109//109 141//141 110//110
f 109//109 140//140 133//133
f 109//109 133//133 132//132
f 109//109 132//132 141//141
f 110//110 141//141 142//142
f 110//110 142//142 111//111
f 111//111 142//142 143//143
f 111//111 143//143 112//112
f 112//112 143//143 144//144
f 114//114 135//135 126//126
f 114//114 126//126 115//115
f 115//115 145//145 146//146
f 115//115 146//146 116//116
f 115//115 126//126 145//145
f 117//117 147//147 140//140
f 117//117 140//140 139//139
f 117//117 139//139 118//118
f 117//117 122//122 147//147
f 119//119 136//136 148//148
f 119//119 148//148 120//120
f 120//120 148//148 121//121
f 122//122 126//126 135//135
f 122//122 135//135 134//134
f 122//122 134//134 147//147
f 125//125 149//149 126//126
f 126//126 149//149 150//150
f 126//126 150//150 145//145
f 128//128 151//151 129//129
f 129//129 151//151 152//152
f 129//129 152//152 130//130
f 130//130 152//152 153//153
f 130//130 153//153 143//143
f 130//130 143//143 131//131
f 131//131 143//143 142//142
f 131//131 142//142 141//141
f 131//131 141//141 132//132
f 133//133 140//140 134//134
f 134//134 140//140 147//147
f 136//136 138//138 154//154
f 136//136 154//154 148//148
f 143//143 153//153 144//144
f 145//145 150//150 146//146
