# Created by Open3D 
# object name: part_004
# number of vertices: 260
# number of triangles: 516
v -0.0380898 -0.0588639 0.0463481
vn -0.999944 -0.0104883 0.00118391
v -0.0380898 -0.0586275 0.0478334
vn -0.477595 -0.86364 0.161335
v -0.0380898 -0.0588418 0.0461902
vn -0.338883 -0.912525 -0.229033
v -0.0328121 -0.0613462 0.048429
vn -0.25505 -0.946342 -0.198459
v -0.0328121 -0.0613462 0.0486837
vn -0.397057 -0.844493 0.359412
v -0.0380898 -0.0585389 0.0480882
vn -0.509065 -0.810962 0.288432
v -0.0380898 -0.0585019 0.0449058
vn -0.220564 -0.889932 -0.399216
v -0.0319193 -0.0614312 0.0482819
vn -0.147956 -0.892884 -0.425285
v -0.0251619 -0.0630195 0.0498928
vn -0.163816 -0.964952 -0.205016
v -0.0251619 -0.0630195 0.050657
vn -0.220245 -0.969039 0.111601
v -0.0247587 -0.0628607 0.0517083
vn -0.209709 -0.929735 0.302681
v -0.0284308 -0.0614755 0.052128
vn -0.327405 -0.861659 0.387749
v -0.0312568 -0.0581806 0.0565662
vn -0.368715 -0.822978 0.432154
v -0.0338597 -0.0579368 0.0543704
vn -0.424356 -0.807852 0.409021
v -0.0365274 -0.0567363 0.0539507
vn -0.428162 -0.807253 0.406227
v -0.0380898 -0.0566255 0.0525155
vn -0.519815 -0.764606 0.381012
v -0.0380898 -0.0568951 0.0519271
vn -0.521553 -0.776783 0.352974
v -0.0380898 -0.0571537 0.0513531
vn -0.520195 -0.781143 0.345271
v -0.0380898 -0.0581067 0.049186
vn -0.519 -0.784825 0.338657
v -0.0380898 -0.058417 0.0484254
vn -0.514335 -0.797986 0.31413
v -0.0380898 -0.0583948 0.04473
vn -0.00158835 -0.649448 -0.760405
v -0.0303388 -0.0615937 0.0480882
vn -0.132379 -0.883946 -0.448459
v -0.0240135 -0.0631267 0.0497708
vn -0.00561386 -0.974739 -0.223275
v -0.0241467 -0.0631045 0.051084
vn -0.0989852 -0.989092 0.10908
v -0.0097823 -0.0637398 0.0572622
vn -0.150004 -0.952342 0.2656
v -0.0161113 -0.0622586 0.0588409
vn -0.154688 -0.943697 0.292416
v -0.0176917 -0.0619594 0.0588409
vn -0.1901 -0.931825 0.309134
v -0.0176917 -0.0615124 0.0601181
vn -0.201198 -0.916531 0.345673
v -0.0187177 -0.0613684 0.0598275
vn -0.295735 -0.866973 0.401121
v -0.0255507 -0.06159 0.0541121
vn -0.283931 -0.883082 0.373564
v -0.0267495 -0.0614238 0.0535919
vn -0.308548 -0.862427 0.40127
v -0.0278044 -0.0612206 0.0531829
vn -0.333944 -0.845753 0.416153
v -0.028402 -0.0583246 0.058335
vn -0.345896 -0.786017 0.512381
v -0.0294532 -0.0580624 0.0579834
vn -0.41102 -0.670024 0.618167
v -0.0331505 -0.0568397 0.0567779
vn -0.433204 -0.648238 0.626196
v -0.0359118 -0.0565627 0.0549158
vn -0.451632 -0.738992 0.49992
v -0.0250683 -0.0597985 0.0582345
vn -0.326774 -0.841357 0.430507
v -0.0374742 -0.0565479 0.0533228
vn -0.471567 -0.759677 0.447788
v -0.0380898 -0.0557537 0.0539722
vn -0.761324 -0.553094 0.338338
v -0.0380898 -0.057331 0.0439657
vn 0.124198 -0.400377 -0.907895
v -0.0240135 -0.0616787 0.0482675
vn 0.119637 -0.52546 -0.842365
v -0.0287584 -0.0617525 0.0479733
vn 0.00635011 -0.714665 -0.699438
v -0.0240135 -0.0624692 0.0489779
vn 0.101392 -0.697882 -0.708999
v -0.022433 -0.0630639 0.0498892
vn 0.0852725 -0.82468 -0.559134
v -0.00131128 -0.0635921 0.0540978
vn 0.999633 -0.0244525 -0.0116875
v -0.00345693 -0.0637029 0.0540978
vn 0.0285017 -0.968236 -0.24841
v -0.00503738 -0.0641092 0.05568
vn 0.0236541 -0.986798 -0.160218
v -0.00662142 -0.0641388 0.05568
vn -0.00347998 -0.993814 -0.110999
v -0.00820186 -0.0640982 0.05568
vn -0.0650811 -0.997428 0.0300211
v -0.00820186 -0.0639652 0.0572622
vn -0.0931655 -0.984144 0.150935
v -0.00820186 -0.0634628 0.0588409
vn -0.127313 -0.931281 0.341332
v -0.0160753 -0.0616085 0.0605343
vn -0.139357 -0.916404 0.375211
v -0.0165793 -0.0612317 0.0611335
vn -0.147017 -0.836635 0.527662
v -0.0176917 -0.0611061 0.0609038
vn -0.267667 -0.789197 0.552741
v -0.0192541 -0.0608439 0.0603836
vn -0.315557 -0.798267 0.513023
v -0.0232502 -0.0597135 0.0596517
vn -0.33251 -0.789025 0.516601
v -0.0265191 -0.0581843 0.0597019
vn -0.358982 -0.668334 0.651508
v -0.0275703 -0.0578444 0.0593898
vn -0.421263 -0.586093 0.692122
v -0.031264 -0.0566365 0.0581269
vn -0.427931 -0.584453 0.689412
v -0.0323189 -0.0562044 0.0578327
vn -0.444425 -0.520849 0.728837
v -0.0342017 -0.0564592 0.0563904
vn -0.467248 -0.589419 0.658988
v -0.0377262 -0.0551405 0.0550485
vn -0.488698 -0.598201 0.635082
v -0.0380898 -0.0556503 0.0541121
vn -0.944192 -0.248482 0.216237
v -0.0380898 -0.0557205 0.054026
vn -0.830074 -0.448446 0.331471
v -0.0020025 -0.058779 0.0503808
vn 0.159054 -0.275379 -0.948087
v -0.00131128 -0.0594956 0.0507683
vn 0.192136 -0.351992 -0.916071
v -0.00131128 -0.060541 0.0511701
vn 0.151338 -0.421414 -0.894152
v -0.0380898 -0.0558719 0.0435101
vn 0.107509 -0.271776 -0.956337
v -0.00131128 -0.0608956 0.0513638
vn 0.17798 -0.48946 -0.85367
v -0.00131128 -0.0613795 0.0516509
vn 0.164722 -0.546838 -0.820874
v -0.00131128 -0.0616011 0.0518338
vn 0.138113 -0.646784 -0.750064
v -0.00131128 -0.0624987 0.052616
vn 0.1287 -0.660489 -0.739723
v -0.00131128 -0.0630528 0.0531255
vn 0.109175 -0.742746 -0.660613
v -0.00131128 -0.0632375 0.0534555
vn 0.0745685 -0.872052 -0.483699
v -0.00131128 -0.0637398 0.054661
vn 0.0502036 -0.972081 -0.22921
v -0.00131128 -0.0639652 0.05568
vn 0.0633673 -0.984129 -0.165757
v -0.00131128 -0.0639504 0.0562433
vn 0.155552 -0.986857 0.0437724
v -0.00131128 -0.063895 0.0572622
vn 0.113589 -0.989435 0.0900873
v -0.00503738 -0.063991 0.0572622
vn 0.023961 -0.989795 0.14047
v -0.00662142 -0.0640243 0.0572622
vn -0.0053881 -0.981504 0.191368
v -0.00662142 -0.0635515 0.0588409
vn -0.0173144 -0.944311 0.328598
v -0.00662142 -0.0630565 0.0600033
vn -0.0405244 -0.90011 0.433774
v -0.00820186 -0.0630011 0.0598921
vn -0.077577 -0.89203 0.445269
v -0.00929988 -0.0629346 0.0597665
vn -0.120192 -0.888877 0.442098
v -0.0155244 -0.061313 0.0612447
vn -0.109668 -0.774518 0.622973
v -0.0161185 -0.060504 0.0619981
vn -0.148805 -0.714427 0.683704
v -0.0176917 -0.0603156 0.0618152
vn -0.204806 -0.704125 0.679899
v -0.0192721 -0.0600312 0.061521
vn -0.27191 -0.659465 0.700836
v -0.0202766 -0.0598022 0.0613057
vn -0.324886 -0.687766 0.649174
v -0.023351 -0.0581954 0.0612662
vn -0.316446 -0.517664 0.794913
v -0.0244059 -0.0578075 0.0610079
vn -0.377887 -0.491332 0.784725
v -0.028258 -0.056788 0.0597844
vn -0.405838 -0.480711 0.777311
v -0.0329201 -0.0551479 0.0581592
vn -0.433877 -0.446954 0.782293
v -0.0339749 -0.0546086 0.057865
vn -0.452065 -0.443259 0.774053
v -0.0358614 -0.0549448 0.0564621
vn -0.467746 -0.509546 0.722202
v -0.0348065 -0.0554028 0.0568137
vn -0.463819 -0.541496 0.701181
v -0.0380898 -0.0541506 0.0555544
vn -0.942692 -0.208521 0.260483
v -0.00131128 -0.0588307 0.0505171
vn 0.907805 -0.0764362 -0.412369
v -0.0380898 -0.0527986 0.0426777
vn 0.116364 -0.250807 -0.961018
v -0.00261451 -0.0581621 0.0501368
vn 0.187206 -0.125042 -0.97433
v -0.00131128 -0.0637805 0.0578255
vn 0.266185 -0.944114 0.194406
v -0.00131128 -0.0635699 0.0588409
vn 0.142539 -0.950283 0.276847
v -0.00131128 -0.0631045 0.0601576
vn 0.321254 -0.891524 0.319345
v -0.00187649 -0.0631008 0.060154
vn -0.017575 -0.914291 0.404677
v -0.00503738 -0.063075 0.0600607
vn -0.0215719 -0.91128 0.411223
v -0.00187649 -0.0627166 0.0609397
vn -0.019357 -0.837714 0.545765
v -0.00503738 -0.0626686 0.0608464
vn -0.0320254 -0.846764 0.531005
v -0.00662142 -0.0626317 0.060789
vn -0.0571143 -0.849517 0.52446
v -0.00820186 -0.0625615 0.060685
vn -0.0962856 -0.841123 0.532204
v -0.015654 -0.0597763 0.0628556
vn -0.132442 -0.663312 0.73653
v -0.00820186 -0.061771 0.0618295
vn -0.0938198 -0.80904 0.580217
v -0.00689142 -0.0612391 0.0627408
vn -0.0987674 -0.752834 0.650758
v -0.00737383 -0.0596877 0.0643697
vn -0.131253 -0.469553 0.873094
v -0.0167089 -0.0596323 0.062748
vn -0.229188 -0.56235 0.794503
v -0.0176917 -0.0593478 0.0626045
vn -0.290657 -0.507228 0.811319
v -0.0186781 -0.0582471 0.0628484
vn -0.273317 -0.378591 0.884289
v -0.0197293 -0.0578371 0.0626942
vn -0.287636 -0.374651 0.88142
v -0.022433 -0.057331 0.0620125
vn -0.298388 -0.371233 0.87929
v -0.0239343 -0.0573014 0.0614887
vn -0.318476 -0.387742 0.865003
v -0.0250251 -0.0567547 0.0613164
vn -0.363108 -0.362916 0.858164
v -0.0287728 -0.0557574 0.0600248
vn -0.389938 -0.365021 0.845404
v -0.0297988 -0.0552366 0.0597701
vn -0.410907 -0.36846 0.833902
v -0.0293092 -0.0562893 0.0594938
vn -0.426361 -0.416022 0.803207
v -0.0344465 -0.0535522 0.0581305
vn -0.440307 -0.369942 0.818091
v -0.0374598 -0.0533786 0.0564729
vn -0.477403 -0.373649 0.795282
v -0.0380898 -0.054073 0.0556118
vn -0.621944 -0.433867 0.651878
v -0.00131128 -0.057331 0.0503162
vn 0.269611 0.015806 -0.96284
v -0.0380898 -0.0525844 0.0426311
vn 0.107777 -0.12031 -0.986869
v -0.0380898 -0.0510034 0.0424589
vn 0.140849 -0.0928291 -0.985669
v -0.00131128 -0.0629678 0.0604374
vn 0.892811 -0.40428 0.19861
v -0.00131128 -0.0627166 0.0609433
vn 0.983897 -0.147995 0.100216
v -0.00131128 -0.0618818 0.0620412
vn 0.552162 -0.660163 0.509217
v -0.00583659 -0.0612834 0.0627946
vn -0.0240341 -0.794113 0.607295
v -0.00646661 -0.0617304 0.0621273
vn -0.0474505 -0.819642 0.570907
v -0.0161545 -0.0590265 0.0631785
vn -0.158491 -0.415109 0.89586
v -0.00503738 -0.0598391 0.0644953
vn -0.0273266 -0.438986 0.898078
v -0.00631901 -0.0597726 0.0644343
vn -0.0769732 -0.449646 0.889884
v -0.0104339 -0.0517385 0.0675126
vn -0.152898 -0.413316 0.897659
v -0.00503738 -0.039353 0.0739599
vn -0.0711098 -0.414901 0.907083
v -0.00755384 -0.0423487 0.0723024
vn -0.112946 -0.413219 0.9036
v -0.00860507 -0.0421751 0.0722234
vn -0.184453 -0.389949 0.902173
v -0.0176917 -0.0585574 0.0630135
vn -0.240769 -0.379732 0.893216
v -0.0162517 -0.0290101 0.0758938
vn -0.268401 -0.372449 0.888393
v -0.0176917 -0.0383556 0.0715202
vn -0.273855 -0.372849 0.886559
v -0.0192577 -0.0383704 0.0710287
vn -0.292822 -0.369251 0.881992
v -0.0240135 -0.0557463 0.0621201
vn -0.317387 -0.36394 0.875679
v -0.0247731 -0.0343736 0.0706878
vn -0.338826 -0.357759 0.870175
v -0.0299896 -0.0364126 0.0677279
vn -0.352826 -0.358449 0.864308
v -0.0310444 -0.0358918 0.0674983
vn -0.384384 -0.358689 0.850642
v -0.0312136 -0.0392384 0.0659986
vn -0.39351 -0.362516 0.844827
v -0.0345833 -0.0426072 0.0629453
vn -0.413457 -0.365818 0.833805
v -0.0360702 -0.0409783 0.0629023
vn -0.440579 -0.355807 0.824192
v -0.0380898 -0.0525844 0.0563868
vn -0.995832 -0.0383578 0.0827468
v -0.0380898 -0.0540287 0.0556405
vn -0.99526 -0.0449057 0.0862587
v -0.0380898 -0.0383556 0.0629059
vn -0.950309 -0.12863 0.283491
v -0.00131128 -0.0564334 0.0503915
vn 0.327307 0.0823092 -0.941326
v -0.0380898 -0.0508446 0.042466
vn 0.104779 0.0563299 -0.992899
v -0.0380898 -0.0494224 0.0425486
vn 0.145755 0.0968829 -0.984566
v -0.00131128 -0.0616048 0.062382
vn 0.643502 -0.588681 0.489245
v -0.00581139 -0.0612834 0.0627946
vn 0.00374036 -0.768479 0.639864
v -0.00518498 -0.0607515 0.0634261
vn 0.00159046 -0.764774 0.644297
v -0.0159709 -0.0571832 0.0640324
vn -0.216857 -0.384511 0.897287
v -0.00345693 -0.0598428 0.0644988
vn 0.00425454 -0.466596 0.884461
v -0.00131128 -0.0378865 0.0747349
vn 0.901117 -0.183313 0.392918
v -0.00131128 -0.0366712 0.0752982
vn 0.244816 -0.406425 0.880275
v -0.00345693 -0.0394084 0.0739815
vn -0.0241803 -0.419283 0.907533
v -0.00131128 -0.0361615 0.0755278
vn 0.912054 -0.166774 0.374624
v -0.00131128 -0.0357847 0.0756928
vn 0.918756 -0.155979 0.362709
v -0.00131128 -0.0351937 0.075944
vn 0.789049 -0.232417 0.568668
v -0.00503738 -0.0383556 0.0743618
vn -0.0903589 -0.369743 0.92473
v -0.0060058 -0.0392237 0.0738989
vn -0.135592 -0.383307 0.913614
v -0.00662142 -0.0367746 0.0747995
vn -0.162726 -0.37483 0.912701
v -0.00662142 -0.0355667 0.075291
vn -0.158945 -0.357876 0.920142
v -0.0145272 -0.0288661 0.076414
vn -0.189292 -0.366713 0.910873
v -0.014484 -0.0304914 0.0757395
vn -0.220462 -0.379787 0.89842
v -0.0129468 -0.0427919 0.0709139
vn -0.218204 -0.381766 0.898132
v -0.0140052 -0.0424817 0.0707811
vn -0.228994 -0.380216 0.896101
v -0.015816 -0.0299964 0.0756067
vn -0.235465 -0.378884 0.894988
v -0.0168709 -0.0296344 0.0754345
vn -0.320259 -0.345603 0.882039
v -0.0160249 -0.0271854 0.0766759
vn -0.289168 -0.343368 0.893577
v -0.0192721 -0.0367746 0.0716853
vn -0.307374 -0.360221 0.880773
v -0.021479 -0.0374137 0.0706448
vn -0.312016 -0.362624 0.878151
v -0.0225194 -0.0368411 0.0705049
vn -0.320194 -0.359364 0.876546
v -0.0252915 -0.0333209 0.0709031
vn -0.335709 -0.336208 0.879923
v -0.02923 -0.0340744 0.068998
vn -0.361089 -0.337183 0.869438
v -0.0287224 -0.0351493 0.0687648
vn -0.352323 -0.355741 0.865631
v -0.0304468 -0.0352934 0.0680006
vn -0.373616 -0.341137 0.862576
v -0.0314944 -0.0348354 0.0677171
vn -0.406564 -0.342444 0.847017
v -0.0350981 -0.0415102 0.0631642
vn -0.41026 -0.353461 0.840686
v -0.0319805 -0.0352934 0.0672866
vn -0.417699 -0.347029 0.839701
v -0.0378918 -0.0270007 0.0677709
vn -0.423128 -0.346265 0.837295
v -0.0380898 -0.0377646 0.0631678
vn -0.968387 -0.0963977 0.230074
v -0.00131128 -0.0558128 0.0504489
vn 0.290773 0.215217 -0.932273
v -0.0380898 -0.0481333 0.0427495
vn 0.0967374 0.155288 -0.983121
v -0.00131128 -0.0606444 0.0635301
vn 0.519244 -0.653501 0.550747
v -0.00131128 -0.0598207 0.0644737
vn 0.938017 -0.215728 0.271268
v -0.00131128 -0.058912 0.0649079
vn 0.996508 -0.0354451 0.0756015
v -0.00187649 -0.058912 0.064915
vn 0.0110013 -0.423396 0.905878
v -0.00131128 -0.0346137 0.0761772
vn 0.689396 -0.266538 0.673566
v -0.00503738 -0.0367746 0.0749896
vn -0.0886079 -0.367251 0.925892
v -0.00503738 -0.0357958 0.0753771
vn -0.0894514 -0.360323 0.928529
v -0.00503738 -0.0350053 0.0756749
vn -0.0956702 -0.348715 0.932333
v -0.00503738 -0.033609 0.0761951
vn -0.100221 -0.342946 0.933993
v -0.00660341 -0.0271743 0.0783694
vn -0.10967 -0.338739 0.934467
v -0.00820186 -0.0272851 0.0781254
vn -0.130207 -0.339884 0.93141
v -0.0097823 -0.0272851 0.077885
vn -0.153316 -0.34586 0.925676
v -0.0113663 -0.0272851 0.0776016
vn -0.166518 -0.350809 0.921523
v -0.013422 -0.0279426 0.0769773
vn -0.169186 -0.352604 0.920351
v -0.0145272 -0.0276545 0.0768768
vn -0.185547 -0.342379 0.921059
v -0.0154416 -0.0265944 0.0770634
vn -0.230813 -0.339614 0.911805
v -0.0176989 -0.0264023 0.0763566
vn -0.00826711 0.999716 0.0223394
v -0.0235886 -0.0268455 0.0740066
vn -0.328661 -0.335597 0.882812
v -0.0163705 -0.0264023 0.0768445
vn -0.308326 -0.292642 0.90515
v -0.0246003 -0.0264023 0.0737841
vn -0.345729 -0.316977 0.883174
v -0.0280888 -0.0266165 0.0723311
vn -0.352709 -0.332796 0.874553
v -0.0263463 -0.0327742 0.0706842
vn -0.357615 -0.334883 0.87176
v -0.0290104 -0.0264023 0.0720333
vn -0.368429 -0.294444 0.881795
v -0.0319517 -0.0264023 0.0707991
vn -0.37047 -0.289652 0.882527
v -0.0324377 -0.0264023 0.0705946
vn -0.377582 -0.292679 0.878505
v -0.0302848 -0.0335721 0.0687432
vn -0.37477 -0.336013 0.864085
v -0.0335609 -0.0264023 0.070103
vn -0.393739 -0.281816 0.874957
v -0.0349001 -0.0264023 0.0694716
vn -0.424343 -0.208548 0.881159
v -0.0373158 -0.0264023 0.0682948
vn -0.428649 -0.208318 0.879127
v -0.0380898 -0.0264835 0.0678786
vn -0.999497 -0.0121379 0.0293108
v -0.0380898 -0.0479006 0.0427889
vn 0.0876241 0.242409 -0.966209
v -0.0380898 -0.0461312 0.0432518
vn 0.0865293 0.252322 -0.963767
v -0.0380898 -0.0461053 0.0432589
vn 0.171379 0.336337 -0.926016
v -0.00131128 -0.0547305 0.05084
vn 0.35221 0.32307 -0.878393
v -0.00131128 -0.0335647 0.0765862
vn 0.85848 -0.183171 0.479021
v -0.00131128 -0.0331805 0.0767297
vn 0.886067 -0.160173 0.435005
v -0.00187649 -0.0288661 0.0782545
vn -0.0946203 -0.338681 0.936131
v -0.00503738 -0.0288661 0.0779316
vn -0.0990021 -0.340079 0.935171
v -0.006067 -0.0265722 0.0786349
vn -0.0903933 -0.310296 0.946332
v -0.00713983 -0.0264023 0.0785667
vn -0.125611 -0.0376062 0.991367
v -0.00820186 -0.0264023 0.0784268
vn -0.126899 0.427851 0.894897
v -0.0098471 -0.0264023 0.0781828
vn -0.153187 0.096778 0.983447
v -0.0113663 -0.0264023 0.0779281
vn -0.173999 -0.0190396 0.984562
v -0.0129324 -0.0264023 0.077641
vn -0.178683 -0.223525 0.95818
v -0.0145272 -0.026864 0.0771603
vn -0.193201 -0.33082 0.923705
v -0.0139008 -0.0264023 0.0774545
vn -0.193318 -0.0840394 0.97753
v -0.0145272 -0.0264023 0.0773253
vn -0.204131 0.118392 0.971758
v -0.0152472 -0.0264023 0.077171
vn -0.162316 0.689585 0.70578
v -0.0155568 -0.0264023 0.0770885
vn -0.270573 0.245583 0.930849
v -0.0237867 -0.0264023 0.0740927
vn -0.331985 -0.310704 0.890645
v -0.0282112 -0.0264023 0.0723598
vn -0.338866 0.395762 0.853547
v -0.0380898 -0.0264023 0.0679109
vn -0.846197 0.53287 0.00010393
v -0.0380898 -0.0450304 0.0436536
vn 0.133729 0.352085 -0.926365
v -0.00131128 -0.0541173 0.0510732
vn 0.418521 0.368617 -0.830037
v -0.00131128 -0.0288365 0.0783191
vn 0.998132 -0.0206957 0.0574738
v -0.00187649 -0.0279537 0.0785703
vn -0.0916715 -0.323835 0.941662
v -0.00131128 -0.028035 0.0785954
vn 0.971318 -0.0731197 0.226263
v -0.00131128 -0.027274 0.0788394
vn 0.931458 -0.11018 0.346765
v -0.00131128 -0.0266461 0.0790367
vn 0.934895 -0.104681 0.339135
v -0.00131128 -0.0264023 0.0791085
vn 0.912644 0.408743 0.0030936
v -0.0061822 -0.0264023 0.0786707
vn -0.0130352 0.990011 0.140389
v -0.00710743 -0.0264023 0.0785703
vn -0.0179452 0.986102 0.165166
v -0.0380898 -0.0264023 0.0521567
vn -0.310195 0.845124 -0.435368
v -0.0380898 -0.0446795 0.0438007
vn 0.0677135 0.38965 -0.91847
v -0.0380898 -0.0443877 0.0439263
vn 0.190103 0.403198 -0.89515
v -0.00131128 -0.0264023 0.0634333
vn 0.481983 0.618346 -0.620759
f 1//1 2//2 6//6
f 1//1 6//6 20//20
f 1//1 20//20 19//19
f 1//1 19//19 18//18
f 1//1 18//18 17//17
f 1//1 17//17 16//16
f 1//1 16//16 39//39
f 1//1 39//39 64//64
f 1//1 64//64 63//63
f 1//1 63//63 97//97
f 1//1 97//97 126//126
f 1//1 126//126 154//154
f 1//1 154//154 153//153
f 1//1 153//153 155//155
f 1//1 155//155 192//192
f 1//1 192//192 224//224
f 1//1 224//224 246//246
f 1//1 246//246 257//257
f 1//1 257//257 259//259
f 1//1 259//259 258//258
f 1//1 258//258 247//247
f 1//1 247//247 227//227
f 1//1 227//227 226//226
f 1//1 226//226 225//225
f 1//1 225//225 194//194
f 1//1 194//194 158//158
f 1//1 158//158 157//157
f 1//1 157//157 129//129
f 1//1 129//129 128//128
f 1//1 128//128 99//99
f 1//1 99//99 68//68
f 1//1 68//68 40//40
f 1//1 40//40 21//21
f 1//1 21//21 7//7
f 1//1 7//7 3//3
f 1//1 3//3 4//4
f 1//1 4//4 5//5
f 1//1 5//5 2//2
f 2//2 5//5 6//6
f 3//3 7//7 4//4
f 4//4 8//8 9//9
f 4//4 9//9 10//10
f 4//4 10//10 5//5
f 4//4 7//7 8//8
f 5//5 10//10 11//11
f 5//5 11//11 12//12
f 5//5 12//12 13//13
f 5//5 13//13 14//14
f 5//5 14//14 15//15
f 5//5 15//15 16//16
f 5//5 16//16 17//17
f 5//5 17//17 18//18
f 5//5 18//18 19//19
f 5//5 19//19 20//20
f 5//5 20//20 6//6
f 7//7 21//21 22//22
f 7//7 22//22 8//8
f 8//8 22//22 9//9
f 9//9 23//23 10//10
f 9//9 22//22 23//23
f 10//10 23//23 24//24
f 10//10 24//24 11//11
f 11//11 24//24 25//25
f 11//11 25//25 26//26
f 11//11 26//26 27//27
f 11//11 27//27 28//28
f 11//11 28//28 29//29
f 11//11 29//29 30//30
f 11//11 30//30 31//31
f 11//11 31//31 12//12
f 12//12 31//31 32//32
f 12//12 32//32 13//13
f 13//13 33//33 34//34
f 13//13 34//34 35//35
f 13//13 35//35 36//36
f 13//13 36//36 14//14
f 13//13 32//32 37//37
f 13//13 37//37 33//33
f 14//14 36//36 15//15
f 15//15 36//36 38//38
f 15//15 38//38 16//16
f 16//16 38//38 39//39
f 21//21 40//40 41//41
f 21//21 41//41 42//42
f 21//21 42//42 22//22
f 22//22 42//42 23//23
f 23//23 43//43 44//44
f 23//23 44//44 45//45
f 23//23 45//45 46//46
f 23//23 46//46 47//47
f 23//23 47//47 48//48
f 23//23 48//48 49//49
f 23//23 49//49 24//24
f 23//23 42//42 43//43
f 24//24 49//49 50//50
f 24//24 50//50 25//25
f 25//25 50//50 51//51
f 25//25 51//51 26//26
f 26//26 51//51 52//52
f 26//26 52//52 28//28
f 26//26 28//28 27//27
f 28//28 52//52 53//53
f 28//28 53//53 54//54
f 28//28 54//54 29//29
f 29//29 31//31 30//30
f 29//29 54//54 55//55
f 29//29 55//55 56//56
f 29//29 56//56 37//37
f 29//29 37//37 31//31
f 31//31 37//37 32//32
f 33//33 57//57 34//34
f 33//33 37//37 56//56
f 33//33 56//56 57//57
f 34//34 57//57 58//58
f 34//34 58//58 35//35
f 35//35 59//59 60//60
f 35//35 60//60 61//61
f 35//35 61//61 36//36
f 35//35 58//58 59//59
f 36//36 61//61 62//62
f 36//36 62//62 63//63
f 36//36 63//63 64//64
f 36//36 64//64 39//39
f 36//36 39//39 38//38
f 40//40 65//65 66//66
f 40//40 66//66 67//67
f 40//40 67//67 41//41
f 40//40 68//68 65//65
f 41//41 67//67 69//69
f 41//41 69//69 70//70
f 41//41 70//70 71//71
f 41//41 71//71 72//72
f 41//41 72//72 43//43
f 41//41 43//43 42//42
f 43//43 72//72 73//73
f 43//43 73//73 44//44
f 44//44 73//73 74//74
f 44//44 74//74 45//45
f 45//45 75//75 46//46
f 45//45 74//74 73//73
f 45//45 73//73 72//72
f 45//45 72//72 71//71
f 45//45 71//71 70//70
f 45//45 70//70 69//69
f 45//45 69//69 67//67
f 45//45 67//67 66//66
f 45//45 66//66 98//98
f 45//45 98//98 127//127
f 45//45 127//127 156//156
f 45//45 156//156 193//193
f 45//45 193//193 228//228
f 45//45 228//228 248//248
f 45//45 248//248 260//260
f 45//45 260//260 254//254
f 45//45 254//254 253//253
f 45//45 253//253 252//252
f 45//45 252//252 251//251
f 45//45 251//251 249//249
f 45//45 249//249 230//230
f 45//45 230//230 229//229
f 45//45 229//229 199//199
f 45//45 199//199 169//169
f 45//45 169//169 168//168
f 45//45 168//168 167//167
f 45//45 167//167 165//165
f 45//45 165//165 164//164
f 45//45 164//164 197//197
f 45//45 197//197 196//196
f 45//45 196//196 195//195
f 45//45 195//195 159//159
f 45//45 159//159 132//132
f 45//45 132//132 131//131
f 45//45 131//131 130//130
f 45//45 130//130 103//103
f 45//45 103//103 102//102
f 45//45 102//102 101//101
f 45//45 101//101 78//78
f 45//45 78//78 77//77
f 45//45 77//77 76//76
f 45//45 76//76 75//75
f 46//46 75//75 76//76
f 46//46 76//76 47//47
f 47//47 76//76 77//77
f 47//47 77//77 78//78
f 47//47 78//78 79//79
f 47//47 79//79 80//80
f 47//47 80//80 48//48
f 48//48 80//80 49//49
f 49//49 80//80 50//50
f 50//50 80//80 81//81
f 50//50 81//81 51//51
f 51//51 81//81 82//82
f 51//51 82//82 83//83
f 51//51 83//83 84//84
f 51//51 84//84 52//52
f 52//52 84//84 53//53
f 53//53 84//84 85//85
f 53//53 85//85 86//86
f 53//53 86//86 87//87
f 53//53 87//87 54//54
f 54//54 87//87 88//88
f 54//54 88//88 89//89
f 54//54 89//89 55//55
f 55//55 89//89 56//56
f 56//56 89//89 57//57
f 57//57 90//90 91//91
f 57//57 91//91 92//92
f 57//57 92//92 58//58
f 57//57 89//89 90//90
f 58//58 92//92 60//60
f 58//58 60//60 59//59
f 60//60 92//92 93//93
f 60//60 93//93 94//94
f 60//60 94//94 95//95
f 60//60 95//95 96//96
f 60//60 96//96 61//61
f 61//61 96//96 95//95
f 61//61 95//95 62//62
f 62//62 95//95 97//97
f 62//62 97//97 63//63
f 65//65 98//98 66//66
f 65//65 68//68 99//99
f 65//65 99//99 100//100
f 65//65 100//100 98//98
f 78//78 101//101 79//79
f 79//79 101//101 102//102
f 79//79 102//102 80//80
f 80//80 102//102 81//81
f 81//81 102//102 103//103
f 81//81 103//103 104//104
f 81//81 104//104 105//105
f 81//81 105//105 82//82
f 82//82 105//105 106//106
f 82//82 106//106 107//107
f 82//82 107//107 108//108
f 82//82 108//108 83//83
f 83//83 108//108 109//109
f 83//83 109//109 84//84
f 84//84 109//109 85//85
f 85//85 110//110 86//86
f 85//85 109//109 111//111
f 85//85 111//111 112//112
f 85//85 112//112 113//113
f 85//85 113//113 110//110
f 86//86 110//110 87//87
f 87//87 110//110 114//114
f 87//87 114//114 88//88
f 88//88 114//114 115//115
f 88//88 115//115 89//89
f 89//89 115//115 90//90
f 90//90 115//115 116//116
f 90//90 116//116 117//117
f 90//90 117//117 118//118
f 90//90 118//118 119//119
f 90//90 119//119 120//120
f 90//90 120//120 91//91
f 91//91 120//120 92//92
f 92//92 120//120 121//121
f 92//92 121//121 122//122
f 92//92 122//122 123//123
f 92//92 123//123 93//93
f 93//93 123//123 122//122
f 93//93 122//122 94//94
f 94//94 124//124 125//125
f 94//94 125//125 95//95
f 94//94 122//122 124//124
f 95//95 125//125 126//126
f 95//95 126//126 97//97
f 98//98 100//100 127//127
f 99//99 128//128 100//100
f 100//100 128//128 129//129
f 100//100 129//129 127//127
f 103//103 130//130 104//104
f 104//104 130//130 106//106
f 104//104 106//106 105//105
f 106//106 130//130 131//131
f 106//106 131//131 132//132
f 106//106 132//132 133//133
f 106//106 133//133 134//134
f 106//106 134//134 107//107
f 107//107 134//134 108//108
f 108//108 134//134 109//109
f 109//109 134//134 111//111
f 110//110 113//113 135//135
f 110//110 135//135 114//114
f 111//111 134//134 112//112
f 112//112 134//134 133//133
f 112//112 133//133 136//136
f 112//112 136//136 137//137
f 112//112 137//137 113//113
f 113//113 138//138 135//135
f 113//113 137//137 139//139
f 113//113 139//139 140//140
f 113//113 140//140 141//141
f 113//113 141//141 138//138
f 114//114 135//135 142//142
f 114//114 142//142 115//115
f 115//115 142//142 116//116
f 116//116 142//142 143//143
f 116//116 143//143 144//144
f 116//116 144//144 145//145
f 116//116 145//145 117//117
f 117//117 145//145 118//118
f 118//118 146//146 119//119
f 118//118 145//145 146//146
f 119//119 146//146 120//120
f 120//120 146//146 147//147
f 120//120 147//147 148//148
f 120//120 148//148 149//149
f 120//120 149//149 150//150
f 120//120 150//150 121//121
f 121//121 150//150 122//122
f 122//122 150//150 151//151
f 122//122 151//151 124//124
f 124//124 151//151 152//152
f 124//124 152//152 125//125
f 125//125 153//153 154//154
f 125//125 154//154 126//126
f 125//125 152//152 155//155
f 125//125 155//155 153//153
f 127//127 129//129 157//157
f 127//127 157//157 158//158
f 127//127 158//158 156//156
f 132//132 159//159 160//160
f 132//132 160//160 133//133
f 133//133 160//160 161//161
f 133//133 161//161 136//136
f 135//135 162//162 142//142
f 135//135 138//138 141//141
f 135//135 141//141 162//162
f 136//136 161//161 163//163
f 136//136 163//163 164//164
f 136//136 164//164 165//165
f 136//136 165//165 166//166
f 136//136 166//166 139//139
f 136//136 139//139 137//137
f 139//139 166//166 165//165
f 139//139 165//165 167//167
f 139//139 167//167 168//168
f 139//139 168//168 169//169
f 139//139 169//169 170//170
f 139//139 170//170 171//171
f 139//139 171//171 140//140
f 140//140 171//171 141//141
f 141//141 171//171 172//172
f 141//141 172//172 173//173
f 141//141 173//173 174//174
f 141//141 174//174 175//175
f 141//141 175//175 176//176
f 141//141 176//176 162//162
f 142//142 162//162 177//177
f 142//142 177//177 178//178
f 142//142 178//178 143//143
f 143//143 179//179 145//145
f 143//143 145//145 144//144
f 143//143 178//178 174//174
f 143//143 174//174 180//180
f 143//143 180//180 179//179
f 145//145 179//179 181//181
f 145//145 181//181 182//182
f 145//145 182//182 146//146
f 146//146 182//182 183//183
f 146//146 183//183 147//147
f 147//147 183//183 179//179
f 147//147 179//179 184//184
f 147//147 184//184 185//185
f 147//147 185//185 186//186
f 147//147 186//186 148//148
f 148//148 186//186 187//187
f 148//148 187//187 149//149
f 149//149 187//187 188//188
f 149//149 188//188 189//189
f 149//149 189//189 150//150
f 150//150 189//189 151//151
f 151//151 189//189 152//152
f 152//152 189//189 190//190
f 152//152 190//190 191//191
f 152//152 191//191 192//192
f 152//152 192//192 155//155
f 156//156 158//158 193//193
f 158//158 194//194 193//193
f 159//159 195//195 160//160
f 160//160 195//195 161//161
f 161//161 195//195 163//163
f 162//162 176//176 177//177
f 163//163 195//195 196//196
f 163//163 196//196 197//197
f 163//163 197//197 198//198
f 163//163 198//198 164//164
f 164//164 198//198 197//197
f 169//169 199//199 170//170
f 170//170 199//199 200//200
f 170//170 200//200 173//173
f 170//170 173//173 171//171
f 171//171 173//173 172//172
f 173//173 200//200 201//201
f 173//173 201//201 202//202
f 173//173 202//202 203//203
f 173//173 203//203 204//204
f 173//173 204//204 205//205
f 173//173 205//205 206//206
f 173//173 206//206 207//207
f 173//173 207//207 208//208
f 173//173 208//208 174//174
f 174//174 208//208 209//209
f 174//174 209//209 210//210
f 174//174 210//210 180//180
f 174//174 178//178 175//175
f 175//175 178//178 177//177
f 175//175 177//177 176//176
f 179//179 180//180 211//211
f 179//179 211//211 212//212
f 179//179 212//212 184//184
f 179//179 183//183 182//182
f 179//179 182//182 181//181
f 180//180 210//210 213//213
f 180//180 213//213 211//211
f 184//184 212//212 214//214
f 184//184 214//214 215//215
f 184//184 215//215 216//216
f 184//184 216//216 185//185
f 185//185 216//216 215//215
f 185//185 215//215 217//217
f 185//185 217//217 218//218
f 185//185 218//218 219//219
f 185//185 219//219 220//220
f 185//185 220//220 187//187
f 185//185 187//187 186//186
f 187//187 220//220 221//221
f 187//187 221//221 188//188
f 188//188 190//190 189//189
f 188//188 221//221 222//222
f 188//188 222//222 223//223
f 188//188 223//223 191//191
f 188//188 191//191 190//190
f 191//191 223//223 224//224
f 191//191 224//224 192//192
f 193//193 194//194 225//225
f 193//193 225//225 226//226
f 193//193 226//226 227//227
f 193//193 227//227 228//228
f 199//199 201//201 200//200
f 199//199 229//229 201//201
f 201//201 229//229 202//202
f 202//202 229//229 230//230
f 202//202 230//230 203//203
f 203//203 230//230 231//231
f 203//203 231//231 232//232
f 203//203 232//232 204//204
f 204//204 232//232 231//231
f 204//204 231//231 233//233
f 204//204 233//233 234//234
f 204//204 234//234 205//205
f 205//205 234//234 235//235
f 205//205 235//235 236//236
f 205//205 236//236 206//206
f 206//206 236//236 237//237
f 206//206 237//237 207//207
f 207//207 237//237 238//238
f 207//207 238//238 208//208
f 208//208 238//238 209//209
f 209//209 239//239 210//210
f 209//209 238//238 240//240
f 209//209 240//240 239//239
f 210//210 239//239 241//241
f 210//210 241//241 242//242
f 210//210 242//242 243//243
f 210//210 243//243 213//213
f 211//211 213//213 243//243
f 211//211 243//243 242//242
f 211//211 242//242 241//241
f 211//211 241//241 240//240
f 211//211 240//240 238//238
f 211//211 238//238 237//237
f 211//211 237//237 236//236
f 211//211 236//236 235//235
f 211//211 235//235 234//234
f 211//211 234//234 256//256
f 211//211 256//256 255//255
f 211//211 255//255 254//254
f 211//211 254//254 260//260
f 211//211 260//260 257//257
f 211//211 257//257 246//246
f 211//211 246//246 223//223
f 211//211 223//223 222//222
f 211//211 222//222 221//221
f 211//211 221//221 219//219
f 211//211 219//219 218//218
f 211//211 218//218 217//217
f 211//211 217//217 245//245
f 211//211 245//245 214//214
f 211//211 214//214 244//244
f 211//211 244//244 212//212
f 212//212 244//244 214//214
f 214//214 245//245 215//215
f 215//215 245//245 217//217
f 219//219 221//221 220//220
f 223//223 246//246 224//224
f 227//227 247//247 228//228
f 228//228 247//247 248//248
f 230//230 249//249 231//231
f 231//231 249//249 250//250
f 231//231 250//250 233//233
f 233//233 250//250 251//251
f 233//233 251//251 252//252
f 233//233 252//252 253//253
f 233//233 253//253 254//254
f 233//233 254//254 255//255
f 233//233 255//255 256//256
f 233//233 256//256 234//234
f 239//239 240//240 241//241
f 247//247 258//258 248//248
f 248//248 258//258 259//259
f 248//248 259//259 260//260
f 249//249 251//251 250//250
f 257//257 260//260 259//259
