# Created by Open3D 
# object name: part_040
# number of vertices: 180
# number of triangles: 356
v 0.0265937 0.0524819 0.0443195
vn -0.000372826 0.010783 0.999942
v 0.025012 0.0522861 0.0443195
vn -0.143519 0.701268 0.698302
v 0.0281753 0.0524134 0.0443195
vn 0.0678941 0.742104 0.666837
v 0.0265937 0.0542793 0.0423611
vn 0.0214498 0.738423 0.673997
v 0.0253432 0.0557926 0.0407074
vn -0.0403202 0.742486 0.668647
v 0.0253077 0.0542646 0.0423404
vn -0.0864526 0.718776 0.689845
v 0.0238197 0.0519922 0.0443195
vn -0.173424 0.68652 0.706126
v 0.0242882 0.0557338 0.0406423
vn -0.112763 0.719387 0.685396
v 0.0206209 0.060068 0.0354771
vn -0.999681 0.0179629 0.0177595
v 0.0286438 0.052335 0.0443195
vn 0.123895 0.70962 0.693606
v 0.0276842 0.0542156 0.042296
vn 0.125431 0.758602 0.639367
v 0.0261219 0.0557926 0.0407074
vn 0.0482467 0.773132 0.632408
v 0.0206209 0.0608075 0.0346873
vn -0.0395891 0.754578 0.655015
v 0.0235192 0.051909 0.0443195
vn -0.20406 0.671096 0.712734
v 0.0206209 0.0592746 0.0362552
vn -0.226457 0.679255 0.69809
v 0.0291123 0.0526289 0.0438787
vn 0.147015 0.756609 0.637126
v 0.0295259 0.0521538 0.0443195
vn 0.179865 0.660369 0.729083
v 0.0287391 0.0541226 0.0421747
vn 0.255786 0.77926 0.572125
v 0.0271769 0.0557093 0.0406068
vn 0.169877 0.780562 0.601552
v 0.0266276 0.0562578 0.0399915
vn 0.109751 0.802701 0.586196
v 0.025012 0.0572324 0.0389442
vn 0.0991984 0.800885 0.590544
v 0.0206209 0.062213 0.0329241
vn 0.0843735 0.810474 0.579666
v 0.0206209 0.0616057 0.0336933
vn 0.0150574 0.781854 0.62328
v 0.0218487 0.0513898 0.0443195
vn -0.230572 0.665242 0.710134
v 0.0206209 0.054436 0.0409204
vn -0.276311 0.666456 0.692451
v 0.0296859 0.0521 0.0443195
vn 0.226295 0.651128 0.724447
v 0.0297553 0.0539169 0.041867
vn 0.365956 0.764758 0.530303
v 0.0297553 0.0544409 0.0410742
vn 0.345163 0.794166 0.500163
v 0.0281753 0.0555575 0.0403287
vn 0.30337 0.798061 0.52064
v 0.0265937 0.0571442 0.0387727
vn 0.206222 0.817035 0.538448
v 0.0297796 0.0520657 0.0443195
vn 0.235043 0.606018 0.759932
v 0.0301657 0.0524526 0.0436272
vn 0.312489 0.759651 0.570334
v 0.0212187 0.0621249 0.0328265
vn 0.270575 0.849872 0.452225
v 0.0206209 0.0627517 0.0319509
vn 0.00643944 0.904048 0.427383
v 0.0206209 0.050905 0.0443106
vn -0.30606 0.658032 0.687984
v 0.0215967 0.051287 0.0443195
vn -0.00408736 0.00985338 0.999943
v 0.0306439 0.0542254 0.0407458
vn 0.43358 0.77481 0.460085
v 0.0312417 0.0514829 0.0443195
vn 0.27033 0.607614 0.746811
v 0.031728 0.051238 0.0443195
vn 0.329204 0.652952 0.682113
v 0.0323386 0.0511352 0.0440207
vn 0.425324 0.750883 0.505246
v 0.0287262 0.0572177 0.0372876
vn 0.422172 0.791765 0.441451
v 0.0281899 0.0568798 0.0382491
vn 0.363125 0.795681 0.484801
v 0.0276729 0.0574479 0.0376988
vn 0.298584 0.842102 0.449124
v 0.0265937 0.0576144 0.0379798
vn 0.244359 0.840673 0.483278
v 0.0259054 0.0605234 0.0328147
vn 0.298173 0.855366 0.423606
v 0.0217873 0.062355 0.031939
vn 0.306026 0.874371 0.376594
v 0.0206209 0.0633786 0.0304776
vn 0.261991 0.906648 0.330682
v 0.0206209 0.0508805 0.0443195
vn -0.827334 3.12113e-05 0.56171
v 0.037124 0.0527317 0.0368853
vn 0.999433 0.0294813 0.0162483
v 0.0350447 0.0508707 0.0420327
vn 0.436162 0.755396 0.489019
v 0.0356296 0.0512037 0.0409796
vn 0.446694 0.766098 0.462124
v 0.0368461 0.0525652 0.0374651
vn 0.448064 0.771468 0.451748
v 0.0321432 0.0510274 0.0443195
vn 0.0854129 0.14568 0.985638
v 0.037124 0.0480743 0.0443195
vn 0.566484 0.00489765 0.824058
v 0.037124 0.0481527 0.044213
vn 0.52859 0.691396 0.492508
v 0.0364002 0.0491517 0.0434201
vn 0.439542 0.738221 0.511696
v 0.0370028 0.0495043 0.042367
vn 0.445235 0.748178 0.491931
v 0.029786 0.0569288 0.0367344
vn 0.440953 0.786715 0.432019
v 0.0292804 0.0574871 0.0362315
vn 0.432424 0.795732 0.424052
v 0.0293272 0.0590934 0.0330661
vn 0.368063 0.832377 0.41434
v 0.0281899 0.057727 0.0367344
vn 0.340105 0.841253 0.420265
v 0.0281608 0.059304 0.033569
vn 0.325955 0.847948 0.418015
v 0.0269604 0.0603324 0.0324035
vn 0.314871 0.858736 0.404263
v 0.027605 0.0605675 0.0313474
vn 0.310393 0.877628 0.365274
v 0.0206209 0.0638439 0.0290991
vn 0.251141 0.920206 0.300248
v 0.0286584 0.0603765 0.0308504
vn 0.324337 0.884772 0.33464
v 0.0307651 0.0605773 0.0282441
vn 0.319774 0.892348 0.318529
v 0.0297553 0.0612825 0.0272117
vn 0.314956 0.900664 0.299345
v 0.0206209 0.0249342 0.0443195
vn -0.91775 -0.344867 0.196983
v 0.037124 0.052957 0.0364652
vn 0.446394 0.791247 0.417924
v 0.0303337 0.057203 0.0356635
vn 0.444259 0.790923 0.420803
v 0.037124 0.0525064 0.0372817
vn 0.47817 0.756376 0.446372
v 0.0366845 0.0508805 0.0404618
vn 0.462496 0.75849 0.459118
v 0.037124 0.0512233 0.0394412
vn 0.469164 0.758981 0.451479
v 0.037124 0.0171621 0.0443195
vn 0.576269 -0.815896 0.0471959
v 0.037124 0.0493427 0.0424883
vn 0.961695 0.2264 0.154551
v 0.037124 0.0495582 0.042154
vn 0.569391 0.699839 0.431299
v 0.0303806 0.0588142 0.0325721
vn 0.444685 0.794586 0.413386
v 0.0298151 0.0593725 0.0320071
vn 0.392524 0.836776 0.381747
v 0.0281495 0.0601218 0.0319065
vn 0.339316 0.853221 0.396078
v 0.0206209 0.0639663 0.0287086
vn 0.293648 0.914763 0.277452
v 0.0297489 0.0618016 0.0256142
vn 0.313952 0.903648 0.291299
v 0.0302707 0.061978 0.0244989
vn 0.31116 0.908704 0.278273
v 0.0297311 0.0601463 0.0303416
vn 0.366306 0.852278 0.373419
v 0.0302416 0.0603765 0.0292973
vn 0.37454 0.85309 0.363259
v 0.0318184 0.0603569 0.0276702
vn 0.410093 0.840021 0.355229
v 0.0322659 0.0605626 0.0266171
vn 0.393228 0.875599 0.280533
v 0.0313095 0.0607487 0.0271703
vn 0.327748 0.89633 0.298621
v 0.031337 0.0612384 0.025632
vn 0.3387 0.898738 0.278481
v 0.0206209 0.047423 0.0140976
vn -0.696495 -0.407071 -0.590921
v 0.037124 0.0536034 0.0352257
vn 0.453472 0.791434 0.409873
v 0.037124 0.0507483 0.0402193
vn 0.555765 0.708462 0.434979
v 0.037124 0.0511548 0.0395537
vn 0.542554 0.716946 0.437748
v 0.037124 0.0412621 0.0140976
vn 0.797248 -0.341393 -0.497842
v 0.0334518 0.0587653 0.0293062
vn 0.452668 0.793243 0.407256
v 0.0329219 0.059304 0.0287855
vn 0.422185 0.821689 0.382867
v 0.0308394 0.0590836 0.031516
vn 0.420999 0.819627 0.38855
v 0.0313095 0.0601121 0.0287796
vn 0.405253 0.833164 0.376308
v 0.0206209 0.0640153 0.028534
vn 0.104242 0.958464 0.265483
v 0.0305971 0.0636675 0.0185646
vn 0.295735 0.919614 0.258557
v 0.0339106 0.0590248 0.028256
vn 0.466371 0.808249 0.359487
v 0.0328427 0.0600337 0.0271703
vn 0.448019 0.830881 0.330024
v 0.0344631 0.0591718 0.0270638
vn 0.468493 0.826763 0.31141
v 0.0333839 0.0603079 0.025632
vn 0.463451 0.830967 0.307745
v 0.0336634 0.0604647 0.024777
vn 0.442117 0.853343 0.276295
v 0.0329946 0.0624628 0.0193486
vn 0.401023 0.876076 0.267716
v 0.0317021 0.0635059 0.0177245
vn 0.360642 0.893283 0.268294
v 0.0206209 0.0671936 0.0140976
vn -0.98018 0.00823731 -0.197936
v 0.037124 0.0558268 0.0308918
vn 0.46285 0.789071 0.403903
v 0.037124 0.0612335 0.0140976
vn 0.802541 0.000107363 -0.596597
v 0.037124 0.056155 0.030241
vn 0.486868 0.783303 0.386518
v 0.0206209 0.0643875 0.027188
vn 0.235118 0.941747 0.240484
v 0.0309121 0.0637753 0.0177245
vn 0.306913 0.925725 0.220993
v 0.0297553 0.0645295 0.0161418
vn 0.297152 0.928604 0.222251
v 0.0276292 0.0653131 0.015627
vn 0.281733 0.931413 0.230428
v 0.0266179 0.0654796 0.0161507
vn 0.272788 0.931669 0.239958
v 0.037124 0.0567182 0.0290606
vn 0.523477 0.769359 0.366141
v 0.037124 0.0568406 0.0288003
vn 0.543844 0.761434 0.352777
v 0.037124 0.0575213 0.0273271
vn 0.55062 0.758654 0.348227
v 0.037124 0.0575752 0.0271999
vn 0.640143 0.714388 0.282608
v 0.037124 0.0579719 0.0261881
vn 0.597279 0.746792 0.292506
v 0.0345003 0.0596762 0.025632
vn 0.470026 0.828608 0.304112
v 0.037124 0.0581727 0.0256734
vn 0.608391 0.750244 0.258834
v 0.033951 0.060641 0.0237209
vn 0.484253 0.835324 0.260254
v 0.0338799 0.0621787 0.0188516
vn 0.477687 0.841281 0.253106
v 0.0329186 0.0629819 0.0177245
vn 0.41961 0.876936 0.234329
v 0.0320365 0.0636186 0.0167778
vn 0.362962 0.908614 0.206589
v 0.0206209 0.0671251 0.0144496
vn -0.424423 0.888652 0.173676
v 0.025012 0.0662534 0.0145591
vn 0.192404 0.959465 0.205933
v 0.0249749 0.0663415 0.0140976
vn 0.00465631 0.0234151 -0.999715
v 0.0367492 0.0614833 0.0140976
vn 0.0170758 0.0259349 -0.999518
v 0.037124 0.0612042 0.0142603
vn 0.970491 0.236903 0.0449816
v 0.0206209 0.0644609 0.0268567
vn -0.351774 0.915171 0.196768
v 0.0265937 0.0658714 0.0145591
vn 0.245817 0.943849 0.220732
v 0.025012 0.065891 0.0161418
vn 0.229027 0.948293 0.219741
v 0.0314404 0.0639516 0.0162069
vn 0.318112 0.925684 0.204729
v 0.0296568 0.0649409 0.0144911
vn 0.316186 0.926884 0.202267
v 0.0286826 0.0651465 0.0149703
vn 0.293143 0.93088 0.218014
v 0.028164 0.0654159 0.0144911
vn 0.282693 0.93535 0.212614
v 0.037124 0.0586135 0.0242268
vn 0.702433 0.683404 0.198866
v 0.036691 0.0588045 0.0244723
vn 0.491374 0.832685 0.255318
v 0.0341448 0.0623404 0.0177245
vn 0.50578 0.833479 0.222484
v 0.0328589 0.0633639 0.0162069
vn 0.450583 0.873345 0.185051
v 0.0322934 0.0637263 0.0157217
vn 0.398153 0.902221 0.165744
v 0.031337 0.0643238 0.0145591
vn 0.349331 0.920874 0.173088
v 0.0206209 0.0671104 0.0145236
vn -0.352846 0.914828 0.196441
v 0.0265937 0.0659595 0.0140976
vn 0.0114885 0.046379 -0.998858
v 0.0254725 0.0662289 0.0140976
vn 0.00548008 0.023223 -0.999715
v 0.0363485 0.0617429 0.0140976
vn 0.0198644 0.0320077 -0.99929
v 0.0362887 0.0617037 0.0145591
vn 0.537579 0.827285 0.163118
v 0.037124 0.0611454 0.0145591
vn 0.980774 0.19099 0.0400593
v 0.0270541 0.0658273 0.0140976
vn 0.0067497 0.022823 -0.999717
v 0.0287795 0.0653131 0.0140976
vn 0.0159547 0.0526607 -0.998485
v 0.0292529 0.0651612 0.0140976
vn 0.0218696 0.0613516 -0.997877
v 0.0289976 0.0652445 0.0140976
vn 0.0334455 0.103782 -0.994038
v 0.037124 0.0587947 0.0235878
vn 0.727675 0.661314 0.182079
v 0.0345875 0.0624579 0.0160944
vn 0.479631 0.860069 0.173883
v 0.0351724 0.0619926 0.0165885
vn 0.540371 0.813645 0.214429
v 0.0332934 0.0634521 0.0145591
vn 0.460652 0.874359 0.152628
v 0.0325018 0.0638292 0.0145591
vn 0.403284 0.904097 0.141315
v 0.031337 0.0643973 0.0140976
vn 0.0125576 0.0309178 -0.999443
v 0.0297683 0.0649751 0.0140976
vn 0.00811978 0.0221499 -0.999722
v 0.0355585 0.0622228 0.0140976
vn 0.0117023 0.0194489 -0.999742
v 0.0354987 0.0621934 0.0145591
vn 0.510988 0.848422 0.138101
v 0.0353549 0.0621102 0.0155353
vn 0.524782 0.834377 0.168579
v 0.037124 0.061067 0.0149141
vn 0.849928 0.513379 0.118597
v 0.037124 0.0593872 0.021375
vn 0.88448 0.450721 0.120607
v 0.0345003 0.0627811 0.0145591
vn 0.49081 0.859274 0.144064
v 0.037124 0.0595293 0.0208425
vn 0.887025 0.446297 0.118344
v 0.037124 0.0604549 0.0173488
vn 0.888211 0.444214 0.117279
v 0.037124 0.0606704 0.0165204
vn 0.892691 0.43622 0.113201
v 0.037124 0.0607389 0.0162542
vn 0.895378 0.431325 0.110709
v 0.037124 0.0607683 0.0161388
vn 0.921228 0.377688 0.0932254
v 0.0359608 0.0615764 0.0160944
vn 0.553208 0.809315 0.197408
v 0.0345003 0.0628399 0.0140976
vn 0.0222707 0.0400587 -0.998949
v 0.033644 0.0633149 0.0140976
vn 0.0110818 0.0200222 -0.999738
v 0.03335 0.0634765 0.0140976
vn 0.0109066 0.0201607 -0.999737
v 0.033119 0.063599 0.0140976
vn 0.0200757 0.041604 -0.998932
v 0.0325584 0.0638634 0.0140976
vn 0.00951191 0.0212333 -0.999729
v 0.0348509 0.062644 0.0140976
vn 0.02244 0.0383071 -0.999014
f 1//1 2//2 7//7
f 1//1 7//7 14//14
f 1//1 14//14 24//24
f 1//1 24//24 36//36
f 1//1 36//36 48//48
f 1//1 48//48 69//69
f 1//1 69//69 75//75
f 1//1 75//75 54//54
f 1//1 54//54 53//53
f 1//1 53//53 39//39
f 1//1 39//39 38//38
f 1//1 38//38 31//31
f 1//1 31//31 26//26
f 1//1 26//26 17//17
f 1//1 17//17 10//10
f 1//1 10//10 3//3
f 1//1 3//3 4//4
f 1//1 4//4 5//5
f 1//1 5//5 6//6
f 1//1 6//6 2//2
f 2//2 6//6 8//8
f 2//2 8//8 9//9
f 2//2 9//9 7//7
f 3//3 10//10 11//11
f 3//3 11//11 12//12
f 3//3 12//12 4//4
f 4//4 12//12 5//5
f 5//5 8//8 6//6
f 5//5 12//12 13//13
f 5//5 13//13 8//8
f 7//7 9//9 14//14
f 8//8 13//13 9//9
f 9//9 13//13 23//23
f 9//9 23//23 22//22
f 9//9 22//22 34//34
f 9//9 34//34 47//47
f 9//9 47//47 65//65
f 9//9 65//65 81//81
f 9//9 81//81 99//99
f 9//9 99//99 112//112
f 9//9 112//112 133//133
f 9//9 133//133 146//146
f 9//9 146//146 128//128
f 9//9 128//128 108//108
f 9//9 108//108 90//90
f 9//9 90//90 69//69
f 9//9 69//69 48//48
f 9//9 48//48 35//35
f 9//9 35//35 25//25
f 9//9 25//25 15//15
f 9//9 15//15 14//14
f 10//10 16//16 11//11
f 10//10 17//17 16//16
f 11//11 18//18 19//19
f 11//11 19//19 12//12
f 11//11 16//16 18//18
f 12//12 19//19 20//20
f 12//12 20//20 21//21
f 12//12 21//21 22//22
f 12//12 22//22 23//23
f 12//12 23//23 13//13
f 14//14 15//15 24//24
f 15//15 25//25 24//24
f 16//16 17//17 18//18
f 17//17 26//26 18//18
f 18//18 27//27 28//28
f 18//18 28//28 29//29
f 18//18 29//29 30//30
f 18//18 30//30 19//19
f 18//18 26//26 31//31
f 18//18 31//31 32//32
f 18//18 32//32 27//27
f 19//19 30//30 20//20
f 20//20 30//30 22//22
f 20//20 22//22 21//21
f 22//22 33//33 34//34
f 22//22 30//30 33//33
f 24//24 25//25 35//35
f 24//24 35//35 36//36
f 27//27 37//37 28//28
f 27//27 32//32 38//38
f 27//27 38//38 39//39
f 27//27 39//39 40//40
f 27//27 40//40 37//37
f 28//28 37//37 41//41
f 28//28 41//41 42//42
f 28//28 42//42 43//43
f 28//28 43//43 29//29
f 29//29 43//43 30//30
f 30//30 43//43 44//44
f 30//30 44//44 33//33
f 31//31 38//38 32//32
f 33//33 45//45 34//34
f 33//33 44//44 43//43
f 33//33 43//43 45//45
f 34//34 46//46 47//47
f 34//34 45//45 46//46
f 35//35 48//48 36//36
f 37//37 49//49 41//41
f 37//37 40//40 50//50
f 37//37 50//50 51//51
f 37//37 51//51 52//52
f 37//37 52//52 49//49
f 39//39 53//53 40//40
f 40//40 53//53 54//54
f 40//40 54//54 55//55
f 40//40 55//55 56//56
f 40//40 56//56 57//57
f 40//40 57//57 50//50
f 41//41 58//58 59//59
f 41//41 59//59 60//60
f 41//41 60//60 61//61
f 41//41 61//61 43//43
f 41//41 43//43 42//42
f 41//41 49//49 58//58
f 43//43 61//61 62//62
f 43//43 62//62 63//63
f 43//43 63//63 45//45
f 45//45 63//63 46//46
f 46//46 63//63 64//64
f 46//46 64//64 47//47
f 47//47 64//64 66//66
f 47//47 66//66 67//67
f 47//47 67//67 68//68
f 47//47 68//68 65//65
f 49//49 70//70 71//71
f 49//49 71//71 59//59
f 49//49 59//59 58//58
f 49//49 52//52 72//72
f 49//49 72//72 74//74
f 49//49 74//74 93//93
f 49//49 93//93 92//92
f 49//49 92//92 77//77
f 49//49 77//77 76//76
f 49//49 76//76 55//55
f 49//49 55//55 54//54
f 49//49 54//54 75//75
f 49//49 75//75 94//94
f 49//49 94//94 110//110
f 49//49 110//110 132//132
f 49//49 132//132 151//151
f 49//49 151//151 166//166
f 49//49 166//166 173//173
f 49//49 173//173 172//172
f 49//49 172//172 171//171
f 49//49 171//171 170//170
f 49//49 170//170 169//169
f 49//49 169//169 167//167
f 49//49 167//167 156//156
f 49//49 156//156 140//140
f 49//49 140//140 123//123
f 49//49 123//123 121//121
f 49//49 121//121 120//120
f 49//49 120//120 119//119
f 49//49 119//119 118//118
f 49//49 118//118 117//117
f 49//49 117//117 111//111
f 49//49 111//111 109//109
f 49//49 109//109 91//91
f 49//49 91//91 70//70
f 50//50 57//57 51//51
f 51//51 57//57 73//73
f 51//51 73//73 52//52
f 52//52 73//73 74//74
f 52//52 74//74 72//72
f 55//55 76//76 57//57
f 55//55 57//57 56//56
f 57//57 76//76 77//77
f 57//57 77//77 73//73
f 59//59 71//71 78//78
f 59//59 78//78 60//60
f 60//60 78//78 79//79
f 60//60 79//79 80//80
f 60//60 80//80 62//62
f 60//60 62//62 61//61
f 62//62 80//80 63//63
f 63//63 80//80 64//64
f 64//64 80//80 66//66
f 65//65 68//68 82//82
f 65//65 82//82 83//83
f 65//65 83//83 81//81
f 66//66 80//80 79//79
f 66//66 79//79 84//84
f 66//66 84//84 85//85
f 66//66 85//85 67//67
f 67//67 85//85 86//86
f 67//67 86//86 87//87
f 67//67 87//87 88//88
f 67//67 88//88 68//68
f 68//68 88//88 89//89
f 68//68 89//89 82//82
f 69//69 90//90 75//75
f 70//70 91//91 78//78
f 70//70 78//78 71//71
f 73//73 92//92 93//93
f 73//73 93//93 74//74
f 73//73 77//77 92//92
f 75//75 90//90 94//94
f 78//78 95//95 96//96
f 78//78 96//96 97//97
f 78//78 97//97 79//79
f 78//78 91//91 95//95
f 79//79 98//98 85//85
f 79//79 85//85 84//84
f 79//79 97//97 96//96
f 79//79 96//96 98//98
f 81//81 83//83 100//100
f 81//81 100//100 99//99
f 82//82 89//89 83//83
f 83//83 89//89 100//100
f 85//85 98//98 86//86
f 86//86 98//98 96//96
f 86//86 96//96 101//101
f 86//86 101//101 102//102
f 86//86 102//102 87//87
f 87//87 89//89 88//88
f 87//87 102//102 103//103
f 87//87 103//103 104//104
f 87//87 104//104 105//105
f 87//87 105//105 106//106
f 87//87 106//106 107//107
f 87//87 107//107 89//89
f 89//89 107//107 100//100
f 90//90 108//108 130//130
f 90//90 130//130 148//148
f 90//90 148//148 147//147
f 90//90 147//147 152//152
f 90//90 152//152 153//153
f 90//90 153//153 155//155
f 90//90 155//155 154//154
f 90//90 154//154 162//162
f 90//90 162//162 161//161
f 90//90 161//161 179//179
f 90//90 179//179 178//178
f 90//90 178//178 177//177
f 90//90 177//177 176//176
f 90//90 176//176 175//175
f 90//90 175//175 180//180
f 90//90 180//180 163//163
f 90//90 163//163 149//149
f 90//90 149//149 131//131
f 90//90 131//131 110//110
f 90//90 110//110 94//94
f 91//91 109//109 95//95
f 95//95 101//101 96//96
f 95//95 109//109 111//111
f 95//95 111//111 101//101
f 99//99 100//100 112//112
f 100//100 107//107 113//113
f 100//100 113//113 114//114
f 100//100 114//114 115//115
f 100//100 115//115 116//116
f 100//100 116//116 112//112
f 101//101 103//103 102//102
f 101//101 111//111 117//117
f 101//101 117//117 118//118
f 101//101 118//118 119//119
f 101//101 119//119 120//120
f 101//101 120//120 121//121
f 101//101 121//121 103//103
f 103//103 122//122 105//105
f 103//103 105//105 104//104
f 103//103 121//121 123//123
f 103//103 123//123 122//122
f 105//105 124//124 125//125
f 105//105 125//125 106//106
f 105//105 122//122 123//123
f 105//105 123//123 124//124
f 106//106 126//126 107//107
f 106//106 125//125 126//126
f 107//107 126//126 127//127
f 107//107 127//127 113//113
f 108//108 128//128 129//129
f 108//108 129//129 130//130
f 110//110 131//131 132//132
f 112//112 116//116 134//134
f 112//112 134//134 135//135
f 112//112 135//135 129//129
f 112//112 129//129 133//133
f 113//113 127//127 136//136
f 113//113 136//136 114//114
f 114//114 137//137 138//138
f 114//114 138//138 115//115
f 114//114 136//136 137//137
f 115//115 139//139 134//134
f 115//115 134//134 116//116
f 115//115 138//138 139//139
f 123//123 140//140 141//141
f 123//123 141//141 124//124
f 124//124 141//141 125//125
f 125//125 141//141 140//140
f 125//125 140//140 142//142
f 125//125 142//142 126//126
f 126//126 142//142 143//143
f 126//126 143//143 127//127
f 127//127 144//144 145//145
f 127//127 145//145 136//136
f 127//127 143//143 144//144
f 128//128 146//146 129//129
f 129//129 135//135 134//134
f 129//129 134//134 147//147
f 129//129 147//147 148//148
f 129//129 148//148 130//130
f 129//129 146//146 133//133
f 131//131 149//149 150//150
f 131//131 150//150 132//132
f 132//132 150//150 151//151
f 134//134 152//152 147//147
f 134//134 139//139 153//153
f 134//134 153//153 152//152
f 136//136 145//145 137//137
f 137//137 154//154 155//155
f 137//137 155//155 138//138
f 137//137 145//145 154//154
f 138//138 155//155 153//153
f 138//138 153//153 139//139
f 140//140 156//156 142//142
f 142//142 157//157 143//143
f 142//142 156//156 158//158
f 142//142 158//158 157//157
f 143//143 157//157 159//159
f 143//143 159//159 144//144
f 144//144 160//160 145//145
f 144//144 159//159 160//160
f 145//145 160//160 161//161
f 145//145 161//161 162//162
f 145//145 162//162 154//154
f 149//149 163//163 164//164
f 149//149 164//164 150//150
f 150//150 164//164 165//165
f 150//150 165//165 166//166
f 150//150 166//166 151//151
f 156//156 167//167 158//158
f 157//157 168//168 159//159
f 157//157 158//158 165//165
f 157//157 165//165 168//168
f 158//158 167//167 169//169
f 158//158 169//169 170//170
f 158//158 170//170 171//171
f 158//158 171//171 172//172
f 158//158 172//172 173//173
f 158//158 173//173 174//174
f 158//158 174//174 166//166
f 158//158 166//166 165//165
f 159//159 168//168 175//175
f 159//159 175//175 176//176
f 159//159 176//176 177//177
f 159//159 177//177 178//178
f 159//159 178//178 160//160
f 160//160 178//178 179//179
f 160//160 179//179 161//161
f 163//163 180//180 164//164
f 164//164 180//180 168//168
f 164//164 168//168 165//165
f 166//166 174//174 173//173
f 168//168 180//180 175//175
