# Created by Open3D 
# object name: part_034
# number of vertices: 160
# number of triangles: 316
v -0.0334944 -0.000152954 0.0736138
vn 0.681574 -0.728242 0.0715532
v -0.0334944 0.00894804 0.0718303
vn -0.380868 0.182487 0.906443
v -0.0376034 0.00546191 0.0707637
vn -0.394798 0.174086 0.902124
v -0.0385924 0.00434855 0.0704927
vn -0.431317 0.158591 0.888152
v -0.038865 0.0027667 0.0706326
vn -0.425979 0.148318 0.892493
v -0.0390202 0.00190987 0.0706938
vn -0.447783 0.118582 0.886244
v -0.0391376 0.000855298 0.0707462
vn -0.446108 0.0822986 0.891187
v -0.0392112 -0.000152954 0.0707899
vn -0.446548 0.0425465 0.893748
v -0.0334944 -0.000152954 0.0563954
vn 0.650933 -0.550093 -0.523148
v -0.0334944 0.0106724 0.0714413
vn -0.366362 0.215923 0.905073
v -0.0373427 0.00651469 0.0706544
vn -0.422065 0.207586 0.882479
v -0.0381785 0.00596425 0.0703441
vn -0.479425 0.216857 0.850367
v -0.0398321 0.00434855 0.069802
vn -0.495643 0.188794 0.847759
v -0.0398321 0.0027667 0.0701037
vn -0.488932 0.149084 0.859488
v -0.0412807 0.00118485 0.0695135
vn -0.498947 0.107346 0.859958
v -0.0397306 0.0013042 0.070379
vn -0.485977 0.0910255 0.869219
v -0.0399773 -0.000152954 0.0703747
vn -0.491001 -0.0674387 0.868545
v -0.0538207 -0.000152954 0.0399725
vn -0.443629 -0.832724 -0.331306
v -0.0538207 0.0180455 0.0289613
vn 0.168585 0.604715 -0.778395
v -0.0334983 0.0180455 0.0463502
vn 0.613167 -0.344149 -0.711047
v -0.0334944 0.0174665 0.0467698
vn 1 -0.000104386 -0.000215673
v -0.0334944 0.0122311 0.0710566
vn 0.00524932 0.245616 0.969353
v -0.0349967 0.0122293 0.0703572
vn -0.423381 0.22747 0.87693
v -0.0370821 0.00751226 0.0705364
vn -0.430637 0.220391 0.875202
v -0.0377825 0.0106724 0.0693343
vn -0.481147 0.224861 0.847311
v -0.039846 0.00578077 0.0694261
vn -0.4923 0.221807 0.84169
v -0.040628 0.00515551 0.0691245
vn -0.541446 0.230402 0.808549
v -0.0407812 0.00434855 0.0692163
vn -0.520139 0.186724 0.833421
v -0.0418498 0.0027667 0.0688972
vn -0.546481 0.17973 0.817958
v -0.0410598 0.0027667 0.0693824
vn -0.50749 0.15351 0.847873
v -0.0413583 -0.000152954 0.0695704
vn -0.498852 -0.222981 0.837512
v -0.0420726 0.00118485 0.0690371
vn -0.556657 0.117534 0.822386
v -0.0538207 -0.000152954 0.0574838
vn -0.0780812 -0.994604 0.0683056
v -0.0538207 0.0180455 0.0539693
vn -0.999351 0.0359598 0.00198419
v -0.0334944 0.0180455 0.0475873
vn 0.674362 0.738401 -3.72275e-06
v -0.0334944 0.0132287 0.0707725
vn 0.783666 0.176665 0.59553
v -0.0341351 0.0127388 0.0706326
vn -0.410114 0.258775 0.874553
v -0.0350863 0.0138361 0.0698414
vn -0.417292 0.275504 0.866005
v -0.0361986 0.0138361 0.0692906
vn -0.438251 0.263109 0.859482
v -0.0367398 0.0122347 0.0694873
vn -0.444446 0.231609 0.865347
v -0.0373149 0.0127495 0.0690327
vn -0.519697 0.247051 0.817851
v -0.0375596 0.0116949 0.0691813
vn -0.518253 0.236041 0.822009
v -0.0403832 0.00621008 0.0689759
vn -0.528367 0.24036 0.814282
v -0.0410916 0.0138361 0.0662613
vn -0.529779 0.242021 0.812872
v -0.0418816 0.0138361 0.0657368
vn -0.55781 0.237203 0.79535
v -0.0427094 0.00434855 0.0679049
vn -0.566415 0.225502 0.792668
v -0.0415712 0.00434855 0.0686961
vn -0.552931 0.205975 0.807367
v -0.0431014 0.00272039 0.0680142
vn -0.578305 0.165092 0.798942
v -0.0421502 -0.000152954 0.0690851
vn -0.513702 -0.468326 0.718875
v -0.0438277 0.00216282 0.0675727
vn -0.620383 0.126943 0.773957
v -0.0429939 0.00118485 0.0683508
vn -0.606275 0.0731724 0.791881
v -0.0517931 -0.000152954 0.0597437
vn -0.680487 -0.384787 0.6236
v -0.0534228 0.0122543 0.0566401
vn -0.738117 0.0727498 0.670739
v -0.0538207 -0.000111983 0.0574794
vn -0.999753 0.002389 0.0220928
v -0.0538207 0.0168644 0.0544764
vn -0.998085 0.024306 0.0568824
v -0.0532258 0.0176696 0.0548348
vn -0.703169 0.282231 0.652609
v -0.0531442 0.0180455 0.0547474
vn -0.0165996 0.999751 0.0149052
v -0.0334944 0.0180455 0.0688404
vn 0.664652 0.747153 0.000111935
v -0.0334944 0.0139109 0.0705583
vn -0.00457233 0.303344 0.95287
v -0.0334944 0.0140285 0.0705189
vn 0.0724101 0.343366 0.936406
v -0.035924 0.0146894 0.069142
vn -0.425787 0.313832 0.848655
v -0.0369886 0.0138361 0.0688578
vn -0.492935 0.297969 0.817453
v -0.040823 0.0149601 0.0660821
vn -0.515077 0.286245 0.807935
v -0.0426079 0.015418 0.0646745
vn -0.559969 0.295581 0.773994
v -0.0436685 0.0143206 0.0642811
vn -0.590723 0.235784 0.771656
v -0.0430835 0.0138094 0.0648712
vn -0.577594 0.229165 0.783498
v -0.0434994 0.00434855 0.0673192
vn -0.592313 0.223987 0.773948
v -0.0436964 0.00321739 0.0674678
vn -0.601582 0.18366 0.777411
v -0.0429939 -0.000152954 0.0684295
vn -0.46879 -0.651755 0.596197
v -0.0439013 0.00118485 0.0676426
vn -0.640466 0.0686381 0.764913
v -0.0454037 0.00369123 0.0659903
vn -0.659333 0.154445 0.735817
v -0.0454793 0.0027667 0.0660646
vn -0.668534 0.0954854 0.737526
v -0.0471527 -0.000152954 0.0645959
vn -0.252632 -0.936687 0.242474
v -0.0471308 0.00118485 0.064574
vn -0.721646 0.0342271 0.691416
v -0.0470831 0.0027667 0.0645215
vn -0.727123 0.0739287 0.682515
v -0.0516936 0.00199715 0.0596301
vn -0.732232 0.073197 0.67711
v -0.0526885 0.0122543 0.0574313
vn -0.723566 0.0878782 0.684638
v -0.0533472 0.0132732 0.0565527
vn -0.733809 0.186175 0.653348
v -0.0538207 0.0122168 0.0561462
vn -0.999711 0.00278838 0.0238919
v -0.0538207 0.015418 0.0550883
vn -0.999428 0.0129435 0.0312371
v -0.0536317 0.015418 0.0553157
vn -0.741737 0.26133 0.617683
v -0.0531601 0.0143278 0.0563429
vn -0.702358 0.275437 0.656374
v -0.0528198 0.0180455 0.055084
vn -0.126436 0.984055 0.125102
v -0.0521373 0.015418 0.0569112
vn -0.679578 0.290905 0.67346
v -0.0336555 0.0180455 0.068766
vn -0.0121715 0.999626 0.0244854
v -0.0334944 0.0176393 0.0690545
vn 0.98743 0.0688657 0.142268
v -0.0334944 0.015418 0.0700031
vn 0.999988 0.00170315 0.00458429
v -0.0335043 0.015418 0.0699987
vn -0.39941 0.325635 0.856991
v -0.0350186 0.0152968 0.0693387
vn -0.400572 0.324905 0.856726
v -0.0355001 0.0157439 0.0689365
vn -0.435644 0.359399 0.825255
v -0.0365369 0.0152968 0.0685606
vn -0.468857 0.33104 0.818893
v -0.0378004 0.015418 0.067765
vn -0.493445 0.314815 0.810804
v -0.0404947 0.0160147 0.0658766
vn -0.502881 0.343295 0.793259
v -0.0413742 0.0154589 0.0655138
vn -0.53508 0.319293 0.782139
v -0.0423293 0.0163977 0.0644647
vn -0.535978 0.341821 0.771936
v -0.0437899 0.0177996 0.0627993
vn -0.551554 0.341912 0.760845
v -0.0440127 0.016998 0.0629654
vn -0.571536 0.313691 0.758251
v -0.0433979 0.015418 0.06408
vn -0.580328 0.298389 0.757749
v -0.045137 0.0157137 0.06262
vn -0.589509 0.284228 0.756104
v -0.0501515 0.013136 0.0596607
vn -0.604654 0.22259 0.764753
v -0.0446535 0.00427017 0.0664362
vn -0.604841 0.210346 0.768064
v -0.0439391 -0.000152954 0.0676732
vn -0.439773 -0.738463 0.511148
v -0.0446913 0.00118485 0.0669389
vn -0.668472 0.0523851 0.74189
v -0.0470115 0.00385155 0.0644429
vn -0.690251 0.120802 0.713415
v -0.0452325 0.0047458 0.065846
vn -0.611902 0.204447 0.764053
v -0.0517951 0.0133017 0.0581482
vn -0.670678 0.173522 0.721166
v -0.0518966 0.0122543 0.0582531
vn -0.695424 0.120691 0.708392
v -0.0462712 0.0027667 0.0653084
vn -0.690916 0.0832529 0.718125
v -0.0455609 0.00118485 0.0661477
vn -0.688889 0.0490536 0.723205
v -0.0463767 -0.000152954 0.0653871
vn -0.424958 -0.80285 0.418142
v -0.0463508 0.00118485 0.0653652
vn -0.707493 0.0378793 0.705704
v -0.0538207 0.0138147 0.055744
vn -0.999724 0.0079334 0.0221313
v -0.0538207 0.0127352 0.05605
vn -0.999701 0.00596997 0.0237206
v -0.0515742 0.0143563 0.057934
vn -0.662083 0.290564 0.69081
v -0.0523542 0.0180455 0.0555517
vn -0.0989088 0.990204 0.0985571
v -0.0516438 0.0176856 0.0564216
vn -0.668788 0.296805 0.681638
v -0.0339341 0.0174256 0.068954
vn -0.405533 0.403849 0.82003
v -0.0350086 0.0180455 0.0680841
vn -0.0104443 0.999731 0.02069
v -0.0334944 0.0169856 0.0693474
vn 0.865122 0.20231 0.458949
v -0.0334944 0.0154286 0.0699987
vn 0.922484 0.148954 0.35614
v -0.0344455 0.016371 0.0691857
vn -0.396456 0.356258 0.846111
v -0.0350186 0.0169392 0.0686437
vn -0.425924 0.386883 0.817869
v -0.0366005 0.0168894 0.0678175
vn -0.444078 0.37943 0.811682
v -0.0375218 0.0162908 0.0675771
vn -0.475572 0.365364 0.800212
v -0.0399117 0.0171405 0.0657018
vn -0.490701 0.38538 0.78147
v -0.0414279 0.0169535 0.0648144
vn -0.513318 0.374092 0.772373
v -0.0394401 0.0167077 0.0662001
vn -0.48634 0.374468 0.78946
v -0.0434536 0.0180455 0.0629042
vn -0.0189164 0.999426 0.0281101
v -0.0437003 0.0180455 0.0627337
vn -0.0066216 0.999936 0.00922728
v -0.0440506 0.0180455 0.0624758
vn -0.00700937 0.999932 0.00934221
v -0.0455589 0.0180455 0.0613393
vn -0.0633048 0.994765 0.080219
v -0.0448027 0.016998 0.0623665
vn -0.576893 0.313673 0.75419
v -0.0419632 0.0174505 0.0642068
vn -0.514899 0.38485 0.766009
v -0.0458315 0.016998 0.0615753
vn -0.584342 0.305492 0.751811
v -0.0485954 0.0163282 0.0596869
vn -0.596585 0.31008 0.740228
v -0.0488182 0.015418 0.059853
vn -0.59084 0.282289 0.755791
v -0.0499027 0.0141888 0.059464
vn -0.601395 0.285251 0.746295
v -0.0508618 0.0137453 0.0588083
vn -0.632204 0.284544 0.720661
v -0.0447291 -0.000152954 0.0669607
vn -0.416237 -0.786327 0.456548
v -0.0455867 -0.000152954 0.0661695
vn -0.288297 -0.908274 0.303188
v -0.0462553 -0.000152954 0.0655094
vn -0.455311 -0.762483 0.459686
v -0.0505315 0.015418 0.0584193
vn -0.632143 0.301871 0.713631
v -0.0513235 0.015418 0.0577024
vn -0.640114 0.306591 0.704455
v -0.0515583 0.0180455 0.0563429
vn -0.119701 0.984039 0.131676
v -0.0358464 0.0180455 0.0676601
vn -0.0130282 0.999587 0.0256113
v -0.0360275 0.0179421 0.0676208
vn -0.430484 0.400284 0.808985
v -0.0334944 0.0169125 0.069378
vn 0.923628 0.147923 0.353597
v -0.0370821 0.0173454 0.0673235
vn -0.466474 0.401621 0.7881
v -0.0390182 0.0177622 0.0659422
vn -0.476532 0.402394 0.781662
v -0.0409464 0.0180455 0.0645871
vn -0.0286531 0.99861 0.0442375
v -0.049055 0.0180455 0.0585242
vn -0.0339518 0.998551 0.0417543
v -0.0482909 0.0173828 0.0594465
vn -0.590175 0.338321 0.732961
v -0.0498709 0.0180455 0.0578466
vn -0.0499995 0.996985 0.0593353
v -0.0499982 0.0175681 0.0579515
vn -0.619577 0.316367 0.718357
v -0.0502629 0.0165135 0.0581832
vn -0.626362 0.310452 0.715046
v -0.0496102 0.015418 0.0592105
vn -0.617749 0.303887 0.725285
v -0.0507544 0.0180455 0.0570685
vn -0.052246 0.996922 0.0584468
v -0.0361309 0.0180455 0.0675071
vn -0.0143228 0.9996 0.0244002
v -0.0367935 0.0180455 0.0671137
vn -0.0206188 0.999188 0.0346184
v -0.0386123 0.0180455 0.0660296
vn -0.00615941 0.99993 0.0101239
f 1//1 2//2 3//3
f 1//1 3//3 4//4
f 1//1 4//4 5//5
f 1//1 5//5 6//6
f 1//1 6//6 7//7
f 1//1 7//7 8//8
f 1//1 8//8 17//17
f 1//1 17//17 31//31
f 1//1 31//31 49//49
f 1//1 49//49 69//69
f 1//1 69//69 102//102
f 1//1 102//102 139//139
f 1//1 139//139 140//140
f 1//1 140//140 141//141
f 1//1 141//141 110//110
f 1//1 110//110 73//73
f 1//1 73//73 52//52
f 1//1 52//52 33//33
f 1//1 33//33 18//18
f 1//1 18//18 9//9
f 1//1 9//9 21//21
f 1//1 21//21 35//35
f 1//1 35//35 58//58
f 1//1 58//58 86//86
f 1//1 86//86 119//119
f 1//1 119//119 147//147
f 1//1 147//147 120//120
f 1//1 120//120 87//87
f 1//1 87//87 60//60
f 1//1 60//60 59//59
f 1//1 59//59 36//36
f 1//1 36//36 22//22
f 1//1 22//22 10//10
f 1//1 10//10 2//2
f 2//2 10//10 11//11
f 2//2 11//11 3//3
f 3//3 11//11 12//12
f 3//3 12//12 4//4
f 4//4 12//12 13//13
f 4//4 13//13 14//14
f 4//4 14//14 5//5
f 5//5 14//14 6//6
f 6//6 14//14 15//15
f 6//6 15//15 16//16
f 6//6 16//16 7//7
f 7//7 16//16 17//17
f 7//7 17//17 8//8
f 9//9 18//18 19//19
f 9//9 19//19 20//20
f 9//9 20//20 21//21
f 10//10 22//22 23//23
f 10//10 23//23 24//24
f 10//10 24//24 11//11
f 11//11 24//24 25//25
f 11//11 25//25 12//12
f 12//12 26//26 13//13
f 12//12 25//25 26//26
f 13//13 26//26 27//27
f 13//13 27//27 28//28
f 13//13 28//28 29//29
f 13//13 29//29 30//30
f 13//13 30//30 14//14
f 14//14 30//30 15//15
f 15//15 31//31 17//17
f 15//15 17//17 16//16
f 15//15 30//30 32//32
f 15//15 32//32 31//31
f 18//18 33//33 54//54
f 18//18 54//54 79//79
f 18//18 79//79 113//113
f 18//18 113//113 112//112
f 18//18 112//112 80//80
f 18//18 80//80 55//55
f 18//18 55//55 34//34
f 18//18 34//34 19//19
f 19//19 34//34 57//57
f 19//19 57//57 83//83
f 19//19 83//83 115//115
f 19//19 115//115 144//144
f 19//19 144//144 157//157
f 19//19 157//157 153//153
f 19//19 153//153 151//151
f 19//19 151//151 131//131
f 19//19 131//131 130//130
f 19//19 130//130 129//129
f 19//19 129//129 128//128
f 19//19 128//128 150//150
f 19//19 150//150 160//160
f 19//19 160//160 159//159
f 19//19 159//159 158//158
f 19//19 158//158 145//145
f 19//19 145//145 118//118
f 19//19 118//118 85//85
f 19//19 85//85 58//58
f 19//19 58//58 35//35
f 19//19 35//35 20//20
f 20//20 35//35 21//21
f 22//22 36//36 37//37
f 22//22 37//37 23//23
f 23//23 38//38 39//39
f 23//23 39//39 40//40
f 23//23 40//40 24//24
f 23//23 37//37 38//38
f 24//24 40//40 25//25
f 25//25 41//41 42//42
f 25//25 42//42 27//27
f 25//25 27//27 26//26
f 25//25 40//40 41//41
f 27//27 42//42 41//41
f 27//27 41//41 43//43
f 27//27 43//43 44//44
f 27//27 44//44 45//45
f 27//27 45//45 46//46
f 27//27 46//46 47//47
f 27//27 47//47 29//29
f 27//27 29//29 28//28
f 29//29 47//47 46//46
f 29//29 46//46 48//48
f 29//29 48//48 32//32
f 29//29 32//32 30//30
f 31//31 32//32 49//49
f 32//32 48//48 50//50
f 32//32 50//50 51//51
f 32//32 51//51 49//49
f 33//33 52//52 53//53
f 33//33 53//53 54//54
f 34//34 55//55 56//56
f 34//34 56//56 57//57
f 36//36 59//59 37//37
f 37//37 59//59 38//38
f 38//38 59//59 60//60
f 38//38 60//60 61//61
f 38//38 61//61 39//39
f 39//39 61//61 62//62
f 39//39 62//62 41//41
f 39//39 41//41 40//40
f 41//41 62//62 63//63
f 41//41 63//63 44//44
f 41//41 44//44 43//43
f 44//44 63//63 45//45
f 45//45 63//63 64//64
f 45//45 64//64 65//65
f 45//45 65//65 66//66
f 45//45 66//66 46//46
f 46//46 66//66 67//67
f 46//46 67//67 68//68
f 46//46 68//68 48//48
f 48//48 68//68 50//50
f 49//49 51//51 69//69
f 50//50 70//70 51//51
f 50//50 68//68 71//71
f 50//50 71//71 72//72
f 50//50 72//72 70//70
f 51//51 70//70 69//69
f 52//52 73//73 74//74
f 52//52 74//74 75//75
f 52//52 75//75 76//76
f 52//52 76//76 53//53
f 53//53 77//77 78//78
f 53//53 78//78 79//79
f 53//53 79//79 54//54
f 53//53 76//76 75//75
f 53//53 75//75 77//77
f 55//55 80//80 81//81
f 55//55 81//81 82//82
f 55//55 82//82 56//56
f 56//56 83//83 57//57
f 56//56 82//82 84//84
f 56//56 84//84 83//83
f 58//58 85//85 86//86
f 60//60 87//87 88//88
f 60//60 88//88 89//89
f 60//60 89//89 61//61
f 61//61 89//89 90//90
f 61//61 90//90 91//91
f 61//61 91//91 62//62
f 62//62 91//91 92//92
f 62//62 92//92 63//63
f 63//63 92//92 93//93
f 63//63 93//93 94//94
f 63//63 94//94 64//64
f 64//64 95//95 96//96
f 64//64 96//96 97//97
f 64//64 97//97 98//98
f 64//64 98//98 65//65
f 64//64 94//94 95//95
f 65//65 67//67 66//66
f 65//65 98//98 99//99
f 65//65 99//99 100//100
f 65//65 100//100 67//67
f 67//67 101//101 68//68
f 67//67 100//100 101//101
f 68//68 101//101 71//71
f 69//69 70//70 102//102
f 70//70 103//103 102//102
f 70//70 72//72 103//103
f 71//71 104//104 72//72
f 71//71 101//101 105//105
f 71//71 105//105 100//100
f 71//71 100//100 106//106
f 71//71 106//106 107//107
f 71//71 107//107 104//104
f 72//72 104//104 108//108
f 72//72 108//108 109//109
f 72//72 109//109 103//103
f 73//73 110//110 74//74
f 74//74 110//110 111//111
f 74//74 111//111 75//75
f 75//75 111//111 109//109
f 75//75 109//109 108//108
f 75//75 108//108 104//104
f 75//75 104//104 107//107
f 75//75 107//107 77//77
f 77//77 107//107 78//78
f 78//78 82//82 80//80
f 78//78 80//80 112//112
f 78//78 112//112 113//113
f 78//78 113//113 79//79
f 78//78 107//107 106//106
f 78//78 106//106 82//82
f 80//80 82//82 81//81
f 82//82 106//106 114//114
f 82//82 114//114 84//84
f 83//83 84//84 115//115
f 84//84 116//116 115//115
f 84//84 114//114 116//116
f 85//85 117//117 86//86
f 85//85 118//118 117//117
f 86//86 117//117 119//119
f 87//87 120//120 88//88
f 88//88 120//120 121//121
f 88//88 121//121 89//89
f 89//89 121//121 90//90
f 90//90 121//121 122//122
f 90//90 122//122 123//123
f 90//90 123//123 124//124
f 90//90 124//124 91//91
f 91//91 124//124 92//92
f 92//92 124//124 93//93
f 93//93 125//125 126//126
f 93//93 126//126 95//95
f 93//93 95//95 94//94
f 93//93 124//124 127//127
f 93//93 127//127 125//125
f 95//95 126//126 96//96
f 96//96 128//128 129//129
f 96//96 129//129 130//130
f 96//96 130//130 131//131
f 96//96 131//131 132//132
f 96//96 132//132 97//97
f 96//96 126//126 133//133
f 96//96 133//133 128//128
f 97//97 132//132 98//98
f 98//98 132//132 134//134
f 98//98 134//134 99//99
f 99//99 134//134 135//135
f 99//99 135//135 136//136
f 99//99 136//136 137//137
f 99//99 137//137 100//100
f 100//100 137//137 138//138
f 100//100 138//138 106//106
f 100//100 105//105 101//101
f 102//102 103//103 139//139
f 103//103 109//109 139//139
f 106//106 138//138 114//114
f 109//109 140//140 139//139
f 109//109 111//111 141//141
f 109//109 141//141 140//140
f 110//110 141//141 111//111
f 114//114 138//138 142//142
f 114//114 142//142 143//143
f 114//114 143//143 116//116
f 115//115 116//116 144//144
f 116//116 143//143 144//144
f 117//117 122//122 121//121
f 117//117 121//121 119//119
f 117//117 118//118 145//145
f 117//117 145//145 146//146
f 117//117 146//146 122//122
f 119//119 121//121 147//147
f 120//120 147//147 121//121
f 122//122 146//146 123//123
f 123//123 146//146 148//148
f 123//123 148//148 124//124
f 124//124 148//148 149//149
f 124//124 149//149 125//125
f 124//124 125//125 127//127
f 125//125 149//149 150//150
f 125//125 150//150 126//126
f 126//126 150//150 133//133
f 128//128 133//133 150//150
f 131//131 134//134 132//132
f 131//131 151//151 152//152
f 131//131 152//152 135//135
f 131//131 135//135 134//134
f 135//135 152//152 151//151
f 135//135 151//151 153//153
f 135//135 153//153 154//154
f 135//135 154//154 155//155
f 135//135 155//155 156//156
f 135//135 156//156 137//137
f 135//135 137//137 136//136
f 137//137 156//156 142//142
f 137//137 142//142 138//138
f 142//142 155//155 144//144
f 142//142 144//144 143//143
f 142//142 156//156 155//155
f 144//144 155//155 157//157
f 145//145 158//158 146//146
f 146//146 158//158 148//148
f 148//148 158//158 159//159
f 148//148 159//159 149//149
f 149//149 160//160 150//150
f 149//149 159//159 160//160
f 153//153 157//157 154//154
f 154//154 157//157 155//155
