# Created by Open3D 
# object name: part_000
# number of vertices: 97
# number of triangles: 190
v 0.0443742 0.0561528 0.0140976
vn -0.764311 6.29871e-06 0.644847
v 0.0443923 0.0561412 0.0140976
vn 0.54597 0.818306 0.179701
v 0.0443742 0.0562379 0.01371
vn 0.546398 0.818946 0.175434
v 0.0443742 0.0368655 0.0140976
vn -0.88579 -0.388026 0.254581
v 0.0448787 0.0558162 0.0140976
vn 0.57191 0.804216 0.161723
v 0.0443742 0.0564004 0.012944
vn 0.553753 0.820897 0.13959
v 0.0612161 0.0177059 0.0140976
vn -0.0289357 -0.831255 0.555137
v 0.0443742 0.0406882 -0.00947319
vn -0.848385 -0.392412 -0.355326
v 0.0453321 0.0554873 0.0140976
vn 0.580234 0.796151 0.171673
v 0.0546508 0.0512971 0.00190844
vn 0.516537 0.85409 0.0609829
v 0.0443742 0.0566171 0.0113935
vn 0.511459 0.854496 0.0908109
v 0.0612161 0.021575 -0.00947319
vn -0.21223 -0.771145 -0.600245
v 0.0612161 0.0375929 0.0140976
vn 0.841508 0.20013 0.501809
v 0.0443742 0.0559516 -0.00947319
vn -0.999999 1.58559e-06 -0.00104941
v 0.0467451 0.0544543 0.0140976
vn 0.581278 0.794907 0.17389
v 0.0544859 0.0511656 0.00309436
vn 0.612242 0.769309 0.182548
v 0.0554422 0.0505504 0.00190844
vn 0.710301 0.684263 0.165096
v 0.0546343 0.0512971 0.000325669
vn 0.537425 0.839457 -0.0805393
v 0.0443742 0.0572323 -0.00283756
vn 0.447007 0.894507 0.00648638
v 0.0443742 0.0571046 0.00337815
vn 0.445108 0.895283 0.0186225
v 0.0443742 0.0571007 0.00348659
vn 0.46393 0.885032 0.0385754
v 0.0443742 0.0570311 0.00506475
vn 0.475488 0.878241 0.0510252
v 0.0443742 0.0567331 0.00981305
vn 0.481187 0.874749 0.0572206
v 0.0612161 0.036053 -0.00947319
vn 0.841243 0.0261402 -0.540024
v 0.0612161 0.0391173 -0.00439957
vn 1 0.000331416 2.72858e-05
v 0.0612095 0.0391405 -0.00441802
vn 0.944274 0.327573 -0.0322847
v 0.0607594 0.0403283 -0.00323902
vn 0.937481 0.346787 0.0294798
v 0.060461 0.041164 -0.00441802
vn 0.905078 0.423515 0.0383259
v 0.0560737 0.0497611 0.00190844
vn 0.897513 0.438656 0.045288
v 0.0559797 0.0496141 0.00304591
vn 0.828331 0.535985 0.163059
v 0.0558906 0.0463215 0.0140976
vn 0.735069 0.454801 0.502821
v 0.0443742 0.0559593 -0.00945012
vn -0.999992 0.00374528 -0.0010832
v 0.0443989 0.05594 -0.00947319
vn 0.0750488 0.119858 -0.98995
v 0.0473057 0.0540442 0.0140976
vn 0.589829 0.78585 0.185853
v 0.049637 0.0522837 0.0140976
vn 0.593643 0.781672 0.191251
v 0.0512132 0.0510766 0.0140976
vn 0.603869 0.770023 0.205929
v 0.0522222 0.0502563 0.0140976
vn 0.619653 0.750662 0.229209
v 0.0529427 0.0496489 0.0140976
vn 0.640025 0.72283 0.260546
v 0.0537341 0.0489176 0.0140976
vn 0.67315 0.692878 0.258434
v 0.0554257 0.0505117 0.000325669
vn 0.735036 0.666713 -0.123351
v 0.0545222 0.0481245 0.0140976
vn 0.71122 0.633271 0.305179
v 0.0544216 0.0511307 -0.00125479
vn 0.581021 0.792315 -0.186149
v 0.0443742 0.0569305 -0.00600079
vn 0.471704 0.864326 -0.174462
v 0.0443742 0.057062 -0.00518403
vn 0.248695 0.956582 -0.151991
v 0.0443742 0.057182 -0.00441802
vn 0.351032 0.933909 -0.0677559
v 0.0583802 0.0425182 -0.00947319
vn 0.0990004 0.0435322 -0.994135
v 0.0588633 0.0427233 -0.00794118
vn 0.866195 0.382135 -0.321991
v 0.0592458 0.0422358 -0.00748204
vn 0.871575 0.378885 -0.311132
v 0.059048 0.0431644 -0.00688677
vn 0.879852 0.387405 -0.275279
v 0.0596745 0.0423016 -0.00600079
vn 0.895636 0.379691 -0.231671
v 0.0603307 0.0406804 -0.00599387
vn 0.906723 0.356618 -0.225115
v 0.0606638 0.0401271 -0.0054609
vn 0.923906 0.328548 -0.196098
v 0.0612161 0.0391173 -0.00441802
vn 1 0.000202302 -0.000122183
v 0.0607693 0.0403748 -0.00441802
vn 0.935481 0.346047 -0.0715966
v 0.0599218 0.0423016 -0.00441802
vn 0.896054 0.44342 -0.0215975
v 0.058865 0.0443792 -0.00441802
vn 0.875418 0.4815 -0.042438
v 0.0560522 0.0497185 0.000325669
vn 0.842214 0.532889 -0.0818825
v 0.0551306 0.0473507 0.0140976
vn 0.71549 0.556858 0.421879
v 0.0553894 0.0470102 0.0140976
vn 0.721427 0.532794 0.442351
v 0.0443742 0.056354 -0.00808193
vn -0.999992 0.00375696 -0.00108331
v 0.0443742 0.0565049 -0.00755818
vn -0.656995 0.726029 -0.203075
v 0.0455316 0.0552281 -0.00947319
vn 0.0759764 0.11985 -0.989881
v 0.0559533 0.0495638 -0.000991767
vn 0.796502 0.586802 -0.145767
v 0.055762 0.04932 -0.00283756
vn 0.731806 0.653008 -0.195039
v 0.0512544 0.0526938 -0.00390351
vn 0.558237 0.806919 -0.193014
v 0.0454459 0.0562031 -0.00600079
vn 0.554854 0.810393 -0.188149
v 0.0548355 0.0502834 -0.00269451
vn 0.686116 0.695219 -0.214282
v 0.0541117 0.0508599 -0.00312597
vn 0.614889 0.751457 -0.239214
v 0.0477838 0.0537501 -0.00947319
vn 0.317083 0.423552 -0.848565
v 0.0476239 0.0539397 -0.00916402
vn 0.557759 0.806455 -0.196303
v 0.0473766 0.0540287 -0.00947319
vn 0.12351 0.182987 -0.975326
v 0.0468325 0.0544736 -0.00916402
vn 0.546501 0.811766 -0.205848
v 0.0467731 0.0544349 -0.00947319
vn 0.14933 0.230639 -0.961513
v 0.0443742 0.056884 -0.00617614
vn -0.884853 0.449392 -0.122808
v 0.0577999 0.0438221 -0.00947319
vn 0.201071 0.103589 -0.974084
v 0.0591552 0.043381 -0.00600079
vn 0.888581 0.428046 -0.164923
v 0.0585484 0.0437679 -0.00748204
vn 0.845035 0.453902 -0.282646
v 0.0587743 0.0441703 -0.00600079
vn 0.861636 0.475906 -0.17634
v 0.0579021 0.0455864 -0.00599156
vn 0.829127 0.542216 -0.136198
v 0.0581857 0.0454664 -0.00441802
vn 0.839035 0.53411 -0.10367
v 0.05748 0.0463099 -0.00545859
vn 0.803782 0.576836 -0.145583
v 0.0573745 0.04619 -0.006513
vn 0.749773 0.622346 -0.224781
v 0.0554966 0.0490647 -0.00441802
vn 0.702739 0.66666 -0.248439
v 0.0462373 0.0556575 -0.00600079
vn 0.5576 0.807204 -0.193657
v 0.0547069 0.0498269 -0.00441802
vn 0.664603 0.700428 -0.260201
v 0.052918 0.0496334 -0.00947319
vn 0.350891 0.384118 -0.854008
v 0.0517671 0.050651 -0.00947319
vn 0.270166 0.310145 -0.911493
v 0.0512346 0.0510998 -0.00947319
vn 0.253442 0.325754 -0.910852
v 0.0567859 0.0454394 -0.00947319
vn 0.0977125 0.0670663 -0.992952
v 0.0575443 0.0448319 -0.0086149
vn 0.799742 0.501413 -0.330148
v 0.0577537 0.0451414 -0.00758125
vn 0.811203 0.514614 -0.27771
v 0.0571734 0.0459307 -0.00758125
vn 0.764327 0.574594 -0.292654
v 0.0560258 0.0464763 -0.00947319
vn 0.205305 0.161041 -0.965358
v 0.05534 0.0472772 -0.00947319
vn 0.489318 0.442841 -0.751305
v 0.0551537 0.0474706 -0.00947319
vn 0.245923 0.240179 -0.939061
v 0.0545502 0.0480858 -0.00947319
vn 0.320253 0.329712 -0.888104
v 0.0535016 0.0490801 -0.00947319
vn 0.237558 0.250548 -0.938505
f 1//1 2//2 3//3
f 1//1 3//3 6//6
f 1//1 6//6 11//11
f 1//1 11//11 23//23
f 1//1 23//23 22//22
f 1//1 22//22 21//21
f 1//1 21//21 20//20
f 1//1 20//20 19//19
f 1//1 19//19 45//45
f 1//1 45//45 44//44
f 1//1 44//44 43//43
f 1//1 43//43 74//74
f 1//1 74//74 61//61
f 1//1 61//61 60//60
f 1//1 60//60 32//32
f 1//1 32//32 14//14
f 1//1 14//14 8//8
f 1//1 8//8 4//4
f 1//1 4//4 7//7
f 1//1 7//7 13//13
f 1//1 13//13 31//31
f 1//1 31//31 59//59
f 1//1 59//59 58//58
f 1//1 58//58 41//41
f 1//1 41//41 39//39
f 1//1 39//39 38//38
f 1//1 38//38 37//37
f 1//1 37//37 36//36
f 1//1 36//36 35//35
f 1//1 35//35 34//34
f 1//1 34//34 15//15
f 1//1 15//15 9//9
f 1//1 9//9 5//5
f 1//1 5//5 2//2
f 2//2 5//5 3//3
f 3//3 5//5 6//6
f 4//4 8//8 7//7
f 5//5 9//9 10//10
f 5//5 10//10 6//6
f 6//6 10//10 11//11
f 7//7 12//12 24//24
f 7//7 24//24 53//53
f 7//7 53//53 25//25
f 7//7 25//25 13//13
f 7//7 8//8 12//12
f 8//8 14//14 33//33
f 8//8 33//33 62//62
f 8//8 62//62 73//73
f 8//8 73//73 71//71
f 8//8 71//71 69//69
f 8//8 69//69 88//88
f 8//8 88//88 87//87
f 8//8 87//87 86//86
f 8//8 86//86 97//97
f 8//8 97//97 96//96
f 8//8 96//96 95//95
f 8//8 95//95 94//94
f 8//8 94//94 93//93
f 8//8 93//93 89//89
f 8//8 89//89 75//75
f 8//8 75//75 46//46
f 8//8 46//46 24//24
f 8//8 24//24 12//12
f 9//9 15//15 16//16
f 9//9 16//16 10//10
f 10//10 16//16 17//17
f 10//10 17//17 18//18
f 10//10 18//18 19//19
f 10//10 19//19 20//20
f 10//10 20//20 21//21
f 10//10 21//21 22//22
f 10//10 22//22 23//23
f 10//10 23//23 11//11
f 13//13 25//25 26//26
f 13//13 26//26 27//27
f 13//13 27//27 28//28
f 13//13 28//28 29//29
f 13//13 29//29 30//30
f 13//13 30//30 31//31
f 14//14 32//32 33//33
f 15//15 34//34 16//16
f 16//16 35//35 36//36
f 16//16 36//36 37//37
f 16//16 37//37 38//38
f 16//16 38//38 39//39
f 16//16 39//39 17//17
f 16//16 34//34 35//35
f 17//17 30//30 29//29
f 17//17 29//29 40//40
f 17//17 40//40 18//18
f 17//17 39//39 41//41
f 17//17 41//41 30//30
f 18//18 40//40 42//42
f 18//18 42//42 43//43
f 18//18 43//43 44//44
f 18//18 44//44 45//45
f 18//18 45//45 19//19
f 24//24 46//46 47//47
f 24//24 47//47 48//48
f 24//24 48//48 49//49
f 24//24 49//49 50//50
f 24//24 50//50 51//51
f 24//24 51//51 52//52
f 24//24 52//52 26//26
f 24//24 26//26 53//53
f 25//25 53//53 26//26
f 26//26 52//52 54//54
f 26//26 54//54 27//27
f 27//27 54//54 28//28
f 28//28 54//54 52//52
f 28//28 52//52 51//51
f 28//28 51//51 50//50
f 28//28 50//50 55//55
f 28//28 55//55 29//29
f 29//29 55//55 56//56
f 29//29 56//56 57//57
f 29//29 57//57 40//40
f 30//30 41//41 58//58
f 30//30 58//58 59//59
f 30//30 59//59 31//31
f 32//32 60//60 33//33
f 33//33 60//60 61//61
f 33//33 61//61 62//62
f 40//40 57//57 63//63
f 40//40 63//63 64//64
f 40//40 64//64 42//42
f 42//42 65//65 66//66
f 42//42 66//66 43//43
f 42//42 64//64 67//67
f 42//42 67//67 68//68
f 42//42 68//68 69//69
f 42//42 69//69 70//70
f 42//42 70//70 65//65
f 43//43 66//66 70//70
f 43//43 70//70 71//71
f 43//43 71//71 72//72
f 43//43 72//72 73//73
f 43//43 73//73 74//74
f 46//46 75//75 47//47
f 47//47 75//75 49//49
f 47//47 49//49 48//48
f 49//49 76//76 50//50
f 49//49 75//75 77//77
f 49//49 77//77 78//78
f 49//49 78//78 76//76
f 50//50 76//76 55//55
f 55//55 76//76 78//78
f 55//55 78//78 56//56
f 56//56 78//78 79//79
f 56//56 79//79 80//80
f 56//56 80//80 57//57
f 57//57 80//80 79//79
f 57//57 79//79 63//63
f 61//61 74//74 73//73
f 61//61 73//73 62//62
f 63//63 79//79 81//81
f 63//63 81//81 82//82
f 63//63 82//82 64//64
f 64//64 83//83 68//68
f 64//64 68//68 67//67
f 64//64 82//82 83//83
f 65//65 70//70 84//84
f 65//65 84//84 66//66
f 66//66 84//84 70//70
f 68//68 83//83 85//85
f 68//68 85//85 86//86
f 68//68 86//86 87//87
f 68//68 87//87 88//88
f 68//68 88//88 69//69
f 69//69 71//71 70//70
f 71//71 73//73 72//72
f 75//75 89//89 90//90
f 75//75 90//90 91//91
f 75//75 91//91 77//77
f 77//77 91//91 78//78
f 78//78 91//91 79//79
f 79//79 82//82 81//81
f 79//79 91//91 82//82
f 82//82 91//91 92//92
f 82//82 92//92 93//93
f 82//82 93//93 94//94
f 82//82 94//94 83//83
f 83//83 94//94 95//95
f 83//83 95//95 96//96
f 83//83 96//96 85//85
f 85//85 97//97 86//86
f 85//85 96//96 97//97
f 89//89 93//93 91//91
f 89//89 91//91 90//90
f 91//91 93//93 92//92
