# Created by Open3D 
# object name: part_002
# number of vertices: 129
# number of triangles: 254
v -0.062826 0.01358 0.0140976
vn 0.648973 0.259208 0.715293
v -0.0641634 0.01358 -0.00496927
vn 0.847021 -0.0131327 -0.531397
v -0.072548 0.01358 0.0140976
vn -0.180657 0.336527 0.924182
v -0.068527 -0.0272786 0.0140976
vn 0.987717 -0.140052 -0.0692801
v -0.0696781 -0.00356094 -0.00496927
vn 0.864368 -0.283593 -0.415262
v -0.0747342 0.01358 -0.00496927
vn -0.0299705 0.812422 -0.5823
v -0.0688012 -0.02856 0.0140976
vn 0.884996 -0.279971 -0.372019
v -0.0737096 0.01358 0.0119867
vn -0.058855 0.997761 0.0317694
v -0.0738203 0.0129931 0.0121622
vn -0.852268 0.243188 0.46314
v -0.074286 0.00747357 0.0140976
vn -0.446141 0.124815 0.886216
v -0.0691421 -0.0295142 0.0140976
vn 0.895846 -0.369492 -0.246851
v -0.0701298 -0.00468993 -0.00496927
vn 0.780806 -0.326017 -0.532968
v -0.0748607 0.01358 -0.00441869
vn -0.326769 0.942978 -0.0633625
v -0.080509 -0.000738474 -0.00496927
vn -0.73139 0.285937 -0.619119
v -0.0741156 0.01358 0.0111935
vn -0.708494 0.651903 0.270294
v -0.0786145 -0.00112376 0.0106821
vn -0.949257 0.208731 0.235251
v -0.0746902 0.00592793 0.0140976
vn -0.273338 0.0706673 0.959319
v -0.069534 -0.0303565 0.0140976
vn 0.892928 -0.434355 -0.118385
v -0.0703459 -0.00516034 -0.00496927
vn 0.749632 -0.352484 -0.560185
v -0.0748572 0.01358 -0.00316075
vn -0.624801 0.780769 0.00480358
v -0.0752579 0.0125854 -0.00441869
vn -0.930269 0.366869 0.00260022
v -0.0807251 -0.00197947 -0.00496927
vn -0.105016 -0.0153585 -0.994352
v -0.0807779 -0.00197947 -0.00441869
vn -0.985867 0.104762 0.130734
v -0.0805037 -0.000774315 -0.00441869
vn -0.954092 0.27545 0.117628
v -0.0746533 0.01358 0.00823159
vn -0.650792 0.759095 0.0156358
v -0.0748537 0.01358 -0.00283787
vn -0.636645 0.771073 0.0113923
v -0.0745409 0.01358 0.00981241
vn -0.933154 0.332839 0.1358
v -0.0769081 -0.00322494 0.0140976
vn -0.245216 0.0382883 0.968712
v -0.0766937 -0.00197947 0.0140976
vn -0.258658 0.0537066 0.964475
v -0.0763211 -0.000397986 0.0140976
vn -0.271778 0.068858 0.959893
v -0.0796479 -0.0067239 0.00665077
vn -0.993404 -0.00218922 0.114642
v -0.0794141 -0.0067239 0.00823159
vn -0.982321 0.0487846 0.180735
v -0.0790662 -0.0067239 0.00981241
vn -0.972574 0.0422718 0.228721
v -0.0787938 -0.00830538 0.0111618
vn -0.959406 -0.0127248 0.281741
v -0.0784845 -0.00830538 0.0119513
vn -0.908117 0.019775 0.41825
v -0.0774177 -0.00720775 0.0140976
vn -0.213992 0.00725815 0.976808
v -0.0772666 -0.00564868 0.0140976
vn -0.238395 0.0305052 0.970689
v -0.0700472 -0.031369 0.0140976
vn 0.785353 -0.416811 -0.457701
v -0.0707027 -0.00589956 -0.00496927
vn 0.737652 -0.382255 -0.556553
v -0.080393 -0.00347582 -0.00496927
vn -0.602948 -0.17761 -0.777758
v -0.080451 -0.00363711 -0.00449708
vn -0.961926 -0.231911 -0.14462
v -0.0806794 -0.00356094 -0.00283787
vn -0.993441 -0.110983 0.0275426
v -0.0745619 0.01358 0.00955672
vn -0.658795 0.750861 0.0468721
v -0.0786215 -0.0174403 0.0094242
vn -0.993028 -0.0778817 0.0884855
v -0.0791312 -0.00830538 0.00981241
vn -0.979108 -0.0539763 0.196047
v -0.0773509 -0.0209527 0.0140976
vn -0.700159 -0.0433233 0.712672
v -0.0774388 -0.0193713 0.0140976
vn -0.176195 -0.00167046 0.984354
v -0.0702704 -0.0316244 0.0140976
vn 0.370471 -0.343492 0.862997
v -0.0736077 -0.0237214 0.00387921
vn 0.551144 -0.552864 -0.624965
v -0.0737817 -0.0202762 0.00104045
vn 0.710158 -0.408617 -0.573331
v -0.0709347 -0.00631173 -0.00496927
vn 0.359699 -0.20701 -0.909815
v -0.0737711 -0.0155497 -0.00213985
vn 0.604961 -0.439032 -0.664284
v -0.0801768 -0.00410304 -0.00496927
vn -0.257246 -0.106789 -0.960427
v -0.0771682 -0.0205898 0.00231332
vn -0.847795 -0.33875 -0.408034
v -0.0773211 -0.0210513 0.00341635
vn -0.933602 -0.278753 -0.225132
v -0.0778131 -0.0193713 0.00348914
vn -0.953656 -0.247984 -0.170421
v -0.0780381 -0.0193713 0.00506809
vn -0.964394 -0.229354 -0.131685
v -0.0803385 -0.00514242 -0.00273895
vn -0.966853 -0.223378 -0.123686
v -0.0782419 -0.0193713 0.00665077
vn -0.971763 -0.213327 -0.100837
v -0.0783632 -0.0193713 0.00823159
vn -0.978549 -0.196464 -0.0619926
v -0.0785495 -0.0183811 0.00823159
vn -0.98748 -0.157709 -0.00339254
v -0.0786461 -0.0175926 0.00823159
vn -0.99247 -0.117936 0.0330729
v -0.078314 -0.0193713 0.00981241
vn -0.982365 -0.152512 0.108162
v -0.0785178 -0.0178973 0.0098964
vn -0.975809 -0.0769469 0.204636
v -0.0772226 -0.0225342 0.0140976
vn -0.217204 -0.0219696 0.975879
v -0.0704584 -0.0318125 0.0140976
vn 0.310472 -0.394011 0.86508
v -0.0722264 -0.031248 0.012164
vn 0.357132 -0.674518 -0.646129
v -0.0735708 -0.0252492 0.00546189
vn 0.200664 -0.708329 -0.676759
v -0.0746217 -0.0238648 0.00372616
vn -0.0445656 -0.713143 -0.6996
v -0.0746217 -0.0230494 0.00293482
vn 0.0674712 -0.639481 -0.765841
v -0.0737184 -0.0220772 0.00249622
vn 0.296684 -0.598311 -0.744313
v -0.0746217 -0.0222564 0.00233572
vn 0.0558492 -0.598994 -0.798804
v -0.0746217 -0.0204062 0.000952734
vn 0.0320506 -0.573049 -0.818894
v -0.0746217 -0.0157065 -0.00226676
vn 0.120524 -0.555293 -0.822875
v -0.0718011 -0.00780809 -0.00496927
vn 0.348669 -0.203857 -0.914807
v -0.0746217 -0.0116341 -0.00496927
vn 0.046494 -0.132403 -0.990105
v -0.0736903 -0.0110248 -0.00496927
vn 0.228603 -0.168531 -0.958821
v -0.0772016 -0.0111637 -0.00496927
vn -0.257583 -0.142463 -0.955696
v -0.0768061 -0.0199716 0.00125882
vn -0.543405 -0.512764 -0.664668
v -0.0769046 -0.0216427 0.00283964
vn -0.681036 -0.56523 -0.465516
v -0.0771137 -0.0219204 0.00389414
vn -0.873217 -0.439303 -0.210961
v -0.0776497 -0.0209527 0.00506809
vn -0.945955 -0.291637 -0.141835
v -0.0778536 -0.0209527 0.00665077
vn -0.958203 -0.264751 -0.108412
v -0.0780029 -0.0209527 0.00823159
vn -0.968245 -0.239129 -0.0729262
v -0.0776989 -0.0225342 0.00981241
vn -0.965153 -0.25996 -0.0299894
v -0.0780398 -0.0209527 0.00981241
vn -0.980966 -0.189926 0.0404149
v -0.0776128 -0.0225342 0.0113951
vn -0.976105 -0.195458 0.0949502
v -0.0770768 -0.0236632 0.0140976
vn -0.473005 -0.0707471 0.878215
v -0.0714812 -0.0321799 0.0140976
vn 0.0153224 -0.0462947 0.99881
v -0.0746217 -0.0253477 0.00534804
vn -0.161545 -0.764602 -0.623929
v -0.0746217 -0.0246578 0.00455857
vn 0.0213796 -0.734435 -0.678343
v -0.0715955 -0.0321888 0.0140976
vn -0.0114203 -0.0425579 0.999029
v -0.0722826 -0.031248 0.012164
vn -0.39345 -0.788832 -0.472166
v -0.0756515 -0.0236498 0.0039408
vn -0.408662 -0.672948 -0.616552
v -0.0758501 -0.0220952 0.00241597
vn -0.364216 -0.631702 -0.684324
v -0.0757517 -0.0203703 0.000973263
vn -0.25523 -0.571345 -0.780014
v -0.0762034 -0.0118447 -0.00496927
vn 0.00190546 -0.247419 -0.968907
v -0.0763176 -0.0117909 -0.00496927
vn -0.0954568 -0.139925 -0.98555
v -0.0755672 -0.0251506 0.00557387
vn -0.466399 -0.687638 -0.55644
v -0.0754547 -0.0265439 0.00734693
vn -0.638132 -0.674081 -0.372025
v -0.0761506 -0.0256972 0.00823159
vn -0.866772 -0.463889 -0.183069
v -0.0767851 -0.0244338 0.00823159
vn -0.889461 -0.425085 -0.167815
v -0.0771313 -0.0236453 0.00823159
vn -0.917941 -0.37036 -0.142193
v -0.0772174 -0.0221444 0.00506809
vn -0.9294 -0.341993 -0.13877
v -0.0775355 -0.0225342 0.00823159
vn -0.938445 -0.323394 -0.121394
v -0.0772455 -0.0239096 0.00981241
vn -0.936525 -0.343599 -0.0697246
v -0.0772349 -0.0239858 0.0113951
vn -0.955331 -0.292946 0.0390595
v -0.0771418 -0.0238738 0.0129759
vn -0.965011 -0.251194 0.0751974
v -0.0769625 -0.0242232 0.0140976
vn -0.256736 -0.0628662 0.964435
v -0.0746217 -0.0261407 0.00638388
vn -0.275032 -0.770165 -0.575503
v -0.0727272 -0.0318304 0.0140976
vn -0.0234825 -0.0417193 0.998853
v -0.0725462 -0.0314407 0.0129759
vn -0.554379 -0.753077 -0.354316
v -0.073337 -0.0308538 0.0129759
vn -0.61076 -0.72411 -0.320371
v -0.0741314 -0.0300653 0.0129759
vn -0.728128 -0.646052 -0.229013
v -0.0755689 -0.0267007 0.00823159
vn -0.810207 -0.561409 -0.168478
v -0.0757007 -0.0269202 0.00981241
vn -0.843725 -0.520107 -0.132731
v -0.0763984 -0.0256972 0.00981241
vn -0.875362 -0.471862 -0.105303
v -0.0769028 -0.0246981 0.00981241
vn -0.899771 -0.427637 -0.0868289
v -0.076945 -0.0247787 0.0113951
vn -0.923238 -0.38412 -0.00914447
v -0.0765162 -0.0256972 0.0140976
vn -0.109668 -0.0405512 0.993141
v -0.0769327 -0.0246623 0.0129759
vn -0.954851 -0.289171 0.0681206
v -0.076901 -0.0244517 0.0140976
vn -0.0436205 -0.0132102 0.998961
v -0.0735848 -0.031024 0.0140976
vn -0.0347467 -0.0357787 0.998756
v -0.073815 -0.0307911 0.0140976
vn -0.023188 -0.019682 0.999537
v -0.0742579 -0.030231 0.0140976
vn -0.176407 -0.120695 0.97689
v -0.0750733 -0.02899 0.0140976
vn -0.108918 -0.0702897 0.991562
v -0.0752438 -0.0287033 0.0140976
vn -0.305343 -0.172076 0.936566
v -0.0754916 -0.0282329 0.0140976
vn -0.304793 -0.145418 0.941252
v -0.07588 -0.027319 0.0140976
vn -0.0908077 -0.0366907 0.995192
f 1//1 2//2 6//6
f 1//1 6//6 13//13
f 1//1 13//13 20//20
f 1//1 20//20 26//26
f 1//1 26//26 25//25
f 1//1 25//25 43//43
f 1//1 43//43 27//27
f 1//1 27//27 15//15
f 1//1 15//15 8//8
f 1//1 8//8 3//3
f 1//1 3//3 10//10
f 1//1 10//10 17//17
f 1//1 17//17 30//30
f 1//1 30//30 29//29
f 1//1 29//29 28//28
f 1//1 28//28 37//37
f 1//1 37//37 36//36
f 1//1 36//36 47//47
f 1//1 47//47 46//46
f 1//1 46//46 65//65
f 1//1 65//65 88//88
f 1//1 88//88 109//109
f 1//1 109//109 122//122
f 1//1 122//122 120//120
f 1//1 120//120 129//129
f 1//1 129//129 128//128
f 1//1 128//128 127//127
f 1//1 127//127 126//126
f 1//1 126//126 125//125
f 1//1 125//125 124//124
f 1//1 124//124 123//123
f 1//1 123//123 111//111
f 1//1 111//111 92//92
f 1//1 92//92 89//89
f 1//1 89//89 66//66
f 1//1 66//66 48//48
f 1//1 48//48 38//38
f 1//1 38//38 18//18
f 1//1 18//18 11//11
f 1//1 11//11 7//7
f 1//1 7//7 4//4
f 1//1 4//4 2//2
f 2//2 5//5 12//12
f 2//2 12//12 19//19
f 2//2 19//19 39//39
f 2//2 39//39 51//51
f 2//2 51//51 75//75
f 2//2 75//75 77//77
f 2//2 77//77 76//76
f 2//2 76//76 97//97
f 2//2 97//97 98//98
f 2//2 98//98 78//78
f 2//2 78//78 53//53
f 2//2 53//53 40//40
f 2//2 40//40 22//22
f 2//2 22//22 14//14
f 2//2 14//14 6//6
f 2//2 4//4 7//7
f 2//2 7//7 5//5
f 3//3 8//8 9//9
f 3//3 9//9 10//10
f 5//5 7//7 11//11
f 5//5 11//11 12//12
f 6//6 14//14 13//13
f 8//8 15//15 9//9
f 9//9 15//15 16//16
f 9//9 16//16 10//10
f 10//10 16//16 17//17
f 11//11 18//18 19//19
f 11//11 19//19 12//12
f 13//13 14//14 21//21
f 13//13 21//21 20//20
f 14//14 22//22 23//23
f 14//14 23//23 24//24
f 14//14 24//24 25//25
f 14//14 25//25 26//26
f 14//14 26//26 20//20
f 14//14 20//20 21//21
f 15//15 27//27 16//16
f 16//16 28//28 29//29
f 16//16 29//29 30//30
f 16//16 30//30 17//17
f 16//16 27//27 24//24
f 16//16 24//24 23//23
f 16//16 23//23 31//31
f 16//16 31//31 32//32
f 16//16 32//32 33//33
f 16//16 33//33 34//34
f 16//16 34//34 35//35
f 16//16 35//35 36//36
f 16//16 36//36 37//37
f 16//16 37//37 28//28
f 18//18 38//38 39//39
f 18//18 39//39 19//19
f 22//22 40//40 41//41
f 22//22 41//41 42//42
f 22//22 42//42 23//23
f 23//23 42//42 31//31
f 24//24 27//27 43//43
f 24//24 43//43 25//25
f 31//31 44//44 45//45
f 31//31 45//45 32//32
f 31//31 42//42 44//44
f 32//32 45//45 33//33
f 33//33 45//45 34//34
f 34//34 45//45 46//46
f 34//34 46//46 47//47
f 34//34 47//47 35//35
f 35//35 47//47 36//36
f 38//38 48//48 49//49
f 38//38 49//49 50//50
f 38//38 50//50 39//39
f 39//39 50//50 52//52
f 39//39 52//52 51//51
f 40//40 53//53 54//54
f 40//40 54//54 55//55
f 40//40 55//55 56//56
f 40//40 56//56 41//41
f 41//41 56//56 57//57
f 41//41 57//57 58//58
f 41//41 58//58 42//42
f 42//42 58//58 59//59
f 42//42 59//59 60//60
f 42//42 60//60 61//61
f 42//42 61//61 62//62
f 42//42 62//62 44//44
f 44//44 62//62 61//61
f 44//44 61//61 63//63
f 44//44 63//63 64//64
f 44//44 64//64 45//45
f 45//45 64//64 46//46
f 46//46 64//64 65//65
f 48//48 66//66 49//49
f 49//49 66//66 67//67
f 49//49 67//67 68//68
f 49//49 68//68 69//69
f 49//49 69//69 70//70
f 49//49 70//70 71//71
f 49//49 71//71 50//50
f 50//50 71//71 70//70
f 50//50 70//70 72//72
f 50//50 72//72 73//73
f 50//50 73//73 74//74
f 50//50 74//74 52//52
f 51//51 52//52 75//75
f 52//52 74//74 76//76
f 52//52 76//76 77//77
f 52//52 77//77 75//75
f 53//53 78//78 54//54
f 54//54 78//78 79//79
f 54//54 79//79 80//80
f 54//54 80//80 55//55
f 55//55 80//80 81//81
f 55//55 81//81 82//82
f 55//55 82//82 56//56
f 56//56 82//82 57//57
f 57//57 82//82 83//83
f 57//57 83//83 59//59
f 57//57 59//59 58//58
f 59//59 83//83 84//84
f 59//59 84//84 60//60
f 60//60 84//84 85//85
f 60//60 85//85 86//86
f 60//60 86//86 61//61
f 61//61 86//86 63//63
f 63//63 86//86 87//87
f 63//63 87//87 88//88
f 63//63 88//88 64//64
f 64//64 88//88 65//65
f 66//66 89//89 67//67
f 67//67 90//90 91//91
f 67//67 91//91 68//68
f 67//67 89//89 92//92
f 67//67 92//92 93//93
f 67//67 93//93 90//90
f 68//68 91//91 69//69
f 69//69 94//94 95//95
f 69//69 95//95 70//70
f 69//69 91//91 94//94
f 70//70 95//95 96//96
f 70//70 96//96 72//72
f 72//72 96//96 73//73
f 73//73 96//96 97//97
f 73//73 97//97 74//74
f 74//74 97//97 76//76
f 78//78 98//98 96//96
f 78//78 96//96 79//79
f 79//79 96//96 95//95
f 79//79 95//95 80//80
f 80//80 95//95 94//94
f 80//80 94//94 99//99
f 80//80 99//99 100//100
f 80//80 100//100 81//81
f 81//81 100//100 101//101
f 81//81 101//101 102//102
f 81//81 102//102 103//103
f 81//81 103//103 104//104
f 81//81 104//104 82//82
f 82//82 104//104 105//105
f 82//82 105//105 83//83
f 83//83 105//105 85//85
f 83//83 85//85 84//84
f 85//85 105//105 106//106
f 85//85 106//106 107//107
f 85//85 107//107 87//87
f 85//85 87//87 86//86
f 87//87 107//107 108//108
f 87//87 108//108 109//109
f 87//87 109//109 88//88
f 90//90 99//99 91//91
f 90//90 93//93 110//110
f 90//90 110//110 99//99
f 91//91 99//99 94//94
f 92//92 111//111 93//93
f 93//93 111//111 112//112
f 93//93 112//112 113//113
f 93//93 113//113 100//100
f 93//93 100//100 110//110
f 96//96 98//98 97//97
f 99//99 110//110 100//100
f 100//100 113//113 114//114
f 100//100 114//114 115//115
f 100//100 115//115 101//101
f 101//101 115//115 116//116
f 101//101 116//116 117//117
f 101//101 117//117 118//118
f 101//101 118//118 102//102
f 102//102 118//118 103//103
f 103//103 106//106 105//105
f 103//103 105//105 104//104
f 103//103 118//118 106//106
f 106//106 118//118 119//119
f 106//106 119//119 107//107
f 107//107 119//119 120//120
f 107//107 120//120 121//121
f 107//107 121//121 109//109
f 107//107 109//109 108//108
f 109//109 121//121 122//122
f 111//111 123//123 113//113
f 111//111 113//113 112//112
f 113//113 123//123 114//114
f 114//114 123//123 124//124
f 114//114 124//124 125//125
f 114//114 125//125 115//115
f 115//115 125//125 116//116
f 116//116 125//125 126//126
f 116//116 126//126 127//127
f 116//116 127//127 117//117
f 117//117 127//127 128//128
f 117//117 128//128 118//118
f 118//118 128//128 119//119
f 119//119 128//128 129//129
f 119//119 129//129 120//120
f 120//120 122//122 121//121
