# Created by Open3D 
# object name: part_007
# number of vertices: 174
# number of triangles: 344
v -0.0334924 0.0184551 0.0460524
vn -1 -5.80596e-05 -4.28627e-05
v -0.0334892 0.0183135 0.046156
vn 0.149218 -0.739372 0.656554
v -0.0334924 0.0185209 0.046156
vn -0.999542 -0.000107773 0.0302651
v -0.0334924 0.0421881 0.0140976
vn -0.0666639 -0.571338 -0.818003
v -0.00131128 0.0248804 0.0461466
vn 0.619892 -0.62682 -0.47205
v -0.00131128 0.0248753 0.046156
vn 0.000377468 -0.000416296 1
v -0.0334924 0.0475357 0.046156
vn -0.498868 0.578445 0.645392
v -0.0334924 0.063356 0.0140976
vn -0.998669 0.0515345 -0.00226227
v -0.00133333 0.0492812 0.0140976
vn 0.169235 -0.767267 -0.618596
v -0.00131128 0.0492761 0.0141102
vn 0.17284 -0.783609 -0.596727
v -0.00131128 0.0474902 0.046156
vn 0.0102934 0.279426 0.960112
v -0.0332719 0.0475863 0.046156
vn -0.0433903 0.192587 0.98032
v -0.0292366 0.0556913 0.0390012
vn -0.191389 0.764981 0.614958
v -0.0303392 0.0554838 0.0387282
vn -0.338975 0.723872 0.60092
v -0.0314574 0.0543961 0.0392931
vn -0.424956 0.701528 0.572076
v -0.0325127 0.0540217 0.0389039
vn -0.469379 0.689407 0.551726
v -0.0334924 0.0476976 0.0459552
vn -0.998555 0.0421065 0.0333872
v -0.0334924 0.0633206 0.0142325
vn -0.982601 0.179402 0.048074
v -0.0262315 0.0635888 0.0260316
vn -0.410088 0.880465 0.237928
v -0.0240138 0.064636 0.02563
vn -0.374053 0.901446 0.217899
v -0.0330073 0.0635635 0.0140976
vn -0.343116 0.851873 -0.395707
v -0.00131128 0.0492862 0.0140976
vn 0.705657 -2.94279e-07 -0.708554
v -0.00131128 0.0475357 0.0461121
vn 0.974035 0.157525 0.162609
v -0.00503781 0.0650914 0.0294427
vn 0.0487578 0.696858 0.71555
v -0.0113663 0.0637051 0.0312094
vn 0.0484389 0.693146 0.719168
v -0.0129476 0.0637557 0.0312628
vn 0.0304037 0.698192 0.715265
v -0.0176885 0.0622177 0.0329008
vn 0.0171315 0.684328 0.728973
v -0.0277278 0.0557722 0.0391048
vn 0.0149308 0.675839 0.736898
v -0.0287578 0.0480113 0.046156
vn 0.00350046 0.184469 0.982832
v -0.0319205 0.0478899 0.046156
vn -0.0430219 0.252295 0.966694
v -0.0303392 0.0560252 0.0379374
vn -0.271481 0.81002 0.519774
v -0.0281814 0.0557722 0.0391048
vn -0.0633295 0.713245 0.698048
v -0.0212827 0.0620153 0.0326718
vn -0.137266 0.78304 0.606636
v -0.0224325 0.0619091 0.032518
vn -0.162094 0.794834 0.584777
v -0.0224325 0.0624757 0.0317272
vn -0.20486 0.809964 0.549537
v -0.0240138 0.0617219 0.0322073
vn -0.225727 0.808725 0.54315
v -0.0240138 0.062243 0.0314165
vn -0.258721 0.817548 0.51447
v -0.0327994 0.0573861 0.0344134
vn -0.422403 0.751248 0.50715
v -0.0312747 0.0558279 0.0376268
vn -0.416913 0.71945 0.555495
v -0.0318921 0.0549425 0.0382638
vn -0.451079 0.70036 0.553194
v -0.0334924 0.0563894 0.0349563
vn -0.999565 0.0232306 0.0181867
v -0.0334924 0.0621266 0.0186854
vn -0.982399 0.180071 0.0496564
v -0.0271765 0.0627692 0.0272115
vn -0.426334 0.861443 0.275961
v -0.0251762 0.0638013 0.026791
vn -0.367969 0.882993 0.291414
v -0.0334924 0.0610136 0.0225986
vn -0.969821 0.234194 0.0678192
v -0.0223128 0.0648485 0.0271017
vn -0.349985 0.891605 0.287317
v -0.0228136 0.0650964 0.02563
vn -0.332815 0.912272 0.238733
v -0.0231413 0.0652077 0.0245975
vn -0.314787 0.934622 0.165501
v -0.032519 0.0637557 0.0140976
vn -0.184925 0.475463 -0.86008
v -0.00131128 0.0699938 0.0140976
vn 0.704448 4.60686e-06 -0.709756
v -0.00131128 0.0648991 0.0292513
vn 0.991143 0.0926741 0.0951188
v -0.00345648 0.0650256 0.0293862
vn 0.072676 0.696429 0.713936
v -0.00345648 0.0657491 0.0285954
vn 0.0576476 0.751887 0.656767
v -0.00503781 0.0657693 0.0286519
vn 0.0188505 0.767454 0.640827
v -0.0113663 0.0651875 0.0295086
vn -0.00686163 0.799065 0.601206
v -0.014529 0.0637608 0.0312847
vn -0.00858652 0.760253 0.649571
v -0.0161103 0.0637254 0.0312565
vn -0.0421017 0.786498 0.616156
v -0.0192698 0.0621519 0.0328444
vn -0.0680388 0.752185 0.65543
v -0.0293059 0.0480214 0.046156
vn 0.000554239 0.222805 0.974863
v -0.0309377 0.0479759 0.046156
vn -0.0149582 0.187016 0.982243
v -0.0308495 0.0572343 0.0357596
vn -0.275902 0.814396 0.510527
v -0.0303392 0.0480164 0.046156
vn -0.00518147 0.185697 0.982593
v -0.0202274 0.0620963 0.0327753
vn -0.109547 0.778128 0.61848
v -0.0207945 0.0625415 0.0320693
vn -0.133015 0.801042 0.583643
v -0.0208512 0.0634319 0.0308172
vn -0.156544 0.810712 0.564127
v -0.0208512 0.0639429 0.0300295
vn -0.217808 0.833054 0.508509
v -0.021982 0.0637709 0.029791
vn -0.233222 0.837339 0.49444
v -0.0207693 0.0647625 0.0286802
vn -0.245683 0.843248 0.478093
v -0.0248612 0.0620912 0.0312032
vn -0.298684 0.834548 0.462945
v -0.0319205 0.0575328 0.034677
vn -0.282262 0.818084 0.501065
v -0.0311078 0.0588988 0.0327282
vn -0.350667 0.850342 0.392365
v -0.0331301 0.0576138 0.0335347
vn -0.423205 0.83779 0.344972
v -0.0334924 0.0575025 0.0332429
vn -0.999754 0.0198234 0.00991827
v -0.0334924 0.0571585 0.0338705
vn -0.999653 0.022084 0.0143462
v -0.0271009 0.0622784 0.0286582
vn -0.390833 0.862518 0.321422
v -0.0256613 0.0634218 0.0272743
vn -0.369857 0.870448 0.324848
v -0.0334924 0.0608568 0.0231132
vn -0.985639 0.161481 0.0493985
v -0.0334924 0.0606392 0.0238224
vn -0.981104 0.184554 0.0580986
v -0.0325946 0.0588482 0.0309615
vn -0.438978 0.855559 0.274439
v -0.0320087 0.0587471 0.0321006
vn -0.404816 0.857123 0.318536
v -0.0240831 0.0640643 0.0272743
vn -0.355217 0.873208 0.333659
v -0.0212418 0.0651116 0.0275567
vn -0.338257 0.876763 0.341861
v -0.0217048 0.0652533 0.0265023
vn -0.293013 0.927058 0.233897
v -0.022023 0.0653494 0.02563
vn -0.277025 0.942614 0.186374
v -0.0208512 0.0656732 0.02563
vn -0.247008 0.953986 0.169996
v -0.0208512 0.065916 0.0240484
vn -0.260701 0.956344 0.132066
v -0.0279924 0.065319 0.0140976
vn -0.257694 0.96545 -0.0387459
v -0.0282853 0.0652381 0.0140976
vn -0.133044 0.460209 -0.877785
v -0.0289374 0.0650458 0.0140976
vn -0.147381 0.464561 -0.873191
v -0.0303266 0.0645905 0.0140976
vn -0.164626 0.469657 -0.867364
v -0.0314921 0.0641503 0.0140976
vn -0.179652 0.473975 -0.862017
v -0.0319016 0.0639935 0.0140976
vn -0.18244 0.474763 -0.860997
v -0.00144988 0.0699887 0.0140976
vn -0.00475689 0.0818203 -0.996636
v -0.00131128 0.0699938 0.014129
vn 0.995453 0.0951402 0.00461253
v -0.00131128 0.0656529 0.0284605
vn 0.979875 0.146363 0.135731
v -0.00131128 0.0659363 0.0281435
vn 0.993752 0.0838158 0.0737073
v -0.00131128 0.0664422 0.027563
vn 0.975772 0.167079 0.141255
v -0.00345648 0.0665383 0.0276571
vn 0.0289044 0.783389 0.620859
v -0.00503781 0.0665585 0.0276571
vn -0.00241756 0.810566 0.585642
v -0.00503781 0.0671049 0.0268664
vn -0.0400277 0.862934 0.503728
v -0.0129476 0.065147 0.0294427
vn -0.0443716 0.849029 0.52648
v -0.0161103 0.0643527 0.0303716
vn -0.0476506 0.822176 0.567235
v -0.0171026 0.0636849 0.0312063
vn -0.0897734 0.79784 0.596147
v -0.0192698 0.0641301 0.0302147
vn -0.114473 0.804007 0.583497
v -0.0192698 0.0649244 0.0290693
vn -0.167482 0.833845 0.525977
v -0.0201896 0.0652684 0.0280776
vn -0.273422 0.880519 0.387203
v -0.0230373 0.0635888 0.0294427
vn -0.317603 0.859033 0.401485
v -0.0254723 0.0622784 0.0302963
vn -0.333309 0.855973 0.395241
v -0.0259165 0.0618787 0.0307701
vn -0.336722 0.851197 0.402594
v -0.0265213 0.0621317 0.0297188
vn -0.360531 0.862059 0.35619
v -0.0334924 0.0579679 0.0320504
vn -0.979221 0.190361 0.0699222
v -0.0334924 0.0578162 0.0324552
vn -0.999936 0.0105692 0.00412543
v -0.0255952 0.0628653 0.0287931
vn -0.355049 0.872504 0.335674
v -0.0334924 0.0585497 0.0302868
vn -0.999647 0.0252812 0.0081993
v -0.0334924 0.0580185 0.0319029
vn -0.999644 0.0253413 0.00836017
v -0.0207693 0.0653696 0.0271017
vn -0.250274 0.941588 0.225333
v -0.0224797 0.0640643 0.0288653
vn -0.328373 0.862945 0.384053
v -0.0192698 0.0657288 0.0272115
vn -0.202939 0.949369 0.23982
v -0.0192698 0.0660627 0.02563
vn -0.224777 0.954734 0.19483
v -0.014529 0.0678132 0.0224668
vn -0.204914 0.962883 0.17569
v -0.0161103 0.0674186 0.0224668
vn -0.255096 0.958472 0.127502
v -0.0271639 0.0655214 0.0140976
vn -0.0577058 0.249328 -0.966698
v -0.014529 0.0680156 0.0208852
vn -0.247648 0.962405 0.111568
v -0.0136312 0.0683698 0.0197649
vn -0.237583 0.966309 0.0990027
v -0.00210825 0.0699483 0.0140976
vn -0.00501522 0.0791598 -0.996849
v -0.00345648 0.0698167 0.0161405
vn -0.0792359 0.996387 0.030569
v -0.00345648 0.0697459 0.0177221
vn -0.0761843 0.995618 0.0542215
v -0.00187514 0.0698724 0.0161405
vn -0.0222309 0.998176 0.056132
v -0.00131128 0.0699027 0.0157827
vn 0.999778 0.0210109 0.0012239
v -0.00131128 0.0666699 0.0272806
vn 0.994968 0.0787366 0.0619596
v -0.00131128 0.0670645 0.0267722
vn 0.986095 0.135763 0.0958364
v -0.00345648 0.0671201 0.0268664
vn 0.0215598 0.860635 0.508765
v -0.00345648 0.0677424 0.02563
vn 0.00139542 0.916599 0.399805
v -0.00503781 0.0677019 0.02563
vn -0.0622761 0.92921 0.364267
v -0.00661915 0.0670442 0.0267848
vn -0.0579328 0.892552 0.447209
v -0.0176885 0.0654658 0.0284542
vn -0.0672198 0.894415 0.442158
v -0.0176885 0.0650205 0.029245
vn -0.0589134 0.849682 0.523994
v -0.0176507 0.0641352 0.0304908
vn -0.0994101 0.808379 0.580207
v -0.0192698 0.0653747 0.0282785
vn -0.120166 0.924236 0.362418
v -0.014529 0.0674844 0.0240484
vn -0.166956 0.955265 0.244119
v -0.0113631 0.0685671 0.0209731
vn -0.107459 0.970008 0.218031
v -0.0125759 0.0684912 0.0205055
vn -0.169098 0.973406 0.154552
v -0.0130421 0.0685519 0.0192628
vn -0.214711 0.97454 0.0645864
v -0.0137824 0.0684102 0.0187105
vn -0.222459 0.974237 0.0370583
v -0.0124846 0.0688757 0.0140976
vn -0.0473812 0.207501 -0.977087
v -0.00304697 0.0698875 0.0140976
vn -0.00549789 0.0796813 -0.996805
v -0.00342813 0.0698572 0.0140976
vn -0.00682457 0.0811144 -0.996681
v -0.00978181 0.0693209 0.0140976
vn -0.0273816 0.281555 -0.959154
v -0.00503781 0.069589 0.0177221
vn -0.0991274 0.993457 0.0567195
v -0.0113663 0.0688656 0.0193036
vn -0.106833 0.987549 0.115473
v -0.00345648 0.0696498 0.0193036
vn -0.0805587 0.989451 0.120405
v -0.00187514 0.0696902 0.0193036
vn -0.0184089 0.996465 0.0819679
v -0.00131128 0.0696902 0.0193036
vn 0.999911 0.0132929 0.00118622
v -0.00131128 0.067282 0.02638
vn 0.997129 0.0668612 0.0355368
v -0.00131128 0.0676716 0.02563
vn 0.988986 0.132398 0.0661684
v -0.00131128 0.0678689 0.0251969
vn 0.997647 0.0629441 0.0271859
v -0.00131128 0.0683344 0.0240955
vn 0.997751 0.0620579 0.0253236
v -0.00131128 0.0686936 0.023176
vn 0.993179 0.109103 0.0411437
v -0.00345648 0.0682281 0.0243339
vn -0.0327696 0.942002 0.334004
v -0.00503781 0.0681978 0.0241959
vn -0.0660965 0.947527 0.312768
v -0.0129476 0.0676716 0.0240484
vn -0.0813661 0.953677 0.289621
v -0.0113663 0.0672213 0.02563
vn -0.0712725 0.938285 0.338439
v -0.0127901 0.0670746 0.0257367
vn -0.0826428 0.922274 0.3776
v -0.0113663 0.066857 0.0265023
vn -0.0714888 0.912663 0.402412
v -0.00978181 0.0669228 0.0266153
vn -0.061347 0.897814 0.436082
v -0.014529 0.0670442 0.0253695
vn -0.111028 0.933504 0.340945
v -0.0118892 0.0683698 0.0215599
vn -0.114602 0.968093 0.22285
v -0.00345648 0.0693766 0.0208852
vn -0.0800684 0.96621 0.245004
v -0.00978181 0.0687441 0.0208852
vn -0.0983411 0.979585 0.175337
v -0.0113663 0.0689566 0.0177221
vn -0.118995 0.991413 0.054218
v -0.0113663 0.0691287 0.0140976
vn -0.0625099 0.329941 -0.94193
v -0.00131128 0.0694474 0.0208852
vn 0.996379 0.0831104 0.0179103
v -0.00131128 0.0689516 0.0224668
vn 0.987913 0.147139 0.0487673
v -0.00345648 0.0688656 0.0224668
vn -0.0452815 0.947803 0.315625
f 1//1 2//2 3//3
f 1//1 3//3 7//7
f 1//1 7//7 17//17
f 1//1 17//17 41//41
f 1//1 41//41 74//74
f 1//1 74//74 73//73
f 1//1 73//73 112//112
f 1//1 112//112 111//111
f 1//1 111//111 115//115
f 1//1 115//115 114//114
f 1//1 114//114 78//78
f 1//1 78//78 77//77
f 1//1 77//77 45//45
f 1//1 45//45 42//42
f 1//1 42//42 18//18
f 1//1 18//18 8//8
f 1//1 8//8 4//4
f 1//1 4//4 2//2
f 2//2 5//5 6//6
f 2//2 6//6 11//11
f 2//2 11//11 29//29
f 2//2 29//29 59//59
f 2//2 59//59 62//62
f 2//2 62//62 60//60
f 2//2 60//60 30//30
f 2//2 30//30 12//12
f 2//2 12//12 7//7
f 2//2 7//7 3//3
f 2//2 4//4 5//5
f 4//4 8//8 21//21
f 4//4 21//21 49//49
f 4//4 49//49 92//92
f 4//4 92//92 91//91
f 4//4 91//91 90//90
f 4//4 90//90 89//89
f 4//4 89//89 88//88
f 4//4 88//88 87//87
f 4//4 87//87 122//122
f 4//4 122//122 145//145
f 4//4 145//145 171//171
f 4//4 171//171 148//148
f 4//4 148//148 147//147
f 4//4 147//147 146//146
f 4//4 146//146 125//125
f 4//4 125//125 93//93
f 4//4 93//93 50//50
f 4//4 50//50 22//22
f 4//4 22//22 9//9
f 4//4 9//9 10//10
f 4//4 10//10 5//5
f 5//5 10//10 22//22
f 5//5 22//22 50//50
f 5//5 50//50 94//94
f 5//5 94//94 129//129
f 5//5 129//129 153//153
f 5//5 153//153 172//172
f 5//5 172//172 173//173
f 5//5 173//173 158//158
f 5//5 158//158 157//157
f 5//5 157//157 156//156
f 5//5 156//156 155//155
f 5//5 155//155 154//154
f 5//5 154//154 131//131
f 5//5 131//131 130//130
f 5//5 130//130 97//97
f 5//5 97//97 96//96
f 5//5 96//96 95//95
f 5//5 95//95 51//51
f 5//5 51//51 23//23
f 5//5 23//23 11//11
f 5//5 11//11 6//6
f 7//7 12//12 13//13
f 7//7 13//13 14//14
f 7//7 14//14 15//15
f 7//7 15//15 16//16
f 7//7 16//16 17//17
f 8//8 18//18 19//19
f 8//8 19//19 20//20
f 8//8 20//20 21//21
f 9//9 22//22 10//10
f 11//11 23//23 24//24
f 11//11 24//24 25//25
f 11//11 25//25 26//26
f 11//11 26//26 27//27
f 11//11 27//27 28//28
f 11//11 28//28 29//29
f 12//12 30//30 13//13
f 13//13 31//31 14//14
f 13//13 30//30 32//32
f 13//13 32//32 63//63
f 13//13 63//63 33//33
f 13//13 33//33 34//34
f 13//13 34//34 35//35
f 13//13 35//35 36//36
f 13//13 36//36 37//37
f 13//13 37//37 31//31
f 14//14 31//31 38//38
f 14//14 38//38 39//39
f 14//14 39//39 15//15
f 15//15 39//39 40//40
f 15//15 40//40 16//16
f 16//16 40//40 38//38
f 16//16 38//38 17//17
f 17//17 38//38 41//41
f 18//18 42//42 19//19
f 19//19 43//43 44//44
f 19//19 44//44 20//20
f 19//19 42//42 45//45
f 19//19 45//45 43//43
f 20//20 44//44 46//46
f 20//20 46//46 47//47
f 20//20 47//47 48//48
f 20//20 48//48 21//21
f 21//21 48//48 49//49
f 23//23 51//51 52//52
f 23//23 52//52 24//24
f 24//24 52//52 53//53
f 24//24 53//53 54//54
f 24//24 54//54 26//26
f 24//24 26//26 25//25
f 26//26 54//54 55//55
f 26//26 55//55 56//56
f 26//26 56//56 27//27
f 27//27 56//56 57//57
f 27//27 57//57 58//58
f 27//27 58//58 32//32
f 27//27 32//32 28//28
f 28//28 32//32 59//59
f 28//28 59//59 29//29
f 30//30 60//60 32//32
f 31//31 61//61 38//38
f 31//31 37//37 61//61
f 32//32 60//60 62//62
f 32//32 62//62 59//59
f 32//32 58//58 63//63
f 33//33 63//63 64//64
f 33//33 64//64 34//34
f 34//34 64//64 65//65
f 34//34 65//65 35//35
f 35//35 65//65 66//66
f 35//35 66//66 37//37
f 35//35 37//37 36//36
f 37//37 66//66 67//67
f 37//37 67//67 68//68
f 37//37 68//68 69//69
f 37//37 69//69 61//61
f 38//38 40//40 39//39
f 38//38 61//61 70//70
f 38//38 70//70 69//69
f 38//38 69//69 71//71
f 38//38 71//71 72//72
f 38//38 72//72 73//73
f 38//38 73//73 74//74
f 38//38 74//74 41//41
f 43//43 75//75 76//76
f 43//43 76//76 44//44
f 43//43 45//45 77//77
f 43//43 77//77 78//78
f 43//43 78//78 79//79
f 43//43 79//79 80//80
f 43//43 80//80 75//75
f 44//44 81//81 46//46
f 44//44 76//76 81//81
f 46//46 81//81 82//82
f 46//46 82//82 83//83
f 46//46 83//83 47//47
f 47//47 83//83 84//84
f 47//47 84//84 48//48
f 48//48 84//84 85//85
f 48//48 85//85 86//86
f 48//48 86//86 87//87
f 48//48 87//87 88//88
f 48//48 88//88 89//89
f 48//48 89//89 90//90
f 48//48 90//90 91//91
f 48//48 91//91 92//92
f 48//48 92//92 49//49
f 50//50 93//93 94//94
f 51//51 95//95 52//52
f 52//52 95//95 53//53
f 53//53 95//95 96//96
f 53//53 96//96 97//97
f 53//53 97//97 98//98
f 53//53 98//98 54//54
f 54//54 98//98 55//55
f 55//55 98//98 99//99
f 55//55 99//99 100//100
f 55//55 100//100 101//101
f 55//55 101//101 102//102
f 55//55 102//102 57//57
f 55//55 57//57 56//56
f 57//57 102//102 103//103
f 57//57 103//103 58//58
f 58//58 103//103 63//63
f 61//61 69//69 70//70
f 63//63 103//103 104//104
f 63//63 104//104 64//64
f 64//64 104//104 65//65
f 65//65 104//104 105//105
f 65//65 105//105 66//66
f 66//66 105//105 68//68
f 66//66 68//68 67//67
f 68//68 105//105 106//106
f 68//68 106//106 69//69
f 69//69 106//106 107//107
f 69//69 107//107 108//108
f 69//69 108//108 109//109
f 69//69 109//109 71//71
f 71//71 80//80 72//72
f 71//71 109//109 108//108
f 71//71 108//108 110//110
f 71//71 110//110 80//80
f 72//72 111//111 112//112
f 72//72 112//112 73//73
f 72//72 80//80 111//111
f 75//75 110//110 76//76
f 75//75 80//80 110//110
f 76//76 110//110 113//113
f 76//76 113//113 81//81
f 78//78 114//114 79//79
f 79//79 114//114 115//115
f 79//79 115//115 111//111
f 79//79 111//111 80//80
f 81//81 113//113 82//82
f 82//82 106//106 116//116
f 82//82 116//116 83//83
f 82//82 113//113 110//110
f 82//82 110//110 117//117
f 82//82 117//117 106//106
f 83//83 116//116 85//85
f 83//83 85//85 84//84
f 85//85 116//116 118//118
f 85//85 118//118 119//119
f 85//85 119//119 120//120
f 85//85 120//120 121//121
f 85//85 121//121 86//86
f 86//86 121//121 87//87
f 87//87 121//121 123//123
f 87//87 123//123 124//124
f 87//87 124//124 122//122
f 93//93 125//125 126//126
f 93//93 126//126 94//94
f 94//94 126//126 127//127
f 94//94 127//127 128//128
f 94//94 128//128 129//129
f 97//97 130//130 98//98
f 98//98 130//130 131//131
f 98//98 131//131 132//132
f 98//98 132//132 99//99
f 99//99 132//132 100//100
f 100//100 132//132 133//133
f 100//100 133//133 134//134
f 100//100 134//134 135//135
f 100//100 135//135 136//136
f 100//100 136//136 137//137
f 100//100 137//137 101//101
f 101//101 137//137 102//102
f 102//102 137//137 103//103
f 103//103 137//137 138//138
f 103//103 138//138 104//104
f 104//104 138//138 137//137
f 104//104 137//137 105//105
f 105//105 137//137 139//139
f 105//105 139//139 106//106
f 106//106 139//139 118//118
f 106//106 118//118 116//116
f 106//106 117//117 107//107
f 107//107 117//117 108//108
f 108//108 117//117 110//110
f 118//118 139//139 140//140
f 118//118 140//140 119//119
f 119//119 140//140 120//120
f 120//120 123//123 121//121
f 120//120 140//140 141//141
f 120//120 141//141 142//142
f 120//120 142//142 124//124
f 120//120 124//124 123//123
f 122//122 124//124 143//143
f 122//122 143//143 144//144
f 122//122 144//144 145//145
f 124//124 142//142 143//143
f 125//125 146//146 126//126
f 126//126 146//146 147//147
f 126//126 147//147 148//148
f 126//126 148//148 127//127
f 127//127 149//149 150//150
f 127//127 150//150 151//151
f 127//127 151//151 152//152
f 127//127 152//152 128//128
f 127//127 148//148 149//149
f 128//128 152//152 129//129
f 129//129 152//152 153//153
f 131//131 154//154 132//132
f 132//132 154//154 155//155
f 132//132 155//155 133//133
f 133//133 155//155 156//156
f 133//133 156//156 157//157
f 133//133 157//157 158//158
f 133//133 158//158 159//159
f 133//133 159//159 134//134
f 134//134 159//159 160//160
f 134//134 160//160 161//161
f 134//134 161//161 162//162
f 134//134 162//162 163//163
f 134//134 163//163 164//164
f 134//134 164//164 165//165
f 134//134 165//165 135//135
f 135//135 165//165 136//136
f 136//136 165//165 164//164
f 136//136 164//164 163//163
f 136//136 163//163 139//139
f 136//136 139//139 137//137
f 139//139 163//163 166//166
f 139//139 166//166 140//140
f 140//140 161//161 167//167
f 140//140 167//167 141//141
f 140//140 166//166 161//161
f 141//141 167//167 161//161
f 141//141 161//161 168//168
f 141//141 168//168 169//169
f 141//141 169//169 150//150
f 141//141 150//150 142//142
f 142//142 150//150 143//143
f 143//143 150//150 170//170
f 143//143 170//170 171//171
f 143//143 171//171 144//144
f 144//144 171//171 145//145
f 148//148 171//171 170//170
f 148//148 170//170 149//149
f 149//149 170//170 150//150
f 150//150 169//169 168//168
f 150//150 168//168 151//151
f 151//151 172//172 152//152
f 151//151 168//168 172//172
f 152//152 172//172 153//153
f 158//158 173//173 159//159
f 159//159 173//173 174//174
f 159//159 174//174 160//160
f 160//160 174//174 168//168
f 160//160 168//168 161//161
f 161//161 166//166 163//163
f 161//161 163//163 162//162
f 168//168 174//174 173//173
f 168//168 173//173 172//172
