# Created by Open3D 
# object name: part_038
# number of vertices: 183
# number of triangles: 362
v 0.0223996 0.0470454 0.0140976
vn -0.680498 -0.516408 0.519851
v 0.044372 0.0409151 -0.00190245
vn 0.191858 -0.582811 -0.789634
v 0.044372 0.0368683 0.0140976
vn 0.287487 -0.693574 0.660535
v 0.0223996 0.0668078 0.0140976
vn -0.0527137 0.00703232 0.998585
v 0.0223996 0.0522726 -0.00190245
vn -0.59977 -0.481292 -0.639245
v 0.044372 0.0572071 -0.00190245
vn 0.574698 0.240571 -0.782207
v 0.044372 0.056153 0.0140976
vn 0.608219 0.00344902 0.793762
v 0.0249743 0.0663455 0.0140976
vn 0.0244344 0.12015 0.992455
v 0.0223996 0.0668386 0.0139582
vn -0.990804 0.132179 0.028902
v 0.0223996 0.0682964 -0.00190245
vn -0.585586 0.00287913 -0.810605
v 0.0430857 0.0581656 -0.00190245
vn 0.0290502 0.039575 -0.998794
v 0.0418597 0.0590841 -0.00125562
vn 0.585433 0.810628 -0.0122772
v 0.0426491 0.0584954 -0.00125562
vn 0.599037 0.800715 0.00318815
v 0.0418554 0.059081 0.000326213
vn 0.586113 0.810052 0.0169254
v 0.0426469 0.0584861 0.000326213
vn 0.605204 0.795923 0.0153283
v 0.044372 0.0571978 -0.00125562
vn 0.995236 0.0974729 0.00187719
v 0.044372 0.0564026 0.0129433
vn 0.998196 0.0591693 0.0101868
v 0.0432514 0.0573673 0.0123497
vn 0.570424 0.806289 0.15657
v 0.0440365 0.0564026 0.0140976
vn 0.0490794 0.0695717 0.996369
v 0.0254734 0.0662283 0.0140976
vn 0.0133366 0.0556242 0.998363
v 0.026594 0.0661667 0.0129762
vn 0.246039 0.960151 0.132573
v 0.0248711 0.066592 0.0128415
vn 0.21796 0.962523 0.161381
v 0.0242516 0.0668232 0.0122245
vn 0.194701 0.970269 0.143768
v 0.0237203 0.0667338 0.0132785
vn 0.177408 0.967497 0.18021
v 0.0223996 0.0668478 0.0139144
vn -0.881221 0.463792 0.0913612
v 0.0223996 0.0683242 -0.00126345
vn -0.998856 0.0477828 -0.0018772
v 0.0234321 0.0680252 -0.00125562
vn 0.283547 0.958473 -0.0305074
v 0.0234321 0.0679944 -0.00190245
vn 0.0148471 0.0496451 -0.998657
v 0.041836 0.0590686 -0.00190245
vn 0.028247 0.0394649 -0.998822
v 0.040825 0.0597837 -0.00190245
vn 0.0424057 0.0604673 -0.997269
v 0.040825 0.0598083 -0.00125562
vn 0.56917 0.822204 -0.00509838
v 0.0399259 0.0604217 -0.00125562
vn 0.529347 0.84821 0.0182019
v 0.040825 0.0597775 0.000326213
vn 0.557409 0.829905 0.023498
v 0.040825 0.0597282 0.00190805
vn 0.555028 0.831379 0.0274479
v 0.0418167 0.0590563 0.00190805
vn 0.579761 0.814223 0.0303031
v 0.0436364 0.057654 0.00348832
vn 0.595768 0.802444 0.0338292
v 0.044372 0.0571023 0.00348832
vn 0.992513 0.122064 0.00419316
v 0.044372 0.0571054 0.00337869
vn 0.992266 0.124098 0.00271818
v 0.044372 0.0566184 0.0113944
vn 0.99764 0.0682672 0.007339
v 0.0441247 0.0568126 0.0113944
vn 0.615391 0.784133 0.0801796
v 0.0433353 0.0574321 0.0113944
vn 0.593437 0.800868 0.0802652
v 0.042406 0.0580885 0.0113944
vn 0.570667 0.814849 0.101787
v 0.0414209 0.0587728 0.0113944
vn 0.562049 0.8187 0.117603
v 0.0385493 0.0605573 0.0125643
vn 0.556477 0.821018 0.127527
v 0.0384159 0.0604618 0.0136184
vn 0.558545 0.814721 0.155749
v 0.0383385 0.0604094 0.0140976
vn 0.0542618 0.0773235 0.995528
v 0.026594 0.0659571 0.0140976
vn 0.014057 0.0554661 0.998362
v 0.026594 0.0663362 0.0113944
vn 0.270033 0.958143 0.0951014
v 0.024798 0.0669773 0.00981254
vn 0.245632 0.963834 0.103386
v 0.0244581 0.0668817 0.0113944
vn 0.228916 0.966792 0.113628
v 0.0270544 0.0658277 0.0140976
vn 0.0299182 0.103039 0.994227
v 0.028175 0.0657136 0.0129762
vn 0.283007 0.950191 0.130556
v 0.0223996 0.0677201 0.00823227
vn -0.986099 0.164966 0.0198899
v 0.0223996 0.0675136 0.00981254
vn -0.995448 0.094435 0.0128864
v 0.0223996 0.0672886 0.0113944
vn -0.995411 0.0945863 0.0145199
v 0.0223996 0.0670359 0.0129245
vn -0.992011 0.124317 0.0214221
v 0.0223996 0.0669157 0.0135604
vn -0.997641 0.067454 0.0127788
v 0.0223996 0.0668848 0.0137217
vn -0.997638 0.0674599 0.0129228
v 0.0223996 0.0683303 -0.00103949
vn -0.995205 0.0977931 -0.0020909
v 0.0234321 0.0680653 0.000326213
vn 0.277981 0.960504 -0.0126033
v 0.0250131 0.0675968 0.000326213
vn 0.304053 0.952618 -0.00842586
v 0.0250131 0.0675506 -0.00125562
vn 0.310707 0.949894 -0.0341019
v 0.0250131 0.0675167 -0.00190245
vn 0.00981678 0.0314064 -0.999458
v 0.0399173 0.0604155 -0.00190245
vn 0.0455981 0.0674618 -0.996679
v 0.0395947 0.0606097 -0.00190245
vn 0.0451663 0.0764631 -0.996049
v 0.0391344 0.0608871 -0.00125562
vn 0.503856 0.863774 0.00477251
v 0.0360799 0.0626285 0.00348832
vn 0.506265 0.862192 0.0178931
v 0.0369425 0.0621138 0.00348832
vn 0.515542 0.856604 0.0211329
v 0.0377341 0.0616329 0.00348832
vn 0.521898 0.852613 0.0259588
v 0.0390569 0.0608655 0.00190805
vn 0.526251 0.849944 0.0255976
v 0.0398485 0.0603724 0.00190805
vn 0.540786 0.840747 0.0263502
v 0.0398098 0.0603477 0.00348832
vn 0.542215 0.839332 0.0390406
v 0.040825 0.0596697 0.00348832
vn 0.559591 0.828054 0.0344172
v 0.0417715 0.0590224 0.00348832
vn 0.576291 0.816516 0.0344968
v 0.0425631 0.058443 0.00348832
vn 0.591245 0.805745 0.0347013
v 0.0416123 0.0589053 0.00889633
vn 0.572511 0.818885 0.0407192
v 0.044372 0.0570283 0.00507016
vn 0.982423 0.186409 0.00986581
v 0.044372 0.0567324 0.00981254
vn 0.999952 0.00974205 0.000689959
v 0.0442086 0.0568649 0.00981254
vn 0.624033 0.779762 0.0505418
v 0.043417 0.0574968 0.00981254
vn 0.607876 0.792515 0.0490493
v 0.042406 0.0582488 0.00981254
vn 0.593012 0.802619 0.0643382
v 0.0415607 0.0588683 0.00981254
vn 0.566246 0.819487 0.0883545
v 0.0406315 0.0593091 0.0113944
vn 0.556811 0.824167 0.103487
v 0.0386654 0.0606343 0.0113944
vn 0.549007 0.830532 0.0938481
v 0.0364929 0.0618456 0.0129762
vn 0.527834 0.841776 0.11316
v 0.0377986 0.0609826 0.0130451
vn 0.546021 0.8256 0.142286
v 0.0367489 0.061485 0.0140976
vn 0.0461236 0.0692822 0.99653
v 0.0375727 0.0609333 0.0140976
vn 0.013367 0.0197537 0.999716
v 0.028175 0.0658739 0.0113944
vn 0.297494 0.951259 0.0812688
v 0.0250131 0.0672362 0.00665043
vn 0.276356 0.956953 0.088706
v 0.0251443 0.0670359 0.00831685
vn 0.259199 0.961026 0.0961524
v 0.0234321 0.0678218 0.00507016
vn 0.245246 0.964385 0.0990715
v 0.0234321 0.0676523 0.00665043
vn 0.231705 0.967155 0.10452
v 0.0234321 0.0674797 0.00823227
vn 0.228623 0.967544 0.107654
v 0.0287795 0.065316 0.0140976
vn 0.00270159 0.00906618 0.999955
v 0.0290655 0.0652698 0.0139144
vn 0.312535 0.933734 0.174538
v 0.0292957 0.065353 0.0129762
vn 0.316264 0.942322 0.109573
v 0.0223996 0.0678958 0.00665043
vn -0.996895 0.0782825 0.0085501
v 0.0223996 0.0683519 0.000326213
vn -0.997132 0.0756834 -0.000103013
v 0.0234321 0.0680653 0.00190805
vn 0.278589 0.960085 0.024983
v 0.0250131 0.0675845 0.00190805
vn 0.312064 0.949547 0.0312673
v 0.0265059 0.0670667 0.00190805
vn 0.331584 0.943023 0.027558
v 0.026493 0.0670821 0.000326213
vn 0.341596 0.939748 -0.0136366
v 0.0264112 0.0670636 -0.00125562
vn 0.358789 0.932705 -0.0365027
v 0.0255422 0.0673348 -0.00190245
vn 0.0228496 0.0656842 -0.997579
v 0.0391279 0.060884 -0.00190245
vn 0.154771 0.271014 -0.950051
v 0.0348152 0.0633836 0.00190805
vn 0.496772 0.867873 -0.00377671
v 0.0360799 0.0626439 0.00190805
vn 0.504946 0.863111 0.00828615
v 0.0347958 0.0633743 0.00348832
vn 0.494791 0.868673 0.0242526
v 0.0347399 0.0633373 0.00507016
vn 0.500192 0.864915 0.0415945
v 0.0369081 0.0620922 0.00465356
vn 0.517197 0.854941 0.0397842
v 0.0390182 0.0608408 0.00348832
vn 0.526858 0.849088 0.0383407
v 0.0387665 0.060696 0.00981254
vn 0.53594 0.843106 0.0440515
v 0.0395581 0.0601844 0.00981254
vn 0.543494 0.837027 0.0632438
v 0.0407691 0.0593953 0.00981254
vn 0.547879 0.833684 0.0692718
v 0.044372 0.0567478 0.00956665
vn 0.999952 0.00979973 0.00061141
v 0.0376631 0.0612847 0.0113944
vn 0.53623 0.840545 0.0770807
v 0.0366263 0.0619319 0.0113944
vn 0.503363 0.862582 0.0507686
v 0.0357035 0.0623048 0.0129762
vn 0.491849 0.865329 0.0963837
v 0.0348496 0.0626439 0.0140976
vn 0.0490386 0.0842364 0.995238
v 0.0355573 0.0622247 0.0140976
vn 0.0288312 0.0481943 0.998422
v 0.0363488 0.061747 0.0140976
vn 0.0621819 0.0976314 0.993278
v 0.0250131 0.0675043 0.00348832
vn 0.311481 0.948052 0.0646359
v 0.0250131 0.067378 0.00507016
vn 0.288576 0.954033 0.0809005
v 0.0295086 0.0654301 0.0113944
vn 0.328408 0.942336 0.0644258
v 0.0234321 0.067979 0.00348832
vn 0.265775 0.960864 0.0781222
v 0.0223996 0.0682317 0.00348832
vn -0.996945 0.0777923 0.00701168
v 0.0223996 0.0680684 0.0050451
vn -0.996889 0.078375 0.00835355
v 0.0289989 0.0652482 0.0140976
vn 0.00286166 0.00900763 0.999955
v 0.0292548 0.065165 0.0140976
vn 0.00322571 0.00887447 0.999955
v 0.0313391 0.0643976 0.0140976
vn 0.0305805 0.078014 0.996483
v 0.0300873 0.0650695 0.0129762
vn 0.348192 0.928708 0.127531
v 0.0223996 0.0683365 0.00190805
vn -0.997135 0.0755755 0.00329085
v 0.0263962 0.0670266 0.00348832
vn 0.331086 0.941885 0.056868
v 0.028175 0.0663917 0.00348832
vn 0.341413 0.938377 0.053718
v 0.0272974 0.0667831 0.00190805
vn 0.341749 0.939502 0.0233301
v 0.028175 0.0664595 0.00190805
vn 0.351189 0.93607 0.0209396
v 0.029756 0.0658585 0.00190805
vn 0.366565 0.930378 -0.00522206
v 0.0272845 0.0667739 0.000326213
vn 0.363415 0.931159 -0.0295279
v 0.0263703 0.0670451 -0.00190245
vn 0.0129228 0.0335972 -0.999352
v 0.028175 0.0664256 0.000326213
vn 0.364445 0.930716 -0.0307861
v 0.029756 0.0658061 0.000326213
vn 0.367882 0.92924 -0.0342813
v 0.0301496 0.0655626 -0.00190245
vn 0.0550805 0.139616 -0.988673
v 0.0383062 0.0613525 -0.00190245
vn 0.126165 0.221487 -0.966967
v 0.0339978 0.0638151 -0.00125562
vn 0.484409 0.874763 -0.0117205
v 0.0340236 0.0638274 0.00190805
vn 0.47955 0.877514 0.000595635
v 0.0340064 0.0638151 0.00348832
vn 0.469985 0.882364 0.0234213
v 0.0339483 0.0637842 0.00507016
vn 0.47356 0.87982 0.0407114
v 0.0346646 0.0632973 0.00665043
vn 0.490837 0.869985 0.04697
v 0.0362305 0.0624651 0.00513594
vn 0.503568 0.862955 0.0415673
v 0.0376631 0.0613833 0.00981254
vn 0.524368 0.850491 0.0412726
v 0.0358347 0.0623696 0.0113944
vn 0.477585 0.876653 0.0582433
v 0.034499 0.0629798 0.0129762
vn 0.483652 0.87082 0.0880521
v 0.033873 0.0637411 0.00665043
vn 0.46188 0.885415 0.052026
v 0.034499 0.0628411 0.0140976
vn 0.0545943 0.0976513 0.993722
v 0.0303002 0.0651434 0.0113944
vn 0.360466 0.930989 0.0576511
v 0.0313391 0.0645763 0.0129762
vn 0.389976 0.914536 0.107437
v 0.0325609 0.0638644 0.0140976
vn 0.041245 0.0907686 0.995018
v 0.029756 0.065803 0.00348832
vn 0.358587 0.93222 0.0488027
v 0.0308401 0.0653654 0.00348832
vn 0.388669 0.920194 0.0466843
v 0.0309025 0.06539 0.00190805
vn 0.394048 0.919086 -0.00274224
v 0.0308509 0.0653654 0.000326213
vn 0.386833 0.921607 -0.0316243
v 0.0307541 0.0653222 -0.00190245
vn 0.0941325 0.230506 -0.968507
v 0.0339827 0.0638058 -0.00190245
vn 0.0211671 0.0378087 -0.999061
v 0.033346 0.0641294 -0.00190245
vn 0.0369405 0.0732911 -0.996626
v 0.0329201 0.0643606 -0.00125562
vn 0.445212 0.895226 -0.0188987
v 0.0329201 0.0644161 0.00190805
vn 0.457553 0.88918 -0.00181927
v 0.0329201 0.0643729 0.00348832
vn 0.444929 0.894791 0.0372469
v 0.0334858 0.0635377 0.0129762
vn 0.474456 0.878078 0.0622071
v 0.0333503 0.0634791 0.0140976
vn 0.113475 0.21086 0.970908
v 0.033645 0.0633158 0.0140976
vn 0.0274493 0.0494195 0.998401
v 0.0316295 0.0650017 0.00348832
vn 0.43304 0.900156 0.0468612
v 0.0327846 0.0640185 0.0113944
vn 0.44289 0.89513 0.0509007
v 0.0313391 0.0647181 0.0113944
vn 0.413428 0.908931 0.0540553
v 0.0326986 0.0639507 0.0129762
vn 0.434253 0.896657 0.086197
v 0.0331202 0.0635962 0.0140976
vn 0.0249134 0.0510485 0.998385
v 0.0316941 0.0650325 0.00190805
vn 0.435578 0.90014 0.00448886
v 0.0316403 0.0650171 0.000326213
vn 0.418247 0.907879 -0.0287245
v 0.0315693 0.0649893 -0.00125562
vn 0.407562 0.912519 -0.034676
v 0.0312208 0.0651188 -0.00190245
vn 0.066906 0.152383 -0.986054
v 0.0329201 0.064339 -0.00190245
vn 0.060788 0.129074 -0.98977
v 0.0321221 0.064712 -0.00190245
vn 0.0562445 0.121546 -0.990991
v 0.0315456 0.0649739 -0.00190245
vn 0.0159478 0.0353291 -0.999248
f 1//1 2//2 3//3
f 1//1 3//3 7//7
f 1//1 7//7 19//19
f 1//1 19//19 46//46
f 1//1 46//46 88//88
f 1//1 88//88 87//87
f 1//1 87//87 122//122
f 1//1 122//122 121//121
f 1//1 121//121 120//120
f 1//1 120//120 155//155
f 1//1 155//155 171//171
f 1//1 171//171 170//170
f 1//1 170//170 176//176
f 1//1 176//176 158//158
f 1//1 158//158 131//131
f 1//1 131//131 130//130
f 1//1 130//130 129//129
f 1//1 129//129 95//95
f 1//1 95//95 51//51
f 1//1 51//51 47//47
f 1//1 47//47 20//20
f 1//1 20//20 8//8
f 1//1 8//8 4//4
f 1//1 4//4 9//9
f 1//1 9//9 25//25
f 1//1 25//25 58//58
f 1//1 58//58 57//57
f 1//1 57//57 56//56
f 1//1 56//56 55//55
f 1//1 55//55 54//54
f 1//1 54//54 53//53
f 1//1 53//53 98//98
f 1//1 98//98 128//128
f 1//1 128//128 127//127
f 1//1 127//127 133//133
f 1//1 133//133 99//99
f 1//1 99//99 59//59
f 1//1 59//59 26//26
f 1//1 26//26 10//10
f 1//1 10//10 5//5
f 1//1 5//5 2//2
f 2//2 5//5 10//10
f 2//2 10//10 28//28
f 2//2 28//28 63//63
f 2//2 63//63 105//105
f 2//2 105//105 140//140
f 2//2 140//140 143//143
f 2//2 143//143 163//163
f 2//2 163//163 180//180
f 2//2 180//180 183//183
f 2//2 183//183 182//182
f 2//2 182//182 181//181
f 2//2 181//181 165//165
f 2//2 165//165 164//164
f 2//2 164//164 144//144
f 2//2 144//144 106//106
f 2//2 106//106 65//65
f 2//2 65//65 64//64
f 2//2 64//64 30//30
f 2//2 30//30 29//29
f 2//2 29//29 11//11
f 2//2 11//11 6//6
f 2//2 6//6 16//16
f 2//2 16//16 38//38
f 2//2 38//38 37//37
f 2//2 37//37 77//77
f 2//2 77//77 116//116
f 2//2 116//116 78//78
f 2//2 78//78 39//39
f 2//2 39//39 17//17
f 2//2 17//17 7//7
f 2//2 7//7 3//3
f 4//4 8//8 9//9
f 6//6 11//11 12//12
f 6//6 12//12 13//13
f 6//6 13//13 14//14
f 6//6 14//14 15//15
f 6//6 15//15 16//16
f 7//7 17//17 18//18
f 7//7 18//18 19//19
f 8//8 20//20 21//21
f 8//8 21//21 22//22
f 8//8 22//22 23//23
f 8//8 23//23 24//24
f 8//8 24//24 25//25
f 8//8 25//25 9//9
f 10//10 26//26 27//27
f 10//10 27//27 28//28
f 11//11 29//29 12//12
f 12//12 29//29 30//30
f 12//12 30//30 31//31
f 12//12 31//31 14//14
f 12//12 14//14 13//13
f 14//14 31//31 32//32
f 14//14 32//32 33//33
f 14//14 33//33 34//34
f 14//14 34//34 35//35
f 14//14 35//35 36//36
f 14//14 36//36 37//37
f 14//14 37//37 38//38
f 14//14 38//38 15//15
f 15//15 38//38 16//16
f 17//17 39//39 18//18
f 18//18 39//39 40//40
f 18//18 40//40 41//41
f 18//18 41//41 42//42
f 18//18 42//42 43//43
f 18//18 43//43 44//44
f 18//18 44//44 45//45
f 18//18 45//45 46//46
f 18//18 46//46 19//19
f 20//20 47//47 21//21
f 21//21 48//48 49//49
f 21//21 49//49 50//50
f 21//21 50//50 23//23
f 21//21 23//23 22//22
f 21//21 47//47 51//51
f 21//21 51//51 52//52
f 21//21 52//52 48//48
f 23//23 50//50 53//53
f 23//23 53//53 54//54
f 23//23 54//54 55//55
f 23//23 55//55 56//56
f 23//23 56//56 24//24
f 24//24 56//56 57//57
f 24//24 57//57 58//58
f 24//24 58//58 25//25
f 26//26 59//59 27//27
f 27//27 59//59 60//60
f 27//27 60//60 61//61
f 27//27 61//61 62//62
f 27//27 62//62 28//28
f 28//28 62//62 63//63
f 30//30 64//64 31//31
f 31//31 64//64 32//32
f 32//32 64//64 65//65
f 32//32 65//65 66//66
f 32//32 66//66 67//67
f 32//32 67//67 68//68
f 32//32 68//68 69//69
f 32//32 69//69 70//70
f 32//32 70//70 71//71
f 32//32 71//71 34//34
f 32//32 34//34 33//33
f 34//34 71//71 72//72
f 34//34 72//72 73//73
f 34//34 73//73 35//35
f 35//35 73//73 74//74
f 35//35 74//74 75//75
f 35//35 75//75 36//36
f 36//36 75//75 76//76
f 36//36 76//76 77//77
f 36//36 77//77 37//37
f 39//39 78//78 79//79
f 39//39 79//79 80//80
f 39//39 80//80 40//40
f 40//40 80//80 41//41
f 41//41 80//80 81//81
f 41//41 81//81 82//82
f 41//41 82//82 42//42
f 42//42 82//82 43//43
f 43//43 82//82 83//83
f 43//43 83//83 44//44
f 44//44 83//83 84//84
f 44//44 84//84 85//85
f 44//44 85//85 86//86
f 44//44 86//86 45//45
f 45//45 86//86 87//87
f 45//45 87//87 88//88
f 45//45 88//88 46//46
f 48//48 52//52 89//89
f 48//48 89//89 90//90
f 48//48 90//90 91//91
f 48//48 91//91 49//49
f 49//49 91//91 92//92
f 49//49 92//92 93//93
f 49//49 93//93 94//94
f 49//49 94//94 50//50
f 50//50 94//94 53//53
f 51//51 95//95 96//96
f 51//51 96//96 52//52
f 52//52 96//96 97//97
f 52//52 97//97 89//89
f 53//53 94//94 98//98
f 59//59 99//99 60//60
f 60//60 99//99 100//100
f 60//60 100//100 61//61
f 61//61 101//101 102//102
f 61//61 102//102 103//103
f 61//61 103//103 62//62
f 61//61 100//100 101//101
f 62//62 103//103 104//104
f 62//62 104//104 105//105
f 62//62 105//105 63//63
f 65//65 106//106 66//66
f 66//66 106//106 107//107
f 66//66 107//107 108//108
f 66//66 108//108 67//67
f 67//67 108//108 107//107
f 67//67 107//107 109//109
f 67//67 109//109 110//110
f 67//67 110//110 111//111
f 67//67 111//111 68//68
f 68//68 111//111 69//69
f 69//69 111//111 112//112
f 69//69 112//112 70//70
f 70//70 112//112 72//72
f 70//70 72//72 71//71
f 72//72 76//76 73//73
f 72//72 112//112 113//113
f 72//72 113//113 76//76
f 73//73 76//76 74//74
f 74//74 76//76 75//75
f 76//76 113//113 114//114
f 76//76 114//114 115//115
f 76//76 115//115 82//82
f 76//76 82//82 81//81
f 76//76 81//81 80//80
f 76//76 80//80 77//77
f 77//77 80//80 79//79
f 77//77 79//79 116//116
f 78//78 116//116 79//79
f 82//82 115//115 84//84
f 82//82 84//84 83//83
f 84//84 117//117 85//85
f 84//84 115//115 114//114
f 84//84 114//114 117//117
f 85//85 118//118 119//119
f 85//85 119//119 120//120
f 85//85 120//120 121//121
f 85//85 121//121 122//122
f 85//85 122//122 86//86
f 85//85 117//117 118//118
f 86//86 122//122 87//87
f 89//89 123//123 124//124
f 89//89 124//124 90//90
f 89//89 97//97 125//125
f 89//89 125//125 123//123
f 90//90 124//124 126//126
f 90//90 126//126 91//91
f 91//91 126//126 92//92
f 92//92 126//126 127//127
f 92//92 127//127 128//128
f 92//92 128//128 93//93
f 93//93 128//128 98//98
f 93//93 98//98 94//94
f 95//95 129//129 96//96
f 96//96 129//129 130//130
f 96//96 130//130 131//131
f 96//96 131//131 132//132
f 96//96 132//132 97//97
f 97//97 132//132 125//125
f 99//99 133//133 100//100
f 100//100 133//133 126//126
f 100//100 126//126 123//123
f 100//100 123//123 101//101
f 101//101 123//123 134//134
f 101//101 134//134 102//102
f 102//102 134//134 135//135
f 102//102 135//135 136//136
f 102//102 136//136 103//103
f 103//103 137//137 138//138
f 103//103 138//138 139//139
f 103//103 139//139 104//104
f 103//103 136//136 137//137
f 104//104 140//140 105//105
f 104//104 139//139 141//141
f 104//104 141//141 142//142
f 104//104 142//142 143//143
f 104//104 143//143 140//140
f 106//106 144//144 107//107
f 107//107 144//144 145//145
f 107//107 145//145 146//146
f 107//107 146//146 109//109
f 109//109 146//146 147//147
f 109//109 147//147 148//148
f 109//109 148//148 110//110
f 110//110 149//149 118//118
f 110//110 118//118 150//150
f 110//110 150//150 111//111
f 110//110 148//148 149//149
f 111//111 150//150 118//118
f 111//111 118//118 151//151
f 111//111 151//151 112//112
f 112//112 151//151 113//113
f 113//113 151//151 118//118
f 113//113 118//118 117//117
f 113//113 117//117 114//114
f 118//118 152//152 153//153
f 118//118 153//153 119//119
f 118//118 149//149 154//154
f 118//118 154//154 152//152
f 119//119 153//153 155//155
f 119//119 155//155 120//120
f 123//123 126//126 124//124
f 123//123 125//125 134//134
f 125//125 132//132 156//156
f 125//125 156//156 135//135
f 125//125 135//135 134//134
f 126//126 133//133 127//127
f 131//131 157//157 132//132
f 131//131 158//158 157//157
f 132//132 157//157 156//156
f 135//135 137//137 136//136
f 135//135 156//156 159//159
f 135//135 159//159 137//137
f 137//137 159//159 138//138
f 138//138 159//159 160//160
f 138//138 160//160 161//161
f 138//138 161//161 162//162
f 138//138 162//162 142//142
f 138//138 142//142 141//141
f 138//138 141//141 139//139
f 142//142 162//162 163//163
f 142//142 163//163 143//143
f 144//144 164//164 145//145
f 145//145 164//164 165//165
f 145//145 165//165 166//166
f 145//145 166//166 167//167
f 145//145 167//167 146//146
f 146//146 167//167 147//147
f 147//147 167//167 168//168
f 147//147 168//168 148//148
f 148//148 154//154 149//149
f 148//148 168//168 154//154
f 152//152 154//154 169//169
f 152//152 169//169 153//153
f 153//153 169//169 170//170
f 153//153 170//170 171//171
f 153//153 171//171 155//155
f 154//154 168//168 172//172
f 154//154 172//172 173//173
f 154//154 173//173 169//169
f 156//156 157//157 174//174
f 156//156 174//174 160//160
f 156//156 160//160 159//159
f 157//157 158//158 175//175
f 157//157 175//175 174//174
f 158//158 176//176 175//175
f 160//160 174//174 172//172
f 160//160 172//172 177//177
f 160//160 177//177 161//161
f 161//161 177//177 178//178
f 161//161 178//178 162//162
f 162//162 178//178 179//179
f 162//162 179//179 180//180
f 162//162 180//180 163//163
f 165//165 181//181 166//166
f 166//166 181//181 178//178
f 166//166 178//178 177//177
f 166//166 177//177 167//167
f 167//167 177//177 168//168
f 168//168 177//177 172//172
f 169//169 173//173 175//175
f 169//169 175//175 170//170
f 170//170 175//175 176//176
f 172//172 174//174 173//173
f 173//173 174//174 175//175
f 178//178 182//182 179//179
f 178//178 181//181 182//182
f 179//179 182//182 183//183
f 179//179 183//183 180//180
