# Created by Open3D 
# object name: part_036
# number of vertices: 155
# number of triangles: 306
v -0.00149753 0.0492825 0.0140976
vn -0.540694 -0.614127 0.57489
v 0.0223996 0.0523132 -0.00224906
vn 0.358806 -0.551135 -0.753331
v 0.0223996 0.0470458 0.0140976
vn 0.481061 -0.655947 0.581647
v -0.00149753 0.0699887 0.0140976
vn -0.992423 0.12156 0.0179002
v -0.00149753 0.055313 -0.00224906
vn -0.426418 -0.54231 -0.723925
v 0.0223996 0.068282 -0.00224906
vn 0.866702 0.0306494 -0.497884
v 0.0223996 0.0668083 0.0140976
vn 0.468792 0.00120706 0.883308
v -0.00144607 0.0699911 0.0140976
vn -0.0145551 0.32742 0.944767
v 0.00129078 0.0708944 0.00665072
vn -0.0330009 0.994217 0.102198
v -0.000290509 0.0708088 0.00665072
vn -0.0558042 0.993429 0.09992
v -0.00149753 0.0708968 0.00506982
vn -0.99695 0.0776765 0.0075592
v -0.00149753 0.0711036 -0.00224906
vn -0.577868 0.0115646 -0.816048
v 0.0218288 0.0684532 -0.00224906
vn 0.0180676 0.0621292 -0.997905
v 0.0223996 0.0683248 -0.0012634
vn 0.999564 0.0295149 -0.00127723
v 0.0223996 0.0668392 0.0139584
vn 0.651306 0.74287 0.154737
v 0.0163739 0.0683058 0.0140976
vn 0.015868 0.0640067 0.997823
v -0.00112326 0.0700054 0.0140976
vn -0.0134981 0.327303 0.944823
v 0.00287207 0.0709181 0.00665072
vn -0.000666138 0.995075 0.0991219
v 0.00129078 0.0710085 0.00506982
vn -0.0118212 0.998614 0.0512909
v -0.000290509 0.0709609 0.00506982
vn -0.0399176 0.996278 0.0763969
v -5.1283e-06 0.0700505 0.0140976
vn -0.00901005 0.326802 0.94505
v 0.00129078 0.0700719 0.0140976
vn -0.00793661 0.543624 0.839291
v -0.00149753 0.0710251 0.00348891
vn -0.852084 0.522891 0.0232034
v -0.00149753 0.0711012 -5.05171e-05
vn -0.969963 0.243253 0.000754344
v 0.00129078 0.0712224 -0.00224906
vn -0.00468212 0.110347 -0.993882
v 0.0202663 0.0689024 -0.00224906
vn 0.0220192 0.0773814 -0.996758
v 0.0223926 0.0683272 -0.0012554
vn 0.274574 0.961075 -0.0307315
v 0.0223996 0.0683296 -0.00103938
vn 0.998805 0.0488667 -0.000826173
v 0.0223996 0.0668867 0.0137216
vn 0.902437 0.422823 0.0826294
v 0.0167458 0.0685102 0.0126719
vn 0.232787 0.953895 0.189461
v 0.0144861 0.0687717 0.0140976
vn 0.0145983 0.0601548 0.998082
v 0.00603465 0.0707304 0.00823162
vn 0.00741127 0.993821 0.110751
v 0.00603465 0.0708825 0.00665072
vn 0.0134807 0.996455 0.0830462
v 0.00603465 0.070999 0.00506982
vn 0.00859191 0.998026 0.0622074
v 0.00287207 0.0710109 0.00506982
vn 0.00200074 0.998379 0.0568773
v 0.00166973 0.0700743 0.0140976
vn 0.00601494 0.810726 0.585394
v 0.00603465 0.071182 0.00190801
vn 0.0047809 0.998487 0.0547803
v 0.00445336 0.0712628 0.000325509
vn -0.0115615 0.998919 0.0450173
v -0.00149753 0.0710893 0.00190801
vn -0.934725 0.355179 0.011671
v -0.00149753 0.0710917 0.00153039
vn -0.980688 0.195575 0.001187
v 0.00287207 0.0712866 -0.0012554
vn -0.0358177 0.999305 0.0103398
v 0.00287207 0.071289 -0.00224906
vn -0.00633928 0.174342 -0.984665
v 0.018685 0.0693493 -0.00224906
vn 0.0501032 0.183293 -0.981781
v 0.0216019 0.0685506 -0.0012554
vn 0.270107 0.962659 -0.0181358
v 0.0223996 0.068351 0.000267905
vn 0.978356 0.206907 -0.00302295
v 0.0223996 0.0670365 0.0129247
vn 0.953161 0.298081 0.0513002
v 0.0178008 0.0683724 0.0120415
vn 0.240479 0.953619 0.181057
v 0.0172066 0.0686243 0.011467
vn 0.243788 0.957099 0.156619
v 0.0155224 0.0690403 0.011395
vn 0.215451 0.963931 0.156261
v 0.0128183 0.0691687 0.0140976
vn 0.0466017 0.197363 0.979222
v 0.00761594 0.0707042 0.00823162
vn 0.0489785 0.993375 0.103956
v 0.00603465 0.0705402 0.00981252
vn 0.0116528 0.992742 0.1197
v 0.00761594 0.0705212 0.00981252
vn 0.0250265 0.992458 0.120003
v 0.00761594 0.0708563 0.00665072
vn 0.0374128 0.995521 0.0868175
v 0.00761594 0.0709728 0.00506982
vn 0.0382254 0.997187 0.0644718
v 0.00287207 0.0700482 0.0140976
vn 0.00383525 0.147298 0.989085
v 0.00761594 0.0703263 0.011395
vn 0.0426615 0.990243 0.132657
v 0.00761594 0.0710631 0.00348891
vn 0.0556702 0.997126 0.0513953
v 0.00603465 0.0712652 0.000325509
vn 0.0227409 0.998962 0.0394638
v 0.00445336 0.071327 -0.0012554
vn -0.0145082 0.999412 0.0310596
v 0.00445336 0.0713199 -0.00224906
vn 0.000352001 0.0780713 -0.996948
v 0.0170195 0.0697914 -0.00224906
vn 0.101364 0.387963 -0.916084
v 0.0223996 0.068351 0.000325509
vn 0.870612 0.491956 0.00381782
v 0.0223996 0.0672884 0.011395
vn 0.921007 0.385013 0.0592538
v 0.0171037 0.0689072 0.00981252
vn 0.244967 0.959591 0.138477
v 0.0155224 0.0692709 0.00981252
vn 0.216798 0.967364 0.13117
v 0.0130358 0.0699531 0.00882206
vn 0.208745 0.9678 0.140673
v 0.0118967 0.0700529 0.00981252
vn 0.189756 0.971864 0.139544
v 0.0122148 0.0697677 0.0112606
vn 0.20232 0.967742 0.15014
v 0.0123575 0.0694658 0.0129759
vn 0.202581 0.966526 0.157445
v 0.0123575 0.0692756 0.0140976
vn 0.0410516 0.201857 0.978554
v 0.00919723 0.070747 0.00665072
vn 0.0784414 0.993466 0.0829031
v 0.00919723 0.0705901 0.00823162
vn 0.0853382 0.989688 0.115041
v 0.00919723 0.0708516 0.00506982
vn 0.086023 0.994496 0.0598109
v 0.00761594 0.0701028 0.0128911
vn 0.0431076 0.987019 0.15471
v 0.006175 0.0699531 0.0140976
vn 0.00170375 0.0571068 0.998367
v 0.00919723 0.0701884 0.011395
vn 0.0909726 0.987785 0.126509
v 0.00919723 0.0700387 0.0125375
vn 0.0926305 0.985881 0.139494
v 0.00761594 0.0711368 0.00190801
vn 0.0595854 0.997372 0.0412191
v 0.00919723 0.0709372 0.00348891
vn 0.089792 0.994677 0.0505508
v 0.00603465 0.0713032 -0.0012554
vn 0.0373429 0.999275 0.00744647
v 0.00761594 0.0711939 0.000325509
vn 0.0662266 0.997492 0.0249849
v 0.00603465 0.0712913 -0.00224906
vn 0.00158503 0.0536163 -0.99856
v 0.0223879 0.0683391 0.00190801
vn 0.24101 0.969842 0.0363374
v 0.0162896 0.0699745 -0.00224906
vn 0.000774752 0.00343923 -0.999994
v 0.016285 0.0699745 -0.00219305
vn 0.223607 0.974071 0.0344387
v 0.0223996 0.0683391 0.00149198
vn 1 0.000727832 7.65214e-06
v 0.0223996 0.0675143 0.00981252
vn 0.937713 0.344176 0.0473108
v 0.0188347 0.0686505 0.00837083
vn 0.252764 0.960001 0.120452
v 0.0171037 0.0691164 0.00823162
vn 0.22922 0.966201 0.117957
v 0.0155224 0.0694729 0.00823162
vn 0.21757 0.968227 0.123291
v 0.0124487 0.0701575 0.00827002
vn 0.19645 0.972952 0.121539
v 0.0107762 0.0704404 0.00823162
vn 0.127087 0.984294 0.122534
v 0.0111013 0.0699174 0.011699
vn 0.164607 0.974962 0.149512
v 0.0107434 0.0695751 0.0140976
vn 0.0188229 0.115045 0.993182
v 0.0107762 0.0705996 0.00665072
vn 0.118068 0.9898 0.079725
v 0.0107762 0.0706995 0.00506982
vn 0.120765 0.991093 0.0561306
v 0.00685571 0.0699293 0.0140976
vn 0.00225149 0.0568678 0.998379
v 0.00761594 0.069896 0.0140976
vn 0.0031767 0.056464 0.9984
v 0.00820776 0.0698532 0.0140976
vn 0.00697407 0.0908206 0.995843
v 0.00919723 0.0699079 0.013328
vn 0.104083 0.980303 0.167845
v 0.0100487 0.0699864 0.0122367
vn 0.123691 0.982171 0.141564
v 0.00919723 0.0710109 0.00190801
vn 0.0887523 0.99526 0.0397458
v 0.0107762 0.0707827 0.00348891
vn 0.116719 0.992032 0.0474332
v 0.00761594 0.0712129 -0.0012554
vn 0.0758614 0.997089 0.00763129
v 0.00761594 0.0712105 -0.00224906
vn 0.00706572 0.1106 -0.99384
v 0.00702647 0.0712438 -0.00224906
vn 0.00279351 0.0546546 -0.998501
v 0.00919723 0.0710584 0.000325509
vn 0.0970547 0.995108 0.0184438
v 0.0171037 0.0696274 0.00190801
vn 0.233113 0.971667 0.0390032
v 0.0171037 0.0695514 0.00348891
vn 0.237005 0.969686 0.0594812
v 0.0223996 0.0682345 0.00348891
vn 0.892412 0.44957 0.0385729
v 0.0223996 0.0683343 0.00190801
vn 1 0.000720035 3.77111e-05
v 0.0155739 0.0701171 -0.00224906
vn 0.051447 0.267492 -0.962186
v 0.0139388 0.0703572 0.000325509
vn 0.193416 0.980584 0.0323418
v 0.0139388 0.0703025 0.00190801
vn 0.196067 0.979907 0.0366167
v 0.0151247 0.0700624 0.00190801
vn 0.201516 0.978722 0.0386664
v 0.0159154 0.069896 0.00190801
vn 0.214515 0.975916 0.0396433
v 0.0223996 0.0677187 0.00823162
vn 0.955232 0.293807 0.0347753
v 0.018685 0.0688858 0.00665072
vn 0.254369 0.961442 0.10453
v 0.0171037 0.069297 0.00665072
vn 0.236334 0.966764 0.0975347
v 0.0133376 0.070022 0.00776919
vn 0.217018 0.970095 0.108713
v 0.0123575 0.0703548 0.00665072
vn 0.186177 0.978536 0.0883459
v 0.0106545 0.0698033 0.0128479
vn 0.136267 0.976837 0.164989
v 0.00959021 0.0697225 0.0140976
vn 0.00446325 0.0349782 0.999378
v 0.0123575 0.0704665 0.00506982
vn 0.176306 0.98244 0.0610592
v 0.0123575 0.0705521 0.00348891
vn 0.166878 0.984918 0.0456972
v 0.00919723 0.0697724 0.0140976
vn 0.00336177 0.0355487 0.999362
v 0.0107762 0.0708516 0.00190801
vn 0.128859 0.991209 0.0300027
v 0.00919723 0.071075 -0.0012554
vn 0.104183 0.994515 0.00921598
v 0.00919723 0.0710822 -0.00224906
vn 0.0107418 0.113427 -0.993488
v 0.00860776 0.0711321 -0.00224906
vn 0.0045498 0.0560515 -0.998418
v 0.0107762 0.0708801 0.000325509
vn 0.129662 0.99148 0.0124926
v 0.015754 0.0698604 0.00348891
vn 0.217759 0.974409 0.055748
v 0.0171037 0.0694373 0.00506982
vn 0.235847 0.968732 0.0770368
v 0.0223996 0.0679564 0.00609868
vn 0.978021 0.207331 0.0221337
v 0.0150709 0.0702122 -0.00224906
vn 0.035539 0.190549 -0.981034
v 0.0123575 0.0706139 0.00190801
vn 0.175571 0.984065 0.0281062
v 0.0139388 0.0702359 0.00348891
vn 0.197572 0.979103 0.0481997
v 0.0149633 0.0700268 0.00348891
vn 0.202382 0.978166 0.0472455
v 0.0223996 0.067897 0.00665072
vn 0.9781 0.206855 0.0230523
v 0.0154195 0.0698223 0.00505542
vn 0.218847 0.971924 0.0864241
v 0.0155224 0.0696512 0.00665072
vn 0.217247 0.971506 0.0947578
v 0.0136019 0.0700791 0.00665072
vn 0.215664 0.971795 0.0954119
v 0.0143926 0.0699032 0.00665072
vn 0.216458 0.971572 0.0958827
v 0.0146195 0.0699531 0.00557385
vn 0.215015 0.972672 0.087623
v 0.0148253 0.0699982 0.00451938
vn 0.207924 0.975797 0.0677391
v 0.0123575 0.0706448 0.000325509
vn 0.155974 0.987608 0.0174072
v 0.0107762 0.0709039 -0.00224906
vn 0.0319632 0.258446 -0.965497
v 0.010189 0.0709704 -0.00224906
vn 0.00648521 0.0574371 -0.998328
v 0.0123575 0.0706686 -0.0012554
vn 0.151429 0.988373 0.0136882
v 0.0123575 0.0706804 -0.00224906
vn 0.0223744 0.151436 -0.988214
v 0.0117703 0.0707636 -0.00224906
vn 0.0212454 0.150357 -0.988403
v 0.0139388 0.0704214 -0.00224906
vn 0.0407107 0.229918 -0.972358
v 0.0139388 0.0703976 -0.0012554
vn 0.181631 0.983085 0.0235566
v 0.0133516 0.0705212 -0.00224906
vn 0.0251585 0.152441 -0.987992
f 1//1 2//2 3//3
f 1//1 3//3 7//7
f 1//1 7//7 16//16
f 1//1 16//16 31//31
f 1//1 31//31 50//50
f 1//1 50//50 71//71
f 1//1 71//71 95//95
f 1//1 95//95 124//124
f 1//1 124//124 127//127
f 1//1 127//127 100//100
f 1//1 100//100 99//99
f 1//1 99//99 98//98
f 1//1 98//98 76//76
f 1//1 76//76 56//56
f 1//1 56//56 36//36
f 1//1 36//36 22//22
f 1//1 22//22 21//21
f 1//1 21//21 17//17
f 1//1 17//17 8//8
f 1//1 8//8 4//4
f 1//1 4//4 11//11
f 1//1 11//11 23//23
f 1//1 23//23 39//39
f 1//1 39//39 40//40
f 1//1 40//40 24//24
f 1//1 24//24 12//12
f 1//1 12//12 5//5
f 1//1 5//5 2//2
f 2//2 5//5 12//12
f 2//2 12//12 25//25
f 2//2 25//25 42//42
f 2//2 42//42 61//61
f 2//2 61//61 83//83
f 2//2 83//83 107//107
f 2//2 107//107 106//106
f 2//2 106//106 131//131
f 2//2 131//131 130//130
f 2//2 130//130 149//149
f 2//2 149//149 148//148
f 2//2 148//148 152//152
f 2//2 152//152 151//151
f 2//2 151//151 155//155
f 2//2 155//155 153//153
f 2//2 153//153 136//136
f 2//2 136//136 113//113
f 2//2 113//113 85//85
f 2//2 85//85 62//62
f 2//2 62//62 43//43
f 2//2 43//43 26//26
f 2//2 26//26 13//13
f 2//2 13//13 6//6
f 2//2 6//6 14//14
f 2//2 14//14 28//28
f 2//2 28//28 45//45
f 2//2 45//45 63//63
f 2//2 63//63 87//87
f 2//2 87//87 112//112
f 2//2 112//112 111//111
f 2//2 111//111 135//135
f 2//2 135//135 140//140
f 2//2 140//140 118//118
f 2//2 118//118 88//88
f 2//2 88//88 64//64
f 2//2 64//64 46//46
f 2//2 46//46 29//29
f 2//2 29//29 15//15
f 2//2 15//15 7//7
f 2//2 7//7 3//3
f 4//4 8//8 9//9
f 4//4 9//9 10//10
f 4//4 10//10 11//11
f 6//6 13//13 14//14
f 7//7 15//15 16//16
f 8//8 17//17 9//9
f 9//9 18//18 19//19
f 9//9 19//19 20//20
f 9//9 20//20 11//11
f 9//9 11//11 10//10
f 9//9 17//17 21//21
f 9//9 21//21 22//22
f 9//9 22//22 18//18
f 11//11 20//20 23//23
f 12//12 24//24 25//25
f 13//13 26//26 27//27
f 13//13 27//27 14//14
f 14//14 27//27 28//28
f 15//15 29//29 30//30
f 15//15 30//30 16//16
f 16//16 30//30 31//31
f 18//18 32//32 33//33
f 18//18 33//33 34//34
f 18//18 34//34 35//35
f 18//18 35//35 19//19
f 18//18 22//22 36//36
f 18//18 36//36 32//32
f 19//19 23//23 20//20
f 19//19 35//35 37//37
f 19//19 37//37 38//38
f 19//19 38//38 23//23
f 23//23 38//38 60//60
f 23//23 60//60 39//39
f 24//24 40//40 41//41
f 24//24 41//41 42//42
f 24//24 42//42 25//25
f 26//26 43//43 44//44
f 26//26 44//44 27//27
f 27//27 44//44 28//28
f 28//28 44//44 45//45
f 29//29 46//46 47//47
f 29//29 47//47 30//30
f 30//30 47//47 48//48
f 30//30 48//48 49//49
f 30//30 49//49 50//50
f 30//30 50//50 31//31
f 32//32 51//51 54//54
f 32//32 54//54 33//33
f 32//32 36//36 52//52
f 32//32 52//52 53//53
f 32//32 53//53 51//51
f 33//33 54//54 55//55
f 33//33 55//55 34//34
f 34//34 55//55 37//37
f 34//34 37//37 35//35
f 36//36 56//56 57//57
f 36//36 57//57 53//53
f 36//36 53//53 52//52
f 37//37 58//58 59//59
f 37//37 59//59 38//38
f 37//37 55//55 58//58
f 38//38 59//59 60//60
f 39//39 60//60 41//41
f 39//39 41//41 40//40
f 41//41 60//60 42//42
f 42//42 60//60 61//61
f 43//43 45//45 44//44
f 43//43 62//62 63//63
f 43//43 63//63 45//45
f 46//46 64//64 48//48
f 46//46 48//48 47//47
f 48//48 65//65 49//49
f 48//48 64//64 65//65
f 49//49 65//65 66//66
f 49//49 66//66 67//67
f 49//49 67//67 68//68
f 49//49 68//68 69//69
f 49//49 69//69 70//70
f 49//49 70//70 71//71
f 49//49 71//71 50//50
f 51//51 72//72 54//54
f 51//51 53//53 73//73
f 51//51 73//73 72//72
f 53//53 57//57 73//73
f 54//54 72//72 55//55
f 55//55 72//72 74//74
f 55//55 74//74 58//58
f 56//56 75//75 57//57
f 56//56 76//76 75//75
f 57//57 77//77 73//73
f 57//57 75//75 78//78
f 57//57 78//78 77//77
f 58//58 79//79 59//59
f 58//58 74//74 80//80
f 58//58 80//80 103//103
f 58//58 103//103 79//79
f 59//59 81//81 60//60
f 59//59 79//79 82//82
f 59//59 82//82 81//81
f 60//60 81//81 61//61
f 61//61 81//81 83//83
f 62//62 84//84 63//63
f 62//62 85//85 86//86
f 62//62 86//86 84//84
f 63//63 84//84 87//87
f 64//64 88//88 65//65
f 65//65 89//89 90//90
f 65//65 90//90 66//66
f 65//65 88//88 89//89
f 66//66 91//91 92//92
f 66//66 92//92 67//67
f 66//66 90//90 91//91
f 67//67 92//92 68//68
f 68//68 92//92 93//93
f 68//68 93//93 94//94
f 68//68 94//94 69//69
f 69//69 94//94 70//70
f 70//70 94//94 71//71
f 71//71 94//94 95//95
f 72//72 73//73 96//96
f 72//72 96//96 74//74
f 73//73 77//77 93//93
f 73//73 93//93 96//96
f 74//74 96//96 97//97
f 74//74 97//97 80//80
f 75//75 76//76 98//98
f 75//75 98//98 99//99
f 75//75 99//99 100//100
f 75//75 100//100 101//101
f 75//75 101//101 78//78
f 77//77 78//78 93//93
f 78//78 102//102 93//93
f 78//78 101//101 102//102
f 79//79 103//103 82//82
f 80//80 97//97 104//104
f 80//80 104//104 103//103
f 81//81 82//82 105//105
f 81//81 105//105 106//106
f 81//81 106//106 107//107
f 81//81 107//107 83//83
f 82//82 103//103 108//108
f 82//82 108//108 105//105
f 84//84 109//109 110//110
f 84//84 110//110 111//111
f 84//84 111//111 112//112
f 84//84 112//112 87//87
f 84//84 86//86 109//109
f 85//85 113//113 86//86
f 86//86 113//113 114//114
f 86//86 114//114 115//115
f 86//86 115//115 116//116
f 86//86 116//116 117//117
f 86//86 117//117 109//109
f 88//88 118//118 89//89
f 89//89 119//119 120//120
f 89//89 120//120 90//90
f 89//89 118//118 119//119
f 90//90 120//120 121//121
f 90//90 121//121 91//91
f 91//91 121//121 92//92
f 92//92 122//122 93//93
f 92//92 121//121 122//122
f 93//93 122//122 96//96
f 93//93 102//102 94//94
f 94//94 123//123 95//95
f 94//94 102//102 123//123
f 95//95 123//123 101//101
f 95//95 101//101 124//124
f 96//96 122//122 125//125
f 96//96 125//125 97//97
f 97//97 125//125 126//126
f 97//97 126//126 104//104
f 100//100 127//127 101//101
f 101//101 127//127 124//124
f 101//101 123//123 102//102
f 103//103 104//104 128//128
f 103//103 128//128 108//108
f 104//104 126//126 128//128
f 105//105 108//108 129//129
f 105//105 129//129 130//130
f 105//105 130//130 131//131
f 105//105 131//131 106//106
f 108//108 128//128 132//132
f 108//108 132//132 129//129
f 109//109 117//117 133//133
f 109//109 133//133 110//110
f 110//110 133//133 134//134
f 110//110 134//134 111//111
f 111//111 134//134 120//120
f 111//111 120//120 119//119
f 111//111 119//119 135//135
f 113//113 136//136 137//137
f 113//113 137//137 114//114
f 114//114 137//137 115//115
f 115//115 137//137 126//126
f 115//115 126//126 138//138
f 115//115 138//138 116//116
f 116//116 138//138 139//139
f 116//116 139//139 133//133
f 116//116 133//133 117//117
f 118//118 140//140 119//119
f 119//119 140//140 135//135
f 120//120 134//134 141//141
f 120//120 141//141 142//142
f 120//120 142//142 121//121
f 121//121 143//143 122//122
f 121//121 142//142 144//144
f 121//121 144//144 143//143
f 122//122 143//143 145//145
f 122//122 145//145 146//146
f 122//122 146//146 125//125
f 125//125 138//138 126//126
f 125//125 146//146 138//138
f 126//126 137//137 128//128
f 128//128 137//137 147//147
f 128//128 147//147 132//132
f 129//129 132//132 148//148
f 129//129 148//148 149//149
f 129//129 149//149 130//130
f 132//132 147//147 150//150
f 132//132 150//150 151//151
f 132//132 151//151 152//152
f 132//132 152//152 148//148
f 133//133 139//139 146//146
f 133//133 146//146 134//134
f 134//134 146//146 141//141
f 136//136 153//153 154//154
f 136//136 154//154 137//137
f 137//137 154//154 153//153
f 137//137 153//153 147//147
f 138//138 146//146 139//139
f 141//141 145//145 142//142
f 141//141 146//146 145//145
f 142//142 145//145 144//144
f 143//143 144//144 145//145
f 147//147 153//153 155//155
f 147//147 155//155 150//150
f 150//150 155//155 151//151
