# Created by Open3D 
# object name: part_037
# number of vertices: 173
# number of triangles: 342
v -0.0380898 -0.0264023 0.0521558
vn -0.454156 -0.428329 -0.781202
v -0.0380898 -0.000152953 0.053464
vn -0.321671 0.774301 -0.544964
v -0.0209853 -0.000152953 0.0611777
vn 0.811345 0.207487 -0.546506
v -0.0209853 -0.0264023 0.0602125
vn 0.763736 -0.301477 -0.570805
v -0.0380898 -0.0264023 0.0679102
vn -0.80802 -0.341583 0.480026
v -0.0380898 -0.000152953 0.0712738
vn -0.980828 0.193649 0.0218362
v -0.0209853 -0.000152953 0.0788359
vn 0.100267 0.994952 0.00402234
v -0.0209853 -0.0264023 0.0750416
vn 0.869253 -0.494229 0.0116727
v -0.0379341 -0.0264023 0.0679873
vn -0.0192554 -0.999058 0.0388996
v -0.0351665 -0.0257779 0.0696385
vn -0.4041 -0.375808 0.833949
v -0.0341017 -0.0247064 0.070625
vn -0.396905 -0.351459 0.847905
v -0.0350728 -0.024154 0.0703671
vn -0.432278 -0.32577 0.840839
v -0.0380898 -0.025783 0.0681575
vn -0.982861 -0.0682413 0.171255
v -0.0380898 -0.00039191 0.0713084
vn -0.979985 0.0184633 0.198211
v -0.0331858 -0.00197982 0.0741269
vn -0.462557 0.074234 0.883476
v -0.0329397 -0.000397049 0.0739913
vn -0.441692 0.151875 0.884218
v -0.0328878 -0.000152953 0.073962
vn -0.0070429 0.999882 0.0136569
v -0.0216852 -0.000152953 0.0786232
vn -0.0807448 0.966005 0.245591
v -0.0209853 -0.00197982 0.0789795
vn 0.999191 0.00312828 0.0400839
v -0.0209853 -0.0218775 0.0767566
vn 0.990798 -0.0478308 0.126619
v -0.0224537 -0.0264023 0.074547
vn -0.0789734 -0.969223 0.233176
v -0.0373163 -0.0264023 0.0682931
vn -0.0190151 -0.999064 0.0388596
v -0.034902 -0.0264023 0.069471
vn -0.0187218 -0.999071 0.0388108
v -0.0335625 -0.0264023 0.0701038
vn -0.03038 -0.997362 0.065924
v -0.0335458 -0.0257342 0.0704203
vn -0.37096 -0.375486 0.849352
v -0.0345387 -0.0236504 0.0708244
vn -0.423656 -0.310815 0.850828
v -0.0318598 -0.0240538 0.0718614
vn -0.362804 -0.368047 0.856104
v -0.0323453 -0.0229258 0.0721273
vn -0.373798 -0.345623 0.860709
v -0.0328058 -0.0218724 0.0723294
vn -0.407816 -0.30736 0.859777
v -0.0376562 -0.0235913 0.0692211
vn -0.444619 -0.298158 0.844639
v -0.0367119 -0.024118 0.0695242
vn -0.441563 -0.317924 0.839015
v -0.0380898 -0.0255081 0.0682665
vn -0.982786 -0.0664189 0.172398
v -0.0355918 -0.0228719 0.0705532
vn -0.441457 -0.292917 0.848125
v -0.0380898 -0.00197982 0.071444
vn -0.918746 0.0284086 0.393826
v -0.0365043 -0.00672299 0.0726618
vn -0.480685 0.0612185 0.874754
v -0.0349874 -0.00817986 0.0735818
vn -0.473498 0.0599067 0.878755
v -0.0344868 -0.00988853 0.0739647
vn -0.428785 0.0368457 0.902655
v -0.0319217 -0.00356002 0.0748022
vn -0.402435 0.0449057 0.914346
v -0.0319217 -0.00197982 0.0747065
vn -0.374177 0.0740728 0.924394
v -0.0319217 -0.000397049 0.0744486
vn -0.403371 0.14859 0.902891
v -0.0316773 -0.000152953 0.0745151
vn -0.0340632 0.996361 0.0781292
v -0.032774 -0.000152953 0.0740152
vn -0.00613575 0.999891 0.0134294
v -0.0222327 -0.000152953 0.0784317
vn -0.0881575 0.963994 0.250887
v -0.0209853 -0.00529439 0.0792294
vn 0.871686 0.0309199 0.489088
v -0.0209853 -0.00373474 0.0791151
vn 0.999192 0.00294974 0.0400839
v -0.0209853 -0.00356002 0.0791018
vn 0.999192 0.00309744 0.0400839
v -0.0209853 -0.0210938 0.0770438
vn 0.999241 -0.012891 0.0367561
v -0.0212164 -0.0213251 0.0768842
vn -0.308811 -0.332422 0.89114
v -0.0237881 -0.0264023 0.0740923
vn -0.195269 -0.811458 0.550823
v -0.0324374 -0.0264023 0.0705931
vn -0.0177103 -0.999004 0.0409463
v -0.0319519 -0.0264023 0.0708005
vn -0.0834439 -0.976494 0.198738
v -0.030738 -0.0245369 0.072122
vn -0.35749 -0.371642 0.856786
v -0.0312905 -0.0234834 0.0723454
vn -0.338767 -0.334151 0.879534
v -0.0318598 -0.0224531 0.0724996
vn -0.345033 -0.313539 0.884673
v -0.0319217 -0.0209551 0.0729941
vn -0.360159 -0.281568 0.889384
v -0.0330837 -0.0209551 0.0724916
vn -0.437411 -0.256281 0.86197
v -0.0350728 -0.0224222 0.0709733
vn -0.444422 -0.279252 0.85118
v -0.0380898 -0.0226458 0.0693141
vn -0.991073 -0.04311 0.126162
v -0.0380898 -0.024005 0.0688355
vn -0.99818 -0.0207065 0.0566338
v -0.0380898 -0.024118 0.068793
vn -0.996039 -0.0314819 0.0831619
v -0.0380898 -0.0223862 0.0694019
vn -0.665808 -0.215683 0.714269
v -0.0380898 -0.00356002 0.0715131
vn -0.998323 0.00179612 0.057865
v -0.0372945 -0.00672299 0.0721699
vn -0.555907 0.0312039 0.830659
v -0.0365444 -0.00830576 0.0727256
vn -0.531589 0.0313561 0.846422
v -0.035277 -0.00988853 0.0735392
vn -0.500997 0.0158116 0.865304
v -0.0344533 -0.0114687 0.0739514
vn -0.465969 -0.0478947 0.883504
v -0.0335039 -0.0114687 0.0743928
vn -0.408878 -0.0581027 0.910738
v -0.0311499 -0.0108084 0.0754537
vn -0.406286 -0.0148288 0.913626
v -0.0311499 -0.0106003 0.0754537
vn -0.397824 0.0206686 0.917229
v -0.0335039 -0.00988853 0.0743954
vn -0.399865 0.0408901 0.915662
v -0.0277159 -0.00988853 0.0769214
vn -0.394305 0.039525 0.918129
v -0.0269257 -0.00988853 0.0772458
vn -0.374321 0.0497664 0.925963
v -0.025598 -0.00988853 0.0777776
vn -0.367623 0.0576086 0.928189
v -0.0224939 -0.000397049 0.0783546
vn -0.365749 0.0639281 0.928516
v -0.022457 -0.000152953 0.078352
vn -0.0770991 0.977484 0.196421
v -0.0240158 -0.000152953 0.0777165
vn -0.0399782 0.994468 0.097133
v -0.0295376 -0.000152953 0.0754377
vn -0.0401376 0.994457 0.0971783
v -0.0298741 -0.000152953 0.0752968
vn -0.0421505 0.994318 0.0977508
v -0.0209853 -0.00684889 0.0793039
vn 0.991374 0.00392953 0.131004
v -0.0231753 -0.00783299 0.0785913
vn -0.354448 0.0610128 0.933083
v -0.0232557 -0.00888902 0.0786205
vn -0.324361 0.0318769 0.945396
v -0.0209853 -0.02086 0.0771235
vn 0.987479 -0.0502094 0.149547
v -0.0223415 -0.02086 0.0766662
vn -0.31267 -0.325715 0.892271
v -0.0251493 -0.0252743 0.0740046
vn -0.333711 -0.33006 0.883005
v -0.0246453 -0.0263278 0.0737972
vn -0.335233 -0.334535 0.880741
v -0.0246035 -0.0264023 0.0737839
vn -0.0555505 -0.988432 0.141127
v -0.0241514 -0.0210938 0.0759376
vn -0.323871 -0.327012 0.88779
v -0.0290118 -0.0264023 0.0720316
vn -0.0457868 -0.992918 0.109626
v -0.0282149 -0.0264023 0.0723613
vn -0.0689784 -0.982455 0.173274
v -0.0253083 -0.020657 0.0756664
vn -0.33491 -0.327563 0.883481
v -0.0257403 -0.0195136 0.0759164
vn -0.344939 -0.299581 0.889533
v -0.031823 -0.0193004 0.0735153
vn -0.398322 -0.242575 0.884589
v -0.027865 -0.0184447 0.0754032
vn -0.356931 -0.275941 0.892444
v -0.0287808 -0.0178666 0.0752091
vn -0.362229 -0.271067 0.891803
v -0.0293199 -0.0166667 0.0753527
vn -0.375539 -0.25985 0.889634
v -0.033586 -0.0193723 0.0726751
vn -0.440444 -0.229507 0.867949
v -0.0380898 -0.0222501 0.0694391
vn -0.939207 -0.088603 0.331721
v -0.0380898 -0.00514279 0.071545
vn -0.999295 4.20669e-05 0.0375504
v -0.0373364 -0.00830576 0.0721858
vn -0.613393 0.00282544 0.789773
v -0.0365277 -0.00988853 0.0727495
vn -0.557238 -0.028997 0.829846
v -0.0352435 -0.0114687 0.0734807
vn -0.535095 -0.0902298 0.839959
v -0.0343511 -0.0123989 0.0738955
vn -0.456425 -0.171399 0.873097
v -0.0287607 -0.0130515 0.0763737
vn -0.396318 -0.0995287 0.912703
v -0.0287607 -0.0114687 0.0764854
vn -0.397116 -0.0346034 0.917116
v -0.0277042 -0.0114687 0.0769214
vn -0.374599 -0.0344308 0.926547
v -0.026914 -0.0114687 0.0772352
vn -0.361985 -0.0475125 0.930972
v -0.025598 -0.0114687 0.0777404
vn -0.334088 -0.0640033 0.940366
v -0.0238768 -0.0098911 0.0783945
vn -0.32769 -0.0302319 0.944301
v -0.0232557 -0.00936694 0.0786205
vn -0.295516 -0.0266156 0.954967
v -0.0209853 -0.00830833 0.0793198
vn 0.985473 0.00109714 0.169828
v -0.0209853 -0.0207238 0.0771687
vn 0.999347 -0.0108914 0.0344502
v -0.0217521 -0.020269 0.0770624
vn -0.301306 -0.29218 0.907659
v -0.0240158 -0.0193749 0.0765971
vn -0.31057 -0.272457 0.910666
v -0.025598 -0.0177921 0.0764934
vn -0.331973 -0.26318 0.905831
v -0.0271785 -0.0162119 0.0763577
vn -0.353918 -0.256843 0.899319
v -0.0296514 -0.0156107 0.0754989
vn -0.423399 -0.208853 0.881541
v -0.0282668 -0.0173887 0.0755627
vn -0.36105 -0.270161 0.892556
v -0.0287808 -0.0161682 0.0757223
vn -0.367624 -0.245877 0.896882
v -0.0335039 -0.0177921 0.0730899
vn -0.43908 -0.2048 0.874795
v -0.0344231 -0.0188456 0.0723587
vn -0.468409 -0.21487 0.856986
v -0.0380898 -0.0209551 0.0697821
vn -0.97903 -0.0517319 0.197037
v -0.0380898 -0.00830576 0.0715184
vn -0.998723 -0.00088591 0.0505067
v -0.0373196 -0.00988853 0.0721645
vn -0.636154 -0.044025 0.770305
v -0.0364406 -0.0114687 0.072691
vn -0.573456 -0.0957673 0.813619
v -0.0362682 -0.0130515 0.0725581
vn -0.546984 -0.151142 0.823386
v -0.0349606 -0.012977 0.0733983
vn -0.525074 -0.167584 0.834393
v -0.0374569 -0.0185809 0.0706995
vn -0.501252 -0.185827 0.845112
v -0.0346425 -0.0177921 0.0724863
vn -0.481753 -0.19832 0.853571
v -0.0338522 -0.0146291 0.0736483
vn -0.443392 -0.199244 0.873902
v -0.029854 -0.0146291 0.0756053
vn -0.424369 -0.177729 0.887876
v -0.0287607 -0.0146291 0.0761211
vn -0.395451 -0.176675 0.901335
v -0.0301353 -0.0130515 0.0757435
vn -0.415026 -0.143842 0.898367
v -0.0271115 -0.0146471 0.0767805
vn -0.361548 -0.179337 0.914943
v -0.0275284 -0.0130515 0.0768656
vn -0.359977 -0.102728 0.927288
v -0.0267382 -0.0130515 0.0771581
vn -0.337265 -0.113232 0.934575
v -0.025598 -0.0130515 0.0775623
vn -0.308898 -0.130112 0.942153
v -0.0240158 -0.0114687 0.0782642
vn -0.289472 -0.107682 0.95111
v -0.0231887 -0.010423 0.0785966
vn -0.286645 -0.0645025 0.955863
v -0.0209853 -0.00988853 0.0792587
vn 0.977783 -0.00882711 0.209433
v -0.0209853 -0.00842909 0.0793172
vn 0.991951 -0.00489654 0.126524
v -0.0209853 -0.0195059 0.0775516
vn 0.990988 -0.0395508 0.12798
v -0.0209853 -0.0193749 0.0775888
vn 0.845387 -0.137781 0.516079
v -0.0251978 -0.0158856 0.0771475
vn -0.298108 -0.239937 0.923884
v -0.0256733 -0.0163327 0.0768683
vn -0.309044 -0.249958 0.917613
v -0.0262526 -0.0151841 0.0769853
vn -0.308425 -0.215477 0.926522
v -0.0334135 -0.0161913 0.0735047
vn -0.434071 -0.20275 0.877767
v -0.0380898 -0.0206904 0.0698486
vn -0.947075 -0.0734795 0.31249
v -0.0380898 -0.00988853 0.0714706
vn -0.999189 -0.00211866 0.0402091
v -0.0372309 -0.0114687 0.0721034
vn -0.627952 -0.108831 0.770605
v -0.0380898 -0.0113839 0.0713562
vn -0.9965 -0.00691721 0.0833113
v -0.0370585 -0.0130515 0.0719811
vn -0.592747 -0.132315 0.794446
v -0.0380898 -0.0192156 0.0701703
vn -0.973692 -0.0400537 0.224318
v -0.0265389 -0.0141307 0.0770783
vn -0.326362 -0.14882 0.933456
v -0.0256733 -0.0146471 0.0772671
vn -0.295603 -0.163157 0.941275
v -0.0240158 -0.0130515 0.0780568
vn -0.283923 -0.145829 0.947693
v -0.021933 -0.0127817 0.0786923
vn -0.271063 -0.129399 0.953824
v -0.0222293 -0.0114687 0.0787748
vn -0.271909 -0.10594 0.956474
v -0.0209853 -0.0114687 0.0791257
vn 0.976546 -0.0210079 0.214279
v -0.0209853 -0.0100401 0.079248
vn 0.992766 -0.0100662 0.119642
v -0.0209853 -0.0179591 0.0779611
vn 0.977321 -0.0537712 0.204824
v -0.0209853 -0.017805 0.078001
vn 0.976926 -0.051067 0.207384
v -0.0209853 -0.016253 0.0783812
vn 0.910113 -0.0921456 0.403984
v -0.0240158 -0.0146291 0.0777856
vn -0.287786 -0.179429 0.940736
v -0.0380898 -0.0114687 0.0713482
vn -0.99884 -0.00631805 0.0477382
v -0.0380898 -0.0130515 0.0711355
vn -0.998799 -0.00727464 0.0484526
v -0.0380898 -0.0178975 0.070383
vn -0.998787 -0.00755939 0.0486652
v -0.0380898 -0.0180156 0.0703644
vn -0.998772 -0.00789394 0.048915
v -0.0224353 -0.0146291 0.0782616
vn -0.283624 -0.170659 0.943628
v -0.0214591 -0.0146291 0.0785541
vn -0.280763 -0.167449 0.945057
v -0.0209853 -0.0146291 0.0786923
vn 0.991409 -0.0195416 0.129332
v -0.0209853 -0.0132031 0.0788971
vn 0.998768 -0.00675783 0.0491665
v -0.0209853 -0.0116306 0.0791045
vn 0.99876 -0.00650624 0.0493475
v -0.0209853 -0.0159267 0.0784477
vn 0.987551 -0.0299871 0.154414
f 1//1 2//2 3//3
f 1//1 3//3 4//4
f 1//1 4//4 8//8
f 1//1 8//8 21//21
f 1//1 21//21 49//49
f 1//1 49//49 86//86
f 1//1 86//86 89//89
f 1//1 89//89 88//88
f 1//1 88//88 51//51
f 1//1 51//51 50//50
f 1//1 50//50 24//24
f 1//1 24//24 23//23
f 1//1 23//23 22//22
f 1//1 22//22 9//9
f 1//1 9//9 5//5
f 1//1 5//5 13//13
f 1//1 13//13 32//32
f 1//1 32//32 60//60
f 1//1 60//60 59//59
f 1//1 59//59 58//58
f 1//1 58//58 61//61
f 1//1 61//61 97//97
f 1//1 97//97 121//121
f 1//1 121//121 147//147
f 1//1 147//147 152//152
f 1//1 152//152 167//167
f 1//1 167//167 166//166
f 1//1 166//166 165//165
f 1//1 165//165 164//164
f 1//1 164//164 150//150
f 1//1 150//150 148//148
f 1//1 148//148 122//122
f 1//1 122//122 98//98
f 1//1 98//98 62//62
f 1//1 62//62 34//34
f 1//1 34//34 14//14
f 1//1 14//14 6//6
f 1//1 6//6 2//2
f 2//2 6//6 17//17
f 2//2 17//17 42//42
f 2//2 42//42 41//41
f 2//2 41//41 78//78
f 2//2 78//78 77//77
f 2//2 77//77 76//76
f 2//2 76//76 75//75
f 2//2 75//75 43//43
f 2//2 43//43 18//18
f 2//2 18//18 7//7
f 2//2 7//7 3//3
f 3//3 7//7 19//19
f 3//3 19//19 46//46
f 3//3 46//46 45//45
f 3//3 45//45 44//44
f 3//3 44//44 79//79
f 3//3 79//79 110//110
f 3//3 110//110 140//140
f 3//3 140//140 139//139
f 3//3 139//139 159//159
f 3//3 159//159 158//158
f 3//3 158//158 172//172
f 3//3 172//172 171//171
f 3//3 171//171 170//170
f 3//3 170//170 173//173
f 3//3 173//173 162//162
f 3//3 162//162 161//161
f 3//3 161//161 160//160
f 3//3 160//160 142//142
f 3//3 142//142 141//141
f 3//3 141//141 111//111
f 3//3 111//111 82//82
f 3//3 82//82 47//47
f 3//3 47//47 20//20
f 3//3 20//20 8//8
f 3//3 8//8 4//4
f 5//5 9//9 10//10
f 5//5 10//10 11//11
f 5//5 11//11 12//12
f 5//5 12//12 13//13
f 6//6 14//14 15//15
f 6//6 15//15 16//16
f 6//6 16//16 17//17
f 7//7 18//18 19//19
f 8//8 20//20 21//21
f 9//9 22//22 10//10
f 10//10 22//22 23//23
f 10//10 23//23 24//24
f 10//10 24//24 25//25
f 10//10 25//25 11//11
f 11//11 26//26 12//12
f 11//11 25//25 27//27
f 11//11 27//27 28//28
f 11//11 28//28 29//29
f 11//11 29//29 26//26
f 12//12 30//30 31//31
f 12//12 31//31 32//32
f 12//12 32//32 13//13
f 12//12 26//26 33//33
f 12//12 33//33 30//30
f 14//14 34//34 15//15
f 15//15 34//34 35//35
f 15//15 35//35 36//36
f 15//15 36//36 37//37
f 15//15 37//37 38//38
f 15//15 38//38 39//39
f 15//15 39//39 16//16
f 16//16 39//39 40//40
f 16//16 40//40 41//41
f 16//16 41//41 42//42
f 16//16 42//42 17//17
f 18//18 43//43 44//44
f 18//18 44//44 45//45
f 18//18 45//45 46//46
f 18//18 46//46 19//19
f 20//20 47//47 48//48
f 20//20 48//48 49//49
f 20//20 49//49 21//21
f 24//24 50//50 25//25
f 25//25 50//50 51//51
f 25//25 51//51 27//27
f 26//26 29//29 33//33
f 27//27 52//52 53//53
f 27//27 53//53 28//28
f 27//27 51//51 52//52
f 28//28 53//53 54//54
f 28//28 54//54 29//29
f 29//29 54//54 55//55
f 29//29 55//55 56//56
f 29//29 56//56 57//57
f 29//29 57//57 33//33
f 30//30 58//58 59//59
f 30//30 59//59 31//31
f 30//30 33//33 58//58
f 31//31 59//59 60//60
f 31//31 60//60 32//32
f 33//33 57//57 61//61
f 33//33 61//61 58//58
f 34//34 62//62 63//63
f 34//34 63//63 64//64
f 34//34 64//64 35//35
f 35//35 64//64 65//65
f 35//35 65//65 36//36
f 36//36 65//65 37//37
f 37//37 65//65 66//66
f 37//37 66//66 67//67
f 37//37 67//67 68//68
f 37//37 68//68 69//69
f 37//37 69//69 70//70
f 37//37 70//70 38//38
f 38//38 70//70 71//71
f 38//38 71//71 39//39
f 39//39 71//71 72//72
f 39//39 72//72 73//73
f 39//39 73//73 74//74
f 39//39 74//74 75//75
f 39//39 75//75 76//76
f 39//39 76//76 77//77
f 39//39 77//77 78//78
f 39//39 78//78 41//41
f 39//39 41//41 40//40
f 43//43 75//75 44//44
f 44//44 75//75 74//74
f 44//44 74//74 80//80
f 44//44 80//80 81//81
f 44//44 81//81 79//79
f 47//47 82//82 83//83
f 47//47 83//83 48//48
f 48//48 83//83 49//49
f 49//49 84//84 85//85
f 49//49 85//85 86//86
f 49//49 83//83 87//87
f 49//49 87//87 84//84
f 51//51 88//88 52//52
f 52//52 88//88 89//89
f 52//52 89//89 53//53
f 53//53 89//89 86//86
f 53//53 86//86 85//85
f 53//53 85//85 84//84
f 53//53 84//84 90//90
f 53//53 90//90 91//91
f 53//53 91//91 54//54
f 54//54 91//91 55//55
f 55//55 92//92 56//56
f 55//55 91//91 93//93
f 55//55 93//93 94//94
f 55//55 94//94 95//95
f 55//55 95//95 92//92
f 56//56 92//92 96//96
f 56//56 96//96 61//61
f 56//56 61//61 57//57
f 61//61 96//96 97//97
f 62//62 98//98 99//99
f 62//62 99//99 63//63
f 63//63 99//99 64//64
f 64//64 99//99 100//100
f 64//64 100//100 65//65
f 65//65 101//101 66//66
f 65//65 100//100 101//101
f 66//66 101//101 102//102
f 66//66 102//102 67//67
f 67//67 103//103 104//104
f 67//67 104//104 68//68
f 67//67 102//102 103//103
f 68//68 104//104 69//69
f 69//69 104//104 71//71
f 69//69 71//71 70//70
f 71//71 105//105 72//72
f 71//71 104//104 105//105
f 72//72 105//105 73//73
f 73//73 105//105 106//106
f 73//73 106//106 107//107
f 73//73 107//107 108//108
f 73//73 108//108 109//109
f 73//73 109//109 81//81
f 73//73 81//81 80//80
f 73//73 80//80 74//74
f 79//79 81//81 110//110
f 81//81 109//109 110//110
f 82//82 111//111 112//112
f 82//82 112//112 83//83
f 83//83 112//112 113//113
f 83//83 113//113 87//87
f 84//84 87//87 90//90
f 87//87 113//113 91//91
f 87//87 91//91 90//90
f 91//91 113//113 114//114
f 91//91 114//114 115//115
f 91//91 115//115 93//93
f 92//92 95//95 116//116
f 92//92 116//116 96//96
f 93//93 115//115 117//117
f 93//93 117//117 94//94
f 94//94 117//117 95//95
f 95//95 117//117 118//118
f 95//95 118//118 116//116
f 96//96 119//119 120//120
f 96//96 120//120 97//97
f 96//96 116//116 119//119
f 97//97 120//120 121//121
f 98//98 122//122 99//99
f 99//99 122//122 123//123
f 99//99 123//123 100//100
f 100//100 123//123 124//124
f 100//100 124//124 101//101
f 101//101 124//124 125//125
f 101//101 125//125 102//102
f 102//102 125//125 126//126
f 102//102 126//126 127//127
f 102//102 127//127 128//128
f 102//102 128//128 129//129
f 102//102 129//129 116//116
f 102//102 116//116 130//130
f 102//102 130//130 131//131
f 102//102 131//131 132//132
f 102//102 132//132 103//103
f 103//103 132//132 131//131
f 103//103 131//131 133//133
f 103//103 133//133 134//134
f 103//103 134//134 105//105
f 103//103 105//105 104//104
f 105//105 134//134 106//106
f 106//106 134//134 107//107
f 107//107 134//134 135//135
f 107//107 135//135 136//136
f 107//107 136//136 137//137
f 107//107 137//137 138//138
f 107//107 138//138 108//108
f 108//108 138//138 109//109
f 109//109 138//138 139//139
f 109//109 139//139 140//140
f 109//109 140//140 110//110
f 111//111 141//141 112//112
f 112//112 141//141 113//113
f 113//113 141//141 142//142
f 113//113 142//142 143//143
f 113//113 143//143 144//144
f 113//113 144//144 114//114
f 114//114 144//144 145//145
f 114//114 145//145 115//115
f 115//115 131//131 118//118
f 115//115 118//118 117//117
f 115//115 145//145 133//133
f 115//115 133//133 131//131
f 116//116 118//118 131//131
f 116//116 131//131 130//130
f 116//116 129//129 146//146
f 116//116 146//146 119//119
f 119//119 146//146 129//129
f 119//119 129//129 120//120
f 120//120 129//129 128//128
f 120//120 128//128 147//147
f 120//120 147//147 121//121
f 122//122 148//148 123//123
f 123//123 149//149 124//124
f 123//123 148//148 150//150
f 123//123 150//150 149//149
f 124//124 149//149 151//151
f 124//124 151//151 125//125
f 125//125 151//151 152//152
f 125//125 152//152 127//127
f 125//125 127//127 126//126
f 127//127 152//152 147//147
f 127//127 147//147 128//128
f 133//133 145//145 153//153
f 133//133 153//153 134//134
f 134//134 153//153 135//135
f 135//135 153//153 136//136
f 136//136 153//153 154//154
f 136//136 154//154 155//155
f 136//136 155//155 137//137
f 137//137 155//155 156//156
f 137//137 156//156 157//157
f 137//137 157//157 138//138
f 138//138 157//157 158//158
f 138//138 158//158 159//159
f 138//138 159//159 139//139
f 142//142 160//160 143//143
f 143//143 160//160 161//161
f 143//143 161//161 162//162
f 143//143 162//162 145//145
f 143//143 145//145 144//144
f 145//145 163//163 154//154
f 145//145 154//154 153//153
f 145//145 162//162 163//163
f 149//149 150//150 164//164
f 149//149 164//164 165//165
f 149//149 165//165 166//166
f 149//149 166//166 167//167
f 149//149 167//167 152//152
f 149//149 152//152 151//151
f 154//154 163//163 155//155
f 155//155 168//168 169//169
f 155//155 169//169 170//170
f 155//155 170//170 156//156
f 155//155 163//163 168//168
f 156//156 171//171 172//172
f 156//156 172//172 158//158
f 156//156 158//158 157//157
f 156//156 170//170 171//171
f 162//162 173//173 163//163
f 163//163 173//173 168//168
f 168//168 173//173 169//169
f 169//169 173//173 170//170
