# Created by Open3D 
# object name: part_017
# number of vertices: 387
# number of triangles: 770
v 0.0534424 -0.0019805 0.0617524
vn -0.999999 -3.26779e-05 0.00104681
v 0.0541136 -0.0019805 0.06102
vn 0.751324 -0.00214761 0.65993
v 0.0534424 -0.0017355 0.0617477
vn 0.733267 0.0204578 0.679633
v 0.0534424 -0.0035632 0.0616917
vn 0.721519 -0.0356959 0.691474
v 0.054084 -0.0035632 0.0610013
vn 0.738493 -0.0348319 0.673361
v 0.0540988 -0.000397794 0.0609966
vn 0.755966 0.0266459 0.654068
v 0.0577406 -0.00672372 0.056812
vn 0.744158 -0.0415269 0.666711
v 0.0577603 -0.00514591 0.0568306
vn 0.753843 -0.00611931 0.657026
v 0.059226 -0.0035632 0.0551372
vn 0.775388 0.00706468 0.631446
v 0.0534424 -0.000397794 0.0616964
vn 0.711991 0.04858 0.700506
v 0.0534424 -0.00830642 0.0614258
vn 0.733747 -0.0421348 0.678115
v 0.0592013 -0.0019805 0.0551092
vn 0.817144 0.0633056 0.572946
v 0.0540766 -7.92906e-05 0.060978
vn 0.012621 0.999866 0.0104224
v 0.0534424 -0.00925703 0.0613465
vn 0.7234 -0.060816 0.687746
v 0.0534424 -0.00988913 0.0612859
vn 0.72313 -0.0934349 0.684363
v 0.0576715 -0.00830642 0.056728
vn 0.747699 -0.0763769 0.659631
v 0.0584635 -0.00830642 0.055795
vn 0.765758 -0.0680575 0.639518
v 0.0585302 -0.00672372 0.0558509
vn 0.776803 -0.0418617 0.628351
v 0.0585524 -0.00514591 0.0558976
vn 0.769158 -0.0230258 0.638644
v 0.0591939 -0.00514591 0.0551092
vn 0.792709 -0.0327744 0.608718
v 0.059865 -0.00672372 0.0540922
vn 0.810375 -0.0353264 0.584846
v 0.0605213 -0.00672372 0.0531685
vn 0.865143 -0.00612361 0.501487
v 0.0605213 -0.00514591 0.0531545
vn 0.859182 0.0209147 0.511243
v 0.0598946 -0.0035632 0.0540922
vn 0.855541 0.0379239 0.516345
v 0.0534449 -7.92906e-05 0.0616498
vn 0.121916 0.984981 0.122267
v 0.0534424 -8.41923e-05 0.0616498
vn -0.999999 0.0013078 0.00016234
v 0.0646098 -7.92906e-05 0.0459608
vn 0.853424 0.0847156 0.514287
v 0.0591199 -0.000833895 0.0550159
vn 0.80716 0.167237 0.566149
v 0.0583796 -7.92906e-05 0.0556317
vn 0.753312 0.259248 0.60441
v 0.0574988 -0.0110112 0.0565414
vn 0.744279 -0.121398 0.656743
v 0.0575802 -0.00988913 0.05663
vn 0.747227 -0.0938113 0.657915
v 0.0534424 -0.0114718 0.0609966
vn -0.120132 -0.216403 0.968885
v 0.0537607 -0.0114718 0.0606467
vn 0.738101 -0.125896 0.66284
v 0.0544689 -0.0114718 0.0598537
vn 0.740589 -0.122686 0.660663
v 0.0584907 -0.00996753 0.0555524
vn 0.759534 -0.0845075 0.644955
v 0.0590582 -0.00949713 0.0549412
vn 0.786414 -0.076413 0.612955
v 0.05911 -0.00830642 0.0550065
vn 0.791953 -0.0510505 0.608444
v 0.0591495 -0.00672372 0.0550625
vn 0.795898 -0.0407412 0.604059
v 0.0597811 -0.00830642 0.0540922
vn 0.8115 -0.0580552 0.581462
v 0.0651526 -7.92906e-05 0.0450417
vn 0.868388 0.013518 0.495701
v 0.0604769 -0.00830642 0.0531031
vn 0.85447 -0.0662756 0.515256
v 0.069769 -0.0130496 0.036971
vn 0.858471 -0.0541061 0.51
v 0.0702329 -0.0130496 0.0361779
vn 0.870807 -0.0212432 0.491166
v 0.0702428 -0.0114718 0.0361965
vn 0.869701 0.00168117 0.493576
v 0.0534424 -7.92906e-05 0.0591306
vn -0.948615 0.316433 2.5304e-07
v 0.0644691 -7.92906e-05 0.0461847
vn 0.484985 0.819021 0.306585
v 0.0639905 -7.92906e-05 0.0469405
vn 0.487087 0.817008 0.308618
v 0.0592136 -7.92906e-05 0.0544794
vn 0.495698 0.808588 0.316968
v 0.0586955 -7.92906e-05 0.0552211
vn 0.638198 0.615921 0.461893
v 0.0590014 -0.0105506 0.0548666
vn 0.79402 -0.129963 0.593837
v 0.0559641 -0.0114718 0.0581742
vn 0.740474 -0.131929 0.659009
v 0.0543603 -0.012687 0.0597324
vn 0.737964 -0.141415 0.659857
v 0.0558802 -0.0123783 0.0580809
vn 0.742914 -0.159053 0.650216
v 0.0573952 -0.0120647 0.0564248
vn 0.746432 -0.158337 0.64635
v 0.0580293 -0.011511 0.055809
vn 0.756445 -0.149132 0.636828
v 0.0534424 -0.0131182 0.0606094
vn -0.618679 -0.181915 0.764293
v 0.0542493 -0.0137405 0.0596064
vn 0.738499 -0.165682 0.653581
v 0.0595196 -0.00996753 0.0542415
vn 0.812807 -0.0812547 0.576838
v 0.0652365 -7.92906e-05 0.0448831
vn 0.882942 0.0569171 0.466019
v 0.0702255 -0.00988913 0.0361779
vn 0.883456 0.0317777 0.467435
v 0.0604029 -0.00988913 0.0529959
vn 0.837473 -0.103773 0.536536
v 0.0676471 -0.0177978 0.0398587
vn 0.853529 -0.0777105 0.515217
v 0.0697148 -0.0146323 0.0368543
vn 0.856012 -0.0713012 0.512015
v 0.0707535 -0.0130496 0.0351189
vn 0.895762 -0.065569 0.439671
v 0.0718515 -0.0114718 0.0330942
vn 0.909186 -0.0137121 0.416164
v 0.0701638 -0.0146323 0.0360613
vn 0.894935 -0.0980346 0.435294
v 0.0718441 -0.00988913 0.0330616
vn 0.89374 0.0260333 0.447829
v 0.0534424 -7.92906e-05 0.037778
vn -0.945248 0.205937 -0.253173
v 0.0589175 -0.0114718 0.0547546
vn 0.779769 -0.157642 0.605895
v 0.0637388 -0.0295088 0.0437821
vn 0.80625 -0.141927 0.574298
v 0.0594875 -0.0114718 0.0539662
vn 0.814874 -0.127038 0.565545
v 0.0576345 -0.016215 0.0551092
vn 0.749587 -0.175301 0.63827
v 0.0579651 -0.0130496 0.0555057
vn 0.756984 -0.156846 0.634331
v 0.0578048 -0.0146323 0.0553051
vn 0.757066 -0.158476 0.633827
v 0.0534424 -0.0138826 0.0604228
vn -0.665595 -0.177926 0.724794
v 0.0534424 -0.0145245 0.0602642
vn -0.695988 -0.177219 0.695841
v 0.0541456 -0.0146323 0.0594898
vn 0.722656 -0.172751 0.669272
v 0.0543529 -0.0189395 0.0581415
vn 0.738302 -0.170637 0.652528
v 0.0655671 -7.92906e-05 0.0442486
vn 0.836194 0.336891 0.432764
v 0.0717257 -0.0035632 0.0328563
vn 0.898162 0.0361269 0.438177
v 0.0657003 -0.0193756 0.0427838
vn 0.842051 -0.102613 0.529548
v 0.0638128 -0.0284553 0.0438941
vn 0.837332 -0.109314 0.535654
v 0.0683182 -0.0177978 0.0386971
vn 0.86793 -0.112307 0.483823
v 0.0665639 -0.019454 0.0413376
vn 0.852726 -0.106388 0.51141
v 0.0673609 -0.019454 0.0399987
vn 0.858213 -0.109559 0.501465
v 0.0717923 -0.0130496 0.0330009
vn 0.900931 -0.0808148 0.426371
v 0.0723302 -0.00988913 0.0319559
vn 0.915843 0.0230775 0.400873
v 0.0777929 -0.016215 0.0196445
vn 0.898211 -0.111097 0.425293
v 0.0781482 -0.016215 0.0188561
vn 0.925389 -0.0180269 0.37859
v 0.0781606 -0.0146323 0.0188234
vn 0.923214 0.0207882 0.383723
v 0.0701046 -0.0155731 0.035954
vn 0.886373 -0.123409 0.44622
v 0.0665664 -7.92906e-05 0.0140976
vn -0.631303 0.424327 -0.649156
v 0.0534424 -0.0380201 0.0322918
vn -0.963795 0.0381362 -0.263904
v 0.0585968 -0.0146323 0.0543348
vn 0.773834 -0.164148 0.611749
v 0.0622781 -0.0300527 0.0455222
vn 0.777369 -0.162393 0.607722
v 0.0605781 -0.0327134 0.0469544
vn 0.758364 -0.179566 0.62661
v 0.0636253 -0.0304447 0.0436282
vn 0.79627 -0.207607 0.568202
v 0.0641385 -0.0304447 0.0428398
vn 0.852245 -0.169654 0.49487
v 0.0656609 -0.0272793 0.041151
vn 0.86988 -0.129063 0.476079
v 0.0657719 -0.0256966 0.0413422
vn 0.85431 -0.112707 0.507397
v 0.0653376 -0.0248734 0.042224
vn 0.84273 -0.111239 0.526719
v 0.0542271 -0.019993 0.0579969
vn 0.734299 -0.194772 0.650284
v 0.0534424 -0.0194834 0.0589953
vn 0.0367801 -0.251481 0.967163
v 0.0661913 -7.92906e-05 0.0430217
vn 0.575008 0.764487 0.29142
v 0.0716887 -0.0025832 0.0327956
vn 0.903017 0.0904498 0.419975
v 0.0770873 -0.00672372 0.0208854
vn 0.919521 0.0319913 0.391738
v 0.0682195 -0.0193756 0.0384778
vn 0.874413 -0.123647 0.469162
v 0.0700256 -0.0166316 0.0357953
vn 0.892315 -0.140127 0.429113
v 0.0703094 -0.0177978 0.0348017
vn 0.892853 -0.146876 0.425724
v 0.0777313 -0.017739 0.0192526
vn 0.893909 -0.151601 0.421833
v 0.0780446 -0.0171755 0.0186928
vn 0.956113 -0.266265 0.122277
v 0.0783432 -0.016215 0.0177224
vn 0.98642 -0.160423 0.0352245
v 0.0784542 -0.0146323 0.0177224
vn 0.988109 0.0662786 0.138738
v 0.0775462 -0.00672372 0.0193039
vn 0.963484 0.0625734 0.260351
v 0.0663345 -0.0272793 0.0398587
vn 0.89138 -0.145654 0.429216
v 0.0764951 -7.92906e-05 0.0140976
vn 0.0407524 0.996576 -0.0719466
v 0.0672326 -0.0193756 0.0140976
vn -0.781329 -0.0275154 -0.623513
v 0.0534424 -0.0384317 0.0322358
vn -0.872374 -0.0225984 -0.488316
v 0.0590705 -0.0329731 0.0486153
vn 0.72942 -0.203818 0.652996
v 0.0595591 -0.0335415 0.0478408
vn 0.73292 -0.251991 0.631925
v 0.0604448 -0.0336052 0.0467818
vn 0.750802 -0.264284 0.605351
v 0.061037 -0.0336052 0.0459888
vn 0.775729 -0.257489 0.576146
v 0.061829 -0.0336052 0.0449158
vn 0.786338 -0.226642 0.574723
v 0.0626235 -0.0320225 0.0444213
vn 0.789369 -0.214243 0.575323
v 0.0623965 -0.0336052 0.0441274
vn 0.79903 -0.231429 0.554971
v 0.0634156 -0.0320225 0.0433063
vn 0.804847 -0.226253 0.548663
v 0.0639386 -0.0320225 0.0425179
vn 0.840886 -0.228235 0.490734
v 0.0654043 -0.0298567 0.0407684
vn 0.866693 -0.203413 0.455484
v 0.0655178 -0.028862 0.0409364
vn 0.867021 -0.154622 0.473673
v 0.0534424 -0.019601 0.0589579
vn 0.570486 -0.254848 0.780768
v 0.0559912 -0.0331691 0.0518575
vn 0.690259 -0.239996 0.682601
v 0.0575235 -0.0331152 0.0502434
vn 0.714654 -0.214583 0.665751
v 0.0667564 -7.92906e-05 0.0419021
vn 0.566416 0.773168 0.285279
v 0.0769836 -0.00514591 0.0208854
vn 0.921987 0.122046 0.367484
v 0.0716196 -0.0015297 0.0326277
vn 0.91454 0.125953 0.384385
v 0.0709682 -7.92906e-05 0.0335374
vn 0.556042 0.783153 0.278369
v 0.0660729 -0.028862 0.0398587
vn 0.892747 -0.165374 0.419111
v 0.0767665 -0.0193756 0.0206568
vn 0.896263 -0.19528 0.398218
v 0.0765642 -0.0205173 0.0203676
vn 0.908373 -0.26241 0.325576
v 0.077223 -0.0193756 0.0193039
vn 0.933469 -0.342744 0.105652
v 0.0780594 -0.0172 0.0177224
vn 0.946663 -0.322145 -0.00715485
v 0.0785257 -0.0146323 0.0145595
vn 0.983528 -0.1765 -0.0389978
v 0.0785726 -0.0146323 0.016141
vn 0.997213 -0.0716554 0.0207572
v 0.0782617 -0.0163326 0.0161176
vn 0.962515 -0.262752 -0.0672748
v 0.0786417 -0.0130496 0.0145595
vn 0.995856 0.0469704 0.0778785
v 0.0785356 -0.0114718 0.0145595
vn 0.990166 0.0878602 0.108864
v 0.0774154 -0.00514591 0.0193039
vn 0.985118 0.14821 0.0870368
v 0.0764803 -7.92906e-05 0.0143449
vn 0.242821 0.969923 0.0169672
v 0.0771835 -0.0035632 0.0140976
vn 0.400691 0.0739312 -0.913226
v 0.0673017 -0.0209583 0.0140976
vn -0.761778 -0.0483903 -0.646029
v 0.0534424 -0.0446744 0.0326417
vn -0.948591 -0.0283626 -0.315232
v 0.0573631 -0.0341687 0.0500615
vn 0.702553 -0.262819 0.66132
v 0.0588855 -0.0340266 0.0484146
vn 0.723645 -0.264399 0.637519
v 0.0593617 -0.0351879 0.0473696
vn 0.732211 -0.275552 0.622846
v 0.0601537 -0.0351879 0.0464086
vn 0.746051 -0.302704 0.593109
v 0.0607607 -0.0351879 0.0456202
vn 0.768542 -0.287886 0.571371
v 0.062246 -0.0345754 0.0439081
vn 0.795924 -0.285401 0.533903
v 0.0638029 -0.0329339 0.0423033
vn 0.855156 -0.2795 0.436563
v 0.0656929 -0.0304055 0.03991
vn 0.876871 -0.239751 0.416674
v 0.0534424 -0.0207966 0.0585567
vn 0.00994322 -0.319383 0.947574
v 0.0537385 -0.0320225 0.0543907
vn 0.659657 -0.260247 0.705071
v 0.0543183 -0.0376624 0.0517642
vn 0.656565 -0.265357 0.706051
v 0.0542369 -0.0421998 0.0501034
vn 0.695935 -0.274084 0.663741
v 0.0542271 -0.0295088 0.0548433
vn 0.679534 -0.236326 0.694539
v 0.0540494 -0.0304447 0.05468
vn 0.656249 -0.254388 0.710369
v 0.0766678 -0.0036269 0.0209088
vn 0.919532 0.203219 0.336398
v 0.0715826 -7.92906e-05 0.0322172
vn 0.638002 0.7298 0.245652
v 0.0715159 -7.92906e-05 0.0323804
vn 0.615189 0.745695 0.255893
v 0.0715406 -0.000397794 0.0324318
vn 0.914647 0.130569 0.382587
v 0.0665244 -0.0303222 0.0381466
vn 0.888705 -0.217061 0.403841
v 0.0666873 -0.028862 0.0385105
vn 0.89452 -0.191794 0.403793
v 0.0698801 -0.0304447 0.030673
vn 0.893888 -0.197928 0.40223
v 0.0702255 -0.0304447 0.0298799
vn 0.902503 -0.242132 0.356174
v 0.0750023 -0.0236778 0.022103
vn 0.908606 -0.31822 0.270503
v 0.07575 -0.022541 0.0208854
vn 0.913326 -0.356782 0.19632
v 0.0706277 -0.0304447 0.0287929
vn 0.908205 -0.297259 0.294621
v 0.0759942 -0.022541 0.0193039
vn 0.924194 -0.379722 0.04094
v 0.0777633 -0.0179938 0.0177224
vn 0.932148 -0.361684 -0.0168972
v 0.0780273 -0.0170971 0.0166308
vn 0.924387 -0.368672 -0.0979246
v 0.0784887 -0.0146323 0.0140976
vn 0.135144 -0.0306961 -0.99035
v 0.0785628 -0.0141717 0.0140976
vn 0.150343 -0.0130516 -0.988548
v 0.0786442 -0.0130496 0.0140976
vn 0.157598 -0.00957604 -0.987457
v 0.0779089 -0.0167835 0.0145595
vn 0.920449 -0.37416 -0.11304
v 0.0782099 -0.0159896 0.0145595
vn 0.940775 -0.322564 -0.104382
v 0.0782642 -0.0155927 0.0140976
vn 0.126262 -0.0297552 -0.991551
v 0.0786491 -0.012589 0.0140976
vn 0.0804096 0.0045266 -0.996752
v 0.0785726 -0.0114718 0.0140976
vn 0.326705 0.0441253 -0.944096
v 0.0774327 -0.00514591 0.0177224
vn 0.98484 0.173242 0.00879181
v 0.0770305 -0.0035632 0.0193039
vn 0.96378 0.248644 0.0964594
v 0.0765247 -0.0024362 0.0204003
vn 0.947867 0.22929 0.221299
v 0.0784937 -0.0110112 0.0140976
vn 0.439303 0.0769689 -0.895035
v 0.0761077 -7.92906e-05 0.0193039
vn 0.180284 0.983466 0.017083
v 0.0674917 -0.0225165 0.0140976
vn -0.636521 -0.135284 -0.759302
v 0.0534424 -0.0451399 0.0327536
vn -0.727805 -0.245708 -0.640256
v 0.0574371 -0.0375693 0.0485639
vn 0.724176 -0.284176 0.628342
v 0.0578812 -0.0351879 0.0490584
vn 0.719036 -0.26692 0.641671
v 0.055747 -0.0420283 0.0484146
vn 0.738663 -0.314641 0.596135
v 0.0574322 -0.04072 0.0469778
vn 0.747835 -0.309534 0.587309
v 0.0589052 -0.040426 0.0452377
vn 0.753723 -0.330056 0.5683
v 0.0606028 -0.0359915 0.0454009
vn 0.754362 -0.309492 0.578923
v 0.0615971 -0.0351389 0.0445052
vn 0.770918 -0.302075 0.560746
v 0.0605731 -0.0390785 0.0437821
vn 0.774259 -0.325398 0.542807
v 0.0621893 -0.037584 0.042252
vn 0.848093 -0.325409 0.418147
v 0.0640176 -0.033517 0.0414122
vn 0.86305 -0.303944 0.403439
v 0.0684515 -0.0325958 0.0326137
vn 0.87248 -0.282455 0.398746
v 0.065535 -0.0317481 0.0394155
vn 0.872978 -0.26489 0.409564
v 0.0534424 -0.0255398 0.0569473
vn -0.947454 -0.104552 0.302323
v 0.0534424 -0.0323116 0.0545587
vn -0.945968 -0.11372 0.303664
v 0.0534424 -0.042925 0.0505606
vn -0.920175 -0.139863 0.365673
v 0.0540469 -0.0430965 0.0498795
vn 0.706334 -0.339129 0.621357
v 0.0534424 -0.031312 0.0549179
vn -0.977278 -0.0705056 0.19989
v 0.0758215 -7.92906e-05 0.0208854
vn 0.411556 0.899484 0.146802
v 0.0734948 -7.92906e-05 0.0272207
vn 0.417682 0.895058 0.156246
v 0.0700923 -0.0312532 0.029614
vn 0.889504 -0.358888 0.282811
v 0.0716467 -0.029597 0.0262037
vn 0.897232 -0.404136 0.177903
v 0.0751158 -0.0241727 0.0207455
vn 0.902899 -0.398339 0.161552
v 0.0759325 -0.022541 0.0177224
vn 0.905373 -0.411424 -0.105022
v 0.0763372 -0.021561 0.0177224
vn 0.92256 -0.375677 -0.0880325
v 0.0772156 -0.0193756 0.0177224
vn 0.927395 -0.370765 -0.0497234
v 0.0748346 -0.0249224 0.0201297
vn 0.884575 -0.456448 0.0958275
v 0.0751948 -0.0242511 0.0194112
vn 0.890137 -0.453598 -0.0436506
v 0.0778793 -0.01671 0.0140976
vn 0.154035 -0.0642661 -0.985973
v 0.078094 -0.0161465 0.0140976
vn 0.0520046 -0.0197209 -0.998452
v 0.076241 -0.0213062 0.016141
vn 0.902176 -0.401474 -0.157789
v 0.0781803 -0.0159161 0.0140976
vn 0.0279192 -0.00858412 -0.999573
v 0.0758906 -7.92906e-05 0.0205682
vn 0.289647 0.955631 0.0536074
v 0.0679333 -0.0240012 0.0140976
vn -0.518133 -0.243557 -0.819889
v 0.0619425 -0.039593 0.0246642
vn -0.518129 -0.340589 -0.784565
v 0.0534449 -0.0461689 0.0332155
vn -0.441768 -0.45258 -0.774605
v 0.0534424 -0.0461689 0.0332202
vn -1 -2.73345e-05 -4.42193e-05
v 0.0682171 -0.0269706 0.0151379
vn -0.530102 -0.326474 -0.782564
v 0.0547082 -0.0430965 0.0490911
vn 0.734401 -0.366051 0.571543
v 0.0561491 -0.0428123 0.0473603
vn 0.743761 -0.379323 0.550393
v 0.0578516 -0.0415138 0.0459421
vn 0.74677 -0.372181 0.551196
v 0.0575704 -0.0425428 0.0455969
vn 0.750908 -0.421511 0.508396
v 0.059263 -0.0411365 0.0441833
vn 0.764627 -0.411817 0.495735
v 0.0603708 -0.0399311 0.0434416
vn 0.775391 -0.40105 0.487778
v 0.060852 -0.0399311 0.0426485
vn 0.801164 -0.383779 0.459183
v 0.0676446 -0.0336052 0.0335374
vn 0.855524 -0.365819 0.366408
v 0.0619598 -0.0386375 0.0417341
vn 0.823908 -0.396831 0.404601
v 0.0621893 -0.0391618 0.0406798
vn 0.845386 -0.411807 0.340201
v 0.0682516 -0.0336395 0.0320352
vn 0.853126 -0.406422 0.327104
v 0.0686513 -0.0331397 0.0315594
vn 0.877579 -0.37902 0.293597
v 0.0534424 -0.0430965 0.0504813
vn -0.996626 -0.0359574 0.0737781
v 0.0534424 -0.0437482 0.0501594
vn -0.991952 -0.0688721 0.106245
v 0.0544318 -0.044106 0.0487739
vn 0.719905 -0.43505 0.540803
v 0.0684046 -0.0341932 0.0306916
vn 0.864835 -0.444659 0.233105
v 0.0702033 -0.0314639 0.0287929
vn 0.881095 -0.428189 0.200811
v 0.0730753 -0.0277399 0.0224669
vn 0.864111 -0.498595 0.068669
v 0.0710323 -0.0304447 0.0272114
vn 0.876225 -0.453694 0.162457
v 0.0703612 -0.0317285 0.0272114
vn 0.870195 -0.480581 0.108637
v 0.0756365 -0.022541 0.016141
vn 0.866862 -0.457218 -0.198749
v 0.0752121 -0.0239277 0.0177224
vn 0.847018 -0.509154 -0.152715
v 0.0748346 -0.0249224 0.0200084
vn 0.852793 -0.519367 -0.0547876
v 0.0731123 -0.027833 0.0208854
vn 0.853703 -0.520751 -0.00315751
v 0.0747951 -0.0248685 0.0189541
vn 0.85146 -0.517552 -0.0845946
v 0.0775733 -0.0174254 0.0140976
vn 0.107536 -0.0465875 -0.993109
v 0.0761003 -0.0208701 0.0145874
vn 0.874948 -0.434524 -0.213671
v 0.0768775 -0.0189591 0.0140976
vn 0.109169 -0.0503343 -0.992748
v 0.077408 -0.0177978 0.0140976
vn 0.10514 -0.047699 -0.993313
v 0.0683108 -0.0245696 0.0140976
vn -0.0772165 -0.0575077 -0.995354
v 0.0624459 -0.0406514 0.0248742
vn -0.343396 -0.531393 -0.774403
v 0.0685526 -0.028029 0.0153712
vn -0.446265 -0.369464 -0.815073
v 0.0666824 -0.0320225 0.0183149
vn -0.503867 -0.347488 -0.790804
v 0.0669192 -0.0328163 0.0185155
vn -0.302416 -0.476282 -0.825651
v 0.0534424 -0.0485209 0.0348436
vn -0.985525 -0.0967771 -0.139195
v 0.0589471 -0.0421949 0.0436982
vn 0.761558 -0.472498 0.443593
v 0.0558407 -0.0438658 0.0469591
vn 0.726759 -0.481489 0.489887
v 0.0572545 -0.0435963 0.0450884
vn 0.737388 -0.501163 0.452874
v 0.0606299 -0.0407788 0.0422939
vn 0.79229 -0.454272 0.407324
v 0.0608001 -0.0410483 0.0414402
vn 0.818357 -0.495564 0.291048
v 0.0653672 -0.0375987 0.0344005
vn 0.827366 -0.487604 0.278762
v 0.067124 -0.0347616 0.0335374
vn 0.846319 -0.423684 0.322856
v 0.0668847 -0.0359131 0.032581
vn 0.837379 -0.494814 0.232283
v 0.0534424 -0.0446793 0.049497
vn -0.997459 -0.0413092 0.0580395
v 0.0534424 -0.0447577 0.049441
vn -0.996954 -0.0554217 0.0548784
v 0.054042 -0.0451595 0.0482187
vn 0.693331 -0.52938 0.488926
v 0.0547526 -0.0446499 0.0477242
vn 0.707844 -0.52549 0.472036
v 0.0685131 -0.0344137 0.0296373
vn 0.839791 -0.527803 0.127184
v 0.0697962 -0.0322528 0.0287929
vn 0.875367 -0.453948 0.166325
v 0.0699072 -0.0325174 0.0272114
vn 0.857984 -0.508437 0.0731835
v 0.0683084 -0.0356485 0.0240484
vn 0.851461 -0.524195 0.0152981
v 0.0750147 -0.023619 0.016141
vn 0.818264 -0.524468 -0.235323
v 0.0752096 -0.0225851 0.0146388
vn 0.844518 -0.479916 -0.237635
v 0.0730605 -0.0277448 0.0193039
vn 0.841483 -0.533898 -0.0828254
v 0.0729371 -0.0275096 0.0177224
vn 0.821267 -0.534247 -0.200253
v 0.0753404 -0.0220608 0.0140976
vn 0.0527605 -0.0279724 -0.998215
v 0.0759523 -0.0208995 0.0140976
vn 0.0239108 -0.0125874 -0.999635
v 0.0761349 -0.0205516 0.0140976
vn 0.0251778 -0.0120058 -0.999611
v 0.0692163 -0.0257015 0.0140976
vn -0.06227 -0.0498473 -0.996814
v 0.0634994 -0.0407543 0.0248135
vn -0.0856709 -0.709145 -0.699838
v 0.0534424 -0.0494617 0.0355061
vn -0.951676 -0.23229 -0.200885
v 0.0645505 -0.038221 0.0227562
vn -0.0400428 -0.610586 -0.790937
v 0.0692287 -0.0257162 0.0140976
vn -0.0285185 -0.0571565 -0.997958
v 0.0691645 -0.0274116 0.0149
vn -0.251684 -0.409353 -0.876975
v 0.0696087 -0.0282985 0.0151939
vn -0.0909937 -0.527996 -0.844358
v 0.0677113 -0.0328212 0.0185109
vn -0.00421022 -0.604792 -0.796372
v 0.0575481 -0.0440374 0.044034
vn 0.741524 -0.545533 0.390559
v 0.0592482 -0.0426114 0.0426438
vn 0.764437 -0.530171 0.366818
v 0.056201 -0.0443167 0.0459048
vn 0.709515 -0.537995 0.455137
v 0.0557741 -0.0453751 0.0452703
vn 0.68959 -0.591363 0.418037
v 0.0566648 -0.0447038 0.0446498
vn 0.71405 -0.565384 0.412886
v 0.0603017 -0.0418372 0.0414402
vn 0.785317 -0.529173 0.321331
v 0.0604991 -0.0421557 0.0403299
vn 0.80581 -0.529265 0.265611
v 0.0654709 -0.0377359 0.0335374
vn 0.810098 -0.562492 0.165358
v 0.0639436 -0.039397 0.0351189
vn 0.802228 -0.552073 0.227257
v 0.0621646 -0.042288 0.0341019
vn 0.758842 -0.634979 0.144777
v 0.0670006 -0.0360895 0.0315267
vn 0.814883 -0.556687 0.161448
v 0.0534424 -0.045527 0.0486479
vn -0.99897 -0.0346478 0.0293011
v 0.0543973 -0.0456103 0.0471644
vn 0.686012 -0.579271 0.440265
v 0.066976 -0.0376428 0.0251214
vn 0.836082 -0.54124 0.0895887
v 0.0682319 -0.0355211 0.0256299
vn 0.849904 -0.520232 0.0837969
v 0.0650095 -0.0402153 0.0272114
vn 0.808614 -0.569498 0.147699
v 0.0655375 -0.0394215 0.0272114
vn 0.83029 -0.546708 0.108303
v 0.066976 -0.0376428 0.0245803
vn 0.787551 -0.607497 -0.103492
v 0.0687204 -0.0347665 0.0224669
vn 0.809659 -0.572779 -0.12797
v 0.0723326 -0.028862 0.0193039
vn 0.82833 -0.55084 -0.102194
v 0.0748691 -0.0233985 0.0152172
vn 0.805965 -0.532469 -0.258643
v 0.0719008 -0.028323 0.016141
vn 0.786467 -0.555311 -0.270367
v 0.0746939 -0.0231437 0.0141629
vn 0.804747 -0.532196 -0.262964
v 0.0751479 -0.0224087 0.0140976
vn 0.0258066 -0.0159569 -0.99954
v 0.0716714 -0.0296607 0.0185015
vn 0.782667 -0.58851 -0.202703
v 0.0720538 -0.0288767 0.0178764
vn 0.797354 -0.555024 -0.237015
v 0.0637931 -0.0407543 0.0248135
vn 0.237319 -0.805952 -0.542329
v 0.0534424 -0.0500938 0.0367004
vn -0.94077 -0.305816 -0.146384
v 0.0685057 -0.0328212 0.0185109
vn 0.188761 -0.662249 -0.725118
v 0.0708744 -0.0264365 0.0140976
vn 0.00631364 -0.0625116 -0.998024
v 0.0708744 -0.028274 0.0151986
vn 0.0949452 -0.589633 -0.802071
v 0.0560751 -0.045723 0.044216
vn 0.6861 -0.616846 0.385704
v 0.0571756 -0.0451448 0.0430217
vn 0.717699 -0.59257 0.365743
v 0.0573927 -0.0454143 0.0421307
vn 0.740031 -0.589863 0.323134
v 0.0577875 -0.044351 0.0430217
vn 0.751909 -0.561127 0.346077
v 0.058846 -0.043665 0.0418181
vn 0.757112 -0.564814 0.328278
v 0.0594406 -0.043121 0.0413516
vn 0.774947 -0.551997 0.307827
v 0.0534424 -0.046948 0.0466745
vn -0.964964 -0.222097 0.139704
v 0.0590606 -0.0439442 0.0407638
vn 0.770108 -0.592836 0.235538
v 0.060657 -0.0423909 0.0392756
vn 0.791713 -0.566465 0.228711
v 0.0625915 -0.0413227 0.0351189
vn 0.797739 -0.560928 0.221297
v 0.0620314 -0.0421165 0.0351189
vn 0.773642 -0.597526 0.210808
v 0.0576024 -0.0456691 0.0410763
vn 0.752568 -0.625709 0.205255
v 0.0570744 -0.0466295 0.0398587
vn 0.743955 -0.645216 0.173859
v 0.0562848 -0.0475164 0.0398587
vn 0.723113 -0.674583 0.148477
v 0.0556631 -0.0484621 0.0382772
vn 0.706807 -0.70023 0.10051
v 0.0642199 -0.0412345 0.0272114
vn 0.696473 -0.716363 0.0418225
v 0.0534424 -0.0462473 0.0477289
vn -0.99937 -0.0288081 0.0207444
v 0.0668575 -0.037486 0.0235259
vn 0.670385 -0.677027 -0.303674
v 0.0686168 -0.0345705 0.0213053
vn 0.754291 -0.614814 -0.230325
v 0.0655893 -0.0394313 0.0256299
vn 0.728196 -0.667069 -0.157324
v 0.0717281 -0.029744 0.0193039
vn 0.818798 -0.562467 -0.114893
v 0.0717109 -0.0281123 0.0153059
vn 0.512327 -0.617469 -0.596869
v 0.0746816 -0.023129 0.0140976
vn 0.138755 -0.0988823 -0.985378
v 0.0702058 -0.0313806 0.0183103
vn 0.720556 -0.625596 -0.299047
v 0.0658064 -0.0379907 0.0227888
vn 0.512906 -0.708416 -0.484843
v 0.0640497 -0.0410483 0.0256299
vn 0.462739 -0.810789 -0.35846
v 0.0537064 -0.0499615 0.0367004
vn 0.519837 -0.836801 -0.171853
v 0.0534424 -0.0501379 0.0372882
vn -0.999511 -0.0312525 0.000337132
v 0.0624237 -0.042582 0.0276639
vn 0.53173 -0.829353 -0.17157
v 0.0683626 -0.0343353 0.020251
vn 0.568717 -0.686729 -0.45273
v 0.0724141 -0.0256231 0.0140976
vn 0.0216728 -0.0390817 -0.999001
v 0.0555693 -0.0467765 0.0433483
vn 0.660696 -0.642927 0.387461
v 0.0558827 -0.0470803 0.0422939
vn 0.655622 -0.675167 0.338097
v 0.0562972 -0.0462522 0.0429004
vn 0.708753 -0.607981 0.35781
v 0.0569387 -0.0462179 0.0415382
vn 0.720625 -0.631774 0.285591
v 0.0534424 -0.047242 0.0461847
vn -0.98941 -0.125133 0.0735511
v 0.0560554 -0.0472518 0.0414402
vn 0.681441 -0.690787 0.241769
v 0.0554731 -0.0483053 0.0398587
vn 0.649348 -0.73235 0.204964
v 0.0546835 -0.0489374 0.0398587
vn 0.595701 -0.784236 0.173534
v 0.054871 -0.0490697 0.0382772
vn 0.590576 -0.799305 0.111044
v 0.0549253 -0.0491726 0.0367004
vn 0.58559 -0.807287 -0.0732889
v 0.0557174 -0.0485013 0.0367004
vn 0.664311 -0.747011 0.0257886
v 0.0648417 -0.0402202 0.0256299
vn 0.712512 -0.678249 -0.179738
v 0.0654733 -0.0392451 0.0245709
vn 0.707834 -0.676998 -0.201603
v 0.0725621 -0.0255006 0.0140976
vn 0.0345933 -0.0366988 -0.998727
v 0.0729495 -0.0251184 0.0140976
vn 0.037127 -0.0362307 -0.998654
v 0.0731789 -0.0248685 0.0140976
vn 0.0402893 -0.035646 -0.998552
v 0.0741807 -0.0237268 0.0140976
vn 0.0410931 -0.0354973 -0.998525
v 0.0534424 -0.0501085 0.0382772
vn -0.997806 -0.0659651 0.00555512
v 0.0534424 -0.047389 0.0459281
vn -0.996616 -0.0714548 0.0406312
v 0.0534424 -0.0480113 0.0448318
vn -0.9968 -0.0703289 0.0379985
v 0.0534424 -0.048614 0.0436608
vn -0.997153 -0.0680074 0.0325738
v 0.0534424 -0.0489766 0.0428164
vn -0.995665 -0.0866736 0.0337561
v 0.0550141 -0.0481289 0.0415288
vn 0.626858 -0.727871 0.277945
v 0.0544565 -0.0487806 0.0410577
vn 0.616772 -0.747029 0.248074
v 0.0534424 -0.049447 0.0414215
vn -0.999215 -0.0380579 0.0110145
v 0.0534424 -0.0498145 0.0400127
vn -0.999806 -0.0191122 0.00470033
v 0.0536003 -0.0497263 0.0398587
vn 0.583043 -0.80094 0.136219
v 0.0534424 -0.0500154 0.0388324
vn -0.99941 -0.0338576 0.00572535
f 1//1 2//2 3//3
f 1//1 3//3 10//10
f 1//1 10//10 26//26
f 1//1 26//26 45//45
f 1//1 45//45 68//68
f 1//1 68//68 93//93
f 1//1 93//93 118//118
f 1//1 118//118 151//151
f 1//1 151//151 194//194
f 1//1 194//194 230//230
f 1//1 230//230 266//266
f 1//1 266//266 292//292
f 1//1 292//292 325//325
f 1//1 325//325 356//356
f 1//1 356//356 377//377
f 1//1 377//377 387//387
f 1//1 387//387 385//385
f 1//1 385//385 384//384
f 1//1 384//384 381//381
f 1//1 381//381 380//380
f 1//1 380//380 379//379
f 1//1 379//379 378//378
f 1//1 378//378 364//364
f 1//1 364//364 335//335
f 1//1 335//335 345//345
f 1//1 345//345 309//309
f 1//1 309//309 276//276
f 1//1 276//276 275//275
f 1//1 275//275 245//245
f 1//1 245//245 244//244
f 1//1 244//244 209//209
f 1//1 209//209 208//208
f 1//1 208//208 211//211
f 1//1 211//211 207//207
f 1//1 207//207 160//160
f 1//1 160//160 130//130
f 1//1 130//130 103//103
f 1//1 103//103 76//76
f 1//1 76//76 75//75
f 1//1 75//75 56//56
f 1//1 56//56 32//32
f 1//1 32//32 15//15
f 1//1 15//15 14//14
f 1//1 14//14 11//11
f 1//1 11//11 4//4
f 1//1 4//4 5//5
f 1//1 5//5 2//2
f 2//2 6//6 3//3
f 2//2 5//5 7//7
f 2//2 7//7 8//8
f 2//2 8//8 9//9
f 2//2 9//9 6//6
f 3//3 6//6 10//10
f 4//4 11//11 5//5
f 5//5 11//11 7//7
f 6//6 9//9 12//12
f 6//6 12//12 13//13
f 6//6 13//13 10//10
f 7//7 11//11 14//14
f 7//7 14//14 15//15
f 7//7 15//15 16//16
f 7//7 16//16 17//17
f 7//7 17//17 18//18
f 7//7 18//18 19//19
f 7//7 19//19 8//8
f 8//8 19//19 9//9
f 9//9 19//19 20//20
f 9//9 20//20 21//21
f 9//9 21//21 22//22
f 9//9 22//22 23//23
f 9//9 23//23 24//24
f 9//9 24//24 12//12
f 10//10 13//13 25//25
f 10//10 25//25 26//26
f 12//12 27//27 28//28
f 12//12 28//28 13//13
f 12//12 24//24 27//27
f 13//13 28//28 29//29
f 13//13 29//29 49//49
f 13//13 49//49 48//48
f 13//13 48//48 47//47
f 13//13 47//47 46//46
f 13//13 46//46 27//27
f 13//13 27//27 40//40
f 13//13 40//40 59//59
f 13//13 59//59 79//79
f 13//13 79//79 104//104
f 13//13 104//104 133//133
f 13//13 133//133 136//136
f 13//13 136//136 168//168
f 13//13 168//168 167//167
f 13//13 167//167 213//213
f 13//13 213//213 212//212
f 13//13 212//212 226//226
f 13//13 226//226 192//192
f 13//13 192//192 148//148
f 13//13 148//148 116//116
f 13//13 116//116 92//92
f 13//13 92//92 68//68
f 13//13 68//68 45//45
f 13//13 45//45 25//25
f 15//15 30//30 31//31
f 15//15 31//31 16//16
f 15//15 32//32 33//33
f 15//15 33//33 34//34
f 15//15 34//34 30//30
f 16//16 31//31 35//35
f 16//16 35//35 17//17
f 17//17 35//35 36//36
f 17//17 36//36 37//37
f 17//17 37//37 18//18
f 18//18 37//37 38//38
f 18//18 38//38 20//20
f 18//18 20//20 19//19
f 20//20 38//38 21//21
f 21//21 38//38 37//37
f 21//21 37//37 39//39
f 21//21 39//39 22//22
f 22//22 40//40 23//23
f 22//22 39//39 41//41
f 22//22 41//41 42//42
f 22//22 42//42 43//43
f 22//22 43//43 44//44
f 22//22 44//44 40//40
f 23//23 40//40 27//27
f 23//23 27//27 24//24
f 25//25 45//45 26//26
f 27//27 46//46 28//28
f 28//28 46//46 47//47
f 28//28 47//47 48//48
f 28//28 48//48 49//49
f 28//28 49//49 29//29
f 30//30 50//50 31//31
f 30//30 34//34 51//51
f 30//30 51//51 52//52
f 30//30 52//52 53//53
f 30//30 53//53 54//54
f 30//30 54//54 55//55
f 30//30 55//55 50//50
f 31//31 50//50 35//35
f 32//32 56//56 57//57
f 32//32 57//57 52//52
f 32//32 52//52 33//33
f 33//33 52//52 34//34
f 34//34 52//52 51//51
f 35//35 50//50 36//36
f 36//36 50//50 58//58
f 36//36 58//58 39//39
f 36//36 39//39 37//37
f 39//39 58//58 41//41
f 40//40 44//44 60//60
f 40//40 60//60 59//59
f 41//41 58//58 61//61
f 41//41 61//61 62//62
f 41//41 62//62 63//63
f 41//41 63//63 42//42
f 42//42 63//63 43//43
f 43//43 64//64 65//65
f 43//43 65//65 44//44
f 43//43 63//63 66//66
f 43//43 66//66 64//64
f 44//44 65//65 67//67
f 44//44 67//67 60//60
f 50//50 61//61 58//58
f 50//50 55//55 69//69
f 50//50 69//69 70//70
f 50//50 70//70 71//71
f 50//50 71//71 61//61
f 52//52 57//57 53//53
f 53//53 57//57 72//72
f 53//53 72//72 54//54
f 54//54 73//73 55//55
f 54//54 72//72 74//74
f 54//54 74//74 73//73
f 55//55 73//73 69//69
f 56//56 75//75 57//57
f 57//57 75//75 76//76
f 57//57 76//76 77//77
f 57//57 77//77 78//78
f 57//57 78//78 72//72
f 59//59 60//60 80//80
f 59//59 80//80 79//79
f 60//60 67//67 80//80
f 61//61 81//81 62//62
f 61//61 71//71 70//70
f 61//61 70//70 82//82
f 61//61 82//82 81//81
f 62//62 83//83 63//63
f 62//62 81//81 84//84
f 62//62 84//84 85//85
f 62//62 85//85 83//83
f 63//63 83//83 66//66
f 64//64 86//86 65//65
f 64//64 66//66 86//86
f 65//65 87//87 67//67
f 65//65 86//86 88//88
f 65//65 88//88 89//89
f 65//65 89//89 90//90
f 65//65 90//90 87//87
f 66//66 83//83 91//91
f 66//66 91//91 88//88
f 66//66 88//88 86//86
f 67//67 87//87 80//80
f 68//68 92//92 93//93
f 69//69 73//73 74//74
f 69//69 74//74 72//72
f 69//69 72//72 94//94
f 69//69 94//94 95//95
f 69//69 95//95 70//70
f 70//70 95//95 96//96
f 70//70 96//96 97//97
f 70//70 97//97 98//98
f 70//70 98//98 99//99
f 70//70 99//99 100//100
f 70//70 100//100 101//101
f 70//70 101//101 82//82
f 72//72 78//78 102//102
f 72//72 102//102 96//96
f 72//72 96//96 94//94
f 76//76 103//103 77//77
f 77//77 103//103 78//78
f 78//78 103//103 102//102
f 79//79 80//80 105//105
f 79//79 105//105 104//104
f 80//80 106//106 105//105
f 80//80 87//87 106//106
f 81//81 82//82 101//101
f 81//81 101//101 100//100
f 81//81 100//100 84//84
f 83//83 107//107 91//91
f 83//83 85//85 100//100
f 83//83 100//100 99//99
f 83//83 99//99 107//107
f 84//84 100//100 85//85
f 87//87 90//90 106//106
f 88//88 91//91 108//108
f 88//88 108//108 109//109
f 88//88 109//109 110//110
f 88//88 110//110 89//89
f 89//89 110//110 111//111
f 89//89 111//111 112//112
f 89//89 112//112 113//113
f 89//89 113//113 90//90
f 90//90 113//113 114//114
f 90//90 114//114 106//106
f 91//91 107//107 99//99
f 91//91 99//99 115//115
f 91//91 115//115 108//108
f 92//92 116//116 149//149
f 92//92 149//149 191//191
f 92//92 191//191 187//187
f 92//92 187//187 186//186
f 92//92 186//186 182//182
f 92//92 182//182 181//181
f 92//92 181//181 180//180
f 92//92 180//180 185//185
f 92//92 185//185 225//225
f 92//92 225//225 223//223
f 92//92 223//223 222//222
f 92//92 222//222 257//257
f 92//92 257//257 260//260
f 92//92 260//260 259//259
f 92//92 259//259 289//289
f 92//92 289//289 288//288
f 92//92 288//288 287//287
f 92//92 287//287 321//321
f 92//92 321//321 351//351
f 92//92 351//351 376//376
f 92//92 376//376 375//375
f 92//92 375//375 374//374
f 92//92 374//374 373//373
f 92//92 373//373 359//359
f 92//92 359//359 327//327
f 92//92 327//327 294//294
f 92//92 294//294 290//290
f 92//92 290//290 261//261
f 92//92 261//261 227//227
f 92//92 227//227 193//193
f 92//92 193//193 150//150
f 92//92 150//150 117//117
f 92//92 117//117 118//118
f 92//92 118//118 93//93
f 94//94 96//96 95//95
f 96//96 102//102 119//119
f 96//96 119//119 120//120
f 96//96 120//120 121//121
f 96//96 121//121 122//122
f 96//96 122//122 123//123
f 96//96 123//123 124//124
f 96//96 124//124 97//97
f 97//97 124//124 125//125
f 97//97 125//125 126//126
f 97//97 126//126 127//127
f 97//97 127//127 98//98
f 98//98 128//128 129//129
f 98//98 129//129 99//99
f 98//98 127//127 128//128
f 99//99 129//129 115//115
f 102//102 103//103 130//130
f 102//102 130//130 131//131
f 102//102 131//131 132//132
f 102//102 132//132 119//119
f 104//104 105//105 133//133
f 105//105 106//106 134//134
f 105//105 134//134 135//135
f 105//105 135//135 136//136
f 105//105 136//136 133//133
f 106//106 114//114 134//134
f 108//108 115//115 109//109
f 109//109 115//115 110//110
f 110//110 115//115 137//137
f 110//110 137//137 138//138
f 110//110 138//138 139//139
f 110//110 139//139 140//140
f 110//110 140//140 111//111
f 111//111 141//141 112//112
f 111//111 140//140 141//141
f 112//112 142//142 143//143
f 112//112 143//143 113//113
f 112//112 141//141 144//144
f 112//112 144//144 142//142
f 113//113 143//143 145//145
f 113//113 145//145 146//146
f 113//113 146//146 147//147
f 113//113 147//147 114//114
f 114//114 147//147 134//134
f 115//115 129//129 137//137
f 116//116 148//148 147//147
f 116//116 147//147 149//149
f 117//117 150//150 118//118
f 118//118 150//150 151//151
f 119//119 132//132 152//152
f 119//119 152//152 153//153
f 119//119 153//153 120//120
f 120//120 153//153 154//154
f 120//120 154//154 121//121
f 121//121 154//154 155//155
f 121//121 155//155 156//156
f 121//121 156//156 122//122
f 122//122 156//156 157//157
f 122//122 157//157 123//123
f 123//123 125//125 124//124
f 123//123 157//157 125//125
f 125//125 127//127 126//126
f 125//125 157//157 127//127
f 127//127 157//157 158//158
f 127//127 158//158 159//159
f 127//127 159//159 128//128
f 128//128 159//159 137//137
f 128//128 137//137 129//129
f 130//130 160//160 131//131
f 131//131 161//161 162//162
f 131//131 162//162 163//163
f 131//131 163//163 152//152
f 131//131 152//152 132//132
f 131//131 160//160 164//164
f 131//131 164//164 165//165
f 131//131 165//165 161//161
f 134//134 147//147 166//166
f 134//134 166//166 167//167
f 134//134 167//167 168//168
f 134//134 168//168 169//169
f 134//134 169//169 135//135
f 135//135 169//169 136//136
f 136//136 169//169 168//168
f 137//137 159//159 170//170
f 137//137 170//170 171//171
f 137//137 171//171 138//138
f 138//138 171//171 172//172
f 138//138 172//172 173//173
f 138//138 173//173 139//139
f 139//139 174//174 175//175
f 139//139 175//175 140//140
f 139//139 173//173 176//176
f 139//139 176//176 174//174
f 140//140 175//175 177//177
f 140//140 177//177 178//178
f 140//140 178//178 141//141
f 141//141 179//179 144//144
f 141//141 178//178 179//179
f 142//142 180//180 181//181
f 142//142 181//181 143//143
f 142//142 144//144 180//180
f 143//143 181//181 182//182
f 143//143 182//182 145//145
f 144//144 179//179 183//183
f 144//144 183//183 184//184
f 144//144 184//184 185//185
f 144//144 185//185 180//180
f 145//145 182//182 186//186
f 145//145 186//186 146//146
f 146//146 186//186 187//187
f 146//146 187//187 147//147
f 147//147 188//188 149//149
f 147//147 148//148 189//189
f 147//147 189//189 190//190
f 147//147 190//190 166//166
f 147//147 187//187 191//191
f 147//147 191//191 188//188
f 148//148 192//192 189//189
f 149//149 188//188 191//191
f 150//150 193//193 151//151
f 151//151 193//193 194//194
f 152//152 195//195 196//196
f 152//152 196//196 153//153
f 152//152 163//163 195//195
f 153//153 196//196 195//195
f 153//153 195//195 154//154
f 154//154 195//195 155//155
f 155//155 195//195 197//197
f 155//155 197//197 198//198
f 155//155 198//198 199//199
f 155//155 199//199 200//200
f 155//155 200//200 156//156
f 156//156 201//201 157//157
f 156//156 200//200 202//202
f 156//156 202//202 201//201
f 157//157 203//203 158//158
f 157//157 201//201 202//202
f 157//157 202//202 203//203
f 158//158 203//203 204//204
f 158//158 204//204 205//205
f 158//158 205//205 206//206
f 158//158 206//206 159//159
f 159//159 206//206 205//205
f 159//159 205//205 170//170
f 160//160 207//207 164//164
f 161//161 208//208 162//162
f 161//161 165//165 208//208
f 162//162 208//208 209//209
f 162//162 209//209 163//163
f 163//163 209//209 210//210
f 163//163 210//210 197//197
f 163//163 197//197 195//195
f 164//164 207//207 165//165
f 165//165 207//207 211//211
f 165//165 211//211 208//208
f 166//166 190//190 212//212
f 166//166 212//212 213//213
f 166//166 213//213 167//167
f 170//170 205//205 172//172
f 170//170 172//172 171//171
f 172//172 205//205 173//173
f 173//173 205//205 214//214
f 173//173 214//214 176//176
f 174//174 176//176 215//215
f 174//174 215//215 175//175
f 175//175 215//215 216//216
f 175//175 216//216 177//177
f 176//176 214//214 215//215
f 177//177 217//217 218//218
f 177//177 218//218 219//219
f 177//177 219//219 178//178
f 177//177 216//216 220//220
f 177//177 220//220 221//221
f 177//177 221//221 217//217
f 178//178 219//219 179//179
f 179//179 219//219 218//218
f 179//179 218//218 183//183
f 183//183 222//222 223//223
f 183//183 223//223 184//184
f 183//183 218//218 217//217
f 183//183 217//217 224//224
f 183//183 224//224 222//222
f 184//184 223//223 225//225
f 184//184 225//225 185//185
f 189//189 192//192 226//226
f 189//189 226//226 190//190
f 190//190 226//226 212//212
f 193//193 227//227 194//194
f 194//194 228//228 229//229
f 194//194 229//229 230//230
f 194//194 227//227 231//231
f 194//194 231//231 228//228
f 197//197 210//210 232//232
f 197//197 232//232 233//233
f 197//197 233//233 234//234
f 197//197 234//234 199//199
f 197//197 199//199 198//198
f 199//199 202//202 200//200
f 199//199 234//234 235//235
f 199//199 235//235 236//236
f 199//199 236//236 202//202
f 202//202 236//236 237//237
f 202//202 237//237 238//238
f 202//202 238//238 203//203
f 203//203 239//239 205//205
f 203//203 205//205 204//204
f 203//203 238//238 240//240
f 203//203 240//240 241//241
f 203//203 241//241 239//239
f 205//205 239//239 242//242
f 205//205 242//242 243//243
f 205//205 243//243 214//214
f 209//209 244//244 210//210
f 210//210 244//244 245//245
f 210//210 245//245 246//246
f 210//210 246//246 232//232
f 214//214 243//243 247//247
f 214//214 247//247 248//248
f 214//214 248//248 215//215
f 215//215 249//249 220//220
f 215//215 220//220 216//216
f 215//215 248//248 250//250
f 215//215 250//250 251//251
f 215//215 251//251 249//249
f 217//217 252//252 224//224
f 217//217 221//221 253//253
f 217//217 253//253 252//252
f 220//220 254//254 221//221
f 220//220 249//249 255//255
f 220//220 255//255 254//254
f 221//221 254//254 256//256
f 221//221 256//256 253//253
f 222//222 224//224 257//257
f 224//224 252//252 258//258
f 224//224 258//258 259//259
f 224//224 259//259 260//260
f 224//224 260//260 257//257
f 227//227 261//261 231//231
f 228//228 262//262 229//229
f 228//228 231//231 263//263
f 228//228 263//263 264//264
f 228//228 264//264 265//265
f 228//228 265//265 262//262
f 229//229 266//266 230//230
f 229//229 262//262 266//266
f 231//231 261//261 263//263
f 232//232 246//246 233//233
f 233//233 235//235 234//234
f 233//233 246//246 235//235
f 235//235 267//267 236//236
f 235//235 246//246 268//268
f 235//235 268//268 269//269
f 235//235 269//269 267//267
f 236//236 267//267 270//270
f 236//236 270//270 237//237
f 237//237 270//270 238//238
f 238//238 270//270 240//240
f 239//239 241//241 242//242
f 240//240 270//270 241//241
f 241//241 270//270 271//271
f 241//241 271//271 272//272
f 241//241 272//272 273//273
f 241//241 273//273 242//242
f 242//242 247//247 243//243
f 242//242 273//273 272//272
f 242//242 272//272 274//274
f 242//242 274//274 247//247
f 245//245 275//275 246//246
f 246//246 275//275 276//276
f 246//246 276//276 277//277
f 246//246 277//277 278//278
f 246//246 278//278 268//268
f 247//247 279//279 248//248
f 247//247 274//274 279//279
f 248//248 279//279 280//280
f 248//248 280//280 250//250
f 249//249 251//251 281//281
f 249//249 281//281 282//282
f 249//249 282//282 255//255
f 250//250 280//280 279//279
f 250//250 279//279 251//251
f 251//251 279//279 281//281
f 252//252 253//253 283//283
f 252//252 283//283 284//284
f 252//252 284//284 258//258
f 253//253 256//256 285//285
f 253//253 285//285 286//286
f 253//253 286//286 283//283
f 254//254 255//255 285//285
f 254//254 285//285 256//256
f 255//255 282//282 285//285
f 258//258 284//284 287//287
f 258//258 287//287 288//288
f 258//258 288//288 289//289
f 258//258 289//289 259//259
f 261//261 290//290 263//263
f 262//262 291//291 292//292
f 262//262 292//292 266//266
f 262//262 265//265 293//293
f 262//262 293//293 291//291
f 263//263 290//290 294//294
f 263//263 294//294 295//295
f 263//263 295//295 296//296
f 263//263 296//296 265//265
f 263//263 265//265 264//264
f 265//265 297//297 293//293
f 265//265 296//296 297//297
f 267//267 269//269 298//298
f 267//267 298//298 299//299
f 267//267 299//299 270//270
f 268//268 278//278 300//300
f 268//268 300//300 269//269
f 269//269 300//300 301//301
f 269//269 301//301 302//302
f 269//269 302//302 298//298
f 270//270 299//299 303//303
f 270//270 303//303 271//271
f 271//271 303//303 304//304
f 271//271 304//304 272//272
f 272//272 305//305 274//274
f 272//272 304//304 306//306
f 272//272 306//306 307//307
f 272//272 307//307 305//305
f 274//274 305//305 308//308
f 274//274 308//308 279//279
f 276//276 309//309 277//277
f 277//277 309//309 310//310
f 277//277 310//310 278//278
f 278//278 310//310 300//300
f 279//279 311//311 312//312
f 279//279 312//312 281//281
f 279//279 308//308 313//313
f 279//279 313//313 314//314
f 279//279 314//314 311//311
f 281//281 312//312 282//282
f 282//282 312//312 311//311
f 282//282 311//311 315//315
f 282//282 315//315 316//316
f 282//282 316//316 317//317
f 282//282 317//317 285//285
f 283//283 318//318 284//284
f 283//283 286//286 319//319
f 283//283 319//319 318//318
f 284//284 318//318 320//320
f 284//284 320//320 321//321
f 284//284 321//321 287//287
f 285//285 317//317 286//286
f 286//286 317//317 322//322
f 286//286 322//322 323//323
f 286//286 323//323 319//319
f 291//291 324//324 292//292
f 291//291 293//293 324//324
f 292//292 324//324 325//325
f 293//293 297//297 326//326
f 293//293 326//326 324//324
f 294//294 327//327 296//296
f 294//294 296//296 295//295
f 296//296 327//327 328//328
f 296//296 328//328 326//326
f 296//296 326//326 297//297
f 298//298 302//302 329//329
f 298//298 329//329 330//330
f 298//298 330//330 331//331
f 298//298 331//331 332//332
f 298//298 332//332 299//299
f 299//299 332//332 333//333
f 299//299 333//333 334//334
f 299//299 334//334 303//303
f 300//300 310//310 301//301
f 301//301 310//310 335//335
f 301//301 335//335 329//329
f 301//301 329//329 302//302
f 303//303 334//334 304//304
f 304//304 334//334 336//336
f 304//304 336//336 337//337
f 304//304 337//337 306//306
f 305//305 307//307 313//313
f 305//305 313//313 308//308
f 306//306 337//337 338//338
f 306//306 338//338 307//307
f 307//307 338//338 339//339
f 307//307 339//339 340//340
f 307//307 340//340 341//341
f 307//307 341//341 342//342
f 307//307 342//342 343//343
f 307//307 343//343 344//344
f 307//307 344//344 313//313
f 309//309 345//345 310//310
f 310//310 345//345 335//335
f 311//311 314//314 313//313
f 311//311 313//313 315//315
f 313//313 344//344 315//315
f 315//315 346//346 347//347
f 315//315 347//347 316//316
f 315//315 344//344 348//348
f 315//315 348//348 346//346
f 316//316 347//347 322//322
f 316//316 322//322 349//349
f 316//316 349//349 317//317
f 317//317 349//349 322//322
f 318//318 319//319 320//320
f 319//319 350//350 351//351
f 319//319 351//351 320//320
f 319//319 323//323 322//322
f 319//319 322//322 352//352
f 319//319 352//352 350//350
f 320//320 351//351 321//321
f 322//322 347//347 352//352
f 324//324 326//326 353//353
f 324//324 353//353 354//354
f 324//324 354//354 325//325
f 325//325 355//355 356//356
f 325//325 354//354 357//357
f 325//325 357//357 355//355
f 326//326 328//328 350//350
f 326//326 350//350 358//358
f 326//326 358//358 353//353
f 327//327 359//359 350//350
f 327//327 350//350 328//328
f 329//329 335//335 360//360
f 329//329 360//360 361//361
f 329//329 361//361 362//362
f 329//329 362//362 330//330
f 330//330 362//362 331//331
f 331//331 340//340 336//336
f 331//331 336//336 333//333
f 331//331 333//333 332//332
f 331//331 362//362 361//361
f 331//331 361//361 363//363
f 331//331 363//363 340//340
f 333//333 336//336 334//334
f 335//335 364//364 360//360
f 336//336 340//340 339//339
f 336//336 339//339 337//337
f 337//337 339//339 338//338
f 340//340 363//363 365//365
f 340//340 365//365 342//342
f 340//340 342//342 341//341
f 342//342 365//365 366//366
f 342//342 366//366 343//343
f 343//343 366//366 367//367
f 343//343 367//367 368//368
f 343//343 368//368 369//369
f 343//343 369//369 370//370
f 343//343 370//370 344//344
f 344//344 357//357 354//354
f 344//344 354//354 371//371
f 344//344 371//371 348//348
f 344//344 370//370 369//369
f 344//344 369//369 357//357
f 346//346 353//353 358//358
f 346//346 358//358 347//347
f 346//346 348//348 371//371
f 346//346 371//371 372//372
f 346//346 372//372 354//354
f 346//346 354//354 353//353
f 347//347 358//358 352//352
f 350//350 359//359 373//373
f 350//350 373//373 374//374
f 350//350 374//374 375//375
f 350//350 375//375 376//376
f 350//350 376//376 351//351
f 350//350 352//352 358//358
f 354//354 372//372 371//371
f 355//355 369//369 356//356
f 355//355 357//357 369//369
f 356//356 369//369 377//377
f 360//360 364//364 361//361
f 361//361 365//365 363//363
f 361//361 364//364 378//378
f 361//361 378//378 379//379
f 361//361 379//379 380//380
f 361//361 380//380 381//381
f 361//361 381//381 382//382
f 361//361 382//382 365//365
f 365//365 382//382 383//383
f 365//365 383//383 366//366
f 366//366 383//383 367//367
f 367//367 383//383 384//384
f 367//367 384//384 385//385
f 367//367 385//385 386//386
f 367//367 386//386 368//368
f 368//368 386//386 387//387
f 368//368 387//387 377//377
f 368//368 377//377 369//369
f 381//381 383//383 382//382
f 381//381 384//384 383//383
f 385//385 387//387 386//386
