# Created by Open3D 
# object name: part_018
# number of vertices: 178
# number of triangles: 352
v -0.00131128 -0.00833402 0.0818349
vn -0.999924 -2.28203e-05 0.0123189
v -0.00131128 -0.00980593 0.0818084
vn -0.0107082 -0.0293342 0.999512
v 0.000917115 -0.0107763 0.0817799
vn 0.0201883 -0.0208362 0.999579
v 0.000866263 -0.00988617 0.0817799
vn 0.0273555 0.00244684 0.999623
v 0.00165628 -0.00988617 0.0817575
vn 0.0385814 0.00953055 0.99921
v -0.00131128 -0.0067242 0.0818247
vn 0.0304151 0.00830248 0.999503
v -0.00131128 -0.0105181 0.0817636
vn -0.0684498 -0.0660403 0.995466
v 0.000245146 -0.0107763 0.0817799
vn -0.0115462 -0.0680188 0.997617
v 0.00138204 -0.0113681 0.0817412
vn 0 -0.0653162 0.997865
v 0.00287127 -0.0130481 0.0816312
vn 0.0220341 -0.0631151 0.997763
v 0.00287127 -0.0114684 0.0817004
vn 0.0442908 -0.0242113 0.998725
v 0.00287127 -0.00988617 0.0816984
vn 0.0567251 0.0211468 0.998166
v -0.000817292 -0.00514196 0.081786
vn 0.0561903 0.0263496 0.998072
v -0.00131128 -0.00588167 0.0818145
vn 0.0342236 0.0130191 0.999329
v -0.00131128 -0.0114333 0.0817004
vn -0.0468393 -0.076682 0.995955
v 0.00128942 -0.0130481 0.0816271
vn -0.014956 -0.0859313 0.996189
v 0.00287127 -0.0146304 0.0814906
vn -0.00695551 -0.102734 0.994685
v 0.00603498 -0.0162101 0.0813175
vn 0.0104673 -0.0916076 0.99574
v 0.00761501 -0.0162101 0.0812951
vn 0.043782 -0.0662279 0.996844
v 0.00761501 -0.0146304 0.0813704
vn 0.0487628 -0.0422681 0.997916
v 0.00603498 -0.0114684 0.0815334
vn 0.0547101 -0.00617642 0.998483
v 0.00603498 -0.0130481 0.0815008
vn 0.0471762 -0.0334144 0.998328
v 0.00761501 -0.0130481 0.0814234
vn 0.0532467 -0.0239396 0.998294
v 0.0123588 -0.0114684 0.081181
vn 0.0664083 0.00801261 0.99776
v 0.0123588 -0.00988617 0.0811443
vn 0.0642016 0.034288 0.997348
v -0.00131128 -0.00514196 0.0818043
vn -0.0224089 0.0187777 0.999573
v -0.00106973 -0.00433705 0.0817738
vn 0.0612174 0.0729023 0.995459
v -0.00131128 -0.00458027 0.0817901
vn -0.0619135 0.027977 0.997689
v -0.00131128 -0.0130481 0.0815701
vn -0.0725201 -0.0838125 0.993839
v -0.00131128 -0.0140662 0.0814784
vn -0.0851259 -0.0906961 0.992234
v -0.00131128 -0.0146304 0.0814254
vn -0.0300874 -0.113049 0.993134
v 0.00287127 -0.0162101 0.0813052
vn -0.0152093 -0.117123 0.993001
v 0.00445313 -0.0162101 0.0813256
vn -0.00475278 -0.113706 0.993503
v 0.00761501 -0.0177924 0.0811464
vn 0.0225349 -0.132814 0.990885
v 0.00919505 -0.0162101 0.081183
vn 0.0739391 -0.0910937 0.993094
v 0.0123588 -0.0146304 0.0810832
vn 0.0840495 -0.0794853 0.993286
v 0.0107769 -0.0146304 0.081183
vn 0.0603657 -0.0488157 0.996982
v 0.0123588 -0.0130481 0.0811627
vn 0.0622096 -0.026326 0.997716
v 0.0139406 -0.0114684 0.0810221
vn 0.119747 0.00230523 0.992802
v 0.0139406 -0.00988617 0.0809854
vn 0.116557 0.0267274 0.992824
v 0.0139406 -0.0067242 0.0808836
vn 0.0983947 0.039193 0.994375
v 0.0123588 -0.00514196 0.0809427
vn 0.0752181 0.0470218 0.996058
v 0.0107769 -0.00514196 0.0810465
vn 0.0643056 0.0433822 0.996987
v -0.00131128 -0.00426934 0.0817778
vn -0.837933 0.058934 0.542581
v 0.0107769 -0.00356222 0.0809712
vn 0.0642277 0.0721987 0.99532
v 0.0107769 -0.00197998 0.0808184
vn 0.0583581 0.109819 0.992237
v -0.00131128 -7.92906e-05 0.0813012
vn -0.202588 0.972458 0.115256
v -0.00131128 -0.0156484 0.0813012
vn -0.362433 -0.113327 0.925094
v -0.00029243 -0.0193746 0.0808815
vn -0.0202847 -0.124102 0.992062
v 0.00287127 -0.0177924 0.0811178
vn -0.0116846 -0.122472 0.992403
v 0.00445313 -0.0177924 0.0811321
vn -0.00766506 -0.125173 0.992105
v 0.00603498 -0.0177924 0.0811423
vn -0.00447279 -0.126745 0.991925
v 0.00287127 -0.0193746 0.0809141
vn -0.00707002 -0.131983 0.991227
v 0.00128942 -0.0209543 0.0806901
vn -0.00275984 -0.157605 0.987498
v 0.00761501 -0.0193746 0.0808917
vn 0.0277888 -0.185653 0.982222
v 0.00919505 -0.0193746 0.080796
vn 0.104407 -0.170293 0.979847
v 0.00919505 -0.0177924 0.0810323
vn 0.0916482 -0.122684 0.988205
v 0.0123588 -0.0162101 0.0809141
vn 0.099828 -0.114164 0.988434
v 0.0139406 -0.0146304 0.0809182
vn 0.113989 -0.086981 0.989667
v 0.0139406 -0.0130481 0.0810038
vn 0.113855 -0.034353 0.992903
v 0.0155206 -0.0114684 0.0808102
vn 0.153916 0.0143926 0.987979
v 0.0155206 -0.0067242 0.0806982
vn 0.140283 0.0293179 0.989677
v 0.0155206 -0.00514196 0.080631
vn 0.132827 0.0467062 0.990038
v 0.0139406 -0.00514196 0.0808082
vn 0.0996249 0.0509665 0.993719
v 0.0139406 -0.00356222 0.0807206
vn 0.092704 0.0604505 0.993857
v 0.0123588 -0.00356222 0.080853
vn 0.0787862 0.0644084 0.994809
v 0.0139406 -0.00197998 0.0806127
vn 0.0895147 0.0826951 0.992547
v 0.0123588 -0.00197998 0.0807206
vn 0.0645786 0.0984452 0.993045
v 0.0139406 -0.000397744 0.0804517
vn 0.0671139 0.116742 0.990892
v 0.0139406 -7.92906e-05 0.0804028
vn 0.0584858 0.183742 0.981233
v -0.00131128 -7.92906e-05 0.0634669
vn -0.592555 0.265442 -0.760538
v -0.00131128 -0.0162101 0.0812319
vn -0.403536 -0.115612 0.90763
v -0.00131128 -0.0193746 0.0808265
vn -0.425007 -0.129286 0.89591
v -0.00029243 -0.0209543 0.0806432
vn -0.0498833 -0.176635 0.983011
v 0.00115684 -0.0226895 0.080356
vn -0.0248636 -0.197326 0.980023
v 0.00287127 -0.0225366 0.0803865
vn 0.0166283 -0.192158 0.981223
v 0.00287127 -0.0209543 0.0806758
vn 0.0126223 -0.176193 0.984275
v 0.00368672 -0.023334 0.080191
vn 0.0519717 -0.247635 0.967458
v 0.00761501 -0.0209543 0.0805434
vn 0.0452764 -0.217482 0.975014
v 0.00919505 -0.0209543 0.080466
vn 0.0584383 -0.225899 0.972396
v 0.0131179 -0.0201519 0.0801869
vn 0.13057 -0.206558 0.969683
v 0.0139406 -0.0177924 0.0804945
vn 0.123063 -0.163345 0.978864
v 0.0139406 -0.0162101 0.080741
vn 0.115181 -0.138898 0.983586
v 0.0100486 -0.0217793 0.0802012
vn 0.104729 -0.262788 0.959153
v 0.0155206 -0.0146304 0.0807145
vn 0.143682 -0.0844741 0.986012
v 0.0155206 -0.0130481 0.0807919
vn 0.151086 -0.0288603 0.988099
v 0.0171025 -0.0114684 0.0805352
vn 0.174117 0.00386938 0.984717
v 0.0171025 -0.00988617 0.0805047
vn 0.172438 0.0190327 0.984836
v 0.0171025 -0.00830644 0.0804741
vn 0.17287 0.0196837 0.984748
v 0.0171025 -0.0067242 0.0804415
vn 0.163687 0.0250484 0.986194
v 0.0171025 -0.00514196 0.0803865
vn 0.155885 0.0416636 0.986896
v 0.0171824 -0.00363243 0.0802989
vn 0.152819 0.0495745 0.98701
v 0.0155206 -0.00356222 0.0805515
vn 0.127303 0.063219 0.989847
v 0.0155206 -0.00197998 0.0804314
vn 0.127366 0.0936579 0.987424
v 0.0152464 -7.92906e-05 0.0802521
vn 0.0644325 0.865548 0.496664
v 0.014273 -7.92906e-05 0.0803723
vn 0.0380576 0.943326 0.329679
v 0.0154716 -0.000485507 0.0802725
vn 0.131561 0.113319 0.98481
v 0.0172423 -7.92906e-05 0.061216
vn 0.737065 0.553973 -0.387104
v 0.0172351 -0.025696 0.0610266
vn -0.108545 -0.543224 -0.832542
v -0.00131128 -0.025696 0.0636136
vn -0.82261 -0.299293 -0.483464
v -0.00131128 -0.0209543 0.0805576
vn -0.628804 -0.150495 0.762861
v -0.00029243 -0.0223736 0.0803458
vn -0.0737052 -0.213792 0.974095
v 0.000542992 -0.0233214 0.080189
vn -0.0621785 -0.265899 0.961994
v 0.00159635 -0.0233966 0.0802093
vn -0.00620599 -0.262559 0.964896
v 0.00287127 -0.0233841 0.0802052
vn 0.0157501 -0.241419 0.970293
v 0.00919505 -0.0218821 0.0802297
vn 0.0629738 -0.264005 0.962463
v 0.00287127 -0.024174 0.0799791
vn 0.0272618 -0.281588 0.959148
v 0.00445313 -0.025696 0.0794617
vn 0.00716133 -0.989197 0.146416
v 0.00603498 -0.025696 0.0793721
vn 0.0280935 -0.90891 0.416046
v 0.0139406 -0.0198059 0.0801115
vn 0.182331 -0.221609 0.957938
v 0.0158621 -0.0182111 0.0801136
vn 0.18995 -0.219992 0.956829
v 0.0154099 -0.0177272 0.0802867
vn 0.152962 -0.18015 0.971673
v 0.0139406 -0.0190135 0.0802745
vn 0.145518 -0.177614 0.973282
v 0.0123588 -0.0225366 0.0796777
vn 0.135611 -0.25368 0.957735
v 0.0139406 -0.0225366 0.0794495
vn 0.153086 -0.250325 0.955982
v 0.0139406 -0.0209543 0.0798447
vn 0.183278 -0.229388 0.955924
v 0.0155206 -0.0162101 0.0805352
vn 0.145119 -0.141875 0.979189
v 0.00761501 -0.025696 0.0792519
vn 0.0188015 -0.97819 0.206858
v 0.00919505 -0.025696 0.0790849
vn 0.0277009 -0.966973 0.253369
v 0.0123588 -0.0241188 0.0792254
vn 0.110049 -0.291566 0.950199
v 0.0139406 -0.0241188 0.0790197
vn 0.131164 -0.270545 0.95373
v 0.0172423 -0.015997 0.0802765
vn 0.989325 -0.0163019 0.144809
v 0.0171025 -0.0146304 0.0804497
vn 0.168779 -0.0641923 0.983561
v 0.0171025 -0.0130481 0.0805169
vn 0.173148 -0.022334 0.984643
v 0.0172423 -0.0114684 0.0805067
vn 0.999974 -5.54155e-05 0.00720564
v 0.0172423 -0.0112879 0.0805047
vn 0.999973 0.000131872 0.00731605
v 0.0172423 -0.00988617 0.0804782
vn 0.999764 0.000417554 0.0217027
v 0.0172423 -0.0128776 0.0804925
vn 0.999897 -0.000166597 0.0143561
v 0.0172423 -0.00808578 0.0804415
vn 0.999937 0.000231613 0.0112306
v 0.0172423 -0.00968557 0.0804741
vn 0.999973 0.000149171 0.007325
v 0.0172423 -0.0067242 0.080413
vn 0.999973 0.000158149 0.00732824
v 0.0172423 -0.00648097 0.0804069
vn 0.999973 0.000241493 0.00735705
v 0.0172423 -0.00498649 0.080356
vn 0.999916 0.000523374 0.0129688
v 0.0172423 -0.00358479 0.0802867
vn 0.997756 0.00505605 0.0667606
v 0.0166739 -0.00197998 0.0802562
vn 0.157471 0.0814888 0.984156
v 0.0163996 -0.00106976 0.0802052
vn 0.168419 0.120132 0.978368
v 0.0158966 -7.92906e-05 0.0801543
vn 0.0930865 0.804858 0.586122
v 0.0172423 -7.92906e-05 0.0798651
vn 0.0186636 0.999826 0.000219253
v 0.0172423 -0.025696 0.0610266
vn 1 -0.000280469 -0.000426434
v -0.00131128 -0.025696 0.0793252
vn -0.659694 -0.751516 0.00523301
v -0.00131128 -0.0221579 0.0802949
vn -0.784497 -0.144088 0.603161
v -0.00029243 -0.0231659 0.0801482
vn -0.102332 -0.25369 0.961857
v -0.00029243 -0.0241188 0.0798854
vn -0.0974595 -0.271725 0.957427
v -0.00029243 -0.025696 0.0794291
vn -0.00950011 -0.992208 0.124227
v 0.00128942 -0.025696 0.0795269
vn -0.004855 -0.98951 0.144381
v 0.00115684 -0.024001 0.0800178
vn -0.0385186 -0.279573 0.959351
v 0.00287127 -0.025696 0.0795289
vn 0.00162074 -0.991248 0.132004
v 0.0170389 -0.0177272 0.0799812
vn 0.204695 -0.221369 0.953465
v 0.0164687 -0.017158 0.0802215
vn 0.172977 -0.180565 0.968233
v 0.0154099 -0.0192517 0.0799567
vn 0.189665 -0.226493 0.955368
v 0.0171025 -0.025696 0.0780928
vn 0.177652 -0.363945 0.914322
v 0.0172423 -0.025696 0.0780643
vn 0.999772 -0.00863312 0.019551
v 0.0154571 -0.0255907 0.0783841
vn 0.145615 -0.26356 0.953589
v 0.0170262 -0.025696 0.0781051
vn 0.0270139 -0.985221 0.169142
v 0.0170389 -0.0161249 0.0802949
vn 0.168289 -0.158239 0.972954
v 0.0121444 -0.025696 0.0787488
vn 0.0014639 -0.999919 0.0126779
v 0.0123588 -0.0254779 0.0787956
vn 0.109052 -0.301681 0.947152
v 0.0139406 -0.025187 0.0787019
vn 0.117811 -0.293267 0.948744
v 0.0172423 -0.0163204 0.0802195
vn 0.999034 -0.00782179 0.0432429
v 0.0172423 -0.0146304 0.0804212
vn 0.999977 -0.00066503 0.0067674
v 0.0172423 -0.0144423 0.0804293
vn 0.999901 -0.000597647 0.014067
v 0.0172423 -0.0130481 0.0804884
vn 0.999975 -0.000284684 0.0070539
v 0.0172423 -0.00197998 0.0801502
vn 0.998917 0.0048851 0.0462654
v 0.0172423 -0.00126534 0.0800565
vn 0.998758 0.00679391 0.0493675
v 0.0169972 -0.000485507 0.0799995
vn 0.205688 0.147983 0.967364
v 0.0161072 -7.92906e-05 0.0801156
vn 0.0832068 0.905342 0.416453
v 0.0170226 -7.92906e-05 0.0799221
vn 0.0388968 0.984333 0.171973
v 0.0172423 -0.000425327 0.0799262
vn 0.999674 0.0044023 0.0251334
v -0.00131128 -0.0251369 0.0794862
vn -0.922729 -0.10535 0.370773
v -0.00131128 -0.0229503 0.0800891
vn -0.90372 -0.109156 0.413975
v -0.00131128 -0.0237803 0.0798671
vn -0.782881 -0.163696 0.600251
v -0.00131128 -0.0241188 0.0797734
vn -0.91993 -0.105998 0.377483
v 0.0172423 -0.0177347 0.0799282
vn 0.999958 -0.00207563 0.00888714
v 0.0172423 -0.0172532 0.0800362
vn 0.999958 -0.00194556 0.00900946
v 0.0172423 -0.0167442 0.0801421
vn 0.998548 -0.0105899 0.052818
v 0.0154607 -0.025696 0.0783515
vn 0.00265066 -0.999783 0.0206754
v 0.0139406 -0.025696 0.0785369
vn 0.00411354 -0.999403 0.0343131
v 0.0172423 -0.00047297 0.0799343
vn 0.999912 0.00203242 0.0130957
f 1//1 2//2 3//3
f 1//1 3//3 4//4
f 1//1 4//4 5//5
f 1//1 5//5 6//6
f 1//1 6//6 14//14
f 1//1 14//14 26//26
f 1//1 26//26 28//28
f 1//1 28//28 44//44
f 1//1 44//44 47//47
f 1//1 47//47 71//71
f 1//1 71//71 100//100
f 1//1 100//100 140//140
f 1//1 140//140 169//169
f 1//1 169//169 172//172
f 1//1 172//172 171//171
f 1//1 171//171 170//170
f 1//1 170//170 141//141
f 1//1 141//141 101//101
f 1//1 101//101 73//73
f 1//1 73//73 72//72
f 1//1 72//72 48//48
f 1//1 48//48 31//31
f 1//1 31//31 30//30
f 1//1 30//30 29//29
f 1//1 29//29 15//15
f 1//1 15//15 7//7
f 1//1 7//7 2//2
f 2//2 7//7 8//8
f 2//2 8//8 3//3
f 3//3 8//8 9//9
f 3//3 9//9 10//10
f 3//3 10//10 11//11
f 3//3 11//11 5//5
f 3//3 5//5 4//4
f 5//5 11//11 12//12
f 5//5 12//12 13//13
f 5//5 13//13 14//14
f 5//5 14//14 6//6
f 7//7 15//15 8//8
f 8//8 15//15 16//16
f 8//8 16//16 10//10
f 8//8 10//10 9//9
f 10//10 16//16 17//17
f 10//10 17//17 18//18
f 10//10 18//18 19//19
f 10//10 19//19 20//20
f 10//10 20//20 11//11
f 11//11 21//21 12//12
f 11//11 20//20 22//22
f 11//11 22//22 23//23
f 11//11 23//23 21//21
f 12//12 21//21 24//24
f 12//12 24//24 25//25
f 12//12 25//25 13//13
f 13//13 26//26 14//14
f 13//13 25//25 27//27
f 13//13 27//27 28//28
f 13//13 28//28 26//26
f 15//15 29//29 16//16
f 16//16 29//29 30//30
f 16//16 30//30 31//31
f 16//16 31//31 17//17
f 17//17 31//31 32//32
f 17//17 32//32 33//33
f 17//17 33//33 18//18
f 18//18 33//33 34//34
f 18//18 34//34 19//19
f 19//19 34//34 35//35
f 19//19 35//35 36//36
f 19//19 36//36 37//37
f 19//19 37//37 20//20
f 20//20 37//37 38//38
f 20//20 38//38 23//23
f 20//20 23//23 22//22
f 21//21 23//23 38//38
f 21//21 38//38 24//24
f 24//24 39//39 40//40
f 24//24 40//40 25//25
f 24//24 38//38 60//60
f 24//24 60//60 39//39
f 25//25 40//40 41//41
f 25//25 41//41 42//42
f 25//25 42//42 43//43
f 25//25 43//43 27//27
f 27//27 44//44 28//28
f 27//27 43//43 45//45
f 27//27 45//45 46//46
f 27//27 46//46 47//47
f 27//27 47//47 44//44
f 31//31 48//48 49//49
f 31//31 49//49 32//32
f 32//32 49//49 50//50
f 32//32 50//50 33//33
f 33//33 50//50 51//51
f 33//33 51//51 52//52
f 33//33 52//52 34//34
f 34//34 52//52 53//53
f 34//34 53//53 54//54
f 34//34 54//54 55//55
f 34//34 55//55 56//56
f 34//34 56//56 57//57
f 34//34 57//57 35//35
f 35//35 57//57 36//36
f 36//36 58//58 59//59
f 36//36 59//59 60//60
f 36//36 60//60 38//38
f 36//36 38//38 37//37
f 36//36 57//57 58//58
f 39//39 61//61 40//40
f 39//39 60//60 86//86
f 39//39 86//86 61//61
f 40//40 61//61 62//62
f 40//40 62//62 41//41
f 41//41 62//62 63//63
f 41//41 63//63 64//64
f 41//41 64//64 42//42
f 42//42 64//64 65//65
f 42//42 65//65 66//66
f 42//42 66//66 45//45
f 42//42 45//45 43//43
f 45//45 66//66 67//67
f 45//45 67//67 68//68
f 45//45 68//68 46//46
f 46//46 68//68 69//69
f 46//46 69//69 47//47
f 47//47 69//69 70//70
f 47//47 70//70 96//96
f 47//47 96//96 95//95
f 47//47 95//95 137//137
f 47//47 137//137 166//166
f 47//47 166//166 167//167
f 47//47 167//167 138//138
f 47//47 138//138 98//98
f 47//47 98//98 71//71
f 48//48 72//72 49//49
f 49//49 73//73 74//74
f 49//49 74//74 54//54
f 49//49 54//54 53//53
f 49//49 53//53 50//50
f 49//49 72//72 73//73
f 50//50 53//53 51//51
f 51//51 53//53 52//52
f 54//54 74//74 75//75
f 54//54 75//75 76//76
f 54//54 76//76 77//77
f 54//54 77//77 55//55
f 55//55 77//77 76//76
f 55//55 76//76 78//78
f 55//55 78//78 79//79
f 55//55 79//79 80//80
f 55//55 80//80 56//56
f 56//56 81//81 82//82
f 56//56 82//82 83//83
f 56//56 83//83 57//57
f 56//56 80//80 84//84
f 56//56 84//84 81//81
f 57//57 83//83 58//58
f 58//58 83//83 59//59
f 59//59 83//83 85//85
f 59//59 85//85 60//60
f 60//60 85//85 86//86
f 61//61 87//87 88//88
f 61//61 88//88 89//89
f 61//61 89//89 90//90
f 61//61 90//90 62//62
f 61//61 86//86 124//124
f 61//61 124//124 87//87
f 62//62 90//90 91//91
f 62//62 91//91 63//63
f 63//63 91//91 92//92
f 63//63 92//92 93//93
f 63//63 93//93 64//64
f 64//64 93//93 65//65
f 65//65 93//93 67//67
f 65//65 67//67 66//66
f 67//67 93//93 94//94
f 67//67 94//94 69//69
f 67//67 69//69 68//68
f 69//69 95//95 96//96
f 69//69 96//96 70//70
f 69//69 94//94 97//97
f 69//69 97//97 95//95
f 71//71 98//98 99//99
f 71//71 99//99 100//100
f 73//73 101//101 74//74
f 74//74 101//101 102//102
f 74//74 102//102 75//75
f 75//75 102//102 103//103
f 75//75 103//103 104//104
f 75//75 104//104 76//76
f 76//76 104//104 105//105
f 76//76 105//105 78//78
f 78//78 106//106 80//80
f 78//78 80//80 79//79
f 78//78 105//105 107//107
f 78//78 107//107 108//108
f 78//78 108//108 109//109
f 78//78 109//109 106//106
f 80//80 106//106 84//84
f 81//81 110//110 111//111
f 81//81 111//111 112//112
f 81//81 112//112 113//113
f 81//81 113//113 82//82
f 81//81 84//84 114//114
f 81//81 114//114 115//115
f 81//81 115//115 116//116
f 81//81 116//116 110//110
f 82//82 113//113 112//112
f 82//82 112//112 117//117
f 82//82 117//117 83//83
f 83//83 117//117 85//85
f 84//84 106//106 109//109
f 84//84 109//109 118//118
f 84//84 118//118 119//119
f 84//84 119//119 120//120
f 84//84 120//120 121//121
f 84//84 121//121 114//114
f 85//85 117//117 122//122
f 85//85 122//122 123//123
f 85//85 123//123 86//86
f 86//86 123//123 124//124
f 87//87 125//125 126//126
f 87//87 126//126 127//127
f 87//87 127//127 88//88
f 87//87 124//124 128//128
f 87//87 128//128 125//125
f 88//88 127//127 89//89
f 89//89 129//129 90//90
f 89//89 127//127 130//130
f 89//89 130//130 129//129
f 90//90 131//131 132//132
f 90//90 132//132 133//133
f 90//90 133//133 91//91
f 90//90 129//129 131//131
f 91//91 133//133 92//92
f 92//92 134//134 93//93
f 92//92 133//133 134//134
f 93//93 134//134 135//135
f 93//93 135//135 94//94
f 94//94 135//135 136//136
f 94//94 136//136 97//97
f 95//95 97//97 137//137
f 97//97 136//136 137//137
f 98//98 138//138 168//168
f 98//98 168//168 178//178
f 98//98 178//178 164//164
f 98//98 164//164 163//163
f 98//98 163//163 134//134
f 98//98 134//134 133//133
f 98//98 133//133 132//132
f 98//98 132//132 131//131
f 98//98 131//131 129//129
f 98//98 129//129 130//130
f 98//98 130//130 127//127
f 98//98 127//127 126//126
f 98//98 126//126 125//125
f 98//98 125//125 128//128
f 98//98 128//128 162//162
f 98//98 162//162 161//161
f 98//98 161//161 160//160
f 98//98 160//160 122//122
f 98//98 122//122 159//159
f 98//98 159//159 175//175
f 98//98 175//175 174//174
f 98//98 174//174 173//173
f 98//98 173//173 152//152
f 98//98 152//152 139//139
f 98//98 139//139 99//99
f 99//99 139//139 152//152
f 99//99 152//152 151//151
f 99//99 151//151 154//154
f 99//99 154//154 176//176
f 99//99 176//176 177//177
f 99//99 177//177 156//156
f 99//99 156//156 119//119
f 99//99 119//119 118//118
f 99//99 118//118 109//109
f 99//99 109//109 108//108
f 99//99 108//108 147//147
f 99//99 147//147 145//145
f 99//99 145//145 144//144
f 99//99 144//144 140//140
f 99//99 140//140 100//100
f 101//101 141//141 102//102
f 102//102 141//141 142//142
f 102//102 142//142 103//103
f 103//103 142//142 143//143
f 103//103 143//143 144//144
f 103//103 144//144 145//145
f 103//103 145//145 146//146
f 103//103 146//146 104//104
f 104//104 146//146 145//145
f 104//104 145//145 147//147
f 104//104 147//147 107//107
f 104//104 107//107 105//105
f 107//107 147//147 108//108
f 110//110 116//116 111//111
f 111//111 148//148 149//149
f 111//111 149//149 112//112
f 111//111 116//116 150//150
f 111//111 150//150 151//151
f 111//111 151//151 152//152
f 111//111 152//152 148//148
f 112//112 149//149 117//117
f 114//114 121//121 115//115
f 115//115 121//121 153//153
f 115//115 153//153 154//154
f 115//115 154//154 151//151
f 115//115 151//151 116//116
f 116//116 151//151 150//150
f 117//117 155//155 122//122
f 117//117 149//149 155//155
f 119//119 156//156 157//157
f 119//119 157//157 120//120
f 120//120 157//157 158//158
f 120//120 158//158 121//121
f 121//121 158//158 153//153
f 122//122 155//155 159//159
f 122//122 160//160 123//123
f 123//123 160//160 161//161
f 123//123 161//161 124//124
f 124//124 162//162 128//128
f 124//124 161//161 162//162
f 134//134 163//163 135//135
f 135//135 163//163 136//136
f 136//136 164//164 165//165
f 136//136 165//165 166//166
f 136//136 166//166 137//137
f 136//136 163//163 164//164
f 138//138 167//167 168//168
f 140//140 144//144 143//143
f 140//140 143//143 169//169
f 141//141 170//170 142//142
f 142//142 170//170 171//171
f 142//142 171//171 143//143
f 143//143 171//171 172//172
f 143//143 172//172 169//169
f 148//148 173//173 174//174
f 148//148 174//174 175//175
f 148//148 175//175 149//149
f 148//148 152//152 173//173
f 149//149 175//175 159//159
f 149//149 159//159 155//155
f 153//153 158//158 176//176
f 153//153 176//176 154//154
f 156//156 177//177 157//157
f 157//157 177//177 158//158
f 158//158 177//177 176//176
f 164//164 178//178 165//165
f 165//165 178//178 168//168
f 165//165 168//168 167//167
f 165//165 167//167 166//166
