# Created by Open3D 
# object name: part_011
# number of vertices: 377
# number of triangles: 750
v 0.020384 0.0661567 -0.0175425
vn -0.874006 0.00103642 0.485914
v 0.0218165 0.0657203 -0.0175425
vn 0.287884 0.909719 -0.299223
v 0.020384 0.0657985 -0.0186469
vn 0.278307 0.913426 -0.296982
v 0.020384 0.0518858 -0.0175425
vn -0.587492 -0.515131 0.624094
v 0.020384 0.0657573 -0.0187709
vn 0.279206 0.908345 -0.311375
v 0.0230024 0.0653332 -0.0175425
vn 0.29967 0.910438 -0.285131
v 0.0221993 0.0650944 -0.0190266
vn 0.300657 0.900046 -0.315471
v 0.020384 0.0306936 -0.0468343
vn -0.998303 -0.0473386 0.0339091
v 0.0210791 0.030463 -0.04635
vn -0.393195 -0.751447 0.529835
v 0.0443742 0.0388213 -0.0175425
vn 0.174578 -0.598083 0.782189
v 0.0211449 0.0652591 -0.0195188
vn 0.284582 0.904552 -0.317488
v 0.020384 0.0653785 -0.0198443
vn 0.253383 0.910552 -0.326638
v 0.0237679 0.065078 -0.0175425
vn 0.311943 0.897923 -0.310525
v 0.0217413 0.0648556 -0.0201233
vn 0.288042 0.900187 -0.326642
v 0.0234321 0.064238 -0.0202357
vn 0.310134 0.89516 -0.320166
v 0.0226478 0.0636533 -0.022615
vn 0.301758 0.890786 -0.339768
v 0.020384 0.0305413 -0.047156
vn -0.999944 -0.0101395 0.00299645
v 0.0206588 0.0302366 -0.047404
vn -0.375785 -0.904192 0.203035
v 0.0217038 0.0299648 -0.0469738
vn -0.319964 -0.899633 0.297125
v 0.0443742 0.0251145 -0.0376969
vn -0.211508 -0.902354 0.375528
v 0.0443742 0.0252669 -0.0374024
vn -0.370385 -0.768082 0.522365
v 0.0443742 0.0532405 -0.0175425
vn 0.000772161 0.000234106 1
v 0.020384 0.065045 -0.0207665
vn 0.260737 0.905144 -0.335754
v 0.0249585 0.064658 -0.0175425
vn 0.324731 0.906025 -0.271418
v 0.0289318 0.0620599 -0.0209913
vn 0.323147 0.893931 -0.310587
v 0.0283142 0.0619364 -0.0219291
vn 0.313713 0.890387 -0.329841
v 0.0218494 0.0634516 -0.0237116
vn 0.29104 0.874838 -0.387238
v 0.0218494 0.0637769 -0.0229211
vn 0.267903 0.894955 -0.356769
v 0.020384 0.0646456 -0.0218167
vn 0.210294 0.910602 -0.355783
v 0.0281757 0.0614176 -0.0233977
vn 0.319465 0.876795 -0.359406
v 0.0256466 0.0620187 -0.0240565
vn 0.300603 0.877185 -0.374413
v 0.020384 0.0301542 -0.0486595
vn -0.998595 -0.0523378 0.00828262
v 0.0218494 0.0296725 -0.0486983
vn -0.234082 -0.970643 -0.0552958
v 0.0234321 0.0294007 -0.0471172
vn -0.280322 -0.948412 0.148101
v 0.0443742 0.0244393 -0.0395763
vn 0.0167108 -0.98144 0.191042
v 0.0443742 0.0245299 -0.039212
vn 0.0146507 -0.960539 0.277761
v 0.0443742 0.0246163 -0.038964
vn -0.10236 -0.928049 0.358115
v 0.0443742 0.0532363 -0.017558
vn 0.95282 0.288879 -0.093186
v 0.0387031 0.0575267 -0.0175425
vn 0.418134 0.555235 0.718942
v 0.0270649 0.0638963 -0.0175425
vn 0.332028 0.907968 -0.25564
v 0.0298265 0.0618911 -0.0203752
vn 0.371442 0.884419 -0.282548
v 0.0297561 0.0614176 -0.0218167
vn 0.390268 0.860693 -0.326953
v 0.0275369 0.0637151 -0.0175425
vn 0.368942 0.903731 -0.217144
v 0.0208725 0.0636039 -0.024072
vn 0.2613 0.887131 -0.380422
v 0.0265953 0.06129 -0.0249827
vn 0.295377 0.867113 -0.401084
v 0.0218494 0.062871 -0.0249827
vn 0.279917 0.865731 -0.414917
v 0.020384 0.0639827 -0.0234597
vn -0.156727 0.91581 -0.369768
v 0.0297279 0.0608 -0.0233551
vn 0.3734 0.855991 -0.357565
v 0.0291807 0.0605859 -0.0243936
vn 0.356572 0.852603 -0.382
v 0.0280958 0.0607588 -0.0249478
vn 0.322309 0.861761 -0.391771
v 0.020384 0.0301501 -0.0486905
vn -0.999015 -0.0441299 0.00469101
v 0.020384 0.0301501 -0.0486983
vn -0.99932 -0.0366363 -0.00409846
v 0.020384 0.0301584 -0.0487641
vn -0.998874 -0.0470565 -0.00595952
v 0.0205484 0.0302613 -0.0500119
vn -0.241667 -0.947342 -0.210095
v 0.0217014 0.0301336 -0.0504343
vn -0.181351 -0.94741 -0.263679
v 0.0443742 0.0243569 -0.0452068
vn -0.064534 -0.959749 -0.273345
v 0.0443742 0.0242128 -0.0445558
vn 0.545007 -0.824557 -0.151896
v 0.0443742 0.0241264 -0.0439551
vn 0.431698 -0.900761 -0.0475998
v 0.0443742 0.0240975 -0.0423741
vn 0.376311 -0.926493 0
v 0.0443742 0.0241264 -0.0419168
vn 0.278431 -0.957138 0.0797634
v 0.0443742 0.0242293 -0.0407931
vn 0.07857 -0.989254 0.1233
v 0.0443742 0.0523717 -0.0202357
vn 0.952794 0.288871 -0.0934691
v 0.0385692 0.0574278 -0.0181237
vn 0.566484 0.774211 -0.282302
v 0.0380197 0.0580207 -0.0175425
vn 0.096871 0.13616 0.985939
v 0.0443742 0.0523223 -0.0203829
vn 0.922535 0.363675 -0.129114
v 0.0303995 0.0620105 -0.0192165
vn 0.423042 0.862474 -0.277801
v 0.0310007 0.0607753 -0.0218167
vn 0.481485 0.821196 -0.306282
v 0.030686 0.0605735 -0.0227971
vn 0.43494 0.833375 -0.341048
v 0.0289013 0.0631469 -0.0175425
vn 0.391314 0.917731 0.0681484
v 0.020384 0.0633281 -0.02494
vn -0.0965513 0.892526 -0.440539
v 0.020384 0.0633816 -0.0248277
vn -0.672354 0.670976 -0.31262
v 0.020384 0.0636657 -0.0242154
vn -0.528761 0.776345 -0.343073
v 0.020384 0.0639416 -0.0235605
vn -0.332561 0.869639 -0.364871
v 0.0275134 0.0605365 -0.0258701
vn 0.311312 0.853447 -0.417987
v 0.0265953 0.0607053 -0.0261878
vn 0.294935 0.856994 -0.422581
v 0.0251088 0.0609647 -0.0266799
vn 0.285499 0.859415 -0.424141
v 0.0227934 0.0621217 -0.0258739
vn 0.279826 0.859628 -0.427479
v 0.0218494 0.0622781 -0.0261723
vn 0.268816 0.859426 -0.434886
v 0.020384 0.0624346 -0.0267342
vn 0.01675 0.891235 -0.453233
v 0.0302351 0.0603471 -0.0238511
vn 0.42784 0.819574 -0.381117
v 0.0297279 0.0600794 -0.0249478
vn 0.394833 0.822207 -0.409979
v 0.0285678 0.060343 -0.0254515
vn 0.354204 0.836338 -0.418423
v 0.020384 0.0303025 -0.0497872
vn -0.999992 -0.00405475 -0.000579963
v 0.020384 0.0303601 -0.0501747
vn -0.999993 -0.0037409 -0.000926931
v 0.020384 0.0307883 -0.051748
vn -0.999685 -0.0241606 -0.00685542
v 0.0210768 0.0304466 -0.051066
vn -0.198178 -0.942037 -0.270726
v 0.020384 0.0312371 -0.0533096
vn -0.844071 -0.513211 -0.155431
v 0.0443742 0.0244393 -0.0454161
vn 0.645057 -0.655632 -0.392489
v 0.020384 0.0317312 -0.0549023
vn -0.87434 -0.461106 -0.151362
v 0.0383086 0.0572179 -0.0191778
vn 0.54474 0.774274 -0.322115
v 0.0377332 0.0578108 -0.0186507
vn 0.531055 0.790177 -0.305942
v 0.037644 0.0582801 -0.0175425
vn 0.35564 0.515734 0.779447
v 0.0443742 0.0517952 -0.0218361
vn 0.907045 0.394416 -0.147326
v 0.0313506 0.0620228 -0.0175425
vn 0.407329 0.830764 0.37936
v 0.0316746 0.0618623 -0.0175425
vn 0.3972 0.740686 0.541863
v 0.0329169 0.0611829 -0.0175425
vn 0.484287 0.866015 0.124437
v 0.0314609 0.0610429 -0.0203325
vn 0.470715 0.833096 -0.290479
v 0.0297772 0.0627599 -0.0175425
vn 0.400777 0.900953 0.166318
v 0.0301694 0.0625828 -0.0175425
vn 0.405672 0.879575 0.248554
v 0.030902 0.0622411 -0.0175425
vn 0.407414 0.859402 0.308937
v 0.0339102 0.0606106 -0.0175425
vn 0.504269 0.855227 0.119582
v 0.0347063 0.060133 -0.0175425
vn 0.511036 0.846338 0.150179
v 0.036761 0.0588401 -0.0176742
vn 0.502874 0.803607 -0.318329
v 0.031792 0.0602853 -0.0218167
vn 0.502345 0.801922 -0.323374
v 0.0312637 0.059993 -0.0233551
vn 0.483511 0.804891 -0.344045
v 0.0280958 0.0600218 -0.0264629
vn 0.33996 0.831052 -0.440204
v 0.0265953 0.0603059 -0.0269783
vn 0.301618 0.841432 -0.448352
v 0.0246438 0.0606353 -0.0276293
vn 0.287507 0.849744 -0.441899
v 0.0233546 0.0607917 -0.0281525
vn 0.2777 0.857015 -0.43406
v 0.023364 0.0616399 -0.0264668
vn 0.278365 0.85779 -0.432099
v 0.0227769 0.0605365 -0.0290205
vn 0.28651 0.84132 -0.458359
v 0.0218494 0.0612694 -0.0281447
vn 0.261121 0.859189 -0.440012
v 0.0218494 0.0606806 -0.0292918
vn 0.253118 0.856598 -0.449634
v 0.020384 0.0616935 -0.0281525
vn -0.265505 0.854399 -0.446666
v 0.0313012 0.0592642 -0.0249052
vn 0.469376 0.789096 -0.396249
v 0.030747 0.0590377 -0.0259786
vn 0.435886 0.794599 -0.42263
v 0.0297021 0.0592724 -0.0265288
vn 0.401566 0.799518 -0.446672
v 0.0443742 0.0251351 -0.0464817
vn 0.531073 -0.659528 -0.531963
v 0.020384 0.0317806 -0.0550069
vn -0.901556 -0.378956 -0.20878
v 0.020384 0.0319041 -0.0552162
vn -0.795817 -0.500169 -0.341331
v 0.0369113 0.0573537 -0.0210804
vn 0.526698 0.776184 -0.346593
v 0.0371884 0.0575308 -0.0202357
vn 0.507795 0.797505 -0.325775
v 0.043928 0.0521123 -0.0218477
vn 0.555537 0.772371 -0.30793
v 0.0430803 0.0525034 -0.0223941
vn 0.547409 0.771533 -0.324161
v 0.0427609 0.0522893 -0.0233977
vn 0.534848 0.772116 -0.343183
v 0.0369559 0.0587536 -0.0175425
vn 0.0235189 0.0346517 0.999123
v 0.0443742 0.0516182 -0.022274
vn 0.996039 0.0820443 -0.0342665
v 0.0366248 0.0589719 -0.0175425
vn 0.0296017 0.0482801 0.998395
v 0.03252 0.059186 -0.0233977
vn 0.503776 0.800321 -0.325109
v 0.0322382 0.0589842 -0.0243278
vn 0.507196 0.78599 -0.353514
v 0.0291385 0.0590048 -0.0275015
vn 0.394288 0.786968 -0.474573
v 0.0280371 0.0591695 -0.028075
vn 0.329918 0.827526 -0.454262
v 0.0274172 0.0589225 -0.0289585
vn 0.322157 0.807171 -0.494662
v 0.0265953 0.0596718 -0.0281447
vn 0.29703 0.836241 -0.46095
v 0.0233546 0.0599806 -0.0296212
vn 0.293352 0.824805 -0.483364
v 0.0218494 0.0602441 -0.0300823
vn 0.28737 0.822604 -0.490654
v 0.0207903 0.060413 -0.0303807
vn 0.258585 0.836373 -0.483337
v 0.020384 0.0608494 -0.0297645
vn -0.910157 0.366644 -0.192836
v 0.0352088 0.0556944 -0.0272496
vn 0.502044 0.776513 -0.380761
v 0.0341544 0.0560156 -0.0278812
vn 0.475464 0.783391 -0.40029
v 0.0337082 0.0557438 -0.0289353
vn 0.442284 0.781023 -0.440895
v 0.0207363 0.0322006 -0.0555959
vn 0.00792879 -0.779739 -0.626055
v 0.020384 0.0325917 -0.0560726
vn -0.972269 -0.169731 -0.160888
v 0.020384 0.0327441 -0.0561927
vn -0.894917 -0.276004 -0.350635
v 0.020384 0.0328182 -0.0562508
vn -0.712068 -0.329619 -0.619928
v 0.0443742 0.0253286 -0.0466173
vn 0.831915 -0.295316 -0.469794
v 0.0399453 0.0525199 -0.0272147
vn 0.528202 0.772913 -0.35158
v 0.0355751 0.0559415 -0.0261956
vn 0.520217 0.777774 -0.352762
v 0.0443742 0.0512806 -0.0230684
vn 0.993796 0.100952 -0.046669
v 0.0439961 0.0514412 -0.0233202
vn 0.54611 0.760587 -0.351101
v 0.0408165 0.0521782 -0.0266373
vn 0.542715 0.761488 -0.354396
v 0.0288661 0.0572837 -0.0304427
vn 0.374149 0.781112 -0.499876
v 0.0330742 0.055538 -0.0298459
vn 0.412542 0.781879 -0.467412
v 0.0320574 0.0557068 -0.0304543
vn 0.400891 0.781362 -0.478288
v 0.031003 0.0559744 -0.0308689
vn 0.383786 0.77993 -0.494387
v 0.0221899 0.0571767 -0.0350037
vn 0.293021 0.819861 -0.491901
v 0.0247425 0.0528452 -0.0403978
vn 0.372608 0.779129 -0.504105
v 0.023465 0.0531046 -0.0408706
vn 0.329397 0.799407 -0.502441
v 0.0224576 0.0541051 -0.0398979
vn 0.308065 0.810155 -0.498743
v 0.0218494 0.0554886 -0.0379991
vn 0.301578 0.814269 -0.496
v 0.0218494 0.0559662 -0.0372125
vn 0.29773 0.816799 -0.494162
v 0.0208161 0.0556738 -0.0383053
vn 0.270244 0.823135 -0.499416
v 0.020384 0.0601453 -0.0310278
vn -0.869391 0.424281 -0.253267
v 0.020384 0.0604706 -0.0304775
vn -0.949766 0.273369 -0.152359
v 0.0388252 0.0528328 -0.0281447
vn 0.518795 0.770689 -0.369987
v 0.0385129 0.0526228 -0.0290089
vn 0.510595 0.760404 -0.401345
v 0.0366554 0.0540228 -0.0286563
vn 0.49619 0.767425 -0.406022
v 0.03461 0.0555215 -0.0282997
vn 0.487568 0.771483 -0.408767
v 0.035601 0.0543645 -0.029284
vn 0.488038 0.761916 -0.425796
v 0.0351243 0.0540598 -0.030338
vn 0.47556 0.753208 -0.454445
v 0.0340699 0.054381 -0.0308767
vn 0.450933 0.763633 -0.462087
v 0.0334922 0.0540598 -0.0319307
vn 0.399005 0.765371 -0.504978
v 0.020384 0.0343293 -0.0569096
vn -0.853927 -0.204701 -0.478441
v 0.0376628 0.0283879 -0.0498569
vn 0.230928 -0.388511 -0.892038
v 0.0443742 0.0262386 -0.0471754
vn 0.809955 -0.284129 -0.513072
v 0.0417347 0.0510994 -0.0275208
vn 0.597576 0.689103 -0.409927
v 0.0396166 0.0522976 -0.0281447
vn 0.531764 0.755164 -0.383345
v 0.0434748 0.0512147 -0.0246068
vn 0.573042 0.731504 -0.369494
v 0.0443742 0.0508359 -0.023917
vn 0.986116 0.143345 -0.0838289
v 0.0420447 0.05133 -0.0265637
vn 0.54661 0.757977 -0.355934
v 0.0297749 0.0562544 -0.0313611
vn 0.376138 0.778325 -0.502723
v 0.0303126 0.0556285 -0.031923
vn 0.38033 0.77517 -0.504441
v 0.0257968 0.0525775 -0.0399948
vn 0.39391 0.760617 -0.516039
v 0.0251675 0.0523058 -0.0408706
vn 0.389992 0.756859 -0.524472
v 0.0240121 0.0524911 -0.0414518
vn 0.364389 0.76075 -0.537103
v 0.0229578 0.0527175 -0.0417696
vn 0.311045 0.774268 -0.551144
v 0.0218987 0.0537716 -0.0407504
vn 0.277981 0.809257 -0.517523
v 0.020384 0.0539528 -0.0412232
vn -0.691702 0.609408 -0.387519
v 0.020384 0.0557356 -0.0384021
vn -0.980597 0.166028 -0.104233
v 0.020384 0.0560815 -0.0378325
vn -0.967715 0.216322 -0.129357
v 0.0402976 0.0512106 -0.0292801
vn 0.563693 0.703734 -0.432444
v 0.0391986 0.0517705 -0.0296715
vn 0.519343 0.739338 -0.428559
v 0.0380573 0.0523305 -0.0300629
vn 0.494533 0.751325 -0.436977
v 0.0345583 0.0537716 -0.0313649
vn 0.463116 0.748535 -0.474573
v 0.0370029 0.0526681 -0.0306481
vn 0.480086 0.747398 -0.459254
v 0.0368033 0.0509553 -0.0336125
vn 0.480587 0.715581 -0.506931
v 0.0357489 0.0512765 -0.0340853
vn 0.444287 0.742489 -0.501317
v 0.0338116 0.0526434 -0.0337636
vn 0.408506 0.749675 -0.520682
v 0.0266211 0.0515647 -0.0408512
vn 0.396516 0.757545 -0.518557
v 0.020384 0.0344775 -0.0569677
vn -0.742329 -0.118348 -0.659501
v 0.0432306 0.0272597 -0.0479155
vn 0.288357 -0.25388 -0.923253
v 0.0443742 0.0265927 -0.0472955
vn 0.999375 -0.00922082 -0.034119
v 0.0408259 0.0514659 -0.0280866
vn 0.537706 0.746421 -0.392082
v 0.0443742 0.0474885 -0.0295669
vn 0.98589 0.144013 -0.0853309
v 0.0443202 0.0474432 -0.0297258
vn 0.609189 0.678384 -0.410711
v 0.0443742 0.046665 -0.0309271
vn 0.986038 0.141738 -0.0874031
v 0.0443742 0.0413041 -0.0396034
vn 0.940025 0.288489 -0.182009
v 0.0413519 0.05077 -0.0285788
vn 0.581802 0.689297 -0.431713
v 0.0261115 0.0511653 -0.0418006
vn 0.389185 0.746079 -0.540279
v 0.023465 0.0520876 -0.0423276
vn 0.330567 0.758586 -0.561491
v 0.0249068 0.0513876 -0.042347
vn 0.384721 0.742679 -0.548104
v 0.0243104 0.0510459 -0.0432266
vn 0.367966 0.740815 -0.561956
v 0.0218494 0.0529275 -0.042068
vn 0.280984 0.788218 -0.547504
v 0.0207386 0.0492795 -0.047714
vn 0.331443 0.757061 -0.563031
v 0.020384 0.0493536 -0.0478186
vn -0.696528 0.580649 -0.42154
v 0.020384 0.053891 -0.0413201
vn -0.558229 0.694219 -0.454357
v 0.0398819 0.050873 -0.0303342
vn 0.547984 0.700926 -0.456527
v 0.0388275 0.0512765 -0.0309503
vn 0.533567 0.709905 -0.459718
v 0.0376839 0.0518076 -0.0313262
vn 0.489579 0.742463 -0.457232
v 0.0373105 0.0512847 -0.0325585
vn 0.483825 0.742556 -0.463168
v 0.0338374 0.044771 -0.044858
vn 0.47537 0.702166 -0.530081
v 0.033612 0.0461997 -0.0430794
vn 0.450323 0.726534 -0.518997
v 0.0351313 0.05091 -0.0351432
vn 0.437958 0.734316 -0.518627
v 0.0383649 0.0509347 -0.0320043
vn 0.516782 0.709911 -0.478499
v 0.0434043 0.0416541 -0.0402234
vn 0.525607 0.705312 -0.47568
v 0.0428736 0.0412918 -0.0412774
vn 0.4816 0.707632 -0.517029
v 0.0325576 0.0465126 -0.0435134
vn 0.416571 0.742732 -0.52423
v 0.0313388 0.0476284 -0.0428585
vn 0.404399 0.749897 -0.52356
v 0.0271659 0.0508812 -0.0414208
vn 0.401956 0.749627 -0.525824
v 0.020384 0.0359392 -0.0571227
vn -0.983046 -0.019277 -0.182343
v 0.0278446 0.0343993 -0.0544063
vn 0.328266 -0.112985 -0.937804
v 0.0276144 0.0333205 -0.0543172
vn 0.318352 -0.162669 -0.933912
v 0.0376628 0.0296519 -0.0502406
vn 0.317077 -0.168774 -0.933262
v 0.0434114 0.0280708 -0.0480007
vn 0.324366 -0.149681 -0.934014
v 0.0442004 0.0280708 -0.0477179
vn 0.364174 -0.0511939 -0.929923
v 0.0443742 0.0278732 -0.0476171
vn 0.999261 -0.00888559 -0.0373888
v 0.0443742 0.0473938 -0.0297258
vn 0.999992 0.00339604 -0.00202972
v 0.0443742 0.0473402 -0.0298149
vn 0.999992 0.0033728 -0.00204617
v 0.0443742 0.0405877 -0.0406962
vn 0.997938 0.0533372 -0.0357086
v 0.0318695 0.0461215 -0.0445674
vn 0.38454 0.729693 -0.5654
v 0.0234321 0.0512435 -0.0434824
vn 0.333258 0.756312 -0.562967
v 0.0240027 0.0477231 -0.0477605
vn 0.379634 0.726483 -0.572801
v 0.0229484 0.0479908 -0.0481093
vn 0.367495 0.725746 -0.581585
v 0.0218494 0.0482461 -0.0484386
vn 0.336907 0.751264 -0.567535
v 0.02091 0.0525281 -0.0430949
vn 0.274557 0.783775 -0.557059
v 0.020384 0.0526228 -0.0432189
vn -0.980058 0.1625 -0.114369
v 0.020384 0.0530881 -0.0425407
vn -0.87278 0.40591 -0.271096
v 0.0210157 0.0478178 -0.0494694
vn 0.326802 0.723328 -0.608274
v 0.020384 0.0487154 -0.0486518
vn -0.991695 0.102069 -0.0782495
v 0.0339548 0.0432722 -0.0465205
vn 0.430826 0.675909 -0.597943
v 0.0329169 0.0443757 -0.0459779
vn 0.410616 0.685894 -0.600785
v 0.0329169 0.0450468 -0.0451874
vn 0.401889 0.709157 -0.579294
v 0.0330178 0.0458827 -0.0440055
vn 0.42611 0.727887 -0.537225
v 0.0424157 0.0407359 -0.0423857
vn 0.481059 0.681471 -0.551524
v 0.0419555 0.0401842 -0.0434475
vn 0.479546 0.673991 -0.561937
v 0.036815 0.0414771 -0.0462763
vn 0.475492 0.671598 -0.56821
v 0.0440266 0.0407565 -0.0408357
vn 0.518967 0.693607 -0.499583
v 0.0443742 0.0402418 -0.0411767
vn 0.995668 0.0744894 -0.0556386
v 0.0443742 0.0399372 -0.0415797
vn 0.99346 0.0899676 -0.070303
v 0.0435946 0.0402377 -0.0419517
vn 0.501954 0.669636 -0.547385
v 0.020384 0.0359803 -0.0571266
vn -0.995508 -0.00157615 -0.0946596
v 0.0286359 0.0343993 -0.0541118
vn 0.353617 -0.0696551 -0.932793
v 0.0218494 0.0359803 -0.056619
vn 0.329753 0.00284848 -0.944063
v 0.0233687 0.0359803 -0.0560842
vn 0.332414 0.0102266 -0.943078
v 0.027962 0.0359803 -0.0544644
vn 0.354842 -0.00788037 -0.934893
v 0.0434631 0.0296519 -0.0480317
vn 0.415736 0.0242902 -0.909161
v 0.0443742 0.0280708 -0.0476404
vn 0.999472 0.000679765 -0.0324847
v 0.0297561 0.0343993 -0.0536816
vn 0.360577 -0.0539783 -0.931166
v 0.0400627 0.0318135 -0.0495043
vn 0.37102 -0.0297982 -0.928147
v 0.0400627 0.0321512 -0.0495043
vn 0.407148 0.0431403 -0.912343
v 0.0320457 0.044631 -0.0462725
vn 0.388151 0.70889 -0.588909
v 0.0272645 0.0446228 -0.0494152
vn 0.382319 0.713529 -0.587119
v 0.0274336 0.0431281 -0.0511047
vn 0.39645 0.688611 -0.607159
v 0.0235472 0.0471179 -0.0487758
vn 0.37051 0.710419 -0.598353
v 0.0218494 0.0476202 -0.0492292
vn 0.357848 0.713844 -0.601974
v 0.020384 0.0473814 -0.0502754
vn -0.97847 0.154143 -0.137243
v 0.020384 0.047402 -0.0502522
vn -0.996261 0.064923 -0.0570033
v 0.020384 0.0479496 -0.0496283
vn -0.994744 0.0790459 -0.0650855
v 0.020384 0.0486496 -0.048737
vn -0.992898 0.093616 -0.073418
v 0.0217366 0.0467391 -0.0502948
vn 0.349151 0.702032 -0.620681
v 0.0212646 0.0447751 -0.0527632
vn 0.328168 0.704776 -0.628965
v 0.0351008 0.0413824 -0.0477566
vn 0.462231 0.661879 -0.590134
v 0.0340464 0.0417406 -0.0481558
vn 0.424756 0.666866 -0.612268
v 0.0430098 0.0397931 -0.0430057
vn 0.501442 0.642007 -0.579986
v 0.0386091 0.0400442 -0.0464585
vn 0.482881 0.65934 -0.576279
v 0.0375219 0.0403036 -0.0470397
vn 0.469436 0.661725 -0.584593
v 0.0362045 0.0411065 -0.047187
vn 0.468267 0.662152 -0.585048
v 0.0443742 0.0395254 -0.0420563
vn 0.993381 0.0868213 -0.0752143
v 0.020384 0.0372444 -0.057022
vn -0.999193 0.00332141 -0.0400338
v 0.020384 0.037475 -0.0570026
vn -0.909282 0.042423 -0.414013
v 0.02776 0.0375614 -0.0543908
vn 0.343564 0.139165 -0.928761
v 0.0287533 0.0359803 -0.0541467
vn 0.38604 0.0455627 -0.921356
v 0.0442521 0.0296519 -0.047652
vn 0.435382 0.0637688 -0.897985
v 0.0443742 0.0295078 -0.0476016
vn 0.999545 0.00090754 -0.0301593
v 0.0357372 0.0343993 -0.0512636
vn 0.390637 0.0436604 -0.919509
v 0.0365285 0.0343993 -0.0509187
vn 0.411157 0.0799749 -0.908049
v 0.0376628 0.0343993 -0.0503917
vn 0.430452 0.121386 -0.894414
v 0.03995 0.0332093 -0.0494423
vn 0.468867 0.146975 -0.870955
v 0.0443742 0.0296519 -0.04759
vn 0.978743 0.0280313 -0.203168
v 0.0332785 0.0412465 -0.0492098
vn 0.419301 0.659057 -0.624364
v 0.0293263 0.0417406 -0.0513256
vn 0.418482 0.647925 -0.636448
v 0.0279784 0.0421811 -0.0517441
vn 0.406291 0.655537 -0.636553
v 0.0274688 0.0415635 -0.0526935
vn 0.386054 0.606003 -0.695501
v 0.0265953 0.042597 -0.0521432
vn 0.377411 0.663984 -0.645512
v 0.0254845 0.0429099 -0.0524687
vn 0.371434 0.665638 -0.647273
v 0.0244301 0.0432023 -0.0527632
vn 0.356639 0.689423 -0.63048
v 0.0265953 0.0433422 -0.0513527
vn 0.357821 0.701221 -0.616647
v 0.0230916 0.0465126 -0.0497755
vn 0.360214 0.704077 -0.611981
v 0.020384 0.0442687 -0.0537708
vn -0.986156 0.123353 -0.110817
v 0.022319 0.0445198 -0.0524726
vn 0.347756 0.699893 -0.623871
v 0.02184 0.0438899 -0.0534336
vn 0.345781 0.695918 -0.629392
v 0.0213633 0.0432599 -0.0543908
vn 0.352145 0.620824 -0.700408
v 0.0369019 0.0399536 -0.047931
vn 0.467013 0.627101 -0.623412
v 0.0345842 0.0407853 -0.0487603
vn 0.45107 0.642952 -0.61899
v 0.0340675 0.0401924 -0.0497484
vn 0.436128 0.615587 -0.656388
v 0.0443742 0.0391878 -0.0424439
vn 0.997011 0.0578404 -0.0512141
v 0.0443742 0.0389078 -0.0427539
vn 0.997096 0.0563028 -0.0512773
v 0.0443742 0.0384467 -0.0432576
vn 0.900802 0.308465 -0.305622
v 0.0396635 0.0396366 -0.0460128
vn 0.505132 0.618723 -0.601684
v 0.0379563 0.0395378 -0.0475125
vn 0.496449 0.611395 -0.616226
v 0.020384 0.0390272 -0.0566965
vn -0.974509 0.043696 -0.22005
v 0.0218494 0.0375614 -0.0564717
vn 0.326252 0.182905 -0.927419
v 0.0285514 0.0375614 -0.0540498
vn 0.400852 0.200929 -0.893837
v 0.0321138 0.0365609 -0.052647
vn 0.3947 0.123677 -0.910448
v 0.020384 0.0391425 -0.0566732
vn -0.934839 0.0854451 -0.344637
v 0.0274994 0.038492 -0.0542823
vn 0.356275 0.267128 -0.895383
v 0.032776 0.0360133 -0.0524222
vn 0.392645 0.0713553 -0.916918
v 0.0344996 0.0359803 -0.051686
vn 0.411787 0.158566 -0.897379
v 0.0389285 0.0343993 -0.0497562
vn 0.472843 0.205112 -0.856942
v 0.0355188 0.0359803 -0.0511822
vn 0.445283 0.175685 -0.877985
v 0.0443742 0.0328182 -0.0470281
vn 0.944117 0.0880803 -0.317623
v 0.0443742 0.0324517 -0.0471056
vn 0.989416 0.028614 -0.142256
v 0.0443742 0.0312577 -0.047342
vn 0.989627 0.0244906 -0.14156
v 0.0285232 0.0411806 -0.0523796
vn 0.427872 0.572159 -0.699686
v 0.0292066 0.0401266 -0.0527749
vn 0.40266 0.480922 -0.778832
v 0.0242939 0.0415553 -0.0542668
vn 0.365374 0.495871 -0.787791
v 0.020384 0.0434822 -0.0546272
vn -0.99679 0.0533862 -0.0596627
v 0.020384 0.0423458 -0.0554913
vn -0.948507 0.185612 -0.256675
v 0.0351219 0.0397807 -0.0493648
vn 0.472331 0.565382 -0.6762
v 0.0385927 0.0384837 -0.0480163
vn 0.505354 0.531822 -0.679546
v 0.0344949 0.0391466 -0.0502871
vn 0.471938 0.533627 -0.701796
v 0.0332315 0.0395666 -0.0508024
vn 0.436549 0.549823 -0.712123
v 0.0443742 0.0379443 -0.0437188
vn 0.982079 0.127049 -0.139211
v 0.0402952 0.0385825 -0.046536
vn 0.516033 0.589751 -0.621211
v 0.0391281 0.0390602 -0.0470242
vn 0.504336 0.603985 -0.617128
v 0.0297561 0.0375614 -0.0534956
vn 0.408496 0.223411 -0.884996
v 0.020384 0.0408142 -0.0562082
vn -0.999387 0.00940178 -0.0337358
v 0.0214384 0.0403695 -0.0559641
vn 0.332167 0.267591 -0.904467
v 0.0270133 0.039546 -0.0540769
vn 0.369343 0.363817 -0.855116
v 0.0280864 0.0390684 -0.0537863
vn 0.394691 0.345179 -0.851511
v 0.0307306 0.0385743 -0.0527477
vn 0.414893 0.337053 -0.845138
v 0.0329169 0.0375614 -0.0520347
vn 0.410887 0.240921 -0.879277
v 0.0209734 0.0414235 -0.0557819
vn 0.350759 0.372171 -0.859335
v 0.0353262 0.0368162 -0.0510931
vn 0.465149 0.285209 -0.838029
v 0.0386444 0.0354986 -0.0496128
vn 0.492083 0.274338 -0.826192
v 0.0443742 0.034144 -0.046598
vn 0.962708 0.100363 -0.251239
v 0.0259589 0.0400607 -0.0542939
vn 0.368968 0.42105 -0.828601
v 0.0338703 0.0385125 -0.0511667
vn 0.460717 0.44308 -0.769038
v 0.030261 0.0396284 -0.0524881
vn 0.418765 0.396881 -0.816775
v 0.0297443 0.0391178 -0.052988
vn 0.399174 0.379146 -0.834811
v 0.020384 0.0423294 -0.0555029
vn -0.963705 0.135956 -0.22976
v 0.0413496 0.0380926 -0.0460981
vn 0.528027 0.555282 -0.642534
v 0.0443742 0.0367709 -0.0447495
vn 0.953921 0.19398 -0.228925
v 0.0429488 0.0365115 -0.0461252
vn 0.528708 0.523677 -0.668005
v 0.0443742 0.0349469 -0.0461795
vn 0.936822 0.185519 -0.296558
v 0.0401355 0.0368821 -0.0479814
vn 0.511968 0.448761 -0.732463
v 0.0391704 0.0374708 -0.0482798
vn 0.501819 0.467538 -0.727726
v 0.0377379 0.037652 -0.04914
vn 0.495733 0.453845 -0.740455
v 0.036761 0.0382408 -0.049419
vn 0.488473 0.481354 -0.7278
v 0.0443742 0.0376314 -0.0440016
vn 0.982058 0.124777 -0.141396
v 0.020384 0.0408389 -0.0562005
vn -0.998134 0.0200802 -0.0576624
v 0.0344386 0.0374297 -0.0513372
vn 0.429905 0.33444 -0.838649
v 0.020384 0.0416582 -0.0558982
vn -0.999702 0.0103415 -0.0220982
v 0.0383156 0.0365527 -0.0493997
vn 0.499616 0.379073 -0.778902
v 0.0372612 0.0371867 -0.049729
vn 0.491883 0.436401 -0.753396
v 0.0443742 0.0363715 -0.0450789
vn 0.997615 0.043859 -0.0532953
v 0.0443742 0.0359186 -0.0454509
vn 0.997749 0.0409977 -0.0530707
f 1//1 2//2 3//3
f 1//1 3//3 5//5
f 1//1 5//5 12//12
f 1//1 12//12 23//23
f 1//1 23//23 29//29
f 1//1 29//29 47//47
f 1//1 47//47 73//73
f 1//1 73//73 72//72
f 1//1 72//72 71//71
f 1//1 71//71 70//70
f 1//1 70//70 79//79
f 1//1 79//79 114//114
f 1//1 114//114 138//138
f 1//1 138//138 164//164
f 1//1 164//164 163//163
f 1//1 163//163 190//190
f 1//1 190//190 189//189
f 1//1 189//189 188//188
f 1//1 188//188 216//216
f 1//1 216//216 247//247
f 1//1 247//247 246//246
f 1//1 246//246 215//215
f 1//1 215//215 249//249
f 1//1 249//249 279//279
f 1//1 279//279 278//278
f 1//1 278//278 277//277
f 1//1 277//277 276//276
f 1//1 276//276 309//309
f 1//1 309//309 337//337
f 1//1 337//337 338//338
f 1//1 338//338 361//361
f 1//1 361//361 373//373
f 1//1 373//373 371//371
f 1//1 371//371 347//347
f 1//1 347//347 325//325
f 1//1 325//325 321//321
f 1//1 321//321 290//290
f 1//1 290//290 289//289
f 1//1 289//289 261//261
f 1//1 261//261 230//230
f 1//1 230//230 200//200
f 1//1 200//200 173//173
f 1//1 173//173 145//145
f 1//1 145//145 144//144
f 1//1 144//144 143//143
f 1//1 143//143 120//120
f 1//1 120//120 119//119
f 1//1 119//119 89//89
f 1//1 89//89 87//87
f 1//1 87//87 85//85
f 1//1 85//85 84//84
f 1//1 84//84 83//83
f 1//1 83//83 53//53
f 1//1 53//53 52//52
f 1//1 52//52 51//51
f 1//1 51//51 32//32
f 1//1 32//32 17//17
f 1//1 17//17 8//8
f 1//1 8//8 4//4
f 1//1 4//4 10//10
f 1//1 10//10 22//22
f 1//1 22//22 39//39
f 1//1 39//39 64//64
f 1//1 64//64 92//92
f 1//1 92//92 126//126
f 1//1 126//126 128//128
f 1//1 128//128 102//102
f 1//1 102//102 101//101
f 1//1 101//101 96//96
f 1//1 96//96 95//95
f 1//1 95//95 94//94
f 1//1 94//94 100//100
f 1//1 100//100 99//99
f 1//1 99//99 98//98
f 1//1 98//98 69//69
f 1//1 69//69 43//43
f 1//1 43//43 40//40
f 1//1 40//40 24//24
f 1//1 24//24 13//13
f 1//1 13//13 6//6
f 1//1 6//6 2//2
f 2//2 5//5 3//3
f 2//2 6//6 7//7
f 2//2 7//7 5//5
f 4//4 8//8 9//9
f 4//4 9//9 10//10
f 5//5 7//7 11//11
f 5//5 11//11 12//12
f 6//6 13//13 7//7
f 7//7 14//14 11//11
f 7//7 13//13 15//15
f 7//7 15//15 16//16
f 7//7 16//16 14//14
f 8//8 17//17 18//18
f 8//8 18//18 9//9
f 9//9 18//18 19//19
f 9//9 19//19 20//20
f 9//9 20//20 21//21
f 9//9 21//21 10//10
f 10//10 21//21 20//20
f 10//10 20//20 37//37
f 10//10 37//37 36//36
f 10//10 36//36 35//35
f 10//10 35//35 61//61
f 10//10 61//61 60//60
f 10//10 60//60 59//59
f 10//10 59//59 58//58
f 10//10 58//58 57//57
f 10//10 57//57 56//56
f 10//10 56//56 88//88
f 10//10 88//88 118//118
f 10//10 118//118 146//146
f 10//10 146//146 175//175
f 10//10 175//175 202//202
f 10//10 202//202 236//236
f 10//10 236//236 267//267
f 10//10 267//267 294//294
f 10//10 294//294 299//299
f 10//10 299//299 333//333
f 10//10 333//333 332//332
f 10//10 332//332 331//331
f 10//10 331//331 356//356
f 10//10 356//356 365//365
f 10//10 365//365 377//377
f 10//10 377//377 376//376
f 10//10 376//376 363//363
f 10//10 363//363 370//370
f 10//10 370//370 343//343
f 10//10 343//343 318//318
f 10//10 318//318 317//317
f 10//10 317//317 316//316
f 10//10 316//316 288//288
f 10//10 288//288 259//259
f 10//10 259//259 258//258
f 10//10 258//258 239//239
f 10//10 239//239 207//207
f 10//10 207//207 206//206
f 10//10 206//206 238//238
f 10//10 238//238 237//237
f 10//10 237//237 204//204
f 10//10 204//204 179//179
f 10//10 179//179 149//149
f 10//10 149//149 127//127
f 10//10 127//127 93//93
f 10//10 93//93 65//65
f 10//10 65//65 62//62
f 10//10 62//62 38//38
f 10//10 38//38 22//22
f 11//11 14//14 12//12
f 12//12 14//14 23//23
f 13//13 24//24 25//25
f 13//13 25//25 15//15
f 14//14 16//16 23//23
f 15//15 25//25 26//26
f 15//15 26//26 16//16
f 16//16 27//27 28//28
f 16//16 28//28 29//29
f 16//16 29//29 23//23
f 16//16 26//26 30//30
f 16//16 30//30 31//31
f 16//16 31//31 27//27
f 17//17 32//32 18//18
f 18//18 32//32 33//33
f 18//18 33//33 19//19
f 19//19 33//33 34//34
f 19//19 34//34 35//35
f 19//19 35//35 36//36
f 19//19 36//36 37//37
f 19//19 37//37 20//20
f 22//22 38//38 39//39
f 24//24 40//40 25//25
f 25//25 41//41 42//42
f 25//25 42//42 26//26
f 25//25 40//40 43//43
f 25//25 43//43 41//41
f 26//26 42//42 30//30
f 27//27 44//44 28//28
f 27//27 31//31 45//45
f 27//27 45//45 46//46
f 27//27 46//46 44//44
f 28//28 44//44 29//29
f 29//29 44//44 47//47
f 30//30 42//42 48//48
f 30//30 48//48 49//49
f 30//30 49//49 50//50
f 30//30 50//50 45//45
f 30//30 45//45 31//31
f 32//32 51//51 33//33
f 33//33 51//51 52//52
f 33//33 52//52 53//53
f 33//33 53//53 54//54
f 33//33 54//54 55//55
f 33//33 55//55 56//56
f 33//33 56//56 57//57
f 33//33 57//57 58//58
f 33//33 58//58 59//59
f 33//33 59//59 60//60
f 33//33 60//60 61//61
f 33//33 61//61 34//34
f 34//34 61//61 35//35
f 38//38 62//62 39//39
f 39//39 63//63 64//64
f 39//39 62//62 65//65
f 39//39 65//65 63//63
f 41//41 66//66 42//42
f 41//41 43//43 66//66
f 42//42 67//67 68//68
f 42//42 68//68 48//48
f 42//42 66//66 67//67
f 43//43 69//69 66//66
f 44//44 46//46 70//70
f 44//44 70//70 71//71
f 44//44 71//71 72//72
f 44//44 72//72 73//73
f 44//44 73//73 47//47
f 45//45 50//50 74//74
f 45//45 74//74 75//75
f 45//45 75//75 76//76
f 45//45 76//76 46//46
f 46//46 76//76 77//77
f 46//46 77//77 78//78
f 46//46 78//78 79//79
f 46//46 79//79 70//70
f 48//48 68//68 80//80
f 48//48 80//80 49//49
f 49//49 80//80 81//81
f 49//49 81//81 82//82
f 49//49 82//82 50//50
f 50//50 82//82 74//74
f 53//53 83//83 54//54
f 54//54 83//83 84//84
f 54//54 84//84 85//85
f 54//54 85//85 55//55
f 55//55 85//85 86//86
f 55//55 86//86 87//87
f 55//55 87//87 56//56
f 56//56 87//87 89//89
f 56//56 89//89 88//88
f 63//63 90//90 91//91
f 63//63 91//91 92//92
f 63//63 92//92 64//64
f 63//63 65//65 93//93
f 63//63 93//93 90//90
f 66//66 94//94 95//95
f 66//66 95//95 96//96
f 66//66 96//96 97//97
f 66//66 97//97 67//67
f 66//66 69//69 98//98
f 66//66 98//98 99//99
f 66//66 99//99 100//100
f 66//66 100//100 94//94
f 67//67 97//97 101//101
f 67//67 101//101 102//102
f 67//67 102//102 103//103
f 67//67 103//103 104//104
f 67//67 104//104 105//105
f 67//67 105//105 68//68
f 68//68 105//105 80//80
f 74//74 82//82 106//106
f 74//74 106//106 107//107
f 74//74 107//107 75//75
f 75//75 107//107 76//76
f 76//76 107//107 108//108
f 76//76 108//108 109//109
f 76//76 109//109 110//110
f 76//76 110//110 77//77
f 77//77 110//110 78//78
f 78//78 110//110 109//109
f 78//78 109//109 111//111
f 78//78 111//111 112//112
f 78//78 112//112 79//79
f 79//79 112//112 113//113
f 79//79 113//113 114//114
f 80//80 105//105 115//115
f 80//80 115//115 116//116
f 80//80 116//116 81//81
f 81//81 116//116 117//117
f 81//81 117//117 82//82
f 82//82 117//117 106//106
f 85//85 87//87 86//86
f 88//88 89//89 119//119
f 88//88 119//119 120//120
f 88//88 120//120 118//118
f 90//90 121//121 122//122
f 90//90 122//122 91//91
f 90//90 93//93 123//123
f 90//90 123//123 124//124
f 90//90 124//124 125//125
f 90//90 125//125 121//121
f 91//91 122//122 103//103
f 91//91 103//103 92//92
f 92//92 103//103 126//126
f 93//93 127//127 124//124
f 93//93 124//124 123//123
f 96//96 101//101 97//97
f 102//102 128//128 103//103
f 103//103 129//129 104//104
f 103//103 128//128 126//126
f 103//103 122//122 129//129
f 104//104 129//129 105//105
f 105//105 129//129 130//130
f 105//105 130//130 115//115
f 106//106 117//117 131//131
f 106//106 131//131 132//132
f 106//106 132//132 107//107
f 107//107 132//132 133//133
f 107//107 133//133 134//134
f 107//107 134//134 111//111
f 107//107 111//111 108//108
f 108//108 111//111 109//109
f 111//111 134//134 133//133
f 111//111 133//133 135//135
f 111//111 135//135 136//136
f 111//111 136//136 113//113
f 111//111 113//113 112//112
f 113//113 136//136 137//137
f 113//113 137//137 114//114
f 114//114 137//137 138//138
f 115//115 130//130 139//139
f 115//115 139//139 140//140
f 115//115 140//140 141//141
f 115//115 141//141 116//116
f 116//116 141//141 117//117
f 117//117 141//141 131//131
f 118//118 120//120 142//142
f 118//118 142//142 143//143
f 118//118 143//143 144//144
f 118//118 144//144 145//145
f 118//118 145//145 146//146
f 120//120 143//143 142//142
f 121//121 130//130 122//122
f 121//121 125//125 147//147
f 121//121 147//147 148//148
f 121//121 148//148 130//130
f 122//122 130//130 129//129
f 124//124 127//127 149//149
f 124//124 149//149 150//150
f 124//124 150//150 125//125
f 125//125 150//150 151//151
f 125//125 151//151 147//147
f 130//130 148//148 139//139
f 131//131 152//152 133//133
f 131//131 133//133 132//132
f 131//131 141//141 153//153
f 131//131 153//153 154//154
f 131//131 154//154 155//155
f 131//131 155//155 152//152
f 133//133 156//156 136//136
f 133//133 136//136 135//135
f 133//133 152//152 157//157
f 133//133 157//157 158//158
f 133//133 158//158 159//159
f 133//133 159//159 160//160
f 133//133 160//160 161//161
f 133//133 161//161 156//156
f 136//136 156//156 162//162
f 136//136 162//162 137//137
f 137//137 163//163 164//164
f 137//137 164//164 138//138
f 137//137 162//162 163//163
f 139//139 148//148 147//147
f 139//139 147//147 165//165
f 139//139 165//165 166//166
f 139//139 166//166 167//167
f 139//139 167//167 168//168
f 139//139 168//168 140//140
f 140//140 168//168 141//141
f 141//141 168//168 169//169
f 141//141 169//169 170//170
f 141//141 170//170 171//171
f 141//141 171//171 172//172
f 141//141 172//172 153//153
f 145//145 173//173 174//174
f 145//145 174//174 175//175
f 145//145 175//175 146//146
f 147//147 151//151 176//176
f 147//147 176//176 177//177
f 147//147 177//177 165//165
f 149//149 178//178 150//150
f 149//149 179//179 178//178
f 150//150 178//178 180//180
f 150//150 180//180 151//151
f 151//151 180//180 176//176
f 152//152 155//155 181//181
f 152//152 181//181 157//157
f 153//153 172//172 154//154
f 154//154 172//172 155//155
f 155//155 172//172 182//182
f 155//155 182//182 181//181
f 156//156 161//161 162//162
f 157//157 181//181 182//182
f 157//157 182//182 172//172
f 157//157 172//172 183//183
f 157//157 183//183 184//184
f 157//157 184//184 185//185
f 157//157 185//185 158//158
f 158//158 185//185 186//186
f 158//158 186//186 187//187
f 158//158 187//187 159//159
f 159//159 187//187 162//162
f 159//159 162//162 160//160
f 160//160 162//162 161//161
f 162//162 187//187 188//188
f 162//162 188//188 189//189
f 162//162 189//189 190//190
f 162//162 190//190 163//163
f 165//165 177//177 166//166
f 166//166 177//177 191//191
f 166//166 191//191 192//192
f 166//166 192//192 193//193
f 166//166 193//193 169//169
f 166//166 169//169 167//167
f 167//167 169//169 168//168
f 169//169 193//193 170//170
f 170//170 194//194 171//171
f 170//170 193//193 195//195
f 170//170 195//195 196//196
f 170//170 196//196 194//194
f 171//171 194//194 172//172
f 172//172 194//194 196//196
f 172//172 196//196 197//197
f 172//172 197//197 198//198
f 172//172 198//198 199//199
f 172//172 199//199 183//183
f 173//173 200//200 201//201
f 173//173 201//201 174//174
f 174//174 201//201 175//175
f 175//175 201//201 202//202
f 176//176 191//191 203//203
f 176//176 203//203 177//177
f 176//176 180//180 178//178
f 176//176 178//178 179//179
f 176//176 179//179 204//204
f 176//176 204//204 205//205
f 176//176 205//205 206//206
f 176//176 206//206 207//207
f 176//176 207//207 208//208
f 176//176 208//208 191//191
f 177//177 203//203 191//191
f 183//183 199//199 184//184
f 184//184 199//199 209//209
f 184//184 209//209 185//185
f 185//185 210//210 186//186
f 185//185 209//209 211//211
f 185//185 211//211 212//212
f 185//185 212//212 210//210
f 186//186 213//213 187//187
f 186//186 210//210 214//214
f 186//186 214//214 215//215
f 186//186 215//215 213//213
f 187//187 213//213 216//216
f 187//187 216//216 188//188
f 191//191 217//217 218//218
f 191//191 218//218 192//192
f 191//191 208//208 207//207
f 191//191 207//207 217//217
f 192//192 218//218 193//193
f 193//193 218//218 219//219
f 193//193 219//219 195//195
f 195//195 219//219 220//220
f 195//195 220//220 196//196
f 196//196 221//221 222//222
f 196//196 222//222 223//223
f 196//196 223//223 197//197
f 196//196 220//220 224//224
f 196//196 224//224 225//225
f 196//196 225//225 226//226
f 196//196 226//226 221//221
f 197//197 223//223 198//198
f 198//198 223//223 227//227
f 198//198 227//227 228//228
f 198//198 228//228 229//229
f 198//198 229//229 199//199
f 199//199 229//229 209//209
f 200//200 230//230 231//231
f 200//200 231//231 232//232
f 200//200 232//232 201//201
f 201//201 233//233 234//234
f 201//201 234//234 235//235
f 201//201 235//235 236//236
f 201//201 236//236 202//202
f 201//201 232//232 233//233
f 204//204 237//237 205//205
f 205//205 237//237 238//238
f 205//205 238//238 206//206
f 207//207 239//239 225//225
f 207//207 225//225 217//217
f 209//209 229//229 240//240
f 209//209 240//240 211//211
f 210//210 241//241 214//214
f 210//210 212//212 241//241
f 211//211 240//240 212//212
f 212//212 240//240 242//242
f 212//212 242//242 243//243
f 212//212 243//243 244//244
f 212//212 244//244 214//214
f 212//212 214//214 241//241
f 213//213 245//245 246//246
f 213//213 246//246 247//247
f 213//213 247//247 216//216
f 213//213 215//215 245//245
f 214//214 244//244 215//215
f 215//215 246//246 245//245
f 215//215 244//244 248//248
f 215//215 248//248 249//249
f 217//217 225//225 218//218
f 218//218 225//225 224//224
f 218//218 224//224 219//219
f 219//219 224//224 220//220
f 221//221 250//250 251//251
f 221//221 251//251 252//252
f 221//221 252//252 240//240
f 221//221 240//240 253//253
f 221//221 253//253 222//222
f 221//221 226//226 254//254
f 221//221 254//254 255//255
f 221//221 255//255 256//256
f 221//221 256//256 250//250
f 222//222 253//253 227//227
f 222//222 227//227 223//223
f 225//225 239//239 257//257
f 225//225 257//257 226//226
f 226//226 257//257 258//258
f 226//226 258//258 259//259
f 226//226 259//259 260//260
f 226//226 260//260 254//254
f 227//227 253//253 240//240
f 227//227 240//240 229//229
f 227//227 229//229 228//228
f 230//230 261//261 231//231
f 231//231 262//262 235//235
f 231//231 235//235 234//234
f 231//231 234//234 232//232
f 231//231 261//261 263//263
f 231//231 263//263 264//264
f 231//231 264//264 265//265
f 231//231 265//265 262//262
f 232//232 234//234 233//233
f 235//235 266//266 267//267
f 235//235 267//267 236//236
f 235//235 262//262 268//268
f 235//235 268//268 265//265
f 235//235 265//265 269//269
f 235//235 269//269 270//270
f 235//235 270//270 266//266
f 239//239 258//258 257//257
f 240//240 252//252 271//271
f 240//240 271//271 272//272
f 240//240 272//272 242//242
f 242//242 272//272 243//243
f 243//243 272//272 273//273
f 243//243 273//273 274//274
f 243//243 274//274 275//275
f 243//243 275//275 244//244
f 244//244 275//275 248//248
f 248//248 276//276 277//277
f 248//248 277//277 278//278
f 248//248 278//278 279//279
f 248//248 279//279 249//249
f 248//248 275//275 280//280
f 248//248 280//280 281//281
f 248//248 281//281 276//276
f 250//250 256//256 282//282
f 250//250 282//282 283//283
f 250//250 283//283 273//273
f 250//250 273//273 251//251
f 251//251 271//271 252//252
f 251//251 273//273 271//271
f 254//254 260//260 284//284
f 254//254 284//284 255//255
f 255//255 284//284 285//285
f 255//255 285//285 256//256
f 256//256 285//285 286//286
f 256//256 286//286 287//287
f 256//256 287//287 282//282
f 259//259 288//288 260//260
f 260//260 288//288 284//284
f 261//261 289//289 263//263
f 262//262 265//265 268//268
f 263//263 289//289 290//290
f 263//263 290//290 264//264
f 264//264 290//290 265//265
f 265//265 290//290 291//291
f 265//265 291//291 292//292
f 265//265 292//292 269//269
f 266//266 293//293 294//294
f 266//266 294//294 267//267
f 266//266 270//270 293//293
f 269//269 292//292 270//270
f 270//270 295//295 296//296
f 270//270 296//296 297//297
f 270//270 297//297 298//298
f 270//270 298//298 299//299
f 270//270 299//299 293//293
f 270//270 292//292 295//295
f 271//271 273//273 272//272
f 273//273 283//283 300//300
f 273//273 300//300 301//301
f 273//273 301//301 302//302
f 273//273 302//302 303//303
f 273//273 303//303 304//304
f 273//273 304//304 305//305
f 273//273 305//305 306//306
f 273//273 306//306 307//307
f 273//273 307//307 308//308
f 273//273 308//308 274//274
f 274//274 308//308 275//275
f 275//275 308//308 280//280
f 276//276 281//281 309//309
f 280//280 310//310 281//281
f 280//280 308//308 306//306
f 280//280 306//306 310//310
f 281//281 310//310 311//311
f 281//281 311//311 312//312
f 281//281 312//312 309//309
f 282//282 287//287 313//313
f 282//282 313//313 283//283
f 283//283 313//313 314//314
f 283//283 314//314 315//315
f 283//283 315//315 300//300
f 284//284 288//288 316//316
f 284//284 316//316 317//317
f 284//284 317//317 318//318
f 284//284 318//318 319//319
f 284//284 319//319 285//285
f 285//285 319//319 320//320
f 285//285 320//320 313//313
f 285//285 313//313 286//286
f 286//286 313//313 287//287
f 290//290 321//321 322//322
f 290//290 322//322 291//291
f 291//291 323//323 324//324
f 291//291 324//324 292//292
f 291//291 322//322 321//321
f 291//291 321//321 325//325
f 291//291 325//325 326//326
f 291//291 326//326 323//323
f 292//292 324//324 327//327
f 292//292 327//327 295//295
f 293//293 299//299 294//294
f 295//295 327//327 328//328
f 295//295 328//328 296//296
f 296//296 328//328 297//297
f 297//297 329//329 298//298
f 297//297 328//328 330//330
f 297//297 330//330 329//329
f 298//298 329//329 331//331
f 298//298 331//331 332//332
f 298//298 332//332 333//333
f 298//298 333//333 299//299
f 300//300 315//315 301//301
f 301//301 303//303 302//302
f 301//301 315//315 303//303
f 303//303 306//306 305//305
f 303//303 305//305 304//304
f 303//303 315//315 334//334
f 303//303 334//334 335//335
f 303//303 335//335 336//336
f 303//303 336//336 312//312
f 303//303 312//312 306//306
f 306//306 312//312 311//311
f 306//306 311//311 310//310
f 306//306 308//308 307//307
f 309//309 312//312 337//337
f 312//312 336//336 338//338
f 312//312 338//338 337//337
f 313//313 339//339 315//315
f 313//313 315//315 314//314
f 313//313 320//320 340//340
f 313//313 340//340 339//339
f 315//315 339//339 341//341
f 315//315 341//341 342//342
f 315//315 342//342 334//334
f 318//318 343//343 344//344
f 318//318 344//344 319//319
f 319//319 344//344 345//345
f 319//319 345//345 320//320
f 320//320 345//345 340//340
f 323//323 346//346 324//324
f 323//323 326//326 346//346
f 324//324 328//328 327//327
f 324//324 346//346 328//328
f 325//325 347//347 348//348
f 325//325 348//348 326//326
f 326//326 349//349 350//350
f 326//326 350//350 351//351
f 326//326 351//351 352//352
f 326//326 352//352 346//346
f 326//326 348//348 353//353
f 326//326 353//353 349//349
f 328//328 346//346 352//352
f 328//328 352//352 354//354
f 328//328 354//354 330//330
f 329//329 330//330 354//354
f 329//329 354//354 355//355
f 329//329 355//355 331//331
f 331//331 355//355 356//356
f 334//334 342//342 335//335
f 335//335 357//357 336//336
f 335//335 342//342 358//358
f 335//335 358//358 359//359
f 335//335 359//359 360//360
f 335//335 360//360 349//349
f 335//335 349//349 357//357
f 336//336 357//357 353//353
f 336//336 353//353 361//361
f 336//336 361//361 338//338
f 339//339 340//340 341//341
f 340//340 345//345 344//344
f 340//340 344//344 362//362
f 340//340 362//362 363//363
f 340//340 363//363 364//364
f 340//340 364//364 365//365
f 340//340 365//365 366//366
f 340//340 366//366 367//367
f 340//340 367//367 368//368
f 340//340 368//368 369//369
f 340//340 369//369 358//358
f 340//340 358//358 341//341
f 341//341 358//358 342//342
f 343//343 370//370 344//344
f 344//344 370//370 362//362
f 347//347 371//371 348//348
f 348//348 371//371 353//353
f 349//349 360//360 350//350
f 349//349 353//353 357//357
f 350//350 360//360 351//351
f 351//351 360//360 359//359
f 351//351 359//359 358//358
f 351//351 358//358 372//372
f 351//351 372//372 352//352
f 352//352 372//372 354//354
f 353//353 371//371 373//373
f 353//353 373//373 361//361
f 354//354 372//372 358//358
f 354//354 358//358 374//374
f 354//354 374//374 355//355
f 355//355 374//374 356//356
f 356//356 374//374 365//365
f 358//358 369//369 368//368
f 358//358 368//368 375//375
f 358//358 375//375 374//374
f 362//362 370//370 363//363
f 363//363 376//376 364//364
f 364//364 376//376 377//377
f 364//364 377//377 365//365
f 365//365 374//374 366//366
f 366//366 374//374 368//368
f 366//366 368//368 367//367
f 368//368 374//374 375//375
