# Created by Open3D 
# object name: part_027
# number of vertices: 149
# number of triangles: 294
v 0.0534424 -0.0193208 0.0379623
vn 0.210615 -0.707602 -0.674493
v 0.034481 -0.0193208 0.0552521
vn -0.672726 -0.117539 -0.730496
v 0.0344754 -7.929e-05 0.0547325
vn -0.776828 0.4802 -0.407365
v 0.0534424 -7.929e-05 0.037777
vn 0.154072 0.731127 -0.664616
v 0.0534424 -0.0193208 0.0590349
vn 0.99847 -0.0540505 0.0116326
v 0.0344754 -0.018784 0.0553429
vn -0.999998 -0.000347929 -0.00216235
v 0.0344754 -0.0193208 0.0578285
vn -0.710113 -0.704087 -6.45714e-06
v 0.0344754 -7.929e-05 0.0747985
vn -0.278292 0.960496 0.000359232
v 0.0534424 -7.929e-05 0.0591294
vn 0.709057 0.705151 4.64202e-07
v 0.0534424 -0.0145213 0.0602632
vn 0.999566 -0.00725406 0.028551
v 0.0531936 -0.0193208 0.0593184
vn 0.231516 -0.951202 0.203998
v 0.0344754 -0.0193208 0.072451
vn -0.832454 -0.554094 0.000486794
v 0.0344754 -8.68247e-05 0.0748784
vn -0.999999 0.000412591 0.00129084
v 0.0345014 -7.929e-05 0.0748712
vn 0.0105522 0.999451 0.0313927
v 0.0532827 -7.929e-05 0.0618075
vn 9.13615e-05 1 2.17785e-05
v 0.0534424 -8.11735e-05 0.0616513
vn 0.999917 0.00866643 0.00948353
v 0.0534424 -0.0131161 0.060612
vn 0.995517 -0.0224428 0.0918808
v 0.0528297 -0.0190872 0.0597908
vn 0.696881 -0.17402 0.695754
v 0.0527963 -0.0193208 0.0597544
vn 0.0109832 -0.999879 0.0110074
v 0.0345144 -0.0193208 0.0724329
vn 0.371626 -0.537285 0.757112
v 0.0344754 -0.0130482 0.0737956
vn -0.969699 -0.0507379 0.238974
v 0.0344754 -0.000397627 0.0749002
vn -0.994211 -0.00288122 0.107407
v 0.0360834 -0.000397627 0.0743697
vn 0.331293 0.0303396 0.94304
v 0.0360927 -7.929e-05 0.0743225
vn 0.00545797 0.999861 0.0157617
v 0.0526533 -7.929e-05 0.0624398
vn 0.0728711 0.994373 0.0768955
v 0.0525178 -0.000397627 0.0626324
vn 0.694099 0.114838 0.710661
v 0.0533069 -0.000397627 0.0618402
vn 0.713208 0.0541919 0.698854
v 0.0534424 -0.000397627 0.0616985
vn 0.995083 0.00413296 0.0989558
v 0.0534424 -0.011466 0.0609936
vn 0.99956 -0.0059464 0.0290452
v 0.0529671 -0.011466 0.0615168
vn 0.717145 -0.15033 0.680517
v 0.0527907 -0.0130482 0.0613206
vn 0.709098 -0.166592 0.685148
v 0.0523451 -0.0193208 0.060165
vn 0.073349 -0.994017 0.0809325
v 0.0526923 -0.0138639 0.0612188
vn 0.690462 -0.173446 0.702267
v 0.0515857 -0.00988559 0.0632865
vn 0.692847 -0.168056 0.701228
v 0.0507742 -0.00988559 0.064075
vn 0.680617 -0.177962 0.710697
v 0.0521743 -0.0177932 0.0607464
vn 0.663407 -0.190509 0.7236
v 0.035077 -0.0193208 0.0721494
vn 0.15234 -0.941698 0.299997
v 0.0385046 -0.0107954 0.0723093
vn 0.440022 -0.191926 0.877237
v 0.0344754 -0.012404 0.0739264
vn -0.987176 -0.030585 0.156678
v 0.0376635 -0.00988559 0.0729053
vn 0.424816 -0.164859 0.890142
v 0.0344754 -0.00516515 0.0746895
vn -0.99669 -0.00359392 0.0812198
v 0.0360834 -0.0019799 0.0743806
vn 0.300214 -0.040711 0.953003
v 0.0371882 -0.0019799 0.0739954
vn 0.359507 -0.016573 0.932995
v 0.0371121 -0.000397627 0.07397
vn 0.391416 0.0514445 0.918775
v 0.0363693 -7.929e-05 0.0742243
vn 0.0124164 0.999402 0.0322608
v 0.0485777 -7.929e-05 0.0662735
vn 0.0120206 0.999846 0.0127892
v 0.0484663 -0.000397627 0.0664697
vn 0.672883 0.177083 0.718241
v 0.0478275 -0.0019799 0.0674436
vn 0.666979 0.15269 0.729263
v 0.0479278 -0.00302344 0.0675272
vn 0.677935 0.0683578 0.731937
v 0.0495358 -0.00424028 0.0659683
vn 0.718949 0.0330017 0.694279
v 0.0534424 -0.00173314 0.0617494
vn 0.99941 0.00128144 0.0343259
v 0.0525716 -0.0019799 0.0626797
vn 0.725775 0.0258843 0.687445
v 0.0534424 -0.00988559 0.0612843
vn 0.999879 -0.00245193 0.015383
v 0.0531008 -0.00988559 0.0616731
vn 0.740394 -0.099208 0.664811
v 0.0523748 -0.00988559 0.0624653
vn 0.722803 -0.129732 0.678768
v 0.0519756 -0.0193208 0.0604994
vn 0.0633823 -0.995512 0.0702755
v 0.0509785 -0.0083052 0.0642386
vn 0.736074 -0.0724989 0.673008
v 0.0501875 -0.0083052 0.0650235
vn 0.688548 -0.151646 0.709158
v 0.0493575 -0.0083052 0.065812
vn 0.649388 -0.190839 0.736122
v 0.0512236 -0.0188857 0.0612952
vn 0.63749 -0.205535 0.742538
v 0.0517286 -0.0193208 0.060721
vn 0.0774898 -0.993201 0.0868706
v 0.0374054 -0.0193208 0.0709648
vn 0.152865 -0.941551 0.300188
v 0.0386736 -0.00988559 0.0724038
vn 0.465274 -0.162897 0.870048
v 0.0382168 -0.0193208 0.0705505
vn 0.231217 -0.861726 0.451627
v 0.0401219 -0.0140466 0.070754
vn 0.44745 -0.1952 0.872746
v 0.0403224 -0.0130482 0.070874
vn 0.487688 -0.19401 0.851188
v 0.0391174 -0.0113793 0.0718624
vn 0.464516 -0.177502 0.867593
v 0.0344754 -0.011466 0.0741044
vn -0.98713 -0.029729 0.157132
v 0.0389391 -0.0083052 0.0725383
vn 0.443403 -0.132518 0.886472
v 0.0376635 -0.0083052 0.0731633
vn 0.418518 -0.131031 0.898706
v 0.0344754 -0.0113285 0.0741299
vn -0.695054 -0.113281 0.709977
v 0.0344754 -0.00672105 0.0746204
vn -0.996693 -0.00450402 0.081132
v 0.0344754 -0.00830709 0.0745151
vn -0.965882 -0.0208426 0.258141
v 0.0360834 -0.00356028 0.0742752
vn 0.326346 -0.0628948 0.943156
v 0.0370601 -0.00356028 0.0739373
vn 0.344518 -0.0707609 0.936109
v 0.0378511 -0.00356028 0.0736211
vn 0.39353 -0.0867175 0.915213
v 0.0379792 -0.0019799 0.0736575
vn 0.419949 -6.01315e-06 0.907547
v 0.0379012 -0.000397627 0.0735921
vn 0.453498 0.0886826 0.886834
v 0.0370656 -7.929e-05 0.0739518
vn 0.0110123 0.999653 0.0239491
v 0.0484198 -7.929e-05 0.0664189
vn 0.0118524 0.999845 0.0129897
v 0.0477254 -7.929e-05 0.0670512
vn 0.0233907 0.999391 0.0258821
v 0.0475973 -0.000397627 0.0672583
vn 0.631904 0.188756 0.75171
v 0.0468063 -0.000397627 0.0678724
vn 0.557478 0.18313 0.809742
v 0.0470365 -0.0019799 0.0680396
vn 0.578549 0.141493 0.803281
v 0.0479557 -0.00407829 0.067549
vn 0.661249 0.016752 0.749979
v 0.0459002 -0.0019799 0.0688317
vn 0.547671 0.10856 0.829621
v 0.0459782 -0.00356028 0.0688717
vn 0.543692 0.0136624 0.839174
v 0.0473021 -0.00355463 0.0679778
vn 0.56146 0.0319182 0.826888
v 0.0495395 -0.00514255 0.0659719
vn 0.725449 -0.00271959 0.68827
v 0.0534424 -0.0019799 0.0617567
vn 0.955468 -0.00675689 0.295017
v 0.0533199 -0.0019799 0.0618875
vn 0.727196 0.0213986 0.686096
v 0.0534424 -0.00925456 0.061346
vn 0.994036 -0.00981033 0.108612
v 0.0510305 -0.00672482 0.0642822
vn 0.748123 -0.0322918 0.662773
v 0.0495321 -0.00603352 0.0659646
vn 0.731122 -0.0289083 0.681634
v 0.0494801 -0.00708836 0.0659174
vn 0.673108 -0.0977727 0.733052
v 0.0534424 -0.0083052 0.061426
vn 0.993106 -0.00721716 0.116997
v 0.0477737 -0.00672482 0.0674218
vn 0.587471 -0.145579 0.796043
v 0.0485665 -0.0083052 0.0664697
vn 0.612165 -0.180538 0.769844
v 0.0483084 -0.00988559 0.0662553
vn 0.589873 -0.230818 0.773804
v 0.0511363 -0.0193208 0.0612334
vn 0.257774 -0.904303 0.340278
v 0.0397301 -0.0083052 0.0721131
vn 0.474939 -0.152673 0.866674
v 0.0406307 -0.011466 0.0710338
vn 0.468867 -0.174405 0.865879
v 0.0415888 -0.0105807 0.070685
vn 0.510773 -0.180296 0.840597
v 0.0392436 -0.0193208 0.0700236
vn 0.121367 -0.967533 0.221698
v 0.0403837 -0.0193208 0.0693695
vn 0.392585 -0.665981 0.634308
v 0.0392455 -0.00514255 0.0728144
vn 0.424468 -0.111287 0.898578
v 0.0399139 -0.00707706 0.0722185
vn 0.478599 -0.137099 0.867264
v 0.0400588 -0.00602222 0.0722948
vn 0.453592 -0.122762 0.882714
v 0.0364789 -0.0083052 0.0736974
vn 0.402898 -0.111945 0.908373
v 0.0344754 -0.0107766 0.0742098
vn -0.994989 -0.0141331 0.0989807
v 0.0344754 -0.00997977 0.0743188
vn -0.99819 -0.00701617 0.059732
v 0.0356879 -0.0083052 0.0740281
vn 0.376607 -0.10299 0.92063
v 0.0358903 -0.00672482 0.0741081
vn 0.371378 -0.0898712 0.924122
v 0.0366813 -0.00672482 0.073781
vn 0.383279 -0.0959367 0.918637
v 0.0392455 -0.00356028 0.0729961
vn 0.423046 -0.0818873 0.902401
v 0.0392455 -0.0019799 0.0730397
vn 0.467908 0.0431235 0.882724
v 0.0378325 -7.929e-05 0.0735666
vn 0.00789547 0.99985 0.0154426
v 0.0393996 -0.000252586 0.0727599
vn 0.477371 0.111389 0.871613
v 0.0381389 -7.929e-05 0.0734031
vn 0.0127167 0.999638 0.0237015
v 0.0475397 -7.929e-05 0.067211
vn 0.0110312 0.999843 0.0138544
v 0.0467487 -7.929e-05 0.0678288
vn 0.0272389 0.998818 0.0402601
v 0.040172 -0.000682059 0.072382
vn 0.538854 0.1559 0.827847
v 0.0479557 -0.00449646 0.067549
vn 0.621096 -0.0478432 0.782273
v 0.0402779 -0.0019799 0.0724547
vn 0.533213 0.0431584 0.84488
v 0.0450962 -0.00514255 0.0693187
vn 0.528009 -0.0807186 0.845394
v 0.0458872 -0.00514255 0.0688172
vn 0.535155 -0.0616382 0.842502
v 0.0451872 -0.00356028 0.0693695
vn 0.531913 -0.0288012 0.846309
v 0.0534424 -0.00356028 0.0616912
vn 0.9956 -0.00489212 0.0935781
v 0.0478981 -0.0055513 0.0675054
vn 0.561261 -0.103683 0.821119
v 0.0469827 -0.00672482 0.0679233
vn 0.529651 -0.127516 0.838576
v 0.0446821 -0.00869889 0.069057
vn 0.533749 -0.150121 0.832211
v 0.0475342 -0.0083052 0.0672619
vn 0.564076 -0.204746 0.799936
v 0.0404097 -0.0193208 0.0693514
vn 0.320425 -0.844111 0.429889
v 0.0408275 -0.0083052 0.0715026
vn 0.488804 -0.141817 0.86079
v 0.043453 -0.011466 0.069286
vn 0.535606 -0.19411 0.821856
v 0.0437203 -0.00988559 0.0694495
vn 0.538462 -0.16922 0.825484
v 0.0417373 -0.00952958 0.0707758
vn 0.519506 -0.144688 0.842128
v 0.043271 -0.0124153 0.069166
vn 0.560267 -0.210397 0.801145
v 0.0401665 -0.00514255 0.0723602
vn 0.484068 -0.104203 0.868804
v 0.0406826 -0.00661933 0.0718478
vn 0.498262 -0.128011 0.857524
v 0.0344754 -0.0101323 0.0743007
vn -0.982302 -0.0247516 0.18566
v 0.040289 -0.00356028 0.0724474
vn 0.520017 -0.0452344 0.852957
v 0.0395741 -7.929e-05 0.0726255
vn 0.0191511 0.999401 0.028835
v 0.0393625 -7.929e-05 0.0727454
vn 0.00453664 0.999955 0.00837327
v 0.0472835 -0.00507097 0.0679342
vn 0.536087 -0.0640512 0.841729
v 0.0420994 -0.00672482 0.0710011
vn 0.523984 -0.112773 0.844229
v 0.0409575 -0.00514255 0.0718805
vn 0.523031 -0.0882205 0.847736
v 0.0419044 -0.0083052 0.0708812
vn 0.522102 -0.134386 0.842229
v 0.0445095 -0.00988559 0.0689298
vn 0.543837 -0.176892 0.820336
f 1//1 2//2 3//3
f 1//1 3//3 4//4
f 1//1 4//4 9//9
f 1//1 9//9 16//16
f 1//1 16//16 28//28
f 1//1 28//28 51//51
f 1//1 51//51 90//90
f 1//1 90//90 128//128
f 1//1 128//128 96//96
f 1//1 96//96 92//92
f 1//1 92//92 53//53
f 1//1 53//53 29//29
f 1//1 29//29 17//17
f 1//1 17//17 10//10
f 1//1 10//10 5//5
f 1//1 5//5 11//11
f 1//1 11//11 19//19
f 1//1 19//19 32//32
f 1//1 32//32 56//56
f 1//1 56//56 61//61
f 1//1 61//61 100//100
f 1//1 100//100 133//133
f 1//1 133//133 105//105
f 1//1 105//105 104//104
f 1//1 104//104 64//64
f 1//1 64//64 62//62
f 1//1 62//62 37//37
f 1//1 37//37 20//20
f 1//1 20//20 12//12
f 1//1 12//12 7//7
f 1//1 7//7 2//2
f 2//2 6//6 3//3
f 2//2 7//7 6//6
f 3//3 6//6 7//7
f 3//3 7//7 12//12
f 3//3 12//12 21//21
f 3//3 21//21 39//39
f 3//3 39//39 68//68
f 3//3 68//68 71//71
f 3//3 71//71 110//110
f 3//3 110//110 141//141
f 3//3 141//141 111//111
f 3//3 111//111 73//73
f 3//3 73//73 72//72
f 3//3 72//72 41//41
f 3//3 41//41 22//22
f 3//3 22//22 13//13
f 3//3 13//13 8//8
f 3//3 8//8 14//14
f 3//3 14//14 24//24
f 3//3 24//24 45//45
f 3//3 45//45 79//79
f 3//3 79//79 117//117
f 3//3 117//117 119//119
f 3//3 119//119 144//144
f 3//3 144//144 143//143
f 3//3 143//143 121//121
f 3//3 121//121 120//120
f 3//3 120//120 81//81
f 3//3 81//81 80//80
f 3//3 80//80 46//46
f 3//3 46//46 25//25
f 3//3 25//25 15//15
f 3//3 15//15 9//9
f 3//3 9//9 4//4
f 5//5 10//10 11//11
f 8//8 13//13 14//14
f 9//9 15//15 16//16
f 10//10 17//17 18//18
f 10//10 18//18 11//11
f 11//11 18//18 19//19
f 12//12 20//20 21//21
f 13//13 22//22 14//14
f 14//14 22//22 23//23
f 14//14 23//23 24//24
f 15//15 25//25 16//16
f 16//16 25//25 26//26
f 16//16 26//26 27//27
f 16//16 27//27 28//28
f 17//17 29//29 30//30
f 17//17 30//30 31//31
f 17//17 31//31 18//18
f 18//18 32//32 19//19
f 18//18 31//31 33//33
f 18//18 33//33 34//34
f 18//18 34//34 35//35
f 18//18 35//35 36//36
f 18//18 36//36 32//32
f 20//20 37//37 38//38
f 20//20 38//38 21//21
f 21//21 38//38 40//40
f 21//21 40//40 39//39
f 22//22 41//41 42//42
f 22//22 42//42 23//23
f 23//23 42//42 43//43
f 23//23 43//43 44//44
f 23//23 44//44 45//45
f 23//23 45//45 24//24
f 25//25 46//46 47//47
f 25//25 47//47 48//48
f 25//25 48//48 26//26
f 26//26 48//48 49//49
f 26//26 49//49 27//27
f 27//27 50//50 28//28
f 27//27 49//49 50//50
f 28//28 50//50 52//52
f 28//28 52//52 51//51
f 29//29 53//53 54//54
f 29//29 54//54 30//30
f 30//30 54//54 55//55
f 30//30 55//55 34//34
f 30//30 34//34 31//31
f 31//31 34//34 33//33
f 32//32 36//36 56//56
f 34//34 57//57 58//58
f 34//34 58//58 35//35
f 34//34 55//55 57//57
f 35//35 58//58 59//59
f 35//35 59//59 36//36
f 36//36 60//60 61//61
f 36//36 61//61 56//56
f 36//36 59//59 60//60
f 37//37 62//62 38//38
f 38//38 63//63 40//40
f 38//38 62//62 64//64
f 38//38 64//64 65//65
f 38//38 65//65 66//66
f 38//38 66//66 67//67
f 38//38 67//67 63//63
f 39//39 40//40 68//68
f 40//40 63//63 69//69
f 40//40 69//69 70//70
f 40//40 70//70 71//71
f 40//40 71//71 68//68
f 41//41 72//72 42//42
f 42//42 72//72 73//73
f 42//42 73//73 74//74
f 42//42 74//74 75//75
f 42//42 75//75 43//43
f 43//43 75//75 76//76
f 43//43 76//76 77//77
f 43//43 77//77 44//44
f 44//44 77//77 78//78
f 44//44 78//78 79//79
f 44//44 79//79 45//45
f 46//46 80//80 47//47
f 47//47 80//80 81//81
f 47//47 81//81 82//82
f 47//47 82//82 48//48
f 48//48 83//83 84//84
f 48//48 84//84 49//49
f 48//48 82//82 83//83
f 49//49 85//85 50//50
f 49//49 84//84 86//86
f 49//49 86//86 87//87
f 49//49 87//87 88//88
f 49//49 88//88 85//85
f 50//50 89//89 90//90
f 50//50 90//90 91//91
f 50//50 91//91 52//52
f 50//50 85//85 89//89
f 51//51 52//52 91//91
f 51//51 91//91 90//90
f 53//53 92//92 54//54
f 54//54 92//92 57//57
f 54//54 57//57 55//55
f 57//57 93//93 94//94
f 57//57 94//94 95//95
f 57//57 95//95 58//58
f 57//57 92//92 96//96
f 57//57 96//96 93//93
f 58//58 95//95 59//59
f 59//59 95//95 97//97
f 59//59 97//97 98//98
f 59//59 98//98 99//99
f 59//59 99//99 60//60
f 60//60 100//100 61//61
f 60//60 99//99 100//100
f 63//63 101//101 69//69
f 63//63 67//67 102//102
f 63//63 102//102 103//103
f 63//63 103//103 101//101
f 64//64 104//104 65//65
f 65//65 104//104 66//66
f 66//66 104//104 105//105
f 66//66 105//105 103//103
f 66//66 103//103 102//102
f 66//66 102//102 67//67
f 69//69 106//106 70//70
f 69//69 101//101 107//107
f 69//69 107//107 108//108
f 69//69 108//108 106//106
f 70//70 106//106 109//109
f 70//70 109//109 71//71
f 71//71 109//109 110//110
f 73//73 111//111 112//112
f 73//73 112//112 113//113
f 73//73 113//113 75//75
f 73//73 75//75 74//74
f 75//75 113//113 76//76
f 76//76 113//113 114//114
f 76//76 114//114 109//109
f 76//76 109//109 115//115
f 76//76 115//115 77//77
f 77//77 115//115 116//116
f 77//77 116//116 78//78
f 78//78 117//117 79//79
f 78//78 116//116 118//118
f 78//78 118//118 119//119
f 78//78 119//119 117//117
f 81//81 120//120 82//82
f 82//82 120//120 121//121
f 82//82 121//121 83//83
f 83//83 121//121 122//122
f 83//83 122//122 86//86
f 83//83 86//86 84//84
f 85//85 88//88 87//87
f 85//85 87//87 123//123
f 85//85 123//123 89//89
f 86//86 122//122 124//124
f 86//86 124//124 87//87
f 87//87 125//125 126//126
f 87//87 126//126 123//123
f 87//87 124//124 127//127
f 87//87 127//127 125//125
f 89//89 94//94 90//90
f 89//89 123//123 94//94
f 90//90 94//94 93//93
f 90//90 93//93 128//128
f 93//93 96//96 128//128
f 94//94 123//123 95//95
f 95//95 123//123 129//129
f 95//95 129//129 97//97
f 97//97 129//129 130//130
f 97//97 130//130 131//131
f 97//97 131//131 132//132
f 97//97 132//132 98//98
f 98//98 132//132 99//99
f 99//99 132//132 133//133
f 99//99 133//133 100//100
f 101//101 103//103 134//134
f 101//101 134//134 107//107
f 103//103 105//105 135//135
f 103//103 135//135 136//136
f 103//103 136//136 131//131
f 103//103 131//131 137//137
f 103//103 137//137 134//134
f 105//105 133//133 138//138
f 105//105 138//138 135//135
f 106//106 108//108 139//139
f 106//106 139//139 115//115
f 106//106 115//115 109//109
f 107//107 134//134 140//140
f 107//107 140//140 108//108
f 108//108 140//140 139//139
f 109//109 114//114 112//112
f 109//109 112//112 141//141
f 109//109 141//141 110//110
f 111//111 141//141 112//112
f 112//112 114//114 113//113
f 115//115 139//139 142//142
f 115//115 142//142 116//116
f 116//116 142//142 124//124
f 116//116 124//124 122//122
f 116//116 122//122 118//118
f 118//118 143//143 144//144
f 118//118 144//144 119//119
f 118//118 122//122 143//143
f 121//121 143//143 122//122
f 123//123 126//126 145//145
f 123//123 145//145 129//129
f 124//124 142//142 127//127
f 125//125 146//146 129//129
f 125//125 129//129 126//126
f 125//125 127//127 142//142
f 125//125 142//142 147//147
f 125//125 147//147 146//146
f 126//126 129//129 145//145
f 129//129 146//146 130//130
f 130//130 146//146 148//148
f 130//130 148//148 131//131
f 131//131 148//148 137//137
f 131//131 136//136 132//132
f 132//132 136//136 149//149
f 132//132 149//149 135//135
f 132//132 135//135 138//138
f 132//132 138//138 133//133
f 134//134 137//137 148//148
f 134//134 148//148 140//140
f 135//135 149//149 136//136
f 139//139 140//140 146//146
f 139//139 146//146 147//147
f 139//139 147//147 142//142
f 140//140 148//148 146//146
