# Created by Open3D 
# object name: part_019
# number of vertices: 138
# number of triangles: 272
v -0.0380898 -0.00514307 0.0715456
vn 0.999717 -2.9967e-05 0.0237798
v -0.0380898 -0.00830545 0.0715194
vn -0.530335 -0.0151236 0.847654
v -0.0380898 -0.00356093 0.071512
vn -0.463686 0.0287071 0.885534
v -0.0392663 -0.00197879 0.0708287
vn -0.494006 0.0138766 0.869348
v -0.0400559 -0.00197879 0.0703695
vn -0.504889 0.00791778 0.863148
v -0.0413734 -0.000398557 0.0695817
vn -0.520327 -0.00343468 0.85396
v -0.0380898 -0.00969339 0.0714746
vn -0.537741 -0.0278726 0.842649
v -0.042163 -0.000398557 0.0690926
vn -0.545412 -0.0138797 0.838053
v -0.0421328 -0.00197879 0.0690702
vn -0.5739 -0.0362992 0.81812
v -0.0380898 -0.00197879 0.071441
vn -0.362991 0.061153 0.929784
v -0.039228 -0.000398557 0.0707989
vn -0.46029 0.0372442 0.886987
v -0.0400197 -0.000398557 0.0703732
vn -0.489861 0.0266484 0.871393
v -0.0413593 -0.000152955 0.0695705
vn -0.000649961 0.999999 0.00110178
v -0.0421489 -0.000152955 0.0690851
vn -0.546016 0.207538 0.811662
v -0.0380898 -0.00988568 0.0714672
vn -0.569601 -0.0575998 0.819901
v -0.042995 -0.000152955 0.068428
vn -0.579116 0.34852 0.736993
v -0.042995 -0.000398557 0.0684429
vn -0.62171 -0.0177823 0.783045
v -0.042995 -0.00197879 0.0683907
vn -0.621754 -0.040737 0.782152
v -0.042995 -0.00356093 0.0682861
vn -0.615512 -0.0687066 0.785127
v -0.0420583 -0.00356093 0.0690142
vn -0.603705 -0.0672653 0.794365
v -0.0380898 -0.000390942 0.0713066
vn -0.256748 0.0865245 0.962597
v -0.0392098 -0.000152955 0.0707877
vn -0.409776 0.177993 0.894652
v -0.0398464 -0.000152955 0.0704442
vn -0.457008 0.273544 0.846355
v -0.0399774 -0.000152955 0.0703732
vn -0.497484 0.102092 0.861445
v -0.0380898 -0.0113821 0.0713552
vn -0.596866 -0.0689928 0.799369
v -0.0439398 -0.000152955 0.0676738
vn -0.546898 0.515279 0.659841
v -0.0439478 -0.000398557 0.0676775
vn -0.653803 -0.01491 0.756518
v -0.0439176 -0.00197879 0.0676514
vn -0.641463 -0.0366602 0.766277
v -0.0438592 -0.00356093 0.0675991
vn -0.636155 -0.0583269 0.769354
v -0.0438108 -0.0044748 0.0675581
vn -0.634632 -0.0794627 0.768719
v -0.0407227 -0.0130481 0.0691934
vn -0.613545 -0.0749035 0.786099
v -0.0380898 -0.000152955 0.071273
vn 0.836392 0.548131 0.000405598
v -0.0382711 -0.000152955 0.0711984
vn -0.250702 0.776189 0.578514
v -0.0380898 -0.0114659 0.0713477
vn -0.56214 -0.10319 0.820579
v -0.0447314 -0.000152955 0.0669644
vn -0.481523 0.696918 0.531452
v -0.0447375 -0.000398557 0.0669682
vn -0.67411 -0.00123151 0.73863
v -0.0455956 -0.00197879 0.0661692
vn -0.677313 -0.0177642 0.735481
v -0.0447093 -0.00197879 0.0669607
vn -0.661762 -0.0285255 0.749171
v -0.0455614 -0.00356093 0.0661318
vn -0.665828 -0.0448529 0.744756
v -0.0446509 -0.00356093 0.0669234
vn -0.651937 -0.0546415 0.756302
v -0.0454889 -0.00514307 0.0660684
vn -0.66984 -0.0790424 0.738286
v -0.0415144 -0.0130481 0.0685437
vn -0.633865 -0.0816138 0.769126
v -0.0440123 -0.0162104 0.0661468
vn -0.63874 -0.0857985 0.764624
v -0.0406502 -0.0139581 0.0691411
vn -0.608106 -0.098076 0.787774
v -0.0380898 -0.000152955 0.0534599
vn 0.798884 0.29486 -0.524253
v -0.0380898 -0.0130481 0.0711349
vn -0.300962 -0.139354 0.943399
v -0.0401728 -0.0193747 0.0688126
vn -0.585065 -0.106647 0.803944
v -0.0455896 -0.000152955 0.0661729
vn -0.494603 0.698656 0.51696
v -0.0455936 -0.000398557 0.0661766
vn -0.691276 0.00383788 0.722581
v -0.0463853 -0.00197879 0.065415
vn -0.699915 -0.00806349 0.71418
v -0.0463531 -0.00356093 0.0653926
vn -0.691176 -0.0582703 0.720334
v -0.0456662 -0.0162104 0.0646608
vn -0.672409 -0.0897898 0.734713
v -0.044802 -0.0162104 0.0654486
vn -0.66578 -0.0982809 0.739647
v -0.0515282 -0.0146302 0.0594561
vn -0.710378 -0.0555807 0.701623
v -0.0506438 -0.0162104 0.060102
vn -0.673634 -0.0882791 0.733774
v -0.0438934 -0.0174784 0.0660534
vn -0.656313 -0.133372 0.742607
v -0.0412082 -0.0193747 0.068021
vn -0.623159 -0.103315 0.775241
v -0.0421932 -0.0169244 0.0675282
vn -0.625524 -0.0956794 0.774316
v -0.0380898 -0.0196032 0.054229
vn 0.762113 -0.568096 -0.310565
v -0.0586674 -0.0196032 0.0334066
vn 0.105131 -0.404569 -0.908445
v -0.0586674 -0.000152955 0.0340264
vn 0.0352129 0.873027 -0.486398
v -0.0380898 -0.0178973 0.0703844
vn -0.0022596 -0.153015 0.988221
v -0.0393831 -0.0193747 0.069339
vn -0.536617 -0.128673 0.833957
v -0.04118 -0.0196032 0.0679986
vn -0.0219988 -0.999349 0.0286109
v -0.0402956 -0.0196032 0.0686744
vn -0.0107764 -0.999842 0.0141245
v -0.0401425 -0.0196032 0.0687902
vn -0.00972371 -0.999851 0.014275
v -0.0463793 -0.000152955 0.0653888
vn -0.361963 0.860735 0.357937
v -0.0463833 -0.000398557 0.0653926
vn -0.708187 0.0147954 0.70587
v -0.047179 -0.00197879 0.0646234
vn -0.713887 0.00150348 0.700259
v -0.0471589 -0.00356093 0.064601
vn -0.709658 -0.0427203 0.70325
v -0.048714 -0.0193747 0.0613827
vn -0.671085 -0.112752 0.732756
v -0.0486959 -0.0196032 0.061364
vn -0.445594 -0.750537 0.487995
v -0.0518203 -0.00514307 0.0597735
vn -0.715211 -0.0450512 0.697455
v -0.0526603 -0.00356093 0.0589595
vn -0.739084 -0.0341984 0.672744
v -0.0533775 -0.00356093 0.058168
vn -0.752417 -0.03703 0.657645
v -0.0533271 -0.00514307 0.058112
vn -0.757008 -0.0505184 0.65145
v -0.0522091 -0.0146302 0.0586646
vn -0.757589 -0.0520445 0.650654
v -0.0529484 -0.0162104 0.0576677
vn -0.759037 -0.0601041 0.648268
v -0.0521567 -0.0162104 0.0585787
vn -0.74694 -0.0979279 0.65764
v -0.0514355 -0.0162104 0.0593665
vn -0.69786 -0.112497 0.707344
v -0.0479727 -0.0196032 0.0620136
vn -0.110242 -0.98625 0.123113
v -0.0470239 -0.0196032 0.0628612
vn -0.109747 -0.986275 0.12336
v -0.0462604 -0.0196032 0.063537
vn -0.109319 -0.986296 0.123574
v -0.0420986 -0.0196032 0.0672183
vn -0.113618 -0.985185 0.12846
v -0.0419978 -0.0193747 0.0673527
vn -0.644563 -0.132827 0.752925
v -0.0412948 -0.0196032 0.0679016
vn -0.0234543 -0.999341 0.0277128
v -0.0380898 -0.0196032 0.070082
vn 0.999795 -0.0202516 0.000493488
v -0.0586674 -0.0196032 0.0505813
vn -0.00405969 -0.999988 0.00287264
v -0.0586674 -0.000152955 0.0519702
vn -0.740088 0.672505 0.00253477
v -0.0380898 -0.0180153 0.0703658
vn 0.10067 -0.161365 0.981747
v -0.0393529 -0.0196032 0.0693166
vn -0.0233434 -0.999049 0.0368133
v -0.0380898 -0.0192148 0.0701679
vn 0.14963 -0.1693 0.97414
v -0.0471548 -0.000152955 0.0645973
vn -0.655525 0.418849 0.628372
v -0.0471589 -0.000398557 0.064601
vn -0.715618 0.0195192 0.698219
v -0.0518646 -0.00197879 0.0598183
vn -0.720734 0.025134 0.692756
v -0.0518686 -0.00356093 0.059822
vn -0.715806 -0.0196347 0.698023
v -0.0504948 -0.0177926 0.0599825
vn -0.684587 -0.129314 0.717369
v -0.0495057 -0.0193747 0.0606359
vn -0.683608 -0.13163 0.717882
v -0.0494835 -0.0196032 0.0606135
vn -0.0190465 -0.99962 0.0199445
v -0.0526563 -0.00197879 0.0589521
vn -0.739178 0.0419129 0.672205
v -0.0533734 -0.00197879 0.0581605
vn -0.745011 0.011363 0.666955
v -0.0543021 -0.00183219 0.0571039
vn -0.750897 0.00661365 0.660386
v -0.0548601 -0.00226057 0.0564729
vn -0.756291 0.00524078 0.654215
v -0.0548601 -0.00286982 0.0564729
vn -0.759068 -0.0178614 0.650766
v -0.0586674 -0.00356093 0.0519963
vn -0.97392 -0.0111418 0.226617
v -0.0586674 -0.00514307 0.0518955
vn -0.958111 -0.0201724 0.285685
v -0.0586674 -0.00672331 0.051776
vn -0.933867 -0.0293148 0.356418
v -0.0586674 -0.0161267 0.0509658
vn -0.9725 -0.0199988 0.232042
v -0.0586674 -0.0162104 0.0509584
vn -0.972318 -0.0234466 0.232481
v -0.0586674 -0.0177926 0.0507978
vn -0.972202 -0.0255403 0.232747
v -0.0586674 -0.0193747 0.0506112
vn -0.972077 -0.0277096 0.233021
v -0.0586674 -0.0195822 0.050585
vn -0.802903 -0.0946907 0.588541
v -0.0535225 -0.0177926 0.0567679
vn -0.748289 -0.108771 0.654394
v -0.0528315 -0.0177926 0.0575557
vn -0.741579 -0.115422 0.660862
v -0.0520419 -0.0177926 0.0584294
vn -0.728037 -0.128237 0.673437
v -0.0512844 -0.0177926 0.0592209
vn -0.703056 -0.136545 0.697903
v -0.0419696 -0.0196032 0.0673303
vn -0.0118074 -0.999834 0.0138899
v -0.0383819 -0.0196032 0.069914
vn -0.0147605 -0.999594 0.024358
v -0.0533875 -0.0196032 0.0565999
vn -0.0254349 -0.999416 0.0228095
v -0.0534077 -0.0193747 0.0566223
vn -0.745431 -0.117436 0.656157
v -0.0586674 -0.000219591 0.0519777
vn -0.920577 0.035224 0.38897
v -0.0548198 -0.000398557 0.0564281
vn -0.746856 0.0670035 0.661601
v -0.0548057 -0.000152955 0.0564132
vn -0.119684 0.987336 0.10413
v -0.0517921 -0.000152955 0.0597436
vn -0.255407 0.937397 0.236757
v -0.0518042 -0.000398557 0.0597548
vn -0.730494 0.0581672 0.680438
v -0.0503356 -0.0193747 0.0598444
vn -0.690241 -0.136522 0.710583
v -0.0503094 -0.0196032 0.059822
vn -0.0189993 -0.999634 0.0192749
v -0.054854 -0.00120771 0.0564655
vn -0.75167 0.0369146 0.658506
v -0.0586674 -0.00197879 0.0520411
vn -0.972951 0.000370439 0.231012
v -0.0526845 -0.0193747 0.0574138
vn -0.727879 -0.136179 0.672047
v -0.0518928 -0.0193747 0.0582651
vn -0.71755 -0.141346 0.682014
v -0.0511253 -0.0193747 0.0590566
vn -0.704512 -0.145851 0.694543
v -0.0528235 -0.0196032 0.0572159
vn -0.0197482 -0.999637 0.0183228
v -0.0586674 -0.000398557 0.0519889
vn -0.987468 0.00707259 0.15766
v -0.0546848 -0.000152955 0.0565476
vn -0.153228 0.978415 0.138653
v -0.0510991 -0.0196032 0.0590305
vn -0.0128402 -0.999838 0.0126466
v -0.0586674 -0.000802184 0.0520038
vn -0.987253 0.00526159 0.159069
v -0.0518686 -0.0196032 0.0582389
vn -0.0185732 -0.99967 0.0177594
f 1//1 2//2 7//7
f 1//1 7//7 15//15
f 1//1 15//15 25//25
f 1//1 25//25 34//34
f 1//1 34//34 46//46
f 1//1 46//46 62//62
f 1//1 62//62 90//90
f 1//1 90//90 92//92
f 1//1 92//92 87//87
f 1//1 87//87 59//59
f 1//1 59//59 45//45
f 1//1 45//45 32//32
f 1//1 32//32 21//21
f 1//1 21//21 10//10
f 1//1 10//10 3//3
f 1//1 3//3 4//4
f 1//1 4//4 5//5
f 1//1 5//5 6//6
f 1//1 6//6 2//2
f 2//2 6//6 8//8
f 2//2 8//8 9//9
f 2//2 9//9 7//7
f 3//3 10//10 11//11
f 3//3 11//11 12//12
f 3//3 12//12 4//4
f 4//4 12//12 5//5
f 5//5 12//12 6//6
f 6//6 12//12 13//13
f 6//6 13//13 14//14
f 6//6 14//14 8//8
f 7//7 9//9 15//15
f 8//8 14//14 16//16
f 8//8 16//16 17//17
f 8//8 17//17 9//9
f 9//9 17//17 18//18
f 9//9 18//18 19//19
f 9//9 19//19 20//20
f 9//9 20//20 15//15
f 10//10 21//21 22//22
f 10//10 22//22 11//11
f 11//11 22//22 12//12
f 12//12 22//22 23//23
f 12//12 23//23 24//24
f 12//12 24//24 13//13
f 13//13 24//24 23//23
f 13//13 23//23 22//22
f 13//13 22//22 33//33
f 13//13 33//33 32//32
f 13//13 32//32 45//45
f 13//13 45//45 61//61
f 13//13 61//61 89//89
f 13//13 89//89 123//123
f 13//13 123//123 135//135
f 13//13 135//135 124//124
f 13//13 124//124 93//93
f 13//13 93//93 67//67
f 13//13 67//67 48//48
f 13//13 48//48 35//35
f 13//13 35//35 26//26
f 13//13 26//26 16//16
f 13//13 16//16 14//14
f 15//15 20//20 25//25
f 16//16 26//26 17//17
f 17//17 26//26 27//27
f 17//17 27//27 28//28
f 17//17 28//28 18//18
f 18//18 28//28 29//29
f 18//18 29//29 19//19
f 19//19 29//29 30//30
f 19//19 30//30 31//31
f 19//19 31//31 20//20
f 20//20 31//31 25//25
f 21//21 32//32 33//33
f 21//21 33//33 22//22
f 25//25 31//31 34//34
f 26//26 35//35 27//27
f 27//27 35//35 36//36
f 27//27 36//36 37//37
f 27//27 37//37 38//38
f 27//27 38//38 28//28
f 28//28 38//38 39//39
f 28//28 39//39 40//40
f 28//28 40//40 29//29
f 29//29 40//40 41//41
f 29//29 41//41 30//30
f 30//30 42//42 31//31
f 30//30 41//41 43//43
f 30//30 43//43 42//42
f 31//31 44//44 34//34
f 31//31 42//42 43//43
f 31//31 43//43 44//44
f 34//34 44//44 47//47
f 34//34 47//47 46//46
f 35//35 48//48 36//36
f 36//36 48//48 49//49
f 36//36 49//49 37//37
f 37//37 39//39 38//38
f 37//37 49//49 50//50
f 37//37 50//50 51//51
f 37//37 51//51 39//39
f 39//39 41//41 40//40
f 39//39 51//51 41//41
f 41//41 52//52 53//53
f 41//41 53//53 43//43
f 41//41 51//51 54//54
f 41//41 54//54 55//55
f 41//41 55//55 52//52
f 43//43 53//53 56//56
f 43//43 56//56 57//57
f 43//43 57//57 58//58
f 43//43 58//58 44//44
f 44//44 58//58 57//57
f 44//44 57//57 47//47
f 45//45 59//59 60//60
f 45//45 60//60 61//61
f 46//46 47//47 63//63
f 46//46 63//63 62//62
f 47//47 57//57 64//64
f 47//47 64//64 65//65
f 47//47 65//65 66//66
f 47//47 66//66 91//91
f 47//47 91//91 63//63
f 48//48 67//67 68//68
f 48//48 68//68 49//49
f 49//49 68//68 50//50
f 50//50 68//68 69//69
f 50//50 69//69 70//70
f 50//50 70//70 51//51
f 51//51 70//70 54//54
f 52//52 55//55 71//71
f 52//52 71//71 72//72
f 52//52 72//72 53//53
f 53//53 72//72 56//56
f 54//54 73//73 74//74
f 54//54 74//74 75//75
f 54//54 75//75 76//76
f 54//54 76//76 77//77
f 54//54 77//77 78//78
f 54//54 78//78 79//79
f 54//54 79//79 80//80
f 54//54 80//80 55//55
f 54//54 70//70 73//73
f 55//55 80//80 72//72
f 55//55 72//72 71//71
f 56//56 72//72 81//81
f 56//56 81//81 82//82
f 56//56 82//82 83//83
f 56//56 83//83 84//84
f 56//56 84//84 85//85
f 56//56 85//85 57//57
f 57//57 85//85 86//86
f 57//57 86//86 64//64
f 59//59 87//87 118//118
f 59//59 118//118 91//91
f 59//59 91//91 66//66
f 59//59 66//66 65//65
f 59//59 65//65 64//64
f 59//59 64//64 86//86
f 59//59 86//86 117//117
f 59//59 117//117 84//84
f 59//59 84//84 83//83
f 59//59 83//83 82//82
f 59//59 82//82 81//81
f 59//59 81//81 72//72
f 59//59 72//72 99//99
f 59//59 99//99 127//127
f 59//59 127//127 136//136
f 59//59 136//136 138//138
f 59//59 138//138 133//133
f 59//59 133//133 119//119
f 59//59 119//119 88//88
f 59//59 88//88 60//60
f 60//60 88//88 112//112
f 60//60 112//112 111//111
f 60//60 111//111 110//110
f 60//60 110//110 109//109
f 60//60 109//109 108//108
f 60//60 108//108 107//107
f 60//60 107//107 106//106
f 60//60 106//106 105//105
f 60//60 105//105 129//129
f 60//60 129//129 137//137
f 60//60 137//137 134//134
f 60//60 134//134 121//121
f 60//60 121//121 89//89
f 60//60 89//89 61//61
f 62//62 63//63 90//90
f 63//63 91//91 92//92
f 63//63 92//92 90//90
f 67//67 93//93 94//94
f 67//67 94//94 68//68
f 68//68 94//94 69//69
f 69//69 94//94 95//95
f 69//69 95//95 96//96
f 69//69 96//96 70//70
f 70//70 96//96 73//73
f 72//72 80//80 97//97
f 72//72 97//97 98//98
f 72//72 98//98 99//99
f 73//73 96//96 74//74
f 74//74 96//96 95//95
f 74//74 95//95 100//100
f 74//74 100//100 101//101
f 74//74 101//101 75//75
f 75//75 101//101 102//102
f 75//75 102//102 103//103
f 75//75 103//103 104//104
f 75//75 104//104 105//105
f 75//75 105//105 106//106
f 75//75 106//106 76//76
f 76//76 106//106 107//107
f 76//76 107//107 77//77
f 77//77 107//107 78//78
f 78//78 107//107 108//108
f 78//78 108//108 109//109
f 78//78 109//109 110//110
f 78//78 110//110 111//111
f 78//78 111//111 112//112
f 78//78 112//112 79//79
f 79//79 112//112 113//113
f 79//79 113//113 114//114
f 79//79 114//114 115//115
f 79//79 115//115 80//80
f 80//80 116//116 97//97
f 80//80 115//115 116//116
f 84//84 117//117 85//85
f 85//85 117//117 86//86
f 87//87 92//92 118//118
f 88//88 119//119 120//120
f 88//88 120//120 112//112
f 89//89 121//121 122//122
f 89//89 122//122 123//123
f 91//91 118//118 92//92
f 93//93 124//124 125//125
f 93//93 125//125 95//95
f 93//93 95//95 94//94
f 95//95 125//125 100//100
f 97//97 116//116 126//126
f 97//97 126//126 98//98
f 98//98 126//126 99//99
f 99//99 126//126 127//127
f 100//100 125//125 128//128
f 100//100 128//128 101//101
f 101//101 128//128 102//102
f 102//102 128//128 103//103
f 103//103 128//128 129//129
f 103//103 129//129 104//104
f 104//104 129//129 105//105
f 112//112 120//120 113//113
f 113//113 120//120 114//114
f 114//114 120//120 115//115
f 115//115 120//120 119//119
f 115//115 119//119 130//130
f 115//115 130//130 131//131
f 115//115 131//131 116//116
f 116//116 132//132 126//126
f 116//116 131//131 132//132
f 119//119 133//133 130//130
f 121//121 134//134 128//128
f 121//121 128//128 122//122
f 122//122 128//128 125//125
f 122//122 125//125 124//124
f 122//122 124//124 135//135
f 122//122 135//135 123//123
f 126//126 132//132 127//127
f 127//127 132//132 136//136
f 128//128 134//134 137//137
f 128//128 137//137 129//129
f 130//130 133//133 131//131
f 131//131 133//133 138//138
f 131//131 138//138 132//132
f 132//132 138//138 136//136
